<?xml version="1.0" encoding="UTF-8"?>
<!DOCTYPE svg PUBLIC "-//W3C//DTD SVG 1.1//EN" "http://www.w3.org/Graphics/SVG/1.1/DTD/svg11.dtd">
<!-- Creator: CorelDRAW Standard 2021 (64-Bit) -->
<svg xmlns="http://www.w3.org/2000/svg" xml:space="preserve" width="14.7901mm" height="23.4303mm" version="1.1" style="shape-rendering:geometricPrecision; text-rendering:geometricPrecision; image-rendering:optimizeQuality; fill-rule:evenodd; clip-rule:evenodd"
viewBox="0 0 81.44 129.02"
 xmlns:xlink="http://www.w3.org/1999/xlink"
 xmlns:xodm="http://www.corel.com/coreldraw/odm/2003">
 <defs>
  <style type="text/css">
   <![CDATA[
    .str0 {stroke:#1D1D1B;stroke-width:2.04;stroke-linecap:round;stroke-linejoin:round;stroke-miterlimit:10}
    .str1 {stroke:#1D1D1B;stroke-width:2.04;stroke-linecap:round;stroke-linejoin:round;stroke-miterlimit:10}
    .fil2 {fill:none;fill-rule:nonzero}
    .fil1 {fill:#1D1D1B;fill-rule:nonzero}
    .fil0 {fill:white;fill-rule:nonzero}
   ]]>
  </style>
 </defs>
 <g id="Layer_x0020_1">
  <metadata id="CorelCorpID_0Corel-Layer"/>
  <g id="_1579751455232">
   <path class="fil0" d="M64.17 84.54c0.16,1.72 0.25,3.31 0.25,4.73 0,1.5 -0.17,2.93 -0.5,4.27l-0.05 -0.02c-6.19,0.67 -10.59,0.12 -11.84,-0.13 -1.26,-0.26 -1.49,-5.65 -0.31,-5.77 1.6,-0.17 9.28,-1.07 12.46,-3.08l0 0z"/>
   <path class="fil0" d="M35.29 88.06c0.99,0.05 0.84,5.83 -0.09,6.06 -1.83,0.44 -7.01,1.3 -11.73,0.88 -0.64,-1.83 -0.98,-3.88 -0.99,-6.15 -0,-1.05 0.02,-2.09 0.08,-3.13 4.16,1.59 10.93,2.25 12.73,2.34z"/>
   <path class="fil1" d="M50.52 33.73c1.2,0.28 1.76,1.82 0.65,2.67 -0.99,0.76 -2.26,-0.01 -2.53,-1.08 -0.19,-0.82 0.69,-1.86 1.88,-1.59z"/>
   <path class="fil1" d="M43.5 77.16c0.71,-0.06 1.46,0.82 1.07,1.78 -0.39,0.97 -1.75,1.23 -2.32,0.18 -0.5,-0.93 0.32,-1.89 1.25,-1.97z"/>
   <path class="fil1" d="M37.47 34.01c0.84,-0.07 1.73,0.97 1.27,2.11 -0.46,1.14 -2.07,1.45 -2.75,0.21 -0.59,-1.1 0.38,-2.23 1.48,-2.32z"/>
   <path class="fil2 str0" d="M66.44 36.15c-0.7,13.47 -12.11,22.98 -26.88,20.51 -15.28,-2.55 -18.17,-16.41 -17.43,-25.1 0.37,-4.39 6.07,-20.39 22.57,-20.68 16.49,-0.3 22.17,17.3 21.75,25.27z"/>
   <path class="fil2 str0" d="M22.08 32.27c-2.83,-0.47 -5.85,2.11 -5.79,5.31 0.06,3.85 3.24,5.8 6.42,5.03"/>
   <path class="fil2 str0" d="M66.53 32.92c1.74,-0.43 5.04,1.39 5.19,4.75 0.13,2.81 -3.57,4.91 -6.26,4.16"/>
   <path class="fil1" d="M37.47 34.01c0.84,-0.06 1.73,0.97 1.27,2.11 -0.46,1.14 -2.07,1.45 -2.75,0.22 -0.59,-1.1 0.38,-2.24 1.48,-2.32z"/>
   <path class="fil1" d="M43.5 77.16c0.71,-0.06 1.46,0.82 1.07,1.79 -0.39,0.96 -1.75,1.23 -2.32,0.18 -0.51,-0.93 0.32,-1.89 1.25,-1.97z"/>
   <path class="fil1" d="M48.64 35.32c-0.19,-0.83 0.69,-1.86 1.88,-1.59 1.2,0.27 1.76,1.82 0.65,2.67 -0.99,0.76 -2.26,-0.02 -2.53,-1.08z"/>
   <path class="fil2 str0" d="M33.51 41.4c0.6,2.17 3.81,7.47 10,7.21 6.98,-0.29 9.24,-5.95 9.8,-7.99"/>
   <path class="fil2 str0" d="M53.43 105c0.79,12.86 0.48,13.77 0.93,20.38"/>
   <path class="fil2 str0" d="M64.74 125.19c0.02,1.38 -1.13,2.23 -4.93,2.24 -3.32,0.01 -5.42,-0.12 -5.45,-2.05 -0.03,-1.71 3.12,-2.96 6.03,-2.65 3.09,0.33 4.34,1.69 4.35,2.46z"/>
   <path class="fil2 str0" d="M34.78 105.17c-0.32,12.89 0.18,13.93 -0.03,20.56"/>
   <path class="fil2 str0" d="M24.36 125.92c0.02,1.38 1.2,2.19 5.01,2.06 3.32,-0.11 5.4,-0.32 5.37,-2.25 -0.04,-1.71 -3.22,-2.84 -6.12,-2.42 -3.08,0.44 -4.28,1.84 -4.26,2.61z"/>
   <path class="fil2 str0" d="M27.97 59.66c-5.98,4.93 -11.15,6.64 -20.42,12.06"/>
   <path class="fil2 str0" d="M78.02 76.27c1.91,0.97 3.4,6.51 1.55,7.28 -1.84,0.76 -5.5,-3.47 -5.28,-5.47 0.17,-1.61 1.9,-2.75 3.73,-1.81z"/>
   <path class="fil2 str0" d="M59.5 58.42c4.76,5.87 8.39,10.67 15.35,18.35"/>
   <path class="fil2 str0" d="M43.6 16c-1,-1.72 -2.91,-6.91 0.57,-10.31 2.4,-2.34 7.27,-2.43 8.02,0.34 0.75,2.77 -2.17,3.17 -3.45,1.87 -1.28,-1.3 -2.94,-4.61 3.35,-6.88"/>
   <path class="fil2 str0" d="M29.81 52.52c-3.39,12.78 -7.36,24.45 -7.33,36.33 0.02,11.88 9.32,17.84 22.11,17.56 11.88,-0.26 19.83,-6.83 19.83,-17.13 -0,-10.3 -4.83,-29.91 -6.6,-36.54"/>
   <path class="fil2 str0" d="M22.98 81.13c12.59,2.89 30.33,2.7 40.65,-1.11"/>
   <path class="fil2 str0" d="M22.56 85.72c4.16,1.59 10.92,2.25 12.73,2.34 0.99,0.05 0.84,5.83 -0.09,6.06 -1.83,0.44 -7.01,1.3 -11.73,0.88"/>
   <path class="fil2 str0" d="M64.17 84.54c-3.17,2.01 -10.86,2.91 -12.46,3.08 -1.18,0.12 -0.95,5.52 0.31,5.77 1.25,0.26 5.65,0.8 11.84,0.14"/>
   <path class="fil2 str1" d="M5.13 71.27c-2.12,0.34 -5.23,5.16 -3.7,6.46 1.52,1.29 6.3,-1.62 6.7,-3.6 0.33,-1.59 -0.97,-3.2 -3,-2.86z"/>
  </g>
 </g>
</svg>
