<?xml version="1.0" encoding="UTF-8"?>
<!DOCTYPE svg PUBLIC "-//W3C//DTD SVG 1.1//EN" "http://www.w3.org/Graphics/SVG/1.1/DTD/svg11.dtd">
<!-- Creator: CorelDRAW Standard 2021 (64-Bit) -->
<svg xmlns="http://www.w3.org/2000/svg" xml:space="preserve" width="11.2953mm" height="12.8885mm" version="1.1" style="shape-rendering:geometricPrecision; text-rendering:geometricPrecision; image-rendering:optimizeQuality; fill-rule:evenodd; clip-rule:evenodd"
viewBox="0 0 883.03 1007.58"
 xmlns:xlink="http://www.w3.org/1999/xlink"
 xmlns:xodm="http://www.corel.com/coreldraw/odm/2003">
 <defs>
  <style type="text/css">
   <![CDATA[
    .str2 {stroke:#2B2A29;stroke-width:21.87;stroke-linecap:round;stroke-linejoin:round;stroke-miterlimit:10}
    .str0 {stroke:#1A1A1A;stroke-width:21.87;stroke-linecap:round;stroke-linejoin:round;stroke-miterlimit:10}
    .str1 {stroke:#1A1A1A;stroke-width:21.87;stroke-linecap:round;stroke-linejoin:round;stroke-miterlimit:10}
    .str3 {stroke:#1A1A1A;stroke-width:21.87;stroke-linecap:round;stroke-linejoin:round;stroke-miterlimit:10}
    .fil0 {fill:none;fill-rule:nonzero}
    .fil1 {fill:#1A1A1A;fill-rule:nonzero}
   ]]>
  </style>
 </defs>
 <g id="Layer_x0020_1">
  <metadata id="CorelCorpID_0Corel-Layer"/>
  <g id="_1579756487120">
   <path class="fil0 str0" d="M349.28 288.57c11.3,-0.15 19.46,5.07 21.43,16.75 1.93,11.72 -9.37,17.14 -17.53,17.54 -8.19,0.4 -19.5,-7.4 -19.09,-17.14 0.4,-9.74 7.36,-17.04 15.19,-17.14z"/>
   <path class="fil1" d="M283.81 203.08c9.21,-0.1 15.92,4.12 17.53,13.7 1.56,9.55 -7.66,14.02 -14.37,14.31 -6.7,0.34 -15.92,-6.01 -15.59,-14.01 0.29,-7.95 6.01,-13.92 12.43,-14.01z"/>
   <path class="fil1" d="M423.37 203.08c9.25,-0.1 15.92,4.12 17.53,13.7 1.6,9.55 -7.65,14.02 -14.36,14.31 -6.67,0.34 -15.92,-6.01 -15.6,-14.01 0.33,-7.95 6.02,-13.92 12.43,-14.01z"/>
   <path class="fil0 str0" d="M367.17 296.33c9.19,-9.09 56.7,-46.2 109.43,-45.46 52.69,0.74 69.86,32.54 68.4,54.85 -1.49,22.35 -18.66,67.66 -65.45,66.92 -46.75,-0.75 -106.7,-47.4 -112.38,-55.65"/>
   <path class="fil0 str0" d="M337.55 295.28c-9.44,-5.81 -55.65,-29.56 -99.45,-27.32 -43.8,2.18 -61.62,20.02 -61.62,56.58 -0.04,29.51 29.88,50.32 73.68,48.09 43.8,-2.24 89.39,-55.29 89.39,-55.29"/>
   <path class="fil0 str0" d="M326.11 331.15c2.74,24.2 48.03,41.49 57.21,0"/>
   <path class="fil0 str0" d="M575.36 286.99c-3.24,-98.22 -49.02,-217.1 -220.65,-211.64 -209.46,6.71 -208.55,169.46 -208.8,221.62 -0.44,93.55 57.25,153.71 214.92,162.61 157.71,8.89 216.89,-100.41 214.53,-172.59z"/>
   <path class="fil0 str0" d="M179.73 301.19c-11.12,-4.02 -75.29,-6.31 -96.64,-12.62"/>
   <path class="fil0 str0" d="M178.63 337.76c-22.26,3.39 -77.72,26.34 -95.54,39.7"/>
   <path class="fil0 str0" d="M192.26 363.74c-12.24,5.96 -53.46,37.11 -65.74,59.37"/>
   <path class="fil0 str0" d="M538.51 279.73c10.02,-6.9 54.62,-24.45 98.07,-25.19"/>
   <path class="fil0 str0" d="M543.18 317.24c14.47,3.38 87.86,3.18 93.4,0.95"/>
   <path class="fil0 str0" d="M520.48 357.63c31.49,15.01 92.74,30.96 106.08,35.42"/>
   <path class="fil0 str0" d="M463.45 93.28c0,0 114.13,-58.02 130.45,-71.39 -1.49,57.93 -17.42,146.91 -28.75,195.2"/>
   <path class="fil0 str0" d="M246.81 98.65c-40.45,-35.18 -105.06,-72.29 -120.29,-87.14 -7.29,53.46 13.34,188.44 27.26,205.58"/>
   <path class="fil0 str1" d="M214.53 424.05c-20.04,22.55 -96.45,133.34 -113.4,246.76 -18.04,120.28 -32.87,313.29 47.7,325.15 79.08,11.68 72.37,-114.31 78.31,-155.89 5.94,-41.58 25.25,-109.89 89.1,-114.31 63.85,-4.47 108.19,65.32 109.76,117.29 1.59,51.97 10.82,151.37 64.71,145.52 67.92,-7.4 85.74,-184.11 79.62,-301.41 -6.12,-117.34 -44.75,-219.19 -79.62,-254.36"/>
   <path class="fil0 str1" d="M104.44 652.18c-21.35,23.05 -88.58,131.45 -93.03,187.89 -4.45,56.44 21.21,106.91 83.96,87.89"/>
   <path class="fil0 str1" d="M564.39 627.94c26.53,28.02 72.19,139.4 72.19,186.9 0,69.8 -42.68,126.23 -91.51,112.57"/>
   <path class="fil0 str0" d="M613.22 721.29c34.15,-14.85 152.68,-188.98 170.65,-315.17 17.82,-125.25 -19.21,-240.15 -63.78,-311.45 -34.29,-54.9 16.36,-129.16 78.72,-47.54 62.39,81.67 87.6,239.1 65.34,396.5 -22.27,157.39 -149.22,356.35 -227.57,371.21"/>
   <path class="fil0 str1" d="M221.3 905.4c29.59,13.36 160.78,11.92 210.26,0"/>
   <path class="fil0 str0" d="M349.28 288.57c11.3,-0.15 19.46,5.07 21.43,16.75 1.93,11.72 -9.37,17.14 -17.53,17.54 -8.19,0.4 -19.5,-7.4 -19.09,-17.14 0.4,-9.74 7.36,-17.04 15.19,-17.14z"/>
   <path class="fil1" d="M283.81 203.08c9.21,-0.1 15.92,4.12 17.53,13.7 1.56,9.55 -7.66,14.02 -14.37,14.31 -6.7,0.34 -15.92,-6.01 -15.59,-14.01 0.29,-7.95 6.01,-13.92 12.43,-14.01z"/>
   <path class="fil1" d="M423.37 203.08c9.25,-0.1 15.92,4.12 17.53,13.7 1.6,9.55 -7.65,14.02 -14.36,14.31 -6.67,0.34 -15.92,-6.01 -15.6,-14.01 0.33,-7.95 6.02,-13.92 12.43,-14.01z"/>
   <path class="fil0 str2" d="M367.17 296.33c9.19,-9.09 56.7,-46.2 109.43,-45.46 52.69,0.74 69.86,32.54 68.4,54.85 -1.49,22.35 -18.66,67.66 -65.45,66.92 -46.75,-0.75 -106.7,-47.4 -112.38,-55.65"/>
   <path class="fil0 str2" d="M337.55 295.28c-9.44,-5.81 -55.65,-29.56 -99.45,-27.32 -43.8,2.18 -61.62,20.02 -61.62,56.58 -0.04,29.51 29.88,50.32 73.68,48.09 43.8,-2.24 89.39,-55.29 89.39,-55.29"/>
   <path class="fil0 str0" d="M326.11 331.15c2.74,24.2 48.03,41.49 57.21,0"/>
   <path class="fil0 str2" d="M575.36 286.99c-3.24,-98.22 -49.02,-217.1 -220.65,-211.64 -209.46,6.71 -208.55,169.46 -208.8,221.62 -0.44,93.55 57.25,153.71 214.92,162.61 157.71,8.89 216.89,-100.41 214.53,-172.59z"/>
   <path class="fil0 str0" d="M179.73 301.19c-11.12,-4.02 -75.29,-6.31 -96.64,-12.62"/>
   <path class="fil0 str0" d="M178.63 337.76c-22.26,3.39 -77.72,26.34 -95.54,39.7"/>
   <path class="fil0 str0" d="M192.26 363.74c-12.24,5.96 -53.46,37.11 -65.74,59.37"/>
   <path class="fil0 str0" d="M538.51 279.73c10.02,-6.9 54.62,-24.45 98.07,-25.19"/>
   <path class="fil0 str0" d="M543.18 317.24c14.47,3.38 87.86,3.18 93.4,0.95"/>
   <path class="fil0 str0" d="M520.48 357.63c31.49,15.01 92.74,30.96 106.08,35.42"/>
   <path class="fil0 str0" d="M463.45 93.28c0,0 114.13,-58.02 130.45,-71.39 -1.49,57.93 -17.42,146.91 -28.75,195.2"/>
   <path class="fil0 str0" d="M246.81 98.65c-40.45,-35.18 -105.06,-72.29 -120.29,-87.14 -7.29,53.46 13.34,188.44 27.26,205.58"/>
   <path class="fil0 str3" d="M214.53 424.05c-20.04,22.55 -96.45,133.34 -113.4,246.76 -18.04,120.28 -32.87,313.29 47.7,325.15 79.08,11.68 72.37,-114.31 78.31,-155.89 5.94,-41.58 25.25,-109.89 89.1,-114.31 63.85,-4.47 108.19,65.32 109.76,117.29 1.59,51.97 10.82,151.37 64.71,145.52 67.92,-7.4 85.74,-184.11 79.62,-301.41 -6.12,-117.34 -44.75,-219.19 -79.62,-254.36"/>
   <path class="fil0 str3" d="M104.44 652.18c-21.35,23.05 -88.58,131.45 -93.03,187.89 -4.45,56.44 21.21,106.91 83.96,87.89"/>
   <path class="fil0 str3" d="M564.39 627.94c26.53,28.02 72.19,139.4 72.19,186.9 0,69.8 -42.68,126.23 -91.51,112.57"/>
   <path class="fil0 str0" d="M613.22 721.29c34.15,-14.85 152.68,-188.98 170.65,-315.17 17.82,-125.25 -19.21,-240.15 -63.78,-311.45 -34.29,-54.9 16.36,-129.16 78.72,-47.54 62.39,81.67 87.6,239.1 65.34,396.5 -22.27,157.39 -149.22,356.35 -227.57,371.21"/>
   <path class="fil0 str3" d="M221.3 905.4c29.59,13.36 160.78,11.92 210.26,0"/>
  </g>
 </g>
</svg>
