<?xml version="1.0" encoding="UTF-8"?>
<!DOCTYPE svg PUBLIC "-//W3C//DTD SVG 1.1//EN" "http://www.w3.org/Graphics/SVG/1.1/DTD/svg11.dtd">
<!-- Creator: CorelDRAW Standard 2021 (64-Bit) -->
<svg xmlns="http://www.w3.org/2000/svg" xml:space="preserve" width="10.3338mm" height="11.7915mm" version="1.1" style="shape-rendering:geometricPrecision; text-rendering:geometricPrecision; image-rendering:optimizeQuality; fill-rule:evenodd; clip-rule:evenodd"
viewBox="0 0 234.38 267.44"
 xmlns:xlink="http://www.w3.org/1999/xlink"
 xmlns:xodm="http://www.corel.com/coreldraw/odm/2003">
 <defs>
  <style type="text/css">
   <![CDATA[
    .str3 {stroke:#1A1A1A;stroke-width:5.8;stroke-linecap:round;stroke-linejoin:round;stroke-miterlimit:10}
    .str1 {stroke:#1A1A1A;stroke-width:5.8;stroke-linecap:round;stroke-linejoin:round;stroke-miterlimit:10}
    .str2 {stroke:#2B2A29;stroke-width:5.8;stroke-linecap:round;stroke-linejoin:round;stroke-miterlimit:10}
    .str0 {stroke:#1A1A1A;stroke-width:5.8;stroke-linecap:round;stroke-linejoin:round;stroke-miterlimit:10}
    .fil0 {fill:none;fill-rule:nonzero}
    .fil1 {fill:#1A1A1A;fill-rule:nonzero}
   ]]>
  </style>
 </defs>
 <g id="Layer_x0020_1">
  <metadata id="CorelCorpID_0Corel-Layer"/>
  <g id="_1577811564560">
   <path class="fil0 str0" d="M92.71 76.59c3,-0.04 5.16,1.34 5.69,4.44 0.51,3.11 -2.48,4.55 -4.65,4.65 -2.18,0.11 -5.17,-1.96 -5.07,-4.55 0.11,-2.59 1.96,-4.52 4.03,-4.55z"/>
   <path class="fil1" d="M75.33 53.9c2.45,-0.03 4.23,1.1 4.65,3.64 0.42,2.53 -2.03,3.72 -3.81,3.8 -1.78,0.09 -4.23,-1.59 -4.14,-3.72 0.08,-2.11 1.6,-3.69 3.3,-3.72z"/>
   <path class="fil1" d="M112.37 53.9c2.46,-0.03 4.23,1.1 4.65,3.64 0.43,2.53 -2.03,3.72 -3.81,3.8 -1.77,0.09 -4.23,-1.59 -4.14,-3.72 0.09,-2.11 1.6,-3.69 3.3,-3.72z"/>
   <path class="fil0 str0" d="M97.46 78.65c2.44,-2.41 15.05,-12.26 29.04,-12.07 13.99,0.2 18.54,8.64 18.16,14.56 -0.4,5.93 -4.95,17.96 -17.37,17.76 -12.41,-0.2 -28.32,-12.58 -29.83,-14.77"/>
   <path class="fil0 str0" d="M89.59 78.38c-2.5,-1.54 -14.77,-7.85 -26.39,-7.25 -11.63,0.58 -16.36,5.31 -16.36,15.02 -0.01,7.83 7.93,13.36 19.56,12.76 11.63,-0.59 23.73,-14.68 23.73,-14.68"/>
   <path class="fil0 str0" d="M86.56 87.89c0.73,6.42 12.75,11.01 15.18,0"/>
   <path class="fil0 str0" d="M152.71 76.17c-0.86,-26.07 -13.01,-57.62 -58.56,-56.17 -55.6,1.78 -55.35,44.98 -55.42,58.82 -0.12,24.83 15.2,40.8 57.05,43.16 41.86,2.36 57.57,-26.65 56.94,-45.81z"/>
   <path class="fil0 str0" d="M47.7 79.94c-2.95,-1.07 -19.98,-1.67 -25.65,-3.35"/>
   <path class="fil0 str0" d="M47.41 89.65c-5.91,0.9 -20.63,6.99 -25.36,10.54"/>
   <path class="fil0 str0" d="M51.03 96.54c-3.25,1.58 -14.19,9.85 -17.45,15.76"/>
   <path class="fil0 str0" d="M142.94 74.25c2.66,-1.83 14.5,-6.49 26.03,-6.69"/>
   <path class="fil0 str0" d="M144.17 84.2c3.84,0.9 23.32,0.84 24.79,0.25"/>
   <path class="fil0 str0" d="M138.15 94.92c8.36,3.98 24.62,8.21 28.16,9.4"/>
   <path class="fil0 str0" d="M123.01 24.76c0,0 30.29,-15.4 34.63,-18.95 -0.4,15.38 -4.62,38.99 -7.63,51.81"/>
   <path class="fil0 str0" d="M65.51 26.18c-10.73,-9.34 -27.88,-19.19 -31.93,-23.13 -1.93,14.19 3.54,50.02 7.23,54.57"/>
   <path class="fil0 str1" d="M56.94 112.55c-5.32,5.99 -25.6,35.39 -30.1,65.5 -4.79,31.92 -8.72,83.15 12.66,86.3 20.99,3.1 19.21,-30.34 20.79,-41.38 1.58,-11.04 6.7,-29.17 23.65,-30.34 16.94,-1.19 28.72,17.34 29.13,31.13 0.42,13.79 2.87,40.18 17.18,38.62 18.03,-1.97 22.76,-48.87 21.13,-80 -1.63,-31.15 -11.88,-58.18 -21.13,-67.52"/>
   <path class="fil0 str1" d="M27.72 173.11c-5.67,6.12 -23.51,34.89 -24.69,49.87 -1.18,14.98 5.63,28.38 22.28,23.33"/>
   <path class="fil0 str1" d="M149.8 166.67c7.04,7.44 19.16,37 19.16,49.61 0,18.53 -11.33,33.51 -24.29,29.88"/>
   <path class="fil0 str0" d="M162.76 191.45c9.06,-3.94 40.53,-50.16 45.3,-83.66 4.73,-33.24 -5.1,-63.74 -16.93,-82.66 -9.1,-14.57 4.34,-34.28 20.89,-12.62 16.56,21.68 23.25,63.46 17.34,105.24 -5.91,41.77 -39.61,94.59 -60.4,98.53"/>
   <path class="fil0 str1" d="M58.74 240.32c7.85,3.55 42.67,3.16 55.81,0"/>
   <path class="fil0 str0" d="M92.71 76.59c3,-0.04 5.16,1.34 5.69,4.44 0.51,3.11 -2.48,4.55 -4.65,4.65 -2.18,0.11 -5.17,-1.96 -5.07,-4.55 0.11,-2.59 1.96,-4.52 4.03,-4.55z"/>
   <path class="fil1" d="M75.33 53.9c2.45,-0.03 4.23,1.1 4.65,3.64 0.42,2.53 -2.03,3.72 -3.81,3.8 -1.78,0.09 -4.23,-1.59 -4.14,-3.72 0.08,-2.11 1.6,-3.69 3.3,-3.72z"/>
   <path class="fil1" d="M112.37 53.9c2.46,-0.03 4.23,1.1 4.65,3.64 0.43,2.53 -2.03,3.72 -3.81,3.8 -1.77,0.09 -4.23,-1.59 -4.14,-3.72 0.09,-2.11 1.6,-3.69 3.3,-3.72z"/>
   <path class="fil0 str2" d="M97.46 78.65c2.44,-2.41 15.05,-12.26 29.04,-12.07 13.99,0.2 18.54,8.64 18.16,14.56 -0.4,5.93 -4.95,17.96 -17.37,17.76 -12.41,-0.2 -28.32,-12.58 -29.83,-14.77"/>
   <path class="fil0 str2" d="M89.59 78.38c-2.5,-1.54 -14.77,-7.85 -26.39,-7.25 -11.63,0.58 -16.36,5.31 -16.36,15.02 -0.01,7.83 7.93,13.36 19.56,12.76 11.63,-0.59 23.73,-14.68 23.73,-14.68"/>
   <path class="fil0 str0" d="M86.56 87.89c0.73,6.42 12.75,11.01 15.18,0"/>
   <path class="fil0 str2" d="M152.71 76.17c-0.86,-26.07 -13.01,-57.62 -58.56,-56.17 -55.6,1.78 -55.35,44.98 -55.42,58.82 -0.12,24.83 15.2,40.8 57.05,43.16 41.86,2.36 57.57,-26.65 56.94,-45.81z"/>
   <path class="fil0 str0" d="M47.7 79.94c-2.95,-1.07 -19.98,-1.67 -25.65,-3.35"/>
   <path class="fil0 str0" d="M47.41 89.65c-5.91,0.9 -20.63,6.99 -25.36,10.54"/>
   <path class="fil0 str0" d="M51.03 96.54c-3.25,1.58 -14.19,9.85 -17.45,15.76"/>
   <path class="fil0 str0" d="M142.94 74.25c2.66,-1.83 14.5,-6.49 26.03,-6.69"/>
   <path class="fil0 str0" d="M144.17 84.2c3.84,0.9 23.32,0.84 24.79,0.25"/>
   <path class="fil0 str0" d="M138.15 94.92c8.36,3.98 24.62,8.21 28.16,9.4"/>
   <path class="fil0 str0" d="M123.01 24.76c0,0 30.29,-15.4 34.63,-18.95 -0.4,15.38 -4.62,38.99 -7.63,51.81"/>
   <path class="fil0 str0" d="M65.51 26.18c-10.73,-9.34 -27.88,-19.19 -31.93,-23.13 -1.93,14.19 3.54,50.02 7.23,54.57"/>
   <path class="fil0 str3" d="M56.94 112.55c-5.32,5.99 -25.6,35.39 -30.1,65.5 -4.79,31.92 -8.72,83.15 12.66,86.3 20.99,3.1 19.21,-30.34 20.79,-41.38 1.58,-11.04 6.7,-29.17 23.65,-30.34 16.94,-1.19 28.72,17.34 29.13,31.13 0.42,13.79 2.87,40.18 17.18,38.62 18.03,-1.97 22.76,-48.87 21.13,-80 -1.63,-31.15 -11.88,-58.18 -21.13,-67.52"/>
   <path class="fil0 str3" d="M27.72 173.11c-5.67,6.12 -23.51,34.89 -24.69,49.87 -1.18,14.98 5.63,28.38 22.28,23.33"/>
   <path class="fil0 str3" d="M149.8 166.67c7.04,7.44 19.16,37 19.16,49.61 0,18.53 -11.33,33.51 -24.29,29.88"/>
   <path class="fil0 str0" d="M162.76 191.45c9.06,-3.94 40.53,-50.16 45.3,-83.66 4.73,-33.24 -5.1,-63.74 -16.93,-82.66 -9.1,-14.57 4.34,-34.28 20.89,-12.62 16.56,21.68 23.25,63.46 17.34,105.24 -5.91,41.77 -39.61,94.59 -60.4,98.53"/>
   <path class="fil0 str3" d="M58.74 240.32c7.85,3.55 42.67,3.16 55.81,0"/>
  </g>
 </g>
</svg>
