<?xml version="1.0" encoding="UTF-8"?>
<!DOCTYPE svg PUBLIC "-//W3C//DTD SVG 1.1//EN" "http://www.w3.org/Graphics/SVG/1.1/DTD/svg11.dtd">
<!-- Creator: CorelDRAW Standard 2021 (64-Bit) -->
<svg xmlns="http://www.w3.org/2000/svg" xml:space="preserve" width="22.4692mm" height="18.7229mm" version="1.1" style="shape-rendering:geometricPrecision; text-rendering:geometricPrecision; image-rendering:optimizeQuality; fill-rule:evenodd; clip-rule:evenodd"
viewBox="0 0 735.79 613.11"
 xmlns:xlink="http://www.w3.org/1999/xlink"
 xmlns:xodm="http://www.corel.com/coreldraw/odm/2003">
 <defs>
  <style type="text/css">
   <![CDATA[
    .fil0 {fill:#1A1A1A;fill-rule:nonzero}
   ]]>
  </style>
 </defs>
 <g id="Layer_x0020_1">
  <metadata id="CorelCorpID_0Corel-Layer"/>
  <g id="CHIEN">
   <g>
    <path class="fil0" d="M270.12 271.68l-12.92 -0.19 0 0 -0.1 -2.93 -0.25 -2.84 -0.39 -2.76 -0.52 -2.69 -0.66 -2.62 -0.78 -2.54 -0.9 -2.47 -1.03 -2.39 -1.15 -2.33 -1.26 -2.25 -1.38 -2.18 -1.49 -2.11 -1.59 -2.02 -1.71 -1.95 -1.81 -1.86 -1.91 -1.78 -2 -1.69 -2.1 -1.6 -2.19 -1.5 -2.28 -1.4 -2.35 -1.3 -2.43 -1.19 -2.51 -1.09 -2.57 -0.97 -2.64 -0.86 -2.7 -0.74 -2.75 -0.62 -2.81 -0.49 -2.85 -0.37 -2.89 -0.24 -2.92 -0.11 -2.95 0.03 -0.69 -15.47 3.45 -0.03 3.42 0.13 3.39 0.28 3.35 0.44 3.3 0.59 3.26 0.73 3.21 0.88 3.15 1.02 3.09 1.17 3.02 1.31 2.96 1.45 2.88 1.59 2.8 1.72 2.71 1.86 2.63 2 2.53 2.13 2.43 2.26 2.32 2.39 2.21 2.52 2.09 2.65 1.96 2.77 1.83 2.89 1.69 3.01 1.55 3.13 1.39 3.25 1.23 3.35 1.06 3.45 0.89 3.55 0.71 3.64 0.52 3.72 0.34 3.8 0.14 3.86 0 0zm0 0c0.05,4.27 -2.8,7.7 -6.37,7.64 -3.57,-0.05 -6.5,-3.56 -6.55,-7.83l12.92 0.19zm-68.9 74.84l-1.02 -15.46 0 0 3.76 -0.3 3.62 -0.45 3.48 -0.57 3.34 -0.7 3.2 -0.82 3.06 -0.94 2.93 -1.06 2.78 -1.16 2.65 -1.27 2.52 -1.37 2.39 -1.47 2.26 -1.56 2.13 -1.65 2 -1.74 1.88 -1.82 1.77 -1.91 1.65 -1.98 1.53 -2.06 1.42 -2.14 1.31 -2.22 1.2 -2.3 1.09 -2.37 0.99 -2.45 0.88 -2.52 0.77 -2.59 0.67 -2.67 0.56 -2.74 0.45 -2.81 0.34 -2.88 0.24 -2.95 0.13 -3.02 0.02 -3.08 12.92 0.19 -0.02 3.75 -0.16 3.7 -0.29 3.65 -0.43 3.6 -0.57 3.54 -0.71 3.48 -0.85 3.41 -0.99 3.34 -1.14 3.26 -1.28 3.18 -1.42 3.09 -1.57 3 -1.71 2.89 -1.85 2.8 -1.99 2.68 -2.13 2.57 -2.27 2.45 -2.4 2.33 -2.54 2.2 -2.67 2.07 -2.8 1.94 -2.93 1.8 -3.06 1.66 -3.18 1.53 -3.31 1.38 -3.43 1.23 -3.56 1.1 -3.68 0.95 -3.81 0.8 -3.92 0.65 -4.05 0.5 -4.18 0.34 0 0zm-0 0c-3.56,0.22 -6.67,-3.06 -6.95,-7.33 -0.28,-4.27 2.38,-7.91 5.93,-8.13l1.02 15.46zm-88.8 -78.4l12.91 1.16 0 0 -0.04 3.04 0.14 3.01 0.32 2.98 0.49 2.96 0.66 2.93 0.83 2.89 1 2.85 1.16 2.82 1.33 2.77 1.48 2.72 1.64 2.66 1.8 2.6 1.95 2.52 2.11 2.45 2.26 2.36 2.4 2.27 2.55 2.17 2.69 2.06 2.82 1.95 2.95 1.83 3.08 1.7 3.2 1.56 3.33 1.42 3.44 1.27 3.56 1.12 3.66 0.95 3.77 0.78 3.87 0.61 3.97 0.43 4.06 0.23 4.15 0.04 4.24 -0.17 1.02 15.46 -4.75 0.19 -4.67 -0.04 -4.59 -0.27 -4.5 -0.48 -4.4 -0.69 -4.31 -0.89 -4.21 -1.1 -4.1 -1.29 -3.99 -1.47 -3.87 -1.66 -3.75 -1.83 -3.63 -2 -3.5 -2.16 -3.36 -2.32 -3.22 -2.48 -3.08 -2.62 -2.93 -2.77 -2.77 -2.9 -2.62 -3.04 -2.45 -3.17 -2.27 -3.28 -2.1 -3.4 -1.91 -3.51 -1.72 -3.61 -1.53 -3.7 -1.32 -3.8 -1.11 -3.87 -0.89 -3.95 -0.66 -4 -0.43 -4.06 -0.2 -4.1 0.04 -4.13 0 0zm0 -0c0.17,-4.26 3.21,-7.45 6.77,-7.13 3.56,0.32 6.31,4.04 6.14,8.3l-12.91 -1.17zm86.19 -63.96l0.69 15.47 0 0 -3.97 0.17 -3.9 0.25 -3.84 0.34 -3.76 0.42 -3.68 0.51 -3.6 0.6 -3.51 0.69 -3.42 0.78 -3.32 0.87 -3.22 0.96 -3.11 1.05 -3 1.14 -2.88 1.23 -2.75 1.32 -2.63 1.41 -2.5 1.5 -2.36 1.58 -2.23 1.68 -2.09 1.76 -1.95 1.84 -1.81 1.93 -1.66 2.01 -1.52 2.09 -1.38 2.18 -1.24 2.27 -1.09 2.36 -0.95 2.47 -0.82 2.59 -0.67 2.71 -0.52 2.83 -0.37 2.98 -0.21 3.13 -12.91 -1.16 0.28 -4.13 0.5 -4.01 0.72 -3.88 0.93 -3.75 1.13 -3.6 1.34 -3.46 1.53 -3.32 1.72 -3.15 1.89 -2.99 2.07 -2.85 2.22 -2.68 2.36 -2.52 2.51 -2.37 2.64 -2.22 2.77 -2.08 2.88 -1.94 3 -1.79 3.1 -1.67 3.21 -1.54 3.31 -1.41 3.4 -1.3 3.5 -1.18 3.59 -1.07 3.67 -0.96 3.75 -0.85 3.82 -0.75 3.9 -0.65 3.97 -0.55 4.03 -0.46 4.09 -0.36 4.15 -0.27 4.2 -0.18 0 0zm0 0c3.56,-0.11 6.61,3.26 6.79,7.53 0.19,4.27 -2.54,7.83 -6.11,7.94l-0.69 -15.47z"/>
   </g>
   <g>
    <path class="fil0" d="M225.72 260.87l-11.25 -7.96 -0 0.01 0.38 -0.86 0.28 -0.78 0.19 -0.69 0.11 -0.6 0.05 -0.52 0.01 -0.47 -0.03 -0.41 -0.07 -0.39 -0.1 -0.39 -0.14 -0.4 -0.19 -0.42 -0.26 -0.46 -0.32 -0.47 -0.4 -0.5 -0.5 -0.53 -0.59 -0.55 -0.67 -0.54 -0.76 -0.54 -0.85 -0.52 -0.94 -0.51 -1.02 -0.47 -1.1 -0.44 -1.19 -0.4 -1.26 -0.36 -1.32 -0.31 -1.4 -0.26 -1.45 -0.21 -1.51 -0.15 -1.57 -0.09 -1.62 -0.02 -1.67 0.04 -1.71 0.11 -1.26 -15.44 2.14 -0.14 2.1 -0.06 2.06 0.03 2.02 0.11 1.98 0.19 1.94 0.28 1.88 0.35 1.84 0.44 1.79 0.51 1.74 0.59 1.69 0.68 1.63 0.76 1.57 0.84 1.51 0.93 1.45 1.02 1.38 1.12 1.31 1.21 1.23 1.32 1.15 1.44 1.05 1.56 0.93 1.66 0.81 1.77 0.66 1.87 0.5 1.95 0.33 2.01 0.15 2.06 -0.03 2.06 -0.2 2.06 -0.38 2.04 -0.53 1.98 -0.69 1.95 -0.83 1.9 -0 0.01zm0 -0.01c-1.75,3.66 -5.69,4.86 -8.8,2.66 -3.11,-2.19 -4.21,-6.95 -2.46,-10.61l11.26 7.95zm-65.38 7.27l10.21 -9.16 0 0 0.11 0.14 0.31 0.3 0.53 0.41 0.75 0.46 0.97 0.48 1.16 0.46 1.34 0.43 1.48 0.37 1.6 0.31 1.72 0.25 1.81 0.18 1.88 0.1 1.95 0.03 1.99 -0.04 2.01 -0.11 2.03 -0.19 2.03 -0.26 2.01 -0.33 1.98 -0.4 1.94 -0.47 1.88 -0.53 1.8 -0.59 1.72 -0.65 1.61 -0.7 1.48 -0.74 1.35 -0.77 1.2 -0.79 1.02 -0.79 0.84 -0.77 0.66 -0.72 0.46 -0.63 0.29 -0.52 11.25 7.96 -1.22 2.19 -1.42 1.95 -1.56 1.73 -1.69 1.55 -1.8 1.39 -1.89 1.25 -1.97 1.13 -2.06 1.02 -2.14 0.92 -2.19 0.83 -2.25 0.74 -2.31 0.65 -2.34 0.56 -2.37 0.48 -2.39 0.39 -2.4 0.31 -2.41 0.22 -2.4 0.14 -2.37 0.05 -2.36 -0.04 -2.33 -0.13 -2.28 -0.22 -2.23 -0.32 -2.18 -0.42 -2.11 -0.54 -2.05 -0.65 -1.98 -0.79 -1.92 -0.95 -1.85 -1.14 -1.76 -1.38 -1.66 -1.66 -1.5 -2.01 0 0zm-0 -0c-2.18,-3.44 -1.67,-8.29 1.15,-10.82 2.82,-2.52 6.88,-1.78 9.06,1.67l-10.22 9.15zm31.24 -43.77l1.26 15.44 -0 0 -1.3 0.15 -1.31 0.23 -1.32 0.3 -1.31 0.38 -1.31 0.44 -1.29 0.51 -1.28 0.58 -1.25 0.63 -1.22 0.69 -1.19 0.74 -1.14 0.78 -1.1 0.82 -1.04 0.85 -0.99 0.88 -0.91 0.89 -0.84 0.91 -0.78 0.92 -0.69 0.91 -0.61 0.89 -0.52 0.87 -0.43 0.83 -0.34 0.78 -0.26 0.71 -0.18 0.63 -0.1 0.54 -0.05 0.46 -0.01 0.36 0.03 0.31 0.05 0.27 0.08 0.27 0.13 0.3 0.21 0.37 -10.21 9.16 -1.07 -1.91 -0.87 -2.04 -0.65 -2.13 -0.42 -2.17 -0.18 -2.17 0.03 -2.14 0.22 -2.07 0.39 -2 0.54 -1.93 0.66 -1.83 0.78 -1.76 0.88 -1.69 0.97 -1.62 1.06 -1.56 1.14 -1.49 1.21 -1.43 1.28 -1.39 1.35 -1.32 1.41 -1.26 1.47 -1.2 1.52 -1.14 1.58 -1.08 1.62 -1.01 1.67 -0.94 1.72 -0.86 1.75 -0.79 1.79 -0.71 1.82 -0.62 1.85 -0.53 1.88 -0.43 1.9 -0.33 1.92 -0.22 -0 0zm0 0c3.55,-0.3 6.71,2.91 7.06,7.17 0.34,4.26 -2.26,7.96 -5.81,8.27l-1.25 -15.44z"/>
   </g>
   <g>
    <path class="fil0" d="M245.35 187.4c-2.84,2.5 -6.9,1.71 -9.05,-1.76 -2.16,-3.47 -1.61,-8.3 1.23,-10.8l7.83 12.56zm33.32 20.68l-12.69 -3.33 0.31 -2.35 0.14 -2.09 -0 -1.84 -0.12 -1.61 -0.22 -1.39 -0.3 -1.21 -0.36 -1.02 -0.43 -0.92 -0.48 -0.83 -0.54 -0.74 -0.62 -0.69 -0.7 -0.65 -0.78 -0.6 -0.86 -0.54 -0.94 -0.49 -1.02 -0.44 -1.07 -0.37 -1.11 -0.3 -1.15 -0.23 -1.17 -0.17 -1.17 -0.1 -1.16 -0.04 -1.13 0.02 -1.08 0.08 -1.04 0.13 -0.95 0.17 -0.85 0.2 -0.74 0.22 -0.59 0.22 -0.41 0.19 -0.19 0.11 0.08 -0.07 -7.83 -12.56 1.27 -0.97 1.26 -0.74 1.3 -0.6 1.34 -0.5 1.4 -0.42 1.46 -0.34 1.52 -0.27 1.58 -0.19 1.64 -0.12 1.69 -0.03 1.73 0.06 1.77 0.15 1.79 0.26 1.81 0.37 1.84 0.5 1.83 0.64 1.83 0.78 1.81 0.95 1.79 1.14 1.74 1.34 1.67 1.54 1.58 1.77 1.46 2.01 1.29 2.21 1.12 2.42 0.92 2.63 0.69 2.78 0.47 2.92 0.23 3.06 0 3.17 -0.22 3.3 -0.45 3.42zm0 0c-0.67,4.17 -4.07,6.81 -7.57,5.89 -3.5,-0.92 -5.79,-5.05 -5.12,-9.22l12.69 3.33z"/>
   </g>
   <g>
    <path class="fil0" d="M169.87 179.86c2.28,3.36 1.89,8.23 -0.85,10.87 -2.74,2.64 -6.82,2.05 -9.1,-1.31l9.95 -9.56zm-32.29 21.71l-12.89 0.65 -0.11 -3.39 0.06 -3.25 0.23 -3.1 0.41 -2.96 0.58 -2.82 0.74 -2.66 0.91 -2.51 1.07 -2.33 1.22 -2.16 1.37 -1.97 1.5 -1.76 1.6 -1.55 1.71 -1.34 1.78 -1.12 1.85 -0.91 1.89 -0.7 1.92 -0.49 1.94 -0.3 1.95 -0.11 1.95 0.07 1.93 0.24 1.92 0.4 1.89 0.57 1.87 0.72 1.83 0.87 1.79 1.02 1.75 1.18 1.67 1.31 1.61 1.46 1.55 1.6 1.46 1.74 1.37 1.88 -9.95 9.56 -0.74 -1.02 -0.8 -0.95 -0.84 -0.88 -0.89 -0.8 -0.94 -0.74 -0.95 -0.65 -0.99 -0.56 -1.01 -0.48 -1.02 -0.39 -1.02 -0.3 -1.01 -0.21 -1 -0.12 -0.97 -0.04 -0.93 0.06 -0.91 0.14 -0.86 0.22 -0.81 0.3 -0.77 0.38 -0.73 0.46 -0.68 0.53 -0.65 0.63 -0.62 0.73 -0.58 0.83 -0.55 0.97 -0.51 1.11 -0.46 1.27 -0.4 1.45 -0.33 1.63 -0.25 1.83 -0.15 2.04 -0.04 2.25 0.08 2.47zm0 0c0.24,4.27 -2.45,7.88 -6,8.06 -3.56,0.18 -6.64,-3.14 -6.89,-7.41l12.89 -0.65z"/>
   </g>
   <g>
    <path class="fil0" d="M197.1 96.94l1.51 15.41 0.01 0 -2.01 0.24 -2 0.27 -1.98 0.29 -1.98 0.32 -1.96 0.35 -1.95 0.37 -1.95 0.4 -1.94 0.43 -1.92 0.46 -1.91 0.48 -1.9 0.51 -1.89 0.53 -1.87 0.56 -1.86 0.59 -1.85 0.61 -1.84 0.64 -1.82 0.66 -1.81 0.68 -1.79 0.71 -1.78 0.74 -1.77 0.76 -1.75 0.78 -1.74 0.81 -1.72 0.83 -1.7 0.86 -1.69 0.88 -1.67 0.9 -1.66 0.92 -1.64 0.95 -1.63 0.97 -1.6 0.99 -1.58 1.02 -6.41 -13.64 1.74 -1.11 1.76 -1.09 1.77 -1.06 1.79 -1.04 1.81 -1.01 1.83 -0.99 1.84 -0.96 1.85 -0.93 1.88 -0.91 1.88 -0.88 1.9 -0.85 1.92 -0.83 1.93 -0.8 1.95 -0.78 1.96 -0.74 1.97 -0.72 1.99 -0.69 2 -0.66 2.01 -0.64 2.03 -0.61 2.04 -0.58 2.05 -0.55 2.06 -0.52 2.08 -0.49 2.09 -0.46 2.1 -0.44 2.11 -0.41 2.12 -0.37 2.13 -0.34 2.14 -0.32 2.15 -0.28 2.16 -0.26 0.01 0zm-0.01 0c3.54,-0.39 6.76,2.74 7.18,6.99 0.42,4.25 -2.11,8.03 -5.65,8.42l-1.53 -15.41zm76.88 19.83l-5.06 14.07 0.02 0.01 -2.58 -1.36 -2.58 -1.3 -2.59 -1.25 -2.59 -1.2 -2.59 -1.14 -2.59 -1.09 -2.58 -1.04 -2.57 -0.98 -2.56 -0.94 -2.53 -0.88 -2.52 -0.83 -2.5 -0.78 -2.47 -0.73 -2.43 -0.68 -2.4 -0.63 -2.36 -0.58 -2.32 -0.53 -2.29 -0.48 -2.23 -0.44 -2.18 -0.39 -2.13 -0.34 -2.07 -0.3 -2.01 -0.25 -1.94 -0.21 -1.88 -0.16 -1.8 -0.12 -1.72 -0.08 -1.64 -0.04 -1.56 0 -1.46 0.04 -1.36 0.08 -1.26 0.11 -1.51 -15.41 1.62 -0.15 1.7 -0.1 1.77 -0.05 1.83 -0 1.9 0.04 1.96 0.09 2.02 0.13 2.09 0.18 2.15 0.23 2.2 0.28 2.27 0.32 2.31 0.38 2.36 0.42 2.41 0.47 2.45 0.52 2.5 0.57 2.53 0.62 2.57 0.67 2.6 0.73 2.63 0.78 2.67 0.83 2.69 0.88 2.71 0.94 2.73 1 2.74 1.05 2.76 1.11 2.76 1.16 2.77 1.22 2.78 1.28 2.78 1.34 2.78 1.4 2.77 1.46 0.02 0.01zm-0.02 -0.01c3.28,1.77 4.82,6.36 3.44,10.24 -1.39,3.89 -5.18,5.61 -8.46,3.84l5.03 -14.09zm22.15 14.38l-6.8 12.93 -0.02 -0.02 -0.6 -0.47 -0.62 -0.47 -0.61 -0.46 -0.61 -0.45 -0.62 -0.46 -0.63 -0.46 -0.63 -0.45 -0.61 -0.44 -0.63 -0.45 -0.62 -0.44 -0.63 -0.43 -0.64 -0.43 -0.63 -0.43 -0.65 -0.43 -0.63 -0.42 -0.64 -0.41 -0.65 -0.42 -0.64 -0.41 -0.64 -0.4 -0.65 -0.4 -0.65 -0.4 -0.65 -0.39 -0.65 -0.39 -0.65 -0.39 -0.66 -0.39 -0.64 -0.38 -0.65 -0.37 -0.67 -0.38 -0.64 -0.36 -0.65 -0.36 -0.66 -0.36 -0.66 -0.36 5.06 -14.07 0.7 0.38 0.7 0.38 0.71 0.4 0.71 0.4 0.69 0.39 0.71 0.41 0.71 0.42 0.69 0.41 0.7 0.41 0.71 0.43 0.7 0.43 0.69 0.42 0.69 0.43 0.71 0.44 0.7 0.45 0.69 0.44 0.7 0.46 0.7 0.46 0.68 0.45 0.7 0.47 0.68 0.47 0.69 0.47 0.69 0.48 0.68 0.48 0.69 0.49 0.67 0.49 0.67 0.49 0.68 0.5 0.68 0.51 0.67 0.51 0.66 0.51 0.67 0.52 -0.02 -0.02zm0.02 0.02c3.02,2.36 3.94,7.16 2.05,10.72 -1.89,3.56 -5.88,4.54 -8.9,2.18l6.85 -12.9zm47.51 85.38l-12.86 1.1 0 0 -0.29 -3.05 -0.38 -3 -0.45 -2.94 -0.53 -2.88 -0.61 -2.83 -0.68 -2.77 -0.75 -2.73 -0.83 -2.68 -0.89 -2.63 -0.96 -2.58 -1.03 -2.53 -1.09 -2.49 -1.16 -2.44 -1.21 -2.39 -1.28 -2.35 -1.34 -2.31 -1.39 -2.26 -1.44 -2.21 -1.51 -2.17 -1.56 -2.13 -1.6 -2.09 -1.65 -2.04 -1.7 -2 -1.75 -1.95 -1.79 -1.92 -1.83 -1.87 -1.88 -1.83 -1.91 -1.78 -1.95 -1.74 -1.98 -1.7 -2.02 -1.66 -2.04 -1.61 6.8 -12.93 2.26 1.78 2.23 1.83 2.2 1.89 2.17 1.94 2.14 1.99 2.1 2.05 2.06 2.11 2.02 2.16 1.98 2.22 1.93 2.27 1.89 2.33 1.84 2.39 1.78 2.45 1.74 2.51 1.68 2.57 1.62 2.64 1.55 2.69 1.5 2.75 1.43 2.81 1.36 2.87 1.29 2.94 1.21 2.99 1.14 3.06 1.06 3.12 0.98 3.17 0.9 3.23 0.81 3.3 0.72 3.35 0.63 3.41 0.54 3.47 0.44 3.53 0.34 3.58 0 0zm0 0c0.35,4.26 -2.25,7.97 -5.8,8.27 -3.55,0.3 -6.72,-2.91 -7.06,-7.17l12.86 -1.1zm-121.05 156.17l-1.12 -15.45 -0.01 0 6.57 -0.63 6.42 -0.9 6.25 -1.18 6.09 -1.45 5.92 -1.72 5.74 -1.97 5.56 -2.24 5.38 -2.48 5.18 -2.73 4.98 -2.98 4.78 -3.21 4.58 -3.45 4.37 -3.68 4.16 -3.91 3.94 -4.13 3.72 -4.36 3.49 -4.57 3.26 -4.79 3.03 -5.01 2.79 -5.22 2.55 -5.44 2.3 -5.64 2.05 -5.86 1.8 -6.06 1.53 -6.28 1.27 -6.48 0.99 -6.69 0.71 -6.9 0.43 -7.11 0.13 -7.31 -0.17 -7.52 -0.48 -7.71 12.86 -1.1 0.52 8.43 0.19 8.25 -0.14 8.08 -0.47 7.89 -0.79 7.69 -1.11 7.5 -1.42 7.29 -1.73 7.08 -2.03 6.87 -2.33 6.64 -2.62 6.42 -2.9 6.18 -3.18 5.95 -3.45 5.69 -3.71 5.45 -3.96 5.19 -4.21 4.93 -4.44 4.67 -4.68 4.4 -4.9 4.13 -5.12 3.85 -5.32 3.58 -5.53 3.3 -5.72 3.02 -5.91 2.73 -6.09 2.45 -6.26 2.15 -6.43 1.86 -6.6 1.57 -6.75 1.27 -6.9 0.98 -7.04 0.67 -0.01 0zm0.01 -0c-3.55,0.26 -6.69,-2.99 -7,-7.25 -0.31,-4.26 2.32,-7.93 5.87,-8.19l1.13 15.44zm-41.74 -2l1.61 -15.3 0.02 0 1.12 0.2 1.13 0.2 1.12 0.18 1.14 0.17 1.15 0.17 1.15 0.16 1.16 0.15 1.16 0.14 1.17 0.13 1.18 0.12 1.18 0.11 1.19 0.1 1.2 0.09 1.2 0.09 1.2 0.07 1.21 0.06 1.22 0.05 1.23 0.05 1.23 0.04 1.23 0.02 1.25 0.02 1.25 0.01 1.26 -0 1.27 -0.01 1.27 -0.02 1.28 -0.03 1.28 -0.04 1.28 -0.05 1.3 -0.07 1.31 -0.07 1.3 -0.08 1.32 -0.09 1.12 15.45 -1.39 0.09 -1.39 0.09 -1.38 0.08 -1.38 0.07 -1.38 0.06 -1.36 0.04 -1.36 0.04 -1.35 0.02 -1.35 0.01 -1.34 0 -1.33 -0.01 -1.33 -0.02 -1.33 -0.03 -1.32 -0.04 -1.31 -0.05 -1.31 -0.06 -1.3 -0.07 -1.31 -0.08 -1.29 -0.09 -1.28 -0.09 -1.28 -0.11 -1.27 -0.12 -1.27 -0.13 -1.26 -0.14 -1.26 -0.15 -1.25 -0.16 -1.24 -0.17 -1.23 -0.18 -1.23 -0.19 -1.24 -0.2 -1.21 -0.21 -1.22 -0.22 0.02 0zm-0.02 -0c-3.54,-0.65 -6.04,-4.61 -5.59,-8.84 0.45,-4.22 3.69,-7.11 7.23,-6.46l-1.64 15.29zm-106.7 -125.75l12.82 -1.49 0 -0 0.65 5.43 0.8 5.33 0.96 5.23 1.12 5.13 1.27 5.03 1.42 4.93 1.58 4.81 1.73 4.69 1.89 4.58 2.03 4.46 2.18 4.34 2.33 4.22 2.48 4.09 2.62 3.97 2.77 3.83 2.92 3.7 3.07 3.56 3.21 3.43 3.36 3.27 3.51 3.13 3.65 2.98 3.8 2.83 3.95 2.67 4.1 2.51 4.25 2.34 4.39 2.18 4.55 2 4.69 1.83 4.83 1.64 4.98 1.46 5.13 1.27 5.28 1.07 -1.61 15.3 -5.72 -1.17 -5.59 -1.38 -5.46 -1.59 -5.31 -1.81 -5.17 -2.02 -5.02 -2.21 -4.88 -2.42 -4.73 -2.61 -4.58 -2.81 -4.43 -3 -4.28 -3.19 -4.12 -3.36 -3.97 -3.54 -3.81 -3.72 -3.64 -3.88 -3.48 -4.04 -3.32 -4.21 -3.15 -4.36 -2.99 -4.51 -2.81 -4.66 -2.65 -4.79 -2.48 -4.93 -2.3 -5.06 -2.13 -5.17 -1.95 -5.3 -1.77 -5.42 -1.6 -5.52 -1.42 -5.62 -1.25 -5.73 -1.07 -5.82 -0.89 -5.91 -0.71 -6 0 -0zm0 0c-0.44,-4.25 2.08,-8.04 5.62,-8.45 3.54,-0.41 6.77,2.7 7.2,6.96l-12.82 1.49zm36.75 -106.9l8.49 11.93 0.01 -0.01 -2.17 2.26 -2.1 2.31 -2.04 2.36 -1.97 2.42 -1.91 2.46 -1.83 2.51 -1.77 2.56 -1.7 2.6 -1.63 2.64 -1.55 2.69 -1.48 2.74 -1.41 2.77 -1.33 2.81 -1.25 2.85 -1.18 2.9 -1.1 2.93 -1.02 2.97 -0.94 3.01 -0.85 3.04 -0.78 3.08 -0.69 3.11 -0.61 3.15 -0.52 3.18 -0.43 3.22 -0.34 3.25 -0.26 3.28 -0.16 3.32 -0.07 3.35 0.02 3.38 0.12 3.41 0.21 3.44 0.31 3.48 -12.82 1.49 -0.35 -3.98 -0.25 -3.95 -0.13 -3.93 -0.03 -3.89 0.09 -3.86 0.19 -3.83 0.29 -3.8 0.4 -3.76 0.5 -3.72 0.6 -3.68 0.7 -3.64 0.8 -3.6 0.89 -3.55 0.99 -3.51 1.08 -3.46 1.17 -3.41 1.26 -3.37 1.35 -3.32 1.43 -3.26 1.52 -3.22 1.6 -3.16 1.68 -3.1 1.76 -3.06 1.84 -3 1.92 -2.94 1.99 -2.88 2.07 -2.83 2.14 -2.76 2.2 -2.7 2.28 -2.64 2.34 -2.57 2.41 -2.51 0.01 -0.01zm-0.01 0.01c2.69,-2.72 6.77,-2.27 9.12,1.02 2.35,3.29 2.08,8.17 -0.61,10.89l-8.51 -11.91zm23.18 -18.83l6.41 13.64 -0.06 0.04 -0.72 0.46 -0.71 0.47 -0.71 0.47 -0.7 0.47 -0.7 0.48 -0.71 0.49 -0.69 0.48 -0.68 0.49 -0.69 0.51 -0.68 0.5 -0.68 0.51 -0.67 0.51 -0.66 0.51 -0.68 0.53 -0.66 0.52 -0.66 0.53 -0.65 0.53 -0.65 0.55 -0.66 0.55 -0.64 0.55 -0.64 0.56 -0.63 0.55 -0.62 0.56 -0.64 0.58 -0.62 0.57 -0.62 0.57 -0.62 0.58 -0.61 0.58 -0.61 0.59 -0.61 0.6 -0.6 0.59 -0.6 0.6 -8.49 -11.93 0.65 -0.66 0.67 -0.66 0.66 -0.65 0.67 -0.65 0.67 -0.64 0.68 -0.64 0.69 -0.64 0.69 -0.63 0.68 -0.62 0.7 -0.63 0.7 -0.62 0.71 -0.61 0.72 -0.61 0.7 -0.6 0.72 -0.6 0.73 -0.6 0.73 -0.59 0.74 -0.58 0.73 -0.57 0.74 -0.58 0.75 -0.57 0.75 -0.56 0.75 -0.56 0.75 -0.55 0.77 -0.56 0.77 -0.54 0.76 -0.53 0.78 -0.54 0.79 -0.53 0.78 -0.52 0.79 -0.51 0.8 -0.51 -0.06 0.04zm0.06 -0.04c3.12,-1.98 7.05,-0.51 8.79,3.27 1.74,3.79 0.62,8.46 -2.5,10.44l-6.29 -13.71z"/>
   </g>
   <g>
    <path class="fil0" d="M277.88 123.52c0.25,4.27 -2.43,7.89 -5.99,8.07 -3.56,0.19 -6.65,-3.12 -6.9,-7.39l12.89 -0.68zm-0 -0.06l0 0.06 -12.89 0.68 -0 -0.06 0.02 -1.32 12.87 0.64zm-12.89 0.68c-0.25,-4.27 2.43,-7.89 5.99,-8.07 3.56,-0.19 6.65,3.12 6.9,7.39l-12.89 0.68zm61.09 -60.75l1.14 15.44 0 0 -1.89 0.17 -1.94 0.23 -1.97 0.29 -2 0.35 -2.02 0.42 -2.04 0.49 -2.05 0.57 -2.04 0.64 -2.03 0.72 -2.03 0.79 -2 0.87 -1.97 0.95 -1.94 1.04 -1.9 1.12 -1.85 1.21 -1.8 1.3 -1.74 1.38 -1.68 1.48 -1.6 1.56 -1.54 1.66 -1.46 1.75 -1.38 1.85 -1.29 1.95 -1.21 2.06 -1.12 2.17 -1.02 2.29 -0.92 2.41 -0.82 2.55 -0.71 2.69 -0.59 2.83 -0.47 2.99 -0.34 3.16 -12.86 -1.96 0.44 -4.01 0.61 -3.86 0.78 -3.72 0.94 -3.56 1.09 -3.41 1.24 -3.26 1.38 -3.1 1.51 -2.95 1.63 -2.79 1.74 -2.63 1.85 -2.48 1.94 -2.33 2.02 -2.18 2.1 -2.04 2.16 -1.9 2.21 -1.76 2.26 -1.63 2.31 -1.5 2.33 -1.39 2.37 -1.27 2.38 -1.16 2.4 -1.04 2.4 -0.94 2.41 -0.85 2.41 -0.75 2.39 -0.66 2.37 -0.57 2.35 -0.49 2.32 -0.41 2.28 -0.34 2.24 -0.26 2.2 -0.2 0 0zm-0 0c3.55,-0.27 6.69,2.97 7.01,7.24 0.31,4.26 -2.31,7.94 -5.86,8.21l-1.15 -15.44zm57.76 96.94l7.98 -11.91 -10.43 6.42 -0.46 -5.42 -0.58 -5.18 -0.69 -4.96 -0.8 -4.74 -0.9 -4.52 -1 -4.3 -1.09 -4.08 -1.18 -3.86 -1.27 -3.65 -1.35 -3.45 -1.42 -3.23 -1.5 -3.04 -1.57 -2.85 -1.63 -2.66 -1.69 -2.46 -1.75 -2.28 -1.81 -2.11 -1.87 -1.94 -1.92 -1.78 -1.97 -1.61 -2.02 -1.46 -2.08 -1.31 -2.13 -1.16 -2.19 -1.01 -2.24 -0.87 -2.29 -0.72 -2.34 -0.58 -2.39 -0.44 -2.44 -0.3 -2.49 -0.16 -2.54 -0.02 -2.58 0.12 -1.14 -15.44 3.16 -0.15 3.13 0.03 3.11 0.2 3.09 0.38 3.06 0.57 3.02 0.75 2.98 0.94 2.93 1.14 2.88 1.33 2.83 1.53 2.76 1.74 2.69 1.94 2.62 2.14 2.53 2.34 2.44 2.54 2.35 2.74 2.26 2.94 2.15 3.14 2.05 3.33 1.94 3.52 1.84 3.72 1.72 3.91 1.6 4.1 1.49 4.29 1.38 4.49 1.25 4.68 1.13 4.87 1.01 5.07 0.89 5.28 0.76 5.47 0.63 5.67 0.5 5.88 -10.43 6.42zm10.43 -6.42c0.31,4.26 -2.32,7.94 -5.87,8.19 -3.55,0.26 -6.69,-2.99 -6.99,-7.26l12.87 -0.94zm-65.39 -25.06l-1.12 -15.45 0 0 1.5 -0.07 1.55 0 1.57 0.08 1.6 0.15 1.64 0.22 1.67 0.29 1.7 0.36 1.74 0.43 1.77 0.51 1.8 0.58 1.83 0.65 1.87 0.73 1.9 0.8 1.93 0.87 1.96 0.95 2 1.02 2.03 1.1 2.06 1.18 2.09 1.26 2.12 1.33 2.15 1.42 2.18 1.5 2.21 1.58 2.24 1.66 2.27 1.75 2.3 1.83 2.33 1.92 2.36 2.01 2.38 2.1 2.41 2.18 2.44 2.27 2.47 2.36 -7.98 11.91 -2.32 -2.23 -2.29 -2.14 -2.26 -2.04 -2.23 -1.96 -2.19 -1.86 -2.16 -1.78 -2.13 -1.69 -2.09 -1.61 -2.05 -1.53 -2.02 -1.44 -1.98 -1.36 -1.94 -1.27 -1.91 -1.2 -1.86 -1.12 -1.82 -1.04 -1.78 -0.97 -1.74 -0.89 -1.7 -0.82 -1.64 -0.74 -1.6 -0.68 -1.55 -0.6 -1.51 -0.53 -1.46 -0.47 -1.41 -0.4 -1.36 -0.34 -1.31 -0.28 -1.25 -0.22 -1.19 -0.16 -1.15 -0.1 -1.09 -0.06 -1.02 -0 -0.97 0.05 0 0zm0 0c-3.55,0.26 -6.69,-2.99 -6.99,-7.26 -0.31,-4.26 2.32,-7.94 5.87,-8.19l1.12 15.45zm-30.87 13.34l-10.61 -9.16 0.91 -1.46 0.97 -1.4 1.02 -1.31 1.06 -1.24 1.11 -1.17 1.14 -1.1 1.17 -1.03 1.2 -0.97 1.23 -0.91 1.25 -0.84 1.27 -0.78 1.29 -0.73 1.31 -0.68 1.32 -0.63 1.33 -0.58 1.34 -0.54 1.35 -0.5 1.36 -0.46 1.37 -0.42 1.36 -0.38 1.37 -0.35 1.37 -0.32 1.36 -0.29 1.36 -0.26 1.36 -0.24 1.35 -0.21 1.34 -0.19 1.33 -0.16 1.32 -0.15 1.31 -0.13 1.28 -0.11 1.27 -0.1 1.12 15.45 -1.16 0.09 -1.18 0.1 -1.18 0.11 -1.17 0.13 -1.18 0.15 -1.18 0.16 -1.18 0.18 -1.17 0.2 -1.17 0.23 -1.16 0.24 -1.14 0.27 -1.13 0.29 -1.12 0.31 -1.09 0.33 -1.07 0.36 -1.06 0.39 -1.03 0.41 -1 0.44 -0.98 0.47 -0.94 0.49 -0.91 0.52 -0.88 0.55 -0.84 0.56 -0.81 0.59 -0.78 0.63 -0.74 0.65 -0.7 0.67 -0.66 0.7 -0.63 0.73 -0.59 0.76 -0.55 0.79 -0.52 0.83zm0 0c-2.03,3.44 -6.06,4.18 -8.99,1.65 -2.93,-2.53 -3.65,-7.37 -1.62,-10.82l10.61 9.16z"/>
   </g>
   <g>
    <path class="fil0" d="M143.46 124.09c1,4.13 -0.97,8.37 -4.39,9.45 -3.43,1.09 -7.01,-1.38 -8.01,-5.51l12.4 -3.94zm-56.47 -33.25l0.98 -15.4 0.01 0 2.67 0.37 2.61 0.44 2.56 0.52 2.51 0.59 2.45 0.66 2.4 0.74 2.34 0.82 2.28 0.89 2.23 0.97 2.17 1.04 2.12 1.12 2.06 1.2 1.99 1.27 1.94 1.36 1.88 1.43 1.81 1.51 1.75 1.58 1.68 1.66 1.62 1.74 1.55 1.81 1.48 1.89 1.41 1.95 1.33 2.03 1.26 2.09 1.19 2.15 1.12 2.23 1.03 2.29 0.96 2.34 0.89 2.4 0.81 2.46 0.74 2.51 0.66 2.56 -12.4 3.94 -0.52 -2 -0.57 -1.94 -0.62 -1.88 -0.67 -1.81 -0.73 -1.76 -0.77 -1.7 -0.82 -1.64 -0.87 -1.59 -0.93 -1.54 -0.98 -1.48 -1.03 -1.43 -1.08 -1.38 -1.14 -1.33 -1.19 -1.29 -1.25 -1.23 -1.31 -1.19 -1.37 -1.14 -1.43 -1.09 -1.48 -1.04 -1.56 -0.99 -1.62 -0.95 -1.68 -0.89 -1.75 -0.84 -1.81 -0.79 -1.88 -0.73 -1.95 -0.68 -2.01 -0.62 -2.07 -0.57 -2.14 -0.5 -2.22 -0.45 -2.28 -0.39 -2.34 -0.32 0.01 0zm-0.01 -0c-3.56,-0.44 -6.22,-4.24 -5.95,-8.49 0.27,-4.25 3.38,-7.34 6.94,-6.9l-0.99 15.39zm-67.17 47.46l-11.85 -6.54 0 0 1.57 -4.03 1.69 -3.87 1.8 -3.72 1.91 -3.55 2.01 -3.4 2.11 -3.24 2.2 -3.09 2.28 -2.93 2.35 -2.78 2.42 -2.63 2.49 -2.48 2.55 -2.33 2.6 -2.18 2.65 -2.03 2.69 -1.9 2.72 -1.75 2.75 -1.61 2.78 -1.48 2.79 -1.34 2.81 -1.21 2.81 -1.08 2.82 -0.95 2.81 -0.82 2.81 -0.69 2.79 -0.57 2.78 -0.45 2.75 -0.33 2.73 -0.21 2.7 -0.09 2.66 0.03 2.62 0.14 2.57 0.25 -0.98 15.4 -2.08 -0.21 -2.14 -0.11 -2.19 -0.02 -2.23 0.08 -2.28 0.18 -2.31 0.28 -2.33 0.38 -2.35 0.48 -2.37 0.59 -2.38 0.7 -2.39 0.8 -2.39 0.91 -2.38 1.02 -2.37 1.13 -2.35 1.25 -2.33 1.37 -2.3 1.48 -2.27 1.6 -2.23 1.72 -2.19 1.83 -2.14 1.96 -2.09 2.08 -2.04 2.2 -1.97 2.33 -1.91 2.46 -1.84 2.59 -1.77 2.72 -1.69 2.86 -1.61 2.99 -1.52 3.13 -1.42 3.27 -1.33 3.42 0 0zm0 -0c-1.42,3.87 -5.23,5.55 -8.5,3.75 -3.27,-1.8 -4.77,-6.41 -3.36,-10.28l11.85 6.53zm-17.87 54.65l10.25 9.75 -11.53 -4.1 -0.02 -0.16 -0.04 -0.35 -0.05 -0.54 -0.06 -0.73 -0.07 -0.91 -0.07 -1.05 -0.08 -1.21 -0.08 -1.39 -0.07 -1.52 -0.06 -1.65 -0.05 -1.79 -0.03 -1.92 -0.01 -2.03 0.01 -2.14 0.04 -2.26 0.07 -2.33 0.09 -2.43 0.13 -2.51 0.17 -2.59 0.21 -2.66 0.26 -2.71 0.31 -2.77 0.36 -2.83 0.42 -2.85 0.48 -2.89 0.55 -2.92 0.62 -2.94 0.69 -2.94 0.77 -2.96 0.84 -2.95 0.94 -2.95 1.02 -2.92 11.85 6.54 -0.86 2.45 -0.79 2.48 -0.72 2.51 -0.65 2.54 -0.6 2.55 -0.54 2.55 -0.47 2.55 -0.43 2.55 -0.37 2.53 -0.32 2.51 -0.28 2.47 -0.23 2.44 -0.19 2.39 -0.15 2.33 -0.12 2.27 -0.09 2.21 -0.06 2.13 -0.03 2.03 -0.01 1.94 0.01 1.85 0.03 1.73 0.05 1.62 0.05 1.5 0.06 1.37 0.06 1.21 0.07 1.09 0.06 0.94 0.06 0.74 0.05 0.59 0.04 0.42 0.02 0.24 0 0.04 -11.53 -4.1zm11.53 4.1c0.45,4.25 -2.06,8.05 -5.59,8.47 -3.54,0.43 -6.78,-2.67 -7.22,-6.92l12.82 -1.55zm57.87 -65.98l2.92 15.16 -0.01 0 -2.63 0.75 -2.67 0.97 -2.7 1.18 -2.73 1.38 -2.75 1.57 -2.75 1.74 -2.74 1.89 -2.73 2.03 -2.7 2.15 -2.67 2.26 -2.63 2.34 -2.57 2.41 -2.52 2.47 -2.45 2.5 -2.38 2.51 -2.3 2.52 -2.21 2.5 -2.12 2.46 -2.01 2.41 -1.91 2.34 -1.79 2.25 -1.67 2.14 -1.53 2.02 -1.4 1.88 -1.26 1.72 -1.11 1.54 -0.95 1.34 -0.78 1.13 -0.63 0.91 -0.45 0.66 -0.27 0.4 -0.06 0.09 -10.25 -9.75 0.13 -0.2 0.31 -0.47 0.49 -0.73 0.67 -0.98 0.85 -1.23 1.02 -1.44 1.18 -1.63 1.34 -1.82 1.48 -1.98 1.62 -2.13 1.76 -2.26 1.89 -2.37 2.01 -2.47 2.13 -2.54 2.24 -2.61 2.35 -2.65 2.45 -2.68 2.54 -2.69 2.63 -2.69 2.72 -2.66 2.8 -2.62 2.87 -2.56 2.94 -2.49 3.01 -2.39 3.07 -2.29 3.12 -2.15 3.18 -2.01 3.23 -1.84 3.28 -1.66 3.33 -1.45 3.37 -1.22 3.41 -0.97 -0.01 0zm0.01 -0c3.48,-0.85 6.95,1.86 7.75,6.05 0.8,4.19 -1.37,8.27 -4.85,9.12l-2.9 -15.17zm43.6 5.23l0.34 15.48 -3.66 -1.34 -0.02 -0.02 -0.09 -0.07 -0.2 -0.14 -0.28 -0.19 -0.34 -0.22 -0.42 -0.26 -0.48 -0.28 -0.58 -0.32 -0.64 -0.33 -0.71 -0.35 -0.79 -0.36 -0.86 -0.37 -0.91 -0.37 -1 -0.36 -1.08 -0.36 -1.14 -0.35 -1.21 -0.32 -1.29 -0.3 -1.35 -0.28 -1.42 -0.25 -1.5 -0.21 -1.56 -0.17 -1.63 -0.12 -1.7 -0.07 -1.77 -0.01 -1.84 0.05 -1.92 0.11 -1.99 0.18 -2.06 0.26 -2.13 0.34 -2.2 0.43 -2.27 0.52 -2.92 -15.16 2.61 -0.6 2.55 -0.5 2.48 -0.4 2.42 -0.3 2.34 -0.22 2.27 -0.13 2.21 -0.06 2.14 0.02 2.06 0.09 1.99 0.15 1.92 0.21 1.83 0.26 1.77 0.3 1.69 0.35 1.61 0.38 1.55 0.42 1.46 0.45 1.37 0.46 1.31 0.47 1.23 0.49 1.15 0.49 1.05 0.49 0.99 0.48 0.91 0.48 0.82 0.45 0.75 0.44 0.66 0.41 0.59 0.38 0.49 0.33 0.42 0.29 0.36 0.27 0.27 0.21 -3.66 -1.34zm3.66 1.34c3,2.4 3.87,7.22 1.94,10.75 -1.93,3.53 -5.93,4.44 -8.93,2.04l6.99 -12.79zm-3.46 6.4l0.17 7.74 0 0 0 0 0 0 0 0 0 0 0 0 0 0 0 0 0 0 0 0 0 0 -0 0 0 0 0 0 0 0 0 0 -0 0 0 0 0 0 -0 0 0 0 0 0 -0 0 0 0 -0 0 0 0 -0 0 -0 0 0 0 -0 0 -0 0 -0.34 -15.48 0 0 0 0 0 0 0 0 0 0 0 0 0 0 0 0 0 0 0 0 0 0 0 0 0 0 0 0 0 0 0 0 0 0 0 0 0 0 0 0 0 0 0 0 0 0 0 0 0 0 0 0 0 0 0 0 0 0 0 0 0 0 0.17 7.74zm-0.17 -7.74c3.57,0 6.54,3.46 6.63,7.74 0.09,4.27 -2.72,7.74 -6.29,7.74l-0.34 -15.48z"/>
   </g>
   <g>
    <path class="fil0" d="M397.11 224.89c-3.6,0.49 -6.69,-2.51 -6.9,-6.71 -0.2,-4.2 2.55,-8.01 6.16,-8.5l0.74 15.21zm108.16 -8.99l-4.4 14.71 0.01 0 -3.66 -1.22 -3.64 -1.12 -3.62 -1.02 -3.6 -0.93 -3.58 -0.84 -3.56 -0.76 -3.53 -0.67 -3.51 -0.59 -3.49 -0.52 -3.46 -0.44 -3.44 -0.37 -3.41 -0.3 -3.38 -0.24 -3.35 -0.18 -3.32 -0.12 -3.3 -0.07 -3.26 -0.02 -3.23 0.03 -3.2 0.08 -3.17 0.12 -3.13 0.15 -3.09 0.19 -3.06 0.23 -3.03 0.25 -2.99 0.28 -2.94 0.3 -2.91 0.32 -2.87 0.33 -2.82 0.35 -2.79 0.36 -2.74 0.36 -2.7 0.37 -0.74 -15.21 2.73 -0.37 2.78 -0.37 2.84 -0.36 2.89 -0.36 2.94 -0.34 2.99 -0.33 3.04 -0.3 3.08 -0.29 3.13 -0.26 3.18 -0.23 3.23 -0.2 3.27 -0.16 3.31 -0.12 3.36 -0.08 3.39 -0.03 3.43 0.02 3.47 0.07 3.51 0.13 3.54 0.19 3.58 0.26 3.61 0.32 3.64 0.39 3.68 0.47 3.7 0.54 3.74 0.63 3.76 0.72 3.79 0.8 3.81 0.9 3.84 0.99 3.86 1.09 3.88 1.2 3.9 1.3 0.01 0zm-0.01 -0c3.4,1.18 5.17,5.43 3.96,9.49 -1.21,4.06 -4.95,6.4 -8.35,5.23l4.39 -14.72zm109.64 143.18l-12.92 3.26 -0 -0.01 -0.93 -5.93 -1.2 -5.88 -1.47 -5.83 -1.72 -5.78 -1.96 -5.71 -2.18 -5.64 -2.4 -5.56 -2.6 -5.47 -2.79 -5.38 -2.97 -5.28 -3.13 -5.17 -3.28 -5.05 -3.41 -4.92 -3.54 -4.79 -3.64 -4.65 -3.73 -4.5 -3.81 -4.35 -3.87 -4.18 -3.92 -4.01 -3.96 -3.84 -3.98 -3.65 -3.98 -3.46 -3.97 -3.27 -3.95 -3.07 -3.9 -2.85 -3.85 -2.63 -3.78 -2.41 -3.69 -2.18 -3.58 -1.94 -3.45 -1.7 -3.31 -1.45 -3.15 -1.19 4.4 -14.71 3.7 1.4 3.8 1.66 3.89 1.91 3.97 2.15 4.04 2.39 4.1 2.62 4.16 2.84 4.19 3.06 4.22 3.27 4.23 3.48 4.24 3.69 4.22 3.88 4.2 4.08 4.16 4.26 4.11 4.44 4.04 4.62 3.97 4.78 3.87 4.95 3.77 5.11 3.65 5.26 3.51 5.41 3.37 5.55 3.2 5.69 3.02 5.83 2.83 5.96 2.63 6.08 2.4 6.2 2.16 6.31 1.92 6.42 1.64 6.53 1.36 6.63 1.05 6.72 -0 -0.01zm0 0.01c0.55,4.13 -1.9,8.21 -5.47,9.1 -3.57,0.89 -6.91,-1.74 -7.45,-5.87l12.92 -3.24zm0.72 29.15l-13.01 -0.64 -0 0.04 0.07 -0.81 0.06 -0.8 0.05 -0.8 0.05 -0.81 0.04 -0.81 0.04 -0.8 0.03 -0.79 0.02 -0.81 0.02 -0.81 0.01 -0.79 0.01 -0.79 0 -0.79 -0 -0.8 -0.01 -0.8 -0.01 -0.79 -0.02 -0.8 -0.02 -0.8 -0.03 -0.78 -0.03 -0.78 -0.04 -0.8 -0.04 -0.79 -0.05 -0.78 -0.06 -0.78 -0.06 -0.79 -0.07 -0.79 -0.07 -0.78 -0.08 -0.77 -0.09 -0.79 -0.09 -0.79 -0.09 -0.77 -0.1 -0.79 -0.1 -0.78 12.92 -3.26 0.12 0.89 0.11 0.89 0.11 0.9 0.1 0.89 0.09 0.89 0.09 0.91 0.08 0.91 0.07 0.89 0.07 0.9 0.06 0.91 0.06 0.91 0.05 0.9 0.05 0.9 0.04 0.92 0.03 0.92 0.02 0.9 0.02 0.9 0.02 0.92 0.01 0.9 0 0.91 -0 0.92 -0.01 0.92 -0.02 0.93 -0.02 0.91 -0.03 0.91 -0.04 0.93 -0.04 0.93 -0.05 0.91 -0.05 0.91 -0.06 0.93 -0.07 0.93 -0.07 0.92 -0 0.04zm0 -0.04c-0.35,4.23 -3.54,7.53 -7.14,7.38 -3.59,-0.15 -6.23,-3.7 -5.88,-7.93l13.01 0.55zm-0.99 10.04l-12.97 -0.99 0.01 -0.13 0.03 -0.28 0.04 -0.3 0.03 -0.25 0.03 -0.3 0.04 -0.3 0.03 -0.26 0.03 -0.3 0.03 -0.3 0.03 -0.3 0.03 -0.26 0.03 -0.3 0.03 -0.3 0.03 -0.31 0.03 -0.31 0.03 -0.26 0.03 -0.31 0.03 -0.31 0.03 -0.31 0.02 -0.26 0.03 -0.31 0.04 -0.35 0.02 -0.27 0.03 -0.31 0.03 -0.31 0.03 -0.3 0.03 -0.31 0.02 -0.26 0.03 -0.31 0.03 -0.35 0.03 -0.31 0.02 -0.26 0.03 -0.32 13.01 0.64 -0.03 0.29 -0.03 0.35 -0.03 0.31 -0.02 0.26 -0.03 0.31 -0.03 0.35 -0.03 0.31 -0.03 0.31 -0.03 0.31 -0.03 0.3 -0.04 0.36 -0.02 0.27 -0.03 0.31 -0.04 0.35 -0.03 0.31 -0.03 0.31 -0.03 0.31 -0.03 0.36 -0.03 0.31 -0.03 0.31 -0.03 0.31 -0.03 0.3 -0.04 0.36 -0.03 0.31 -0.03 0.3 -0.03 0.3 -0.04 0.35 -0.04 0.3 -0.03 0.31 -0.04 0.35 -0.04 0.3 -0.04 0.32 0.01 -0.13zm-0.01 0.13c-0.51,4.21 -3.82,7.35 -7.39,7.01 -3.57,-0.34 -6.05,-4.04 -5.55,-8.26l12.94 1.25zm-56.21 177.76l-9.96 -9.2 0.01 -0.01 1.89 -2.82 1.93 -3.04 1.95 -3.26 1.98 -3.46 1.99 -3.66 2 -3.86 2.01 -4.05 2 -4.23 2 -4.41 2 -4.58 1.98 -4.74 1.96 -4.9 1.95 -5.06 1.92 -5.2 1.89 -5.34 1.86 -5.48 1.82 -5.61 1.77 -5.73 1.73 -5.85 1.68 -5.96 1.63 -6.08 1.58 -6.18 1.51 -6.27 1.44 -6.36 1.38 -6.45 1.3 -6.53 1.23 -6.61 1.15 -6.67 1.06 -6.73 0.97 -6.8 0.88 -6.85 0.79 -6.9 12.97 0.99 -0.81 7.16 -0.92 7.11 -1.01 7.05 -1.1 6.99 -1.19 6.92 -1.27 6.84 -1.35 6.77 -1.43 6.69 -1.5 6.59 -1.57 6.51 -1.63 6.4 -1.69 6.3 -1.75 6.19 -1.8 6.07 -1.85 5.96 -1.89 5.83 -1.93 5.7 -1.97 5.57 -2 5.43 -2.03 5.29 -2.06 5.14 -2.09 4.98 -2.1 4.82 -2.12 4.66 -2.14 4.5 -2.14 4.32 -2.15 4.15 -2.16 3.97 -2.15 3.78 -2.15 3.6 -2.15 3.4 -2.15 3.21 0.01 -0.01zm-0.01 0.01c-2.34,3.38 -6.47,4.06 -9.21,1.51 -2.74,-2.54 -3.07,-7.35 -0.74,-10.73l9.95 9.21zm-62.05 34.87l5.23 -14.39 -0 0 0.73 0.29 0.79 0.26 0.83 0.22 0.91 0.17 0.96 0.13 1.02 0.07 1.07 0.02 1.12 -0.05 1.17 -0.11 1.23 -0.18 1.27 -0.26 1.33 -0.34 1.37 -0.42 1.41 -0.51 1.46 -0.6 1.5 -0.7 1.55 -0.8 1.58 -0.9 1.62 -1.01 1.67 -1.13 1.69 -1.24 1.74 -1.37 1.77 -1.49 1.79 -1.62 1.83 -1.76 1.85 -1.89 1.88 -2.04 1.91 -2.18 1.93 -2.33 1.94 -2.48 1.96 -2.64 1.98 -2.8 9.96 9.2 -2.2 3.11 -2.2 2.96 -2.2 2.8 -2.19 2.65 -2.19 2.5 -2.18 2.36 -2.17 2.22 -2.16 2.08 -2.15 1.94 -2.14 1.8 -2.12 1.67 -2.11 1.54 -2.09 1.41 -2.07 1.29 -2.05 1.17 -2.02 1.04 -2 0.93 -1.97 0.81 -1.95 0.7 -1.92 0.59 -1.88 0.48 -1.85 0.38 -1.81 0.28 -1.78 0.17 -1.75 0.07 -1.69 -0.02 -1.66 -0.12 -1.6 -0.21 -1.56 -0.3 -1.53 -0.39 -1.45 -0.48 -1.4 -0.56 -0 0zm0 0c-3.31,-1.45 -4.82,-5.85 -3.38,-9.82 1.44,-3.97 5.3,-6.02 8.6,-4.56l-5.22 14.39zm-0.05 -67.18l11.66 6.08 -0 0.01 -0.99 2.39 -0.94 2.38 -0.88 2.35 -0.84 2.33 -0.78 2.3 -0.72 2.27 -0.68 2.24 -0.62 2.19 -0.56 2.14 -0.5 2.1 -0.45 2.03 -0.39 1.97 -0.33 1.92 -0.27 1.84 -0.21 1.77 -0.15 1.69 -0.09 1.59 -0.04 1.49 0.02 1.4 0.07 1.29 0.12 1.18 0.16 1.07 0.2 0.93 0.23 0.81 0.25 0.68 0.26 0.56 0.26 0.46 0.27 0.37 0.26 0.3 0.28 0.25 0.3 0.21 0.36 0.18 -5.23 14.39 -1.63 -0.84 -1.52 -1.05 -1.39 -1.23 -1.25 -1.4 -1.1 -1.54 -0.94 -1.66 -0.8 -1.75 -0.66 -1.82 -0.53 -1.88 -0.41 -1.93 -0.3 -1.97 -0.21 -2.02 -0.11 -2.06 -0.03 -2.1 0.05 -2.15 0.13 -2.19 0.2 -2.23 0.27 -2.27 0.34 -2.31 0.4 -2.34 0.47 -2.39 0.53 -2.42 0.59 -2.44 0.65 -2.49 0.71 -2.51 0.76 -2.53 0.82 -2.57 0.88 -2.58 0.93 -2.6 0.99 -2.62 1.03 -2.63 1.09 -2.64 -0 0.01zm0 -0.01c1.63,-3.88 5.56,-5.66 8.78,-3.98 3.22,1.68 4.51,6.19 2.88,10.07l-11.66 -6.09zm34.77 -59.5l7.51 -13.05 0.02 0.02 2.01 2.14 1.29 2.75 0.51 2.75 -0.01 2.51 -0.32 2.27 -0.51 2.11 -0.65 2.06 -0.78 2.05 -0.88 2.09 -0.98 2.13 -1.08 2.19 -1.16 2.25 -1.24 2.32 -1.31 2.38 -1.38 2.44 -1.43 2.5 -1.48 2.54 -1.51 2.58 -1.54 2.63 -1.56 2.66 -1.57 2.68 -1.57 2.69 -1.56 2.7 -1.54 2.7 -1.5 2.68 -1.47 2.68 -1.42 2.65 -1.36 2.61 -1.29 2.56 -1.21 2.51 -1.12 2.44 -1.02 2.36 -11.66 -6.08 1.19 -2.74 1.27 -2.76 1.34 -2.78 1.41 -2.8 1.46 -2.81 1.51 -2.81 1.55 -2.81 1.58 -2.81 1.59 -2.79 1.59 -2.77 1.6 -2.74 1.58 -2.7 1.56 -2.66 1.53 -2.61 1.49 -2.55 1.44 -2.49 1.38 -2.4 1.3 -2.32 1.22 -2.22 1.13 -2.11 1.02 -1.99 0.91 -1.85 0.78 -1.69 0.64 -1.5 0.48 -1.28 0.32 -1.02 0.17 -0.68 0.04 -0.23 0.01 0.31 0.18 0.89 0.58 1.22 0.9 0.97 0.02 0.02zm-0.02 -0.02c-2.94,-2.23 -3.64,-6.96 -1.56,-10.55 2.08,-3.59 6.17,-4.7 9.11,-2.47l-7.55 13.01zm-56.41 65.81l-10.15 -8.91 -0 0 1.4 -2.08 1.57 -2.23 1.72 -2.37 1.85 -2.51 1.99 -2.63 2.11 -2.73 2.21 -2.82 2.31 -2.91 2.4 -2.96 2.47 -3 2.52 -3.03 2.58 -3.05 2.61 -3.04 2.64 -3.02 2.64 -2.98 2.64 -2.93 2.63 -2.86 2.61 -2.78 2.57 -2.67 2.52 -2.56 2.47 -2.43 2.39 -2.27 2.33 -2.13 2.25 -1.95 2.16 -1.77 2.1 -1.57 2.04 -1.37 2.03 -1.16 2.1 -0.93 2.34 -0.6 2.79 0.03 3.13 1.37 -7.51 13.05 1.59 0.72 0.83 0.03 -0.01 0.02 -0.63 0.28 -1.04 0.6 -1.35 0.91 -1.58 1.19 -1.78 1.45 -1.94 1.68 -2.07 1.9 -2.2 2.09 -2.29 2.25 -2.37 2.41 -2.44 2.54 -2.49 2.65 -2.52 2.74 -2.54 2.83 -2.56 2.88 -2.55 2.92 -2.53 2.95 -2.5 2.95 -2.45 2.95 -2.39 2.92 -2.33 2.87 -2.23 2.8 -2.14 2.72 -2.02 2.62 -1.89 2.5 -1.75 2.37 -1.59 2.2 -1.41 2.02 -1.22 1.81 -0 0zm0 0c-2.27,3.44 -6.39,4.23 -9.2,1.77 -2.8,-2.46 -3.24,-7.25 -0.96,-10.69l10.16 8.91zm-50.81 23.46l8.64 -12.08 0 -0 0.8 0.7 0.78 0.58 0.75 0.47 0.73 0.36 0.73 0.27 0.74 0.2 0.73 0.12 0.75 0.04 0.79 -0.03 0.81 -0.1 0.86 -0.18 0.9 -0.26 0.94 -0.35 0.98 -0.44 1.02 -0.53 1.05 -0.62 1.09 -0.72 1.11 -0.8 1.12 -0.88 1.15 -0.98 1.17 -1.06 1.18 -1.14 1.19 -1.21 1.19 -1.29 1.2 -1.36 1.2 -1.42 1.2 -1.48 1.19 -1.54 1.19 -1.59 1.18 -1.63 1.17 -1.69 1.16 -1.73 10.15 8.91 -1.3 1.94 -1.32 1.9 -1.35 1.87 -1.36 1.82 -1.38 1.78 -1.4 1.74 -1.42 1.68 -1.44 1.63 -1.46 1.57 -1.48 1.52 -1.5 1.44 -1.52 1.38 -1.54 1.31 -1.57 1.24 -1.59 1.14 -1.6 1.06 -1.64 0.97 -1.67 0.87 -1.69 0.76 -1.73 0.64 -1.75 0.51 -1.78 0.37 -1.8 0.22 -1.8 0.06 -1.82 -0.11 -1.81 -0.29 -1.78 -0.47 -1.76 -0.66 -1.73 -0.85 -1.67 -1.03 -1.6 -1.19 -1.54 -1.37 0 -0zm0 0c-2.71,-2.6 -2.97,-7.41 -0.59,-10.75 2.38,-3.34 6.52,-3.94 9.22,-1.34l-8.64 12.09zm18.21 -87.77l9.46 9.88 -0 0 -2.17 2.88 -2.06 2.88 -1.95 2.87 -1.84 2.85 -1.73 2.83 -1.62 2.8 -1.51 2.77 -1.4 2.74 -1.29 2.7 -1.19 2.66 -1.08 2.6 -0.97 2.55 -0.87 2.5 -0.76 2.43 -0.66 2.36 -0.55 2.29 -0.45 2.21 -0.35 2.13 -0.26 2.03 -0.16 1.94 -0.07 1.83 0.02 1.74 0.1 1.61 0.18 1.5 0.25 1.38 0.32 1.27 0.37 1.15 0.43 1.04 0.48 0.94 0.54 0.85 0.59 0.77 0.65 0.69 -8.64 12.08 -1.53 -1.63 -1.38 -1.79 -1.22 -1.94 -1.06 -2.07 -0.9 -2.18 -0.74 -2.27 -0.59 -2.36 -0.44 -2.44 -0.3 -2.51 -0.16 -2.56 -0.03 -2.61 0.1 -2.67 0.23 -2.72 0.35 -2.77 0.47 -2.82 0.58 -2.86 0.7 -2.9 0.82 -2.94 0.93 -2.98 1.04 -3.01 1.16 -3.04 1.27 -3.07 1.39 -3.1 1.5 -3.12 1.61 -3.14 1.73 -3.16 1.83 -3.17 1.95 -3.18 2.06 -3.19 2.18 -3.19 2.28 -3.19 2.4 -3.19 -0 0zm0 -0c2.49,-3.23 6.63,-3.63 9.24,-0.91 2.61,2.73 2.71,7.57 0.22,10.8l-9.46 -9.89zm34.02 -53.2l12.97 1.03 -0 0.02 -0.23 1.78 -0.28 1.77 -0.34 1.74 -0.4 1.72 -0.46 1.7 -0.52 1.69 -0.59 1.67 -0.64 1.65 -0.7 1.63 -0.75 1.61 -0.81 1.61 -0.87 1.61 -0.93 1.61 -0.98 1.62 -1.03 1.63 -1.1 1.66 -1.15 1.68 -1.21 1.72 -1.27 1.77 -1.34 1.82 -1.41 1.88 -1.48 1.95 -1.54 2.01 -1.62 2.1 -1.7 2.18 -1.77 2.27 -1.86 2.37 -1.93 2.48 -2.02 2.59 -2.11 2.7 -2.19 2.83 -2.28 2.96 -9.46 -9.88 2.31 -2.99 2.21 -2.85 2.12 -2.72 2.03 -2.6 1.94 -2.48 1.85 -2.37 1.76 -2.26 1.68 -2.15 1.58 -2.05 1.51 -1.96 1.42 -1.87 1.33 -1.78 1.25 -1.71 1.18 -1.63 1.09 -1.56 1.02 -1.49 0.94 -1.42 0.86 -1.36 0.79 -1.3 0.72 -1.25 0.65 -1.2 0.58 -1.16 0.53 -1.13 0.47 -1.09 0.42 -1.08 0.37 -1.05 0.33 -1.06 0.29 -1.07 0.25 -1.09 0.22 -1.12 0.18 -1.16 0.15 -1.22 -0 0.02zm0 -0.02c0.47,-4.22 3.75,-7.4 7.33,-7.11 3.58,0.29 6.1,3.96 5.64,8.18l-12.96 -1.07zm-53.99 -17.01l-0.18 -15.28 0 0 2.76 -0.19 2.79 -0.11 2.81 -0.03 2.83 0.05 2.83 0.13 2.84 0.2 2.83 0.28 2.81 0.35 2.79 0.42 2.76 0.49 2.73 0.56 2.69 0.63 2.64 0.69 2.58 0.76 2.52 0.83 2.45 0.89 2.38 0.96 2.3 1.02 2.21 1.09 2.12 1.16 2.02 1.23 1.92 1.32 1.81 1.4 1.7 1.51 1.58 1.62 1.44 1.77 1.28 1.92 1.1 2.12 0.88 2.31 0.6 2.52 0.27 2.67 -0.11 2.75 -12.97 -1.03 0.01 -0.26 -0.03 -0.28 -0.09 -0.38 -0.2 -0.5 -0.34 -0.64 -0.5 -0.75 -0.68 -0.84 -0.86 -0.89 -1.05 -0.93 -1.22 -0.95 -1.37 -0.94 -1.53 -0.93 -1.66 -0.91 -1.79 -0.88 -1.9 -0.85 -2.01 -0.81 -2.11 -0.77 -2.19 -0.72 -2.27 -0.67 -2.34 -0.62 -2.39 -0.56 -2.45 -0.5 -2.48 -0.44 -2.51 -0.38 -2.54 -0.31 -2.54 -0.26 -2.54 -0.18 -2.53 -0.12 -2.52 -0.05 -2.49 0.03 -2.46 0.1 -2.41 0.17 0 0zm-0 0c-3.61,0.31 -6.58,-2.86 -6.62,-7.08 -0.05,-4.22 2.84,-7.9 6.45,-8.2l0.17 15.28zm-145.22 81.97l-8.31 -11.22 0 0 2.98 -3.03 3.18 -3.11 3.36 -3.19 3.55 -3.26 3.72 -3.31 3.88 -3.36 4.04 -3.39 4.19 -3.41 4.32 -3.42 4.46 -3.43 4.59 -3.42 4.71 -3.4 4.81 -3.36 4.92 -3.33 5 -3.27 5.09 -3.2 5.16 -3.13 5.24 -3.04 5.3 -2.94 5.35 -2.84 5.39 -2.71 5.43 -2.58 5.46 -2.44 5.48 -2.28 5.5 -2.11 5.5 -1.94 5.5 -1.74 5.49 -1.54 5.48 -1.32 5.46 -1.09 5.43 -0.85 5.39 -0.6 0.18 15.28 -4.86 0.54 -4.93 0.77 -5 1 -5.05 1.21 -5.1 1.43 -5.13 1.62 -5.16 1.81 -5.17 1.99 -5.18 2.15 -5.17 2.31 -5.16 2.46 -5.14 2.59 -5.11 2.7 -5.07 2.82 -5.02 2.92 -4.96 3.01 -4.9 3.08 -4.81 3.15 -4.73 3.2 -4.64 3.25 -4.54 3.27 -4.42 3.29 -4.3 3.3 -4.17 3.3 -4.03 3.28 -3.88 3.25 -3.72 3.21 -3.55 3.16 -3.38 3.1 -3.19 3.03 -2.99 2.93 -2.79 2.83 0 0zm0 -0c-2.78,2.88 -6.91,2.71 -9.2,-0.39 -2.29,-3.09 -1.9,-7.94 0.89,-10.83l8.31 11.21zm-66.86 35.69l4.46 -14.69 -0 0 0.47 0.14 0.57 0.13 0.66 0.09 0.76 0.06 0.85 0.02 0.94 -0.04 1.03 -0.09 1.11 -0.16 1.2 -0.23 1.28 -0.3 1.35 -0.37 1.43 -0.46 1.51 -0.55 1.58 -0.63 1.64 -0.72 1.72 -0.82 1.78 -0.91 1.86 -1.02 1.92 -1.11 1.98 -1.22 2.05 -1.33 2.11 -1.45 2.17 -1.56 2.23 -1.67 2.29 -1.8 2.35 -1.93 2.41 -2.05 2.46 -2.18 2.52 -2.31 2.57 -2.45 2.63 -2.58 2.68 -2.72 8.31 11.22 -2.85 2.9 -2.8 2.76 -2.76 2.62 -2.71 2.5 -2.67 2.36 -2.62 2.23 -2.56 2.1 -2.52 1.98 -2.47 1.86 -2.42 1.74 -2.37 1.62 -2.32 1.52 -2.28 1.4 -2.22 1.29 -2.16 1.18 -2.12 1.08 -2.07 0.98 -2.02 0.88 -1.96 0.78 -1.9 0.68 -1.86 0.6 -1.81 0.5 -1.76 0.41 -1.71 0.32 -1.66 0.23 -1.6 0.15 -1.56 0.06 -1.51 -0.03 -1.46 -0.11 -1.43 -0.21 -1.37 -0.31 -1.33 -0.41 -0 0zm0 0c-3.39,-1.2 -5.14,-5.46 -3.92,-9.52 1.23,-4.05 4.98,-6.37 8.37,-5.17l-4.45 14.69zm-3.2 -75.86l10.87 7.72 -0 0 -1.25 2.35 -1.2 2.36 -1.14 2.38 -1.08 2.37 -1.02 2.37 -0.95 2.37 -0.88 2.35 -0.8 2.33 -0.73 2.3 -0.65 2.26 -0.57 2.22 -0.49 2.17 -0.4 2.11 -0.32 2.04 -0.23 1.98 -0.14 1.9 -0.06 1.8 0.03 1.7 0.11 1.61 0.19 1.51 0.26 1.39 0.33 1.29 0.4 1.18 0.46 1.08 0.53 0.99 0.6 0.91 0.68 0.84 0.77 0.78 0.88 0.72 1 0.66 1.15 0.6 1.3 0.53 -4.46 14.69 -2.27 -0.92 -2.14 -1.12 -2 -1.32 -1.84 -1.51 -1.68 -1.7 -1.51 -1.86 -1.33 -2.01 -1.14 -2.14 -0.97 -2.25 -0.79 -2.34 -0.63 -2.41 -0.46 -2.47 -0.31 -2.51 -0.17 -2.55 -0.04 -2.6 0.09 -2.62 0.2 -2.64 0.31 -2.67 0.42 -2.69 0.51 -2.71 0.61 -2.73 0.7 -2.73 0.79 -2.75 0.87 -2.76 0.95 -2.76 1.03 -2.76 1.1 -2.75 1.17 -2.75 1.24 -2.73 1.31 -2.72 1.37 -2.7 1.43 -2.67 -0 0zm0 -0c2,-3.65 6.06,-4.88 9.06,-2.75 3,2.13 3.81,6.83 1.8,10.48l-10.87 -7.73zm45.53 -81.51l9.49 -11.19 -0.01 -0.01 1.81 2.58 1.32 2.96 0.78 3.15 0.28 3.2 -0.12 3.18 -0.45 3.13 -0.71 3.08 -0.94 3.07 -1.13 3.08 -1.31 3.1 -1.46 3.13 -1.6 3.17 -1.74 3.21 -1.85 3.24 -1.95 3.28 -2.04 3.3 -2.11 3.32 -2.17 3.35 -2.22 3.35 -2.25 3.36 -2.27 3.35 -2.28 3.34 -2.27 3.31 -2.24 3.29 -2.2 3.24 -2.14 3.19 -2.08 3.14 -1.99 3.06 -1.89 2.98 -1.77 2.88 -1.64 2.77 -1.49 2.65 -10.87 -7.72 1.68 -2.99 1.81 -3.05 1.91 -3.1 2 -3.15 2.08 -3.2 2.14 -3.24 2.19 -3.27 2.23 -3.29 2.26 -3.31 2.27 -3.31 2.26 -3.31 2.24 -3.3 2.2 -3.28 2.15 -3.26 2.09 -3.22 2.01 -3.17 1.91 -3.09 1.8 -3.02 1.68 -2.94 1.54 -2.83 1.38 -2.71 1.21 -2.58 1.02 -2.41 0.82 -2.21 0.61 -2 0.41 -1.74 0.21 -1.43 0.05 -1.1 -0.06 -0.77 -0.12 -0.5 -0.16 -0.36 -0.27 -0.38 -0.01 -0.01zm0.01 0.01c-2.49,-2.88 -2.38,-7.74 0.24,-10.83 2.62,-3.09 6.76,-3.26 9.24,-0.38l-9.48 11.21zm-92.72 52.56l-7.68 -11.83 0.01 -0.01 2.18 -1.96 2.43 -2.1 2.65 -2.21 2.86 -2.33 3.06 -2.43 3.24 -2.51 3.4 -2.57 3.54 -2.63 3.67 -2.66 3.78 -2.68 3.87 -2.69 3.95 -2.67 4 -2.64 4.04 -2.6 4.06 -2.53 4.06 -2.45 4.05 -2.36 4.01 -2.24 3.97 -2.12 3.91 -1.97 3.83 -1.81 3.74 -1.63 3.64 -1.44 3.53 -1.23 3.42 -1 3.3 -0.74 3.2 -0.46 3.1 -0.12 3.03 0.28 2.96 0.8 2.85 1.48 2.55 2.29 -9.49 11.19 -0.16 -0.13 -0.47 -0.23 -0.92 -0.24 -1.39 -0.12 -1.81 0.08 -2.18 0.31 -2.5 0.56 -2.76 0.81 -3 1.04 -3.2 1.26 -3.36 1.47 -3.51 1.66 -3.63 1.83 -3.73 1.99 -3.81 2.13 -3.85 2.24 -3.89 2.35 -3.9 2.43 -3.89 2.5 -3.86 2.55 -3.81 2.58 -3.75 2.6 -3.66 2.59 -3.55 2.58 -3.43 2.54 -3.28 2.49 -3.11 2.41 -2.92 2.32 -2.72 2.21 -2.49 2.08 -2.23 1.93 -1.95 1.76 0.01 -0.01zm-0.01 0.01c-2.92,2.68 -7.01,2.2 -9.13,-1.07 -2.12,-3.27 -1.46,-8.1 1.46,-10.78l7.66 11.85zm-63.4 -14.87l12.97 1.02 0 -0.01 -0.24 3.05 -0.04 2.68 0.13 2.31 0.28 1.96 0.38 1.63 0.47 1.33 0.53 1.1 0.59 0.89 0.65 0.74 0.76 0.64 0.86 0.55 1 0.46 1.15 0.36 1.31 0.25 1.46 0.13 1.59 -0 1.72 -0.14 1.82 -0.28 1.91 -0.42 1.99 -0.55 2.05 -0.69 2.09 -0.81 2.12 -0.93 2.14 -1.03 2.13 -1.14 2.13 -1.23 2.11 -1.32 2.06 -1.39 2.01 -1.45 1.95 -1.51 1.88 -1.56 1.79 -1.58 7.68 11.83 -2.17 1.93 -2.25 1.86 -2.32 1.8 -2.39 1.72 -2.44 1.64 -2.49 1.56 -2.52 1.46 -2.56 1.37 -2.58 1.25 -2.6 1.14 -2.61 1.01 -2.6 0.87 -2.6 0.73 -2.6 0.57 -2.58 0.39 -2.56 0.21 -2.54 0 -2.51 -0.23 -2.47 -0.48 -2.42 -0.76 -2.34 -1.07 -2.23 -1.42 -2.07 -1.76 -1.87 -2.12 -1.62 -2.45 -1.35 -2.74 -1.06 -3.01 -0.76 -3.24 -0.48 -3.45 -0.2 -3.66 0.06 -3.87 0.32 -4.1 0 -0.01zm0 0.01c0.45,-4.22 3.72,-7.42 7.3,-7.15 3.58,0.27 6.12,3.92 5.67,8.14l-12.97 -1zm62.32 -79.7l7.97 11.56 -0.01 0.01 -2.09 1.97 -2.15 1.95 -2.2 1.93 -2.25 1.91 -2.28 1.9 -2.31 1.9 -2.33 1.9 -2.34 1.9 -2.34 1.91 -2.34 1.92 -2.33 1.93 -2.31 1.95 -2.28 1.97 -2.24 1.99 -2.19 2.02 -2.14 2.05 -2.08 2.08 -2.01 2.11 -1.93 2.14 -1.85 2.18 -1.75 2.2 -1.65 2.24 -1.55 2.28 -1.43 2.32 -1.32 2.36 -1.19 2.41 -1.08 2.46 -0.94 2.51 -0.81 2.57 -0.67 2.65 -0.54 2.73 -0.38 2.82 -12.97 -1.02 0.53 -3.85 0.73 -3.74 0.92 -3.63 1.11 -3.52 1.28 -3.4 1.43 -3.28 1.57 -3.17 1.71 -3.06 1.82 -2.94 1.92 -2.84 2.02 -2.74 2.1 -2.64 2.17 -2.55 2.23 -2.48 2.29 -2.39 2.33 -2.33 2.37 -2.26 2.39 -2.2 2.41 -2.14 2.42 -2.09 2.42 -2.04 2.41 -2 2.4 -1.96 2.38 -1.93 2.33 -1.89 2.3 -1.87 2.24 -1.84 2.18 -1.82 2.11 -1.8 2.03 -1.78 1.95 -1.76 1.84 -1.75 -0.01 0.01zm0.01 -0.01c2.87,-2.77 6.97,-2.42 9.17,0.77 2.19,3.2 1.65,8.04 -1.21,10.81l-7.95 -11.58zm35.82 -47.76l11.88 5.53 -0.45 1.11 -0.49 1.14 -0.55 1.19 -0.6 1.22 -0.65 1.28 -0.71 1.33 -0.76 1.38 -0.81 1.42 -0.87 1.48 -0.92 1.53 -0.98 1.57 -1.03 1.61 -1.08 1.65 -1.14 1.7 -1.19 1.72 -1.23 1.77 -1.29 1.79 -1.33 1.82 -1.39 1.85 -1.43 1.87 -1.48 1.89 -1.53 1.92 -1.58 1.93 -1.62 1.94 -1.68 1.96 -1.72 1.95 -1.76 1.96 -1.81 1.97 -1.85 1.96 -1.9 1.96 -1.94 1.95 -1.98 1.95 -7.97 -11.56 1.83 -1.8 1.8 -1.82 1.76 -1.82 1.72 -1.83 1.68 -1.83 1.64 -1.83 1.6 -1.82 1.55 -1.81 1.52 -1.81 1.47 -1.79 1.42 -1.77 1.38 -1.76 1.34 -1.74 1.28 -1.71 1.23 -1.69 1.19 -1.65 1.14 -1.62 1.09 -1.58 1.03 -1.54 0.98 -1.5 0.93 -1.46 0.87 -1.4 0.81 -1.34 0.76 -1.29 0.7 -1.23 0.64 -1.16 0.57 -1.08 0.51 -1.01 0.45 -0.92 0.38 -0.82 0.31 -0.73 0.24 -0.6zm0 0c1.5,-3.94 5.39,-5.9 8.66,-4.37 3.28,1.53 4.72,5.97 3.22,9.91l-11.88 -5.53z"/>
   </g>
   <g>
    <path class="fil0" d="M587.21 271.03c-2.88,2.44 -6.92,1.57 -9.03,-1.94 -2.11,-3.51 -1.49,-8.33 1.38,-10.77l7.65 12.71zm45.28 -127.89l12.92 0.26 0 0 -0.09 4.87 -0.33 4.91 -0.56 4.92 -0.76 4.94 -0.96 4.94 -1.14 4.94 -1.31 4.93 -1.46 4.92 -1.61 4.89 -1.74 4.86 -1.85 4.81 -1.96 4.75 -2.05 4.7 -2.14 4.63 -2.21 4.54 -2.27 4.45 -2.32 4.35 -2.35 4.24 -2.38 4.11 -2.39 3.99 -2.4 3.84 -2.39 3.68 -2.37 3.53 -2.36 3.36 -2.31 3.16 -2.26 2.98 -2.21 2.78 -2.14 2.57 -2.08 2.35 -2 2.13 -1.93 1.9 -1.86 1.67 -7.65 -12.71 1.35 -1.21 1.53 -1.51 1.69 -1.79 1.81 -2.05 1.92 -2.3 2.01 -2.52 2.09 -2.74 2.15 -2.95 2.19 -3.13 2.23 -3.31 2.26 -3.47 2.27 -3.62 2.26 -3.76 2.25 -3.89 2.22 -4 2.18 -4.1 2.14 -4.19 2.08 -4.27 2 -4.33 1.92 -4.38 1.82 -4.43 1.72 -4.44 1.59 -4.46 1.46 -4.45 1.32 -4.44 1.17 -4.41 1.01 -4.37 0.84 -4.31 0.66 -4.23 0.47 -4.14 0.28 -4.04 0.07 -3.93 0 0zm0 -0c-0.03,-4.27 2.83,-7.68 6.4,-7.61 3.57,0.07 6.49,3.6 6.52,7.87l-12.92 -0.26zm-90.73 -115.45l9.9 10.25 -5.41 -12.86 4.57 -0.02 4.57 0.41 4.55 0.83 4.52 1.21 4.48 1.57 4.43 1.9 4.38 2.22 4.32 2.52 4.25 2.8 4.17 3.06 4.08 3.3 3.99 3.53 3.89 3.74 3.78 3.94 3.66 4.11 3.54 4.28 3.41 4.42 3.26 4.56 3.11 4.67 2.95 4.77 2.78 4.87 2.61 4.94 2.41 5 2.22 5.05 2.01 5.09 1.79 5.11 1.56 5.12 1.32 5.12 1.06 5.1 0.79 5.08 0.5 5.04 0.2 4.98 -12.92 -0.26 -0.15 -3.84 -0.4 -3.99 -0.64 -4.11 -0.88 -4.22 -1.11 -4.32 -1.34 -4.38 -1.55 -4.43 -1.76 -4.46 -1.96 -4.47 -2.15 -4.45 -2.33 -4.42 -2.5 -4.37 -2.67 -4.31 -2.81 -4.22 -2.95 -4.12 -3.07 -4 -3.2 -3.86 -3.3 -3.7 -3.39 -3.53 -3.48 -3.34 -3.54 -3.14 -3.61 -2.92 -3.65 -2.68 -3.68 -2.43 -3.7 -2.16 -3.71 -1.88 -3.71 -1.59 -3.69 -1.29 -3.66 -0.98 -3.63 -0.65 -3.57 -0.33 -3.53 0.02 -5.41 -12.86zm5.41 12.86c-3.56,0.19 -6.65,-3.12 -6.9,-7.39 -0.25,-4.27 2.43,-7.89 5.99,-8.07l0.91 15.46zm186.38 95.14l-12.69 2.53 0 0 -2.69 -14.43 -3.23 -13.31 -3.72 -12.23 -4.18 -11.2 -4.59 -10.2 -4.96 -9.24 -5.3 -8.34 -5.6 -7.48 -5.87 -6.66 -6.1 -5.88 -6.31 -5.14 -6.48 -4.44 -6.63 -3.78 -6.75 -3.14 -6.82 -2.54 -6.87 -1.96 -6.88 -1.43 -6.84 -0.91 -6.78 -0.43 -6.66 0.03 -6.52 0.45 -6.33 0.84 -6.09 1.19 -5.82 1.51 -5.49 1.79 -5.14 2.04 -4.73 2.24 -4.27 2.4 -3.77 2.51 -3.22 2.56 -2.62 2.53 -1.97 2.4 -9.9 -10.25 3.08 -3.76 3.61 -3.5 4.1 -3.26 4.57 -3.05 5.01 -2.81 5.42 -2.57 5.8 -2.3 6.14 -2.01 6.46 -1.67 6.74 -1.32 6.99 -0.92 7.2 -0.49 7.37 -0.03 7.51 0.47 7.61 1.02 7.68 1.59 7.7 2.21 7.69 2.87 7.62 3.56 7.52 4.29 7.38 5.06 7.18 5.86 6.94 6.69 6.65 7.55 6.32 8.45 5.95 9.36 5.53 10.3 5.07 11.26 4.57 12.24 4.03 13.26 3.47 14.29 2.86 15.36 0 0zm0 0c0.67,4.21 -1.62,8.2 -5.12,8.9 -3.5,0.7 -6.89,-2.15 -7.57,-6.37l12.69 -2.53zm-136.16 171.16l-2.16 -15.32 0.33 -0.06 1.2 -0.24 1.97 -0.42 2.67 -0.61 3.32 -0.82 3.91 -1.05 4.43 -1.29 4.9 -1.55 5.31 -1.81 5.66 -2.1 5.94 -2.39 6.16 -2.7 6.33 -3.03 6.42 -3.37 6.47 -3.72 6.44 -4.08 6.37 -4.45 6.23 -4.83 6.03 -5.23 5.77 -5.62 5.45 -6.04 5.08 -6.45 4.66 -6.88 4.19 -7.32 3.67 -7.78 3.09 -8.25 2.48 -8.76 1.8 -9.29 1.09 -9.86 0.3 -10.46 -0.55 -11.1 -1.46 -11.78 12.69 -2.53 1.63 13.1 0.62 12.51 -0.34 11.93 -1.24 11.34 -2.09 10.74 -2.87 10.14 -3.57 9.54 -4.21 8.94 -4.77 8.35 -5.27 7.78 -5.69 7.23 -6.05 6.7 -6.34 6.19 -6.57 5.7 -6.74 5.23 -6.84 4.79 -6.89 4.36 -6.88 3.95 -6.81 3.57 -6.68 3.2 -6.49 2.85 -6.24 2.52 -5.94 2.2 -5.57 1.9 -5.14 1.62 -4.66 1.36 -4.12 1.1 -3.52 0.87 -2.86 0.65 -2.13 0.45 -1.34 0.26 -0.54 0.1zm0 0c-3.52,0.6 -6.85,-2.34 -7.45,-6.57 -0.6,-4.23 1.77,-8.15 5.29,-8.75l2.16 15.32z"/>
   </g>
  </g>
 </g>
</svg>
