<?xml version="1.0" encoding="UTF-8"?>
<!DOCTYPE svg PUBLIC "-//W3C//DTD SVG 1.1//EN" "http://www.w3.org/Graphics/SVG/1.1/DTD/svg11.dtd">
<!-- Creator: CorelDRAW Standard 2021 (64-Bit) -->
<svg xmlns="http://www.w3.org/2000/svg" xml:space="preserve" width="16.0072mm" height="13.3383mm" version="1.1" style="shape-rendering:geometricPrecision; text-rendering:geometricPrecision; image-rendering:optimizeQuality; fill-rule:evenodd; clip-rule:evenodd"
viewBox="0 0 488.17 406.78"
 xmlns:xlink="http://www.w3.org/1999/xlink"
 xmlns:xodm="http://www.corel.com/coreldraw/odm/2003">
 <defs>
  <style type="text/css">
   <![CDATA[
    .fil0 {fill:#1A1A1A;fill-rule:nonzero}
   ]]>
  </style>
 </defs>
 <g id="Layer_x0020_1">
  <metadata id="CorelCorpID_0Corel-Layer"/>
  <g id="CHIEN">
   <g>
    <path class="fil0" d="M308.96 180.26l0 0 0.09 -2.56 0.23 -2.52 0.35 -2.47 0.47 -2.41 0.59 -2.35 0.71 -2.29 0.81 -2.22 0.92 -2.15 1.02 -2.08 1.12 -2 1.21 -1.92 1.31 -1.84 1.38 -1.76 1.47 -1.67 1.54 -1.59 1.61 -1.5 1.68 -1.41 1.74 -1.32 1.8 -1.24 1.86 -1.14 1.91 -1.05 1.96 -0.96 2.01 -0.87 2.05 -0.78 2.09 -0.67 2.13 -0.59 2.17 -0.49 2.2 -0.39 2.22 -0.29 2.24 -0.19 2.27 -0.08 2.29 0.02 -0.46 10.27 -1.96 -0.02 -1.94 0.07 -1.92 0.16 -1.89 0.24 -1.86 0.33 -1.82 0.41 -1.79 0.49 -1.75 0.57 -1.7 0.64 -1.67 0.72 -1.62 0.79 -1.56 0.86 -1.51 0.93 -1.45 0.99 -1.39 1.06 -1.33 1.12 -1.27 1.18 -1.2 1.24 -1.13 1.29 -1.06 1.34 -0.99 1.39 -0.91 1.44 -0.84 1.5 -0.77 1.55 -0.68 1.59 -0.6 1.64 -0.52 1.69 -0.43 1.73 -0.35 1.78 -0.26 1.84 -0.16 1.88 -0.07 1.94 0 0 -8.57 0.13zm0 0l8.57 -0.13c-0.03,2.83 -1.98,5.16 -4.34,5.2 -2.36,0.03 -4.26,-2.24 -4.23,-5.07zm45.71 49.65l0 0 -2.77 -0.23 -2.69 -0.33 -2.61 -0.43 -2.52 -0.53 -2.44 -0.63 -2.36 -0.73 -2.28 -0.82 -2.2 -0.92 -2.11 -1.01 -2.03 -1.1 -1.94 -1.19 -1.86 -1.28 -1.77 -1.37 -1.68 -1.46 -1.59 -1.54 -1.5 -1.63 -1.42 -1.7 -1.32 -1.78 -1.23 -1.85 -1.13 -1.92 -1.04 -1.99 -0.94 -2.05 -0.85 -2.11 -0.76 -2.17 -0.66 -2.22 -0.56 -2.26 -0.47 -2.31 -0.38 -2.35 -0.29 -2.38 -0.2 -2.42 -0.1 -2.46 -0.01 -2.48 8.57 -0.13 0.01 2.05 0.09 1.99 0.16 1.96 0.23 1.92 0.3 1.86 0.37 1.81 0.44 1.77 0.51 1.72 0.58 1.67 0.66 1.62 0.73 1.58 0.79 1.52 0.87 1.47 0.94 1.42 1.02 1.37 1.09 1.31 1.17 1.27 1.25 1.21 1.33 1.16 1.41 1.09 1.5 1.04 1.58 0.97 1.67 0.91 1.76 0.84 1.85 0.77 1.94 0.7 2.03 0.63 2.12 0.54 2.22 0.47 2.31 0.38 2.4 0.29 2.49 0.2 0 0 -0.68 10.25zm0 0l0.67 -10.25c2.36,0.15 4.12,2.56 3.94,5.39 -0.18,2.83 -2.25,5 -4.61,4.86zm58.91 -52.02l0 -0 0.03 2.74 -0.13 2.72 -0.29 2.69 -0.44 2.66 -0.59 2.61 -0.73 2.57 -0.88 2.52 -1.01 2.46 -1.14 2.4 -1.27 2.33 -1.39 2.25 -1.51 2.18 -1.63 2.1 -1.74 2.01 -1.84 1.92 -1.94 1.84 -2.04 1.74 -2.14 1.64 -2.23 1.54 -2.31 1.44 -2.41 1.33 -2.49 1.21 -2.57 1.1 -2.65 0.98 -2.72 0.86 -2.8 0.72 -2.86 0.59 -2.92 0.46 -2.98 0.32 -3.04 0.18 -3.1 0.02 -3.15 -0.12 0.68 -10.25 2.81 0.11 2.75 -0.02 2.7 -0.16 2.63 -0.28 2.56 -0.4 2.5 -0.52 2.43 -0.63 2.36 -0.74 2.29 -0.84 2.2 -0.95 2.13 -1.04 2.04 -1.13 1.96 -1.21 1.87 -1.3 1.78 -1.37 1.69 -1.44 1.59 -1.51 1.5 -1.57 1.4 -1.62 1.3 -1.67 1.19 -1.72 1.09 -1.77 0.99 -1.8 0.88 -1.84 0.77 -1.87 0.66 -1.89 0.55 -1.92 0.44 -1.94 0.33 -1.96 0.21 -1.98 0.1 -1.99 -0.02 -2.01 0 -0 8.56 -0.77zm0 -0l-8.56 0.77c-0.11,-2.83 1.71,-5.29 4.07,-5.51 2.36,-0.21 4.38,1.91 4.49,4.73zm-57.18 -42.43l0 0 2.79 0.12 2.75 0.18 2.71 0.24 2.67 0.3 2.63 0.37 2.59 0.43 2.54 0.5 2.49 0.57 2.43 0.64 2.38 0.71 2.32 0.79 2.26 0.86 2.2 0.94 2.13 1.02 2.06 1.11 1.99 1.2 1.91 1.28 1.84 1.38 1.75 1.48 1.66 1.57 1.57 1.67 1.48 1.78 1.37 1.88 1.26 1.99 1.14 2.09 1.02 2.2 0.88 2.29 0.76 2.39 0.62 2.49 0.48 2.58 0.33 2.66 0.19 2.74 -8.56 0.77 -0.14 -2.08 -0.25 -1.98 -0.34 -1.88 -0.45 -1.79 -0.54 -1.71 -0.63 -1.64 -0.73 -1.57 -0.82 -1.51 -0.91 -1.45 -1.01 -1.38 -1.1 -1.33 -1.2 -1.28 -1.29 -1.22 -1.38 -1.16 -1.48 -1.11 -1.57 -1.05 -1.66 -0.99 -1.74 -0.94 -1.83 -0.88 -1.91 -0.82 -1.99 -0.76 -2.06 -0.7 -2.13 -0.64 -2.2 -0.58 -2.27 -0.52 -2.33 -0.45 -2.39 -0.4 -2.45 -0.34 -2.49 -0.28 -2.55 -0.22 -2.59 -0.17 -2.63 -0.11 0 0 0.46 -10.27zm0 0l-0.46 10.27c-2.36,-0.07 -4.18,-2.44 -4.05,-5.27 0.13,-2.83 2.15,-5.07 4.51,-5z"/>
   </g>
   <g>
    <path class="fil0" d="M338.41 173.09l-0 -0.01 -0.55 -1.26 -0.46 -1.3 -0.35 -1.33 -0.25 -1.34 -0.13 -1.36 -0.02 -1.36 0.1 -1.37 0.22 -1.34 0.33 -1.29 0.44 -1.25 0.54 -1.17 0.62 -1.1 0.7 -1.02 0.75 -0.95 0.82 -0.88 0.88 -0.81 0.91 -0.74 0.96 -0.68 1.01 -0.62 1.04 -0.56 1.08 -0.51 1.12 -0.45 1.15 -0.39 1.18 -0.34 1.22 -0.29 1.26 -0.24 1.28 -0.18 1.31 -0.13 1.34 -0.07 1.36 -0.02 1.39 0.04 1.41 0.09 -0.83 10.24 -1.14 -0.07 -1.11 -0.03 -1.08 0.02 -1.04 0.05 -1 0.1 -0.97 0.14 -0.91 0.17 -0.88 0.21 -0.84 0.24 -0.79 0.27 -0.73 0.29 -0.68 0.32 -0.62 0.33 -0.56 0.35 -0.51 0.36 -0.45 0.37 -0.38 0.35 -0.32 0.35 -0.28 0.35 -0.21 0.32 -0.17 0.3 -0.13 0.28 -0.09 0.26 -0.07 0.26 -0.04 0.25 -0.02 0.27 0 0.32 0.04 0.35 0.07 0.41 0.12 0.45 0.18 0.51 0.25 0.58 -0 -0.01 -7.47 5.28zm-0 -0.01l7.47 -5.27c1.16,2.43 0.43,5.58 -1.63,7.04 -2.06,1.45 -4.68,0.66 -5.84,-1.77zm43.38 4.82l0 -0.01 -0.99 1.33 -1.09 1.1 -1.17 0.92 -1.23 0.76 -1.27 0.63 -1.32 0.52 -1.36 0.43 -1.4 0.36 -1.45 0.28 -1.48 0.21 -1.51 0.15 -1.54 0.09 -1.56 0.02 -1.58 -0.03 -1.59 -0.09 -1.59 -0.15 -1.59 -0.2 -1.59 -0.26 -1.57 -0.31 -1.55 -0.38 -1.52 -0.43 -1.5 -0.49 -1.46 -0.55 -1.41 -0.61 -1.37 -0.68 -1.31 -0.75 -1.26 -0.83 -1.19 -0.92 -1.13 -1.02 -1.04 -1.15 -0.94 -1.29 -0.81 -1.45 7.47 -5.28 0.19 0.34 0.31 0.42 0.43 0.48 0.56 0.51 0.68 0.52 0.79 0.52 0.89 0.51 0.99 0.49 1.07 0.46 1.14 0.43 1.19 0.39 1.25 0.35 1.28 0.31 1.32 0.27 1.33 0.22 1.34 0.17 1.35 0.13 1.33 0.08 1.31 0.03 1.29 -0.02 1.25 -0.07 1.2 -0.12 1.14 -0.16 1.06 -0.21 0.99 -0.25 0.88 -0.28 0.77 -0.3 0.65 -0.32 0.5 -0.3 0.35 -0.27 0.21 -0.2 0.07 -0.09 0 -0.01 6.77 6.08zm0 -0.01l-6.78 -6.07c1.45,-2.29 4.14,-2.78 6.01,-1.11 1.87,1.67 2.21,4.89 0.77,7.18zm-20.73 -29.04l0 0 1.27 0.15 1.26 0.22 1.24 0.28 1.24 0.35 1.21 0.41 1.19 0.47 1.16 0.52 1.13 0.57 1.11 0.62 1.08 0.67 1.04 0.71 1.02 0.76 0.98 0.8 0.93 0.84 0.89 0.87 0.86 0.92 0.81 0.96 0.76 0.99 0.7 1.02 0.65 1.07 0.59 1.13 0.52 1.16 0.45 1.22 0.35 1.28 0.26 1.31 0.15 1.38 0.02 1.43 -0.12 1.43 -0.27 1.45 -0.43 1.41 -0.57 1.35 -0.72 1.27 -6.77 -6.08 0.14 -0.24 0.09 -0.21 0.05 -0.18 0.03 -0.17 0.02 -0.22 -0 -0.24 -0.03 -0.29 -0.07 -0.38 -0.12 -0.41 -0.17 -0.47 -0.23 -0.52 -0.28 -0.54 -0.35 -0.57 -0.41 -0.6 -0.46 -0.6 -0.51 -0.6 -0.56 -0.6 -0.61 -0.6 -0.66 -0.59 -0.69 -0.56 -0.73 -0.54 -0.77 -0.52 -0.78 -0.48 -0.81 -0.45 -0.84 -0.42 -0.85 -0.38 -0.86 -0.34 -0.86 -0.29 -0.87 -0.25 -0.88 -0.2 -0.87 -0.15 -0.86 -0.1 0 0 0.83 -10.24zm0 0l-0.83 10.24c-2.35,-0.2 -4.08,-2.66 -3.85,-5.48 0.23,-2.83 2.33,-4.96 4.68,-4.76z"/>
   </g>
   <g>
    <path class="fil0" d="M325.39 124.33l5.19 -8.33c1.88,1.66 2.24,4.87 0.81,7.17 -1.43,2.3 -4.12,2.82 -6,1.16zm-22.11 13.72l-0.3 -2.27 -0.15 -2.19 0 -2.11 0.16 -2.03 0.31 -1.94 0.46 -1.84 0.61 -1.73 0.74 -1.62 0.87 -1.47 0.96 -1.32 1.05 -1.18 1.11 -1.03 1.15 -0.88 1.18 -0.75 1.2 -0.63 1.22 -0.52 1.22 -0.42 1.21 -0.33 1.2 -0.24 1.19 -0.18 1.18 -0.1 1.14 -0.04 1.12 0.02 1.09 0.08 1.05 0.13 1.01 0.18 0.97 0.23 0.92 0.27 0.89 0.33 0.85 0.4 0.84 0.49 0.84 0.64 -5.19 8.33 0.06 0.05 -0.13 -0.07 -0.28 -0.13 -0.39 -0.14 -0.49 -0.15 -0.56 -0.13 -0.63 -0.11 -0.69 -0.09 -0.72 -0.05 -0.75 -0.02 -0.77 0.02 -0.77 0.07 -0.77 0.11 -0.77 0.16 -0.74 0.2 -0.71 0.24 -0.67 0.29 -0.62 0.33 -0.58 0.36 -0.52 0.4 -0.46 0.42 -0.41 0.46 -0.36 0.49 -0.32 0.54 -0.28 0.6 -0.24 0.7 -0.2 0.8 -0.15 0.92 -0.08 1.06 -0 1.22 0.09 1.38 0.21 1.56 -8.42 2.21zm0 0l8.42 -2.21c0.45,2.77 -1.07,5.51 -3.4,6.12 -2.32,0.61 -4.57,-1.14 -5.02,-3.91z"/>
   </g>
   <g>
    <path class="fil0" d="M375.47 119.33l6.61 6.34c-1.51,2.23 -4.21,2.62 -6.04,0.87 -1.82,-1.75 -2.08,-4.98 -0.57,-7.21zm21.43 14.4l0.05 -1.63 -0.03 -1.49 -0.1 -1.36 -0.16 -1.21 -0.22 -1.08 -0.27 -0.96 -0.3 -0.84 -0.34 -0.73 -0.37 -0.64 -0.39 -0.56 -0.41 -0.48 -0.43 -0.41 -0.46 -0.36 -0.48 -0.3 -0.51 -0.25 -0.55 -0.2 -0.57 -0.15 -0.6 -0.09 -0.62 -0.04 -0.65 0.02 -0.65 0.08 -0.67 0.14 -0.68 0.2 -0.67 0.26 -0.66 0.32 -0.66 0.38 -0.64 0.43 -0.62 0.48 -0.59 0.53 -0.56 0.58 -0.52 0.63 -0.49 0.68 -6.61 -6.34 0.91 -1.24 0.97 -1.16 1.02 -1.06 1.07 -0.97 1.11 -0.87 1.15 -0.77 1.18 -0.68 1.22 -0.59 1.25 -0.48 1.25 -0.37 1.27 -0.27 1.29 -0.16 1.29 -0.04 1.3 0.07 1.29 0.2 1.27 0.33 1.24 0.46 1.23 0.6 1.18 0.75 1.13 0.88 1.07 1.03 0.99 1.17 0.9 1.3 0.81 1.43 0.71 1.55 0.6 1.67 0.49 1.76 0.38 1.87 0.27 1.96 0.15 2.06 0.04 2.15 -0.07 2.25 -8.55 -0.43zm0 0l8.55 0.43c-0.16,2.83 -2.21,5.03 -4.57,4.91 -2.36,-0.12 -4.14,-2.52 -3.98,-5.35z"/>
   </g>
   <g>
    <path class="fil0" d="M357.4 64.32l0.01 0 1.43 0.17 1.42 0.19 1.42 0.21 1.42 0.23 1.41 0.25 1.4 0.27 1.39 0.29 1.38 0.3 1.38 0.33 1.37 0.34 1.36 0.37 1.35 0.38 1.35 0.4 1.34 0.42 1.32 0.44 1.33 0.46 1.31 0.48 1.3 0.49 1.29 0.52 1.28 0.53 1.27 0.55 1.26 0.56 1.25 0.59 1.24 0.6 1.23 0.62 1.22 0.64 1.21 0.65 1.2 0.67 1.19 0.69 1.17 0.7 1.17 0.72 1.15 0.74 -4.25 9.05 -1.05 -0.68 -1.06 -0.66 -1.08 -0.65 -1.09 -0.63 -1.1 -0.62 -1.11 -0.6 -1.12 -0.59 -1.13 -0.56 -1.14 -0.55 -1.15 -0.54 -1.16 -0.52 -1.17 -0.51 -1.18 -0.49 -1.19 -0.47 -1.2 -0.45 -1.21 -0.44 -1.21 -0.42 -1.23 -0.41 -1.24 -0.39 -1.24 -0.37 -1.25 -0.35 -1.26 -0.34 -1.27 -0.32 -1.27 -0.3 -1.29 -0.29 -1.29 -0.27 -1.3 -0.25 -1.3 -0.23 -1.31 -0.21 -1.32 -0.2 -1.33 -0.18 -1.33 -0.16 0.01 0 1 -10.22zm0.01 0l-1.02 10.22c-2.35,-0.26 -4.03,-2.76 -3.75,-5.58 0.28,-2.82 2.42,-4.9 4.77,-4.64zm-51 13.16l0.01 -0.01 1.84 -0.97 1.84 -0.93 1.85 -0.89 1.84 -0.85 1.84 -0.81 1.84 -0.77 1.83 -0.73 1.82 -0.7 1.81 -0.66 1.8 -0.62 1.78 -0.59 1.77 -0.55 1.74 -0.52 1.73 -0.48 1.71 -0.45 1.68 -0.41 1.65 -0.38 1.63 -0.35 1.6 -0.31 1.57 -0.28 1.53 -0.25 1.5 -0.22 1.46 -0.18 1.43 -0.16 1.39 -0.12 1.34 -0.09 1.31 -0.06 1.26 -0.02 1.21 0 1.17 0.03 1.13 0.06 1.08 0.1 -1 10.22 -0.84 -0.08 -0.9 -0.05 -0.97 -0.03 -1.04 -0 -1.09 0.02 -1.14 0.05 -1.2 0.08 -1.24 0.11 -1.29 0.14 -1.34 0.17 -1.37 0.2 -1.42 0.23 -1.45 0.26 -1.48 0.29 -1.51 0.32 -1.54 0.35 -1.57 0.38 -1.59 0.42 -1.61 0.45 -1.64 0.48 -1.65 0.52 -1.67 0.55 -1.69 0.59 -1.7 0.62 -1.7 0.65 -1.71 0.69 -1.72 0.72 -1.71 0.76 -1.73 0.8 -1.72 0.83 -1.71 0.87 -1.71 0.9 0.01 -0.01 -3.35 -9.34zm0.01 -0.01l3.34 9.35c-2.18,1.17 -4.7,0.03 -5.62,-2.55 -0.92,-2.58 0.1,-5.63 2.28,-6.8zm-14.7 9.54l-0.02 0.01 0.44 -0.34 0.45 -0.35 0.45 -0.34 0.44 -0.33 0.46 -0.34 0.44 -0.32 0.45 -0.33 0.47 -0.34 0.45 -0.31 0.45 -0.32 0.46 -0.31 0.45 -0.31 0.46 -0.31 0.46 -0.3 0.46 -0.3 0.47 -0.3 0.45 -0.29 0.46 -0.3 0.46 -0.29 0.46 -0.29 0.46 -0.28 0.47 -0.28 0.46 -0.28 0.47 -0.28 0.46 -0.27 0.47 -0.27 0.47 -0.27 0.46 -0.26 0.47 -0.27 0.47 -0.26 0.47 -0.26 0.47 -0.25 3.35 9.34 -0.43 0.23 -0.43 0.24 -0.44 0.24 -0.43 0.24 -0.44 0.25 -0.43 0.24 -0.43 0.25 -0.43 0.25 -0.43 0.25 -0.43 0.26 -0.43 0.26 -0.43 0.27 -0.43 0.27 -0.42 0.26 -0.43 0.27 -0.43 0.28 -0.42 0.27 -0.41 0.27 -0.43 0.28 -0.41 0.28 -0.42 0.29 -0.41 0.28 -0.42 0.29 -0.42 0.3 -0.4 0.28 -0.41 0.3 -0.43 0.31 -0.4 0.3 -0.41 0.31 -0.41 0.3 -0.39 0.3 -0.41 0.32 -0.02 0.01 -4.51 -8.58zm-0.02 0.01l4.54 8.56c-2.01,1.56 -4.65,0.92 -5.91,-1.44 -1.25,-2.36 -0.64,-5.55 1.36,-7.11zm-31.52 56.65l0 -0 0.23 -2.38 0.29 -2.34 0.36 -2.3 0.41 -2.26 0.48 -2.22 0.54 -2.19 0.59 -2.14 0.65 -2.1 0.7 -2.07 0.76 -2.03 0.81 -1.99 0.85 -1.95 0.9 -1.91 0.95 -1.86 0.99 -1.83 1.04 -1.79 1.08 -1.74 1.11 -1.7 1.15 -1.67 1.19 -1.63 1.22 -1.59 1.25 -1.55 1.29 -1.51 1.31 -1.47 1.34 -1.43 1.37 -1.4 1.39 -1.36 1.42 -1.32 1.44 -1.29 1.46 -1.25 1.48 -1.22 1.5 -1.18 4.51 8.58 -1.36 1.07 -1.33 1.1 -1.32 1.13 -1.29 1.16 -1.27 1.18 -1.24 1.21 -1.22 1.24 -1.19 1.27 -1.16 1.3 -1.13 1.33 -1.1 1.35 -1.06 1.38 -1.03 1.41 -1 1.45 -0.96 1.47 -0.92 1.5 -0.88 1.52 -0.84 1.56 -0.81 1.59 -0.76 1.61 -0.73 1.65 -0.68 1.68 -0.64 1.71 -0.59 1.74 -0.55 1.78 -0.5 1.81 -0.45 1.84 -0.4 1.88 -0.35 1.92 -0.3 1.95 -0.25 1.98 -0.19 2.03 0 -0 -8.53 -0.73zm0 -0l8.53 0.73c-0.23,2.83 -2.33,4.96 -4.68,4.75 -2.35,-0.2 -4.08,-2.66 -3.85,-5.49zm80.31 103.61l-0 0 -4.68 -0.45 -4.58 -0.64 -4.48 -0.84 -4.38 -1.05 -4.27 -1.24 -4.16 -1.43 -4.04 -1.63 -3.92 -1.81 -3.8 -2 -3.67 -2.19 -3.53 -2.38 -3.39 -2.56 -3.25 -2.74 -3.1 -2.92 -2.95 -3.1 -2.79 -3.28 -2.63 -3.44 -2.46 -3.61 -2.28 -3.78 -2.11 -3.94 -1.93 -4.1 -1.74 -4.26 -1.55 -4.41 -1.35 -4.55 -1.15 -4.7 -0.94 -4.84 -0.74 -4.97 -0.53 -5.1 -0.31 -5.24 -0.09 -5.35 0.13 -5.48 0.35 -5.59 8.53 0.73 -0.32 5.12 -0.11 4.99 0.08 4.85 0.28 4.71 0.47 4.58 0.66 4.44 0.84 4.3 1.02 4.16 1.19 4.02 1.36 3.89 1.53 3.75 1.69 3.61 1.85 3.46 2.01 3.32 2.16 3.18 2.32 3.03 2.47 2.89 2.61 2.74 2.76 2.6 2.9 2.44 3.04 2.29 3.17 2.13 3.31 1.97 3.44 1.81 3.57 1.65 3.69 1.48 3.81 1.31 3.93 1.14 4.04 0.96 4.15 0.78 4.26 0.6 4.36 0.42 -0 0 -0.74 10.25zm-0 0l0.75 -10.25c2.36,0.17 4.1,2.61 3.89,5.44 -0.2,2.83 -2.29,4.98 -4.64,4.81zm27.69 -1.33l0.01 -0 -0.81 0.15 -0.81 0.14 -0.82 0.13 -0.82 0.12 -0.82 0.12 -0.83 0.11 -0.83 0.11 -0.84 0.1 -0.83 0.09 -0.84 0.09 -0.86 0.08 -0.84 0.07 -0.84 0.06 -0.86 0.06 -0.86 0.05 -0.86 0.05 -0.87 0.04 -0.87 0.03 -0.87 0.02 -0.88 0.02 -0.88 0.01 -0.88 0.01 -0.9 -0 -0.89 -0.01 -0.9 -0.02 -0.9 -0.02 -0.91 -0.03 -0.91 -0.04 -0.9 -0.04 -0.92 -0.05 -0.92 -0.06 -0.92 -0.06 0.74 -10.25 0.88 0.06 0.86 0.06 0.86 0.04 0.87 0.04 0.85 0.03 0.85 0.03 0.85 0.02 0.85 0.02 0.84 0.01 0.83 0 0.83 -0.01 0.83 -0.01 0.82 -0.02 0.82 -0.02 0.82 -0.03 0.81 -0.04 0.81 -0.04 0.8 -0.05 0.79 -0.05 0.8 -0.06 0.79 -0.06 0.78 -0.07 0.78 -0.08 0.78 -0.09 0.77 -0.09 0.77 -0.1 0.77 -0.1 0.76 -0.11 0.76 -0.12 0.74 -0.12 0.75 -0.13 0.74 -0.13 0.01 -0 1.07 10.15zm0.01 -0l-1.09 -10.14c2.35,-0.43 4.5,1.49 4.8,4.28 0.3,2.8 -1.36,5.43 -3.71,5.86zm70.79 -83.43l0 0 -0.47 3.98 -0.59 3.92 -0.71 3.86 -0.83 3.8 -0.94 3.74 -1.07 3.66 -1.18 3.59 -1.3 3.52 -1.41 3.44 -1.53 3.35 -1.64 3.27 -1.76 3.18 -1.87 3.08 -1.98 2.99 -2.1 2.89 -2.2 2.79 -2.31 2.69 -2.42 2.57 -2.53 2.46 -2.63 2.35 -2.74 2.23 -2.84 2.11 -2.94 1.99 -3.04 1.86 -3.14 1.74 -3.24 1.6 -3.33 1.47 -3.43 1.34 -3.52 1.2 -3.62 1.06 -3.71 0.91 -3.8 0.77 -1.07 -10.15 3.5 -0.71 3.4 -0.84 3.31 -0.97 3.21 -1.09 3.11 -1.21 3.01 -1.33 2.92 -1.44 2.82 -1.56 2.72 -1.67 2.62 -1.77 2.53 -1.88 2.42 -1.98 2.32 -2.08 2.23 -2.18 2.13 -2.27 2.03 -2.36 1.94 -2.46 1.84 -2.54 1.74 -2.63 1.65 -2.72 1.55 -2.8 1.45 -2.89 1.35 -2.96 1.25 -3.04 1.15 -3.12 1.05 -3.2 0.95 -3.26 0.84 -3.33 0.74 -3.41 0.64 -3.47 0.53 -3.53 0.43 -3.6 0 0 8.51 0.99zm0 0l-8.51 -0.99c0.29,-2.82 2.43,-4.89 4.78,-4.62 2.35,0.27 4.02,2.78 3.73,5.61zm-24.38 -70.92l0.01 0 1.6 1.67 1.56 1.71 1.51 1.75 1.46 1.79 1.42 1.83 1.37 1.87 1.32 1.91 1.27 1.95 1.22 1.99 1.17 2.03 1.12 2.06 1.06 2.1 1.01 2.13 0.95 2.17 0.9 2.2 0.84 2.24 0.77 2.26 0.72 2.3 0.65 2.33 0.59 2.36 0.53 2.39 0.46 2.41 0.4 2.44 0.33 2.47 0.27 2.49 0.2 2.52 0.12 2.54 0.05 2.56 -0.02 2.58 -0.09 2.6 -0.16 2.62 -0.23 2.64 -8.51 -0.99 0.2 -2.31 0.14 -2.28 0.08 -2.26 0.02 -2.24 -0.05 -2.22 -0.11 -2.2 -0.17 -2.17 -0.23 -2.16 -0.29 -2.13 -0.34 -2.11 -0.4 -2.1 -0.45 -2.06 -0.52 -2.04 -0.57 -2.02 -0.62 -1.99 -0.68 -1.97 -0.73 -1.95 -0.78 -1.92 -0.83 -1.9 -0.88 -1.87 -0.94 -1.84 -0.98 -1.81 -1.03 -1.78 -1.08 -1.75 -1.13 -1.73 -1.17 -1.69 -1.22 -1.67 -1.26 -1.63 -1.31 -1.6 -1.35 -1.57 -1.4 -1.53 -1.44 -1.5 0.01 0 5.64 -7.91zm0.01 0l-5.65 7.9c-1.78,-1.81 -1.96,-5.05 -0.4,-7.23 1.56,-2.18 4.27,-2.49 6.05,-0.68zm-15.38 -12.49l-0.04 -0.02 0.53 0.34 0.53 0.34 0.52 0.34 0.52 0.35 0.52 0.35 0.51 0.35 0.51 0.36 0.51 0.37 0.51 0.37 0.5 0.37 0.49 0.37 0.5 0.38 0.49 0.38 0.48 0.38 0.49 0.39 0.48 0.39 0.48 0.39 0.48 0.4 0.47 0.4 0.48 0.4 0.47 0.41 0.46 0.41 0.47 0.41 0.46 0.42 0.45 0.41 0.46 0.42 0.46 0.43 0.45 0.42 0.45 0.43 0.45 0.44 0.44 0.43 0.43 0.44 -5.64 7.91 -0.4 -0.4 -0.4 -0.4 -0.4 -0.39 -0.4 -0.39 -0.41 -0.39 -0.4 -0.38 -0.41 -0.38 -0.42 -0.39 -0.41 -0.38 -0.42 -0.37 -0.42 -0.38 -0.42 -0.36 -0.43 -0.37 -0.43 -0.37 -0.43 -0.36 -0.43 -0.36 -0.44 -0.35 -0.44 -0.35 -0.45 -0.35 -0.45 -0.34 -0.44 -0.34 -0.46 -0.34 -0.45 -0.34 -0.45 -0.33 -0.46 -0.33 -0.46 -0.32 -0.47 -0.32 -0.47 -0.32 -0.47 -0.32 -0.48 -0.31 -0.47 -0.31 -0.48 -0.3 -0.04 -0.02 4.25 -9.05zm-0.04 -0.02l-4.17 9.1c-2.07,-1.31 -2.81,-4.42 -1.66,-6.93 1.15,-2.51 3.76,-3.48 5.83,-2.17z"/>
   </g>
   <g>
    <path class="fil0" d="M303.82 81.76l8.52 0.84c-0.26,2.82 -2.38,4.93 -4.73,4.7 -2.35,-0.23 -4.05,-2.71 -3.79,-5.54zm0 -0.03l8.52 -0.23 -0 1.07 -0 0.03 -8.52 -0.84 0 -0.03zm8.52 0.84l-8.52 -0.84c0.26,-2.82 2.38,-4.93 4.73,-4.7 2.35,0.23 4.05,2.71 3.79,5.54zm-40.52 -40.51l0 0 1.46 0.13 1.49 0.17 1.52 0.23 1.54 0.27 1.56 0.33 1.57 0.38 1.59 0.44 1.59 0.5 1.59 0.56 1.6 0.63 1.59 0.7 1.58 0.77 1.57 0.84 1.55 0.91 1.53 1 1.5 1.08 1.47 1.17 1.43 1.26 1.39 1.35 1.34 1.45 1.29 1.54 1.22 1.65 1.16 1.74 1.09 1.85 1 1.95 0.92 2.06 0.82 2.16 0.73 2.26 0.63 2.36 0.52 2.47 0.41 2.56 0.29 2.66 -8.53 1.31 -0.23 -2.09 -0.31 -1.98 -0.39 -1.88 -0.47 -1.78 -0.54 -1.7 -0.61 -1.6 -0.67 -1.52 -0.74 -1.44 -0.8 -1.37 -0.86 -1.3 -0.91 -1.23 -0.97 -1.16 -1.02 -1.1 -1.06 -1.04 -1.11 -0.97 -1.16 -0.92 -1.19 -0.86 -1.23 -0.8 -1.26 -0.74 -1.29 -0.69 -1.31 -0.63 -1.32 -0.58 -1.34 -0.52 -1.35 -0.47 -1.36 -0.43 -1.35 -0.37 -1.35 -0.33 -1.34 -0.28 -1.33 -0.23 -1.31 -0.2 -1.29 -0.15 -1.26 -0.11 0 0 0.76 -10.25zm0 0l-0.76 10.25c-2.36,-0.17 -4.1,-2.62 -3.89,-5.44 0.21,-2.83 2.29,-4.98 4.65,-4.8zm-38.33 64.32l-6.92 -4.26 0.33 -3.9 0.42 -3.76 0.51 -3.63 0.58 -3.49 0.67 -3.37 0.75 -3.24 0.83 -3.1 0.91 -2.98 0.99 -2.85 1.07 -2.72 1.14 -2.59 1.21 -2.47 1.29 -2.34 1.36 -2.21 1.43 -2.08 1.5 -1.95 1.56 -1.81 1.62 -1.69 1.68 -1.55 1.73 -1.42 1.79 -1.29 1.84 -1.15 1.87 -1.02 1.91 -0.89 1.95 -0.75 1.98 -0.63 2.01 -0.5 2.03 -0.38 2.05 -0.25 2.06 -0.13 2.08 -0.02 2.1 0.1 -0.76 10.25 -1.71 -0.08 -1.68 0.02 -1.65 0.1 -1.62 0.2 -1.59 0.29 -1.56 0.39 -1.52 0.48 -1.49 0.58 -1.45 0.67 -1.42 0.77 -1.38 0.86 -1.34 0.97 -1.31 1.07 -1.28 1.18 -1.24 1.28 -1.2 1.4 -1.16 1.52 -1.13 1.63 -1.08 1.76 -1.04 1.88 -0.99 2.01 -0.95 2.16 -0.9 2.28 -0.84 2.42 -0.79 2.56 -0.72 2.71 -0.66 2.85 -0.59 2.99 -0.53 3.15 -0.46 3.29 -0.38 3.44 -0.31 3.6 -6.92 -4.26 5.29 7.9zm-6.92 -4.26l8.54 0.62c-0.2,2.83 -2.28,4.98 -4.64,4.81 -2.36,-0.17 -4.1,-2.61 -3.9,-5.43zm43.39 -16.63l0 0 -0.64 -0.03 -0.67 0 -0.73 0.03 -0.76 0.07 -0.79 0.1 -0.82 0.15 -0.87 0.19 -0.9 0.23 -0.93 0.27 -0.97 0.31 -1.01 0.36 -1.03 0.4 -1.06 0.45 -1.09 0.49 -1.12 0.54 -1.15 0.59 -1.18 0.64 -1.21 0.69 -1.23 0.74 -1.27 0.8 -1.29 0.85 -1.31 0.9 -1.33 0.95 -1.37 1.01 -1.39 1.07 -1.41 1.12 -1.43 1.18 -1.46 1.24 -1.48 1.3 -1.5 1.35 -1.52 1.42 -1.54 1.48 -5.29 -7.9 1.64 -1.57 1.62 -1.51 1.6 -1.45 1.59 -1.39 1.56 -1.33 1.55 -1.27 1.53 -1.22 1.51 -1.16 1.48 -1.1 1.47 -1.05 1.45 -0.99 1.42 -0.94 1.41 -0.89 1.39 -0.84 1.37 -0.78 1.34 -0.73 1.32 -0.68 1.31 -0.63 1.28 -0.58 1.26 -0.53 1.24 -0.48 1.21 -0.43 1.19 -0.38 1.18 -0.34 1.15 -0.29 1.12 -0.24 1.11 -0.2 1.09 -0.15 1.06 -0.09 1.04 -0.05 1.02 -0 1 0.05 0 0 -0.74 10.25zm0 0l0.74 -10.25c2.36,0.17 4.1,2.61 3.9,5.43 -0.2,2.83 -2.28,4.98 -4.64,4.81zm20.48 8.85l-0.34 -0.55 -0.37 -0.53 -0.38 -0.5 -0.41 -0.48 -0.44 -0.47 -0.46 -0.45 -0.49 -0.43 -0.52 -0.41 -0.53 -0.4 -0.56 -0.37 -0.59 -0.36 -0.61 -0.35 -0.62 -0.32 -0.65 -0.31 -0.67 -0.29 -0.68 -0.27 -0.7 -0.26 -0.71 -0.24 -0.72 -0.22 -0.74 -0.21 -0.75 -0.19 -0.76 -0.17 -0.77 -0.16 -0.77 -0.15 -0.77 -0.13 -0.79 -0.13 -0.77 -0.11 -0.78 -0.1 -0.79 -0.09 -0.78 -0.08 -0.78 -0.07 -0.77 -0.06 0.74 -10.25 0.84 0.07 0.85 0.07 0.86 0.09 0.87 0.1 0.89 0.11 0.89 0.13 0.88 0.14 0.9 0.16 0.91 0.17 0.9 0.19 0.91 0.21 0.9 0.23 0.9 0.25 0.91 0.28 0.9 0.3 0.9 0.33 0.89 0.36 0.88 0.38 0.88 0.42 0.87 0.45 0.85 0.48 0.85 0.52 0.84 0.57 0.81 0.6 0.79 0.64 0.78 0.69 0.76 0.73 0.73 0.77 0.71 0.83 0.68 0.88 0.64 0.91 0.61 0.97 -7.04 6.08zm0 0l7.04 -6.08c1.35,2.28 0.86,5.5 -1.08,7.18 -1.94,1.68 -4.62,1.18 -5.97,-1.1z"/>
   </g>
   <g>
    <path class="fil0" d="M392.99 82.33l8.23 2.62c-0.66,2.74 -3.04,4.38 -5.32,3.66 -2.27,-0.72 -3.57,-3.53 -2.91,-6.27zm37.47 -22.06l0 -0 -1.55 0.22 -1.52 0.25 -1.47 0.3 -1.42 0.33 -1.38 0.38 -1.33 0.41 -1.29 0.45 -1.25 0.49 -1.2 0.52 -1.16 0.56 -1.12 0.59 -1.07 0.62 -1.03 0.66 -0.99 0.7 -0.95 0.72 -0.91 0.75 -0.87 0.79 -0.83 0.82 -0.79 0.85 -0.76 0.89 -0.72 0.91 -0.68 0.95 -0.65 0.99 -0.61 1.02 -0.58 1.06 -0.55 1.09 -0.51 1.12 -0.48 1.17 -0.45 1.21 -0.41 1.24 -0.38 1.29 -0.34 1.33 -8.23 -2.62 0.44 -1.7 0.49 -1.67 0.54 -1.63 0.59 -1.59 0.64 -1.55 0.69 -1.52 0.74 -1.48 0.79 -1.43 0.83 -1.38 0.89 -1.34 0.93 -1.3 0.99 -1.25 1.02 -1.2 1.07 -1.16 1.12 -1.1 1.16 -1.05 1.2 -1 1.24 -0.95 1.28 -0.9 1.33 -0.85 1.37 -0.8 1.4 -0.74 1.44 -0.7 1.48 -0.64 1.52 -0.59 1.55 -0.54 1.59 -0.49 1.63 -0.44 1.66 -0.39 1.7 -0.34 1.74 -0.3 1.77 -0.24 0 -0 0.65 10.22zm0 -0l-0.65 -10.21c2.36,-0.29 4.42,1.76 4.6,4.58 0.18,2.82 -1.59,5.34 -3.95,5.63zm44.57 31.49l-0 -0 -0.88 -2.27 -0.95 -2.17 -1.01 -2.07 -1.06 -1.98 -1.12 -1.89 -1.18 -1.81 -1.22 -1.72 -1.27 -1.63 -1.31 -1.55 -1.35 -1.46 -1.38 -1.38 -1.42 -1.3 -1.45 -1.22 -1.48 -1.14 -1.51 -1.06 -1.52 -0.98 -1.55 -0.91 -1.56 -0.83 -1.57 -0.75 -1.58 -0.68 -1.58 -0.61 -1.58 -0.53 -1.58 -0.46 -1.58 -0.39 -1.56 -0.32 -1.55 -0.25 -1.53 -0.18 -1.51 -0.12 -1.48 -0.05 -1.45 0.02 -1.42 0.08 -1.38 0.14 -0.65 -10.22 1.71 -0.17 1.74 -0.09 1.77 -0.02 1.79 0.06 1.81 0.14 1.83 0.22 1.85 0.3 1.85 0.38 1.86 0.46 1.86 0.55 1.87 0.63 1.87 0.72 1.86 0.8 1.85 0.89 1.84 0.98 1.83 1.07 1.81 1.16 1.78 1.25 1.76 1.35 1.72 1.45 1.69 1.54 1.65 1.65 1.61 1.74 1.56 1.84 1.52 1.95 1.45 2.05 1.4 2.15 1.34 2.26 1.27 2.36 1.2 2.46 1.12 2.57 1.04 2.67 -0 -0 -7.86 4.34zm-0 -0l7.87 -4.33c0.94,2.57 -0.06,5.62 -2.23,6.82 -2.17,1.2 -4.7,0.08 -5.64,-2.49zm11.85 36.26l-7.65 2.72 -0 0.01 0.02 -0.2 0.02 -0.27 0.03 -0.37 0.04 -0.51 0.04 -0.62 0.04 -0.72 0.04 -0.81 0.04 -0.9 0.03 -0.99 0.03 -1.08 0.02 -1.14 0 -1.23 0 -1.29 -0.02 -1.34 -0.04 -1.41 -0.06 -1.46 -0.08 -1.51 -0.1 -1.55 -0.13 -1.59 -0.15 -1.61 -0.18 -1.64 -0.21 -1.67 -0.25 -1.68 -0.28 -1.69 -0.32 -1.69 -0.35 -1.7 -0.39 -1.69 -0.44 -1.68 -0.48 -1.67 -0.52 -1.65 -0.56 -1.63 7.86 -4.34 0.68 1.94 0.62 1.95 0.56 1.96 0.51 1.96 0.45 1.96 0.41 1.95 0.36 1.94 0.32 1.92 0.28 1.9 0.24 1.87 0.21 1.84 0.17 1.8 0.14 1.76 0.11 1.72 0.09 1.67 0.06 1.61 0.04 1.56 0.02 1.5 0.01 1.42 -0.01 1.35 -0.02 1.28 -0.03 1.19 -0.04 1.1 -0.05 1.01 -0.05 0.91 -0.05 0.81 -0.05 0.7 -0.04 0.59 -0.04 0.51 -0.04 0.36 -0.02 0.18 -0.02 0.14 -7.65 2.72 6.8 -6.47zm-7.65 2.72l8.5 1.03c-0.3,2.82 -2.45,4.88 -4.79,4.59 -2.35,-0.28 -4.01,-2.8 -3.71,-5.62zm-38.39 -43.78l-0.01 -0 2.26 0.64 2.24 0.81 2.2 0.97 2.17 1.1 2.14 1.22 2.11 1.33 2.07 1.43 2.03 1.51 2 1.59 1.95 1.65 1.91 1.7 1.85 1.74 1.8 1.77 1.74 1.78 1.69 1.78 1.63 1.78 1.56 1.76 1.49 1.73 1.42 1.69 1.34 1.64 1.25 1.57 1.16 1.5 1.08 1.41 0.98 1.32 0.88 1.2 0.78 1.09 0.68 0.96 0.56 0.8 0.45 0.65 0.33 0.49 0.2 0.31 0.09 0.13 -6.8 6.47 -0.04 -0.06 -0.18 -0.27 -0.29 -0.43 -0.41 -0.6 -0.53 -0.76 -0.63 -0.89 -0.73 -1.02 -0.84 -1.14 -0.93 -1.24 -1.02 -1.34 -1.1 -1.42 -1.19 -1.49 -1.26 -1.55 -1.34 -1.6 -1.41 -1.63 -1.47 -1.66 -1.52 -1.67 -1.58 -1.67 -1.63 -1.66 -1.67 -1.64 -1.71 -1.6 -1.74 -1.55 -1.77 -1.5 -1.79 -1.43 -1.81 -1.35 -1.82 -1.26 -1.82 -1.15 -1.82 -1.04 -1.81 -0.92 -1.79 -0.78 -1.77 -0.64 -1.74 -0.5 -0.01 -0 1.94 -10.06zm-0.01 -0l-1.93 10.06c-2.31,-0.56 -3.75,-3.27 -3.21,-6.05 0.53,-2.78 2.84,-4.57 5.14,-4.01zm-28.93 3.47l-2.43 0.89 0.2 -0.15 0.23 -0.16 0.27 -0.2 0.33 -0.23 0.38 -0.25 0.44 -0.27 0.5 -0.3 0.55 -0.3 0.59 -0.31 0.66 -0.32 0.7 -0.33 0.76 -0.33 0.81 -0.32 0.87 -0.32 0.92 -0.3 0.97 -0.3 1.02 -0.27 1.07 -0.25 1.12 -0.23 1.17 -0.2 1.22 -0.17 1.27 -0.14 1.32 -0.09 1.37 -0.06 1.42 -0.01 1.47 0.04 1.51 0.09 1.55 0.15 1.6 0.2 1.65 0.27 1.69 0.33 1.74 0.4 -1.94 10.06 -1.51 -0.34 -1.46 -0.28 -1.42 -0.23 -1.36 -0.17 -1.32 -0.12 -1.27 -0.08 -1.22 -0.03 -1.18 0.01 -1.13 0.05 -1.08 0.08 -1.03 0.11 -0.99 0.14 -0.94 0.16 -0.9 0.18 -0.85 0.2 -0.8 0.21 -0.75 0.23 -0.71 0.24 -0.66 0.24 -0.62 0.25 -0.57 0.25 -0.52 0.23 -0.46 0.23 -0.43 0.23 -0.38 0.21 -0.32 0.19 -0.28 0.18 -0.23 0.15 -0.18 0.12 -0.13 0.09 -0.08 0.06 0 0 -2.43 0.89 0.23 -10.27zm-2.43 0.89l4.64 8.49c-1.99,1.59 -4.65,0.99 -5.93,-1.36 -1.28,-2.34 -0.7,-5.54 1.29,-7.13zm2.3 4.25l0.11 -5.13 0 0 0 0 0 0 0 0 0 0 0 0 0 0 0 0 0 0 0 0 0 0 0 0 0 0 0 0 0 0 0 0 0 0 0 0 0 0 0 0 0 0 0 0 0 0 0 0 0 0 0 0 0 0 0 0 0 0 0 0 0 0 -0.23 10.27 -0 0 0 0 -0 0 0 0 -0 0 0 0 -0 0 0 0 0 0 -0 0 0 0 0 0 -0 0 0 0 0 0 0 0 0 0 0 0 -0 0 0 0 0 0 0 0 0 0 0 0 0 0 0 0 0 0 0 0 0 0 0 0 0 0 0.11 -5.13zm0.11 -5.13l-0.23 10.27c-2.36,0 -4.23,-2.3 -4.17,-5.13 0.06,-2.83 2.03,-5.13 4.4,-5.13z"/>
   </g>
   <g>
    <path class="fil0" d="M224.7 149.21l0.49 -10.09c2.39,0.33 4.22,2.85 4.08,5.64 -0.13,2.79 -2.19,4.78 -4.58,4.45zm-71.76 -5.96l0.01 -0 2.59 -0.86 2.57 -0.8 2.56 -0.72 2.55 -0.66 2.53 -0.59 2.51 -0.53 2.5 -0.48 2.48 -0.42 2.46 -0.36 2.44 -0.31 2.42 -0.26 2.39 -0.22 2.38 -0.17 2.35 -0.13 2.32 -0.09 2.3 -0.05 2.28 -0.01 2.25 0.02 2.22 0.05 2.19 0.08 2.17 0.1 2.14 0.13 2.11 0.15 2.08 0.17 2.05 0.19 2.02 0.2 1.98 0.22 1.95 0.23 1.92 0.24 1.88 0.24 1.85 0.25 1.81 0.24 -0.49 10.09 -1.79 -0.24 -1.82 -0.24 -1.85 -0.23 -1.87 -0.23 -1.9 -0.22 -1.93 -0.21 -1.95 -0.2 -1.98 -0.18 -2 -0.17 -2.03 -0.15 -2.06 -0.13 -2.08 -0.1 -2.1 -0.08 -2.13 -0.05 -2.14 -0.02 -2.17 0.01 -2.18 0.05 -2.21 0.08 -2.23 0.12 -2.24 0.16 -2.27 0.2 -2.28 0.24 -2.3 0.3 -2.31 0.34 -2.33 0.39 -2.35 0.45 -2.36 0.5 -2.38 0.56 -2.39 0.62 -2.4 0.68 -2.42 0.74 -2.43 0.81 0.01 -0 -2.92 -9.76zm0.01 -0l2.91 9.77c-2.25,0.78 -4.74,-0.77 -5.54,-3.47 -0.8,-2.7 0.38,-5.52 2.63,-6.3zm-72.74 95l0 0.01 0.7 -4.46 0.9 -4.39 1.09 -4.33 1.27 -4.27 1.44 -4.19 1.59 -4.11 1.74 -4.03 1.88 -3.95 2.01 -3.87 2.12 -3.78 2.23 -3.68 2.33 -3.59 2.42 -3.49 2.5 -3.39 2.57 -3.28 2.63 -3.17 2.69 -3.06 2.72 -2.95 2.77 -2.83 2.78 -2.7 2.8 -2.58 2.81 -2.44 2.81 -2.31 2.8 -2.18 2.78 -2.03 2.76 -1.88 2.72 -1.74 2.68 -1.58 2.63 -1.43 2.58 -1.27 2.52 -1.1 2.45 -0.93 2.92 9.76 -2.09 0.79 -2.2 0.96 -2.29 1.13 -2.38 1.29 -2.45 1.44 -2.5 1.6 -2.56 1.75 -2.59 1.89 -2.62 2.03 -2.64 2.17 -2.64 2.3 -2.64 2.43 -2.63 2.55 -2.6 2.67 -2.57 2.78 -2.53 2.89 -2.48 2.99 -2.42 3.09 -2.35 3.18 -2.26 3.26 -2.18 3.35 -2.07 3.43 -1.97 3.5 -1.85 3.57 -1.73 3.64 -1.59 3.69 -1.45 3.74 -1.3 3.79 -1.14 3.83 -0.97 3.87 -0.8 3.9 -0.62 3.93 0 0.01 -8.57 -2.17zm0 0.01l8.57 2.15c-0.36,2.74 -2.58,4.49 -4.94,3.89 -2.36,-0.59 -3.99,-3.3 -3.63,-6.04zm-0.48 19.34l0 -0.03 -0.05 -0.62 -0.04 -0.6 -0.04 -0.6 -0.04 -0.63 -0.03 -0.6 -0.03 -0.6 -0.02 -0.62 -0.02 -0.6 -0.02 -0.62 -0.01 -0.61 -0.01 -0.6 -0 -0.6 0 -0.62 0.01 -0.62 0.01 -0.59 0.02 -0.6 0.02 -0.61 0.02 -0.6 0.02 -0.59 0.03 -0.63 0.04 -0.59 0.03 -0.59 0.04 -0.61 0.05 -0.59 0.05 -0.61 0.05 -0.59 0.05 -0.59 0.06 -0.6 0.07 -0.6 0.07 -0.59 0.07 -0.59 0.08 -0.6 8.57 2.17 -0.07 0.51 -0.06 0.52 -0.06 0.52 -0.05 0.51 -0.05 0.51 -0.05 0.52 -0.05 0.53 -0.04 0.51 -0.04 0.53 -0.04 0.51 -0.03 0.53 -0.03 0.53 -0.02 0.5 -0.02 0.53 -0.02 0.53 -0.02 0.52 -0.01 0.53 -0.01 0.53 -0.01 0.52 0 0.52 0 0.54 0.01 0.53 0.01 0.52 0.02 0.52 0.02 0.54 0.02 0.52 0.03 0.54 0.02 0.54 0.03 0.51 0.04 0.54 0.04 0.54 0.04 0.53 0 -0.03 -8.63 0.42zm0 -0.03l8.63 -0.37c0.23,2.8 -1.52,5.16 -3.9,5.26 -2.38,0.1 -4.5,-2.09 -4.73,-4.89zm0.66 6.66l0.01 0.09 -0.02 -0.2 -0.03 -0.25 -0.02 -0.2 -0.02 -0.2 -0.02 -0.2 -0.02 -0.2 -0.03 -0.25 -0.02 -0.2 -0.02 -0.2 -0.02 -0.2 -0.02 -0.21 -0.03 -0.25 -0.02 -0.2 -0.02 -0.16 -0.03 -0.25 -0.02 -0.2 -0.02 -0.2 -0.02 -0.25 -0.02 -0.2 -0.02 -0.16 -0.02 -0.21 -0.02 -0.25 -0.02 -0.2 -0.02 -0.2 -0.02 -0.2 -0.02 -0.21 -0.02 -0.21 -0.02 -0.24 -0.02 -0.2 -0.02 -0.16 -0.02 -0.2 -0.02 -0.22 8.63 -0.42 0.02 0.19 0.02 0.2 0.02 0.25 0.02 0.2 0.02 0.16 0.02 0.21 0.02 0.2 0.02 0.2 0.02 0.2 0.02 0.2 0.02 0.16 0.02 0.21 0.02 0.25 0.02 0.2 0.02 0.16 0.02 0.2 0.02 0.2 0.02 0.16 0.03 0.25 0.02 0.21 0.02 0.16 0.02 0.2 0.02 0.2 0.02 0.2 0.02 0.2 0.02 0.16 0.02 0.2 0.02 0.2 0.02 0.2 0.02 0.2 0.02 0.16 0.02 0.2 0.01 0.09 -8.61 0.65zm0.01 0.09l8.59 -0.83c0.34,2.8 -1.31,5.25 -3.68,5.48 -2.37,0.23 -4.57,-1.85 -4.91,-4.65zm37.29 117.94l0 0 -1.43 -2.13 -1.43 -2.26 -1.43 -2.38 -1.43 -2.51 -1.43 -2.63 -1.43 -2.75 -1.42 -2.87 -1.42 -2.98 -1.41 -3.1 -1.4 -3.2 -1.38 -3.31 -1.37 -3.41 -1.34 -3.51 -1.33 -3.6 -1.3 -3.7 -1.28 -3.78 -1.26 -3.87 -1.23 -3.95 -1.19 -4.03 -1.16 -4.1 -1.12 -4.18 -1.08 -4.25 -1.04 -4.32 -0.99 -4.38 -0.94 -4.43 -0.9 -4.49 -0.84 -4.54 -0.79 -4.59 -0.73 -4.64 -0.67 -4.68 -0.61 -4.71 -0.54 -4.75 8.61 -0.65 0.52 4.57 0.58 4.54 0.65 4.51 0.7 4.47 0.76 4.43 0.81 4.38 0.87 4.33 0.91 4.28 0.96 4.22 1 4.16 1.04 4.1 1.08 4.03 1.12 3.96 1.15 3.89 1.18 3.8 1.21 3.72 1.23 3.64 1.25 3.54 1.27 3.45 1.29 3.35 1.3 3.25 1.31 3.15 1.32 3.04 1.33 2.92 1.33 2.81 1.33 2.68 1.33 2.56 1.32 2.44 1.31 2.3 1.29 2.16 1.28 2.02 1.26 1.87 0 0 -6.61 6.11zm0 0l6.61 -6.11c1.55,2.24 1.33,5.43 -0.49,7.12 -1.82,1.69 -4.56,1.24 -6.11,-1.01zm41.17 23.14l0 0 -0.93 0.38 -0.97 0.32 -1 0.26 -1.03 0.2 -1.08 0.14 -1.09 0.08 -1.12 0.02 -1.16 -0.05 -1.18 -0.12 -1.2 -0.18 -1.23 -0.25 -1.25 -0.32 -1.27 -0.39 -1.29 -0.46 -1.31 -0.54 -1.33 -0.62 -1.34 -0.7 -1.36 -0.77 -1.37 -0.86 -1.39 -0.94 -1.4 -1.02 -1.41 -1.11 -1.42 -1.2 -1.43 -1.29 -1.43 -1.38 -1.44 -1.47 -1.45 -1.56 -1.45 -1.66 -1.45 -1.76 -1.46 -1.86 -1.46 -1.96 -1.46 -2.06 6.61 -6.11 1.31 1.86 1.31 1.75 1.29 1.65 1.28 1.54 1.26 1.45 1.24 1.35 1.23 1.26 1.21 1.16 1.19 1.07 1.17 0.99 1.16 0.91 1.12 0.82 1.1 0.74 1.08 0.67 1.05 0.6 1.03 0.53 0.99 0.46 0.97 0.4 0.94 0.34 0.91 0.28 0.88 0.23 0.84 0.17 0.81 0.12 0.78 0.07 0.74 0.03 0.71 -0.01 0.68 -0.05 0.63 -0.09 0.6 -0.12 0.56 -0.15 0.52 -0.17 0.48 -0.19 0 0 3.46 9.55zm0 0l-3.46 -9.55c2.2,-0.96 4.75,0.39 5.71,3.03 0.95,2.63 -0.05,5.56 -2.24,6.52zm0.03 -44.57l-0 -0.01 0.72 1.76 0.69 1.74 0.66 1.74 0.62 1.73 0.58 1.72 0.54 1.7 0.51 1.68 0.47 1.67 0.43 1.64 0.39 1.63 0.35 1.61 0.31 1.58 0.27 1.56 0.23 1.53 0.18 1.51 0.13 1.48 0.09 1.44 0.04 1.43 -0.02 1.4 -0.08 1.36 -0.13 1.34 -0.2 1.31 -0.27 1.28 -0.35 1.25 -0.43 1.2 -0.53 1.16 -0.63 1.1 -0.73 1.02 -0.83 0.93 -0.92 0.82 -1.01 0.7 -1.08 0.56 -3.46 -9.55 0.24 -0.13 0.2 -0.14 0.19 -0.17 0.18 -0.2 0.17 -0.24 0.17 -0.3 0.17 -0.38 0.16 -0.46 0.15 -0.54 0.13 -0.61 0.11 -0.7 0.08 -0.78 0.05 -0.87 0.02 -0.93 -0.02 -0.99 -0.06 -1.06 -0.1 -1.12 -0.14 -1.17 -0.18 -1.22 -0.22 -1.27 -0.26 -1.32 -0.29 -1.34 -0.34 -1.39 -0.37 -1.43 -0.41 -1.45 -0.45 -1.48 -0.48 -1.5 -0.52 -1.53 -0.55 -1.55 -0.59 -1.56 -0.62 -1.58 -0.66 -1.59 -0 -0.01 7.74 -4.03zm-0 -0.01l-7.73 4.04c-1.08,-2.57 -0.23,-5.57 1.91,-6.68 2.13,-1.12 4.75,0.07 5.83,2.64zm-23.07 -39.48l0.01 -0.01 0.59 -0.63 0.38 -0.81 0.13 -0.62 0 -0.2 0.03 0.16 0.11 0.45 0.21 0.68 0.32 0.85 0.42 1 0.52 1.13 0.6 1.22 0.68 1.31 0.75 1.4 0.81 1.47 0.87 1.54 0.91 1.59 0.95 1.64 0.99 1.7 1.01 1.73 1.04 1.77 1.05 1.79 1.06 1.82 1.06 1.84 1.05 1.85 1.04 1.86 1.02 1.87 1 1.87 0.97 1.86 0.94 1.86 0.89 1.85 0.84 1.83 0.79 1.82 -7.74 4.03 -0.68 -1.57 -0.74 -1.62 -0.8 -1.66 -0.86 -1.7 -0.9 -1.74 -0.94 -1.75 -0.98 -1.77 -1 -1.78 -1.02 -1.79 -1.03 -1.79 -1.04 -1.79 -1.04 -1.77 -1.04 -1.76 -1.02 -1.75 -1 -1.71 -0.98 -1.69 -0.95 -1.66 -0.91 -1.62 -0.87 -1.58 -0.82 -1.54 -0.77 -1.5 -0.71 -1.45 -0.65 -1.41 -0.58 -1.38 -0.52 -1.37 -0.43 -1.37 -0.34 -1.4 -0.21 -1.5 -0.02 -1.66 0.34 -1.85 0.86 -1.82 1.33 -1.42 0.01 -0.01 4.98 8.66zm0.01 -0.01l-5.01 -8.64c1.95,-1.48 4.66,-0.75 6.04,1.64 1.38,2.38 0.92,5.52 -1.04,7zm37.43 43.67l-0 -0 -0.81 -1.2 -0.94 -1.34 -1.06 -1.46 -1.16 -1.57 -1.25 -1.66 -1.34 -1.74 -1.42 -1.81 -1.48 -1.86 -1.54 -1.9 -1.59 -1.94 -1.63 -1.95 -1.66 -1.96 -1.68 -1.95 -1.7 -1.94 -1.7 -1.92 -1.69 -1.87 -1.68 -1.82 -1.65 -1.76 -1.62 -1.68 -1.57 -1.59 -1.52 -1.5 -1.45 -1.38 -1.38 -1.26 -1.29 -1.12 -1.18 -0.97 -1.05 -0.79 -0.89 -0.6 -0.7 -0.4 -0.42 -0.19 -0.01 -0.01 0.56 -0.02 1.05 -0.48 -4.98 -8.66 2.07 -0.91 1.86 -0.02 1.56 0.4 1.39 0.61 1.34 0.77 1.36 0.91 1.39 1.05 1.44 1.17 1.49 1.29 1.54 1.41 1.59 1.51 1.64 1.61 1.67 1.7 1.7 1.77 1.73 1.84 1.74 1.89 1.76 1.95 1.75 1.98 1.74 2 1.74 2.02 1.71 2.02 1.67 2.01 1.63 1.99 1.59 1.96 1.54 1.93 1.47 1.88 1.4 1.81 1.31 1.75 1.23 1.66 1.14 1.58 1.04 1.48 0.93 1.38 -0 -0 -6.73 5.92zm-0 -0l6.74 -5.91c1.51,2.28 1.22,5.46 -0.64,7.09 -1.86,1.63 -4.59,1.1 -6.1,-1.18zm33.71 15.57l-0 0 -1.02 0.9 -1.07 0.8 -1.1 0.68 -1.14 0.56 -1.17 0.44 -1.19 0.31 -1.2 0.19 -1.2 0.07 -1.2 -0.04 -1.19 -0.15 -1.18 -0.25 -1.16 -0.34 -1.15 -0.42 -1.12 -0.5 -1.11 -0.58 -1.09 -0.64 -1.07 -0.7 -1.06 -0.76 -1.03 -0.81 -1.02 -0.86 -1.01 -0.92 -0.99 -0.96 -0.98 -1 -0.97 -1.04 -0.96 -1.09 -0.95 -1.12 -0.93 -1.15 -0.91 -1.18 -0.91 -1.21 -0.89 -1.24 -0.87 -1.25 -0.87 -1.29 6.73 -5.92 0.77 1.14 0.78 1.13 0.78 1.09 0.79 1.05 0.8 1.03 0.79 0.98 0.79 0.95 0.79 0.9 0.8 0.85 0.79 0.81 0.78 0.76 0.77 0.7 0.77 0.65 0.75 0.59 0.73 0.53 0.72 0.47 0.7 0.41 0.67 0.35 0.65 0.29 0.62 0.23 0.59 0.17 0.57 0.12 0.55 0.07 0.52 0.02 0.5 -0.03 0.48 -0.08 0.48 -0.13 0.48 -0.18 0.49 -0.24 0.5 -0.3 0.51 -0.38 0.53 -0.47 -0 0 5.73 8.02zm-0 0l-5.73 -8.02c1.8,-1.72 4.54,-1.32 6.12,0.89 1.58,2.21 1.41,5.41 -0.39,7.13zm-12.08 -58.23l0 -0 1.59 2.11 1.52 2.12 1.44 2.12 1.37 2.11 1.29 2.11 1.22 2.11 1.14 2.09 1.07 2.08 0.99 2.07 0.92 2.06 0.84 2.04 0.77 2.01 0.69 2 0.62 1.97 0.54 1.95 0.47 1.93 0.39 1.9 0.31 1.86 0.23 1.85 0.15 1.81 0.07 1.77 -0.02 1.73 -0.11 1.7 -0.2 1.66 -0.29 1.61 -0.39 1.57 -0.49 1.51 -0.6 1.45 -0.7 1.37 -0.81 1.29 -0.92 1.19 -1.01 1.08 -5.73 -8.02 0.43 -0.46 0.39 -0.51 0.35 -0.56 0.32 -0.63 0.29 -0.7 0.25 -0.77 0.21 -0.84 0.17 -0.92 0.12 -1 0.06 -1.07 0.01 -1.15 -0.04 -1.22 -0.11 -1.28 -0.17 -1.34 -0.24 -1.42 -0.3 -1.47 -0.37 -1.51 -0.44 -1.57 -0.5 -1.62 -0.58 -1.65 -0.65 -1.7 -0.71 -1.73 -0.79 -1.76 -0.86 -1.79 -0.93 -1.82 -1 -1.84 -1.07 -1.86 -1.15 -1.87 -1.23 -1.89 -1.29 -1.9 -1.37 -1.91 -1.44 -1.91 0 -0 6.28 -6.56zm0 -0l-6.28 6.56c-1.65,-2.14 -1.59,-5.35 0.14,-7.16 1.73,-1.81 4.48,-1.54 6.13,0.6zm-22.58 -35.29l0 -0.01 0.1 0.81 0.12 0.77 0.15 0.74 0.17 0.72 0.2 0.71 0.22 0.7 0.25 0.7 0.27 0.71 0.31 0.73 0.35 0.75 0.39 0.77 0.43 0.8 0.48 0.82 0.52 0.87 0.57 0.9 0.63 0.95 0.67 0.99 0.73 1.03 0.77 1.08 0.83 1.13 0.89 1.19 0.94 1.24 1 1.3 1.06 1.36 1.11 1.43 1.17 1.5 1.23 1.57 1.29 1.65 1.34 1.72 1.41 1.8 1.47 1.9 1.53 1.98 -6.28 6.56 -1.52 -1.96 -1.45 -1.87 -1.4 -1.8 -1.34 -1.72 -1.29 -1.65 -1.23 -1.57 -1.18 -1.51 -1.12 -1.45 -1.07 -1.39 -1.03 -1.34 -0.98 -1.29 -0.93 -1.24 -0.89 -1.21 -0.85 -1.18 -0.81 -1.14 -0.76 -1.12 -0.72 -1.09 -0.69 -1.09 -0.65 -1.07 -0.62 -1.07 -0.58 -1.07 -0.54 -1.07 -0.5 -1.08 -0.47 -1.08 -0.43 -1.1 -0.39 -1.11 -0.34 -1.12 -0.3 -1.13 -0.27 -1.14 -0.23 -1.16 -0.19 -1.17 -0.15 -1.18 0 -0.01 8.6 -0.68zm0 -0.01l-8.6 0.71c-0.31,-2.8 1.36,-5.23 3.74,-5.42 2.37,-0.2 4.55,1.92 4.86,4.71zm35.82 -11.28l0 0 -1.6 -0.11 -1.63 -0.06 -1.65 -0.02 -1.67 0.03 -1.68 0.08 -1.69 0.12 -1.69 0.17 -1.68 0.21 -1.66 0.26 -1.65 0.29 -1.62 0.34 -1.59 0.37 -1.55 0.41 -1.51 0.44 -1.45 0.48 -1.4 0.51 -1.34 0.54 -1.26 0.56 -1.19 0.59 -1.1 0.6 -1.01 0.62 -0.91 0.63 -0.81 0.63 -0.69 0.62 -0.58 0.59 -0.45 0.56 -0.34 0.5 -0.22 0.42 -0.13 0.33 -0.06 0.25 -0.02 0.19 0.01 0.18 -8.6 0.68 -0.07 -1.82 0.17 -1.77 0.4 -1.67 0.59 -1.54 0.73 -1.4 0.85 -1.27 0.95 -1.17 1.04 -1.08 1.13 -1 1.2 -0.93 1.27 -0.88 1.34 -0.82 1.4 -0.77 1.47 -0.73 1.52 -0.68 1.58 -0.63 1.63 -0.59 1.67 -0.55 1.71 -0.5 1.75 -0.46 1.78 -0.42 1.81 -0.37 1.83 -0.33 1.85 -0.28 1.87 -0.23 1.88 -0.19 1.88 -0.13 1.88 -0.09 1.88 -0.03 1.87 0.02 1.85 0.07 1.83 0.13 0 0 -0.12 10.14zm0 0l0.12 -10.14c2.39,0.2 4.31,2.65 4.28,5.44 -0.03,2.8 -2,4.9 -4.39,4.69zm96.35 54.38l0 0 -1.85 -1.88 -1.99 -1.95 -2.11 -2 -2.24 -2.06 -2.35 -2.1 -2.47 -2.13 -2.57 -2.16 -2.67 -2.17 -2.77 -2.19 -2.85 -2.19 -2.93 -2.18 -3.01 -2.17 -3.08 -2.15 -3.14 -2.12 -3.2 -2.09 -3.25 -2.05 -3.29 -1.99 -3.33 -1.94 -3.36 -1.87 -3.39 -1.8 -3.41 -1.72 -3.42 -1.63 -3.43 -1.53 -3.44 -1.43 -3.43 -1.32 -3.42 -1.2 -3.4 -1.08 -3.38 -0.95 -3.35 -0.81 -3.31 -0.66 -3.28 -0.51 -3.22 -0.36 0.12 -10.14 3.57 0.39 3.6 0.57 3.62 0.72 3.64 0.88 3.64 1.02 3.65 1.16 3.65 1.29 3.64 1.4 3.64 1.51 3.63 1.62 3.6 1.71 3.58 1.8 3.55 1.88 3.51 1.95 3.47 2.02 3.42 2.08 3.38 2.13 3.32 2.17 3.26 2.21 3.19 2.23 3.12 2.25 3.04 2.27 2.96 2.27 2.87 2.27 2.78 2.27 2.68 2.25 2.57 2.22 2.47 2.2 2.35 2.16 2.24 2.12 2.11 2.06 1.98 2.01 0 0 -5.51 7.44zm0 0l5.51 -7.44c1.85,1.91 2.11,5.13 0.59,7.18 -1.52,2.05 -4.26,2.17 -6.1,0.26zm44.36 23.68l-0 0 -0.88 0.27 -0.91 0.2 -0.95 0.14 -0.97 0.08 -1 0.02 -1.03 -0.04 -1.06 -0.1 -1.1 -0.16 -1.13 -0.22 -1.16 -0.27 -1.2 -0.34 -1.23 -0.39 -1.27 -0.46 -1.3 -0.52 -1.33 -0.59 -1.37 -0.65 -1.4 -0.72 -1.45 -0.79 -1.47 -0.86 -1.51 -0.93 -1.54 -1.01 -1.57 -1.08 -1.61 -1.15 -1.64 -1.24 -1.67 -1.31 -1.71 -1.4 -1.74 -1.48 -1.77 -1.56 -1.8 -1.65 -1.83 -1.74 -1.86 -1.83 -1.89 -1.92 5.51 -7.44 1.77 1.81 1.74 1.71 1.7 1.62 1.67 1.53 1.64 1.45 1.59 1.36 1.56 1.27 1.52 1.19 1.48 1.11 1.44 1.04 1.4 0.96 1.35 0.88 1.32 0.81 1.27 0.74 1.23 0.67 1.19 0.6 1.14 0.54 1.09 0.48 1.05 0.42 1 0.36 0.95 0.3 0.9 0.25 0.85 0.2 0.8 0.15 0.73 0.11 0.69 0.06 0.62 0.03 0.56 -0.01 0.5 -0.04 0.44 -0.07 0.38 -0.08 0.31 -0.09 -0 0 2.96 9.75zm-0 0l-2.95 -9.75c2.25,-0.79 4.74,0.74 5.55,3.43 0.81,2.69 -0.35,5.52 -2.6,6.31zm2.13 -50.33l-0 -0 0.95 1.77 0.91 1.79 0.87 1.81 0.82 1.82 0.78 1.82 0.73 1.83 0.68 1.83 0.63 1.83 0.58 1.83 0.52 1.82 0.46 1.82 0.41 1.81 0.34 1.8 0.27 1.79 0.21 1.77 0.13 1.75 0.06 1.74 -0.03 1.72 -0.12 1.7 -0.2 1.66 -0.3 1.64 -0.41 1.6 -0.52 1.55 -0.64 1.49 -0.76 1.42 -0.88 1.33 -1 1.23 -1.12 1.13 -1.23 1.01 -1.32 0.87 -1.42 0.75 -1.51 0.61 -2.96 -9.75 0.86 -0.35 0.76 -0.4 0.66 -0.44 0.58 -0.48 0.51 -0.52 0.45 -0.56 0.4 -0.6 0.35 -0.66 0.31 -0.71 0.26 -0.78 0.22 -0.85 0.17 -0.92 0.13 -1 0.07 -1.07 0.02 -1.13 -0.04 -1.2 -0.09 -1.26 -0.15 -1.31 -0.21 -1.35 -0.27 -1.4 -0.32 -1.44 -0.38 -1.48 -0.43 -1.5 -0.48 -1.52 -0.53 -1.55 -0.58 -1.56 -0.63 -1.56 -0.67 -1.58 -0.72 -1.57 -0.76 -1.57 -0.8 -1.57 -0.83 -1.56 -0 -0 7.22 -5.12zm-0 -0l-7.21 5.13c-1.33,-2.42 -0.79,-5.54 1.2,-6.95 1.99,-1.42 4.68,-0.6 6.01,1.82zm-30.21 -54.07l-0 0.01 -0.18 0.25 -0.11 0.24 -0.08 0.33 -0.04 0.52 0.03 0.73 0.14 0.95 0.27 1.15 0.41 1.32 0.54 1.47 0.67 1.6 0.8 1.7 0.91 1.8 1.02 1.88 1.11 1.95 1.2 2.01 1.27 2.06 1.33 2.1 1.38 2.13 1.43 2.16 1.46 2.18 1.48 2.19 1.5 2.2 1.5 2.2 1.5 2.19 1.48 2.19 1.45 2.17 1.42 2.14 1.38 2.12 1.33 2.09 1.27 2.06 1.2 2.02 1.12 1.98 -7.22 5.12 -0.99 -1.76 -1.09 -1.84 -1.18 -1.91 -1.25 -1.97 -1.32 -2.03 -1.38 -2.08 -1.42 -2.12 -1.46 -2.15 -1.49 -2.18 -1.5 -2.2 -1.51 -2.21 -1.51 -2.23 -1.49 -2.23 -1.47 -2.23 -1.45 -2.22 -1.4 -2.21 -1.35 -2.19 -1.3 -2.18 -1.23 -2.15 -1.15 -2.12 -1.07 -2.1 -0.97 -2.08 -0.87 -2.06 -0.75 -2.04 -0.63 -2.04 -0.47 -2.05 -0.3 -2.07 -0.08 -2.11 0.19 -2.12 0.52 -2.1 0.88 -1.96 1.2 -1.71 -0 0.01 6.29 7.42zm-0 0.01l-6.29 -7.44c1.65,-1.91 4.39,-1.8 6.13,0.25 1.74,2.05 1.81,5.27 0.16,7.19zm61.52 34.87l0.01 0 -1.3 -1.16 -1.49 -1.28 -1.65 -1.38 -1.8 -1.47 -1.94 -1.54 -2.06 -1.6 -2.17 -1.65 -2.28 -1.68 -2.36 -1.71 -2.43 -1.72 -2.48 -1.72 -2.53 -1.71 -2.56 -1.7 -2.58 -1.66 -2.59 -1.61 -2.58 -1.56 -2.56 -1.49 -2.52 -1.41 -2.47 -1.32 -2.41 -1.21 -2.33 -1.1 -2.24 -0.98 -2.12 -0.84 -1.99 -0.69 -1.83 -0.54 -1.66 -0.37 -1.45 -0.21 -1.2 -0.05 -0.92 0.08 -0.61 0.16 -0.31 0.16 -0.11 0.09 -6.29 -7.42 1.69 -1.52 1.89 -0.99 1.97 -0.53 2.01 -0.19 2.06 0.08 2.12 0.3 2.19 0.49 2.27 0.66 2.34 0.82 2.42 0.96 2.48 1.08 2.54 1.2 2.6 1.31 2.63 1.41 2.66 1.49 2.69 1.56 2.7 1.63 2.69 1.68 2.68 1.72 2.66 1.75 2.62 1.77 2.57 1.78 2.51 1.78 2.44 1.77 2.35 1.74 2.26 1.71 2.14 1.66 2.03 1.61 1.9 1.55 1.76 1.47 1.61 1.38 1.45 1.3 0.01 0 -5.09 7.86zm0.01 0l5.08 -7.86c1.94,1.78 2.38,4.98 0.97,7.15 -1.4,2.17 -4.11,2.49 -6.05,0.71zm42.06 -9.87l0 0.01 0.21 2.72 0.04 2.57 -0.14 2.43 -0.32 2.29 -0.51 2.15 -0.7 1.99 -0.89 1.82 -1.07 1.63 -1.24 1.41 -1.38 1.17 -1.48 0.94 -1.55 0.71 -1.6 0.51 -1.64 0.32 -1.67 0.15 -1.69 -0 -1.7 -0.14 -1.71 -0.27 -1.72 -0.38 -1.73 -0.48 -1.73 -0.58 -1.73 -0.67 -1.72 -0.75 -1.71 -0.83 -1.7 -0.9 -1.68 -0.97 -1.65 -1.03 -1.62 -1.09 -1.58 -1.14 -1.54 -1.19 -1.5 -1.24 -1.44 -1.27 5.09 -7.86 1.19 1.06 1.24 1.03 1.3 1 1.34 0.97 1.37 0.92 1.39 0.88 1.41 0.81 1.42 0.76 1.42 0.69 1.41 0.62 1.38 0.54 1.36 0.45 1.32 0.37 1.27 0.28 1.21 0.19 1.14 0.09 1.05 0 0.97 -0.09 0.87 -0.16 0.76 -0.24 0.67 -0.31 0.57 -0.36 0.5 -0.42 0.43 -0.49 0.39 -0.59 0.36 -0.73 0.31 -0.88 0.26 -1.08 0.18 -1.3 0.09 -1.54 -0.03 -1.77 -0.16 -2.02 0 0.01 8.6 -0.68zm0 0.01l-8.61 0.66c-0.3,-2.8 1.38,-5.22 3.76,-5.4 2.38,-0.18 4.55,1.94 4.85,4.74zm-41.35 -52.87l-0.01 -0.01 1.22 1.16 1.29 1.17 1.35 1.18 1.4 1.19 1.45 1.2 1.49 1.23 1.52 1.24 1.55 1.26 1.57 1.28 1.59 1.3 1.6 1.33 1.6 1.36 1.6 1.38 1.6 1.42 1.59 1.46 1.57 1.5 1.54 1.54 1.52 1.59 1.49 1.64 1.44 1.69 1.39 1.75 1.34 1.82 1.27 1.88 1.2 1.95 1.13 2.03 1.05 2.1 0.95 2.18 0.84 2.25 0.73 2.33 0.62 2.41 0.48 2.49 0.35 2.55 -8.6 0.68 -0.26 -1.87 -0.36 -1.81 -0.45 -1.76 -0.54 -1.7 -0.63 -1.67 -0.71 -1.63 -0.79 -1.59 -0.88 -1.56 -0.95 -1.54 -1.02 -1.51 -1.09 -1.49 -1.16 -1.47 -1.22 -1.44 -1.28 -1.42 -1.34 -1.4 -1.38 -1.38 -1.42 -1.36 -1.46 -1.34 -1.49 -1.32 -1.52 -1.31 -1.53 -1.29 -1.54 -1.28 -1.55 -1.27 -1.56 -1.27 -1.56 -1.26 -1.55 -1.26 -1.53 -1.25 -1.51 -1.26 -1.49 -1.27 -1.46 -1.28 -1.43 -1.29 -1.39 -1.31 -0.01 -0.01 5.29 -7.67zm-0.01 -0.01l-5.28 7.68c-1.9,-1.84 -2.26,-5.05 -0.81,-7.17 1.45,-2.12 4.18,-2.35 6.08,-0.51zm-23.77 -31.69l0.16 0.4 0.21 0.48 0.25 0.54 0.3 0.61 0.34 0.67 0.39 0.72 0.42 0.77 0.46 0.81 0.51 0.86 0.54 0.9 0.57 0.93 0.61 0.96 0.65 0.99 0.69 1.03 0.72 1.05 0.75 1.07 0.79 1.1 0.82 1.11 0.86 1.14 0.88 1.15 0.91 1.16 0.95 1.18 0.97 1.19 1.01 1.2 1.03 1.21 1.06 1.21 1.09 1.21 1.12 1.22 1.14 1.21 1.17 1.21 1.2 1.21 1.22 1.2 -5.29 7.67 -1.31 -1.29 -1.28 -1.3 -1.26 -1.3 -1.23 -1.31 -1.2 -1.3 -1.17 -1.31 -1.14 -1.3 -1.11 -1.29 -1.08 -1.29 -1.05 -1.28 -1.02 -1.27 -0.98 -1.26 -0.95 -1.24 -0.92 -1.23 -0.89 -1.21 -0.85 -1.19 -0.82 -1.17 -0.79 -1.15 -0.75 -1.12 -0.72 -1.09 -0.69 -1.07 -0.65 -1.04 -0.61 -1.01 -0.57 -0.98 -0.54 -0.95 -0.51 -0.91 -0.47 -0.88 -0.44 -0.85 -0.4 -0.81 -0.37 -0.8 -0.32 -0.75 -0.3 -0.73 7.89 -3.67zm0 0l-7.89 3.67c-0.99,-2.62 -0.04,-5.56 2.14,-6.58 2.18,-1.01 4.75,0.29 5.75,2.9z"/>
   </g>
   <g>
    <path class="fil0" d="M98.58 179.82l5.07 -8.43c1.91,1.62 2.32,4.82 0.92,7.14 -1.4,2.33 -4.09,2.9 -5.99,1.29zm-30.05 -84.85l0 0 0.05 2.6 0.18 2.68 0.31 2.75 0.44 2.81 0.56 2.85 0.67 2.9 0.77 2.93 0.88 2.94 0.97 2.96 1.06 2.96 1.13 2.95 1.21 2.93 1.27 2.91 1.33 2.88 1.37 2.83 1.42 2.78 1.45 2.73 1.47 2.65 1.49 2.58 1.5 2.5 1.5 2.4 1.49 2.3 1.49 2.2 1.45 2.08 1.42 1.95 1.38 1.82 1.34 1.67 1.27 1.52 1.2 1.36 1.12 1.19 1.02 1.01 0.89 0.81 -5.07 8.43 -1.24 -1.11 -1.27 -1.26 -1.33 -1.41 -1.38 -1.56 -1.42 -1.7 -1.46 -1.85 -1.5 -1.97 -1.53 -2.11 -1.56 -2.22 -1.58 -2.34 -1.59 -2.45 -1.59 -2.55 -1.59 -2.64 -1.58 -2.73 -1.56 -2.81 -1.53 -2.89 -1.51 -2.95 -1.46 -3.01 -1.42 -3.06 -1.36 -3.12 -1.3 -3.15 -1.23 -3.19 -1.15 -3.22 -1.07 -3.24 -0.97 -3.26 -0.87 -3.28 -0.76 -3.27 -0.64 -3.28 -0.51 -3.28 -0.37 -3.27 -0.22 -3.25 -0.05 -3.23 0 0 8.57 -0.17zm0 0l-8.57 0.17c0.02,-2.83 1.96,-5.17 4.33,-5.22 2.36,-0.05 4.26,2.21 4.24,5.05zm60.2 -76.6l-3.59 8.53 -2.34 -0.01 -2.37 0.22 -2.4 0.43 -2.43 0.65 -2.45 0.85 -2.46 1.06 -2.46 1.25 -2.46 1.43 -2.44 1.61 -2.42 1.78 -2.39 1.94 -2.35 2.08 -2.31 2.22 -2.25 2.34 -2.19 2.46 -2.12 2.56 -2.04 2.65 -1.96 2.74 -1.87 2.8 -1.76 2.85 -1.66 2.9 -1.55 2.94 -1.43 2.96 -1.3 2.96 -1.17 2.96 -1.03 2.94 -0.89 2.91 -0.74 2.86 -0.58 2.81 -0.43 2.73 -0.26 2.64 -0.1 2.55 -8.57 0.17 0.13 -3.31 0.34 -3.35 0.52 -3.37 0.7 -3.39 0.87 -3.39 1.03 -3.39 1.19 -3.39 1.33 -3.37 1.47 -3.35 1.6 -3.32 1.73 -3.28 1.85 -3.23 1.96 -3.17 2.07 -3.1 2.17 -3.02 2.26 -2.94 2.35 -2.83 2.43 -2.73 2.51 -2.61 2.58 -2.48 2.65 -2.34 2.71 -2.19 2.76 -2.03 2.82 -1.86 2.86 -1.67 2.9 -1.47 2.94 -1.27 2.98 -1.04 3 -0.8 3.02 -0.55 3.03 -0.27 3.03 0.01 -3.59 8.53 6.57 -6.8zm-3.59 8.53l0.6 -10.26c2.36,0.12 4.14,2.53 3.97,5.36 -0.16,2.83 -2.22,5.03 -4.58,4.9zm-123.66 63.13l0 0 1.9 -10.19 2.3 -9.48 2.68 -8.8 3.03 -8.12 3.36 -7.47 3.67 -6.83 3.94 -6.21 4.19 -5.6 4.42 -5.01 4.61 -4.44 4.77 -3.88 4.89 -3.36 5 -2.84 5.06 -2.36 5.1 -1.9 5.11 -1.46 5.09 -1.06 5.05 -0.68 4.98 -0.31 4.89 0.02 4.77 0.33 4.64 0.61 4.47 0.87 4.29 1.11 4.07 1.33 3.85 1.53 3.59 1.7 3.32 1.87 3.03 2.02 2.72 2.17 2.39 2.31 2.05 2.5 -6.57 6.8 -1.31 -1.59 -1.74 -1.68 -2.13 -1.7 -2.5 -1.66 -2.84 -1.59 -3.14 -1.49 -3.41 -1.35 -3.65 -1.19 -3.86 -1 -4.04 -0.79 -4.2 -0.55 -4.32 -0.3 -4.43 -0.02 -4.5 0.28 -4.54 0.6 -4.56 0.95 -4.56 1.31 -4.53 1.69 -4.48 2.09 -4.4 2.51 -4.3 2.95 -4.19 3.41 -4.05 3.9 -3.89 4.42 -3.71 4.96 -3.52 5.53 -3.29 6.13 -3.04 6.76 -2.77 7.43 -2.47 8.12 -2.14 8.83 -1.78 9.58 0 0 -8.42 -1.68zm0 0l8.42 1.68c-0.45,2.8 -2.7,4.69 -5.02,4.23 -2.32,-0.46 -3.84,-3.11 -3.4,-5.9zm90.34 113.56l-0.36 -0.06 -0.89 -0.18 -1.41 -0.3 -1.89 -0.43 -2.33 -0.58 -2.74 -0.73 -3.09 -0.9 -3.41 -1.07 -3.7 -1.26 -3.94 -1.46 -4.14 -1.67 -4.31 -1.89 -4.43 -2.13 -4.52 -2.37 -4.56 -2.63 -4.57 -2.89 -4.54 -3.18 -4.47 -3.47 -4.36 -3.78 -4.21 -4.1 -4.01 -4.44 -3.78 -4.8 -3.49 -5.16 -3.17 -5.54 -2.79 -5.93 -2.37 -6.33 -1.9 -6.72 -1.38 -7.13 -0.83 -7.52 -0.23 -7.91 0.41 -8.3 1.08 -8.69 8.42 1.68 -0.97 7.82 -0.37 7.37 0.2 6.94 0.72 6.54 1.2 6.16 1.64 5.81 2.05 5.47 2.43 5.16 2.78 4.86 3.09 4.57 3.37 4.28 3.62 4 3.82 3.73 4 3.46 4.13 3.21 4.22 2.95 4.28 2.71 4.29 2.47 4.26 2.23 4.2 2.01 4.09 1.79 3.94 1.59 3.75 1.39 3.52 1.2 3.25 1.02 2.94 0.85 2.59 0.7 2.2 0.55 1.77 0.4 1.31 0.28 0.8 0.15 0.22 0.04 -1.43 10.17zm0 0l1.43 -10.17c2.33,0.4 3.9,3 3.51,5.81 -0.39,2.81 -2.61,4.76 -4.94,4.36z"/>
   </g>
  </g>
 </g>
</svg>
