<?xml version="1.0" encoding="UTF-8"?>
<!DOCTYPE svg PUBLIC "-//W3C//DTD SVG 1.1//EN" "http://www.w3.org/Graphics/SVG/1.1/DTD/svg11.dtd">
<!-- Creator: CorelDRAW Standard 2021 (64-Bit) -->
<svg xmlns="http://www.w3.org/2000/svg" xml:space="preserve" width="24.5284mm" height="50.2082mm" version="1.1" style="shape-rendering:geometricPrecision; text-rendering:geometricPrecision; image-rendering:optimizeQuality; fill-rule:evenodd; clip-rule:evenodd"
viewBox="0 0 815.16 1668.59"
 xmlns:xlink="http://www.w3.org/1999/xlink"
 xmlns:xodm="http://www.corel.com/coreldraw/odm/2003">
 <defs>
  <style type="text/css">
   <![CDATA[
    .fil0 {fill:#1D1D1B;fill-rule:nonzero}
   ]]>
  </style>
 </defs>
 <g id="Layer_x0020_1">
  <metadata id="CorelCorpID_0Corel-Layer"/>
  <g id="maman">
   <g>
    <path class="fil0" d="M634.52 255.06c-0.28,-4.04 2.77,-7.56 6.82,-7.84 4.04,-0.28 7.56,2.77 7.84,6.82l-14.66 1.02zm12.94 52.83l-14.46 -2.56 0 0 0.23 -1.36 0.22 -1.38 0.2 -1.4 0.19 -1.42 0.18 -1.44 0.17 -1.45 0.15 -1.48 0.14 -1.49 0.13 -1.51 0.12 -1.53 0.1 -1.54 0.09 -1.55 0.08 -1.57 0.07 -1.57 0.06 -1.59 0.05 -1.61 0.03 -1.6 0.02 -1.62 0.01 -1.63 0 -1.64 -0.01 -1.64 -0.02 -1.64 -0.03 -1.66 -0.04 -1.66 -0.05 -1.66 -0.06 -1.66 -0.07 -1.66 -0.08 -1.67 -0.08 -1.67 -0.09 -1.66 -0.11 -1.66 -0.11 -1.66 14.66 -1.02 0.12 1.73 0.11 1.74 0.1 1.74 0.09 1.74 0.08 1.74 0.07 1.75 0.06 1.74 0.05 1.74 0.04 1.74 0.03 1.73 0.02 1.74 0.01 1.74 -0 1.72 -0.01 1.72 -0.02 1.72 -0.04 1.72 -0.05 1.69 -0.06 1.7 -0.08 1.7 -0.09 1.68 -0.1 1.67 -0.12 1.67 -0.13 1.65 -0.14 1.64 -0.16 1.63 -0.17 1.62 -0.19 1.61 -0.2 1.59 -0.21 1.58 -0.23 1.56 -0.25 1.55 -0.26 1.53 0 0zm0 0c-0.7,3.99 -4.52,6.66 -8.51,5.95 -3.99,-0.7 -6.66,-4.52 -5.95,-8.51l14.46 2.56zm-252.72 196.12l2.28 -14.51 0 0 12.22 1.63 11.92 1.01 11.62 0.4 11.32 -0.19 11.01 -0.76 10.71 -1.32 10.41 -1.86 10.1 -2.38 9.79 -2.9 9.49 -3.4 9.18 -3.88 8.88 -4.35 8.57 -4.81 8.26 -5.25 7.95 -5.69 7.63 -6.11 7.32 -6.51 7 -6.91 6.68 -7.29 6.35 -7.66 6.03 -8.02 5.7 -8.36 5.36 -8.7 5.02 -9.01 4.68 -9.32 4.33 -9.61 3.98 -9.88 3.62 -10.15 3.26 -10.39 2.89 -10.62 2.53 -10.84 2.16 -11.04 14.46 2.56 -2.26 11.56 -2.65 11.36 -3.04 11.15 -3.43 10.93 -3.82 10.68 -4.2 10.43 -4.58 10.16 -4.96 9.87 -5.33 9.57 -5.71 9.26 -6.08 8.92 -6.45 8.58 -6.81 8.21 -7.17 7.83 -7.53 7.44 -7.89 7.03 -8.25 6.6 -8.59 6.15 -8.94 5.69 -9.28 5.21 -9.61 4.71 -9.94 4.2 -10.27 3.68 -10.58 3.13 -10.89 2.57 -11.2 2 -11.5 1.41 -11.79 0.81 -12.08 0.2 -12.36 -0.43 -12.64 -1.07 -12.91 -1.72 0 0zm0 0c-4,-0.63 -6.74,-4.39 -6.11,-8.39 0.63,-4 4.39,-6.74 8.39,-6.11l-2.28 14.51zm-168.13 -238.77l14.62 1.48 0 0.01 -0.63 7.34 -0.4 7.61 -0.16 7.85 0.1 8.05 0.37 8.23 0.65 8.37 0.94 8.49 1.25 8.58 1.57 8.63 1.9 8.66 2.24 8.65 2.6 8.62 2.96 8.56 3.34 8.47 3.73 8.36 4.13 8.21 4.54 8.04 4.97 7.84 5.4 7.61 5.85 7.35 6.31 7.08 6.78 6.77 7.27 6.45 7.78 6.09 8.29 5.72 8.83 5.31 9.39 4.88 9.95 4.42 10.54 3.93 11.15 3.42 11.78 2.87 12.42 2.3 -2.28 14.51 -13.21 -2.45 -12.59 -3.07 -11.97 -3.67 -11.38 -4.24 -10.78 -4.79 -10.19 -5.29 -9.61 -5.78 -9.04 -6.23 -8.48 -6.64 -7.93 -7.03 -7.39 -7.38 -6.87 -7.7 -6.36 -7.99 -5.85 -8.25 -5.37 -8.47 -4.9 -8.67 -4.44 -8.83 -4 -8.96 -3.57 -9.07 -3.16 -9.14 -2.76 -9.18 -2.38 -9.2 -2.01 -9.19 -1.66 -9.14 -1.32 -9.08 -1 -8.98 -0.68 -8.86 -0.39 -8.7 -0.1 -8.53 0.17 -8.32 0.43 -8.09 0.67 -7.83 0 0.01zm0 -0.01c0.41,-4.03 4.02,-6.97 8.06,-6.56 4.03,0.41 6.97,4.02 6.56,8.06l-14.62 -1.5zm3.03 -19.83l14.4 2.92 -0.12 0.58 -0.12 0.59 -0.12 0.6 -0.11 0.59 -0.11 0.59 -0.11 0.57 -0.11 0.58 -0.11 0.59 -0.1 0.57 -0.1 0.59 -0.1 0.58 -0.1 0.58 -0.1 0.58 -0.09 0.56 -0.09 0.58 -0.09 0.58 -0.09 0.58 -0.09 0.56 -0.08 0.58 -0.08 0.58 -0.08 0.57 -0.08 0.57 -0.07 0.55 -0.07 0.57 -0.07 0.57 -0.07 0.57 -0.07 0.55 -0.06 0.57 -0.06 0.56 -0.06 0.57 -0.06 0.56 -0.06 0.55 -14.62 -1.48 0.06 -0.61 0.07 -0.6 0.06 -0.6 0.07 -0.61 0.07 -0.6 0.07 -0.63 0.08 -0.61 0.07 -0.6 0.08 -0.61 0.08 -0.62 0.08 -0.61 0.08 -0.61 0.09 -0.61 0.09 -0.61 0.09 -0.63 0.09 -0.62 0.1 -0.62 0.1 -0.61 0.1 -0.64 0.1 -0.62 0.1 -0.62 0.11 -0.62 0.11 -0.62 0.11 -0.64 0.11 -0.62 0.11 -0.62 0.12 -0.64 0.12 -0.63 0.12 -0.62 0.12 -0.62 0.12 -0.63 0.13 -0.64zm0 0c0.8,-3.97 4.68,-6.54 8.66,-5.74 3.97,0.8 6.54,4.68 5.74,8.66l-14.4 -2.92z"/>
   </g>
   <g>
    <path class="fil0" d="M238.11 239.64c3.99,0.7 6.66,4.52 5.95,8.51 -0.7,3.99 -4.52,6.66 -8.51,5.95l2.56 -14.46zm-62.54 55.64l-14.64 1.3 0 0 -0.17 -3.62 0.12 -3.56 0.41 -3.48 0.68 -3.4 0.94 -3.3 1.18 -3.18 1.41 -3.07 1.63 -2.96 1.82 -2.82 1.99 -2.7 2.16 -2.57 2.32 -2.44 2.45 -2.31 2.58 -2.18 2.71 -2.06 2.81 -1.92 2.9 -1.79 2.99 -1.66 3.07 -1.52 3.15 -1.39 3.21 -1.25 3.25 -1.11 3.3 -0.97 3.33 -0.82 3.36 -0.67 3.38 -0.53 3.39 -0.36 3.39 -0.2 3.39 -0.04 3.37 0.13 3.34 0.31 3.31 0.49 -2.56 14.46 -2.49 -0.37 -2.56 -0.23 -2.62 -0.11 -2.65 0.03 -2.7 0.16 -2.71 0.29 -2.72 0.42 -2.73 0.55 -2.71 0.67 -2.69 0.79 -2.66 0.9 -2.6 1.01 -2.55 1.13 -2.49 1.23 -2.4 1.33 -2.32 1.43 -2.21 1.52 -2.11 1.6 -1.99 1.68 -1.87 1.76 -1.73 1.82 -1.59 1.88 -1.44 1.95 -1.29 1.99 -1.12 2.04 -0.96 2.1 -0.8 2.13 -0.62 2.18 -0.45 2.23 -0.27 2.29 -0.08 2.35 0.12 2.42 0 0zm0 0c0.36,4.04 -2.63,7.61 -6.67,7.97 -4.04,0.36 -7.61,-2.63 -7.97,-6.67l14.64 -1.3zm58.06 33.35l5.86 13.47 -3.03 1.2 -3.08 0.98 -3.13 0.78 -3.16 0.57 -3.19 0.39 -3.2 0.19 -3.2 0.01 -3.21 -0.17 -3.18 -0.35 -3.16 -0.52 -3.14 -0.69 -3.09 -0.85 -3.05 -1.01 -3 -1.17 -2.94 -1.32 -2.87 -1.47 -2.8 -1.62 -2.71 -1.77 -2.62 -1.91 -2.52 -2.05 -2.4 -2.19 -2.28 -2.33 -2.15 -2.47 -2 -2.61 -1.84 -2.73 -1.68 -2.86 -1.5 -2.99 -1.31 -3.11 -1.11 -3.22 -0.89 -3.33 -0.67 -3.43 -0.44 -3.51 14.64 -1.3 0.31 2.5 0.47 2.42 0.63 2.35 0.78 2.27 0.93 2.2 1.07 2.12 1.2 2.05 1.34 1.98 1.45 1.89 1.58 1.81 1.68 1.73 1.79 1.64 1.88 1.54 1.98 1.44 2.06 1.34 2.13 1.23 2.2 1.12 2.25 1.01 2.3 0.89 2.34 0.77 2.37 0.65 2.38 0.52 2.39 0.39 2.4 0.26 2.38 0.13 2.37 -0.01 2.34 -0.14 2.31 -0.28 2.27 -0.42 2.22 -0.55 2.16 -0.69 2.11 -0.83zm0 0c3.72,-1.62 8.05,0.09 9.66,3.81 1.62,3.72 -0.09,8.05 -3.81,9.66l-5.86 -13.47z"/>
   </g>
   <g>
    <path class="fil0" d="M641.04 261.85c-4.03,-0.45 -6.94,-4.08 -6.49,-8.11 0.45,-4.03 4.08,-6.94 8.11,-6.49l-1.62 14.6zm59.52 44.66l-14.65 -1.13 0 0 0.1 -2.34 -0.06 -2.25 -0.22 -2.18 -0.36 -2.11 -0.5 -2.06 -0.63 -2 -0.76 -1.94 -0.89 -1.9 -1 -1.85 -1.12 -1.8 -1.23 -1.75 -1.34 -1.7 -1.44 -1.64 -1.54 -1.6 -1.62 -1.53 -1.69 -1.47 -1.76 -1.4 -1.83 -1.34 -1.89 -1.27 -1.93 -1.2 -1.96 -1.12 -1.99 -1.05 -2.01 -0.97 -2.02 -0.89 -2.01 -0.81 -2 -0.73 -1.98 -0.65 -1.95 -0.56 -1.9 -0.48 -1.84 -0.39 -1.78 -0.31 -1.69 -0.23 1.62 -14.6 2.31 0.31 2.34 0.41 2.38 0.51 2.42 0.61 2.43 0.7 2.46 0.8 2.47 0.9 2.47 0.99 2.47 1.09 2.46 1.19 2.45 1.29 2.42 1.38 2.39 1.49 2.34 1.58 2.3 1.68 2.24 1.79 2.17 1.88 2.1 1.99 2.01 2.09 1.92 2.2 1.81 2.3 1.7 2.41 1.57 2.52 1.43 2.63 1.27 2.74 1.11 2.84 0.92 2.94 0.74 3.03 0.53 3.13 0.32 3.21 0.09 3.28 -0.14 3.35 0 0zm0 -0c-0.31,4.04 -3.84,7.07 -7.89,6.76 -4.04,-0.31 -7.07,-3.84 -6.76,-7.89l14.65 1.12zm-70.98 41.27l5.64 -13.57 1.74 0.65 1.81 0.53 1.86 0.4 1.93 0.28 1.98 0.16 2.02 0.04 2.06 -0.08 2.1 -0.2 2.11 -0.32 2.11 -0.43 2.12 -0.55 2.11 -0.65 2.09 -0.76 2.07 -0.86 2.03 -0.96 1.98 -1.05 1.91 -1.14 1.85 -1.23 1.78 -1.31 1.69 -1.38 1.6 -1.45 1.5 -1.5 1.39 -1.56 1.28 -1.6 1.16 -1.65 1.03 -1.68 0.9 -1.7 0.77 -1.73 0.63 -1.75 0.5 -1.77 0.36 -1.78 0.21 -1.81 14.65 1.13 -0.35 2.98 -0.58 2.91 -0.79 2.83 -1 2.76 -1.19 2.67 -1.36 2.57 -1.52 2.47 -1.67 2.38 -1.81 2.27 -1.94 2.16 -2.05 2.06 -2.16 1.95 -2.26 1.84 -2.36 1.73 -2.44 1.62 -2.52 1.51 -2.59 1.38 -2.65 1.26 -2.7 1.13 -2.76 1.01 -2.79 0.86 -2.83 0.73 -2.86 0.58 -2.88 0.43 -2.89 0.27 -2.9 0.11 -2.91 -0.06 -2.9 -0.24 -2.88 -0.42 -2.86 -0.62 -2.81 -0.82 -2.76 -1.03zm0 0c-3.75,-1.56 -5.52,-5.86 -3.96,-9.6 1.56,-3.75 5.86,-5.52 9.6,-3.96l-5.64 13.57z"/>
   </g>
   <path class="fil0" d="M373.49 278.35c7.16,-0.63 14.75,8.06 10.93,17.75 -3.82,9.7 -17.47,12.46 -23.23,2.06 -5.14,-9.3 3,-18.99 12.29,-19.81z"/>
   <g>
    <path class="fil0" d="M380.97 582.79l-13.67 -5.38 0 -0 0.24 -0.67 0.19 -0.65 0.15 -0.64 0.1 -0.6 0.05 -0.59 0.02 -0.57 -0.02 -0.55 -0.06 -0.56 -0.08 -0.53 -0.12 -0.51 -0.15 -0.51 -0.17 -0.49 -0.21 -0.47 -0.23 -0.47 -0.25 -0.43 -0.27 -0.42 -0.3 -0.4 -0.32 -0.38 -0.33 -0.35 -0.34 -0.32 -0.35 -0.29 -0.36 -0.27 -0.37 -0.24 -0.35 -0.2 -0.34 -0.17 -0.33 -0.14 -0.32 -0.11 -0.31 -0.08 -0.28 -0.05 -0.27 -0.03 -0.26 -0.01 -0.23 0.01 -1.3 -14.64 1.41 -0.07 1.39 0.04 1.36 0.14 1.35 0.25 1.31 0.34 1.27 0.42 1.24 0.51 1.19 0.58 1.15 0.65 1.1 0.72 1.06 0.78 1.01 0.85 0.97 0.91 0.91 0.97 0.85 1.01 0.8 1.08 0.75 1.14 0.68 1.19 0.61 1.22 0.55 1.28 0.48 1.32 0.4 1.36 0.32 1.42 0.24 1.44 0.14 1.45 0.06 1.49 -0.04 1.52 -0.14 1.53 -0.24 1.54 -0.34 1.53 -0.45 1.55 -0.55 1.54 0 -0zm-41.64 3.38l12.85 -7.11 -0 -0 0.43 0.7 0.42 0.6 0.44 0.53 0.45 0.47 0.44 0.4 0.46 0.34 0.46 0.3 0.46 0.25 0.47 0.21 0.5 0.18 0.51 0.14 0.51 0.1 0.52 0.06 0.53 0.02 0.55 -0.02 0.57 -0.06 0.57 -0.09 0.57 -0.13 0.56 -0.17 0.55 -0.21 0.56 -0.26 0.54 -0.29 0.52 -0.32 0.5 -0.36 0.48 -0.39 0.47 -0.44 0.43 -0.45 0.4 -0.49 0.38 -0.53 0.34 -0.55 0.3 -0.58 0.27 -0.62 13.67 5.38 -0.67 1.56 -0.77 1.49 -0.87 1.42 -0.95 1.33 -1.03 1.26 -1.11 1.18 -1.16 1.08 -1.23 1.01 -1.28 0.92 -1.34 0.83 -1.37 0.73 -1.42 0.64 -1.46 0.55 -1.5 0.46 -1.51 0.35 -1.53 0.25 -1.55 0.15 -1.58 0.04 -1.59 -0.07 -1.6 -0.19 -1.58 -0.31 -1.56 -0.42 -1.54 -0.54 -1.52 -0.67 -1.48 -0.8 -1.43 -0.92 -1.37 -1.05 -1.31 -1.17 -1.21 -1.27 -1.14 -1.39 -1.05 -1.5 -0.95 -1.58 -0 -0zm20.8 -35.08l1.3 14.64 0 0 -0.63 0.07 -0.63 0.11 -0.62 0.15 -0.62 0.19 -0.63 0.23 -0.62 0.26 -0.59 0.29 -0.59 0.33 -0.56 0.35 -0.55 0.39 -0.52 0.41 -0.49 0.43 -0.47 0.46 -0.44 0.47 -0.39 0.48 -0.36 0.49 -0.32 0.5 -0.29 0.51 -0.25 0.5 -0.2 0.5 -0.17 0.5 -0.14 0.5 -0.09 0.48 -0.06 0.48 -0.02 0.5 0.01 0.51 0.05 0.5 0.09 0.51 0.14 0.54 0.18 0.55 0.25 0.57 0.31 0.61 -12.85 7.11 -0.77 -1.52 -0.66 -1.56 -0.54 -1.59 -0.41 -1.59 -0.29 -1.6 -0.16 -1.61 -0.04 -1.58 0.07 -1.55 0.18 -1.55 0.29 -1.52 0.39 -1.46 0.48 -1.41 0.57 -1.39 0.65 -1.33 0.72 -1.27 0.79 -1.23 0.86 -1.17 0.92 -1.12 0.98 -1.05 1.02 -1 1.1 -0.95 1.13 -0.88 1.18 -0.82 1.23 -0.77 1.26 -0.69 1.31 -0.63 1.34 -0.56 1.37 -0.49 1.42 -0.43 1.45 -0.34 1.46 -0.26 1.49 -0.18 0 0z"/>
   </g>
   <g>
    <path class="fil0" d="M434.8 610.58l-13.67 -5.38 0 0 0.25 -0.68 0.19 -0.65 0.14 -0.64 0.1 -0.61 0.05 -0.59 0.02 -0.56 -0.02 -0.55 -0.06 -0.56 -0.08 -0.52 -0.12 -0.52 -0.15 -0.5 -0.18 -0.49 -0.21 -0.49 -0.22 -0.45 -0.25 -0.43 -0.28 -0.43 -0.29 -0.39 -0.32 -0.38 -0.33 -0.36 -0.33 -0.31 -0.35 -0.29 -0.36 -0.27 -0.36 -0.24 -0.34 -0.2 -0.35 -0.17 -0.34 -0.14 -0.32 -0.11 -0.3 -0.08 -0.28 -0.05 -0.27 -0.03 -0.26 -0.01 -0.23 0.01 -1.3 -14.64 1.41 -0.07 1.39 0.04 1.36 0.14 1.35 0.25 1.31 0.34 1.27 0.43 1.23 0.5 1.2 0.58 1.16 0.66 1.09 0.72 1.05 0.78 1.01 0.85 0.97 0.92 0.9 0.97 0.85 1.01 0.81 1.09 0.74 1.12 0.68 1.19 0.62 1.24 0.54 1.26 0.48 1.32 0.4 1.37 0.32 1.4 0.24 1.44 0.14 1.45 0.06 1.49 -0.04 1.52 -0.14 1.52 -0.24 1.55 -0.34 1.53 -0.45 1.54 -0.55 1.53 0 0zm-41.63 3.38l12.85 -7.11 0 0 0.42 0.7 0.44 0.62 0.43 0.53 0.45 0.46 0.45 0.41 0.45 0.34 0.45 0.29 0.46 0.25 0.48 0.21 0.49 0.17 0.5 0.13 0.52 0.1 0.53 0.06 0.54 0.02 0.55 -0.01 0.55 -0.06 0.56 -0.09 0.56 -0.14 0.57 -0.17 0.56 -0.21 0.55 -0.25 0.53 -0.28 0.52 -0.33 0.51 -0.37 0.48 -0.39 0.46 -0.43 0.43 -0.46 0.4 -0.49 0.37 -0.52 0.34 -0.55 0.3 -0.58 0.27 -0.62 13.67 5.38 -0.67 1.56 -0.77 1.49 -0.86 1.42 -0.95 1.34 -1.03 1.26 -1.1 1.17 -1.16 1.09 -1.23 1.01 -1.27 0.91 -1.33 0.83 -1.38 0.74 -1.43 0.64 -1.46 0.55 -1.47 0.45 -1.52 0.36 -1.54 0.26 -1.56 0.15 -1.58 0.04 -1.58 -0.07 -1.58 -0.18 -1.58 -0.3 -1.57 -0.43 -1.55 -0.55 -1.51 -0.67 -1.48 -0.79 -1.43 -0.93 -1.38 -1.05 -1.29 -1.16 -1.22 -1.27 -1.14 -1.4 -1.05 -1.49 -0.95 -1.59 0 0zm20.79 -35.08l1.3 14.64 0 0 -0.63 0.07 -0.63 0.11 -0.63 0.15 -0.63 0.19 -0.62 0.22 -0.62 0.26 -0.6 0.29 -0.58 0.32 -0.58 0.36 -0.55 0.38 -0.52 0.41 -0.49 0.43 -0.46 0.45 -0.44 0.48 -0.4 0.48 -0.36 0.48 -0.33 0.51 -0.29 0.51 -0.24 0.49 -0.21 0.5 -0.17 0.51 -0.13 0.5 -0.1 0.49 -0.06 0.48 -0.02 0.5 0.01 0.49 0.05 0.5 0.1 0.53 0.14 0.54 0.18 0.55 0.25 0.57 0.31 0.61 -12.85 7.11 -0.77 -1.52 -0.66 -1.56 -0.54 -1.59 -0.41 -1.59 -0.28 -1.59 -0.17 -1.61 -0.04 -1.59 0.07 -1.55 0.18 -1.55 0.29 -1.51 0.39 -1.47 0.48 -1.41 0.56 -1.38 0.66 -1.34 0.72 -1.27 0.79 -1.22 0.86 -1.18 0.93 -1.12 0.97 -1.05 1.04 -1.01 1.09 -0.94 1.13 -0.89 1.18 -0.82 1.22 -0.76 1.27 -0.7 1.31 -0.63 1.34 -0.56 1.38 -0.5 1.41 -0.42 1.44 -0.34 1.47 -0.26 1.49 -0.18 0 0z"/>
   </g>
   <g>
    <path class="fil0" d="M495.94 594.42l-13.67 -5.39 0 0 0.24 -0.68 0.19 -0.65 0.15 -0.64 0.1 -0.6 0.05 -0.58 0.01 -0.58 -0.02 -0.57 -0.05 -0.54 -0.09 -0.53 -0.12 -0.52 -0.15 -0.51 -0.18 -0.5 -0.2 -0.47 -0.23 -0.45 -0.25 -0.44 -0.28 -0.42 -0.3 -0.4 -0.31 -0.37 -0.34 -0.35 -0.34 -0.33 -0.34 -0.29 -0.36 -0.27 -0.36 -0.23 -0.35 -0.2 -0.35 -0.17 -0.33 -0.14 -0.32 -0.11 -0.31 -0.08 -0.28 -0.05 -0.27 -0.03 -0.26 -0.01 -0.23 0.01 -1.3 -14.64 1.41 -0.07 1.39 0.04 1.36 0.14 1.35 0.25 1.31 0.34 1.27 0.42 1.24 0.51 1.18 0.58 1.15 0.65 1.11 0.72 1.06 0.78 1.02 0.86 0.96 0.91 0.91 0.96 0.86 1.03 0.8 1.07 0.74 1.13 0.68 1.19 0.62 1.24 0.55 1.28 0.47 1.31 0.4 1.36 0.32 1.4 0.24 1.44 0.15 1.47 0.05 1.48 -0.04 1.51 -0.14 1.54 -0.24 1.54 -0.34 1.53 -0.45 1.55 -0.55 1.54 0 0zm-41.64 3.37l12.85 -7.11 0 -0 0.42 0.7 0.43 0.61 0.44 0.53 0.45 0.47 0.44 0.4 0.46 0.35 0.46 0.3 0.46 0.24 0.49 0.22 0.49 0.17 0.5 0.13 0.52 0.1 0.53 0.06 0.54 0.02 0.55 -0.02 0.57 -0.05 0.55 -0.09 0.57 -0.14 0.57 -0.17 0.56 -0.21 0.56 -0.25 0.53 -0.28 0.52 -0.32 0.51 -0.37 0.49 -0.4 0.45 -0.42 0.43 -0.46 0.41 -0.5 0.37 -0.52 0.34 -0.55 0.3 -0.58 0.27 -0.62 13.67 5.39 -0.67 1.55 -0.77 1.49 -0.87 1.42 -0.95 1.34 -1.02 1.25 -1.1 1.18 -1.17 1.09 -1.22 1 -1.27 0.91 -1.34 0.83 -1.39 0.74 -1.41 0.64 -1.45 0.55 -1.49 0.45 -1.51 0.36 -1.55 0.26 -1.55 0.15 -1.57 0.04 -1.59 -0.07 -1.58 -0.18 -1.58 -0.3 -1.57 -0.43 -1.55 -0.55 -1.51 -0.67 -1.49 -0.8 -1.43 -0.93 -1.36 -1.04 -1.31 -1.17 -1.21 -1.27 -1.15 -1.4 -1.05 -1.5 -0.95 -1.58 0 -0zm20.79 -35.08l1.3 14.64 -0 0 -0.63 0.07 -0.63 0.11 -0.63 0.15 -0.62 0.19 -0.61 0.22 -0.61 0.26 -0.6 0.3 -0.59 0.33 -0.57 0.36 -0.55 0.38 -0.52 0.41 -0.5 0.43 -0.47 0.46 -0.43 0.46 -0.39 0.47 -0.37 0.5 -0.32 0.49 -0.29 0.51 -0.25 0.5 -0.2 0.5 -0.17 0.5 -0.13 0.5 -0.1 0.49 -0.06 0.5 -0.03 0.49 0.02 0.49 0.05 0.5 0.09 0.52 0.14 0.54 0.18 0.55 0.25 0.57 0.31 0.61 -12.85 7.11 -0.77 -1.52 -0.66 -1.56 -0.54 -1.59 -0.41 -1.59 -0.29 -1.6 -0.16 -1.59 -0.04 -1.59 0.07 -1.57 0.18 -1.54 0.29 -1.51 0.39 -1.47 0.48 -1.42 0.57 -1.38 0.65 -1.33 0.72 -1.28 0.79 -1.22 0.86 -1.16 0.93 -1.12 0.98 -1.06 1.03 -0.99 1.08 -0.94 1.14 -0.89 1.18 -0.82 1.22 -0.76 1.26 -0.69 1.3 -0.63 1.34 -0.57 1.38 -0.5 1.42 -0.42 1.44 -0.34 1.46 -0.26 1.49 -0.18 -0 0z"/>
   </g>
   <g>
    <path class="fil0" d="M545.37 547.45l-13.67 -5.37 0 -0.01 0.25 -0.68 0.19 -0.65 0.14 -0.62 0.1 -0.61 0.06 -0.59 0.01 -0.57 -0.02 -0.57 -0.06 -0.55 -0.08 -0.53 -0.12 -0.52 -0.15 -0.51 -0.17 -0.48 -0.2 -0.47 -0.23 -0.46 -0.26 -0.45 -0.28 -0.43 -0.28 -0.38 -0.32 -0.38 -0.33 -0.36 -0.33 -0.31 -0.35 -0.29 -0.36 -0.27 -0.36 -0.24 -0.34 -0.2 -0.35 -0.17 -0.34 -0.14 -0.32 -0.11 -0.3 -0.08 -0.28 -0.05 -0.27 -0.03 -0.26 -0.01 -0.23 0.01 -1.3 -14.64 1.41 -0.07 1.39 0.04 1.36 0.14 1.35 0.25 1.31 0.34 1.27 0.43 1.23 0.5 1.2 0.58 1.16 0.66 1.09 0.72 1.05 0.78 1.01 0.85 0.97 0.92 0.9 0.97 0.85 1.01 0.81 1.1 0.74 1.13 0.67 1.17 0.62 1.23 0.55 1.28 0.48 1.33 0.4 1.36 0.32 1.4 0.24 1.44 0.14 1.46 0.05 1.48 -0.04 1.52 -0.14 1.53 -0.24 1.53 -0.35 1.55 -0.45 1.55 -0.55 1.53 0 -0.01zm-13.67 -5.37l0 -0.01 0.11 -0.29 -0.12 0.3zm-27.95 8.75l12.85 -7.11 0 0 0.42 0.69 0.44 0.61 0.44 0.54 0.44 0.46 0.45 0.4 0.45 0.35 0.45 0.29 0.47 0.25 0.48 0.22 0.48 0.17 0.5 0.13 0.52 0.1 0.53 0.06 0.55 0.02 0.54 -0.01 0.56 -0.06 0.56 -0.09 0.57 -0.14 0.57 -0.17 0.56 -0.21 0.55 -0.25 0.53 -0.28 0.52 -0.33 0.51 -0.37 0.49 -0.4 0.45 -0.42 0.43 -0.46 0.41 -0.5 0.37 -0.52 0.33 -0.55 0.3 -0.58 0.27 -0.62 13.67 5.37 -0.67 1.55 -0.77 1.49 -0.87 1.42 -0.95 1.34 -1.02 1.25 -1.1 1.18 -1.18 1.1 -1.22 1 -1.27 0.91 -1.33 0.83 -1.38 0.74 -1.43 0.64 -1.46 0.55 -1.48 0.45 -1.52 0.36 -1.54 0.26 -1.56 0.15 -1.58 0.04 -1.58 -0.07 -1.59 -0.18 -1.58 -0.3 -1.57 -0.43 -1.55 -0.55 -1.51 -0.67 -1.48 -0.79 -1.43 -0.93 -1.37 -1.04 -1.3 -1.16 -1.23 -1.28 -1.13 -1.39 -1.05 -1.49 -0.95 -1.6 0 0zm20.79 -35.08l1.3 14.64 0 0 -0.63 0.07 -0.63 0.11 -0.63 0.15 -0.63 0.19 -0.62 0.22 -0.62 0.26 -0.6 0.29 -0.58 0.32 -0.58 0.36 -0.55 0.38 -0.52 0.41 -0.49 0.43 -0.46 0.45 -0.44 0.48 -0.4 0.48 -0.36 0.48 -0.33 0.51 -0.29 0.51 -0.24 0.49 -0.21 0.5 -0.17 0.51 -0.13 0.5 -0.1 0.49 -0.06 0.49 -0.02 0.5 0.01 0.49 0.05 0.5 0.1 0.53 0.14 0.54 0.18 0.55 0.25 0.57 0.31 0.61 -12.85 7.11 -0.77 -1.52 -0.66 -1.56 -0.54 -1.59 -0.41 -1.59 -0.28 -1.59 -0.17 -1.61 -0.04 -1.59 0.07 -1.55 0.18 -1.55 0.29 -1.51 0.39 -1.47 0.48 -1.41 0.56 -1.38 0.66 -1.34 0.72 -1.27 0.79 -1.22 0.86 -1.18 0.93 -1.12 0.97 -1.05 1.04 -1.01 1.09 -0.94 1.13 -0.89 1.18 -0.82 1.22 -0.76 1.27 -0.7 1.31 -0.63 1.34 -0.56 1.38 -0.5 1.41 -0.42 1.44 -0.34 1.47 -0.26 1.49 -0.18 0 0z"/>
   </g>
   <g>
    <path class="fil0" d="M339.57 541l-13.67 -5.39 -0 0.01 0.24 -0.68 0.19 -0.65 0.14 -0.62 0.09 -0.61 0.06 -0.6 0.02 -0.57 -0.02 -0.55 -0.06 -0.56 -0.08 -0.53 -0.12 -0.5 -0.15 -0.51 -0.17 -0.49 -0.21 -0.48 -0.23 -0.47 -0.25 -0.43 -0.28 -0.43 -0.3 -0.4 -0.31 -0.37 -0.33 -0.35 -0.34 -0.32 -0.35 -0.29 -0.36 -0.27 -0.36 -0.24 -0.34 -0.2 -0.35 -0.17 -0.34 -0.14 -0.32 -0.11 -0.31 -0.08 -0.28 -0.05 -0.27 -0.03 -0.26 -0.01 -0.23 0.01 -1.3 -14.64 1.41 -0.07 1.39 0.04 1.37 0.14 1.35 0.25 1.3 0.34 1.27 0.42 1.23 0.51 1.2 0.58 1.16 0.66 1.09 0.72 1.05 0.78 1.01 0.85 0.97 0.91 0.91 0.97 0.86 1.02 0.8 1.08 0.74 1.13 0.68 1.19 0.61 1.22 0.55 1.27 0.48 1.32 0.4 1.36 0.32 1.41 0.24 1.44 0.14 1.45 0.06 1.49 -0.04 1.52 -0.14 1.52 -0.24 1.53 -0.34 1.55 -0.45 1.55 -0.55 1.53 -0 0.01zm0 -0.01l-0 0.01 -0.18 0.46 0.19 -0.47zm-41.64 3.38l12.85 -7.11 0 0 0.42 0.7 0.43 0.61 0.43 0.53 0.45 0.47 0.45 0.4 0.45 0.35 0.46 0.29 0.47 0.25 0.47 0.21 0.48 0.17 0.5 0.13 0.52 0.1 0.53 0.06 0.53 0.02 0.56 -0.02 0.57 -0.05 0.55 -0.09 0.57 -0.14 0.56 -0.17 0.56 -0.21 0.56 -0.25 0.53 -0.28 0.52 -0.32 0.52 -0.37 0.49 -0.4 0.45 -0.42 0.43 -0.46 0.41 -0.5 0.37 -0.52 0.34 -0.55 0.3 -0.58 0.27 -0.62 13.67 5.39 -0.67 1.55 -0.77 1.49 -0.87 1.42 -0.95 1.34 -1.02 1.25 -1.1 1.18 -1.18 1.1 -1.23 1 -1.27 0.91 -1.34 0.83 -1.39 0.74 -1.41 0.64 -1.45 0.55 -1.49 0.45 -1.52 0.36 -1.55 0.26 -1.55 0.15 -1.57 0.04 -1.59 -0.07 -1.58 -0.18 -1.58 -0.3 -1.57 -0.43 -1.55 -0.55 -1.52 -0.67 -1.48 -0.8 -1.43 -0.92 -1.37 -1.04 -1.3 -1.16 -1.22 -1.28 -1.14 -1.39 -1.05 -1.5 -0.95 -1.59 0 0zm20.79 -35.08l1.3 14.64 0 0 -0.63 0.07 -0.63 0.11 -0.63 0.15 -0.63 0.19 -0.62 0.22 -0.62 0.26 -0.6 0.29 -0.58 0.32 -0.58 0.36 -0.55 0.38 -0.52 0.41 -0.49 0.43 -0.46 0.45 -0.44 0.48 -0.4 0.48 -0.36 0.48 -0.33 0.51 -0.29 0.51 -0.24 0.49 -0.21 0.5 -0.17 0.51 -0.13 0.5 -0.1 0.49 -0.06 0.48 -0.02 0.5 0.01 0.49 0.05 0.5 0.1 0.53 0.14 0.54 0.18 0.55 0.25 0.57 0.31 0.61 -12.85 7.11 -0.77 -1.52 -0.66 -1.56 -0.54 -1.59 -0.41 -1.59 -0.28 -1.59 -0.17 -1.61 -0.04 -1.59 0.07 -1.55 0.18 -1.55 0.29 -1.51 0.39 -1.47 0.48 -1.41 0.56 -1.38 0.66 -1.34 0.72 -1.27 0.79 -1.22 0.86 -1.18 0.93 -1.12 0.97 -1.05 1.04 -1.01 1.09 -0.94 1.13 -0.89 1.18 -0.82 1.22 -0.76 1.27 -0.7 1.31 -0.63 1.34 -0.56 1.38 -0.5 1.41 -0.42 1.44 -0.34 1.47 -0.26 1.49 -0.18 0 0z"/>
   </g>
   <path class="fil0" d="M481.71 293.14c-1.76,-6.98 5.61,-15.85 15.79,-13.62 10.2,2.23 15.07,15.27 5.73,22.6 -8.37,6.56 -19.23,0.06 -21.53,-8.98z"/>
   <g>
    <path class="fil0" d="M340.52 357.67c-1.13,-3.89 1.12,-7.97 5.01,-9.1 3.89,-1.13 7.97,1.12 9.1,5.01l-14.11 4.08zm98.89 55.76l0.75 14.67 0 0 -5.64 0.14 -5.49 -0.18 -5.33 -0.46 -5.17 -0.75 -5.01 -1.01 -4.85 -1.26 -4.68 -1.49 -4.51 -1.7 -4.33 -1.9 -4.17 -2.07 -4 -2.24 -3.82 -2.39 -3.66 -2.52 -3.48 -2.64 -3.32 -2.73 -3.15 -2.81 -2.98 -2.88 -2.82 -2.93 -2.66 -2.96 -2.5 -2.99 -2.34 -3 -2.19 -2.99 -2.03 -2.97 -1.87 -2.93 -1.73 -2.88 -1.58 -2.83 -1.42 -2.76 -1.28 -2.67 -1.13 -2.57 -0.99 -2.47 -0.84 -2.36 -0.7 -2.24 14.11 -4.08 0.52 1.64 0.65 1.82 0.8 1.99 0.94 2.13 1.08 2.25 1.22 2.35 1.36 2.43 1.5 2.51 1.64 2.56 1.77 2.6 1.91 2.61 2.05 2.62 2.18 2.61 2.31 2.59 2.45 2.55 2.59 2.49 2.72 2.43 2.85 2.35 2.98 2.26 3.12 2.15 3.25 2.03 3.38 1.9 3.52 1.75 3.65 1.6 3.79 1.43 3.92 1.25 4.07 1.06 4.21 0.85 4.36 0.63 4.52 0.4 4.67 0.15 4.83 -0.12 0 0zm0 0c4.05,-0.21 7.5,2.91 7.71,6.96 0.21,4.05 -2.91,7.5 -6.96,7.71l-0.75 -14.67zm82.35 -68.58l14.19 3.79 -0.55 2 -0.65 2.17 -0.75 2.34 -0.86 2.5 -0.98 2.65 -1.1 2.76 -1.23 2.88 -1.37 2.97 -1.51 3.06 -1.66 3.12 -1.8 3.17 -1.97 3.21 -2.13 3.23 -2.3 3.23 -2.48 3.23 -2.67 3.2 -2.86 3.16 -3.05 3.09 -3.25 3.02 -3.46 2.93 -3.68 2.82 -3.89 2.69 -4.11 2.54 -4.34 2.37 -4.57 2.2 -4.8 2 -5.03 1.78 -5.27 1.55 -5.51 1.3 -5.74 1.04 -5.99 0.77 -6.22 0.47 -0.75 -14.67 5.49 -0.42 5.23 -0.67 4.99 -0.91 4.74 -1.12 4.51 -1.33 4.29 -1.52 4.07 -1.69 3.87 -1.86 3.66 -2.01 3.47 -2.14 3.28 -2.27 3.1 -2.38 2.93 -2.48 2.77 -2.57 2.61 -2.64 2.44 -2.7 2.29 -2.75 2.14 -2.79 1.99 -2.8 1.85 -2.81 1.71 -2.8 1.58 -2.78 1.45 -2.74 1.33 -2.68 1.2 -2.62 1.09 -2.54 0.97 -2.44 0.86 -2.32 0.76 -2.19 0.66 -2.05 0.56 -1.89 0.48 -1.7zm0 0c1.04,-3.92 5.07,-6.24 8.99,-5.2 3.92,1.04 6.24,5.07 5.2,8.99l-14.19 -3.79z"/>
   </g>
   <g>
    <path class="fil0" d="M19.16 983.7l-5.28 13.71 -0 0 -2.85 -1.4 -2.53 -1.85 -2.14 -2.19 -1.75 -2.43 -1.4 -2.59 -1.09 -2.72 -0.83 -2.81 -0.61 -2.92 -0.4 -2.99 -0.22 -3.06 -0.06 -3.14 0.1 -3.2 0.25 -3.24 0.38 -3.28 0.51 -3.31 0.63 -3.32 0.75 -3.32 0.87 -3.3 0.98 -3.28 1.08 -3.23 1.19 -3.18 1.29 -3.1 1.38 -3.02 1.48 -2.92 1.58 -2.8 1.67 -2.68 1.78 -2.54 1.89 -2.38 2.01 -2.21 2.16 -2.02 2.31 -1.81 2.49 -1.55 7.01 12.91 -1.07 0.67 -1.18 0.92 -1.25 1.18 -1.3 1.42 -1.31 1.66 -1.31 1.87 -1.29 2.06 -1.25 2.23 -1.21 2.38 -1.15 2.51 -1.08 2.61 -1.01 2.7 -0.93 2.77 -0.84 2.81 -0.74 2.83 -0.64 2.83 -0.54 2.81 -0.43 2.77 -0.31 2.72 -0.2 2.63 -0.08 2.51 0.04 2.39 0.16 2.23 0.27 2.04 0.38 1.81 0.47 1.58 0.52 1.31 0.55 1.03 0.55 0.76 0.51 0.53 0.49 0.36 0.54 0.27 -0 0zm0 0c3.78,1.46 5.67,5.72 4.21,9.5 -1.46,3.78 -5.72,5.67 -9.5,4.21l5.29 -13.71zm42.32 -49.24l14.56 -1.96 0 0 0.21 2.82 -0.1 2.82 -0.36 2.82 -0.58 2.82 -0.78 2.83 -0.97 2.84 -1.14 2.84 -1.29 2.85 -1.44 2.85 -1.57 2.84 -1.7 2.82 -1.81 2.79 -1.92 2.76 -2.02 2.72 -2.11 2.65 -2.19 2.59 -2.26 2.51 -2.32 2.41 -2.39 2.31 -2.44 2.19 -2.49 2.06 -2.53 1.92 -2.57 1.76 -2.62 1.6 -2.65 1.41 -2.71 1.21 -2.77 0.97 -2.83 0.71 -2.9 0.4 -2.96 0.04 -3 -0.39 -2.95 -0.87 5.28 -13.71 0.68 0.2 0.81 0.1 1.01 -0.02 1.22 -0.17 1.4 -0.36 1.57 -0.55 1.71 -0.76 1.82 -0.97 1.9 -1.16 1.96 -1.35 2 -1.52 2.02 -1.67 2.02 -1.81 2.01 -1.94 1.98 -2.06 1.94 -2.15 1.89 -2.23 1.82 -2.29 1.74 -2.34 1.65 -2.38 1.55 -2.39 1.44 -2.39 1.31 -2.36 1.17 -2.33 1.03 -2.27 0.88 -2.19 0.71 -2.07 0.54 -1.95 0.37 -1.78 0.2 -1.59 0.05 -1.37 -0.08 -1.12 0 0zm0 0c-0.54,-4.02 2.28,-7.72 6.3,-8.26 4.02,-0.54 7.72,2.28 8.26,6.3l-14.56 1.96zm-27.69 -11.95l-7.01 -12.91 0 -0 2.08 -1.06 2.1 -0.92 2.1 -0.78 2.1 -0.64 2.11 -0.52 2.11 -0.38 2.08 -0.25 2.07 -0.12 2.05 0.01 2.03 0.13 2 0.26 1.95 0.38 1.9 0.49 1.86 0.6 1.81 0.71 1.75 0.82 1.68 0.92 1.63 1.01 1.56 1.11 1.48 1.2 1.41 1.28 1.32 1.37 1.24 1.44 1.16 1.52 1.07 1.59 0.97 1.66 0.87 1.71 0.77 1.77 0.66 1.82 0.56 1.89 0.44 1.92 0.32 1.96 -14.56 1.96 -0.18 -1.08 -0.24 -1.04 -0.3 -1.01 -0.36 -0.99 -0.42 -0.96 -0.47 -0.92 -0.52 -0.89 -0.57 -0.85 -0.62 -0.81 -0.66 -0.77 -0.72 -0.73 -0.75 -0.68 -0.8 -0.64 -0.83 -0.59 -0.87 -0.54 -0.91 -0.49 -0.94 -0.44 -0.97 -0.38 -1 -0.33 -1.04 -0.27 -1.06 -0.21 -1.08 -0.14 -1.11 -0.07 -1.15 -0.01 -1.17 0.07 -1.21 0.14 -1.23 0.22 -1.25 0.31 -1.29 0.4 -1.31 0.49 -1.33 0.59 -1.36 0.69 0 -0zm-0 0c-3.57,1.93 -8.03,0.61 -9.96,-2.95 -1.93,-3.57 -0.61,-8.03 2.95,-9.96l7.01 12.91z"/>
   </g>
   <g>
    <path class="fil0" d="M473.11 1265.21c0.31,-4.04 3.85,-7.07 7.89,-6.76 4.04,0.31 7.07,3.85 6.76,7.89l-14.65 -1.14zm4.45 373.08l-14.67 0.74 -0.31 -6.86 -0.27 -7.39 -0.23 -7.91 -0.19 -8.4 -0.15 -8.87 -0.11 -9.32 -0.07 -9.75 -0.03 -10.15 0.01 -10.53 0.04 -10.89 0.09 -11.23 0.13 -11.54 0.17 -11.83 0.21 -12.09 0.25 -12.34 0.29 -12.56 0.33 -12.76 0.38 -12.93 0.42 -13.08 0.46 -13.21 0.5 -13.32 0.55 -13.4 0.58 -13.46 0.62 -13.49 0.67 -13.51 0.71 -13.5 0.75 -13.47 0.8 -13.41 0.84 -13.33 0.89 -13.23 0.94 -13.1 0.97 -12.95 14.65 1.14 -0.97 12.89 -0.93 13.04 -0.88 13.17 -0.84 13.28 -0.8 13.36 -0.75 13.41 -0.71 13.45 -0.67 13.46 -0.62 13.45 -0.58 13.42 -0.54 13.35 -0.5 13.28 -0.46 13.17 -0.42 13.04 -0.38 12.89 -0.33 12.72 -0.29 12.52 -0.25 12.29 -0.21 12.05 -0.17 11.78 -0.13 11.49 -0.09 11.18 -0.04 10.84 -0.01 10.48 0.03 10.09 0.07 9.68 0.11 9.25 0.15 8.79 0.19 8.31 0.23 7.81 0.27 7.28 0.3 6.72zm0 0c0.2,4.05 -2.92,7.5 -6.97,7.7 -4.05,0.2 -7.5,-2.92 -7.7,-6.97l14.67 -0.74z"/>
   </g>
   <g>
    <path class="fil0" d="M526.81 1668.56l0.22 -14.69 -0 0 3.57 0.03 3.44 -0.03 3.3 -0.08 3.17 -0.13 3.03 -0.17 2.9 -0.23 2.77 -0.27 2.64 -0.32 2.5 -0.36 2.36 -0.4 2.22 -0.44 2.09 -0.48 1.96 -0.51 1.81 -0.54 1.68 -0.57 1.55 -0.6 1.4 -0.61 1.27 -0.63 1.13 -0.64 1.01 -0.65 0.88 -0.65 0.76 -0.64 0.63 -0.61 0.54 -0.61 0.45 -0.61 0.37 -0.58 0.3 -0.58 0.24 -0.59 0.18 -0.6 0.13 -0.65 0.09 -0.7 0.03 -0.75 14.69 0 -0.08 1.93 -0.23 1.9 -0.39 1.88 -0.56 1.86 -0.72 1.8 -0.88 1.74 -1.03 1.66 -1.17 1.56 -1.3 1.48 -1.43 1.39 -1.54 1.29 -1.63 1.2 -1.74 1.12 -1.84 1.04 -1.93 0.96 -2.03 0.89 -2.12 0.82 -2.22 0.76 -2.33 0.69 -2.42 0.64 -2.53 0.58 -2.64 0.52 -2.75 0.47 -2.85 0.41 -2.96 0.36 -3.07 0.3 -3.19 0.25 -3.31 0.19 -3.42 0.14 -3.54 0.08 -3.66 0.03 -3.79 -0.03 -0 0zm0 0c-4.05,-0.06 -7.29,-3.4 -7.24,-7.45 0.06,-4.05 3.4,-7.29 7.45,-7.24l-0.21 14.69zm-63.93 -29.91l14.69 0 0 0 0.05 1.32 0.13 1.17 0.2 1.03 0.26 0.91 0.31 0.79 0.36 0.7 0.42 0.66 0.48 0.62 0.57 0.6 0.67 0.59 0.78 0.58 0.9 0.57 1.05 0.56 1.19 0.55 1.32 0.52 1.47 0.49 1.6 0.46 1.73 0.42 1.86 0.39 1.99 0.35 2.1 0.32 2.22 0.28 2.33 0.25 2.44 0.22 2.55 0.19 2.65 0.16 2.75 0.14 2.84 0.11 2.94 0.09 3.03 0.07 3.11 0.06 3.2 0.05 -0.22 14.69 -3.25 -0.05 -3.18 -0.06 -3.11 -0.08 -3.04 -0.09 -2.97 -0.12 -2.9 -0.14 -2.82 -0.17 -2.75 -0.2 -2.68 -0.24 -2.61 -0.28 -2.54 -0.32 -2.46 -0.37 -2.39 -0.43 -2.32 -0.48 -2.26 -0.55 -2.18 -0.63 -2.11 -0.71 -2.06 -0.81 -1.98 -0.91 -1.9 -1.02 -1.83 -1.16 -1.73 -1.29 -1.62 -1.44 -1.5 -1.59 -1.35 -1.73 -1.18 -1.86 -1.01 -2 -0.81 -2.1 -0.62 -2.17 -0.44 -2.24 -0.26 -2.31 -0.08 -2.37 0 0zm0 0c0,-4.05 3.29,-7.34 7.34,-7.34 4.05,0 7.34,3.29 7.34,7.34l-14.69 0zm71.88 -33.85l-1.82 14.58 0 0 -2.62 -0.28 -2.64 -0.2 -2.63 -0.12 -2.64 -0.03 -2.64 0.05 -2.62 0.13 -2.6 0.2 -2.57 0.28 -2.54 0.35 -2.49 0.43 -2.44 0.49 -2.38 0.55 -2.32 0.62 -2.23 0.67 -2.15 0.73 -2.06 0.78 -1.96 0.83 -1.86 0.88 -1.74 0.91 -1.62 0.95 -1.49 0.97 -1.35 0.99 -1.2 0.99 -1.06 1 -0.91 0.99 -0.75 0.96 -0.61 0.93 -0.48 0.9 -0.36 0.86 -0.24 0.82 -0.14 0.81 -0.05 0.82 -14.69 0 0.14 -2.51 0.43 -2.45 0.69 -2.37 0.93 -2.25 1.14 -2.13 1.33 -2.02 1.5 -1.9 1.64 -1.77 1.77 -1.67 1.9 -1.58 2.01 -1.48 2.12 -1.39 2.22 -1.3 2.31 -1.22 2.4 -1.13 2.49 -1.06 2.57 -0.98 2.64 -0.9 2.71 -0.82 2.77 -0.74 2.83 -0.66 2.88 -0.58 2.92 -0.49 2.97 -0.42 3.01 -0.33 3.03 -0.24 3.06 -0.15 3.08 -0.05 3.09 0.04 3.1 0.14 3.1 0.23 3.09 0.34 0 0zm0 0c4.02,0.5 6.88,4.17 6.38,8.2 -0.5,4.02 -4.17,6.88 -8.2,6.38l1.82 -14.58zm57.35 33.85l-14.69 0 0 0 0.01 0.21 0.01 0.06 -0.04 -0.11 -0.11 -0.26 -0.2 -0.38 -0.3 -0.47 -0.42 -0.57 -0.53 -0.64 -0.63 -0.69 -0.75 -0.73 -0.86 -0.77 -0.97 -0.8 -1.07 -0.82 -1.18 -0.83 -1.28 -0.84 -1.39 -0.85 -1.48 -0.85 -1.58 -0.84 -1.67 -0.83 -1.78 -0.82 -1.86 -0.8 -1.95 -0.77 -2.05 -0.75 -2.14 -0.73 -2.23 -0.69 -2.31 -0.66 -2.4 -0.62 -2.5 -0.58 -2.58 -0.54 -2.66 -0.49 -2.74 -0.44 -2.83 -0.39 1.82 -14.58 3.16 0.43 3.08 0.49 3 0.55 2.91 0.61 2.82 0.66 2.75 0.71 2.67 0.76 2.58 0.8 2.49 0.85 2.4 0.88 2.32 0.92 2.23 0.95 2.13 0.98 2.05 1.01 1.96 1.04 1.87 1.06 1.78 1.09 1.69 1.11 1.6 1.13 1.51 1.15 1.41 1.16 1.33 1.19 1.24 1.22 1.15 1.24 1.05 1.26 0.96 1.3 0.87 1.37 0.75 1.41 0.64 1.48 0.5 1.57 0.34 1.68 0.12 1.77 0 0zm0 0c0,4.05 -3.29,7.34 -7.34,7.34 -4.05,0 -7.34,-3.29 -7.34,-7.34l14.69 0z"/>
   </g>
   <g>
    <path class="fil0" d="M346.68 1265.66c-0.13,-4.05 3.05,-7.45 7.1,-7.58 4.05,-0.13 7.45,3.05 7.58,7.1l-14.68 0.49zm14.68 373.36l-14.67 -0.73 0.32 -6.74 0.3 -7.29 0.29 -7.82 0.27 -8.32 0.26 -8.79 0.23 -9.24 0.22 -9.68 0.2 -10.09 0.19 -10.47 0.17 -10.82 0.14 -11.17 0.13 -11.48 0.1 -11.77 0.08 -12.04 0.06 -12.29 0.04 -12.51 0.01 -12.72 -0.01 -12.89 -0.04 -13.05 -0.06 -13.18 -0.09 -13.29 -0.11 -13.38 -0.14 -13.45 -0.17 -13.48 -0.19 -13.51 -0.23 -13.5 -0.25 -13.48 -0.29 -13.43 -0.31 -13.35 -0.34 -13.26 -0.38 -13.14 -0.41 -13 14.68 -0.49 0.41 13.05 0.38 13.18 0.35 13.3 0.31 13.39 0.29 13.46 0.25 13.51 0.23 13.53 0.19 13.54 0.17 13.52 0.14 13.47 0.11 13.41 0.09 13.32 0.06 13.21 0.04 13.08 0.01 12.92 -0.01 12.74 -0.04 12.55 -0.06 12.32 -0.08 12.07 -0.1 11.8 -0.13 11.51 -0.14 11.2 -0.17 10.86 -0.19 10.5 -0.2 10.12 -0.22 9.72 -0.24 9.29 -0.26 8.84 -0.27 8.37 -0.29 7.88 -0.31 7.37 -0.32 6.83zm0 0c-0.2,4.05 -3.65,7.17 -7.7,6.97 -4.05,-0.2 -7.17,-3.65 -6.97,-7.7l14.67 0.73z"/>
   </g>
   <g>
    <path class="fil0" d="M297.21 1653.88l0.22 14.69 -0 0 -3.79 0.03 -3.66 -0.03 -3.54 -0.08 -3.42 -0.14 -3.3 -0.19 -3.19 -0.25 -3.08 -0.3 -2.96 -0.36 -2.85 -0.41 -2.75 -0.47 -2.64 -0.52 -2.53 -0.58 -2.42 -0.64 -2.33 -0.69 -2.22 -0.76 -2.13 -0.82 -2.03 -0.89 -1.93 -0.96 -1.84 -1.04 -1.74 -1.12 -1.64 -1.2 -1.53 -1.29 -1.43 -1.39 -1.31 -1.49 -1.17 -1.56 -1.03 -1.66 -0.88 -1.74 -0.72 -1.8 -0.56 -1.86 -0.39 -1.88 -0.23 -1.9 -0.08 -1.93 14.69 0 0.03 0.75 0.09 0.7 0.13 0.65 0.18 0.6 0.24 0.59 0.3 0.58 0.37 0.58 0.45 0.61 0.54 0.6 0.64 0.62 0.76 0.64 0.87 0.64 1.01 0.65 1.13 0.64 1.27 0.63 1.4 0.61 1.55 0.6 1.68 0.57 1.81 0.54 1.96 0.51 2.1 0.48 2.22 0.44 2.36 0.4 2.5 0.36 2.63 0.32 2.77 0.27 2.9 0.23 3.03 0.17 3.17 0.13 3.3 0.08 3.44 0.03 3.57 -0.03 -0 0zm0 0c4.05,-0.06 7.39,3.18 7.45,7.24 0.06,4.05 -3.18,7.39 -7.24,7.45l-0.21 -14.69zm49.46 -15.22l14.69 0 0 0 -0.08 2.37 -0.26 2.31 -0.44 2.24 -0.62 2.17 -0.81 2.1 -1 1.98 -1.18 1.87 -1.35 1.73 -1.5 1.59 -1.63 1.44 -1.73 1.29 -1.83 1.15 -1.9 1.02 -1.98 0.91 -2.06 0.81 -2.11 0.71 -2.18 0.63 -2.26 0.55 -2.33 0.48 -2.39 0.43 -2.46 0.37 -2.54 0.32 -2.61 0.28 -2.68 0.24 -2.75 0.2 -2.82 0.17 -2.9 0.14 -2.97 0.12 -3.03 0.09 -3.11 0.08 -3.18 0.06 -3.25 0.05 -0.22 -14.69 3.2 -0.05 3.11 -0.06 3.03 -0.07 2.93 -0.09 2.84 -0.11 2.75 -0.14 2.65 -0.16 2.55 -0.19 2.44 -0.22 2.33 -0.25 2.22 -0.28 2.1 -0.32 1.99 -0.35 1.86 -0.39 1.72 -0.42 1.61 -0.46 1.47 -0.49 1.32 -0.52 1.19 -0.55 1.05 -0.56 0.91 -0.57 0.78 -0.58 0.67 -0.59 0.56 -0.6 0.48 -0.62 0.42 -0.66 0.36 -0.71 0.31 -0.79 0.26 -0.9 0.2 -1.03 0.13 -1.17 0.05 -1.32 0 0zm0 0c0,-4.05 3.29,-7.34 7.34,-7.34 4.05,0 7.34,3.29 7.34,7.34l-14.69 0zm-55.38 -19.27l-1.82 -14.58 0 0 3.1 -0.34 3.1 -0.23 3.11 -0.14 3.09 -0.04 3.08 0.05 3.06 0.15 3.04 0.24 3.01 0.33 2.97 0.41 2.93 0.5 2.88 0.58 2.83 0.66 2.77 0.74 2.71 0.82 2.64 0.9 2.57 0.98 2.49 1.06 2.4 1.13 2.31 1.22 2.22 1.3 2.12 1.39 2.01 1.48 1.9 1.58 1.77 1.67 1.64 1.78 1.49 1.9 1.33 2.02 1.14 2.14 0.93 2.25 0.69 2.37 0.43 2.45 0.14 2.51 -14.69 0 -0.05 -0.82 -0.14 -0.81 -0.24 -0.82 -0.36 -0.86 -0.48 -0.89 -0.62 -0.93 -0.75 -0.96 -0.91 -0.99 -1.06 -1 -1.2 -0.99 -1.35 -0.99 -1.49 -0.97 -1.62 -0.95 -1.74 -0.91 -1.86 -0.88 -1.96 -0.83 -2.06 -0.78 -2.16 -0.73 -2.24 -0.67 -2.31 -0.62 -2.38 -0.55 -2.44 -0.49 -2.5 -0.42 -2.54 -0.35 -2.57 -0.28 -2.6 -0.2 -2.62 -0.13 -2.64 -0.05 -2.64 0.03 -2.64 0.12 -2.63 0.2 -2.62 0.28 0 0zm0 0c-4.02,0.5 -7.7,-2.35 -8.2,-6.38 -0.5,-4.02 2.35,-7.7 6.38,-8.2l1.82 14.58zm-44.49 19.27l-14.69 0 0 0 0.12 -1.77 0.34 -1.68 0.5 -1.57 0.64 -1.49 0.76 -1.41 0.86 -1.35 0.96 -1.31 1.06 -1.27 1.15 -1.24 1.24 -1.22 1.33 -1.19 1.41 -1.16 1.51 -1.15 1.6 -1.13 1.69 -1.11 1.78 -1.09 1.87 -1.06 1.96 -1.04 2.05 -1.01 2.13 -0.98 2.23 -0.95 2.32 -0.92 2.4 -0.88 2.49 -0.85 2.58 -0.8 2.67 -0.76 2.75 -0.71 2.82 -0.66 2.91 -0.61 3 -0.55 3.08 -0.49 3.16 -0.43 1.82 14.58 -2.82 0.39 -2.74 0.44 -2.66 0.49 -2.58 0.54 -2.5 0.58 -2.4 0.62 -2.31 0.66 -2.23 0.69 -2.14 0.73 -2.05 0.75 -1.95 0.77 -1.86 0.8 -1.78 0.82 -1.68 0.83 -1.58 0.84 -1.48 0.84 -1.39 0.85 -1.28 0.84 -1.18 0.83 -1.07 0.82 -0.98 0.81 -0.86 0.77 -0.74 0.73 -0.64 0.69 -0.53 0.63 -0.42 0.56 -0.31 0.49 -0.2 0.38 -0.11 0.25 -0.04 0.11 0.01 -0.06 0.01 -0.21 0 0zm0 0c0,4.05 -3.29,7.34 -7.34,7.34 -4.05,0 -7.34,-3.29 -7.34,-7.34l14.69 0z"/>
   </g>
   <g>
    <path class="fil0" d="M253.87 606.16c2.24,-3.38 6.81,-4.29 10.18,-2.05 3.38,2.24 4.29,6.81 2.05,10.18l-12.23 -8.14zm-192.05 312.04l-12.97 -6.89 3.41 -6.22 4 -6.95 4.56 -7.63 5.08 -8.27 5.56 -8.86 6 -9.41 6.4 -9.89 6.77 -10.33 7.09 -10.71 7.37 -11.04 7.6 -11.31 7.8 -11.53 7.95 -11.7 8.07 -11.81 8.14 -11.87 8.17 -11.87 8.16 -11.82 8.11 -11.71 8.02 -11.56 7.88 -11.34 7.7 -11.07 7.49 -10.75 7.23 -10.37 6.93 -9.93 6.58 -9.44 6.2 -8.9 5.77 -8.3 5.3 -7.65 4.8 -6.94 4.23 -6.17 3.64 -5.35 3 -4.46 12.23 8.14 -3.06 4.55 -3.68 5.41 -4.27 6.21 -4.81 6.97 -5.32 7.67 -5.78 8.31 -6.2 8.9 -6.59 9.45 -6.93 9.93 -7.23 10.37 -7.48 10.74 -7.7 11.06 -7.88 11.33 -8.01 11.54 -8.1 11.7 -8.15 11.8 -8.16 11.86 -8.13 11.85 -8.06 11.78 -7.93 11.67 -7.78 11.51 -7.58 11.27 -7.33 10.99 -7.05 10.66 -6.73 10.27 -6.36 9.81 -5.95 9.32 -5.5 8.76 -5 8.14 -4.45 7.46 -3.87 6.71 -3.24 5.9zm0 0c-1.9,3.58 -6.35,4.95 -9.93,3.04 -3.58,-1.9 -4.95,-6.35 -3.04,-9.93l12.97 6.89z"/>
   </g>
   <g>
    <path class="fil0" d="M798.77 1017.9l-4.11 -14.1 -0 0 0.55 -0.22 0.51 -0.32 0.56 -0.49 0.61 -0.72 0.64 -0.98 0.63 -1.25 0.59 -1.54 0.53 -1.78 0.44 -2.01 0.35 -2.2 0.24 -2.37 0.14 -2.52 0.03 -2.64 -0.09 -2.73 -0.19 -2.8 -0.3 -2.85 -0.41 -2.88 -0.5 -2.89 -0.6 -2.86 -0.69 -2.83 -0.78 -2.77 -0.85 -2.7 -0.94 -2.59 -1 -2.47 -1.06 -2.33 -1.11 -2.16 -1.15 -1.97 -1.17 -1.76 -1.17 -1.53 -1.15 -1.27 -1.09 -1.02 -1.01 -0.75 8.06 -12.28 2.36 1.75 2.16 1.99 1.98 2.2 1.82 2.38 1.68 2.53 1.56 2.68 1.45 2.81 1.34 2.93 1.23 3.03 1.12 3.12 1.02 3.2 0.91 3.26 0.81 3.32 0.7 3.35 0.58 3.37 0.47 3.37 0.35 3.37 0.23 3.34 0.1 3.3 -0.03 3.25 -0.17 3.19 -0.32 3.12 -0.48 3.05 -0.65 2.94 -0.85 2.85 -1.07 2.74 -1.32 2.62 -1.61 2.47 -1.94 2.27 -2.31 2 -2.67 1.63 -2.96 1.15 -0 0zm0 0c-3.89,1.13 -7.98,-1.1 -9.11,-4.99 -1.13,-3.89 1.1,-7.98 4.99,-9.11l4.11 14.1zm-56.49 -69.9l14.34 3.17 0 0 -0.17 1.1 -0.07 1.36 0.07 1.6 0.22 1.82 0.38 1.98 0.53 2.13 0.69 2.25 0.84 2.35 0.97 2.42 1.11 2.47 1.23 2.5 1.35 2.51 1.45 2.51 1.54 2.48 1.62 2.44 1.69 2.38 1.75 2.31 1.8 2.21 1.84 2.1 1.86 1.98 1.87 1.84 1.86 1.67 1.84 1.51 1.8 1.32 1.73 1.11 1.64 0.9 1.52 0.68 1.37 0.47 1.2 0.28 1 0.1 0.82 -0.03 0.69 -0.14 4.11 14.1 -3.02 0.62 -3.03 0.13 -2.95 -0.29 -2.85 -0.64 -2.76 -0.94 -2.68 -1.21 -2.6 -1.43 -2.53 -1.63 -2.47 -1.81 -2.41 -1.97 -2.36 -2.13 -2.3 -2.26 -2.24 -2.39 -2.18 -2.5 -2.11 -2.6 -2.04 -2.69 -1.96 -2.76 -1.88 -2.82 -1.78 -2.88 -1.68 -2.91 -1.57 -2.94 -1.46 -2.96 -1.33 -2.96 -1.19 -2.96 -1.05 -2.94 -0.89 -2.93 -0.73 -2.91 -0.54 -2.89 -0.35 -2.85 -0.12 -2.84 0.14 -2.83 0.45 -2.79 0 0zm0 -0c0.87,-3.96 4.8,-6.46 8.76,-5.58 3.96,0.87 6.46,4.8 5.58,8.76l-14.34 -3.18zm51.02 -18.68l-8.06 12.28 0 0 -1.3 -0.8 -1.29 -0.7 -1.27 -0.6 -1.25 -0.5 -1.22 -0.41 -1.21 -0.33 -1.18 -0.24 -1.16 -0.17 -1.15 -0.09 -1.12 -0.02 -1.09 0.05 -1.08 0.12 -1.05 0.18 -1.01 0.24 -1 0.3 -0.98 0.36 -0.94 0.41 -0.9 0.47 -0.88 0.52 -0.84 0.57 -0.8 0.62 -0.77 0.67 -0.73 0.72 -0.68 0.75 -0.64 0.8 -0.59 0.84 -0.55 0.88 -0.5 0.92 -0.44 0.95 -0.38 0.99 -0.33 1.03 -0.27 1.05 -14.34 -3.17 0.49 -1.93 0.6 -1.88 0.71 -1.82 0.82 -1.77 0.91 -1.7 1.01 -1.64 1.11 -1.56 1.19 -1.49 1.28 -1.42 1.36 -1.33 1.43 -1.25 1.51 -1.16 1.58 -1.07 1.65 -0.98 1.71 -0.87 1.76 -0.77 1.8 -0.66 1.86 -0.56 1.92 -0.45 1.94 -0.33 1.97 -0.21 2.01 -0.09 2.03 0.04 2.04 0.16 2.05 0.29 2.07 0.43 2.06 0.55 2.06 0.69 2.05 0.83 2.03 0.96 2.01 1.09 1.99 1.23 0 0zm0 0c3.39,2.22 4.33,6.78 2.11,10.17 -2.22,3.39 -6.78,4.33 -10.17,2.11l8.06 -12.28z"/>
   </g>
   <g>
    <path class="fil0" d="M579.77 617.28c-1.95,-3.55 -0.65,-8.02 2.9,-9.98 3.55,-1.95 8.02,-0.65 9.98,2.9l-12.87 7.08zm191.39 311.9l-13.51 5.77 -2.73 -6.14 -3.29 -6.99 -3.81 -7.77 -4.29 -8.48 -4.73 -9.14 -5.14 -9.72 -5.51 -10.25 -5.84 -10.72 -6.12 -11.13 -6.38 -11.48 -6.6 -11.77 -6.78 -12.01 -6.92 -12.19 -7.03 -12.32 -7.1 -12.38 -7.13 -12.39 -7.12 -12.34 -7.08 -12.23 -7.01 -12.07 -6.89 -11.85 -6.74 -11.57 -6.55 -11.24 -6.32 -10.84 -6.07 -10.4 -5.77 -9.89 -5.43 -9.33 -5.05 -8.71 -4.65 -8.04 -4.21 -7.3 -3.73 -6.52 -3.21 -5.68 -2.67 -4.8 12.87 -7.08 2.61 4.68 3.17 5.61 3.7 6.47 4.19 7.27 4.64 8.01 5.05 8.69 5.42 9.32 5.76 9.89 6.07 10.39 6.32 10.85 6.55 11.24 6.74 11.58 6.9 11.86 7.01 12.08 7.09 12.25 7.14 12.35 7.14 12.41 7.11 12.41 7.04 12.34 6.94 12.22 6.8 12.05 6.62 11.81 6.41 11.53 6.16 11.19 5.87 10.78 5.55 10.33 5.19 9.82 4.79 9.25 4.37 8.63 3.9 7.96 3.41 7.24 2.88 6.49zm0 0c1.59,3.73 -0.14,8.05 -3.87,9.64 -3.73,1.59 -8.05,-0.14 -9.64,-3.87l13.51 -5.77z"/>
   </g>
   <g>
    <path class="fil0" d="M236.33 250.71c-4.04,-0.28 -7.1,-3.79 -6.82,-7.84 0.28,-4.04 3.79,-7.1 7.84,-6.82l-1.02 14.66zm288.75 -109.17l-12.92 6.99 11.97 1.36 -7.63 8.27 -7.91 7.85 -8.16 7.43 -8.39 7.02 -8.61 6.62 -8.81 6.22 -8.98 5.85 -9.15 5.48 -9.28 5.11 -9.4 4.76 -9.51 4.42 -9.59 4.09 -9.66 3.78 -9.71 3.46 -9.74 3.16 -9.75 2.87 -9.75 2.59 -9.73 2.32 -9.68 2.06 -9.63 1.81 -9.56 1.57 -9.46 1.34 -9.35 1.11 -9.23 0.9 -9.08 0.7 -8.92 0.51 -8.74 0.32 -8.54 0.15 -8.33 -0.02 -8.1 -0.17 -7.85 -0.31 -7.59 -0.45 1.02 -14.66 7.3 0.43 7.57 0.31 7.82 0.16 8.05 0.02 8.26 -0.15 8.45 -0.32 8.62 -0.49 8.78 -0.68 8.92 -0.87 9.04 -1.08 9.14 -1.29 9.23 -1.51 9.29 -1.74 9.34 -1.99 9.37 -2.23 9.38 -2.49 9.37 -2.76 9.35 -3.03 9.3 -3.32 9.24 -3.61 9.17 -3.91 9.07 -4.22 8.96 -4.54 8.83 -4.86 8.68 -5.2 8.51 -5.55 8.33 -5.89 8.14 -6.25 7.93 -6.63 7.69 -7 7.45 -7.4 7.19 -7.79 11.97 1.36zm-11.97 -1.36c2.68,-3.04 7.33,-3.33 10.37,-0.65 3.04,2.68 3.33,7.33 0.65,10.37l-11.02 -9.72zm131.65 102.36l-4.31 14.04 -2.73 -0.86 -2.91 -0.97 -3.08 -1.09 -3.24 -1.21 -3.39 -1.33 -3.54 -1.47 -3.66 -1.6 -3.79 -1.74 -3.9 -1.89 -4 -2.04 -4.09 -2.2 -4.18 -2.36 -4.25 -2.53 -4.31 -2.7 -4.37 -2.88 -4.42 -3.06 -4.45 -3.25 -4.47 -3.45 -4.48 -3.65 -4.49 -3.85 -4.49 -4.06 -4.47 -4.27 -4.44 -4.5 -4.4 -4.71 -4.36 -4.95 -4.3 -5.18 -4.24 -5.42 -4.16 -5.66 -4.07 -5.91 -3.97 -6.16 -3.87 -6.42 -3.75 -6.68 12.92 -6.99 3.53 6.29 3.63 6.03 3.73 5.78 3.82 5.55 3.9 5.3 3.96 5.07 4.03 4.85 4.07 4.63 4.12 4.41 4.15 4.2 4.17 3.99 4.19 3.79 4.19 3.59 4.19 3.41 4.17 3.21 4.15 3.04 4.12 2.86 4.08 2.69 4.03 2.52 3.97 2.36 3.9 2.2 3.82 2.05 3.73 1.9 3.63 1.76 3.53 1.62 3.41 1.49 3.28 1.36 3.15 1.24 3 1.12 2.84 1 2.68 0.89 2.5 0.79zm0 0c3.88,1.19 6.06,5.3 4.87,9.18 -1.19,3.88 -5.3,6.06 -9.18,4.87l4.31 -14.04z"/>
   </g>
   <g>
    <path class="fil0" d="M288.77 449.26c0.81,-3.97 4.69,-6.54 8.67,-5.73 3.97,0.81 6.54,4.69 5.73,8.67l-14.4 -2.94zm-166.68 774.02l-14.54 -2.08 0 0 0.91 -5.05 1.66 -7.88 2.38 -10.73 3.06 -13.44 3.71 -15.98 4.3 -18.34 4.85 -20.51 5.35 -22.5 5.8 -24.32 6.21 -25.94 6.56 -27.38 6.88 -28.63 7.14 -29.7 7.35 -30.59 7.52 -31.29 7.64 -31.8 7.72 -32.13 7.74 -32.28 7.72 -32.24 7.65 -32.01 7.53 -31.6 7.37 -31.01 7.16 -30.23 6.9 -29.27 6.59 -28.12 6.23 -26.78 5.83 -25.26 5.38 -23.55 4.88 -21.66 4.34 -19.58 3.74 -17.31 3.1 -14.85 14.4 2.94 -3.13 14.97 -3.76 17.39 -4.35 19.64 -4.9 21.7 -5.39 23.59 -5.84 25.29 -6.24 26.8 -6.59 28.14 -6.9 29.28 -7.16 30.24 -7.37 31.02 -7.53 31.61 -7.65 32.02 -7.72 32.24 -7.74 32.28 -7.72 32.13 -7.64 31.8 -7.52 31.29 -7.35 30.59 -7.14 29.7 -6.88 28.63 -6.56 27.37 -6.2 25.93 -5.8 24.3 -5.34 22.49 -4.85 20.5 -4.29 18.31 -3.7 15.94 -3.05 13.38 -2.35 10.61 -1.6 7.64 -0.78 4.25 0 0zm0 -0c-0.57,4.01 -4.29,6.81 -8.31,6.23 -4.01,-0.57 -6.81,-4.29 -6.23,-8.31l14.54 2.07zm26.92 33.34l-1.87 14.57 0 0 -3.35 -0.44 -3.18 -0.45 -3 -0.47 -2.84 -0.49 -2.69 -0.52 -2.55 -0.55 -2.42 -0.6 -2.29 -0.66 -2.18 -0.72 -2.08 -0.81 -1.98 -0.91 -1.89 -1.03 -1.78 -1.17 -1.68 -1.33 -1.54 -1.49 -1.38 -1.64 -1.19 -1.77 -1.01 -1.88 -0.8 -1.95 -0.62 -1.99 -0.46 -2.06 -0.31 -2.08 -0.19 -2.12 -0.08 -2.18 0.01 -2.24 0.09 -2.32 0.17 -2.41 0.23 -2.5 0.28 -2.61 0.34 -2.73 0.38 -2.86 0.42 -3 14.54 2.08 -0.41 2.91 -0.37 2.73 -0.31 2.56 -0.26 2.39 -0.2 2.21 -0.14 2.03 -0.07 1.85 -0.01 1.68 0.06 1.5 0.12 1.32 0.17 1.14 0.21 0.95 0.25 0.8 0.27 0.66 0.29 0.55 0.33 0.49 0.38 0.45 0.47 0.46 0.59 0.47 0.75 0.49 0.93 0.51 1.13 0.52 1.33 0.52 1.54 0.51 1.75 0.5 1.95 0.49 2.17 0.47 2.38 0.46 2.59 0.45 2.79 0.44 3.01 0.43 3.22 0.43 0 0zm0 0c4.02,0.52 6.87,4.2 6.35,8.22 -0.52,4.02 -4.2,6.87 -8.22,6.35l1.87 -14.57zm512.68 -5.68l3.12 14.36 0 0 -4.48 0.66 -6.32 0.55 -8.37 0.53 -10.36 0.52 -12.21 0.5 -13.91 0.49 -15.48 0.47 -16.88 0.45 -18.15 0.43 -19.25 0.41 -20.2 0.39 -20.99 0.37 -21.64 0.34 -22.13 0.32 -22.47 0.29 -22.65 0.26 -22.68 0.23 -22.55 0.2 -22.27 0.16 -21.83 0.13 -21.25 0.09 -20.51 0.05 -19.61 0.01 -18.56 -0.03 -17.36 -0.07 -16.01 -0.11 -14.49 -0.16 -12.84 -0.2 -11.04 -0.26 -9.1 -0.31 -7.06 -0.36 -5.03 -0.45 1.87 -14.57 4.14 0.37 6.68 0.34 8.9 0.3 10.91 0.25 12.75 0.2 14.43 0.16 15.96 0.11 17.32 0.07 18.53 0.03 19.58 -0.01 20.48 -0.05 21.23 -0.09 21.81 -0.13 22.25 -0.16 22.53 -0.2 22.66 -0.23 22.63 -0.26 22.45 -0.29 22.11 -0.32 21.62 -0.34 20.97 -0.37 20.17 -0.39 19.22 -0.41 18.11 -0.43 16.84 -0.45 15.41 -0.47 13.84 -0.49 12.1 -0.49 10.2 -0.51 8.11 -0.51 5.8 -0.51 2.95 -0.42 0 0zm0 0c3.96,-0.86 7.88,1.66 8.74,5.62 0.86,3.96 -1.66,7.88 -5.62,8.74l-3.12 -14.36zm13.98 -46.06l14.51 -2.29 0 0 0.63 4.02 0.59 3.81 0.54 3.6 0.5 3.41 0.44 3.23 0.39 3.06 0.32 2.89 0.26 2.75 0.18 2.61 0.11 2.48 0.03 2.38 -0.07 2.29 -0.17 2.2 -0.29 2.14 -0.43 2.08 -0.58 2.01 -0.75 1.97 -0.95 1.89 -1.13 1.78 -1.31 1.65 -1.47 1.49 -1.59 1.32 -1.68 1.17 -1.78 1.03 -1.84 0.9 -1.91 0.81 -2 0.73 -2.08 0.66 -2.17 0.62 -2.27 0.59 -2.38 0.57 -2.51 0.56 -3.12 -14.36 2.33 -0.52 2.14 -0.52 1.96 -0.51 1.78 -0.51 1.58 -0.51 1.38 -0.5 1.21 -0.51 1.01 -0.5 0.82 -0.48 0.67 -0.46 0.53 -0.44 0.42 -0.42 0.34 -0.43 0.31 -0.48 0.28 -0.56 0.26 -0.69 0.25 -0.86 0.21 -1.03 0.17 -1.23 0.11 -1.44 0.05 -1.64 -0.02 -1.84 -0.09 -2.05 -0.16 -2.26 -0.23 -2.46 -0.3 -2.67 -0.36 -2.88 -0.42 -3.09 -0.48 -3.31 -0.54 -3.54 -0.58 -3.76 -0.63 -3.99 0 0zm0 0c-0.63,-4 2.1,-7.77 6.11,-8.4 4,-0.63 7.77,2.1 8.4,6.11l-14.51 2.29zm-122.25 -748.54l14.56 -1.93 0.65 4.45 1.26 8.1 1.82 11.44 2.33 14.53 2.8 17.39 3.24 20 3.64 22.39 3.99 24.54 4.31 26.45 4.6 28.13 4.84 29.58 5.04 30.79 5.2 31.77 5.33 32.51 5.42 33.03 5.46 33.3 5.47 33.35 5.44 33.16 5.37 32.73 5.27 32.07 5.12 31.18 4.94 30.06 4.71 28.69 4.45 27.11 4.15 25.27 3.81 23.21 3.43 20.92 3.01 18.39 2.56 15.63 2.06 12.63 1.53 9.41 0.95 5.96 -14.51 2.29 -0.95 -5.91 -1.53 -9.39 -2.05 -12.62 -2.56 -15.62 -3.01 -18.39 -3.43 -20.91 -3.81 -23.21 -4.15 -25.27 -4.45 -27.11 -4.71 -28.69 -4.94 -30.06 -5.12 -31.18 -5.27 -32.07 -5.37 -32.73 -5.44 -33.16 -5.47 -33.35 -5.46 -33.3 -5.42 -33.03 -5.33 -32.52 -5.2 -31.77 -5.04 -30.79 -4.84 -29.58 -4.6 -28.13 -4.31 -26.46 -4 -24.54 -3.64 -22.39 -3.24 -20.02 -2.8 -17.39 -2.33 -14.55 -1.82 -11.48 -1.27 -8.18 -0.69 -4.73zm0 0c-0.53,-4.02 2.29,-7.72 6.31,-8.25 4.02,-0.53 7.72,2.29 8.25,6.31l-14.56 1.93z"/>
   </g>
   <g>
    <path class="fil0" d="M575.3 545.34c-4.03,0.45 -7.67,-2.46 -8.12,-6.49 -0.45,-4.03 2.46,-7.67 6.49,-8.12l1.63 14.6zm191.83 -51.58l12.87 -7.09 -3.44 10.26 -5.06 2.21 -5.16 2.17 -5.26 2.12 -5.35 2.07 -5.44 2.03 -5.53 1.98 -5.62 1.94 -5.71 1.89 -5.79 1.84 -5.87 1.8 -5.96 1.75 -6.03 1.71 -6.11 1.66 -6.18 1.62 -6.26 1.58 -6.33 1.53 -6.4 1.48 -6.47 1.44 -6.53 1.4 -6.6 1.36 -6.67 1.31 -6.72 1.27 -6.78 1.22 -6.84 1.18 -6.9 1.13 -6.95 1.09 -7 1.05 -7.05 1 -7.1 0.96 -7.15 0.92 -7.19 0.87 -7.24 0.83 -1.63 -14.6 7.14 -0.82 7.1 -0.86 7.05 -0.91 7 -0.95 6.95 -0.99 6.9 -1.03 6.85 -1.07 6.79 -1.12 6.73 -1.16 6.68 -1.2 6.61 -1.24 6.54 -1.29 6.48 -1.33 6.41 -1.37 6.34 -1.42 6.27 -1.46 6.19 -1.5 6.12 -1.54 6.05 -1.58 5.97 -1.63 5.89 -1.66 5.8 -1.71 5.72 -1.75 5.64 -1.79 5.54 -1.83 5.45 -1.88 5.36 -1.92 5.26 -1.96 5.17 -2 5.06 -2.04 4.97 -2.09 4.87 -2.13 -3.44 10.26zm3.44 -10.26c3.71,-1.65 8.05,0.01 9.7,3.72 1.65,3.71 -0.01,8.05 -3.72,9.7l-5.98 -13.42zm-325.61 -468.81l0 -14.69 0 0 27.35 1.09 25.57 3.19 23.84 5.19 22.18 7.09 20.57 8.86 19.02 10.52 17.52 12.05 16.09 13.44 14.73 14.7 13.44 15.84 12.23 16.84 11.12 17.72 10.07 18.48 9.13 19.12 8.25 19.64 7.47 20.06 6.76 20.36 6.14 20.54 5.6 20.6 5.13 20.56 4.74 20.41 4.43 20.13 4.2 19.75 4.04 19.24 3.96 18.62 3.96 17.88 4.02 17.02 4.16 16.03 4.37 14.92 4.64 13.68 4.96 12.3 5.33 10.81 -12.87 7.09 -5.88 -11.92 -5.32 -13.19 -4.87 -14.36 -4.52 -15.43 -4.26 -16.4 -4.09 -17.27 -3.99 -18.04 -3.98 -18.7 -4.04 -19.24 -4.18 -19.68 -4.41 -20 -4.7 -20.21 -5.06 -20.31 -5.5 -20.28 -6.03 -20.15 -6.61 -19.9 -7.27 -19.52 -8 -19.05 -8.8 -18.45 -9.67 -17.74 -10.6 -16.92 -11.62 -15.99 -12.69 -14.95 -13.84 -13.81 -15.06 -12.58 -16.36 -11.25 -17.76 -9.82 -19.25 -8.29 -20.83 -6.66 -22.52 -4.91 -24.29 -3.03 -26.16 -1.04 0 0zm0 0c-4.05,0 -7.34,-3.29 -7.34,-7.34 0,-4.05 3.29,-7.34 7.34,-7.34l0 14.69zm-381.38 465.73l-5.55 13.61 -2.86 -11.52 8.85 -11.65 8.26 -12.97 7.73 -14.2 7.28 -15.32 6.89 -16.32 6.58 -17.21 6.35 -17.99 6.2 -18.65 6.13 -19.2 6.15 -19.64 6.25 -19.97 6.44 -20.19 6.72 -20.31 7.09 -20.3 7.54 -20.2 8.09 -19.98 8.73 -19.66 9.45 -19.23 10.28 -18.69 11.19 -18.04 12.21 -17.28 13.31 -16.39 14.51 -15.4 15.79 -14.28 17.16 -13.03 18.61 -11.66 20.13 -10.17 21.72 -8.56 23.37 -6.84 25.1 -5.01 26.9 -3.08 28.77 -1.05 0 14.69 -27.69 1.01 -25.73 2.95 -23.87 4.77 -22.11 6.47 -20.46 8.07 -18.92 9.56 -17.47 10.96 -16.13 12.25 -14.89 13.46 -13.73 14.58 -12.66 15.6 -11.67 16.52 -10.76 17.34 -9.93 18.06 -9.18 18.67 -8.51 19.18 -7.92 19.57 -7.42 19.87 -7 20.04 -6.66 20.11 -6.41 20.08 -6.24 19.93 -6.16 19.68 -6.17 19.33 -6.27 18.86 -6.46 18.3 -6.74 17.62 -7.12 16.85 -7.59 15.98 -8.17 14.99 -8.85 13.9 -9.64 12.7 -2.86 -11.52zm2.86 11.52c-2.6,3.11 -7.24,3.53 -10.35,0.92 -3.11,-2.6 -3.53,-7.24 -0.92,-10.35l11.27 9.43zm211.22 37.88l-1.66 14.6 -7.68 -0.89 -7.64 -0.94 -7.61 -0.98 -7.57 -1.03 -7.52 -1.07 -7.48 -1.12 -7.44 -1.16 -7.39 -1.21 -7.33 -1.25 -7.28 -1.29 -7.23 -1.34 -7.18 -1.38 -7.12 -1.42 -7.06 -1.47 -6.99 -1.51 -6.93 -1.55 -6.87 -1.6 -6.79 -1.64 -6.73 -1.68 -6.65 -1.73 -6.58 -1.77 -6.5 -1.82 -6.42 -1.86 -6.34 -1.9 -6.26 -1.95 -6.18 -1.99 -6.09 -2.03 -6.01 -2.08 -5.92 -2.12 -5.82 -2.17 -5.73 -2.21 -5.64 -2.25 5.55 -13.61 5.46 2.19 5.56 2.14 5.66 2.11 5.76 2.06 5.85 2.02 5.94 1.98 6.03 1.94 6.12 1.9 6.2 1.86 6.29 1.82 6.37 1.78 6.45 1.73 6.53 1.69 6.61 1.66 6.67 1.61 6.75 1.57 6.81 1.53 6.88 1.49 6.95 1.44 7.01 1.4 7.07 1.36 7.13 1.32 7.19 1.27 7.23 1.23 7.29 1.19 7.34 1.14 7.38 1.1 7.43 1.06 7.47 1.02 7.51 0.97 7.55 0.93 7.59 0.89zm0 0c4.03,0.46 6.93,4.1 6.47,8.13 -0.46,4.03 -4.1,6.93 -8.13,6.47l1.66 -14.6z"/>
   </g>
  </g>
 </g>
</svg>
