<?xml version="1.0" encoding="UTF-8"?>
<!DOCTYPE svg PUBLIC "-//W3C//DTD SVG 1.1//EN" "http://www.w3.org/Graphics/SVG/1.1/DTD/svg11.dtd">
<!-- Creator: CorelDRAW Standard 2021 (64-Bit) -->
<svg xmlns="http://www.w3.org/2000/svg" xml:space="preserve" width="25.018mm" height="50.2635mm" version="1.1" style="shape-rendering:geometricPrecision; text-rendering:geometricPrecision; image-rendering:optimizeQuality; fill-rule:evenodd; clip-rule:evenodd"
viewBox="0 0 164.86 331.23"
 xmlns:xlink="http://www.w3.org/1999/xlink"
 xmlns:xodm="http://www.corel.com/coreldraw/odm/2003">
 <defs>
  <style type="text/css">
   <![CDATA[
    .str0 {stroke:#1D1D1B;stroke-width:3.34;stroke-linecap:round;stroke-linejoin:round;stroke-miterlimit:10}
    .str1 {stroke:#1D1D1B;stroke-width:3.34;stroke-linecap:round;stroke-linejoin:round;stroke-miterlimit:10}
    .fil0 {fill:none;fill-rule:nonzero}
    .fil2 {fill:#2B2A29;fill-rule:nonzero}
    .fil1 {fill:#1D1D1B;fill-rule:nonzero}
   ]]>
  </style>
 </defs>
 <g id="Layer_x0020_1">
  <metadata id="CorelCorpID_0Corel-Layer"/>
  <g id="_1579759028160">
   <path class="fil0 str0" d="M74.87 42.18c2.18,-0.41 4.48,-0.69 6.89,-0.84 26.82,-1.69 43.55,22.02 40.42,46.49 -3.22,25.2 -20.27,44.55 -48.35,41.5 -29.02,-3.15 -36.47,-29.44 -35.58,-45.84 0.52,-9.63 4.84,-21.83 14.54,-30.64"/>
   <path class="fil0 str0" d="M38.67 79.53c-5.97,-2 -14.52,4.11 -13.61,10.76 0.91,6.65 8.99,10.12 14.43,7.43"/>
   <path class="fil0 str0" d="M123.23 82.31c3.33,-0.56 10.1,2.53 9.92,8.86 -0.15,5.31 -8.34,9.2 -13.3,7.41"/>
   <path class="fil1" d="M66.38 89.87c1.59,-0.11 3.25,1.85 2.36,3.99 -0.88,2.14 -3.93,2.7 -5.17,0.37 -1.11,-2.09 0.74,-4.21 2.81,-4.36z"/>
   <path class="fil1" d="M87.42 92.5c-0.37,-1.56 1.3,-3.5 3.56,-2.97 2.26,0.53 3.29,3.45 1.19,5.04 -1.89,1.43 -4.27,-0.06 -4.75,-2.08z"/>
   <path class="fil0 str0" d="M61.14 102.86c1.37,4.02 7.98,13.64 19.6,12.48 13.09,-1.3 16.73,-12.2 17.57,-16.1"/>
   <path class="fil0 str0" d="M38.67 79.53c5.1,6.06 39.3,2.25 52.48,-12.2 12.07,10.47 25.16,12.84 31.32,11.78"/>
   <path class="fil2 str0" d="M57.66 40.99c-2.34,-9.26 10.11,-13.2 8.8,-1.79 9.75,-5.07 12.79,12.16 1.88,11.09 6.41,8.18 -9,10.43 -8.16,2.18 -3.97,6.71 -12.35,-0.99 -4.35,-5.64 -10.05,0.61 -4.89,-10.76 1.83,-5.83z"/>
   <path class="fil0 str0" d="M66.55 37.2c3.83,-4.21 8.14,-32.88 -24.04,-35.39 -33.94,-2.65 -36.91,31.94 -36.57,47.3 0.32,14.3 -0.71,30.85 -4.28,36.3 9.25,0.47 21.2,-24.05 27.43,-31.41 6.23,-7.36 17.53,-10.84 22.67,-7.87"/>
   <path class="fil0 str0" d="M58.74 124.84c-8.86,22.5 -28.23,103.13 -31.21,124.03 -1.62,11.38 107.43,10.65 106.99,-0.29 -0.44,-10.95 -30.11,-113.89 -33.53,-124.63"/>
   <path class="fil0 str0" d="M103.38 131.88c2.66,-1.93 12.98,-2.6 13.81,2.94 0.85,5.69 -11.08,6.15 -11.08,6.15 0,0 12.95,-1.22 12.95,4.82 0,6.12 -9.62,6 -9.62,6 0,0 9.28,0.12 8.65,5.39 -0.54,4.5 -6.32,3.46 -6.32,3.46"/>
   <path class="fil0 str0" d="M55.12 131.71c-6.17,-3.26 -12.02,-0.38 -12.72,3.09 -1.1,5.46 10.86,6.55 10.86,6.55 0,0 -11.63,-2.45 -12.56,3.03 -0.71,4.19 8.03,6.67 8.03,6.67 0,0 -8.09,0.69 -7.01,4.73 1.17,4.38 6.34,3.99 6.34,3.99"/>
   <path class="fil2 str0" d="M75.21 210.73c3.12,-0.62 5.89,3.08 3.73,5.47 -2.16,2.4 -5.28,2.03 -6.26,0.03 -0.99,-2.01 -0.99,-4.8 2.54,-5.5z"/>
   <path class="fil2 str1" d="M67.57 143.57c2.54,-0.51 4.46,2.02 3.49,4.47 -0.95,2.37 -5.56,2.03 -6.36,0.39 -0.8,-1.64 0,-4.28 2.88,-4.86z"/>
   <path class="fil2 str0" d="M102.17 194.24c3.26,-0.65 6.74,3.22 4.48,5.73 -2.27,2.51 -7.14,2.61 -8.17,0.5 -1.03,-2.1 0,-5.5 3.69,-6.23z"/>
   <path class="fil2 str0" d="M58.42 187.92c2.94,-0.59 6.07,2.9 4.03,5.15 -2.04,2.26 -6.42,2.35 -7.35,0.45 -0.93,-1.89 0,-4.94 3.32,-5.61z"/>
   <path class="fil2 str0" d="M93.07 153.29c2.1,-1.74 5.64,-0.38 5.47,2.39 -0.22,3.72 -3.56,4.09 -5.12,2.98 -1.57,-1.11 -2.72,-3.39 -0.35,-5.37z"/>
   <path class="fil2 str0" d="M54.24 233.87c2.54,-0 3.81,4.65 1.64,5.78 -2.16,1.13 -6.49,0.24 -6.11,-2.21 0.38,-2.44 1.4,-3.57 4.47,-3.57z"/>
   <path class="fil2 str0" d="M99 231.16c2.65,0.34 4.01,4.89 1.73,6.08 -2.28,1.18 -6.45,0.51 -6.43,-2.32 0.02,-2.6 0.77,-4.27 4.7,-3.76z"/>
   <path class="fil2 str0" d="M79.87 174.95c1.88,-2.05 6.26,-1.46 6.47,1.2 0.32,4.09 -2.29,5.02 -5.14,4.28 -1.91,-0.5 -3.61,-2.99 -1.33,-5.48z"/>
   <path class="fil0 str0" d="M65.15 257.1c-1.07,25.12 -1.94,55.34 -2.58,68.25"/>
   <path class="fil0 str0" d="M41.26 325.36c0,2.69 3.34,4.31 10.77,4.2 6.47,-0.09 10.55,-0.43 10.55,-4.2 0,-3.34 -6.19,-5.65 -11.84,-4.95 -6.02,0.75 -9.47,3.44 -9.47,4.95z"/>
   <path class="fil0 str0" d="M91.94 256.88c1.08,25.12 1.94,55.56 2.58,68.48"/>
   <path class="fil0 str0" d="M115.84 325.36c0,2.69 -3.34,4.31 -10.77,4.2 -6.47,-0.09 -10.55,-0.43 -10.55,-4.2 0,-3.34 6.19,-5.65 11.84,-4.95 6.02,0.75 9.47,3.44 9.47,4.95z"/>
   <path class="fil0 str0" d="M157.83 203.01c4.29,2.18 7.63,14.59 3.47,16.32 -4.11,1.71 -12.32,-7.78 -11.84,-12.26 0.39,-3.62 4.26,-6.15 8.37,-4.06z"/>
   <path class="fil0 str0" d="M117.05 149.72c6.59,9.35 27.85,40.05 35.25,53.16"/>
   <path class="fil0 str0" d="M10.51 204.81c-3.87,2.85 -5.15,15.64 -0.76,16.67 4.33,1.02 10.89,-9.68 9.69,-14.02 -0.97,-3.51 -5.21,-5.38 -8.92,-2.65z"/>
   <path class="fil0 str0" d="M43.59 148.78c-4.98,10.3 -22.48,40.86 -27.65,54.99"/>
  </g>
 </g>
</svg>
