<?xml version="1.0" encoding="UTF-8"?>
<!DOCTYPE svg PUBLIC "-//W3C//DTD SVG 1.1//EN" "http://www.w3.org/Graphics/SVG/1.1/DTD/svg11.dtd">
<!-- Creator: CorelDRAW Standard 2021 (64-Bit) -->
<svg xmlns="http://www.w3.org/2000/svg" xml:space="preserve" width="25.2443mm" height="50.718mm" version="1.1" style="shape-rendering:geometricPrecision; text-rendering:geometricPrecision; image-rendering:optimizeQuality; fill-rule:evenodd; clip-rule:evenodd"
viewBox="0 0 193.95 389.66"
 xmlns:xlink="http://www.w3.org/1999/xlink"
 xmlns:xodm="http://www.corel.com/coreldraw/odm/2003">
 <defs>
  <style type="text/css">
   <![CDATA[
    .str1 {stroke:#1D1D1B;stroke-width:3.92;stroke-linecap:round;stroke-linejoin:round;stroke-miterlimit:10}
    .str0 {stroke:#1D1D1B;stroke-width:3.92;stroke-linecap:round;stroke-linejoin:round;stroke-miterlimit:10}
    .fil0 {fill:none;fill-rule:nonzero}
    .fil1 {fill:#1D1D1B;fill-rule:nonzero}
   ]]>
  </style>
 </defs>
 <g id="Layer_x0020_1">
  <metadata id="CorelCorpID_0Corel-Layer"/>
  <g id="_1578227271392">
   <path class="fil0 str0" d="M105.87 49.62c-2.57,-0.48 -5.27,-0.82 -8.1,-0.99 -31.55,-1.98 -51.23,25.91 -47.55,54.7 3.79,29.65 23.85,52.4 56.88,48.82 34.14,-3.7 42.9,-34.63 41.85,-53.93 -0.62,-11.33 -5.7,-25.68 -17.11,-36.05"/>
   <path class="fil0 str0" d="M148.45 93.56c7.02,-2.35 17.09,4.83 16.01,12.66 -1.07,7.83 -10.57,11.9 -16.97,8.74"/>
   <path class="fil0 str0" d="M48.98 96.82c-3.91,-0.66 -11.89,2.98 -11.68,10.42 0.18,6.24 9.81,10.83 15.65,8.72"/>
   <path class="fil1" d="M115.86 105.73c-1.88,-0.13 -3.82,2.17 -2.78,4.69 1.04,2.52 4.62,3.18 6.08,0.43 1.31,-2.45 -0.87,-4.95 -3.3,-5.13z"/>
   <path class="fil1" d="M91.11 108.82c0.43,-1.83 -1.53,-4.12 -4.19,-3.49 -2.65,0.63 -3.87,4.06 -1.4,5.93 2.22,1.68 5.03,-0.07 5.58,-2.44z"/>
   <path class="fil0 str0" d="M122.02 121.01c-1.62,4.72 -9.38,16.04 -23.06,14.68 -15.4,-1.53 -19.69,-14.35 -20.67,-18.94"/>
   <path class="fil0 str0" d="M148.45 93.56c-6,7.13 -46.23,2.65 -61.74,-14.36 -14.19,12.32 -29.6,15.1 -36.84,13.86"/>
   <path class="fil0 str0" d="M126.12 48.22c2.75,-10.9 -11.89,-15.52 -10.36,-2.1 -11.48,-5.97 -15.05,14.31 -2.21,13.05 -7.54,9.63 10.59,12.28 9.6,2.56 4.67,7.89 14.53,-1.16 5.12,-6.64 11.82,0.72 5.75,-12.66 -2.15,-6.86z"/>
   <path class="fil0 str0" d="M115.66 43.76c-4.5,-4.96 -9.58,-38.68 28.28,-41.63 39.92,-3.12 43.42,37.57 43.02,55.64 -0.38,16.82 0.84,36.29 5.03,42.7 -10.89,0.55 -24.94,-28.29 -32.27,-36.95 -7.33,-8.66 -20.62,-12.75 -26.67,-9.26"/>
   <path class="fil0 str0" d="M124.85 146.87c10.42,26.47 33.21,121.32 36.72,145.91 1.91,13.39 -126.38,12.53 -125.87,-0.34 0.52,-12.88 35.43,-133.98 39.44,-146.61"/>
   <path class="fil0 str0" d="M72.34 155.15c-3.13,-2.27 -15.27,-3.06 -16.25,3.46 -1,6.7 13.04,7.23 13.04,7.23 0,0 -15.24,-1.43 -15.24,5.67 0,7.2 11.32,7.06 11.32,7.06 0,0 -10.92,0.14 -10.18,6.34 0.64,5.29 7.44,4.07 7.44,4.07"/>
   <path class="fil0 str0" d="M129.1 154.95c7.26,-3.83 14.14,-0.45 14.96,3.64 1.29,6.42 -12.78,7.71 -12.78,7.71 0,0 13.68,-2.88 14.78,3.56 0.84,4.93 -9.44,7.85 -9.44,7.85 0,0 9.52,0.81 8.24,5.56 -1.38,5.15 -7.45,4.7 -7.45,4.7"/>
   <path class="fil0 str0" d="M105.47 247.9c-3.67,-0.73 -6.93,3.62 -4.38,6.44 2.54,2.82 6.21,2.39 7.37,0.03 1.16,-2.37 1.16,-5.64 -2.98,-6.47z"/>
   <path class="fil0 str1" d="M114.46 168.9c-2.99,-0.6 -5.25,2.38 -4.1,5.26 1.11,2.79 6.54,2.39 7.49,0.46 0.95,-1.93 0,-5.04 -3.38,-5.72z"/>
   <path class="fil0 str0" d="M73.75 228.51c-3.84,-0.77 -7.93,3.79 -5.27,6.74 2.66,2.95 8.39,3.06 9.61,0.59 1.22,-2.47 0,-6.47 -4.34,-7.33z"/>
   <path class="fil0 str0" d="M125.22 221.07c-3.46,-0.69 -7.14,3.41 -4.74,6.06 2.4,2.66 7.55,2.76 8.65,0.53 1.09,-2.22 0,-5.82 -3.91,-6.6z"/>
   <path class="fil0 str0" d="M84.46 180.33c-2.47,-2.05 -6.63,-0.45 -6.44,2.81 0.26,4.38 4.18,4.82 6.03,3.5 1.84,-1.31 3.2,-3.99 0.41,-6.31z"/>
   <path class="fil0 str0" d="M130.14 275.12c-2.99,-0 -4.48,5.47 -1.93,6.8 2.55,1.33 7.63,0.28 7.19,-2.6 -0.44,-2.87 -1.64,-4.19 -5.26,-4.2z"/>
   <path class="fil0 str0" d="M77.49 271.94c-3.12,0.4 -4.71,5.75 -2.03,7.15 2.68,1.39 7.59,0.6 7.56,-2.73 -0.03,-3.06 -0.91,-5.02 -5.53,-4.42z"/>
   <path class="fil0 str0" d="M99.99 205.81c-2.21,-2.42 -7.37,-1.72 -7.61,1.41 -0.38,4.82 2.69,5.91 6.04,5.03 2.24,-0.58 4.24,-3.52 1.57,-6.45z"/>
   <path class="fil0 str0" d="M117.3 302.46c1.26,29.55 2.28,65.1 3.04,80.3"/>
   <path class="fil0 str0" d="M145.41 382.75c0,3.17 -3.92,5.07 -12.66,4.94 -7.61,-0.11 -12.41,-0.51 -12.41,-4.94 0,-3.92 7.28,-6.65 13.93,-5.82 7.08,0.89 11.15,4.04 11.15,5.82z"/>
   <path class="fil0 str0" d="M85.79 302.2c-1.27,29.55 -2.28,65.36 -3.04,80.56"/>
   <path class="fil0 str0" d="M57.68 382.75c0,3.17 3.92,5.07 12.66,4.94 7.61,-0.11 12.41,-0.51 12.41,-4.94 0,-3.92 -7.28,-6.65 -13.93,-5.82 -7.08,0.89 -11.15,4.04 -11.15,5.82z"/>
   <path class="fil0 str0" d="M8.28 238.83c-5.04,2.56 -8.98,17.17 -4.08,19.2 4.83,2.02 14.5,-9.15 13.93,-14.42 -0.46,-4.25 -5.02,-7.24 -9.85,-4.78z"/>
   <path class="fil0 str0" d="M56.25 176.13c-7.76,11 -32.76,47.11 -41.47,62.53"/>
   <path class="fil0 str0" d="M181.59 240.94c4.56,3.35 6.06,18.4 0.9,19.61 -5.1,1.2 -12.81,-11.39 -11.4,-16.5 1.15,-4.13 6.13,-6.33 10.5,-3.12z"/>
   <path class="fil0 str0" d="M142.67 175.03c5.86,12.12 26.44,48.06 32.53,64.7"/>
  </g>
 </g>
</svg>
