<?xml version="1.0" encoding="UTF-8"?>
<!DOCTYPE svg PUBLIC "-//W3C//DTD SVG 1.1//EN" "http://www.w3.org/Graphics/SVG/1.1/DTD/svg11.dtd">
<!-- Creator: CorelDRAW Standard 2021 (64-Bit) -->
<svg xmlns="http://www.w3.org/2000/svg" xml:space="preserve" width="22.2674mm" height="41.4761mm" version="1.1" style="shape-rendering:geometricPrecision; text-rendering:geometricPrecision; image-rendering:optimizeQuality; fill-rule:evenodd; clip-rule:evenodd"
viewBox="0 0 285.66 532.08"
 xmlns:xlink="http://www.w3.org/1999/xlink"
 xmlns:xodm="http://www.corel.com/coreldraw/odm/2003">
 <defs>
  <style type="text/css">
   <![CDATA[
    .fil0 {fill:#1D1D1B;fill-rule:nonzero}
   ]]>
  </style>
 </defs>
 <g id="Layer_x0020_1">
  <metadata id="CorelCorpID_0Corel-Layer"/>
  <g id="petite_x0020_fille">
   <g>
    <path class="fil0" d="M214.07 129.5c0,-1.97 1.59,-3.56 3.56,-3.56 1.97,0 3.56,1.59 3.56,3.56l-7.12 0zm5.27 18.17l-6.97 -1.43 0 0 0.11 -0.52 0.1 -0.53 0.1 -0.52 0.09 -0.52 0.09 -0.53 0.09 -0.52 0.09 -0.53 0.08 -0.52 0.08 -0.52 0.08 -0.53 0.07 -0.52 0.07 -0.53 0.07 -0.53 0.06 -0.52 0.06 -0.52 0.05 -0.52 0.05 -0.53 0.05 -0.52 0.04 -0.52 0.04 -0.52 0.04 -0.52 0.03 -0.53 0.03 -0.52 0.03 -0.52 0.02 -0.52 0.02 -0.52 0.02 -0.52 0.01 -0.52 0.01 -0.52 0.01 -0.52 0.01 -0.52 0 -0.52 7.12 0 -0 0.56 -0.01 0.57 -0.01 0.56 -0.01 0.56 -0.02 0.57 -0.02 0.57 -0.02 0.56 -0.03 0.57 -0.03 0.57 -0.03 0.57 -0.04 0.56 -0.04 0.57 -0.05 0.57 -0.05 0.57 -0.05 0.57 -0.06 0.57 -0.06 0.57 -0.06 0.57 -0.07 0.57 -0.07 0.57 -0.07 0.57 -0.08 0.57 -0.08 0.57 -0.08 0.57 -0.09 0.57 -0.09 0.57 -0.1 0.57 -0.1 0.57 -0.1 0.57 -0.11 0.57 -0.11 0.57 -0.12 0.57 0 0zm0 -0c-0.4,1.93 -2.28,3.17 -4.2,2.77 -1.93,-0.4 -3.17,-2.28 -2.77,-4.2l6.97 1.43zm-99.88 73.11l1.3 -7 0 0 4.63 0.75 4.52 0.51 4.42 0.28 4.3 0.05 4.19 -0.17 4.08 -0.39 3.97 -0.6 3.86 -0.8 3.75 -1 3.63 -1.19 3.53 -1.38 3.41 -1.56 3.3 -1.74 3.19 -1.91 3.07 -2.07 2.96 -2.24 2.85 -2.4 2.73 -2.55 2.61 -2.7 2.5 -2.84 2.37 -2.99 2.25 -3.12 2.13 -3.25 2.01 -3.38 1.88 -3.5 1.75 -3.61 1.62 -3.72 1.49 -3.82 1.35 -3.92 1.22 -4.02 1.08 -4.1 0.94 -4.19 6.97 1.43 -1 4.43 -1.15 4.36 -1.29 4.27 -1.44 4.18 -1.59 4.08 -1.73 3.98 -1.88 3.88 -2.02 3.76 -2.16 3.64 -2.31 3.52 -2.45 3.39 -2.58 3.25 -2.72 3.11 -2.86 2.95 -3 2.8 -3.13 2.63 -3.26 2.47 -3.4 2.29 -3.52 2.11 -3.65 1.92 -3.78 1.72 -3.9 1.52 -4.02 1.31 -4.13 1.1 -4.24 0.88 -4.36 0.65 -4.47 0.42 -4.57 0.19 -4.67 -0.05 -4.77 -0.3 -4.87 -0.55 -4.97 -0.8 0 0zm0 0c-1.93,-0.36 -3.21,-2.22 -2.85,-4.15 0.36,-1.93 2.22,-3.21 4.15,-2.85l-1.3 7zm-62.5 -93.24l7.06 0.92 -0.32 2.78 -0.23 2.88 -0.14 2.97 -0.05 3.05 0.05 3.11 0.16 3.17 0.27 3.21 0.38 3.24 0.5 3.26 0.63 3.27 0.76 3.28 0.89 3.26 1.03 3.24 1.18 3.21 1.33 3.17 1.48 3.11 1.64 3.05 1.8 2.98 1.96 2.9 2.14 2.81 2.31 2.71 2.5 2.6 2.69 2.48 2.88 2.36 3.08 2.22 3.29 2.08 3.51 1.93 3.73 1.76 3.96 1.59 4.2 1.41 4.45 1.21 4.7 1.01 -1.3 7 -5.08 -1.09 -4.83 -1.31 -4.59 -1.54 -4.35 -1.74 -4.12 -1.95 -3.89 -2.13 -3.66 -2.31 -3.44 -2.48 -3.21 -2.63 -3 -2.77 -2.79 -2.9 -2.58 -3.02 -2.38 -3.12 -2.18 -3.21 -1.99 -3.3 -1.8 -3.36 -1.62 -3.42 -1.45 -3.47 -1.28 -3.5 -1.12 -3.53 -0.97 -3.54 -0.82 -3.54 -0.68 -3.54 -0.54 -3.52 -0.41 -3.49 -0.29 -3.45 -0.17 -3.4 -0.06 -3.35 0.05 -3.28 0.16 -3.2 0.25 -3.11 0.34 -3.02zm0 0c0.25,-1.95 2.04,-3.32 3.99,-3.07 1.95,0.25 3.32,2.04 3.07,3.99l-7.06 -0.92z"/>
   </g>
   <g>
    <path class="fil0" d="M60.5 133.47c1.92,0.44 3.11,2.35 2.68,4.26 -0.44,1.92 -2.35,3.11 -4.26,2.68l1.59 -6.94zm-19.37 24.46l-6.92 1.66 0 0 -0.28 -1.42 -0.17 -1.42 -0.06 -1.41 0.05 -1.39 0.15 -1.37 0.25 -1.35 0.34 -1.32 0.42 -1.29 0.51 -1.26 0.58 -1.22 0.65 -1.18 0.72 -1.14 0.78 -1.09 0.84 -1.05 0.89 -1 0.94 -0.95 0.99 -0.9 1.04 -0.85 1.08 -0.79 1.12 -0.73 1.15 -0.67 1.19 -0.61 1.22 -0.54 1.25 -0.47 1.27 -0.4 1.3 -0.32 1.32 -0.23 1.33 -0.14 1.35 -0.05 1.35 0.04 1.36 0.15 1.35 0.25 -1.59 6.94 -0.81 -0.15 -0.82 -0.09 -0.83 -0.03 -0.84 0.03 -0.85 0.09 -0.86 0.15 -0.86 0.21 -0.86 0.27 -0.86 0.32 -0.85 0.38 -0.84 0.43 -0.82 0.48 -0.8 0.53 -0.78 0.57 -0.75 0.61 -0.72 0.65 -0.68 0.69 -0.64 0.72 -0.6 0.75 -0.55 0.77 -0.5 0.79 -0.45 0.81 -0.4 0.83 -0.34 0.84 -0.28 0.85 -0.22 0.85 -0.16 0.85 -0.1 0.86 -0.03 0.86 0.03 0.86 0.1 0.86 0.17 0.87 0 0zm0 0c0.46,1.91 -0.72,3.83 -2.63,4.29 -1.91,0.46 -3.83,-0.72 -4.29,-2.63l6.92 -1.66zm22.29 10.87l3.76 6.04 -1.15 0.66 -1.19 0.56 -1.21 0.47 -1.23 0.38 -1.25 0.29 -1.26 0.21 -1.27 0.12 -1.27 0.04 -1.27 -0.04 -1.27 -0.11 -1.26 -0.18 -1.25 -0.25 -1.24 -0.32 -1.22 -0.39 -1.2 -0.45 -1.18 -0.51 -1.15 -0.58 -1.13 -0.63 -1.1 -0.69 -1.06 -0.75 -1.03 -0.81 -0.99 -0.86 -0.94 -0.91 -0.9 -0.97 -0.84 -1.02 -0.79 -1.07 -0.73 -1.12 -0.67 -1.17 -0.6 -1.22 -0.53 -1.26 -0.45 -1.31 -0.37 -1.35 6.92 -1.66 0.25 0.9 0.31 0.88 0.36 0.86 0.41 0.83 0.46 0.8 0.5 0.78 0.55 0.75 0.59 0.71 0.63 0.69 0.67 0.65 0.7 0.62 0.74 0.58 0.76 0.54 0.79 0.5 0.81 0.46 0.83 0.41 0.84 0.37 0.86 0.32 0.86 0.27 0.86 0.22 0.86 0.17 0.86 0.13 0.85 0.07 0.84 0.02 0.83 -0.03 0.81 -0.08 0.8 -0.13 0.78 -0.18 0.75 -0.23 0.73 -0.28 0.71 -0.33 0.68 -0.39zm0 0c1.67,-1.04 3.87,-0.53 4.9,1.14 1.04,1.67 0.53,3.87 -1.14,4.9l-3.76 -6.04z"/>
   </g>
   <g>
    <path class="fil0" d="M216.28 149.36c-1.97,-0.05 -3.52,-1.68 -3.47,-3.65 0.05,-1.97 1.68,-3.52 3.65,-3.47l-0.18 7.12zm18.66 18.57l-6.95 -1.57 -0 0.01 0.16 -0.83 0.09 -0.81 0.03 -0.8 -0.02 -0.8 -0.07 -0.78 -0.12 -0.77 -0.17 -0.76 -0.22 -0.76 -0.26 -0.75 -0.31 -0.74 -0.34 -0.72 -0.38 -0.7 -0.42 -0.69 -0.45 -0.67 -0.48 -0.65 -0.51 -0.62 -0.53 -0.6 -0.55 -0.57 -0.57 -0.54 -0.58 -0.51 -0.58 -0.47 -0.59 -0.43 -0.59 -0.4 -0.58 -0.35 -0.57 -0.31 -0.55 -0.27 -0.53 -0.23 -0.5 -0.18 -0.46 -0.14 -0.41 -0.09 -0.36 -0.06 -0.3 -0.02 0.18 -7.12 0.91 0.06 0.9 0.14 0.89 0.21 0.88 0.26 0.88 0.32 0.87 0.37 0.87 0.42 0.86 0.47 0.85 0.52 0.84 0.57 0.83 0.61 0.82 0.66 0.8 0.7 0.78 0.74 0.76 0.78 0.74 0.82 0.7 0.86 0.67 0.9 0.64 0.94 0.6 0.98 0.55 1.02 0.51 1.06 0.45 1.09 0.4 1.13 0.33 1.16 0.26 1.19 0.19 1.23 0.11 1.25 0.03 1.27 -0.06 1.29 -0.15 1.31 -0.25 1.31 -0 0.01zm0 -0.01c-0.43,1.92 -2.33,3.13 -4.25,2.7 -1.92,-0.43 -3.13,-2.33 -2.7,-4.25l6.95 1.54zm-30.39 10.6l3.64 -6.12 0.61 0.33 0.64 0.3 0.67 0.27 0.7 0.23 0.73 0.19 0.75 0.16 0.77 0.12 0.79 0.08 0.8 0.05 0.81 0.01 0.81 -0.03 0.81 -0.07 0.81 -0.11 0.8 -0.14 0.79 -0.18 0.77 -0.21 0.75 -0.25 0.73 -0.28 0.7 -0.31 0.67 -0.34 0.64 -0.37 0.6 -0.4 0.56 -0.42 0.52 -0.44 0.48 -0.46 0.43 -0.48 0.39 -0.5 0.34 -0.52 0.3 -0.54 0.25 -0.55 0.21 -0.58 0.16 -0.6 6.95 1.57 -0.32 1.17 -0.41 1.13 -0.49 1.08 -0.57 1.02 -0.64 0.97 -0.71 0.91 -0.77 0.85 -0.82 0.8 -0.87 0.74 -0.91 0.68 -0.95 0.62 -0.98 0.57 -1.01 0.52 -1.04 0.46 -1.06 0.41 -1.08 0.36 -1.1 0.3 -1.11 0.25 -1.13 0.2 -1.13 0.15 -1.14 0.1 -1.15 0.04 -1.15 -0.01 -1.14 -0.07 -1.14 -0.12 -1.13 -0.18 -1.12 -0.24 -1.11 -0.3 -1.09 -0.36 -1.07 -0.42 -1.04 -0.49 -1.01 -0.56zm0 0c-1.69,-1 -2.24,-3.19 -1.24,-4.88 1,-1.69 3.19,-2.24 4.88,-1.24l-3.64 6.12z"/>
   </g>
   <path class="fil0" d="M114.2 137.58c2.97,-0.19 6.02,3.5 4.33,7.47 -1.71,3.98 -7.39,4.96 -9.65,0.59 -2.03,-3.92 1.45,-7.83 5.32,-8.07z"/>
   <path class="fil0" d="M153.36 142.9c-0.64,-2.91 2.52,-6.51 6.71,-5.46 4.18,1.04 6.06,6.5 2.11,9.43 -3.54,2.62 -7.97,-0.2 -8.82,-3.97z"/>
   <g>
    <path class="fil0" d="M96.4 164.2c-0.49,-1.9 0.65,-3.85 2.55,-4.34 1.9,-0.49 3.85,0.65 4.34,2.55l-6.89 1.79zm38.04 21.51l0.17 7.12 -0 0 -2.2 -0.01 -2.14 -0.13 -2.08 -0.24 -2.02 -0.35 -1.95 -0.45 -1.88 -0.54 -1.82 -0.63 -1.75 -0.72 -1.68 -0.79 -1.61 -0.86 -1.54 -0.92 -1.47 -0.97 -1.4 -1.02 -1.33 -1.07 -1.27 -1.1 -1.2 -1.13 -1.13 -1.16 -1.07 -1.17 -1.01 -1.19 -0.94 -1.19 -0.88 -1.2 -0.82 -1.19 -0.76 -1.18 -0.7 -1.17 -0.64 -1.14 -0.58 -1.12 -0.53 -1.09 -0.47 -1.06 -0.42 -1.02 -0.36 -0.98 -0.31 -0.94 -0.26 -0.9 6.89 -1.79 0.17 0.6 0.22 0.68 0.27 0.75 0.33 0.8 0.38 0.86 0.43 0.89 0.48 0.93 0.54 0.96 0.59 0.98 0.64 0.99 0.69 1 0.74 1.01 0.79 1 0.84 1 0.9 0.99 0.94 0.96 1 0.94 1.05 0.91 1.1 0.88 1.14 0.84 1.2 0.79 1.25 0.75 1.3 0.69 1.35 0.64 1.4 0.57 1.45 0.51 1.51 0.44 1.57 0.36 1.63 0.28 1.69 0.2 1.75 0.11 1.82 0.01 -0 0zm0 0c1.97,-0.04 3.6,1.51 3.64,3.48 0.04,1.97 -1.51,3.6 -3.48,3.64l-0.16 -7.12zm31.6 -24.9l6.82 2.02 -0.24 0.77 -0.28 0.84 -0.32 0.91 -0.36 0.96 -0.41 1.02 -0.46 1.06 -0.51 1.11 -0.56 1.14 -0.62 1.17 -0.68 1.2 -0.74 1.22 -0.8 1.23 -0.87 1.24 -0.93 1.24 -1 1.23 -1.08 1.22 -1.15 1.2 -1.23 1.18 -1.3 1.15 -1.39 1.11 -1.47 1.06 -1.55 1.01 -1.64 0.95 -1.72 0.88 -1.81 0.81 -1.9 0.73 -1.99 0.64 -2.07 0.55 -2.16 0.45 -2.25 0.35 -2.34 0.23 -2.43 0.12 -0.17 -7.12 2.07 -0.1 1.97 -0.2 1.88 -0.29 1.79 -0.37 1.7 -0.45 1.62 -0.52 1.54 -0.59 1.47 -0.66 1.39 -0.71 1.32 -0.77 1.25 -0.81 1.19 -0.86 1.12 -0.9 1.06 -0.93 1 -0.96 0.94 -0.99 0.89 -1.01 0.83 -1.02 0.78 -1.03 0.72 -1.04 0.67 -1.04 0.62 -1.03 0.57 -1.01 0.53 -1 0.48 -0.97 0.43 -0.94 0.39 -0.91 0.35 -0.87 0.31 -0.82 0.27 -0.76 0.23 -0.7 0.2 -0.64zm0 0c0.56,-1.88 2.54,-2.96 4.42,-2.4 1.88,0.56 2.96,2.54 2.4,4.42l-6.82 -2.02z"/>
   </g>
   <g>
    <path class="fil0" d="M82.43 67.04l3.88 5.97 -0 0 -0.93 0.58 -0.94 0.55 -0.95 0.52 -0.95 0.48 -0.96 0.45 -0.96 0.41 -0.96 0.38 -0.96 0.35 -0.95 0.32 -0.95 0.28 -0.94 0.25 -0.94 0.22 -0.93 0.19 -0.91 0.15 -0.91 0.12 -0.9 0.09 -0.88 0.06 -0.87 0.02 -0.85 -0.01 -0.84 -0.04 -0.83 -0.08 -0.82 -0.12 -0.79 -0.16 -0.78 -0.2 -0.76 -0.25 -0.74 -0.3 -0.72 -0.35 -0.69 -0.41 -0.66 -0.48 -0.63 -0.55 -0.58 -0.62 -0.51 -0.69 5.96 -3.89 0.03 0.04 0.05 0.06 0.09 0.08 0.13 0.09 0.18 0.11 0.23 0.11 0.28 0.11 0.33 0.11 0.38 0.1 0.42 0.08 0.46 0.07 0.5 0.05 0.54 0.03 0.57 0.01 0.6 -0.02 0.62 -0.04 0.65 -0.07 0.67 -0.09 0.69 -0.12 0.71 -0.14 0.72 -0.17 0.73 -0.19 0.74 -0.22 0.75 -0.25 0.76 -0.28 0.76 -0.3 0.76 -0.33 0.76 -0.36 0.76 -0.39 0.76 -0.41 0.75 -0.44 0.75 -0.47 -0 0zm0 -0c1.65,-1.07 3.85,-0.6 4.92,1.05 1.07,1.65 0.6,3.85 -1.05,4.92l-3.87 -5.97zm17.49 -15.69l6.43 -3.06 0 0 0.44 1.21 0.21 1.24 -0.01 1.21 -0.18 1.15 -0.31 1.08 -0.41 1.01 -0.5 0.97 -0.56 0.93 -0.63 0.9 -0.68 0.88 -0.72 0.86 -0.77 0.84 -0.81 0.83 -0.84 0.82 -0.86 0.8 -0.89 0.79 -0.9 0.77 -0.91 0.76 -0.92 0.74 -0.92 0.72 -0.91 0.7 -0.9 0.67 -0.88 0.64 -0.86 0.61 -0.83 0.58 -0.79 0.55 -0.75 0.51 -0.71 0.47 -0.66 0.44 -0.6 0.39 -0.52 0.34 -0.46 0.3 -3.88 -5.97 0.44 -0.29 0.51 -0.33 0.57 -0.37 0.62 -0.41 0.67 -0.45 0.72 -0.49 0.75 -0.52 0.79 -0.55 0.81 -0.58 0.83 -0.6 0.84 -0.62 0.85 -0.64 0.85 -0.66 0.84 -0.67 0.83 -0.69 0.81 -0.69 0.78 -0.69 0.75 -0.69 0.71 -0.69 0.66 -0.68 0.6 -0.66 0.55 -0.64 0.48 -0.61 0.4 -0.58 0.32 -0.53 0.24 -0.46 0.16 -0.38 0.08 -0.29 0.03 -0.17 0 -0.07 0.01 0.02 0.01 0.04 0 0zm0 0c-0.85,-1.77 -0.09,-3.9 1.68,-4.75 1.77,-0.85 3.9,-0.09 4.75,1.68l-6.43 3.06zm-22.46 3.3l-3.54 -6.18 -0 0 0.9 -0.5 0.94 -0.48 0.97 -0.46 1 -0.44 1.03 -0.42 1.05 -0.4 1.08 -0.38 1.09 -0.36 1.11 -0.34 1.12 -0.31 1.13 -0.29 1.14 -0.26 1.14 -0.23 1.14 -0.2 1.14 -0.17 1.13 -0.14 1.12 -0.11 1.11 -0.07 1.1 -0.03 1.08 0.01 1.07 0.05 1.05 0.1 1.03 0.15 1.01 0.21 0.99 0.28 0.97 0.35 0.94 0.43 0.91 0.53 0.86 0.65 0.79 0.77 0.7 0.89 0.57 1 -6.43 3.06 -0.05 -0.09 -0.07 -0.09 -0.12 -0.12 -0.18 -0.13 -0.26 -0.15 -0.35 -0.16 -0.42 -0.15 -0.5 -0.14 -0.58 -0.12 -0.65 -0.09 -0.71 -0.07 -0.76 -0.04 -0.81 -0.01 -0.85 0.03 -0.88 0.06 -0.91 0.09 -0.93 0.12 -0.95 0.14 -0.96 0.17 -0.97 0.2 -0.97 0.22 -0.97 0.25 -0.96 0.27 -0.96 0.29 -0.94 0.31 -0.92 0.32 -0.89 0.34 -0.86 0.35 -0.83 0.36 -0.79 0.37 -0.75 0.38 -0.69 0.38 -0 0zm0 -0c-1.7,0.98 -3.88,0.39 -4.86,-1.32 -0.98,-1.7 -0.39,-3.88 1.32,-4.86l3.54 6.18zm-12.18 15.62l-5.96 3.89 0 0 -0.56 -0.96 -0.46 -1 -0.35 -1.03 -0.23 -1.05 -0.12 -1.05 -0.02 -1.05 0.08 -1.02 0.17 -1 0.25 -0.98 0.32 -0.95 0.38 -0.92 0.43 -0.9 0.48 -0.87 0.53 -0.85 0.57 -0.83 0.61 -0.81 0.64 -0.79 0.67 -0.77 0.7 -0.76 0.73 -0.74 0.75 -0.72 0.77 -0.7 0.79 -0.69 0.8 -0.67 0.81 -0.65 0.83 -0.63 0.83 -0.61 0.84 -0.59 0.84 -0.56 0.84 -0.54 0.84 -0.52 0.84 -0.49 3.54 6.18 -0.71 0.42 -0.72 0.44 -0.73 0.47 -0.73 0.48 -0.72 0.5 -0.72 0.52 -0.71 0.54 -0.7 0.55 -0.68 0.56 -0.66 0.57 -0.64 0.58 -0.61 0.59 -0.58 0.59 -0.55 0.59 -0.52 0.6 -0.48 0.59 -0.43 0.58 -0.39 0.58 -0.35 0.56 -0.3 0.55 -0.25 0.53 -0.21 0.51 -0.16 0.47 -0.11 0.44 -0.07 0.41 -0.03 0.38 0.01 0.35 0.04 0.33 0.07 0.32 0.11 0.32 0.15 0.33 0.2 0.35 0 0zm-0 -0c1.08,1.64 0.61,3.85 -1.03,4.93 -1.64,1.08 -3.85,0.61 -4.93,-1.03l5.96 -3.9z"/>
   </g>
   <g>
    <path class="fil0" d="M225.82 63.84l-5.15 4.92 0.01 0.01 -0.29 -0.29 -0.37 -0.35 -0.44 -0.39 -0.5 -0.43 -0.55 -0.46 -0.6 -0.48 -0.65 -0.5 -0.69 -0.51 -0.72 -0.53 -0.75 -0.53 -0.78 -0.53 -0.8 -0.52 -0.82 -0.51 -0.83 -0.5 -0.84 -0.48 -0.84 -0.46 -0.83 -0.43 -0.82 -0.4 -0.81 -0.36 -0.79 -0.32 -0.77 -0.28 -0.73 -0.23 -0.68 -0.18 -0.64 -0.13 -0.57 -0.08 -0.5 -0.03 -0.41 0.01 -0.33 0.04 -0.24 0.06 -0.16 0.06 -0.1 0.06 -0.09 0.07 -4.88 -5.18 0.95 -0.77 1.05 -0.6 1.09 -0.43 1.1 -0.27 1.1 -0.14 1.09 -0.02 1.07 0.07 1.06 0.15 1.05 0.22 1.04 0.27 1.04 0.33 1.03 0.38 1.02 0.42 1.01 0.45 1.01 0.49 1 0.51 0.98 0.53 0.97 0.56 0.95 0.57 0.93 0.58 0.91 0.59 0.88 0.6 0.85 0.6 0.81 0.59 0.78 0.58 0.74 0.57 0.7 0.56 0.65 0.54 0.6 0.52 0.55 0.5 0.51 0.48 0.46 0.46 0.01 0.01zm-0.01 -0.01c1.36,1.42 1.31,3.67 -0.1,5.03 -1.42,1.36 -3.67,1.31 -5.03,-0.1l5.14 -4.93zm6.17 26.9l-4.58 -5.45 -0 0 0.37 -0.34 0.3 -0.32 0.24 -0.31 0.19 -0.3 0.15 -0.3 0.12 -0.3 0.09 -0.31 0.06 -0.33 0.03 -0.35 0 -0.38 -0.03 -0.42 -0.06 -0.45 -0.1 -0.48 -0.14 -0.51 -0.18 -0.54 -0.22 -0.56 -0.26 -0.58 -0.3 -0.6 -0.33 -0.62 -0.37 -0.63 -0.4 -0.64 -0.43 -0.65 -0.46 -0.66 -0.48 -0.66 -0.51 -0.67 -0.53 -0.67 -0.55 -0.67 -0.57 -0.67 -0.58 -0.66 -0.59 -0.66 -0.6 -0.65 -0.61 -0.64 5.15 -4.92 0.66 0.7 0.66 0.71 0.65 0.72 0.65 0.74 0.63 0.75 0.62 0.76 0.61 0.77 0.59 0.78 0.58 0.79 0.55 0.8 0.53 0.81 0.51 0.82 0.48 0.83 0.45 0.84 0.42 0.85 0.38 0.86 0.34 0.87 0.3 0.89 0.25 0.9 0.19 0.92 0.13 0.93 0.07 0.95 -0.01 0.96 -0.09 0.96 -0.18 0.97 -0.27 0.96 -0.36 0.94 -0.46 0.91 -0.55 0.88 -0.64 0.83 -0.72 0.78 -0.8 0.73 -0 0zm0 -0c-1.5,1.26 -3.75,1.07 -5.02,-0.43 -1.26,-1.5 -1.07,-3.75 0.43,-5.02l4.58 5.45zm-29.42 -10.54l5.28 -4.77 0 0 0.73 0.8 0.74 0.78 0.74 0.76 0.75 0.75 0.75 0.72 0.75 0.7 0.75 0.67 0.75 0.64 0.75 0.62 0.74 0.58 0.74 0.55 0.73 0.51 0.72 0.48 0.71 0.44 0.7 0.4 0.68 0.36 0.66 0.31 0.64 0.27 0.62 0.22 0.59 0.18 0.57 0.14 0.54 0.1 0.51 0.06 0.47 0.02 0.45 -0.02 0.43 -0.05 0.4 -0.09 0.39 -0.12 0.38 -0.16 0.38 -0.2 0.38 -0.25 0.39 -0.31 4.58 5.45 -0.87 0.67 -0.91 0.59 -0.95 0.5 -0.98 0.4 -1 0.31 -1.02 0.22 -1.02 0.13 -1.02 0.04 -1.02 -0.03 -1.01 -0.11 -0.99 -0.18 -0.98 -0.24 -0.97 -0.29 -0.96 -0.35 -0.95 -0.4 -0.94 -0.44 -0.93 -0.48 -0.92 -0.52 -0.91 -0.56 -0.9 -0.6 -0.89 -0.63 -0.89 -0.66 -0.88 -0.69 -0.87 -0.72 -0.87 -0.74 -0.86 -0.77 -0.85 -0.79 -0.84 -0.81 -0.83 -0.83 -0.82 -0.85 -0.81 -0.86 -0.8 -0.87 0 0zm-0 -0c-1.31,-1.46 -1.2,-3.71 0.26,-5.03 1.46,-1.31 3.71,-1.2 5.03,0.26l-5.29 4.76zm-5.69 -26.24l4.88 5.18 0 -0.01 -0.22 0.22 -0.19 0.22 -0.17 0.23 -0.14 0.23 -0.12 0.24 -0.11 0.26 -0.09 0.27 -0.07 0.29 -0.05 0.32 -0.03 0.35 -0.01 0.38 0.02 0.4 0.04 0.43 0.07 0.46 0.1 0.49 0.13 0.52 0.17 0.55 0.2 0.57 0.23 0.59 0.27 0.61 0.31 0.63 0.34 0.65 0.38 0.67 0.41 0.69 0.45 0.71 0.49 0.72 0.52 0.73 0.56 0.75 0.59 0.76 0.63 0.77 0.66 0.78 0.7 0.79 -5.28 4.77 -0.79 -0.89 -0.75 -0.89 -0.72 -0.88 -0.69 -0.88 -0.65 -0.87 -0.62 -0.87 -0.58 -0.87 -0.55 -0.86 -0.52 -0.86 -0.48 -0.86 -0.45 -0.85 -0.41 -0.85 -0.37 -0.85 -0.33 -0.84 -0.3 -0.84 -0.26 -0.84 -0.22 -0.84 -0.17 -0.84 -0.13 -0.84 -0.08 -0.84 -0.03 -0.83 0.02 -0.83 0.07 -0.83 0.13 -0.82 0.19 -0.81 0.25 -0.79 0.31 -0.77 0.37 -0.75 0.43 -0.72 0.49 -0.68 0.54 -0.65 0.6 -0.61 0 -0.01zm-0 0.01c1.43,-1.35 3.68,-1.29 5.03,0.14 1.35,1.43 1.29,3.68 -0.14,5.03l-4.89 -5.17z"/>
   </g>
   <g>
    <path class="fil0" d="M222.97 93.14c-1.73,-0.94 -2.36,-3.1 -1.42,-4.83 0.94,-1.73 3.1,-2.36 4.83,-1.42l-3.41 6.25zm23.36 24.52l-6.88 -1.83 -0 0 0.23 -0.97 0.17 -0.93 0.11 -0.89 0.05 -0.85 -0 -0.82 -0.05 -0.79 -0.1 -0.76 -0.14 -0.75 -0.19 -0.73 -0.23 -0.72 -0.28 -0.7 -0.33 -0.7 -0.37 -0.69 -0.42 -0.68 -0.47 -0.68 -0.51 -0.68 -0.56 -0.67 -0.61 -0.67 -0.65 -0.67 -0.7 -0.66 -0.75 -0.66 -0.79 -0.66 -0.83 -0.65 -0.87 -0.65 -0.91 -0.65 -0.94 -0.64 -0.98 -0.64 -1.01 -0.63 -1.04 -0.63 -1.08 -0.63 -1.1 -0.62 -1.13 -0.62 3.41 -6.25 1.2 0.66 1.18 0.67 1.15 0.67 1.14 0.69 1.11 0.7 1.09 0.71 1.06 0.72 1.04 0.74 1.01 0.75 0.98 0.77 0.95 0.79 0.91 0.81 0.88 0.83 0.84 0.86 0.8 0.88 0.76 0.91 0.72 0.94 0.67 0.97 0.61 1.01 0.56 1.04 0.5 1.07 0.44 1.11 0.37 1.13 0.3 1.16 0.23 1.19 0.16 1.22 0.08 1.24 -0 1.26 -0.08 1.28 -0.16 1.3 -0.24 1.32 -0.32 1.33 -0 0zm0 -0c-0.5,1.9 -2.45,3.03 -4.35,2.53 -1.9,-0.5 -3.03,-2.45 -2.53,-4.35l6.88 1.82zm-38.47 -1.58l-6.73 -2.31 6.85 0.42 0.43 1.7 0.54 1.54 0.64 1.4 0.72 1.26 0.8 1.13 0.87 1.01 0.94 0.9 1 0.79 1.06 0.69 1.12 0.59 1.18 0.49 1.22 0.4 1.26 0.3 1.29 0.2 1.31 0.11 1.33 0.01 1.34 -0.08 1.33 -0.18 1.32 -0.27 1.29 -0.36 1.26 -0.45 1.21 -0.53 1.16 -0.61 1.1 -0.68 1.03 -0.75 0.95 -0.82 0.87 -0.88 0.78 -0.94 0.68 -0.99 0.58 -1.05 0.48 -1.11 0.37 -1.16 6.88 1.83 -0.59 1.84 -0.76 1.75 -0.91 1.65 -1.05 1.54 -1.18 1.42 -1.29 1.31 -1.39 1.2 -1.48 1.08 -1.55 0.96 -1.62 0.85 -1.68 0.73 -1.72 0.61 -1.77 0.49 -1.8 0.37 -1.82 0.24 -1.84 0.12 -1.84 -0.01 -1.84 -0.15 -1.83 -0.29 -1.81 -0.43 -1.78 -0.58 -1.73 -0.73 -1.68 -0.88 -1.61 -1.05 -1.53 -1.2 -1.43 -1.37 -1.32 -1.53 -1.19 -1.69 -1.05 -1.84 -0.9 -1.99 -0.75 -2.14 -0.58 -2.27 6.85 0.42zm-6.85 -0.42c-0.41,-1.92 0.82,-3.81 2.75,-4.22 1.92,-0.41 3.81,0.82 4.22,2.75l-6.97 1.48zm-34.4 -5.02l-6.02 -3.8 6.49 1.15 0.4 1.49 0.51 1.4 0.62 1.31 0.73 1.23 0.83 1.15 0.92 1.08 1.01 1 1.09 0.92 1.17 0.84 1.24 0.76 1.3 0.68 1.35 0.59 1.39 0.51 1.43 0.42 1.45 0.32 1.46 0.23 1.46 0.14 1.45 0.05 1.43 -0.04 1.4 -0.14 1.36 -0.23 1.31 -0.32 1.25 -0.4 1.18 -0.49 1.1 -0.57 1.02 -0.65 0.93 -0.72 0.84 -0.8 0.75 -0.87 0.66 -0.96 0.56 -1.04 0.46 -1.14 6.73 2.31 -0.75 1.85 -0.93 1.73 -1.09 1.58 -1.23 1.44 -1.36 1.29 -1.47 1.14 -1.57 1 -1.65 0.85 -1.71 0.71 -1.77 0.57 -1.81 0.44 -1.85 0.31 -1.88 0.19 -1.89 0.06 -1.9 -0.06 -1.91 -0.18 -1.9 -0.3 -1.89 -0.42 -1.86 -0.54 -1.83 -0.66 -1.79 -0.79 -1.73 -0.91 -1.67 -1.03 -1.6 -1.15 -1.52 -1.28 -1.42 -1.41 -1.31 -1.53 -1.19 -1.66 -1.05 -1.78 -0.9 -1.9 -0.74 -2.02 -0.56 -2.12 6.49 1.15zm-6.49 -1.15c-0.42,-1.92 0.8,-3.82 2.72,-4.23 1.92,-0.42 3.82,0.8 4.23,2.72l-6.96 1.51zm-34.02 -5.16l-6.88 -1.84 6.94 0.27 0.32 1.4 0.41 1.35 0.51 1.29 0.59 1.23 0.68 1.17 0.76 1.1 0.83 1.04 0.9 0.97 0.96 0.9 1.02 0.82 1.07 0.74 1.12 0.66 1.16 0.58 1.2 0.49 1.23 0.4 1.26 0.31 1.28 0.21 1.29 0.12 1.31 0.01 1.32 -0.09 1.32 -0.19 1.32 -0.3 1.32 -0.42 1.32 -0.53 1.31 -0.66 1.3 -0.78 1.29 -0.92 1.27 -1.06 1.24 -1.21 1.22 -1.36 1.18 -1.52 1.14 -1.69 6.02 3.8 -1.4 2.06 -1.48 1.9 -1.55 1.73 -1.62 1.57 -1.68 1.4 -1.73 1.24 -1.78 1.07 -1.81 0.91 -1.84 0.75 -1.86 0.59 -1.88 0.43 -1.88 0.27 -1.87 0.13 -1.86 -0.02 -1.84 -0.16 -1.81 -0.3 -1.77 -0.44 -1.73 -0.56 -1.68 -0.69 -1.62 -0.81 -1.56 -0.92 -1.5 -1.04 -1.42 -1.15 -1.34 -1.25 -1.25 -1.35 -1.15 -1.45 -1.05 -1.54 -0.94 -1.63 -0.83 -1.71 -0.7 -1.79 -0.57 -1.87 -0.44 -1.93 6.94 0.27zm-6.94 -0.27c-0.36,-1.93 0.92,-3.79 2.85,-4.15 1.93,-0.36 3.79,0.92 4.15,2.85l-7 1.3zm-25.17 1.4l-7.11 -0.38 6.61 -1.64 0.85 1.32 0.87 1.19 0.9 1.07 0.92 0.95 0.93 0.84 0.94 0.73 0.96 0.63 0.96 0.54 0.96 0.44 0.96 0.36 0.97 0.28 0.97 0.2 0.96 0.12 0.96 0.04 0.95 -0.03 0.94 -0.1 0.93 -0.17 0.91 -0.23 0.88 -0.3 0.86 -0.36 0.84 -0.42 0.8 -0.48 0.77 -0.54 0.73 -0.59 0.69 -0.64 0.64 -0.69 0.59 -0.74 0.54 -0.79 0.48 -0.83 0.42 -0.87 0.36 -0.91 0.29 -0.95 6.88 1.84 -0.45 1.47 -0.56 1.42 -0.65 1.35 -0.75 1.29 -0.84 1.22 -0.91 1.15 -0.99 1.07 -1.06 1 -1.12 0.91 -1.19 0.83 -1.24 0.74 -1.29 0.65 -1.33 0.56 -1.38 0.46 -1.41 0.36 -1.44 0.26 -1.47 0.15 -1.49 0.04 -1.5 -0.07 -1.5 -0.19 -1.5 -0.31 -1.5 -0.43 -1.48 -0.55 -1.46 -0.68 -1.43 -0.8 -1.4 -0.93 -1.36 -1.05 -1.31 -1.18 -1.26 -1.31 -1.21 -1.43 -1.15 -1.56 -1.08 -1.68 6.61 -1.64zm-6.61 1.64c-1.01,-1.68 -0.46,-3.87 1.22,-4.88 1.68,-1.01 3.87,-0.46 4.88,1.22l-6.1 3.66zm-33.46 21.62l3.84 -6 0 0 1.23 0.72 1.23 0.6 1.22 0.48 1.22 0.37 1.21 0.27 1.21 0.17 1.21 0.08 1.2 -0.02 1.19 -0.11 1.19 -0.19 1.18 -0.28 1.16 -0.36 1.15 -0.44 1.13 -0.52 1.11 -0.59 1.08 -0.67 1.05 -0.73 1.01 -0.8 0.97 -0.86 0.92 -0.92 0.88 -0.97 0.82 -1.02 0.77 -1.06 0.71 -1.1 0.64 -1.14 0.57 -1.17 0.5 -1.2 0.43 -1.21 0.35 -1.23 0.27 -1.25 0.19 -1.26 0.11 -1.26 7.11 0.38 -0.15 1.73 -0.26 1.71 -0.37 1.69 -0.47 1.65 -0.57 1.62 -0.67 1.58 -0.75 1.53 -0.84 1.49 -0.92 1.44 -1 1.38 -1.07 1.32 -1.14 1.26 -1.21 1.19 -1.27 1.12 -1.33 1.05 -1.39 0.97 -1.44 0.89 -1.49 0.8 -1.54 0.71 -1.58 0.61 -1.62 0.5 -1.66 0.39 -1.69 0.27 -1.72 0.15 -1.74 0.02 -1.75 -0.11 -1.76 -0.25 -1.76 -0.39 -1.75 -0.54 -1.74 -0.69 -1.72 -0.84 -1.69 -0.99 0 0zm0 0c-1.65,-1.06 -2.14,-3.26 -1.08,-4.92 1.06,-1.65 3.26,-2.14 4.92,-1.08l-3.84 6zm12.59 -57.19l2.78 6.56 -2.02 0.93 -1.91 1.03 -1.79 1.12 -1.67 1.21 -1.56 1.29 -1.45 1.36 -1.34 1.42 -1.23 1.48 -1.12 1.53 -1.01 1.58 -0.9 1.62 -0.8 1.65 -0.69 1.67 -0.58 1.69 -0.48 1.7 -0.37 1.71 -0.27 1.7 -0.16 1.69 -0.06 1.67 0.04 1.64 0.14 1.6 0.25 1.56 0.34 1.51 0.43 1.45 0.53 1.39 0.62 1.31 0.7 1.23 0.79 1.15 0.87 1.07 0.95 0.98 1.04 0.89 1.13 0.8 -3.84 6 -1.67 -1.18 -1.54 -1.31 -1.4 -1.44 -1.26 -1.54 -1.13 -1.64 -0.99 -1.73 -0.85 -1.81 -0.71 -1.87 -0.58 -1.93 -0.45 -1.98 -0.32 -2.02 -0.19 -2.06 -0.06 -2.08 0.07 -2.1 0.2 -2.11 0.33 -2.12 0.46 -2.12 0.59 -2.11 0.72 -2.09 0.85 -2.06 0.98 -2.03 1.11 -1.99 1.24 -1.94 1.38 -1.89 1.51 -1.82 1.64 -1.75 1.78 -1.67 1.91 -1.58 2.04 -1.48 2.17 -1.36 2.31 -1.25 2.43 -1.12zm0 0c1.81,-0.77 3.9,0.08 4.67,1.89 0.77,1.81 -0.08,3.9 -1.89,4.67l-2.78 -6.56z"/>
   </g>
   <g>
    <path class="fil0" d="M105.71 55.91c-1.06,1.66 -3.26,2.14 -4.92,1.09 -1.66,-1.06 -2.14,-3.26 -1.09,-4.92l6 3.83zm32.12 -8l4.84 5.22 -5 -0.16 -0.78 -0.76 -0.83 -0.7 -0.88 -0.63 -0.93 -0.57 -0.98 -0.51 -1.02 -0.46 -1.06 -0.4 -1.09 -0.34 -1.13 -0.28 -1.16 -0.22 -1.18 -0.16 -1.2 -0.1 -1.21 -0.04 -1.22 0.01 -1.22 0.07 -1.22 0.13 -1.21 0.18 -1.19 0.23 -1.18 0.28 -1.15 0.33 -1.12 0.38 -1.09 0.42 -1.05 0.47 -1 0.51 -0.95 0.54 -0.9 0.58 -0.84 0.61 -0.77 0.64 -0.71 0.66 -0.64 0.68 -0.56 0.69 -0.49 0.71 -6 -3.83 0.81 -1.16 0.9 -1.1 0.98 -1.04 1.05 -0.97 1.11 -0.91 1.17 -0.85 1.23 -0.79 1.27 -0.73 1.32 -0.67 1.36 -0.6 1.4 -0.54 1.43 -0.48 1.46 -0.42 1.48 -0.36 1.51 -0.29 1.52 -0.22 1.53 -0.16 1.55 -0.09 1.55 -0.02 1.55 0.06 1.55 0.13 1.54 0.21 1.53 0.29 1.51 0.37 1.49 0.46 1.46 0.55 1.43 0.64 1.39 0.74 1.35 0.83 1.29 0.93 1.24 1.03 1.16 1.14 -5 -0.16zm5 0.16c1.36,1.42 1.3,3.68 -0.12,5.03 -1.42,1.36 -3.68,1.3 -5.03,-0.12l5.15 -4.91zm57.92 15.57l-6.85 1.96 -0.45 -1.32 -0.59 -1.33 -0.73 -1.32 -0.86 -1.31 -0.99 -1.3 -1.12 -1.27 -1.24 -1.24 -1.35 -1.2 -1.45 -1.15 -1.55 -1.1 -1.63 -1.04 -1.71 -0.97 -1.78 -0.9 -1.84 -0.82 -1.89 -0.74 -1.94 -0.64 -1.97 -0.55 -2 -0.45 -2.02 -0.35 -2.02 -0.24 -2.02 -0.13 -2.01 -0.01 -2 0.11 -1.97 0.23 -1.94 0.35 -1.9 0.48 -1.85 0.61 -1.8 0.74 -1.75 0.88 -1.69 1.03 -1.62 1.17 -1.56 1.33 -4.84 -5.22 1.99 -1.7 2.09 -1.51 2.17 -1.32 2.24 -1.13 2.3 -0.95 2.34 -0.77 2.38 -0.6 2.4 -0.44 2.42 -0.28 2.43 -0.13 2.43 0.02 2.42 0.16 2.4 0.28 2.38 0.41 2.35 0.53 2.31 0.65 2.27 0.75 2.22 0.86 2.16 0.96 2.09 1.05 2.02 1.14 1.94 1.23 1.85 1.32 1.76 1.4 1.65 1.48 1.54 1.55 1.42 1.62 1.29 1.69 1.15 1.76 1 1.83 0.84 1.89 0.66 1.96zm0 0c0.54,1.89 -0.55,3.86 -2.44,4.4 -1.89,0.54 -3.86,-0.55 -4.4,-2.44l6.85 -1.96z"/>
   </g>
   <g>
    <path class="fil0" d="M59.21 62.06c1.24,-1.52 3.49,-1.75 5.01,-0.51 1.52,1.24 1.75,3.49 0.51,5.01l-5.52 -4.5zm-34.55 10.64l5.27 -4.79 -0 -0 0.56 0.55 0.6 0.48 0.65 0.42 0.71 0.37 0.77 0.32 0.83 0.27 0.89 0.21 0.95 0.15 1 0.09 1.04 0.04 1.08 -0.02 1.11 -0.08 1.14 -0.13 1.16 -0.18 1.17 -0.23 1.18 -0.28 1.18 -0.32 1.17 -0.36 1.15 -0.4 1.14 -0.44 1.11 -0.47 1.08 -0.5 1.04 -0.52 0.99 -0.53 0.94 -0.55 0.89 -0.56 0.83 -0.56 0.75 -0.56 0.68 -0.55 0.6 -0.53 0.5 -0.51 0.41 -0.46 5.52 4.5 -0.74 0.84 -0.8 0.8 -0.87 0.78 -0.93 0.76 -1 0.74 -1.05 0.71 -1.1 0.69 -1.15 0.67 -1.2 0.65 -1.24 0.62 -1.28 0.59 -1.31 0.55 -1.34 0.52 -1.37 0.48 -1.39 0.44 -1.41 0.39 -1.43 0.34 -1.44 0.29 -1.45 0.23 -1.45 0.17 -1.45 0.1 -1.45 0.03 -1.44 -0.05 -1.44 -0.14 -1.42 -0.23 -1.4 -0.33 -1.38 -0.44 -1.34 -0.55 -1.3 -0.68 -1.24 -0.81 -1.17 -0.94 -1.08 -1.07 -0 -0zm0 0c-1.32,-1.45 -1.22,-3.71 0.24,-5.03 1.45,-1.32 3.71,-1.22 5.03,0.24l-5.26 4.79zm6.78 -21.27l4.34 -5.65 -2.27 6.38 -0.32 0.01 -0.32 0.04 -0.33 0.08 -0.34 0.12 -0.36 0.17 -0.37 0.22 -0.37 0.27 -0.38 0.32 -0.38 0.37 -0.37 0.41 -0.36 0.46 -0.34 0.51 -0.32 0.54 -0.3 0.57 -0.27 0.6 -0.24 0.63 -0.21 0.65 -0.17 0.67 -0.13 0.68 -0.09 0.69 -0.05 0.69 -0.01 0.69 0.03 0.69 0.08 0.68 0.12 0.67 0.17 0.66 0.21 0.64 0.26 0.63 0.31 0.61 0.36 0.6 0.41 0.58 0.47 0.56 -5.27 4.79 -0.83 -0.99 -0.74 -1.03 -0.64 -1.06 -0.55 -1.09 -0.46 -1.12 -0.37 -1.13 -0.29 -1.14 -0.21 -1.14 -0.13 -1.15 -0.05 -1.14 0.02 -1.13 0.08 -1.12 0.15 -1.1 0.21 -1.08 0.27 -1.06 0.32 -1.03 0.38 -1.01 0.43 -0.98 0.49 -0.94 0.54 -0.91 0.59 -0.87 0.64 -0.83 0.69 -0.78 0.74 -0.73 0.79 -0.67 0.85 -0.61 0.9 -0.54 0.95 -0.46 1.01 -0.37 1.06 -0.27 1.09 -0.15 1.11 -0.03 -2.27 6.38zm2.27 -6.38c1.97,0.05 3.51,1.69 3.46,3.66 -0.05,1.97 -1.69,3.51 -3.66,3.46l0.19 -7.12zm15.73 -22.46l7.09 -0.67 -4.99 3.59 -1.93 -0.78 -1.81 -0.58 -1.7 -0.4 -1.59 -0.23 -1.48 -0.08 -1.37 0.06 -1.26 0.18 -1.17 0.29 -1.08 0.39 -1 0.48 -0.92 0.57 -0.85 0.65 -0.77 0.73 -0.71 0.81 -0.63 0.88 -0.56 0.94 -0.48 1 -0.4 1.05 -0.31 1.08 -0.22 1.11 -0.13 1.13 -0.04 1.14 0.05 1.14 0.14 1.12 0.23 1.1 0.33 1.07 0.42 1.03 0.51 0.99 0.6 0.94 0.69 0.88 0.79 0.82 0.89 0.76 -4.34 5.65 -1.43 -1.22 -1.28 -1.33 -1.13 -1.43 -0.97 -1.51 -0.81 -1.58 -0.66 -1.63 -0.51 -1.67 -0.36 -1.69 -0.22 -1.71 -0.07 -1.72 0.07 -1.71 0.2 -1.7 0.34 -1.68 0.47 -1.64 0.61 -1.6 0.74 -1.55 0.88 -1.48 1.01 -1.41 1.15 -1.32 1.29 -1.21 1.42 -1.09 1.54 -0.96 1.67 -0.81 1.78 -0.64 1.88 -0.46 1.98 -0.28 2.06 -0.08 2.13 0.12 2.21 0.32 2.27 0.53 2.33 0.75 2.39 0.97 -4.99 3.59zm4.99 -3.59c1.8,0.8 2.6,2.9 1.8,4.7 -0.8,1.8 -2.9,2.6 -4.7,1.8l2.9 -6.5zm25.75 -2.46l2.54 6.65 -4.78 -3.89 0.2 -1.72 0.02 -1.54 -0.13 -1.38 -0.26 -1.22 -0.37 -1.08 -0.47 -0.96 -0.57 -0.85 -0.65 -0.75 -0.73 -0.66 -0.82 -0.57 -0.89 -0.48 -0.96 -0.39 -1.02 -0.3 -1.08 -0.2 -1.11 -0.1 -1.14 0.01 -1.15 0.12 -1.14 0.22 -1.12 0.33 -1.09 0.43 -1.05 0.54 -0.99 0.64 -0.92 0.74 -0.85 0.84 -0.77 0.94 -0.68 1.05 -0.59 1.16 -0.48 1.28 -0.36 1.41 -0.23 1.55 -0.08 1.7 0.09 1.86 -7.09 0.67 -0.13 -2.51 0.11 -2.4 0.33 -2.28 0.55 -2.15 0.75 -2.01 0.94 -1.86 1.1 -1.7 1.26 -1.54 1.39 -1.37 1.5 -1.19 1.59 -1.02 1.66 -0.85 1.72 -0.68 1.76 -0.51 1.78 -0.35 1.8 -0.18 1.8 -0.01 1.79 0.16 1.76 0.33 1.73 0.5 1.67 0.68 1.6 0.86 1.5 1.05 1.38 1.24 1.24 1.43 1.07 1.6 0.88 1.77 0.67 1.92 0.44 2.06 0.21 2.17 -0.03 2.29 -0.27 2.39 -4.78 -3.89zm4.78 3.89c-0.31,1.94 -2.14,3.26 -4.08,2.94 -1.94,-0.31 -3.26,-2.14 -2.94,-4.08l7.03 1.14zm12.44 29.09l-3.56 -6.17 1.49 -0.93 1.35 -0.99 1.22 -1.04 1.09 -1.09 0.96 -1.12 0.84 -1.15 0.71 -1.16 0.59 -1.17 0.47 -1.16 0.35 -1.15 0.24 -1.13 0.13 -1.09 0.02 -1.05 -0.08 -1 -0.18 -0.95 -0.27 -0.89 -0.36 -0.82 -0.45 -0.77 -0.53 -0.7 -0.62 -0.64 -0.73 -0.58 -0.84 -0.52 -0.97 -0.45 -1.11 -0.37 -1.25 -0.28 -1.41 -0.17 -1.57 -0.04 -1.73 0.11 -1.89 0.26 -2.05 0.44 -2.2 0.63 -2.36 0.83 -2.54 -6.65 2.75 -0.96 2.63 -0.75 2.52 -0.54 2.42 -0.34 2.31 -0.14 2.2 0.05 2.09 0.25 1.97 0.43 1.85 0.62 1.72 0.8 1.57 0.97 1.41 1.13 1.24 1.28 1.06 1.4 0.87 1.5 0.69 1.59 0.5 1.65 0.32 1.7 0.14 1.73 -0.04 1.75 -0.21 1.76 -0.37 1.76 -0.53 1.74 -0.7 1.73 -0.86 1.69 -1.01 1.65 -1.17 1.6 -1.32 1.54 -1.48 1.47 -1.63 1.4 -1.78 1.3 -1.92 1.2zm0 0c-1.7,0.98 -3.88,0.4 -4.86,-1.31 -0.98,-1.7 -0.4,-3.88 1.31,-4.86l3.56 6.17z"/>
   </g>
   <g>
    <path class="fil0" d="M209.04 52.97c1.79,0.81 2.58,2.92 1.77,4.71 -0.81,1.79 -2.92,2.58 -4.71,1.77l2.94 -6.48zm-0.16 -14.86l7.11 -0.28 -5.71 2.98 -1.11 -0.77 -1 -0.59 -0.89 -0.41 -0.77 -0.27 -0.65 -0.14 -0.54 -0.04 -0.43 0.03 -0.35 0.08 -0.3 0.12 -0.27 0.16 -0.26 0.21 -0.26 0.28 -0.25 0.36 -0.24 0.44 -0.21 0.51 -0.17 0.59 -0.13 0.66 -0.07 0.71 -0.01 0.75 0.06 0.79 0.13 0.81 0.2 0.82 0.27 0.82 0.34 0.82 0.42 0.8 0.5 0.78 0.57 0.75 0.66 0.72 0.74 0.68 0.83 0.63 0.92 0.58 1.03 0.52 -2.94 6.48 -1.59 -0.81 -1.47 -0.92 -1.34 -1.02 -1.21 -1.1 -1.08 -1.18 -0.95 -1.24 -0.82 -1.29 -0.7 -1.33 -0.57 -1.36 -0.45 -1.37 -0.33 -1.39 -0.22 -1.38 -0.1 -1.37 0.01 -1.36 0.13 -1.34 0.25 -1.3 0.37 -1.27 0.5 -1.22 0.64 -1.16 0.78 -1.09 0.93 -0.99 1.08 -0.86 1.22 -0.7 1.34 -0.52 1.42 -0.31 1.48 -0.09 1.51 0.12 1.52 0.33 1.53 0.52 1.53 0.71 1.54 0.9 1.55 1.08 -5.71 2.98zm5.71 -2.98c1.57,1.19 1.88,3.42 0.69,4.99 -1.19,1.57 -3.42,1.88 -4.99,0.69l4.3 -5.68zm28.43 -3.43l5.09 4.98 -6.09 -2.19 -0.28 -2.26 -0.41 -2.03 -0.53 -1.82 -0.63 -1.62 -0.72 -1.42 -0.8 -1.23 -0.85 -1.06 -0.91 -0.9 -0.95 -0.75 -0.99 -0.61 -1.03 -0.48 -1.07 -0.35 -1.1 -0.23 -1.13 -0.11 -1.15 0.01 -1.16 0.13 -1.17 0.25 -1.16 0.37 -1.15 0.49 -1.12 0.61 -1.09 0.73 -1.04 0.85 -0.98 0.96 -0.92 1.08 -0.84 1.19 -0.75 1.3 -0.65 1.42 -0.55 1.53 -0.43 1.65 -0.3 1.76 -0.16 1.88 0 2 -7.11 0.28 0 -2.57 0.21 -2.47 0.4 -2.36 0.59 -2.25 0.76 -2.13 0.92 -2 1.07 -1.86 1.21 -1.72 1.33 -1.57 1.45 -1.42 1.55 -1.26 1.63 -1.1 1.71 -0.93 1.77 -0.76 1.82 -0.58 1.86 -0.4 1.88 -0.21 1.9 -0.01 1.89 0.19 1.87 0.4 1.83 0.61 1.77 0.82 1.7 1.04 1.59 1.25 1.48 1.46 1.35 1.67 1.2 1.86 1.04 2.05 0.88 2.24 0.7 2.42 0.53 2.6 0.34 2.78 -6.09 -2.19zm6.09 2.19c0.17,1.96 -1.28,3.68 -3.24,3.85 -1.96,0.17 -3.68,-1.28 -3.85,-3.24l7.09 -0.61zm20.07 26.92l-3.41 6.25 0.39 -6.43 2.75 -1.23 2.34 -1.32 1.96 -1.38 1.6 -1.42 1.27 -1.44 0.97 -1.45 0.71 -1.46 0.47 -1.47 0.26 -1.48 0.06 -1.49 -0.14 -1.5 -0.33 -1.51 -0.51 -1.5 -0.69 -1.48 -0.86 -1.44 -1.02 -1.38 -1.17 -1.3 -1.3 -1.2 -1.42 -1.09 -1.52 -0.96 -1.61 -0.81 -1.67 -0.65 -1.73 -0.48 -1.77 -0.3 -1.8 -0.1 -1.82 0.1 -1.83 0.32 -1.84 0.55 -1.85 0.8 -1.86 1.07 -1.86 1.37 -1.85 1.7 -5.09 -4.98 2.39 -2.2 2.49 -1.84 2.56 -1.48 2.62 -1.13 2.65 -0.79 2.65 -0.46 2.63 -0.15 2.58 0.15 2.52 0.42 2.43 0.67 2.33 0.91 2.21 1.12 2.08 1.31 1.94 1.49 1.78 1.65 1.61 1.79 1.43 1.93 1.23 2.05 1.01 2.16 0.77 2.26 0.5 2.34 0.22 2.4 -0.1 2.43 -0.43 2.44 -0.79 2.41 -1.14 2.35 -1.51 2.25 -1.87 2.12 -2.22 1.98 -2.58 1.82 -2.94 1.65 -3.3 1.48 0.39 -6.43zm-0.39 6.43c-1.83,0.73 -3.9,-0.17 -4.62,-1.99 -0.73,-1.83 0.17,-3.9 1.99,-4.62l2.63 6.61zm-11.69 26.98l0.72 -7.08 0 0 1.22 0.08 1.2 -0.01 1.19 -0.09 1.16 -0.18 1.14 -0.25 1.1 -0.33 1.06 -0.4 1.01 -0.46 0.96 -0.52 0.91 -0.57 0.84 -0.61 0.77 -0.66 0.7 -0.69 0.61 -0.71 0.53 -0.73 0.45 -0.75 0.36 -0.75 0.28 -0.75 0.19 -0.75 0.11 -0.75 0.02 -0.75 -0.06 -0.76 -0.16 -0.77 -0.26 -0.8 -0.37 -0.82 -0.5 -0.85 -0.65 -0.88 -0.8 -0.9 -0.98 -0.91 -1.16 -0.92 -1.35 -0.92 -1.55 -0.91 3.41 -6.25 1.94 1.14 1.77 1.21 1.59 1.26 1.41 1.33 1.24 1.38 1.06 1.44 0.88 1.49 0.7 1.53 0.51 1.56 0.32 1.58 0.14 1.57 -0.04 1.55 -0.21 1.52 -0.37 1.48 -0.52 1.42 -0.65 1.36 -0.77 1.29 -0.89 1.23 -0.99 1.15 -1.08 1.08 -1.17 1 -1.25 0.92 -1.32 0.83 -1.39 0.75 -1.46 0.66 -1.52 0.56 -1.57 0.46 -1.61 0.36 -1.65 0.25 -1.69 0.14 -1.72 0.02 -1.74 -0.11 0 0zm0 0c-1.96,-0.2 -3.38,-1.94 -3.18,-3.9 0.2,-1.96 1.94,-3.38 3.9,-3.18l-0.72 7.08zm-27.14 -11.01l4.82 -5.24 -0.01 -0.01 0.05 0.05 0.1 0.08 0.15 0.13 0.2 0.16 0.25 0.2 0.3 0.23 0.35 0.26 0.4 0.29 0.45 0.31 0.49 0.33 0.54 0.35 0.59 0.37 0.63 0.38 0.68 0.39 0.72 0.4 0.76 0.4 0.81 0.41 0.85 0.41 0.89 0.4 0.93 0.4 0.98 0.39 1.02 0.38 1.06 0.36 1.1 0.35 1.14 0.33 1.18 0.31 1.21 0.28 1.25 0.25 1.29 0.23 1.33 0.19 1.37 0.16 -0.72 7.08 -1.57 -0.18 -1.53 -0.22 -1.49 -0.26 -1.44 -0.29 -1.4 -0.32 -1.36 -0.35 -1.31 -0.38 -1.27 -0.4 -1.22 -0.42 -1.17 -0.43 -1.13 -0.45 -1.08 -0.46 -1.03 -0.46 -0.99 -0.47 -0.94 -0.47 -0.89 -0.47 -0.84 -0.47 -0.79 -0.46 -0.74 -0.45 -0.69 -0.43 -0.64 -0.42 -0.59 -0.4 -0.54 -0.38 -0.48 -0.35 -0.43 -0.32 -0.38 -0.3 -0.33 -0.26 -0.27 -0.23 -0.22 -0.19 -0.17 -0.15 -0.11 -0.1 -0.07 -0.06zm0 0c-1.45,-1.33 -1.54,-3.58 -0.21,-5.03 1.33,-1.45 3.58,-1.54 5.03,-0.21l-4.82 5.24z"/>
   </g>
   <g>
    <path class="fil0" d="M84.04 202.85c0.27,-1.95 2.06,-3.31 4.01,-3.04 1.95,0.27 3.31,2.06 3.04,4.01l-7.05 -0.96zm-64.45 192.15l-6.26 -3.39 0 0 3.09 -5.7 3.05 -5.65 3.01 -5.61 2.97 -5.57 2.93 -5.53 2.88 -5.51 2.84 -5.49 2.79 -5.47 2.74 -5.47 2.68 -5.47 2.63 -5.47 2.57 -5.48 2.51 -5.5 2.45 -5.53 2.39 -5.56 2.32 -5.6 2.26 -5.64 2.19 -5.7 2.12 -5.75 2.05 -5.82 1.97 -5.89 1.9 -5.97 1.82 -6.05 1.74 -6.14 1.66 -6.24 1.57 -6.34 1.49 -6.45 1.4 -6.57 1.31 -6.69 1.22 -6.82 1.13 -6.96 1.03 -7.11 7.05 0.96 -1.05 7.22 -1.14 7.08 -1.24 6.94 -1.33 6.81 -1.43 6.68 -1.52 6.57 -1.6 6.46 -1.69 6.35 -1.77 6.25 -1.85 6.16 -1.93 6.07 -2.01 5.99 -2.08 5.92 -2.16 5.85 -2.22 5.79 -2.29 5.73 -2.36 5.68 -2.42 5.64 -2.48 5.6 -2.54 5.57 -2.6 5.55 -2.66 5.53 -2.71 5.52 -2.76 5.51 -2.81 5.52 -2.86 5.52 -2.9 5.54 -2.94 5.56 -2.98 5.59 -3.02 5.62 -3.06 5.66 -3.09 5.71 0 0zm-0 0c-0.94,1.73 -3.1,2.37 -4.82,1.43 -1.73,-0.94 -2.37,-3.1 -1.43,-4.82l6.26 3.39zm30.54 14.31l-7.12 -0.1 6.11 2.53 -1.47 1.4 -1.58 1.3 -1.67 1.2 -1.74 1.09 -1.81 0.99 -1.87 0.88 -1.91 0.78 -1.94 0.67 -1.96 0.56 -1.97 0.45 -1.97 0.33 -1.97 0.21 -1.95 0.08 -1.92 -0.06 -1.88 -0.2 -1.84 -0.35 -1.78 -0.52 -1.71 -0.7 -1.62 -0.9 -1.5 -1.12 -1.34 -1.34 -1.14 -1.55 -0.91 -1.74 -0.65 -1.91 -0.38 -2.05 -0.12 -2.16 0.15 -2.27 0.41 -2.38 0.67 -2.5 0.93 -2.63 1.2 -2.76 1.48 -2.91 6.26 3.39 -1.3 2.56 -1.02 2.34 -0.75 2.13 -0.51 1.92 -0.29 1.7 -0.1 1.49 0.07 1.27 0.2 1.08 0.31 0.91 0.4 0.77 0.49 0.67 0.6 0.59 0.71 0.53 0.84 0.47 0.98 0.4 1.1 0.32 1.21 0.23 1.32 0.14 1.4 0.04 1.47 -0.06 1.52 -0.16 1.56 -0.26 1.58 -0.36 1.58 -0.45 1.57 -0.54 1.55 -0.63 1.5 -0.71 1.45 -0.79 1.38 -0.86 1.29 -0.93 1.2 -0.99 1.09 -1.04 6.11 2.53zm-6.11 -2.53c1.37,-1.41 3.63,-1.44 5.03,-0.07 1.41,1.37 1.44,3.63 0.07,5.03l-5.1 -4.97zm54.7 6.9l-7.09 0.58 6.87 0.98 -1.1 2.52 -1.29 2.36 -1.46 2.18 -1.62 2 -1.76 1.82 -1.89 1.64 -2 1.46 -2.09 1.28 -2.17 1.1 -2.23 0.93 -2.28 0.75 -2.32 0.58 -2.34 0.41 -2.35 0.23 -2.35 0.07 -2.34 -0.11 -2.31 -0.28 -2.28 -0.45 -2.22 -0.62 -2.16 -0.8 -2.08 -0.97 -1.99 -1.15 -1.88 -1.33 -1.75 -1.52 -1.61 -1.7 -1.44 -1.87 -1.25 -2.05 -1.05 -2.21 -0.83 -2.37 -0.59 -2.52 -0.35 -2.65 -0.09 -2.78 7.12 0.1 0.07 2.11 0.26 1.95 0.42 1.8 0.58 1.66 0.73 1.53 0.86 1.4 0.99 1.29 1.11 1.17 1.23 1.06 1.33 0.94 1.44 0.83 1.53 0.71 1.61 0.59 1.68 0.47 1.74 0.34 1.79 0.21 1.82 0.08 1.83 -0.05 1.84 -0.18 1.83 -0.32 1.81 -0.45 1.78 -0.58 1.73 -0.72 1.67 -0.85 1.6 -0.98 1.52 -1.11 1.43 -1.25 1.33 -1.38 1.22 -1.51 1.11 -1.65 0.98 -1.79 0.84 -1.94 6.87 0.98zm-6.87 -0.98c0.7,-1.84 2.76,-2.75 4.6,-2.05 1.84,0.7 2.75,2.76 2.05,4.6l-6.65 -2.55zm50.38 5.85l-7.11 0.27 7.01 0.74 -0.65 2.07 -0.87 1.96 -1.06 1.83 -1.23 1.7 -1.38 1.56 -1.52 1.42 -1.64 1.29 -1.74 1.15 -1.83 1.01 -1.91 0.87 -1.97 0.74 -2.03 0.6 -2.07 0.46 -2.09 0.32 -2.12 0.18 -2.13 0.03 -2.12 -0.11 -2.11 -0.27 -2.09 -0.43 -2.05 -0.6 -2 -0.76 -1.94 -0.94 -1.86 -1.12 -1.76 -1.31 -1.64 -1.49 -1.5 -1.68 -1.35 -1.87 -1.17 -2.05 -0.98 -2.22 -0.78 -2.39 -0.57 -2.55 -0.34 -2.71 7.09 -0.58 0.26 2.08 0.42 1.9 0.56 1.72 0.69 1.56 0.8 1.4 0.91 1.26 1.01 1.13 1.11 1.01 1.2 0.89 1.29 0.77 1.36 0.66 1.44 0.55 1.5 0.43 1.55 0.32 1.59 0.2 1.62 0.09 1.63 -0.03 1.63 -0.14 1.62 -0.25 1.59 -0.36 1.55 -0.46 1.5 -0.56 1.43 -0.66 1.35 -0.75 1.26 -0.83 1.16 -0.91 1.05 -0.99 0.94 -1.05 0.81 -1.12 0.68 -1.18 0.55 -1.24 0.42 -1.32 7.01 0.74zm-7.01 -0.74c0.48,-1.91 2.42,-3.06 4.33,-2.57 1.91,0.48 3.06,2.42 2.57,4.33l-6.9 -1.75zm47.81 -0.06l-5.27 4.78 6.02 -1.29 -0.82 2.14 -1 2 -1.17 1.86 -1.33 1.71 -1.46 1.55 -1.58 1.4 -1.68 1.25 -1.77 1.1 -1.84 0.95 -1.9 0.81 -1.95 0.66 -1.98 0.53 -2.01 0.39 -2.03 0.25 -2.03 0.12 -2.03 -0.01 -2.01 -0.15 -1.99 -0.28 -1.95 -0.41 -1.91 -0.55 -1.85 -0.69 -1.78 -0.83 -1.7 -0.97 -1.61 -1.12 -1.5 -1.27 -1.37 -1.42 -1.22 -1.57 -1.05 -1.72 -0.86 -1.86 -0.66 -1.99 -0.43 -2.11 -0.2 -2.2 7.11 -0.27 0.13 1.43 0.27 1.31 0.4 1.21 0.52 1.11 0.63 1.04 0.75 0.96 0.86 0.89 0.97 0.82 1.07 0.74 1.17 0.66 1.26 0.58 1.34 0.49 1.41 0.4 1.46 0.31 1.51 0.21 1.54 0.11 1.56 0.01 1.57 -0.09 1.56 -0.19 1.54 -0.3 1.51 -0.4 1.47 -0.5 1.41 -0.6 1.35 -0.7 1.28 -0.79 1.19 -0.89 1.1 -0.98 1.01 -1.07 0.91 -1.17 0.8 -1.27 0.69 -1.37 0.57 -1.49 6.02 -1.29zm-6.02 1.29c0.61,-1.87 2.62,-2.89 4.49,-2.28 1.87,0.61 2.89,2.62 2.28,4.49l-6.77 -2.21zm49.27 -8.46l-5.42 4.62 6.27 -2.24 -0.12 2.17 -0.28 2.09 -0.44 2.01 -0.59 1.92 -0.74 1.82 -0.89 1.72 -1.02 1.61 -1.15 1.49 -1.27 1.38 -1.38 1.25 -1.48 1.12 -1.57 0.99 -1.65 0.85 -1.72 0.71 -1.79 0.58 -1.84 0.44 -1.89 0.3 -1.93 0.16 -1.96 0.02 -1.99 -0.13 -2.01 -0.27 -2.02 -0.41 -2.03 -0.56 -2.03 -0.7 -2.03 -0.85 -2.02 -1 -2 -1.14 -1.97 -1.29 -1.94 -1.44 -1.91 -1.59 -1.87 -1.75 -1.82 -1.9 5.27 -4.78 1.55 1.62 1.58 1.48 1.6 1.34 1.61 1.2 1.62 1.06 1.62 0.93 1.62 0.8 1.62 0.68 1.6 0.55 1.58 0.43 1.56 0.32 1.52 0.21 1.49 0.09 1.45 -0.01 1.41 -0.11 1.35 -0.21 1.3 -0.31 1.24 -0.4 1.18 -0.49 1.12 -0.58 1.05 -0.66 0.98 -0.74 0.91 -0.82 0.84 -0.91 0.76 -0.99 0.68 -1.07 0.6 -1.16 0.51 -1.25 0.41 -1.34 0.31 -1.43 0.21 -1.53 0.09 -1.62 6.27 -2.24zm-6.27 2.24c0.03,-1.97 1.66,-3.53 3.62,-3.5 1.97,0.03 3.53,1.66 3.5,3.62l-7.12 -0.13zm43.63 -14.85l6.18 -3.54 0 0 1.44 2.77 1.1 2.71 0.77 2.65 0.44 2.58 0.12 2.51 -0.21 2.42 -0.52 2.3 -0.82 2.16 -1.09 2 -1.33 1.82 -1.53 1.64 -1.72 1.45 -1.87 1.27 -2 1.1 -2.11 0.93 -2.21 0.76 -2.3 0.6 -2.37 0.44 -2.42 0.28 -2.47 0.12 -2.5 -0.04 -2.51 -0.2 -2.52 -0.36 -2.51 -0.53 -2.48 -0.7 -2.44 -0.87 -2.39 -1.05 -2.32 -1.23 -2.23 -1.41 -2.12 -1.6 -2 -1.79 -1.85 -1.99 5.42 -4.62 1.42 1.52 1.54 1.38 1.65 1.24 1.75 1.11 1.84 0.97 1.91 0.84 1.98 0.7 2.02 0.57 2.05 0.43 2.06 0.3 2.06 0.16 2.04 0.03 2 -0.1 1.95 -0.23 1.88 -0.35 1.79 -0.47 1.68 -0.58 1.56 -0.69 1.43 -0.78 1.28 -0.87 1.12 -0.95 0.96 -1.02 0.79 -1.09 0.63 -1.16 0.47 -1.24 0.3 -1.34 0.12 -1.46 -0.08 -1.6 -0.3 -1.75 -0.56 -1.91 -0.84 -2.07 -1.15 -2.22 0 0zm0 -0c-0.98,-1.7 -0.39,-3.88 1.32,-4.86 1.7,-0.98 3.88,-0.39 4.86,1.32l-6.18 3.54zm-81.08 -196.21l7.04 -1.05 1.53 9.44 1.71 9.22 1.89 9 2.05 8.78 2.2 8.56 2.34 8.34 2.46 8.13 2.57 7.91 2.67 7.69 2.76 7.47 2.84 7.25 2.9 7.03 2.95 6.81 2.99 6.59 3.01 6.37 3.03 6.16 3.03 5.94 3.02 5.72 3 5.5 2.96 5.28 2.91 5.06 2.85 4.85 2.78 4.63 2.7 4.41 2.6 4.19 2.49 3.98 2.37 3.76 2.24 3.55 2.09 3.34 1.94 3.13 1.77 2.92 1.59 2.71 -6.18 3.54 -1.53 -2.61 -1.73 -2.85 -1.91 -3.08 -2.08 -3.31 -2.23 -3.54 -2.37 -3.77 -2.5 -4 -2.62 -4.23 -2.72 -4.45 -2.81 -4.68 -2.89 -4.9 -2.95 -5.13 -3 -5.35 -3.04 -5.58 -3.06 -5.8 -3.08 -6.03 -3.08 -6.25 -3.06 -6.48 -3.04 -6.7 -3 -6.92 -2.95 -7.15 -2.89 -7.37 -2.81 -7.6 -2.72 -7.82 -2.62 -8.04 -2.5 -8.27 -2.38 -8.49 -2.24 -8.72 -2.08 -8.94 -1.92 -9.16 -1.74 -9.39 -1.55 -9.61zm0 0c-0.29,-1.94 1.05,-3.76 2.99,-4.05 1.94,-0.29 3.76,1.05 4.05,2.99l-7.04 1.05z"/>
   </g>
   <g>
    <path class="fil0" d="M59.39 307.38c-1.84,-0.68 -2.79,-2.73 -2.11,-4.57 0.68,-1.84 2.73,-2.79 4.57,-2.11l-2.46 6.68zm154.22 -8.39l2.44 6.69 -4.9 1.71 -4.98 1.58 -5.05 1.46 -5.11 1.33 -5.16 1.21 -5.21 1.09 -5.25 0.97 -5.28 0.86 -5.3 0.75 -5.32 0.63 -5.33 0.53 -5.32 0.42 -5.32 0.32 -5.3 0.21 -5.28 0.12 -5.24 0.02 -5.2 -0.08 -5.16 -0.17 -5.1 -0.26 -5.04 -0.36 -4.97 -0.45 -4.89 -0.53 -4.81 -0.61 -4.71 -0.7 -4.61 -0.78 -4.5 -0.86 -4.38 -0.93 -4.26 -1.01 -4.13 -1.08 -3.99 -1.15 -3.85 -1.23 -3.69 -1.3 2.46 -6.68 3.49 1.23 3.66 1.17 3.81 1.1 3.96 1.04 4.1 0.97 4.23 0.9 4.35 0.83 4.47 0.75 4.57 0.68 4.67 0.6 4.76 0.52 4.84 0.43 4.91 0.35 4.97 0.26 5.03 0.17 5.07 0.08 5.11 -0.02 5.14 -0.11 5.17 -0.21 5.18 -0.31 5.19 -0.41 5.18 -0.51 5.17 -0.62 5.15 -0.72 5.13 -0.83 5.09 -0.94 5.05 -1.06 5 -1.17 4.94 -1.29 4.87 -1.4 4.8 -1.52 4.71 -1.64zm0 0c1.85,-0.67 3.89,0.28 4.56,2.12 0.67,1.85 -0.28,3.89 -2.12,4.56l-2.44 -6.69z"/>
   </g>
   <g>
    <path class="fil0" d="M52.44 322.6c-1.75,-0.89 -2.46,-3.03 -1.57,-4.78 0.89,-1.75 3.03,-2.46 4.78,-1.57l-3.21 6.36zm167.8 -7.97l3.12 6.4 -4.15 1.89 -4.41 1.76 -4.64 1.63 -4.86 1.5 -5.06 1.38 -5.25 1.26 -5.42 1.14 -5.57 1.02 -5.7 0.9 -5.82 0.78 -5.91 0.67 -5.99 0.55 -6.05 0.44 -6.09 0.32 -6.11 0.21 -6.12 0.09 -6.11 -0.02 -6.07 -0.13 -6.02 -0.25 -5.95 -0.36 -5.87 -0.47 -5.76 -0.58 -5.64 -0.7 -5.5 -0.81 -5.34 -0.92 -5.16 -1.04 -4.97 -1.15 -4.76 -1.27 -4.53 -1.39 -4.29 -1.51 -4.03 -1.63 -3.75 -1.76 3.21 -6.36 3.38 1.58 3.7 1.5 4 1.4 4.27 1.31 4.52 1.2 4.76 1.1 4.97 1 5.16 0.89 5.33 0.79 5.48 0.68 5.61 0.57 5.72 0.46 5.81 0.35 5.89 0.24 5.94 0.13 5.97 0.02 5.98 -0.09 5.98 -0.2 5.96 -0.32 5.91 -0.43 5.85 -0.54 5.76 -0.65 5.66 -0.76 5.54 -0.87 5.39 -0.99 5.23 -1.1 5.05 -1.21 4.84 -1.32 4.62 -1.43 4.38 -1.53 4.11 -1.64 3.83 -1.74zm0 0c1.77,-0.86 3.9,-0.12 4.76,1.64 0.86,1.77 0.12,3.9 -1.64,4.76l-3.12 -6.4z"/>
   </g>
   <g>
    <path class="fil0" d="M162.51 432.97c-0.08,-1.96 1.44,-3.63 3.4,-3.71 1.96,-0.08 3.63,1.44 3.71,3.4l-7.11 0.31zm11.42 86.96l-7.11 0.35 -0.12 -2.38 -0.12 -2.31 -0.11 -2.24 -0.11 -2.18 -0.11 -2.13 -0.11 -2.1 -0.11 -2.07 -0.11 -2.05 -0.11 -2.05 -0.11 -2.05 -0.11 -2.06 -0.11 -2.09 -0.11 -2.12 -0.12 -2.16 -0.12 -2.22 -0.12 -2.27 -0.12 -2.35 -0.13 -2.43 -0.13 -2.52 -0.13 -2.62 -0.14 -2.73 -0.14 -2.85 -0.14 -2.98 -0.15 -3.12 -0.15 -3.28 -0.16 -3.43 -0.17 -3.6 -0.17 -3.78 -0.18 -3.97 -0.18 -4.17 -0.19 -4.38 -0.2 -4.6 7.11 -0.31 0.2 4.6 0.19 4.38 0.18 4.17 0.18 3.97 0.17 3.78 0.17 3.6 0.16 3.43 0.15 3.27 0.15 3.12 0.14 2.98 0.14 2.85 0.14 2.72 0.13 2.62 0.13 2.52 0.13 2.42 0.12 2.35 0.12 2.27 0.12 2.21 0.12 2.16 0.11 2.12 0.11 2.08 0.11 2.07 0.11 2.05 0.11 2.05 0.11 2.06 0.11 2.08 0.11 2.1 0.11 2.14 0.11 2.19 0.11 2.24 0.12 2.31 0.12 2.38zm0 0c0.1,1.96 -1.42,3.63 -3.38,3.73 -1.96,0.1 -3.63,-1.42 -3.73,-3.38l7.11 -0.35z"/>
   </g>
   <g>
    <path class="fil0" d="M191.44 532.07l0.1 -7.12 0 0 1.32 0.01 1.27 -0.01 1.22 -0.03 1.17 -0.05 1.11 -0.06 1.06 -0.08 1.01 -0.1 0.96 -0.11 0.91 -0.13 0.86 -0.14 0.81 -0.16 0.75 -0.17 0.7 -0.18 0.65 -0.19 0.59 -0.2 0.54 -0.21 0.48 -0.21 0.44 -0.22 0.39 -0.22 0.33 -0.21 0.28 -0.21 0.24 -0.2 0.19 -0.19 0.16 -0.18 0.13 -0.17 0.1 -0.16 0.08 -0.15 0.06 -0.15 0.05 -0.16 0.04 -0.17 0.02 -0.19 0.01 -0.22 7.12 0 -0.03 0.78 -0.09 0.78 -0.16 0.77 -0.23 0.76 -0.3 0.74 -0.36 0.71 -0.42 0.68 -0.48 0.64 -0.52 0.6 -0.58 0.56 -0.61 0.52 -0.65 0.48 -0.69 0.45 -0.72 0.41 -0.75 0.38 -0.79 0.35 -0.82 0.32 -0.86 0.29 -0.89 0.27 -0.93 0.24 -0.97 0.22 -1 0.2 -1.04 0.18 -1.08 0.15 -1.12 0.13 -1.16 0.11 -1.2 0.09 -1.25 0.07 -1.29 0.05 -1.33 0.03 -1.38 0.01 -1.42 -0.01 0 0zm0 0c-1.97,-0.03 -3.54,-1.65 -3.51,-3.61 0.03,-1.97 1.65,-3.54 3.61,-3.51l-0.1 7.12zm-24.63 -11.96l7.12 0 0 0 0.02 0.43 0.04 0.37 0.06 0.32 0.07 0.26 0.09 0.23 0.1 0.19 0.11 0.18 0.13 0.17 0.16 0.17 0.19 0.17 0.24 0.18 0.29 0.18 0.34 0.18 0.4 0.18 0.45 0.18 0.51 0.17 0.56 0.16 0.62 0.15 0.67 0.14 0.71 0.13 0.76 0.11 0.81 0.1 0.85 0.09 0.9 0.08 0.94 0.07 0.98 0.06 1.02 0.05 1.05 0.04 1.09 0.03 1.12 0.03 1.16 0.02 1.19 0.02 -0.1 7.12 -1.21 -0.02 -1.19 -0.02 -1.16 -0.03 -1.14 -0.04 -1.11 -0.04 -1.09 -0.05 -1.06 -0.06 -1.04 -0.08 -1.01 -0.09 -0.99 -0.11 -0.96 -0.12 -0.94 -0.14 -0.92 -0.16 -0.89 -0.19 -0.87 -0.21 -0.85 -0.24 -0.82 -0.28 -0.81 -0.32 -0.78 -0.36 -0.76 -0.41 -0.73 -0.46 -0.7 -0.52 -0.66 -0.58 -0.61 -0.65 -0.55 -0.71 -0.48 -0.76 -0.41 -0.81 -0.33 -0.85 -0.25 -0.88 -0.17 -0.91 -0.1 -0.92 -0.03 -0.94 0 0zm0 0c0,-1.97 1.59,-3.56 3.56,-3.56 1.97,0 3.56,1.59 3.56,3.56l-7.12 0zm27.7 -13.42l-0.89 7.06 0 0 -0.95 -0.1 -0.95 -0.07 -0.96 -0.04 -0.96 -0.01 -0.96 0.02 -0.95 0.05 -0.94 0.07 -0.94 0.1 -0.92 0.13 -0.9 0.15 -0.89 0.18 -0.86 0.2 -0.83 0.22 -0.81 0.24 -0.78 0.26 -0.74 0.28 -0.7 0.3 -0.66 0.31 -0.61 0.32 -0.57 0.33 -0.52 0.34 -0.46 0.34 -0.41 0.34 -0.35 0.33 -0.3 0.32 -0.24 0.31 -0.19 0.28 -0.14 0.26 -0.1 0.24 -0.07 0.22 -0.04 0.21 -0.01 0.21 -7.12 0 0.06 -1.03 0.18 -1 0.28 -0.96 0.38 -0.92 0.46 -0.87 0.53 -0.81 0.6 -0.76 0.65 -0.71 0.7 -0.66 0.74 -0.62 0.79 -0.58 0.83 -0.54 0.86 -0.5 0.89 -0.47 0.93 -0.44 0.96 -0.41 0.98 -0.37 1.01 -0.34 1.04 -0.32 1.06 -0.28 1.08 -0.25 1.1 -0.22 1.12 -0.19 1.13 -0.16 1.14 -0.12 1.16 -0.09 1.16 -0.06 1.17 -0.02 1.18 0.01 1.18 0.05 1.18 0.09 1.18 0.13 0 0zm0 0c1.95,0.24 3.33,2.02 3.09,3.97 -0.24,1.95 -2.02,3.33 -3.97,3.09l0.89 -7.06zm22.06 13.42l-7.12 0 0 0 0.01 0.19 0.02 0.11 0.01 0.04 -0.01 -0.02 -0.05 -0.08 -0.08 -0.13 -0.12 -0.17 -0.17 -0.2 -0.21 -0.22 -0.25 -0.25 -0.3 -0.26 -0.33 -0.28 -0.37 -0.29 -0.41 -0.29 -0.46 -0.3 -0.49 -0.3 -0.53 -0.3 -0.57 -0.3 -0.6 -0.3 -0.64 -0.3 -0.67 -0.29 -0.71 -0.28 -0.74 -0.27 -0.78 -0.26 -0.81 -0.25 -0.84 -0.24 -0.87 -0.23 -0.91 -0.21 -0.94 -0.2 -0.97 -0.18 -1 -0.16 -1.03 -0.14 0.89 -7.06 1.2 0.16 1.16 0.19 1.13 0.21 1.1 0.23 1.07 0.25 1.04 0.27 1.01 0.29 0.98 0.31 0.95 0.32 0.91 0.34 0.88 0.35 0.85 0.36 0.81 0.38 0.78 0.39 0.75 0.4 0.72 0.41 0.69 0.42 0.65 0.43 0.62 0.44 0.59 0.45 0.55 0.46 0.52 0.46 0.49 0.48 0.46 0.49 0.42 0.51 0.39 0.53 0.35 0.55 0.31 0.58 0.27 0.63 0.21 0.67 0.14 0.72 0.05 0.77 0 0zm0 0c0,1.97 -1.59,3.56 -3.56,3.56 -1.97,0 -3.56,-1.59 -3.56,-3.56l7.12 0z"/>
   </g>
   <g>
    <path class="fil0" d="M108.33 432.67c0.08,-1.96 1.74,-3.49 3.71,-3.4 1.96,0.08 3.49,1.74 3.4,3.71l-7.11 -0.3zm3.95 87.62l-7.11 -0.36 0.12 -2.37 0.11 -2.3 0.1 -2.23 0.09 -2.18 0.09 -2.13 0.08 -2.09 0.08 -2.07 0.07 -2.05 0.07 -2.04 0.07 -2.05 0.07 -2.06 0.06 -2.08 0.06 -2.12 0.06 -2.16 0.06 -2.21 0.07 -2.27 0.07 -2.35 0.07 -2.43 0.08 -2.52 0.08 -2.62 0.09 -2.73 0.09 -2.85 0.1 -2.98 0.11 -3.13 0.12 -3.28 0.12 -3.43 0.13 -3.61 0.14 -3.78 0.16 -3.97 0.17 -4.17 0.18 -4.38 0.19 -4.6 7.11 0.3 -0.19 4.59 -0.18 4.38 -0.17 4.17 -0.16 3.97 -0.14 3.78 -0.13 3.6 -0.12 3.43 -0.12 3.27 -0.11 3.12 -0.1 2.98 -0.09 2.85 -0.09 2.72 -0.08 2.62 -0.08 2.52 -0.07 2.42 -0.07 2.35 -0.07 2.27 -0.06 2.21 -0.06 2.16 -0.06 2.12 -0.07 2.09 -0.07 2.07 -0.07 2.06 -0.07 2.05 -0.07 2.06 -0.08 2.08 -0.08 2.11 -0.09 2.14 -0.09 2.19 -0.1 2.25 -0.11 2.31 -0.12 2.39zm0 0c-0.1,1.96 -1.77,3.47 -3.73,3.38 -1.96,-0.1 -3.47,-1.77 -3.38,-3.73l7.11 0.36z"/>
   </g>
   <g>
    <path class="fil0" d="M87.58 524.95l0.1 7.12 0 0 -1.42 0.01 -1.38 -0.01 -1.33 -0.03 -1.29 -0.05 -1.25 -0.07 -1.2 -0.09 -1.16 -0.11 -1.12 -0.13 -1.08 -0.15 -1.04 -0.18 -1 -0.2 -0.97 -0.22 -0.93 -0.24 -0.89 -0.27 -0.86 -0.29 -0.83 -0.32 -0.79 -0.35 -0.76 -0.38 -0.72 -0.41 -0.69 -0.45 -0.65 -0.48 -0.61 -0.51 -0.58 -0.56 -0.53 -0.6 -0.48 -0.64 -0.42 -0.68 -0.36 -0.71 -0.3 -0.74 -0.23 -0.76 -0.16 -0.77 -0.09 -0.78 -0.03 -0.78 7.12 0 0.01 0.22 0.02 0.19 0.04 0.17 0.05 0.16 0.06 0.15 0.08 0.15 0.1 0.16 0.13 0.17 0.16 0.18 0.19 0.19 0.24 0.2 0.28 0.21 0.33 0.21 0.39 0.22 0.44 0.22 0.49 0.21 0.54 0.21 0.59 0.2 0.65 0.19 0.7 0.18 0.75 0.17 0.81 0.16 0.86 0.14 0.91 0.13 0.96 0.11 1.01 0.1 1.06 0.08 1.11 0.06 1.17 0.05 1.22 0.03 1.27 0.01 1.32 -0.01 0 0zm0 0c1.97,-0.03 3.58,1.54 3.61,3.51 0.03,1.97 -1.54,3.58 -3.51,3.61l-0.1 -7.12zm17.59 -4.84l7.12 0 0 0 -0.03 0.94 -0.1 0.92 -0.17 0.91 -0.25 0.88 -0.33 0.85 -0.41 0.81 -0.48 0.76 -0.55 0.71 -0.61 0.65 -0.66 0.58 -0.7 0.52 -0.73 0.46 -0.76 0.41 -0.78 0.36 -0.81 0.32 -0.82 0.28 -0.85 0.24 -0.87 0.21 -0.89 0.19 -0.91 0.16 -0.94 0.14 -0.96 0.12 -0.99 0.11 -1.01 0.09 -1.03 0.08 -1.06 0.06 -1.09 0.05 -1.11 0.04 -1.14 0.04 -1.16 0.03 -1.19 0.02 -1.21 0.02 -0.1 -7.12 1.19 -0.02 1.15 -0.02 1.12 -0.03 1.09 -0.03 1.05 -0.04 1.01 -0.05 0.98 -0.06 0.94 -0.07 0.89 -0.08 0.85 -0.09 0.81 -0.1 0.76 -0.11 0.71 -0.13 0.67 -0.14 0.61 -0.15 0.56 -0.16 0.51 -0.17 0.45 -0.18 0.4 -0.18 0.34 -0.18 0.29 -0.18 0.24 -0.18 0.19 -0.17 0.16 -0.17 0.13 -0.17 0.11 -0.18 0.1 -0.19 0.09 -0.23 0.07 -0.26 0.06 -0.31 0.04 -0.38 0.02 -0.43 0 0zm0 0c0,-1.97 1.59,-3.56 3.56,-3.56 1.97,0 3.56,1.59 3.56,3.56l-7.12 0zm-19.68 -6.36l-0.89 -7.06 0 0 1.18 -0.13 1.18 -0.09 1.18 -0.05 1.18 -0.01 1.17 0.02 1.16 0.06 1.16 0.09 1.14 0.12 1.13 0.16 1.12 0.19 1.1 0.22 1.08 0.25 1.06 0.28 1.03 0.31 1.01 0.34 0.98 0.37 0.96 0.41 0.92 0.44 0.89 0.47 0.86 0.51 0.82 0.54 0.79 0.58 0.74 0.62 0.7 0.66 0.65 0.71 0.6 0.76 0.53 0.81 0.46 0.87 0.38 0.92 0.28 0.96 0.18 1.01 0.06 1.03 -7.12 0 -0.01 -0.21 -0.03 -0.21 -0.07 -0.22 -0.1 -0.24 -0.14 -0.26 -0.19 -0.29 -0.24 -0.31 -0.3 -0.32 -0.35 -0.33 -0.41 -0.34 -0.46 -0.34 -0.52 -0.34 -0.57 -0.33 -0.62 -0.32 -0.66 -0.31 -0.7 -0.3 -0.74 -0.28 -0.77 -0.26 -0.81 -0.25 -0.83 -0.22 -0.86 -0.2 -0.88 -0.18 -0.9 -0.15 -0.92 -0.13 -0.93 -0.1 -0.94 -0.07 -0.95 -0.05 -0.96 -0.02 -0.96 0.01 -0.96 0.04 -0.95 0.07 -0.95 0.1 0 0zm0 0c-1.95,0.24 -3.73,-1.14 -3.97,-3.09 -0.24,-1.95 1.14,-3.73 3.09,-3.97l0.89 7.06zm-15.84 6.36l-7.12 0 0 0 0.05 -0.77 0.14 -0.72 0.21 -0.67 0.27 -0.62 0.31 -0.58 0.35 -0.55 0.39 -0.52 0.42 -0.51 0.46 -0.49 0.49 -0.48 0.52 -0.47 0.55 -0.45 0.59 -0.45 0.62 -0.44 0.65 -0.42 0.69 -0.42 0.72 -0.41 0.75 -0.4 0.78 -0.39 0.82 -0.38 0.85 -0.36 0.88 -0.35 0.91 -0.34 0.95 -0.32 0.98 -0.31 1.01 -0.29 1.04 -0.27 1.07 -0.25 1.1 -0.23 1.14 -0.21 1.16 -0.19 1.2 -0.16 0.89 7.06 -1.03 0.14 -1 0.16 -0.97 0.18 -0.94 0.2 -0.91 0.21 -0.87 0.23 -0.84 0.24 -0.81 0.25 -0.78 0.26 -0.74 0.27 -0.71 0.28 -0.67 0.29 -0.64 0.3 -0.6 0.3 -0.57 0.3 -0.53 0.3 -0.49 0.3 -0.46 0.3 -0.42 0.29 -0.37 0.28 -0.34 0.28 -0.3 0.26 -0.25 0.25 -0.21 0.23 -0.17 0.2 -0.13 0.17 -0.08 0.13 -0.05 0.08 -0.01 0.02 0.01 -0.05 0.02 -0.11 0.01 -0.19 0 0zm0 0c0,1.97 -1.59,3.56 -3.56,3.56 -1.97,0 -3.56,-1.59 -3.56,-3.56l7.12 0z"/>
   </g>
   <g>
    <path class="fil0" d="M8.78 350.25l-2.66 6.6 -0 0 -1.3 -0.66 -1.14 -0.86 -0.96 -1.01 -0.78 -1.12 -0.62 -1.19 -0.47 -1.23 -0.36 -1.28 -0.25 -1.31 -0.16 -1.34 -0.08 -1.37 -0 -1.4 0.07 -1.42 0.13 -1.44 0.19 -1.46 0.25 -1.47 0.3 -1.47 0.36 -1.47 0.41 -1.46 0.46 -1.45 0.5 -1.43 0.55 -1.4 0.59 -1.37 0.64 -1.33 0.68 -1.29 0.72 -1.24 0.76 -1.18 0.81 -1.12 0.86 -1.05 0.92 -0.98 0.99 -0.9 1.06 -0.8 1.14 -0.68 3.29 6.31 -0.45 0.27 -0.5 0.38 -0.54 0.49 -0.57 0.6 -0.58 0.7 -0.58 0.8 -0.57 0.89 -0.56 0.96 -0.54 1.03 -0.52 1.09 -0.49 1.13 -0.46 1.17 -0.42 1.2 -0.38 1.22 -0.35 1.23 -0.3 1.23 -0.26 1.23 -0.21 1.21 -0.16 1.18 -0.11 1.14 -0.05 1.09 0 1.04 0.05 0.96 0.11 0.88 0.15 0.78 0.19 0.67 0.21 0.55 0.22 0.42 0.21 0.3 0.19 0.2 0.17 0.13 0.18 0.09 -0 0zm0 0c1.82,0.74 2.7,2.81 1.97,4.63 -0.74,1.82 -2.81,2.7 -4.63,1.97l2.67 -6.6zm18.56 -21.07l7.07 -0.84 -0 -0 0.08 1.28 -0.06 1.28 -0.18 1.27 -0.28 1.26 -0.37 1.26 -0.45 1.26 -0.53 1.26 -0.6 1.26 -0.66 1.26 -0.72 1.25 -0.77 1.24 -0.83 1.23 -0.87 1.21 -0.91 1.19 -0.95 1.16 -0.99 1.13 -1.02 1.1 -1.05 1.05 -1.08 1.01 -1.1 0.96 -1.12 0.9 -1.14 0.84 -1.16 0.77 -1.18 0.69 -1.2 0.61 -1.22 0.52 -1.25 0.42 -1.29 0.3 -1.32 0.16 -1.35 -0 -1.37 -0.2 -1.35 -0.42 2.66 -6.6 0.25 0.08 0.31 0.04 0.4 -0 0.5 -0.06 0.59 -0.14 0.67 -0.22 0.74 -0.31 0.79 -0.4 0.83 -0.49 0.86 -0.57 0.88 -0.65 0.89 -0.72 0.89 -0.78 0.89 -0.83 0.88 -0.89 0.86 -0.92 0.84 -0.96 0.81 -0.99 0.78 -1.01 0.74 -1.03 0.69 -1.03 0.64 -1.03 0.59 -1.02 0.53 -1.01 0.46 -0.98 0.39 -0.94 0.32 -0.89 0.25 -0.84 0.17 -0.76 0.1 -0.67 0.03 -0.57 -0.02 -0.46 -0 -0zm0 0c-0.23,-1.95 1.16,-3.72 3.11,-3.96 1.95,-0.23 3.72,1.16 3.96,3.11l-7.07 0.84zm-11.65 -5.21l-3.29 -6.31 -0.01 0 0.94 -0.46 0.95 -0.4 0.95 -0.34 0.95 -0.28 0.95 -0.22 0.95 -0.16 0.94 -0.1 0.94 -0.04 0.93 0.02 0.91 0.08 0.89 0.13 0.87 0.18 0.85 0.23 0.84 0.29 0.81 0.33 0.79 0.38 0.75 0.43 0.72 0.47 0.7 0.51 0.66 0.55 0.62 0.59 0.59 0.62 0.55 0.66 0.51 0.69 0.47 0.72 0.43 0.75 0.38 0.78 0.33 0.8 0.29 0.83 0.24 0.85 0.19 0.87 0.13 0.89 -7.07 0.84 -0.07 -0.46 -0.09 -0.44 -0.12 -0.43 -0.14 -0.42 -0.17 -0.41 -0.19 -0.39 -0.21 -0.38 -0.23 -0.36 -0.26 -0.35 -0.28 -0.33 -0.3 -0.31 -0.31 -0.29 -0.33 -0.27 -0.35 -0.26 -0.37 -0.24 -0.38 -0.21 -0.39 -0.19 -0.41 -0.17 -0.42 -0.14 -0.44 -0.12 -0.45 -0.09 -0.46 -0.07 -0.47 -0.04 -0.48 -0.01 -0.5 0.02 -0.51 0.05 -0.52 0.09 -0.53 0.12 -0.55 0.16 -0.56 0.2 -0.57 0.24 -0.59 0.29 -0.01 0zm0.01 -0c-1.74,0.91 -3.89,0.24 -4.8,-1.5 -0.91,-1.74 -0.24,-3.89 1.5,-4.8l3.3 6.31z"/>
   </g>
   <g>
    <path class="fil0" d="M79.94 228.41c0.96,-1.72 3.13,-2.33 4.85,-1.37 1.72,0.96 2.33,3.13 1.37,4.85l-6.21 -3.48zm-52.04 94.2l-5.62 -4.38 1.9 -2.46 1.92 -2.54 1.93 -2.6 1.95 -2.66 1.96 -2.72 1.96 -2.77 1.97 -2.82 1.97 -2.86 1.97 -2.9 1.97 -2.93 1.97 -2.96 1.96 -2.98 1.95 -3 1.94 -3.01 1.92 -3.02 1.91 -3.02 1.89 -3.01 1.87 -3.01 1.85 -2.99 1.82 -2.98 1.79 -2.95 1.77 -2.93 1.73 -2.9 1.7 -2.86 1.66 -2.82 1.62 -2.77 1.58 -2.72 1.54 -2.66 1.49 -2.6 1.44 -2.53 1.39 -2.46 1.34 -2.38 6.21 3.48 -1.35 2.41 -1.4 2.48 -1.46 2.55 -1.5 2.62 -1.55 2.68 -1.59 2.74 -1.63 2.79 -1.67 2.84 -1.71 2.88 -1.75 2.91 -1.78 2.95 -1.81 2.97 -1.84 3 -1.86 3.02 -1.89 3.03 -1.9 3.04 -1.93 3.04 -1.94 3.04 -1.96 3.04 -1.97 3.02 -1.98 3.01 -1.99 2.99 -1.99 2.96 -1.99 2.93 -2 2.9 -1.99 2.86 -1.99 2.81 -1.99 2.76 -1.98 2.71 -1.97 2.65 -1.96 2.59 -1.94 2.52zm0 0c-1.21,1.55 -3.45,1.83 -5,0.62 -1.55,-1.21 -1.83,-3.45 -0.62,-5l5.62 4.38z"/>
   </g>
   <g>
    <path class="fil0" d="M267.43 355.81l-1.81 -6.89 0.01 -0 0.2 -0.07 0.19 -0.11 0.21 -0.17 0.25 -0.27 0.27 -0.39 0.28 -0.52 0.27 -0.64 0.25 -0.76 0.22 -0.86 0.18 -0.95 0.13 -1.02 0.09 -1.09 0.04 -1.15 -0 -1.19 -0.05 -1.23 -0.1 -1.25 -0.14 -1.26 -0.18 -1.27 -0.23 -1.26 -0.27 -1.24 -0.31 -1.22 -0.34 -1.19 -0.38 -1.14 -0.41 -1.09 -0.43 -1.02 -0.46 -0.95 -0.47 -0.87 -0.48 -0.77 -0.48 -0.67 -0.47 -0.56 -0.45 -0.44 -0.41 -0.32 4.07 -5.84 1.05 0.82 0.95 0.93 0.86 1.01 0.79 1.09 0.72 1.15 0.66 1.22 0.61 1.27 0.56 1.32 0.51 1.36 0.46 1.4 0.41 1.43 0.37 1.46 0.32 1.48 0.27 1.49 0.22 1.5 0.17 1.5 0.11 1.5 0.06 1.49 0 1.47 -0.06 1.45 -0.12 1.42 -0.18 1.39 -0.25 1.35 -0.33 1.31 -0.42 1.27 -0.52 1.22 -0.63 1.17 -0.76 1.1 -0.92 1.01 -1.09 0.88 -1.25 0.71 -1.37 0.49 0.01 -0zm-0.01 0c-1.9,0.5 -3.85,-0.65 -4.34,-2.55 -0.5,-1.9 0.65,-3.85 2.55,-4.34l1.8 6.89zm-24.42 -31.89l6.9 1.75 0.01 -0.02 -0.08 0.45 -0.04 0.57 0.01 0.68 0.07 0.78 0.14 0.86 0.21 0.93 0.27 0.99 0.34 1.03 0.4 1.07 0.45 1.09 0.51 1.11 0.56 1.12 0.6 1.11 0.64 1.1 0.68 1.09 0.71 1.06 0.74 1.03 0.76 0.99 0.78 0.94 0.79 0.89 0.79 0.82 0.79 0.75 0.78 0.68 0.76 0.59 0.73 0.5 0.69 0.41 0.64 0.31 0.57 0.21 0.48 0.13 0.4 0.05 0.32 -0 0.25 -0.04 1.81 6.89 -1.39 0.24 -1.38 0.03 -1.34 -0.17 -1.29 -0.33 -1.23 -0.46 -1.19 -0.57 -1.15 -0.67 -1.11 -0.76 -1.08 -0.84 -1.05 -0.91 -1.02 -0.97 -1 -1.04 -0.97 -1.09 -0.94 -1.14 -0.91 -1.18 -0.87 -1.22 -0.84 -1.25 -0.8 -1.28 -0.76 -1.3 -0.71 -1.31 -0.66 -1.32 -0.61 -1.33 -0.56 -1.33 -0.49 -1.33 -0.43 -1.33 -0.36 -1.32 -0.29 -1.31 -0.21 -1.3 -0.12 -1.29 -0.02 -1.28 0.1 -1.27 0.23 -1.26 0.01 -0.02zm-0.01 0.02c0.47,-1.91 2.41,-3.07 4.31,-2.6 1.91,0.47 3.07,2.41 2.6,4.31l-6.91 -1.72zm23.21 -7.8l-4.07 5.84 -0 -0 -0.55 -0.36 -0.54 -0.31 -0.53 -0.27 -0.53 -0.23 -0.52 -0.19 -0.51 -0.15 -0.5 -0.12 -0.49 -0.08 -0.48 -0.05 -0.47 -0.02 -0.46 0.01 -0.45 0.03 -0.44 0.06 -0.43 0.09 -0.42 0.11 -0.41 0.14 -0.4 0.16 -0.39 0.19 -0.38 0.21 -0.36 0.23 -0.35 0.25 -0.33 0.27 -0.32 0.3 -0.3 0.31 -0.28 0.33 -0.26 0.35 -0.24 0.37 -0.22 0.38 -0.2 0.4 -0.18 0.41 -0.15 0.43 -0.13 0.44 -6.9 -1.75 0.25 -0.86 0.3 -0.84 0.35 -0.81 0.39 -0.78 0.44 -0.76 0.48 -0.72 0.52 -0.69 0.56 -0.66 0.59 -0.62 0.63 -0.58 0.66 -0.55 0.7 -0.51 0.72 -0.46 0.75 -0.42 0.78 -0.37 0.8 -0.33 0.82 -0.28 0.85 -0.23 0.86 -0.18 0.88 -0.12 0.89 -0.07 0.91 -0.02 0.91 0.04 0.92 0.1 0.92 0.16 0.92 0.22 0.92 0.28 0.91 0.34 0.91 0.4 0.9 0.46 0.89 0.52 0.87 0.58 -0 -0zm0 0c1.61,1.13 2.01,3.34 0.88,4.96 -1.13,1.61 -3.34,2.01 -4.96,0.88l4.07 -5.84z"/>
   </g>
   <g>
    <path class="fil0" d="M186.47 223.18c-0.9,-1.75 -0.21,-3.89 1.54,-4.79 1.75,-0.9 3.89,-0.21 4.79,1.54l-6.33 3.25zm69.45 91.71l-5.31 4.75 -2.08 -2.38 -2.13 -2.52 -2.18 -2.65 -2.21 -2.78 -2.25 -2.89 -2.28 -3 -2.3 -3.09 -2.32 -3.18 -2.33 -3.25 -2.34 -3.31 -2.34 -3.36 -2.33 -3.4 -2.32 -3.44 -2.31 -3.46 -2.29 -3.47 -2.26 -3.47 -2.23 -3.45 -2.19 -3.43 -2.15 -3.4 -2.1 -3.36 -2.04 -3.3 -1.98 -3.24 -1.91 -3.17 -1.84 -3.08 -1.76 -2.99 -1.68 -2.88 -1.59 -2.76 -1.49 -2.64 -1.39 -2.5 -1.29 -2.35 -1.18 -2.2 -1.06 -2.04 6.33 -3.25 1.02 1.96 1.15 2.14 1.26 2.31 1.37 2.46 1.47 2.6 1.57 2.73 1.66 2.85 1.74 2.95 1.82 3.05 1.89 3.14 1.96 3.21 2.02 3.28 2.08 3.33 2.13 3.37 2.17 3.4 2.21 3.42 2.24 3.44 2.27 3.44 2.28 3.42 2.3 3.4 2.31 3.37 2.31 3.32 2.31 3.27 2.3 3.2 2.28 3.13 2.26 3.04 2.23 2.94 2.2 2.83 2.16 2.71 2.11 2.57 2.06 2.43 1.99 2.28zm0 0c1.31,1.47 1.19,3.72 -0.28,5.03 -1.47,1.31 -3.72,1.19 -5.03,-0.28l5.31 -4.75z"/>
   </g>
  </g>
 </g>
</svg>
