<?xml version="1.0" encoding="UTF-8"?>
<!DOCTYPE svg PUBLIC "-//W3C//DTD SVG 1.1//EN" "http://www.w3.org/Graphics/SVG/1.1/DTD/svg11.dtd">
<!-- Creator: CorelDRAW Standard 2021 (64-Bit) -->
<svg xmlns="http://www.w3.org/2000/svg" xml:space="preserve" width="22.0785mm" height="41.1242mm" version="1.1" style="shape-rendering:geometricPrecision; text-rendering:geometricPrecision; image-rendering:optimizeQuality; fill-rule:evenodd; clip-rule:evenodd"
viewBox="0 0 2117.7 3944.5"
 xmlns:xlink="http://www.w3.org/1999/xlink"
 xmlns:xodm="http://www.corel.com/coreldraw/odm/2003">
 <defs>
  <style type="text/css">
   <![CDATA[
    .fil1 {fill:#2B2A29;fill-rule:nonzero}
    .fil0 {fill:#1D1D1B;fill-rule:nonzero}
   ]]>
  </style>
 </defs>
 <g id="Layer_x0020_1">
  <metadata id="CorelCorpID_0Corel-Layer"/>
  <g id="petite_x0020_fille">
   <g>
    <path class="fil0" d="M1587.01 960.06c0,-14.57 11.82,-26.39 26.39,-26.39 14.57,0 26.39,11.82 26.39,26.39l-52.77 0zm39.1 134.68l-51.7 -10.63 0 0.01 0.79 -3.89 0.76 -3.87 0.72 -3.88 0.72 -3.91 0.68 -3.88 0.66 -3.88 0.62 -3.87 0.6 -3.9 0.58 -3.88 0.56 -3.9 0.54 -3.9 0.51 -3.87 0.47 -3.87 0.45 -3.9 0.44 -3.89 0.4 -3.87 0.37 -3.86 0.35 -3.89 0.34 -3.89 0.31 -3.88 0.28 -3.87 0.25 -3.86 0.23 -3.91 0.21 -3.88 0.18 -3.86 0.16 -3.84 0.12 -3.88 0.12 -3.88 0.08 -3.86 0.07 -3.88 0.04 -3.82 0.01 -3.87 52.77 0 -0.01 4.17 -0.04 4.2 -0.07 4.18 -0.1 4.18 -0.12 4.18 -0.14 4.18 -0.16 4.22 -0.2 4.22 -0.23 4.2 -0.25 4.16 -0.27 4.22 -0.32 4.23 -0.33 4.19 -0.35 4.2 -0.38 4.2 -0.41 4.24 -0.44 4.23 -0.46 4.2 -0.49 4.21 -0.53 4.23 -0.55 4.23 -0.58 4.21 -0.59 4.19 -0.63 4.24 -0.66 4.21 -0.68 4.23 -0.72 4.23 -0.74 4.21 -0.76 4.18 -0.8 4.24 -0.83 4.23 -0.84 4.2 0 0.01zm0 -0.01c-2.93,14.27 -16.88,23.47 -31.15,20.55 -14.27,-2.93 -23.47,-16.88 -20.55,-31.15l51.7 10.61zm-740.5 542.04l9.65 -51.89 -0.01 0 34.37 5.54 33.55 3.78 32.74 2.04 31.9 0.35 31.1 -1.29 30.26 -2.87 29.44 -4.43 28.61 -5.92 27.78 -7.39 26.95 -8.81 26.14 -10.2 25.3 -11.54 24.47 -12.86 23.64 -14.14 22.8 -15.38 21.96 -16.59 21.11 -17.76 20.25 -18.91 19.38 -20.01 18.5 -21.1 17.62 -22.13 16.7 -23.14 15.8 -24.09 14.88 -25.02 13.92 -25.91 12.97 -26.77 12.01 -27.58 11.02 -28.35 10.02 -29.08 9.02 -29.77 8 -30.42 6.96 -31.03 51.7 10.63 -7.39 32.89 -8.48 32.29 -9.59 31.67 -10.69 31 -11.77 30.27 -12.85 29.53 -13.91 28.73 -14.99 27.88 -16.05 27 -17.08 26.07 -18.14 25.11 -19.17 24.07 -20.19 23.02 -21.21 21.91 -22.22 20.75 -23.2 19.53 -24.2 18.28 -25.18 16.97 -26.12 15.62 -27.06 14.22 -27.99 12.77 -28.88 11.27 -29.77 9.74 -30.64 8.15 -31.47 6.51 -32.3 4.85 -33.1 3.14 -33.88 1.4 -34.65 -0.39 -35.38 -2.2 -36.12 -4.07 -36.82 -5.95 -0.01 0zm0.01 0c-14.32,-2.66 -23.79,-16.44 -21.13,-30.76 2.66,-14.32 16.44,-23.79 30.76,-21.13l-9.63 51.89zm-463.32 -691.22l52.33 6.85 -2.35 20.62 -1.73 21.37 -1.06 22.02 -0.36 22.6 0.38 23.08 1.16 23.49 1.98 23.81 2.84 24.05 3.73 24.2 4.66 24.28 5.61 24.28 6.63 24.19 7.65 24.04 8.71 23.79 9.82 23.48 10.96 23.09 12.11 22.64 13.32 22.09 14.56 21.48 15.84 20.83 17.16 20.08 18.5 19.27 19.91 18.41 21.34 17.48 22.85 16.48 24.4 15.4 26 14.28 27.65 13.06 29.38 11.78 31.14 10.43 32.97 8.97 34.85 7.45 -9.65 51.89 -37.63 -8.05 -35.82 -9.75 -34.04 -11.39 -32.28 -12.95 -30.53 -14.43 -28.82 -15.82 -27.14 -17.13 -25.48 -18.38 -23.84 -19.51 -22.23 -20.55 -20.65 -21.51 -19.12 -22.38 -17.62 -23.15 -16.15 -23.84 -14.74 -24.45 -13.36 -24.94 -12.04 -25.37 -10.76 -25.71 -9.51 -25.97 -8.33 -26.15 -7.18 -26.24 -6.09 -26.27 -5.03 -26.21 -4.02 -26.08 -3.05 -25.89 -2.13 -25.59 -1.26 -25.24 -0.4 -24.8 0.38 -24.31 1.14 -23.73 1.88 -23.08 2.54 -22.37zm0 0c1.89,-14.45 15.15,-24.63 29.59,-22.74 14.45,1.89 24.63,15.15 22.74,29.59l-52.33 -6.85z"/>
   </g>
   <g>
    <path class="fil0" d="M448.48 989.49c14.21,3.23 23.09,17.39 19.85,31.59 -3.23,14.21 -17.39,23.09 -31.59,19.85l11.74 -51.45zm-143.58 181.32l-51.32 12.33 0 -0.01 -2.08 -10.49 -1.25 -10.51 -0.4 -10.45 0.38 -10.33 1.13 -10.18 1.86 -10.02 2.52 -9.78 3.16 -9.56 3.76 -9.31 4.3 -9.01 4.82 -8.75 5.32 -8.43 5.77 -8.11 6.22 -7.79 6.63 -7.42 6.98 -7.06 7.36 -6.69 7.68 -6.27 7.98 -5.87 8.28 -5.44 8.57 -4.99 8.81 -4.51 9.04 -4.01 9.26 -3.48 9.44 -2.92 9.63 -2.36 9.76 -1.72 9.87 -1.07 9.98 -0.39 10.05 0.34 10.05 1.08 10.01 1.88 -11.74 51.45 -5.99 -1.11 -6.06 -0.66 -6.14 -0.2 -6.25 0.26 -6.34 0.69 -6.37 1.12 -6.39 1.55 -6.41 2 -6.36 2.39 -6.31 2.8 -6.23 3.18 -6.08 3.55 -5.94 3.9 -5.77 4.24 -5.55 4.55 -5.3 4.82 -5.05 5.1 -4.75 5.33 -4.41 5.52 -4.09 5.74 -3.71 5.88 -3.33 6.02 -2.94 6.15 -2.51 6.21 -2.06 6.26 -1.64 6.33 -1.17 6.34 -0.71 6.36 -0.25 6.38 0.25 6.37 0.75 6.39 1.28 6.43 0 -0.01zm0 0.01c3.4,14.17 -5.33,28.42 -19.5,31.82 -14.17,3.4 -28.42,-5.33 -31.82,-19.5l51.32 -12.32zm165.24 80.6l27.89 44.81 -8.52 4.85 -8.78 4.18 -9 3.49 -9.13 2.81 -9.28 2.17 -9.36 1.53 -9.4 0.91 -9.43 0.31 -9.42 -0.26 -9.39 -0.82 -9.33 -1.35 -9.26 -1.87 -9.16 -2.39 -9.03 -2.86 -8.9 -3.35 -8.74 -3.81 -8.54 -4.25 -8.36 -4.71 -8.1 -5.12 -7.89 -5.57 -7.61 -5.99 -7.29 -6.38 -6.99 -6.79 -6.64 -7.2 -6.25 -7.57 -5.85 -7.96 -5.41 -8.33 -4.95 -8.69 -4.44 -9.04 -3.91 -9.35 -3.35 -9.7 -2.74 -9.98 51.32 -12.33 1.84 6.7 2.25 6.51 2.65 6.34 3.02 6.15 3.4 5.95 3.74 5.76 4.07 5.52 4.39 5.32 4.68 5.07 4.96 4.82 5.24 4.58 5.44 4.3 5.65 3.98 5.86 3.7 6 3.39 6.16 3.06 6.24 2.73 6.33 2.37 6.4 2.03 6.4 1.66 6.42 1.29 6.38 0.93 6.34 0.55 6.25 0.18 6.15 -0.21 6.04 -0.59 5.89 -0.95 5.75 -1.34 5.6 -1.72 5.39 -2.09 5.25 -2.49 5.06 -2.9zm0 0c12.37,-7.7 28.65,-3.91 36.35,8.46 7.7,12.37 3.91,28.65 -8.46,36.35l-27.89 -44.81z"/>
   </g>
   <g>
    <path class="fil0" d="M1603.39 1107.23c-14.56,-0.36 -26.08,-12.48 -25.72,-27.04 0.36,-14.56 12.48,-26.08 27.04,-25.72l-1.32 52.75zm138.32 137.66l-51.49 -11.61 -0.02 0.07 1.15 -6.16 0.69 -6.03 0.27 -5.97 -0.14 -5.88 -0.53 -5.82 -0.89 -5.74 -1.26 -5.67 -1.6 -5.59 -1.94 -5.53 -2.25 -5.44 -2.55 -5.33 -2.85 -5.23 -3.1 -5.1 -3.35 -4.94 -3.57 -4.8 -3.77 -4.6 -3.95 -4.42 -4.08 -4.21 -4.21 -3.98 -4.3 -3.75 -4.35 -3.49 -4.37 -3.21 -4.36 -2.94 -4.3 -2.63 -4.22 -2.32 -4.11 -2 -3.92 -1.68 -3.69 -1.35 -3.39 -1.02 -3.06 -0.7 -2.67 -0.41 -2.16 -0.16 1.32 -52.75 6.78 0.47 6.66 1.03 6.63 1.51 6.57 1.98 6.49 2.37 6.46 2.77 6.41 3.14 6.39 3.51 6.31 3.86 6.24 4.19 6.16 4.54 6.05 4.85 5.93 5.17 5.8 5.5 5.63 5.8 5.43 6.09 5.25 6.43 4.99 6.69 4.73 6.99 4.44 7.29 4.1 7.55 3.76 7.85 3.35 8.1 2.94 8.35 2.47 8.62 1.97 8.87 1.41 9.07 0.83 9.26 0.22 9.43 -0.42 9.59 -1.11 9.72 -1.82 9.76 -0.02 0.07zm0.02 -0.07c-3.17,14.22 -17.27,23.19 -31.5,20.03 -14.22,-3.17 -23.19,-17.27 -20.03,-31.5l51.53 11.47zm-225.26 78.58l26.99 -45.35 4.5 2.47 4.73 2.23 4.99 1.98 5.21 1.73 5.37 1.45 5.55 1.17 5.73 0.91 5.84 0.62 5.9 0.34 5.99 0.06 6 -0.22 5.99 -0.51 5.99 -0.8 5.94 -1.06 5.84 -1.33 5.72 -1.59 5.59 -1.84 5.41 -2.08 5.21 -2.32 4.98 -2.53 4.73 -2.75 4.47 -2.94 4.17 -3.12 3.88 -3.29 3.55 -3.44 3.22 -3.57 2.89 -3.7 2.54 -3.83 2.21 -3.95 1.89 -4.12 1.53 -4.26 1.21 -4.47 51.49 11.61 -2.34 8.69 -3.03 8.38 -3.65 8 -4.24 7.62 -4.79 7.18 -5.25 6.75 -5.7 6.33 -6.08 5.88 -6.43 5.46 -6.74 5.05 -7.02 4.62 -7.28 4.23 -7.51 3.82 -7.68 3.41 -7.87 3.04 -8.01 2.65 -8.15 2.26 -8.26 1.87 -8.34 1.5 -8.4 1.1 -8.47 0.72 -8.48 0.32 -8.47 -0.08 -8.49 -0.49 -8.43 -0.91 -8.37 -1.31 -8.32 -1.76 -8.21 -2.22 -8.07 -2.67 -7.92 -3.15 -7.74 -3.64 -7.51 -4.14zm0 0c-12.52,-7.45 -16.63,-23.65 -9.18,-36.17 7.45,-12.52 23.65,-16.63 36.17,-9.18l-26.99 45.35z"/>
   </g>
   <path class="fil0" d="M846.59 1019.91c22,-1.38 44.64,25.96 32.13,55.4 -12.66,29.51 -54.77,36.79 -71.55,4.39 -15.04,-29.03 10.77,-58.05 39.42,-59.79z"/>
   <path class="fil0" d="M1136.91 1059.37c-4.75,-21.57 18.67,-48.23 49.7,-40.48 31.03,7.71 44.96,48.19 15.67,69.88 -26.28,19.42 -59.05,-1.47 -65.38,-29.4z"/>
   <g>
    <path class="fil0" d="M714.67 1217.28c-3.65,-14.1 4.82,-28.52 18.91,-32.17 14.1,-3.65 28.52,4.82 32.17,18.91l-51.09 13.26zm282 159.46l1.25 52.77 -0.01 0 -16.34 -0.07 -15.89 -0.95 -15.43 -1.78 -14.94 -2.58 -14.46 -3.33 -13.97 -4.03 -13.47 -4.7 -12.94 -5.29 -12.44 -5.86 -11.92 -6.37 -11.41 -6.82 -10.9 -7.24 -10.4 -7.6 -9.87 -7.9 -9.39 -8.17 -8.9 -8.4 -8.39 -8.57 -7.92 -8.7 -7.44 -8.79 -7 -8.84 -6.53 -8.86 -6.06 -8.81 -5.62 -8.74 -5.19 -8.63 -4.77 -8.51 -4.32 -8.3 -3.9 -8.09 -3.49 -7.85 -3.08 -7.56 -2.68 -7.28 -2.28 -6.95 -1.88 -6.66 51.09 -13.26 1.27 4.45 1.65 5.05 2.04 5.53 2.43 5.97 2.8 6.31 3.21 6.63 3.59 6.9 3.96 7.09 4.36 7.25 4.74 7.38 5.12 7.43 5.5 7.46 5.87 7.44 6.27 7.39 6.64 7.3 7.01 7.16 7.37 6.96 7.76 6.75 8.12 6.5 8.5 6.22 8.86 5.88 9.25 5.53 9.62 5.14 10 4.71 10.39 4.26 10.8 3.76 11.18 3.24 11.63 2.68 12.05 2.08 12.52 1.44 12.96 0.78 13.47 0.05 -0.01 0zm0.01 0c14.57,-0.34 26.66,11.2 27,25.77 0.34,14.57 -11.2,26.66 -25.77,27l-1.23 -52.77zm234.29 -184.58l50.61 15 -1.76 5.74 -2.06 6.25 -2.37 6.7 -2.7 7.16 -3.05 7.55 -3.41 7.88 -3.78 8.22 -4.19 8.49 -4.59 8.69 -5.01 8.89 -5.49 9.04 -5.93 9.12 -6.41 9.17 -6.93 9.19 -7.43 9.15 -7.97 9.04 -8.52 8.92 -9.08 8.73 -9.68 8.51 -10.28 8.21 -10.89 7.87 -11.51 7.48 -12.13 7.04 -12.78 6.55 -13.43 6 -14.08 5.41 -14.73 4.77 -15.38 4.07 -16.03 3.34 -16.71 2.56 -17.35 1.74 -18 0.87 -1.25 -52.77 15.38 -0.74 14.63 -1.47 13.95 -2.14 13.28 -2.76 12.63 -3.34 12.01 -3.88 11.41 -4.39 10.86 -4.85 10.3 -5.29 9.79 -5.68 9.28 -6.04 8.8 -6.36 8.33 -6.66 7.86 -6.92 7.43 -7.14 7 -7.33 6.57 -7.47 6.17 -7.58 5.76 -7.65 5.37 -7.69 5.01 -7.68 4.6 -7.62 4.26 -7.53 3.9 -7.4 3.56 -7.2 3.22 -6.99 2.91 -6.73 2.59 -6.42 2.28 -6.06 2 -5.67 1.72 -5.2 1.44 -4.7zm0 0c4.13,-13.97 18.84,-21.94 32.8,-17.8 13.97,4.13 21.94,18.84 17.8,32.8l-50.61 -15z"/>
   </g>
   <g>
    <path class="fil1" d="M461.92 535.39c19.63,30.04 97.52,26.5 163.53,-16.29 32.61,-21.19 160.67,-104.64 139.15,-149.8 -21.53,-45.18 -142,-22.29 -203.42,12.93 -61.1,34.97 -132.81,101.87 -99.25,153.16z"/>
    <path id="_1" class="fil0" d="M611.07 496.97l28.76 44.26 -0.02 0.02 -6.92 4.32 -6.97 4.09 -7.04 3.83 -7.04 3.56 -7.08 3.33 -7.12 3.08 -7.07 2.81 -7.08 2.59 -7.08 2.34 -7 2.09 -7 1.87 -6.93 1.62 -6.85 1.37 -6.8 1.15 -6.75 0.91 -6.62 0.65 -6.53 0.42 -6.46 0.17 -6.35 -0.08 -6.22 -0.35 -6.1 -0.59 -6.02 -0.88 -5.91 -1.18 -5.75 -1.5 -5.62 -1.82 -5.52 -2.21 -5.35 -2.62 -5.14 -3.05 -4.92 -3.54 -4.65 -4.06 -4.28 -4.62 -3.79 -5.13 44.18 -28.87 0.22 0.3 0.4 0.42 0.66 0.59 0.99 0.7 1.34 0.79 1.71 0.83 2.05 0.82 2.46 0.79 2.81 0.73 3.09 0.62 3.41 0.5 3.72 0.36 3.98 0.21 4.22 0.06 4.41 -0.12 4.63 -0.31 4.83 -0.48 4.95 -0.66 5.11 -0.86 5.26 -1.06 5.34 -1.24 5.43 -1.45 5.52 -1.65 5.56 -1.84 5.6 -2.05 5.67 -2.25 5.64 -2.45 5.66 -2.66 5.68 -2.87 5.6 -3.04 5.57 -3.26 5.53 -3.47 -0.02 0.02zm0.02 -0.02c12.23,-7.92 28.58,-4.44 36.51,7.79 7.92,12.23 4.44,28.58 -7.79,36.51l-28.72 -44.29zm129.68 -116.3l47.65 -22.71 0 0 3.28 8.99 1.54 9.2 -0.04 9 -1.33 8.5 -2.3 7.99 -3.08 7.56 -3.69 7.16 -4.18 6.88 -4.63 6.67 -5.05 6.53 -5.39 6.36 -5.69 6.27 -5.99 6.16 -6.21 6.06 -6.43 5.97 -6.56 5.84 -6.69 5.74 -6.78 5.61 -6.81 5.48 -6.81 5.31 -6.77 5.15 -6.68 4.97 -6.53 4.77 -6.39 4.57 -6.16 4.31 -5.89 4.08 -5.6 3.81 -5.23 3.53 -4.86 3.22 -4.39 2.9 -3.9 2.54 -3.37 2.2 -28.76 -44.26 3.29 -2.14 3.79 -2.48 4.24 -2.78 4.61 -3.07 5 -3.36 5.31 -3.62 5.58 -3.87 5.83 -4.1 5.99 -4.28 6.15 -4.48 6.23 -4.62 6.27 -4.79 6.27 -4.89 6.22 -5 6.13 -5.07 5.98 -5.12 5.79 -5.15 5.52 -5.12 5.23 -5.12 4.89 -5.03 4.48 -4.93 4.05 -4.79 3.51 -4.54 2.98 -4.29 2.4 -3.92 1.77 -3.43 1.16 -2.82 0.63 -2.14 0.22 -1.3 0.02 -0.48 0.03 0.11 0.12 0.3 0 0zm0 0c-6.26,-13.15 -0.68,-28.92 12.47,-35.18 13.15,-6.26 28.92,-0.68 35.18,12.47l-47.65 22.71zm-166.48 24.48l-26.22 -45.81 -0.02 0.01 6.7 -3.68 6.96 -3.56 7.22 -3.41 7.42 -3.26 7.63 -3.13 7.84 -2.98 7.97 -2.82 8.1 -2.66 8.23 -2.49 8.31 -2.31 8.38 -2.13 8.43 -1.94 8.43 -1.73 8.45 -1.52 8.45 -1.29 8.37 -1.05 8.29 -0.79 8.24 -0.54 8.15 -0.25 8.05 0.06 7.91 0.38 7.78 0.73 7.63 1.12 7.5 1.54 7.37 2.03 7.17 2.58 6.98 3.23 6.75 3.96 6.39 4.82 5.85 5.68 5.17 6.6 4.22 7.4 -47.65 22.71 -0.38 -0.68 -0.55 -0.69 -0.9 -0.86 -1.34 -1 -1.92 -1.12 -2.55 -1.16 -3.18 -1.14 -3.72 -1.04 -4.3 -0.87 -4.82 -0.7 -5.23 -0.5 -5.63 -0.27 -5.98 -0.04 -6.25 0.19 -6.53 0.42 -6.75 0.65 -6.92 0.85 -7.03 1.07 -7.13 1.29 -7.2 1.48 -7.22 1.65 -7.21 1.84 -7.16 1.99 -7.08 2.15 -6.97 2.29 -6.82 2.4 -6.61 2.52 -6.41 2.63 -6.16 2.7 -5.84 2.76 -5.52 2.81 -5.15 2.84 -0.02 0.01zm0.02 -0.01c-12.64,7.25 -28.78,2.88 -36.03,-9.76 -7.25,-12.64 -2.88,-28.78 9.76,-36.03l26.26 45.79zm-90.3 115.83l-44.18 28.87 0.01 0.01 -4.17 -7.13 -3.39 -7.44 -2.55 -7.63 -1.72 -7.76 -0.89 -7.8 -0.12 -7.72 0.6 -7.61 1.25 -7.44 1.83 -7.25 2.33 -7.02 2.79 -6.85 3.2 -6.68 3.58 -6.49 3.91 -6.32 4.22 -6.17 4.48 -6 4.75 -5.89 4.98 -5.75 5.19 -5.62 5.39 -5.49 5.54 -5.33 5.71 -5.22 5.84 -5.08 5.95 -4.94 6.04 -4.79 6.13 -4.65 6.19 -4.5 6.22 -4.32 6.24 -4.17 6.25 -4 6.23 -3.82 6.21 -3.64 26.22 45.81 -5.3 3.1 -5.35 3.28 -5.39 3.44 -5.38 3.6 -5.37 3.74 -5.3 3.85 -5.25 3.98 -5.14 4.08 -5.03 4.17 -4.88 4.24 -4.71 4.32 -4.55 4.37 -4.3 4.37 -4.08 4.41 -3.83 4.4 -3.52 4.37 -3.25 4.35 -2.92 4.27 -2.59 4.19 -2.23 4.04 -1.88 3.89 -1.53 3.74 -1.18 3.53 -0.83 3.3 -0.52 3.05 -0.22 2.83 0.04 2.64 0.28 2.47 0.53 2.39 0.79 2.4 1.1 2.42 1.51 2.58 0.01 0.01zm-0.01 -0.01c7.97,12.19 4.56,28.55 -7.63,36.53 -12.19,7.97 -28.55,4.56 -36.53,-7.63l44.16 -28.89z"/>
   </g>
   <g>
    <path class="fil1" d="M1477.57 419.13c38.94,-36.68 150.54,44.31 177.46,72.36 50.18,52.56 97.04,119.53 47.8,160.97 -49.22,41.38 -121.57,-9.03 -181.57,-75.67 -60.15,-66.63 -77.4,-125.78 -43.69,-157.66z"/>
    <path id="_1_0" class="fil0" d="M1674.11 473.26l-38.17 36.45 0.05 0.05 -2.12 -2.14 -2.72 -2.56 -3.23 -2.92 -3.68 -3.18 -4.1 -3.4 -4.47 -3.59 -4.8 -3.71 -5.11 -3.84 -5.37 -3.89 -5.59 -3.93 -5.76 -3.9 -5.93 -3.88 -6.07 -3.81 -6.15 -3.7 -6.22 -3.57 -6.22 -3.4 -6.19 -3.18 -6.14 -2.95 -6.01 -2.69 -5.88 -2.39 -5.68 -2.08 -5.39 -1.72 -5.08 -1.35 -4.69 -0.98 -4.2 -0.59 -3.68 -0.24 -3.1 0.05 -2.38 0.29 -1.76 0.42 -1.16 0.45 -0.79 0.44 -0.65 0.52 -36.18 -38.42 7.06 -5.68 7.73 -4.45 8.09 -3.17 8.17 -2.01 8.15 -1.02 8.03 -0.18 7.92 0.51 7.87 1.11 7.76 1.61 7.71 2.04 7.67 2.45 7.6 2.77 7.57 3.08 7.53 3.36 7.44 3.59 7.4 3.8 7.29 3.99 7.16 4.11 7.05 4.24 6.88 4.33 6.71 4.37 6.51 4.42 6.28 4.41 6.02 4.37 5.76 4.32 5.49 4.25 5.16 4.14 4.82 4.01 4.49 3.88 4.1 3.68 3.76 3.56 3.41 3.42 0.05 0.05zm-0.05 -0.05c10.09,10.51 9.75,27.22 -0.77,37.31 -10.51,10.09 -27.22,9.75 -37.31,-0.77l38.08 -36.54zm45.74 199.44l-33.95 -40.4 -0.02 0.01 2.75 -2.51 2.22 -2.4 1.78 -2.31 1.42 -2.25 1.09 -2.18 0.86 -2.23 0.64 -2.29 0.43 -2.43 0.24 -2.63 0.01 -2.84 -0.22 -3.09 -0.48 -3.31 -0.76 -3.59 -1.05 -3.8 -1.32 -3.99 -1.62 -4.17 -1.92 -4.35 -2.19 -4.46 -2.47 -4.6 -2.71 -4.69 -2.95 -4.76 -3.18 -4.84 -3.4 -4.87 -3.59 -4.92 -3.77 -4.95 -3.9 -4.93 -4.06 -4.93 -4.18 -4.93 -4.29 -4.89 -4.36 -4.85 -4.44 -4.81 -4.49 -4.76 38.17 -36.45 4.89 5.18 4.88 5.29 4.82 5.37 4.79 5.47 4.7 5.54 4.63 5.62 4.52 5.72 4.4 5.77 4.26 5.84 4.11 5.91 3.95 5.99 3.76 6.06 3.54 6.13 3.33 6.2 3.09 6.3 2.8 6.38 2.52 6.47 2.19 6.58 1.83 6.68 1.43 6.79 1 6.92 0.49 7.02 -0.05 7.12 -0.66 7.16 -1.29 7.16 -2 7.13 -2.69 6.96 -3.41 6.78 -4.09 6.47 -4.74 6.17 -5.36 5.79 -5.92 5.41 -0.02 0.01zm0.02 -0.01c-11.15,9.38 -27.81,7.95 -37.19,-3.19 -9.38,-11.15 -7.95,-27.81 3.19,-37.19l33.99 40.38zm-218.15 -78.17l39.17 -35.37 0.03 0.03 5.4 5.92 5.46 5.8 5.5 5.67 5.53 5.52 5.54 5.35 5.56 5.18 5.56 4.99 5.57 4.78 5.54 4.57 5.52 4.33 5.48 4.09 5.42 3.81 5.34 3.54 5.27 3.24 5.18 2.94 5.05 2.65 4.92 2.31 4.78 2 4.61 1.67 4.4 1.34 4.18 1.02 3.98 0.7 3.79 0.41 3.56 0.12 3.33 -0.14 3.13 -0.39 3.04 -0.65 2.87 -0.88 2.83 -1.18 2.85 -1.48 2.85 -1.83 2.93 -2.25 33.95 40.4 -6.44 4.98 -6.78 4.35 -7.01 3.66 -7.26 3 -7.45 2.3 -7.49 1.61 -7.58 0.97 -7.57 0.32 -7.51 -0.26 -7.43 -0.8 -7.38 -1.29 -7.31 -1.76 -7.18 -2.19 -7.09 -2.57 -7.02 -2.94 -6.95 -3.27 -6.88 -3.59 -6.79 -3.87 -6.76 -4.16 -6.7 -4.42 -6.63 -4.67 -6.57 -4.89 -6.52 -5.11 -6.46 -5.31 -6.4 -5.51 -6.35 -5.68 -6.29 -5.85 -6.22 -6 -6.15 -6.14 -6.07 -6.26 -5.99 -6.38 -5.92 -6.47 0.03 0.03zm-0.03 -0.03c-9.75,-10.83 -8.87,-27.53 1.96,-37.27 10.83,-9.75 27.53,-8.87 37.27,1.96l-39.23 35.32zm-42.17 -194.53l36.18 38.42 0.04 -0.04 -1.62 1.66 -1.4 1.66 -1.21 1.69 -1.06 1.75 -0.88 1.76 -0.77 1.91 -0.65 2.04 -0.5 2.17 -0.38 2.38 -0.23 2.57 -0.07 2.79 0.12 2.98 0.32 3.22 0.52 3.42 0.75 3.62 1 3.86 1.23 4.04 1.48 4.21 1.76 4.4 1.99 4.54 2.27 4.7 2.54 4.87 2.8 4.99 3.06 5.1 3.33 5.22 3.62 5.33 3.87 5.45 4.12 5.52 4.4 5.62 4.67 5.72 4.91 5.77 5.18 5.84 -39.17 35.37 -5.85 -6.61 -5.6 -6.58 -5.34 -6.54 -5.09 -6.5 -4.87 -6.51 -4.59 -6.46 -4.35 -6.43 -4.1 -6.43 -3.83 -6.37 -3.57 -6.35 -3.29 -6.31 -3.04 -6.29 -2.77 -6.3 -2.47 -6.24 -2.21 -6.24 -1.9 -6.22 -1.59 -6.22 -1.29 -6.22 -0.94 -6.21 -0.6 -6.18 -0.23 -6.19 0.14 -6.15 0.56 -6.12 0.96 -6.04 1.42 -6 1.86 -5.86 2.3 -5.73 2.78 -5.56 3.2 -5.31 3.63 -5.06 4.03 -4.79 4.4 -4.48 0.04 -0.04zm-0.04 0.04c10.59,-10 27.3,-9.54 37.3,1.05 10,10.59 9.54,27.3 -1.05,37.3l-36.26 -38.35z"/>
   </g>
   <g>
    <path class="fil0" d="M1652.99 690.47c-12.79,-6.97 -17.5,-23.02 -10.52,-35.81 6.97,-12.79 23.02,-17.5 35.81,-10.52l-25.28 46.33zm173.18 181.75l-51.01 -13.58 -0.01 0.03 1.71 -7.16 1.24 -6.87 0.8 -6.58 0.39 -6.31 0 -6.09 -0.36 -5.87 -0.73 -5.68 -1.06 -5.54 -1.4 -5.39 -1.75 -5.3 -2.07 -5.23 -2.42 -5.15 -2.75 -5.11 -3.11 -5.07 -3.46 -5.05 -3.8 -5.02 -4.16 -4.99 -4.53 -4.98 -4.85 -4.97 -5.18 -4.91 -5.52 -4.9 -5.84 -4.86 -6.15 -4.85 -6.43 -4.8 -6.73 -4.77 -7.01 -4.77 -7.25 -4.71 -7.51 -4.7 -7.73 -4.67 -7.95 -4.64 -8.17 -4.63 -8.35 -4.62 25.28 -46.33 8.85 4.89 8.71 4.94 8.58 5.01 8.42 5.09 8.26 5.16 8.08 5.27 7.87 5.34 7.69 5.46 7.5 5.6 7.26 5.72 7.03 5.86 6.77 6.01 6.54 6.2 6.23 6.37 5.95 6.55 5.64 6.79 5.31 6.99 4.94 7.22 4.57 7.45 4.15 7.7 3.72 7.95 3.24 8.18 2.76 8.41 2.24 8.65 1.7 8.82 1.15 9.04 0.58 9.21 0 9.37 -0.59 9.51 -1.18 9.63 -1.76 9.76 -2.34 9.88 -0.01 0.03zm0.01 -0.03c-3.73,14.09 -18.19,22.48 -32.28,18.75 -14.09,-3.73 -22.48,-18.19 -18.75,-32.28l51.03 13.52zm-285.17 -11.72l-49.93 -17.11 50.79 3.09 3.21 12.59 3.99 11.42 4.71 10.33 5.33 9.32 5.91 8.36 6.46 7.46 6.96 6.65 7.43 5.86 7.89 5.11 8.32 4.37 8.69 3.65 9.04 2.92 9.36 2.22 9.58 1.51 9.75 0.78 9.88 0.08 9.92 -0.63 9.87 -1.31 9.75 -2 9.59 -2.65 9.32 -3.3 9.02 -3.91 8.6 -4.49 8.15 -5.05 7.62 -5.56 7.05 -6.07 6.43 -6.52 5.76 -6.95 5.05 -7.38 4.32 -7.77 3.56 -8.19 2.77 -8.64 51.01 13.58 -4.38 13.63 -5.61 12.95 -6.77 12.2 -7.8 11.39 -8.73 10.56 -9.55 9.71 -10.29 8.85 -10.93 8 -11.51 7.13 -12 6.27 -12.43 5.39 -12.8 4.53 -13.08 3.63 -13.32 2.73 -13.5 1.79 -13.6 0.86 -13.66 -0.1 -13.65 -1.1 -13.55 -2.12 -13.41 -3.17 -13.18 -4.28 -12.87 -5.4 -12.46 -6.56 -11.94 -7.74 -11.33 -8.93 -10.61 -10.14 -9.77 -11.34 -8.84 -12.51 -7.81 -13.64 -6.7 -14.74 -5.54 -15.84 -4.31 -16.85 50.79 3.09zm-50.79 -3.09c-3.01,-14.25 6.1,-28.28 20.35,-31.29 14.25,-3.01 28.28,6.1 31.29,20.35l-51.64 10.93zm-255 -37.21l-44.64 -28.16 48.11 8.49 2.94 11.07 3.8 10.37 4.63 9.75 5.39 9.14 6.13 8.56 6.83 7.99 7.5 7.41 8.1 6.85 8.68 6.26 9.18 5.65 9.62 5.04 10.01 4.39 10.33 3.75 10.56 3.08 10.73 2.41 10.82 1.73 10.82 1.03 10.77 0.35 10.61 -0.34 10.38 -1.03 10.08 -1.7 9.7 -2.35 9.24 -3 8.74 -3.62 8.16 -4.21 7.54 -4.78 6.91 -5.36 6.23 -5.89 5.53 -6.45 4.85 -7.08 4.15 -7.71 3.41 -8.47 49.93 17.11 -5.54 13.73 -6.88 12.8 -8.08 11.76 -9.16 10.7 -10.11 9.57 -10.92 8.47 -11.63 7.39 -12.21 6.3 -12.71 5.27 -13.11 4.25 -13.46 3.27 -13.73 2.31 -13.91 1.37 -14.06 0.45 -14.11 -0.45 -14.14 -1.35 -14.08 -2.24 -13.98 -3.14 -13.78 -4.02 -13.55 -4.92 -13.24 -5.81 -12.86 -6.72 -12.4 -7.64 -11.86 -8.57 -11.23 -9.5 -10.53 -10.43 -9.73 -11.39 -8.81 -12.3 -7.79 -13.21 -6.69 -14.09 -5.47 -14.93 -4.16 -15.71 48.11 8.49zm-48.11 -8.49c-3.08,-14.24 5.96,-28.31 20.2,-31.38 14.24,-3.08 28.31,5.96 31.38,20.2l-51.58 11.18zm-252.17 -38.26l-50.99 -13.62 51.44 1.98 2.35 10.42 3.07 9.98 3.76 9.56 4.41 9.13 5 8.65 5.6 8.18 6.15 7.71 6.65 7.19 7.12 6.66 7.54 6.1 7.93 5.51 8.32 4.92 8.61 4.29 8.86 3.64 9.11 2.97 9.31 2.28 9.48 1.58 9.6 0.85 9.68 0.12 9.75 -0.66 9.79 -1.43 9.81 -2.24 9.8 -3.08 9.75 -3.95 9.72 -4.87 9.64 -5.81 9.52 -6.81 9.41 -7.87 9.22 -8.93 9.02 -10.09 8.76 -11.26 8.46 -12.51 44.64 28.16 -10.36 15.31 -10.94 14.08 -11.47 12.83 -11.98 11.62 -12.42 10.38 -12.82 9.17 -13.17 7.94 -13.44 6.73 -13.67 5.54 -13.83 4.35 -13.9 3.18 -13.92 2.04 -13.91 0.93 -13.8 -0.16 -13.63 -1.22 -13.41 -2.23 -13.15 -3.22 -12.85 -4.18 -12.47 -5.11 -12.05 -6.01 -11.58 -6.86 -11.08 -7.69 -10.53 -8.5 -9.92 -9.28 -9.26 -10.01 -8.55 -10.72 -7.81 -11.42 -6.99 -12.09 -6.12 -12.7 -5.22 -13.27 -4.26 -13.83 -3.23 -14.31 51.44 1.98zm-51.44 -1.98c-2.67,-14.32 6.79,-28.11 21.11,-30.78 14.32,-2.67 28.11,6.79 30.78,21.11l-51.89 9.67zm-186.59 10.34l-52.7 -2.8 48.98 -12.18 6.27 9.77 6.47 8.8 6.67 7.91 6.81 7.06 6.92 6.22 7.01 5.43 7.08 4.7 7.11 3.97 7.16 3.3 7.16 2.67 7.16 2.04 7.15 1.46 7.14 0.88 7.09 0.34 7.02 -0.2 6.95 -0.73 6.87 -1.23 6.72 -1.74 6.58 -2.2 6.4 -2.68 6.21 -3.13 5.96 -3.57 5.7 -3.98 5.42 -4.4 5.1 -4.77 4.74 -5.13 4.38 -5.51 3.98 -5.81 3.56 -6.16 3.15 -6.47 2.66 -6.77 2.19 -7.08 50.99 13.62 -3.36 10.9 -4.13 10.49 -4.85 10.04 -5.53 9.55 -6.19 9.05 -6.78 8.5 -7.35 7.97 -7.87 7.36 -8.34 6.76 -8.79 6.15 -9.2 5.49 -9.56 4.83 -9.91 4.13 -10.19 3.42 -10.46 2.68 -10.69 1.92 -10.87 1.13 -11.01 0.32 -11.1 -0.53 -11.15 -1.38 -11.16 -2.26 -11.11 -3.17 -10.98 -4.09 -10.84 -5.01 -10.64 -5.95 -10.36 -6.87 -10.08 -7.81 -9.74 -8.77 -9.34 -9.67 -8.95 -10.62 -8.49 -11.56 -8.02 -12.48 48.98 -12.18zm-48.98 12.18c-7.5,-12.49 -3.44,-28.71 9.04,-36.21 12.49,-7.5 28.71,-3.44 36.21,9.04l-45.25 27.16zm-248.04 160.29l28.45 -44.47 0 0 9.11 5.36 9.08 4.45 9.04 3.59 9.02 2.77 9.01 2.01 8.95 1.27 8.92 0.57 8.9 -0.13 8.86 -0.78 8.8 -1.43 8.73 -2.06 8.64 -2.67 8.53 -3.26 8.36 -3.85 8.2 -4.39 8.02 -4.94 7.75 -5.43 7.49 -5.93 7.21 -6.38 6.86 -6.78 6.49 -7.19 6.11 -7.56 5.68 -7.87 5.25 -8.17 4.76 -8.43 4.26 -8.66 3.73 -8.84 3.19 -9.03 2.63 -9.13 2.02 -9.23 1.44 -9.32 0.82 -9.35 52.7 2.8 -1.11 12.86 -1.96 12.7 -2.75 12.51 -3.53 12.26 -4.23 11.98 -4.94 11.72 -5.6 11.37 -6.22 11.02 -6.82 10.65 -7.39 10.23 -7.93 9.8 -8.45 9.34 -8.95 8.87 -9.4 8.32 -9.85 7.79 -10.28 7.19 -10.67 6.57 -11.04 5.93 -11.41 5.23 -11.73 4.49 -12.02 3.72 -12.32 2.91 -12.54 2.02 -12.72 1.12 -12.89 0.17 -13.01 -0.82 -13.05 -1.86 -13.05 -2.92 -13.01 -4 -12.9 -5.12 -12.73 -6.23 -12.53 -7.36 0 0zm0 0c-12.28,-7.86 -15.86,-24.18 -8.01,-36.46 7.86,-12.28 24.18,-15.86 36.46,-8.01l-28.45 44.47zm93.37 -424.01l20.58 48.61 -15 6.92 -14.12 7.65 -13.25 8.32 -12.4 8.96 -11.55 9.51 -10.72 10.05 -9.91 10.54 -9.1 10.99 -8.29 11.36 -7.47 11.71 -6.7 12 -5.89 12.23 -5.09 12.43 -4.32 12.56 -3.53 12.63 -2.73 12.64 -1.96 12.62 -1.19 12.52 -0.43 12.36 0.35 12.14 1.07 11.89 1.81 11.57 2.51 11.16 3.23 10.73 3.91 10.26 4.57 9.74 5.21 9.15 5.85 8.57 6.46 7.92 7.09 7.28 7.7 6.59 8.37 5.92 -28.45 44.47 -12.34 -8.74 -11.39 -9.74 -10.37 -10.66 -9.36 -11.45 -8.33 -12.19 -7.32 -12.83 -6.29 -13.4 -5.29 -13.89 -4.31 -14.32 -3.32 -14.69 -2.35 -14.98 -1.38 -15.25 -0.42 -15.44 0.53 -15.59 1.5 -15.66 2.44 -15.71 3.41 -15.69 4.35 -15.61 5.31 -15.49 6.28 -15.31 7.27 -15.07 8.22 -14.76 9.22 -14.42 10.21 -13.98 11.19 -13.51 12.17 -12.96 13.18 -12.35 14.16 -11.66 15.15 -10.93 16.12 -10.12 17.09 -9.27 18.05 -8.34zm0 0c13.42,-5.68 28.92,0.59 34.6,14.01 5.68,13.42 -0.59,28.92 -14.01,34.6l-20.58 -48.61z"/>
   </g>
   <g>
    <path class="fil0" d="M783.68 414.47c-7.83,12.29 -24.15,15.89 -36.44,8.07 -12.29,-7.83 -15.89,-24.15 -8.07,-36.44l44.51 28.37zm238.1 -59.33l35.87 38.71 -37.04 -1.15 -5.8 -5.65 -6.17 -5.15 -6.53 -4.71 -6.88 -4.24 -7.24 -3.83 -7.54 -3.38 -7.84 -2.93 -8.11 -2.5 -8.35 -2.06 -8.56 -1.61 -8.74 -1.19 -8.87 -0.76 -8.96 -0.33 -9.02 0.11 -9.04 0.51 -9.03 0.94 -8.97 1.32 -8.87 1.72 -8.73 2.1 -8.57 2.46 -8.33 2.8 -8.07 3.14 -7.78 3.45 -7.44 3.76 -7.08 4.03 -6.67 4.28 -6.22 4.51 -5.76 4.71 -5.25 4.86 -4.72 5.03 -4.19 5.15 -3.64 5.24 -44.51 -28.37 6 -8.63 6.63 -8.14 7.23 -7.69 7.76 -7.22 8.23 -6.74 8.69 -6.29 9.08 -5.83 9.46 -5.39 9.78 -4.93 10.1 -4.49 10.37 -4.04 10.61 -3.57 10.81 -3.11 11.01 -2.64 11.16 -2.16 11.27 -1.67 11.39 -1.17 11.45 -0.66 11.49 -0.12 11.49 0.42 11.46 0.97 11.4 1.55 11.34 2.15 11.19 2.77 11.05 3.39 10.87 4.08 10.61 4.76 10.31 5.44 10 6.18 9.6 6.92 9.16 7.66 8.64 8.41 -37.04 -1.15zm37.04 1.15c10.05,10.55 9.65,27.26 -0.9,37.31 -10.55,10.05 -27.26,9.65 -37.31,-0.9l38.21 -36.41zm429.39 115.41l-50.74 14.52 -3.33 -9.81 -4.35 -9.82 -5.39 -9.79 -6.39 -9.76 -7.35 -9.61 -8.28 -9.44 -9.16 -9.19 -9.98 -8.9 -10.76 -8.54 -11.46 -8.15 -12.1 -7.68 -12.69 -7.19 -13.22 -6.65 -13.65 -6.07 -14.05 -5.44 -14.37 -4.79 -14.63 -4.08 -14.82 -3.35 -14.93 -2.59 -14.99 -1.77 -14.99 -0.95 -14.92 -0.11 -14.8 0.78 -14.61 1.67 -14.37 2.6 -14.08 3.55 -13.74 4.52 -13.37 5.52 -12.94 6.52 -12.52 7.61 -12.05 8.7 -11.55 9.86 -35.87 -38.71 14.79 -12.62 15.48 -11.19 16.09 -9.77 16.6 -8.38 17.02 -7.01 17.35 -5.71 17.63 -4.45 17.82 -3.23 17.93 -2.05 17.98 -0.95 17.99 0.12 17.93 1.14 17.81 2.12 17.64 3.05 17.41 3.92 17.14 4.79 16.8 5.59 16.43 6.36 16.01 7.11 15.5 7.82 14.97 8.48 14.38 9.14 13.73 9.75 13.03 10.36 12.28 10.93 11.42 11.49 10.56 12.03 9.59 12.57 8.56 13.06 7.44 13.57 6.22 14.06 4.9 14.47zm0 0c4.01,14 -4.11,28.62 -18.11,32.63 -14,4.01 -28.62,-4.11 -32.63,-18.11l50.74 -14.52z"/>
   </g>
   <g>
    <path class="fil0" d="M438.94 460.09c9.21,-11.28 25.85,-12.96 37.13,-3.75 11.28,9.21 12.96,25.85 3.75,37.13l-40.88 -33.38zm-256.16 78.87l39.06 -35.49 -0.01 -0.02 4.11 4.08 4.47 3.58 4.84 3.15 5.29 2.74 5.74 2.37 6.15 1.95 6.62 1.54 7.02 1.13 7.38 0.71 7.73 0.27 8.01 -0.14 8.25 -0.57 8.44 -0.96 8.57 -1.36 8.66 -1.72 8.7 -2.07 8.7 -2.41 8.66 -2.71 8.55 -2.98 8.4 -3.24 8.23 -3.47 7.98 -3.66 7.7 -3.84 7.38 -3.97 7 -4.08 6.59 -4.14 6.11 -4.17 5.61 -4.15 5.05 -4.09 4.4 -3.94 3.74 -3.74 3.04 -3.45 40.88 33.38 -5.44 6.2 -5.97 5.99 -6.47 5.78 -6.91 5.6 -7.36 5.46 -7.78 5.3 -8.18 5.14 -8.54 4.98 -8.89 4.78 -9.2 4.58 -9.5 4.35 -9.73 4.11 -9.96 3.84 -10.16 3.56 -10.33 3.23 -10.46 2.89 -10.58 2.53 -10.68 2.12 -10.72 1.69 -10.76 1.23 -10.76 0.74 -10.75 0.18 -10.7 -0.38 -10.66 -1.02 -10.51 -1.71 -10.4 -2.43 -10.22 -3.25 -9.94 -4.1 -9.62 -5.01 -9.2 -5.99 -8.67 -6.95 -8.01 -7.93 -0.01 -0.02zm0.01 0.02c-9.8,-10.77 -9.02,-27.48 1.76,-37.28 10.77,-9.8 27.48,-9.02 37.28,1.76l-39.04 35.53zm50.3 -157.67l32.15 -41.86 -16.8 47.31 -2.36 0.07 -2.39 0.35 -2.44 0.61 -2.5 0.92 -2.64 1.26 -2.69 1.61 -2.78 2 -2.79 2.36 -2.79 2.73 -2.74 3.1 -2.63 3.4 -2.52 3.73 -2.38 4.02 -2.2 4.27 -2 4.51 -1.77 4.68 -1.52 4.81 -1.26 4.98 -0.98 5.05 -0.69 5.1 -0.37 5.16 -0.09 5.14 0.25 5.1 0.56 5.05 0.9 4.98 1.23 4.88 1.57 4.78 1.93 4.67 2.27 4.54 2.66 4.41 3.06 4.29 3.49 4.16 -39.06 35.49 -6.14 -7.31 -5.46 -7.64 -4.77 -7.9 -4.08 -8.1 -3.41 -8.28 -2.76 -8.38 -2.13 -8.45 -1.53 -8.49 -0.96 -8.49 -0.4 -8.44 0.12 -8.36 0.62 -8.27 1.09 -8.17 1.55 -8.01 1.99 -7.86 2.42 -7.7 2.83 -7.46 3.2 -7.23 3.62 -7.01 3.97 -6.72 4.36 -6.46 4.76 -6.14 5.12 -5.76 5.5 -5.4 5.9 -4.97 6.27 -4.51 6.71 -3.99 7.09 -3.39 7.47 -2.72 7.81 -1.96 8.07 -1.13 8.27 -0.24 -16.8 47.31zm16.8 -47.31c14.56,0.39 26.04,12.55 25.65,27.11 -0.39,14.56 -12.55,26.04 -27.11,25.65l1.46 -52.75zm116.58 -166.48l52.54 -5.01 -37 26.61 -14.29 -5.77 -13.44 -4.32 -12.59 -2.95 -11.76 -1.73 -10.94 -0.6 -10.12 0.4 -9.37 1.33 -8.65 2.14 -8 2.89 -7.4 3.59 -6.83 4.23 -6.27 4.85 -5.75 5.44 -5.24 5.99 -4.69 6.52 -4.12 6.97 -3.55 7.41 -2.94 7.74 -2.3 8.02 -1.65 8.25 -1 8.4 -0.33 8.43 0.36 8.42 1.06 8.34 1.73 8.18 2.42 7.95 3.09 7.66 3.78 7.34 4.44 6.94 5.12 6.53 5.85 6.09 6.62 5.63 -32.15 41.86 -10.63 -9.04 -9.5 -9.89 -8.34 -10.6 -7.16 -11.2 -6 -11.69 -4.87 -12.06 -3.76 -12.36 -2.67 -12.56 -1.59 -12.67 -0.56 -12.74 0.48 -12.69 1.5 -12.58 2.49 -12.43 3.51 -12.2 4.5 -11.86 5.51 -11.48 6.5 -11 7.53 -10.44 8.52 -9.77 9.52 -8.99 10.51 -8.11 11.45 -7.09 12.34 -5.99 13.2 -4.77 13.95 -3.44 14.65 -2.06 15.28 -0.61 15.84 0.87 16.34 2.4 16.83 3.95 17.29 5.54 17.73 7.17 -37 26.61zm37 -26.61c13.3,5.93 19.3,21.53 13.37,34.84 -5.93,13.3 -21.53,19.3 -34.84,13.37l21.47 -48.21zm190.87 -18.2l18.82 49.3 -35.46 -28.87 1.47 -12.74 0.14 -11.44 -0.98 -10.22 -1.96 -9.07 -2.78 -8.03 -3.51 -7.09 -4.19 -6.26 -4.82 -5.55 -5.45 -4.88 -6.03 -4.23 -6.63 -3.59 -7.15 -2.92 -7.6 -2.21 -7.98 -1.46 -8.27 -0.72 -8.43 0.07 -8.51 0.86 -8.48 1.65 -8.34 2.43 -8.07 3.2 -7.75 3.98 -7.35 4.72 -6.85 5.47 -6.3 6.21 -5.71 6.97 -5.05 7.75 -4.34 8.59 -3.56 9.5 -2.68 10.47 -1.69 11.52 -0.57 12.6 0.69 13.79 -52.54 5.01 -0.92 -18.59 0.8 -17.76 2.47 -16.87 4.06 -15.9 5.55 -14.87 6.94 -13.77 8.2 -12.6 9.31 -11.39 10.27 -10.12 11.11 -8.86 11.76 -7.58 12.3 -6.32 12.75 -5.06 13.04 -3.81 13.22 -2.57 13.34 -1.34 13.36 -0.11 13.26 1.14 13.08 2.42 12.8 3.72 12.36 5.05 11.83 6.41 11.12 7.8 10.24 9.2 9.16 10.56 7.93 11.88 6.5 13.13 4.93 14.22 3.28 15.23 1.53 16.13 -0.22 16.97 -2.02 17.73 -35.46 -28.87zm35.46 28.87c-2.33,14.39 -15.88,24.16 -30.27,21.83 -14.39,-2.33 -24.16,-15.88 -21.83,-30.27l52.1 8.44zm92.24 215.62l-26.38 -45.71 11.02 -6.9 10.01 -7.36 9.04 -7.74 8.07 -8.06 7.14 -8.33 6.2 -8.5 5.28 -8.6 4.37 -8.65 3.48 -8.62 2.62 -8.53 1.77 -8.36 0.95 -8.1 0.16 -7.81 -0.59 -7.44 -1.3 -7.03 -1.99 -6.57 -2.66 -6.13 -3.29 -5.68 -3.95 -5.21 -4.63 -4.78 -5.41 -4.34 -6.23 -3.87 -7.17 -3.34 -8.2 -2.74 -9.29 -2.05 -10.44 -1.22 -11.62 -0.29 -12.8 0.78 -13.99 1.96 -15.17 3.24 -16.33 4.64 -17.52 6.13 -18.82 -49.3 20.34 -7.13 19.54 -5.54 18.72 -4.01 17.91 -2.49 17.1 -1.05 16.3 0.4 15.46 1.81 14.63 3.22 13.69 4.58 12.72 5.93 11.63 7.2 10.45 8.38 9.18 9.44 7.87 10.37 6.47 11.15 5.09 11.75 3.71 12.25 2.36 12.59 1.02 12.83 -0.26 12.99 -1.53 13.04 -2.77 13.03 -3.96 12.94 -5.17 12.79 -6.35 12.57 -7.52 12.27 -8.67 11.87 -9.8 11.43 -10.94 10.93 -12.07 10.33 -13.18 9.68 -14.26 8.93zm0 0c-12.62,7.28 -28.77,2.95 -36.05,-9.67 -7.28,-12.62 -2.95,-28.77 9.67,-36.05l26.38 45.71z"/>
   </g>
   <g>
    <path class="fil0" d="M1549.72 392.7c13.27,6 19.15,21.65 13.15,34.92 -6,13.27 -21.65,19.15 -34.92,13.15l21.77 -48.07zm-1.16 -110.11l52.74 -2.13 -42.3 22.11 -8.19 -5.75 -7.41 -4.34 -6.61 -3.08 -5.75 -1.97 -4.83 -1.05 -3.96 -0.33 -3.2 0.2 -2.61 0.57 -2.2 0.85 -2.01 1.17 -1.93 1.55 -1.94 2.08 -1.89 2.64 -1.76 3.22 -1.56 3.83 -1.28 4.36 -0.93 4.84 -0.52 5.27 -0.07 5.58 0.43 5.83 0.92 5.99 1.46 6.07 2 6.11 2.55 6.04 3.12 5.95 3.66 5.76 4.26 5.55 4.87 5.31 5.47 5.01 6.15 4.66 6.86 4.3 7.62 3.87 -21.77 48.07 -11.78 -5.98 -10.87 -6.81 -9.95 -7.54 -9 -8.21 -8 -8.73 -7.08 -9.22 -6.12 -9.6 -5.15 -9.84 -4.26 -10.07 -3.35 -10.2 -2.47 -10.27 -1.59 -10.25 -0.74 -10.19 0.12 -10.09 0.98 -9.91 1.85 -9.7 2.77 -9.41 3.71 -9.06 4.73 -8.63 5.78 -8.05 6.87 -7.32 8.01 -6.41 9.04 -5.22 9.91 -3.83 10.53 -2.27 10.95 -0.68 11.19 0.9 11.28 2.43 11.29 3.88 11.35 5.27 11.4 6.68 11.49 8.03 -42.3 22.11zm42.3 -22.11c11.62,8.8 13.91,25.36 5.11,36.98 -8.8,11.62 -25.36,13.91 -36.98,5.11l31.86 -42.09zm210.74 -25.41l37.71 36.93 -45.15 -16.21 -2.04 -16.74 -3.06 -15.11 -3.93 -13.52 -4.71 -11.98 -5.36 -10.53 -5.89 -9.15 -6.34 -7.85 -6.73 -6.66 -7.07 -5.53 -7.37 -4.52 -7.63 -3.55 -7.92 -2.63 -8.14 -1.72 -8.34 -0.83 -8.51 0.07 -8.62 0.97 -8.67 1.85 -8.61 2.75 -8.52 3.64 -8.32 4.54 -8.06 5.41 -7.7 6.28 -7.29 7.14 -6.79 7.99 -6.21 8.81 -5.57 9.69 -4.86 10.49 -4.05 11.35 -3.17 12.2 -2.22 13.06 -1.15 13.92 0 14.82 -52.74 2.13 0 -19.08 1.52 -18.33 2.96 -17.53 4.35 -16.69 5.64 -15.78 6.84 -14.81 7.95 -13.79 8.97 -12.75 9.9 -11.65 10.72 -10.51 11.46 -9.35 12.1 -8.13 12.65 -6.9 13.12 -5.62 13.51 -4.31 13.77 -2.94 13.96 -1.54 14.05 -0.11 14.02 1.39 13.86 2.94 13.58 4.51 13.14 6.1 12.57 7.7 11.83 9.29 10.97 10.84 9.98 12.35 8.88 13.79 7.72 15.19 6.51 16.58 5.22 17.94 3.9 19.27 2.52 20.61 -45.15 -16.21zm45.15 16.21c1.24,14.51 -9.52,27.31 -24.04,28.54 -14.51,1.24 -27.31,-9.52 -28.54,-24.04l52.58 -4.51zm148.79 199.55l-25.32 46.31 2.9 -47.67 20.36 -9.12 17.34 -9.75 14.49 -10.23 11.85 -10.54 9.42 -10.7 7.21 -10.78 5.28 -10.83 3.53 -10.86 1.93 -10.94 0.43 -11.05 -1.03 -11.15 -2.42 -11.19 -3.8 -11.15 -5.13 -10.98 -6.4 -10.68 -7.58 -10.23 -8.68 -9.65 -9.66 -8.93 -10.52 -8.08 -11.26 -7.09 -11.91 -6.02 -12.4 -4.82 -12.81 -3.56 -13.09 -2.21 -13.31 -0.77 -13.47 0.74 -13.57 2.35 -13.66 4.07 -13.73 5.93 -13.77 7.96 -13.74 10.18 -13.69 12.62 -37.71 -36.93 17.7 -16.31 18.43 -13.65 19.01 -10.99 19.42 -8.4 19.64 -5.85 19.67 -3.41 19.51 -1.08 19.14 1.09 18.66 3.13 18.01 5 17.26 6.7 16.4 8.29 15.44 9.72 14.38 11.03 13.23 12.23 11.96 13.31 10.61 14.32 9.1 15.22 7.49 16.03 5.7 16.75 3.74 17.33 1.6 17.78 -0.72 18.05 -3.19 18.1 -5.81 17.88 -8.48 17.39 -11.16 16.65 -13.83 15.73 -16.47 14.67 -19.14 13.5 -21.77 12.26 -24.49 10.96 2.9 -47.67zm-2.9 47.67c-13.53,5.39 -28.89,-1.22 -34.28,-14.75 -5.39,-13.53 1.22,-28.89 14.75,-34.28l19.53 49.03zm-86.66 200.01l5.29 -52.5 0.01 0 9.04 0.58 8.94 -0.09 8.81 -0.7 8.62 -1.31 8.41 -1.87 8.15 -2.43 7.88 -2.94 7.51 -3.39 7.14 -3.84 6.7 -4.22 6.21 -4.56 5.7 -4.86 5.15 -5.11 4.57 -5.3 3.94 -5.44 3.31 -5.52 2.68 -5.56 2.04 -5.58 1.4 -5.56 0.79 -5.56 0.16 -5.56 -0.49 -5.62 -1.16 -5.74 -1.93 -5.89 -2.76 -6.08 -3.72 -6.28 -4.8 -6.5 -5.98 -6.68 -7.23 -6.79 -8.59 -6.84 -10.02 -6.84 -11.53 -6.78 25.32 -46.31 14.43 8.49 13.09 8.93 11.78 9.39 10.47 9.82 9.16 10.24 7.87 10.65 6.52 11.04 5.16 11.34 3.77 11.57 2.39 11.66 1.01 11.66 -0.32 11.55 -1.59 11.28 -2.76 10.95 -3.85 10.55 -4.84 10.09 -5.75 9.6 -6.59 9.06 -7.33 8.53 -8.03 7.97 -8.67 7.41 -9.29 6.82 -9.81 6.18 -10.34 5.56 -10.81 4.88 -11.22 4.18 -11.63 3.44 -11.98 2.68 -12.27 1.85 -12.53 1.01 -12.72 0.11 -12.89 -0.82 0.01 0zm-0.01 0c-14.49,-1.46 -25.05,-14.42 -23.6,-28.91 1.46,-14.49 14.42,-25.05 28.91,-23.6l-5.31 52.5zm-201.21 -81.63l35.74 -38.85 -0.11 -0.1 0.38 0.35 0.73 0.63 1.1 0.93 1.53 1.25 1.84 1.48 2.22 1.7 2.6 1.96 2.96 2.14 3.31 2.33 3.64 2.47 3.99 2.61 4.35 2.73 4.68 2.83 5.02 2.9 5.35 2.97 5.65 2.98 5.99 3.01 6.32 3.01 6.62 2.98 6.93 2.94 7.25 2.89 7.52 2.78 7.84 2.7 8.15 2.57 8.4 2.43 8.72 2.26 9 2.08 9.28 1.89 9.57 1.67 9.84 1.44 10.11 1.17 -5.29 52.5 -11.64 -1.34 -11.34 -1.65 -11.03 -1.92 -10.7 -2.18 -10.38 -2.41 -10.06 -2.61 -9.75 -2.81 -9.38 -2.97 -9.06 -3.1 -8.73 -3.24 -8.36 -3.33 -8.02 -3.4 -7.67 -3.46 -7.32 -3.49 -6.96 -3.49 -6.61 -3.5 -6.23 -3.45 -5.86 -3.4 -5.51 -3.33 -5.11 -3.21 -4.78 -3.11 -4.38 -2.98 -3.98 -2.79 -3.6 -2.62 -3.21 -2.4 -2.85 -2.2 -2.46 -1.96 -2.01 -1.65 -1.66 -1.39 -1.25 -1.07 -0.81 -0.71 -0.51 -0.46zm0 0c-10.72,-9.86 -11.41,-26.57 -1.55,-37.29 9.86,-10.72 26.57,-11.41 37.29,-1.55l-35.74 38.85z"/>
   </g>
   <g>
    <path class="fil1" d="M623.04 1503.79c1.98,-14.44 15.29,-24.55 29.72,-22.57 14.44,1.98 24.55,15.29 22.57,29.72l-52.29 -7.16zm-477.78 1424.5l-46.4 -25.15 0 0 22.9 -42.27 22.63 -41.89 22.33 -41.55 22.03 -41.27 21.71 -41.03 21.38 -40.82 21.02 -40.68 20.66 -40.6 20.29 -40.53 19.89 -40.52 19.48 -40.57 19.07 -40.67 18.63 -40.8 18.18 -40.99 17.71 -41.22 17.24 -41.51 16.75 -41.85 16.23 -42.22 15.71 -42.64 15.18 -43.13 14.64 -43.65 14.06 -44.23 13.49 -44.85 12.89 -45.52 12.29 -46.25 11.67 -47.01 11.03 -47.84 10.38 -48.71 9.73 -49.62 9.04 -50.6 8.34 -51.6 7.63 -52.68 52.29 7.16 -7.75 53.52 -8.49 52.45 -9.2 51.46 -9.88 50.48 -10.57 49.57 -11.22 48.69 -11.88 47.87 -12.52 47.08 -13.12 46.35 -13.74 45.66 -14.31 45.01 -14.89 44.42 -15.43 43.86 -15.98 43.35 -16.5 42.91 -17 42.48 -17.49 42.13 -17.96 41.81 -18.43 41.53 -18.86 41.3 -19.28 41.13 -19.69 41.01 -20.08 40.91 -20.46 40.88 -20.81 40.89 -21.16 40.97 -21.49 41.05 -21.82 41.21 -22.11 41.43 -22.39 41.67 -22.67 41.96 -22.91 42.31 0 0zm0 0c-6.94,12.8 -22.97,17.57 -35.78,10.63 -12.8,-6.94 -17.57,-22.97 -10.63,-35.78l46.4 25.15zm226.38 106.1l-52.77 -0.71 45.29 18.76 -10.92 10.41 -11.7 9.63 -12.37 8.87 -12.95 8.1 -13.42 7.33 -13.83 6.56 -14.15 5.76 -14.38 4.97 -14.54 4.15 -14.61 3.3 -14.63 2.43 -14.57 1.53 -14.44 0.58 -14.25 -0.42 -13.98 -1.5 -13.63 -2.62 -13.22 -3.88 -12.69 -5.22 -12.03 -6.7 -11.1 -8.29 -9.95 -9.91 -8.48 -11.48 -6.75 -12.9 -4.83 -14.16 -2.85 -15.16 -0.84 -16.04 1.09 -16.85 3.02 -17.68 4.96 -18.55 6.89 -19.5 8.9 -20.5 10.93 -21.57 46.4 25.15 -9.61 18.94 -7.54 17.37 -5.6 15.82 -3.79 14.21 -2.16 12.61 -0.73 11.02 0.5 9.44 1.49 7.97 2.3 6.71 2.99 5.71 3.66 4.96 4.44 4.4 5.3 3.93 6.23 3.48 7.22 2.95 8.17 2.38 9.03 1.74 9.77 1.04 10.4 0.31 10.91 -0.44 11.29 -1.19 11.58 -1.93 11.71 -2.65 11.74 -3.35 11.65 -4.03 11.46 -4.67 11.15 -5.28 10.73 -5.87 10.22 -6.39 9.59 -6.88 8.88 -7.31 8.09 -7.68 45.29 18.76zm-45.29 -18.76c10.16,-10.44 26.88,-10.66 37.31,-0.5 10.44,10.16 10.66,26.88 0.5,37.31l-37.81 -36.81zm405.5 51.19l-52.6 4.32 50.95 7.27 -8.13 18.7 -9.56 17.48 -10.85 16.17 -12.02 14.85 -13.07 13.52 -14 12.18 -14.82 10.84 -15.49 9.5 -16.08 8.18 -16.55 6.86 -16.9 5.56 -17.19 4.29 -17.36 3 -17.44 1.74 -17.43 0.47 -17.32 -0.79 -17.14 -2.05 -16.87 -3.32 -16.49 -4.61 -16.02 -5.9 -15.44 -7.21 -14.75 -8.55 -13.94 -9.88 -12.99 -11.22 -11.91 -12.57 -10.68 -13.89 -9.3 -15.18 -7.79 -16.4 -6.15 -17.57 -4.4 -18.66 -2.57 -19.66 -0.68 -20.59 52.77 0.71 0.51 15.64 1.9 14.46 3.16 13.34 4.31 12.3 5.37 11.32 6.37 10.39 7.32 9.51 8.23 8.68 9.09 7.85 9.89 7.02 10.65 6.15 11.34 5.29 11.95 4.4 12.46 3.48 12.9 2.53 13.25 1.59 13.47 0.61 13.61 -0.37 13.66 -1.35 13.58 -2.35 13.43 -3.35 13.18 -4.34 12.82 -5.32 12.39 -6.3 11.88 -7.27 11.27 -8.25 10.61 -9.23 9.87 -10.21 9.08 -11.2 8.2 -12.22 7.26 -13.27 6.25 -14.39 50.95 7.27zm-50.95 -7.27c5.2,-13.61 20.47,-20.42 34.08,-15.22 13.61,5.2 20.42,20.47 15.22,34.08l-49.3 -18.86zm373.47 43.39l-52.74 1.98 51.94 5.52 -4.83 15.37 -6.42 14.52 -7.86 13.58 -9.13 12.59 -10.24 11.58 -11.26 10.57 -12.14 9.53 -12.89 8.51 -13.55 7.51 -14.13 6.48 -14.6 5.48 -15.01 4.46 -15.3 3.44 -15.54 2.39 -15.69 1.34 -15.77 0.25 -15.75 -0.86 -15.66 -2 -15.5 -3.18 -15.22 -4.4 -14.85 -5.66 -14.37 -6.97 -13.77 -8.31 -13.04 -9.69 -12.17 -11.08 -11.15 -12.49 -9.99 -13.84 -8.7 -15.2 -7.28 -16.49 -5.77 -17.72 -4.19 -18.93 -2.54 -20.08 52.6 -4.32 1.95 15.44 3.12 14.04 4.16 12.77 5.09 11.54 5.96 10.39 6.75 9.37 7.5 8.38 8.22 7.47 8.89 6.6 9.53 5.76 10.13 4.9 10.67 4.07 11.12 3.21 11.49 2.36 11.79 1.5 12.01 0.65 12.09 -0.19 12.09 -1.04 12.01 -1.85 11.81 -2.64 11.5 -3.42 11.11 -4.17 10.62 -4.87 10.02 -5.55 9.38 -6.19 8.61 -6.75 7.79 -7.31 6.94 -7.82 6.02 -8.3 5.05 -8.75 4.08 -9.23 3.09 -9.76 51.94 5.52zm-51.94 -5.52c3.59,-14.12 17.96,-22.66 32.07,-19.07 14.12,3.59 22.66,17.96 19.07,32.07l-51.14 -13.01zm354.44 -0.47l-39.1 35.47 44.63 -9.54 -6.05 15.86 -7.43 14.86 -8.69 13.76 -9.8 12.64 -10.81 11.53 -11.71 10.39 -12.44 9.25 -13.09 8.14 -13.64 7.05 -14.08 5.99 -14.44 4.92 -14.69 3.9 -14.89 2.89 -15.02 1.89 -15.06 0.88 -15 -0.09 -14.91 -1.07 -14.72 -2.06 -14.47 -3.05 -14.15 -4.07 -13.72 -5.08 -13.23 -6.13 -12.63 -7.19 -11.93 -8.31 -11.12 -9.41 -10.17 -10.54 -9.07 -11.67 -7.8 -12.77 -6.42 -13.78 -4.86 -14.75 -3.23 -15.61 -1.5 -16.33 52.74 -1.98 0.98 10.59 2 9.72 2.96 8.94 3.85 8.28 4.71 7.68 5.52 7.11 6.37 6.59 7.16 6.07 7.94 5.51 8.66 4.93 9.31 4.33 9.92 3.66 10.41 2.99 10.85 2.28 11.17 1.56 11.41 0.82 11.55 0.07 11.61 -0.69 11.55 -1.45 11.41 -2.22 11.2 -2.96 10.89 -3.71 10.47 -4.45 10.01 -5.17 9.47 -5.88 8.85 -6.58 8.18 -7.26 7.47 -7.96 6.73 -8.67 5.93 -9.39 5.09 -10.16 4.21 -11.02 44.63 -9.54zm-44.63 9.54c4.52,-13.85 19.42,-21.41 33.27,-16.89 13.85,4.52 21.41,19.42 16.89,33.27l-50.16 -16.38zm365.26 -62.71l-40.19 34.22 46.48 -16.65 -0.89 16.07 -2.1 15.52 -3.26 14.87 -4.4 14.23 -5.52 13.52 -6.56 12.76 -7.58 11.94 -8.51 11.1 -9.41 10.21 -10.22 9.27 -10.95 8.31 -11.63 7.32 -12.24 6.32 -12.78 5.3 -13.26 4.28 -13.67 3.24 -14.01 2.2 -14.31 1.17 -14.57 0.11 -14.76 -0.94 -14.92 -2 -15.01 -3.06 -15.08 -4.13 -15.08 -5.22 -15.02 -6.29 -14.94 -7.39 -14.82 -8.48 -14.64 -9.6 -14.41 -10.69 -14.16 -11.83 -13.84 -12.96 -13.49 -14.07 39.1 -35.47 11.51 12.04 11.69 10.94 11.86 9.89 11.97 8.89 12.01 7.87 12.04 6.89 12.03 5.95 11.97 5.01 11.86 4.11 11.72 3.21 11.54 2.35 11.31 1.52 11.06 0.71 10.75 -0.09 10.42 -0.84 10.06 -1.58 9.66 -2.28 9.21 -2.97 8.77 -3.64 8.29 -4.29 7.8 -4.9 7.27 -5.51 6.74 -6.12 6.19 -6.71 5.63 -7.34 5.05 -7.95 4.41 -8.57 3.77 -9.23 3.06 -9.92 2.34 -10.61 1.53 -11.3 0.66 -12.04 46.48 -16.65zm-46.48 16.65c0.25,-14.57 12.28,-26.18 26.85,-25.93 14.57,0.25 26.18,12.28 25.93,26.85l-52.77 -0.92zm323.42 -110.07l45.77 -26.26 0.01 0.01 10.65 20.52 8.16 20.08 5.73 19.62 3.3 19.14 0.87 18.6 -1.54 17.92 -3.87 17.03 -6.05 16.02 -8.08 14.81 -9.85 13.51 -11.39 12.13 -12.7 10.77 -13.85 9.43 -14.83 8.14 -15.67 6.9 -16.41 5.66 -17.02 4.45 -17.54 3.27 -17.97 2.1 -18.28 0.91 -18.5 -0.27 -18.64 -1.47 -18.66 -2.68 -18.57 -3.9 -18.4 -5.15 -18.11 -6.45 -17.7 -7.75 -17.18 -9.09 -16.52 -10.46 -15.75 -11.87 -14.83 -13.3 -13.74 -14.71 40.19 -34.22 10.51 11.26 11.39 10.23 12.24 9.21 12.99 8.22 13.63 7.21 14.21 6.22 14.64 5.22 14.96 4.19 15.21 3.19 15.3 2.2 15.26 1.2 15.13 0.21 14.85 -0.74 14.44 -1.68 13.92 -2.6 13.26 -3.47 12.48 -4.3 11.57 -5.07 10.57 -5.8 9.48 -6.46 8.31 -7.03 7.11 -7.55 5.88 -8.06 4.68 -8.57 3.48 -9.17 2.25 -9.92 0.93 -10.8 -0.55 -11.83 -2.24 -12.97 -4.13 -14.16 -6.24 -15.34 -8.56 -16.49 0.01 0.01zm-0.01 -0.01c-7.24,-12.64 -2.87,-28.78 9.77,-36.02 12.64,-7.24 28.78,-2.87 36.02,9.77l-45.79 26.24zm-601.1 -1454.62l52.2 -7.79 11.31 70.01 12.68 68.38 13.98 66.76 15.18 65.13 16.3 63.49 17.32 61.87 18.23 60.25 19.08 58.61 19.82 56.98 20.48 55.37 21.02 53.73 21.49 52.12 21.87 50.49 22.17 48.88 22.35 47.25 22.45 45.62 22.46 44.01 22.39 42.4 22.2 40.77 21.95 39.15 21.58 37.52 21.15 35.92 20.6 34.31 19.97 32.71 19.27 31.08 18.44 29.49 17.56 27.89 16.58 26.3 15.51 24.74 14.35 23.17 13.12 21.63 11.81 20.12 -45.77 26.26 -11.35 -19.34 -12.8 -21.09 -14.16 -22.85 -15.39 -24.55 -16.56 -26.28 -17.6 -27.97 -18.56 -29.65 -19.4 -31.33 -20.16 -33.01 -20.83 -34.67 -21.4 -36.34 -21.87 -38.02 -22.23 -39.69 -22.53 -41.35 -22.71 -43.01 -22.81 -44.68 -22.8 -46.35 -22.71 -48 -22.51 -49.67 -22.23 -51.33 -21.86 -52.98 -21.39 -54.65 -20.82 -56.31 -20.16 -57.98 -19.4 -59.63 -18.56 -61.3 -17.61 -62.94 -16.58 -64.62 -15.45 -66.28 -14.22 -67.93 -12.91 -69.59 -11.5 -71.24zm0 0c-2.15,-14.41 7.8,-27.84 22.2,-29.99 14.41,-2.15 27.84,7.8 29.99,22.2l-52.2 7.79z"/>
   </g>
   <g>
    <path class="fil1" d="M440.3 2278.74c-13.67,-5.04 -20.68,-20.22 -15.64,-33.89 5.04,-13.67 20.22,-20.68 33.89,-15.64l-18.24 49.53zm1143.31 -62.22l18.11 49.57 -36.36 12.68 -36.93 11.73 -37.45 10.79 -37.9 9.87 -38.29 8.97 -38.64 8.09 -38.92 7.22 -39.15 6.36 -39.31 5.52 -39.43 4.72 -39.47 3.89 -39.48 3.13 -39.41 2.35 -39.29 1.58 -39.11 0.84 -38.88 0.12 -38.58 -0.59 -38.24 -1.29 -37.81 -1.98 -37.36 -2.63 -36.83 -3.29 -36.26 -3.93 -35.63 -4.55 -34.92 -5.17 -34.18 -5.76 -33.37 -6.35 -32.52 -6.93 -31.59 -7.46 -30.63 -8.04 -29.6 -8.56 -28.52 -9.09 -27.38 -9.61 18.24 -49.53 25.89 9.09 27.12 8.63 28.28 8.19 29.36 7.69 30.41 7.19 31.36 6.68 32.26 6.14 33.12 5.57 33.89 5.02 34.6 4.43 35.26 3.82 35.85 3.19 36.38 2.57 36.85 1.92 37.26 1.27 37.62 0.58 37.9 -0.12 38.13 -0.82 38.29 -1.54 38.4 -2.29 38.44 -3.03 38.41 -3.8 38.36 -4.58 38.21 -5.37 38 -6.19 37.75 -6.99 37.43 -7.84 37.06 -8.68 36.61 -9.52 36.1 -10.41 35.55 -11.29 34.92 -12.18zm0 0c13.69,-5 28.84,2.04 33.84,15.73 5,13.69 -2.04,28.84 -15.73,33.84l-18.11 -49.57z"/>
   </g>
   <g>
    <path class="fil1" d="M388.75 2391.54c-13.01,-6.57 -18.22,-22.45 -11.65,-35.46 6.57,-13.01 22.45,-18.22 35.46,-11.65l-23.81 47.11zm1243.96 -59.07l23.1 47.46 -30.78 14 -32.66 13.03 -34.42 12.08 -36.05 11.15 -37.56 10.23 -38.91 9.31 -40.17 8.45 -41.28 7.56 -42.25 6.68 -43.1 5.82 -43.82 4.96 -44.39 4.1 -44.84 3.25 -45.15 2.39 -45.32 1.54 -45.36 0.7 -45.25 -0.14 -45.02 -0.98 -44.65 -1.82 -44.14 -2.66 -43.49 -3.5 -42.72 -4.34 -41.81 -5.17 -40.76 -6 -39.59 -6.84 -38.29 -7.7 -36.85 -8.54 -35.29 -9.4 -33.61 -10.27 -31.8 -11.16 -29.87 -12.09 -27.84 -13.03 23.81 -47.11 25.07 11.74 27.43 11.09 29.63 10.4 31.65 9.68 33.54 8.94 35.26 8.17 36.83 7.4 38.23 6.61 39.52 5.83 40.62 5.02 41.61 4.22 42.41 3.41 43.1 2.6 43.63 1.78 44.03 0.96 44.28 0.14 44.38 -0.68 44.32 -1.53 44.15 -2.33 43.81 -3.17 43.34 -4 42.71 -4.82 41.95 -5.67 41.04 -6.48 39.98 -7.33 38.77 -8.14 37.42 -8.97 35.91 -9.77 34.24 -10.59 32.45 -11.39 30.47 -12.14 28.36 -12.91zm0 0c13.1,-6.37 28.91,-0.92 35.28,12.18 6.37,13.1 0.92,28.91 -12.18,35.28l-23.1 -47.46z"/>
   </g>
   <g>
    <path class="fil0" d="M1204.73 3209.82c-0.62,-14.56 10.68,-26.88 25.24,-27.5 14.56,-0.62 26.88,10.68 27.5,25.24l-52.74 2.26zm84.7 644.65l-52.72 2.61 -0.88 -17.64 -0.86 -17.07 -0.85 -16.58 -0.84 -16.16 -0.82 -15.82 -0.83 -15.56 -0.82 -15.36 -0.82 -15.24 -0.82 -15.18 -0.83 -15.21 -0.82 -15.3 -0.84 -15.46 -0.84 -15.72 -0.86 -16.02 -0.87 -16.41 -0.89 -16.87 -0.93 -17.4 -0.93 -18.01 -0.95 -18.67 -0.99 -19.44 -1.01 -20.26 -1.05 -21.14 -1.07 -22.13 -1.1 -23.14 -1.15 -24.28 -1.18 -25.46 -1.23 -26.7 -1.28 -28.06 -1.32 -29.46 -1.37 -30.92 -1.42 -32.48 -1.47 -34.1 52.74 -2.26 1.47 34.08 1.42 32.44 1.37 30.9 1.3 29.42 1.28 28.02 1.23 26.68 1.18 25.42 1.15 24.24 1.1 23.13 1.07 22.07 1.05 21.12 1.01 20.22 0.99 19.4 0.95 18.66 0.93 17.96 0.91 17.38 0.89 16.85 0.87 16.39 0.86 16 0.84 15.7 0.84 15.46 0.82 15.3 0.83 15.21 0.82 15.2 0.82 15.24 0.82 15.38 0.83 15.58 0.84 15.86 0.84 16.2 0.85 16.62 0.86 17.11 0.88 17.68zm0 0c0.72,14.55 -10.5,26.94 -25.05,27.66 -14.55,0.72 -26.94,-10.5 -27.66,-25.05l52.72 -2.61z"/>
   </g>
   <g>
    <path class="fil0" d="M1419.26 3944.42l0.75 -52.77 0.01 0 9.76 0.08 9.39 -0.08 9.02 -0.21 8.65 -0.35 8.27 -0.48 7.87 -0.6 7.51 -0.73 7.11 -0.85 6.74 -0.97 6.37 -1.07 5.96 -1.18 5.58 -1.28 5.21 -1.36 4.81 -1.44 4.39 -1.5 3.99 -1.55 3.64 -1.59 3.22 -1.61 2.84 -1.6 2.46 -1.58 2.1 -1.53 1.74 -1.48 1.45 -1.41 1.17 -1.32 0.93 -1.26 0.74 -1.17 0.56 -1.1 0.46 -1.16 0.35 -1.19 0.27 -1.29 0.18 -1.43 0.06 -1.58 52.77 0 -0.23 5.8 -0.7 5.78 -1.19 5.72 -1.7 5.62 -2.19 5.46 -2.69 5.3 -3.12 5.01 -3.52 4.73 -3.91 4.45 -4.23 4.13 -4.58 3.86 -4.82 3.55 -5.1 3.29 -5.37 3.04 -5.6 2.78 -5.83 2.57 -6.12 2.38 -6.39 2.17 -6.61 1.98 -6.88 1.8 -7.16 1.64 -7.45 1.47 -7.71 1.3 -8.01 1.16 -8.32 0.99 -8.62 0.84 -8.91 0.68 -9.23 0.54 -9.55 0.38 -9.86 0.23 -10.22 0.08 -10.53 -0.08 0.01 0zm-0.01 0c-14.57,-0.21 -26.21,-12.2 -26,-26.77 0.21,-14.57 12.2,-26.21 26.77,-26l-0.77 52.77zm-182.56 -88.66l52.77 0 0 0 0.11 3.23 0.31 2.73 0.45 2.35 0.55 1.94 0.65 1.67 0.73 1.45 0.82 1.3 0.98 1.26 1.17 1.23 1.44 1.28 1.77 1.31 2.11 1.33 2.54 1.36 2.94 1.35 3.36 1.31 3.75 1.26 4.17 1.2 4.56 1.11 4.94 1.03 5.32 0.95 5.65 0.84 5.98 0.76 6.34 0.66 6.65 0.59 6.94 0.51 7.23 0.43 7.52 0.35 7.8 0.31 8.06 0.26 8.32 0.2 8.57 0.16 8.81 0.14 -0.75 52.77 -8.99 -0.14 -8.81 -0.16 -8.64 -0.22 -8.44 -0.26 -8.24 -0.33 -8.06 -0.39 -7.88 -0.47 -7.69 -0.57 -7.49 -0.65 -7.3 -0.78 -7.15 -0.89 -6.97 -1.06 -6.76 -1.2 -6.61 -1.37 -6.46 -1.59 -6.28 -1.79 -6.13 -2.06 -5.97 -2.35 -5.78 -2.66 -5.61 -3.01 -5.43 -3.42 -5.17 -3.87 -4.89 -4.33 -4.51 -4.8 -4.09 -5.25 -3.59 -5.66 -3.03 -6.01 -2.46 -6.31 -1.87 -6.54 -1.29 -6.7 -0.75 -6.86 -0.24 -6.95 0 0zm0 0c0,-14.57 11.82,-26.39 26.39,-26.39 14.57,0 26.39,11.82 26.39,26.39l-52.77 0zm205.38 -99.51l-6.56 52.37 0.01 0 -7.02 -0.76 -7.07 -0.54 -7.1 -0.31 -7.1 -0.09 -7.11 0.13 -7.04 0.34 -6.99 0.55 -6.93 0.76 -6.83 0.94 -6.68 1.12 -6.54 1.32 -6.39 1.49 -6.21 1.66 -5.99 1.8 -5.73 1.96 -5.5 2.09 -5.19 2.21 -4.9 2.32 -4.57 2.4 -4.2 2.47 -3.86 2.52 -3.46 2.54 -3.03 2.5 -2.63 2.47 -2.21 2.4 -1.78 2.25 -1.4 2.13 -1.05 1.95 -0.73 1.76 -0.48 1.65 -0.28 1.55 -0.1 1.55 -52.77 0 0.44 -7.63 1.29 -7.44 2.09 -7.16 2.8 -6.82 3.42 -6.42 3.97 -6.02 4.43 -5.63 4.83 -5.24 5.2 -4.91 5.54 -4.59 5.82 -4.27 6.1 -4 6.39 -3.75 6.64 -3.49 6.86 -3.24 7.09 -3.01 7.3 -2.78 7.49 -2.55 7.67 -2.32 7.84 -2.1 8 -1.87 8.13 -1.63 8.29 -1.41 8.38 -1.15 8.46 -0.91 8.57 -0.68 8.65 -0.41 8.68 -0.15 8.73 0.11 8.75 0.38 8.76 0.65 8.75 0.95 0.01 0zm-0.01 0c14.45,1.8 24.72,15 22.91,29.46 -1.8,14.45 -15,24.72 -29.46,22.91l6.54 -52.37zm163.53 99.51l-52.77 0 0 0 0.09 1.4 0.16 0.83 0.11 0.35 -0.09 -0.18 -0.33 -0.61 -0.6 -0.93 -0.94 -1.27 -1.22 -1.48 -1.55 -1.67 -1.86 -1.83 -2.17 -1.95 -2.49 -2.05 -2.78 -2.12 -3.06 -2.16 -3.37 -2.22 -3.65 -2.23 -3.93 -2.24 -4.18 -2.22 -4.47 -2.22 -4.74 -2.19 -5.01 -2.14 -5.26 -2.1 -5.5 -2.02 -5.74 -1.95 -6.02 -1.88 -6.26 -1.79 -6.46 -1.68 -6.73 -1.57 -6.95 -1.45 -7.21 -1.33 -7.42 -1.2 -7.65 -1.05 6.56 -52.37 8.86 1.22 8.63 1.39 8.4 1.54 8.18 1.72 7.96 1.86 7.73 2 7.47 2.14 7.23 2.24 7.04 2.39 6.78 2.5 6.52 2.6 6.27 2.7 6.04 2.78 5.81 2.87 5.56 2.96 5.31 3.03 5.05 3.1 4.82 3.16 4.59 3.25 4.34 3.31 4.09 3.38 3.88 3.46 3.61 3.54 3.38 3.64 3.14 3.78 2.86 3.89 2.62 4.11 2.32 4.34 1.99 4.61 1.58 4.99 1.05 5.3 0.39 5.7 0 0zm0 0c0,14.57 -11.82,26.39 -26.39,26.39 -14.57,0 -26.39,-11.82 -26.39,-26.39l52.77 0z"/>
   </g>
   <g>
    <path class="fil0" d="M803.12 3207.56c0.61,-14.56 12.93,-25.86 27.49,-25.25 14.56,0.61 25.86,12.93 25.25,27.49l-52.74 -2.24zm29.3 649.53l-52.72 -2.65 0.87 -17.61 0.81 -17.03 0.74 -16.55 0.7 -16.13 0.65 -15.79 0.61 -15.51 0.57 -15.32 0.54 -15.2 0.52 -15.15 0.5 -15.17 0.48 -15.28 0.48 -15.44 0.47 -15.68 0.47 -16.01 0.48 -16.4 0.5 -16.86 0.51 -17.39 0.53 -17.99 0.57 -18.68 0.59 -19.44 0.64 -20.26 0.68 -21.15 0.74 -22.13 0.79 -23.15 0.84 -24.29 0.93 -25.47 0.99 -26.72 1.07 -28.06 1.15 -29.47 1.24 -30.94 1.33 -32.48 1.43 -34.12 52.74 2.24 -1.43 34.06 -1.33 32.44 -1.24 30.89 -1.15 29.41 -1.07 28.02 -0.99 26.66 -0.91 25.41 -0.84 24.23 -0.79 23.12 -0.74 22.07 -0.68 21.11 -0.64 20.22 -0.59 19.4 -0.57 18.65 -0.53 17.97 -0.51 17.39 -0.5 16.86 -0.48 16.4 -0.47 16.01 -0.47 15.74 -0.48 15.48 -0.48 15.32 -0.5 15.25 -0.52 15.23 -0.56 15.28 -0.57 15.41 -0.61 15.62 -0.65 15.88 -0.7 16.23 -0.76 16.66 -0.81 17.15 -0.87 17.71zm0 0c-0.73,14.55 -13.13,25.76 -27.68,25.03 -14.55,-0.73 -25.76,-13.13 -25.03,-27.68l52.72 2.65z"/>
   </g>
   <g>
    <path class="fil0" d="M649.29 3891.65l0.75 52.77 0.01 0 -10.53 0.08 -10.21 -0.08 -9.88 -0.23 -9.55 -0.38 -9.23 -0.54 -8.92 -0.68 -8.62 -0.84 -8.33 -0.99 -8.02 -1.16 -7.7 -1.3 -7.46 -1.47 -7.16 -1.64 -6.88 -1.79 -6.62 -1.99 -6.39 -2.17 -6.13 -2.38 -5.84 -2.56 -5.61 -2.79 -5.37 -3.04 -5.09 -3.27 -4.83 -3.55 -4.58 -3.85 -4.28 -4.16 -3.9 -4.45 -3.5 -4.68 -3.15 -5.04 -2.69 -5.29 -2.2 -5.47 -1.71 -5.65 -1.19 -5.72 -0.7 -5.78 -0.23 -5.8 52.77 0 0.06 1.58 0.18 1.43 0.27 1.29 0.35 1.16 0.47 1.15 0.56 1.12 0.73 1.14 0.97 1.3 1.16 1.32 1.42 1.38 1.76 1.49 2.11 1.53 2.48 1.6 2.84 1.6 3.23 1.6 3.64 1.6 4.02 1.55 4.39 1.5 4.82 1.43 5.21 1.37 5.59 1.28 5.97 1.18 6.38 1.07 6.75 0.97 7.12 0.85 7.51 0.73 7.88 0.6 8.27 0.48 8.65 0.35 9.02 0.21 9.4 0.08 9.76 -0.08 0.01 0zm-0.01 0c14.57,-0.21 26.56,11.43 26.77,26 0.21,14.57 -11.43,26.56 -26,26.77l-0.77 -52.77zm130.4 -35.88l52.77 0 0 0 -0.24 6.95 -0.75 6.86 -1.29 6.7 -1.87 6.54 -2.46 6.31 -3.03 6.01 -3.57 5.64 -4.1 5.27 -4.54 4.81 -4.85 4.3 -5.17 3.88 -5.44 3.43 -5.61 3.01 -5.77 2.66 -5.97 2.35 -6.14 2.06 -6.26 1.79 -6.46 1.58 -6.61 1.38 -6.76 1.2 -6.96 1.05 -7.13 0.9 -7.31 0.78 -7.47 0.65 -7.68 0.57 -7.87 0.47 -8.06 0.39 -8.23 0.33 -8.43 0.26 -8.62 0.22 -8.79 0.16 -8.98 0.14 -0.75 -52.77 8.81 -0.14 8.56 -0.16 8.3 -0.2 8.05 -0.26 7.79 -0.31 7.52 -0.35 7.2 -0.43 6.93 -0.51 6.65 -0.59 6.33 -0.66 5.98 -0.75 5.64 -0.85 5.32 -0.95 4.94 -1.02 4.54 -1.12 4.17 -1.2 3.76 -1.26 3.34 -1.31 2.95 -1.35 2.54 -1.36 2.1 -1.32 1.76 -1.3 1.48 -1.3 1.16 -1.22 0.95 -1.24 0.84 -1.32 0.73 -1.45 0.65 -1.67 0.55 -1.94 0.45 -2.35 0.31 -2.73 0.11 -3.23 0 0zm0 0c0,-14.57 11.82,-26.39 26.39,-26.39 14.57,0 26.39,11.82 26.39,26.39l-52.77 0zm-145.89 -47.14l-6.56 -52.37 0.01 0 8.75 -0.95 8.76 -0.65 8.75 -0.38 8.73 -0.11 8.68 0.15 8.63 0.41 8.57 0.68 8.46 0.91 8.37 1.16 8.28 1.4 8.13 1.63 8 1.87 7.83 2.1 7.66 2.32 7.49 2.55 7.3 2.78 7.07 3.01 6.86 3.24 6.64 3.5 6.38 3.75 6.08 3.99 5.83 4.28 5.54 4.6 5.18 4.9 4.82 5.25 4.42 5.63 3.97 6.02 3.41 6.4 2.8 6.79 2.1 7.21 1.29 7.44 0.44 7.61 -52.77 0 -0.1 -1.58 -0.27 -1.55 -0.47 -1.59 -0.75 -1.78 -1.05 -1.97 -1.4 -2.13 -1.77 -2.25 -2.22 -2.39 -2.63 -2.48 -3.01 -2.49 -3.45 -2.53 -3.86 -2.53 -4.19 -2.47 -4.55 -2.39 -4.9 -2.32 -5.19 -2.21 -5.48 -2.09 -5.73 -1.96 -5.98 -1.8 -6.2 -1.66 -6.37 -1.49 -6.54 -1.32 -6.67 -1.13 -6.82 -0.93 -6.93 -0.76 -6.99 -0.55 -7.04 -0.34 -7.09 -0.13 -7.1 0.09 -7.1 0.31 -7.07 0.54 -7.02 0.76 0.01 0zm-0.01 0c-14.45,1.8 -27.65,-8.46 -29.46,-22.91 -1.8,-14.45 8.46,-27.65 22.91,-29.46l6.54 52.37zm-117.45 47.14l-52.77 0 0 0 0.39 -5.7 1.06 -5.35 1.59 -4.99 1.98 -4.57 2.34 -4.37 2.63 -4.11 2.86 -3.88 3.15 -3.78 3.38 -3.64 3.62 -3.54 3.87 -3.46 4.1 -3.37 4.35 -3.31 4.61 -3.25 4.82 -3.17 5.05 -3.08 5.32 -3.04 5.58 -2.95 5.8 -2.87 6.05 -2.79 6.27 -2.69 6.52 -2.6 6.8 -2.5 7.03 -2.39 7.25 -2.24 7.47 -2.15 7.73 -2 7.96 -1.85 8.19 -1.72 8.4 -1.54 8.63 -1.39 8.86 -1.22 6.56 52.37 -7.65 1.05 -7.42 1.2 -7.21 1.33 -6.96 1.45 -6.73 1.58 -6.48 1.68 -6.26 1.78 -6.02 1.88 -5.75 1.95 -5.5 2.02 -5.26 2.1 -5.03 2.15 -4.75 2.18 -4.48 2.22 -4.2 2.23 -3.92 2.23 -3.67 2.25 -3.39 2.21 -3.06 2.16 -2.77 2.12 -2.5 2.06 -2.18 1.95 -1.87 1.83 -1.55 1.67 -1.23 1.48 -0.94 1.28 -0.61 0.94 -0.31 0.58 -0.1 0.23 0.1 -0.35 0.17 -0.88 0.09 -1.4 0 0zm0 0c0,14.57 -11.82,26.39 -26.39,26.39 -14.57,0 -26.39,-11.82 -26.39,-26.39l52.77 0z"/>
   </g>
   <g>
    <path class="fil0" d="M65.12 2596.51l-19.74 48.96 -0.02 -0.01 -9.61 -4.9 -8.49 -6.43 -7.12 -7.53 -5.77 -8.27 -4.58 -8.81 -3.51 -9.17 -2.64 -9.46 -1.86 -9.75 -1.17 -9.95 -0.58 -10.18 -0.03 -10.38 0.49 -10.54 0.98 -10.7 1.42 -10.79 1.84 -10.86 2.26 -10.92 2.66 -10.89 3.03 -10.82 3.38 -10.73 3.74 -10.59 4.07 -10.39 4.4 -10.16 4.71 -9.87 5.05 -9.56 5.36 -9.17 5.67 -8.75 6.03 -8.32 6.43 -7.81 6.81 -7.24 7.3 -6.64 7.87 -5.92 8.48 -5.07 24.38 46.81 -3.3 1.99 -3.68 2.79 -4 3.64 -4.2 4.46 -4.28 5.22 -4.29 5.92 -4.27 6.58 -4.17 7.14 -4.01 7.61 -3.85 8.05 -3.64 8.41 -3.4 8.68 -3.15 8.92 -2.86 9.04 -2.55 9.15 -2.23 9.14 -1.88 9.08 -1.53 8.96 -1.15 8.76 -0.77 8.48 -0.37 8.1 0.01 7.67 0.4 7.15 0.77 6.51 1.09 5.77 1.37 4.97 1.55 4.09 1.62 3.14 1.55 2.26 1.38 1.49 1.24 0.94 1.36 0.7 -0.02 -0.01zm0.02 0.01c13.51,5.46 20.04,20.85 14.58,34.36 -5.46,13.51 -20.85,20.04 -34.36,14.58l19.78 -48.94zm137.56 -156.21l52.41 -6.2 0 -0.02 0.56 9.51 -0.47 9.46 -1.33 9.42 -2.09 9.36 -2.75 9.35 -3.36 9.34 -3.9 9.36 -4.43 9.33 -4.88 9.31 -5.33 9.28 -5.74 9.21 -6.12 9.11 -6.46 8.99 -6.79 8.82 -7.08 8.62 -7.32 8.38 -7.57 8.12 -7.79 7.83 -7.98 7.47 -8.15 7.09 -8.3 6.66 -8.44 6.2 -8.6 5.71 -8.73 5.13 -8.89 4.54 -9.08 3.87 -9.26 3.1 -9.53 2.23 -9.8 1.19 -10.01 -0.04 -10.12 -1.48 -9.98 -3.1 19.74 -48.96 1.84 0.57 2.33 0.33 2.99 0 3.68 -0.46 4.35 -1.04 5 -1.68 5.46 -2.31 5.84 -3 6.18 -3.64 6.36 -4.21 6.52 -4.8 6.61 -5.29 6.62 -5.76 6.6 -6.19 6.52 -6.54 6.4 -6.88 6.24 -7.14 6.02 -7.34 5.76 -7.5 5.48 -7.61 5.14 -7.67 4.78 -7.65 4.35 -7.58 3.92 -7.47 3.43 -7.26 2.93 -6.98 2.38 -6.64 1.83 -6.21 1.27 -5.64 0.72 -4.99 0.22 -4.22 -0.19 -3.39 0 -0.02zm0 0.02c-1.72,-14.46 8.62,-27.6 23.09,-29.32 14.46,-1.72 27.6,8.62 29.32,23.09l-52.41 6.23zm-86.34 -38.62l-24.38 -46.81 -0.05 0.03 6.97 -3.41 7.01 -2.95 7.02 -2.49 7.06 -2.06 7.05 -1.6 7.03 -1.17 7.01 -0.72 6.93 -0.28 6.83 0.13 6.75 0.56 6.64 0.97 6.5 1.36 6.36 1.75 6.19 2.12 5.99 2.47 5.81 2.82 5.63 3.17 5.36 3.48 5.13 3.77 4.9 4.1 4.62 4.36 4.36 4.63 4.08 4.88 3.78 5.12 3.47 5.36 3.16 5.56 2.82 5.8 2.47 5.96 2.13 6.16 1.75 6.3 1.38 6.45 0.98 6.58 -52.41 6.2 -0.5 -3.36 -0.71 -3.3 -0.88 -3.19 -1.07 -3.09 -1.25 -3.02 -1.42 -2.89 -1.58 -2.8 -1.75 -2.7 -1.9 -2.57 -2.04 -2.47 -2.18 -2.31 -2.34 -2.2 -2.43 -2.02 -2.6 -1.91 -2.7 -1.76 -2.77 -1.56 -2.92 -1.42 -3.02 -1.25 -3.1 -1.06 -3.21 -0.88 -3.3 -0.69 -3.4 -0.49 -3.49 -0.29 -3.61 -0.08 -3.68 0.14 -3.75 0.39 -3.88 0.63 -3.96 0.91 -4.07 1.18 -4.18 1.5 -4.27 1.78 -4.35 2.13 -0.05 0.03zm0.05 -0.03c-12.9,6.75 -28.86,1.76 -35.61,-11.14 -6.75,-12.9 -1.76,-28.86 11.14,-35.61l24.48 46.75z"/>
   </g>
   <g>
    <path class="fil0" d="M592.61 1693.3c7.12,-12.71 23.2,-17.25 35.91,-10.13 12.71,7.12 17.25,23.2 10.13,35.91l-46.04 -25.78zm-385.8 698.34l-41.63 -32.44 14.1 -18.27 14.21 -18.8 14.34 -19.31 14.43 -19.74 14.49 -20.18 14.56 -20.55 14.59 -20.91 14.63 -21.22 14.62 -21.48 14.61 -21.73 14.57 -21.92 14.52 -22.09 14.46 -22.21 14.37 -22.3 14.27 -22.35 14.16 -22.38 14.03 -22.35 13.86 -22.29 13.7 -22.2 13.51 -22.07 13.31 -21.91 13.08 -21.71 12.85 -21.48 12.6 -21.18 12.32 -20.89 12.04 -20.54 11.73 -20.14 11.4 -19.74 11.07 -19.26 10.7 -18.79 10.33 -18.25 9.95 -17.68 46.04 25.78 -10.02 17.83 -10.41 18.39 -10.78 18.92 -11.15 19.41 -11.48 19.85 -11.81 20.3 -12.11 20.67 -12.41 21.02 -12.68 21.33 -12.93 21.61 -13.18 21.86 -13.41 22.06 -13.61 22.22 -13.79 22.36 -13.98 22.46 -14.13 22.52 -14.27 22.55 -14.39 22.54 -14.5 22.49 -14.6 22.41 -14.66 22.3 -14.72 22.15 -14.76 21.96 -14.79 21.74 -14.8 21.47 -14.78 21.18 -14.77 20.86 -14.72 20.49 -14.68 20.08 -14.59 19.65 -14.52 19.18 -14.41 18.67zm0 0c-8.95,11.49 -25.54,13.54 -37.03,4.59 -11.49,-8.95 -13.54,-25.54 -4.59,-37.03l41.63 32.44z"/>
   </g>
   <g>
    <path class="fil0" d="M1982.59 2637.76l-13.39 -51.05 0.04 -0.01 1.44 -0.53 1.39 -0.81 1.57 -1.29 1.82 -2.02 2.01 -2.92 2.06 -3.84 2 -4.75 1.84 -5.61 1.59 -6.35 1.32 -7.02 0.99 -7.6 0.67 -8.1 0.32 -8.5 -0.03 -8.82 -0.37 -9.09 -0.7 -9.26 -1.05 -9.35 -1.36 -9.4 -1.67 -9.33 -1.99 -9.24 -2.26 -9.05 -2.53 -8.8 -2.79 -8.47 -3.02 -8.09 -3.21 -7.62 -3.38 -7.04 -3.51 -6.43 -3.59 -5.74 -3.59 -4.97 -3.5 -4.12 -3.3 -3.24 -3.03 -2.39 30.19 -43.3 7.75 6.11 7.04 6.89 6.4 7.52 5.83 8.06 5.35 8.54 4.93 9.02 4.53 9.44 4.13 9.78 3.77 10.1 3.42 10.39 3.07 10.66 2.7 10.82 2.35 10.98 2 11.08 1.61 11.13 1.24 11.14 0.85 11.1 0.45 11.01 0.03 10.9 -0.41 10.74 -0.86 10.51 -1.35 10.3 -1.88 10.03 -2.46 9.73 -3.09 9.39 -3.82 9.06 -4.69 8.65 -5.66 8.15 -6.83 7.49 -8.04 6.53 -9.22 5.26 -10.19 3.64 0.04 -0.01zm-0.04 0.01c-14.1,3.67 -28.52,-4.78 -32.19,-18.88 -3.67,-14.1 4.78,-28.52 18.88,-32.19l13.31 51.07zm-181.03 -236.43l51.16 12.99 0.03 -0.12 -0.61 3.32 -0.31 4.21 0.09 5.07 0.54 5.76 1.04 6.38 1.53 6.89 2.01 7.31 2.49 7.63 2.94 7.9 3.36 8.1 3.76 8.2 4.13 8.26 4.46 8.26 4.76 8.17 5.05 8.06 5.28 7.87 5.46 7.63 5.63 7.33 5.76 6.97 5.84 6.58 5.86 6.1 5.85 5.57 5.77 5.01 5.63 4.38 5.43 3.71 5.1 3 4.71 2.28 4.2 1.58 3.6 0.93 2.94 0.38 2.31 -0.03 1.89 -0.33 13.39 51.05 -10.27 1.82 -10.25 0.18 -9.94 -1.25 -9.54 -2.43 -9.15 -3.42 -8.81 -4.26 -8.5 -5 -8.23 -5.63 -7.99 -6.21 -7.79 -6.73 -7.6 -7.24 -7.38 -7.67 -7.16 -8.06 -6.95 -8.43 -6.72 -8.75 -6.47 -9.03 -6.2 -9.26 -5.91 -9.46 -5.6 -9.61 -5.27 -9.74 -4.9 -9.81 -4.53 -9.87 -4.11 -9.88 -3.67 -9.86 -3.18 -9.82 -2.7 -9.76 -2.14 -9.71 -1.55 -9.62 -0.88 -9.54 -0.14 -9.47 0.71 -9.45 1.75 -9.36 0.03 -0.12zm-0.03 0.12c3.52,-14.14 17.85,-22.75 31.99,-19.23 14.14,3.52 22.75,17.85 19.23,31.99l-51.22 -12.76zm172.09 -57.81l-30.19 43.3 -0.01 -0.01 -4.06 -2.68 -4 -2.32 -3.96 -2 -3.88 -1.69 -3.86 -1.41 -3.77 -1.13 -3.68 -0.87 -3.63 -0.61 -3.58 -0.38 -3.51 -0.16 -3.41 0.06 -3.39 0.27 -3.29 0.46 -3.2 0.66 -3.16 0.85 -3.06 1.03 -2.98 1.22 -2.91 1.39 -2.78 1.54 -2.7 1.73 -2.59 1.87 -2.47 2.02 -2.34 2.18 -2.21 2.31 -2.11 2.48 -1.94 2.57 -1.77 2.7 -1.64 2.84 -1.47 2.94 -1.29 3.06 -1.13 3.17 -0.94 3.3 -51.16 -12.99 1.84 -6.39 2.19 -6.21 2.56 -6.03 2.91 -5.82 3.21 -5.58 3.56 -5.4 3.86 -5.12 4.11 -4.84 4.41 -4.61 4.68 -4.33 4.91 -4.04 5.14 -3.73 5.36 -3.41 5.6 -3.12 5.76 -2.75 5.96 -2.43 6.13 -2.06 6.26 -1.7 6.43 -1.31 6.53 -0.92 6.61 -0.52 6.71 -0.12 6.77 0.32 6.8 0.73 6.85 1.17 6.85 1.6 6.82 2.05 6.77 2.48 6.75 2.94 6.67 3.39 6.59 3.82 6.47 4.27 -0.01 -0.01zm0.01 0.01c11.94,8.34 14.87,24.8 6.53,36.75 -8.34,11.94 -24.8,14.87 -36.75,6.53l30.21 -43.28z"/>
   </g>
   <g>
    <path class="fil0" d="M1382.39 1654.54c-6.66,-12.96 -1.54,-28.87 11.41,-35.53 12.96,-6.66 28.87,-1.54 35.53,11.41l-46.94 24.11zm514.88 679.87l-39.35 35.18 -15.44 -17.61 -15.81 -18.68 -16.12 -19.68 -16.41 -20.6 -16.67 -21.45 -16.88 -22.22 -17.04 -22.92 -17.18 -23.53 -17.27 -24.08 -17.32 -24.55 -17.33 -24.93 -17.3 -25.25 -17.23 -25.47 -17.11 -25.62 -16.96 -25.71 -16.77 -25.7 -16.51 -25.62 -16.23 -25.46 -15.91 -25.23 -15.55 -24.9 -15.13 -24.5 -14.68 -24.04 -14.18 -23.48 -13.65 -22.86 -13.05 -22.15 -12.45 -21.36 -11.79 -20.49 -11.08 -19.57 -10.33 -18.55 -9.56 -17.46 -8.72 -16.32 -7.87 -15.09 46.94 -24.11 7.59 14.53 8.49 15.86 9.33 17.07 10.16 18.2 10.91 19.26 11.62 20.22 12.3 21.11 12.92 21.9 13.51 22.61 14.04 23.27 14.54 23.81 14.99 24.29 15.39 24.69 15.78 25 16.09 25.25 16.37 25.39 16.59 25.47 16.8 25.46 16.94 25.37 17.05 25.22 17.11 24.97 17.12 24.62 17.11 24.24 17.03 23.74 16.91 23.16 16.76 22.52 16.54 21.78 16.29 20.97 15.99 20.07 15.64 19.09 15.23 18.01 14.79 16.86zm0 0c9.71,10.86 8.78,27.56 -2.08,37.26 -10.86,9.71 -27.56,8.78 -37.26,-2.08l39.35 -35.18z"/>
   </g>
  </g>
 </g>
</svg>
