<?xml version="1.0" encoding="UTF-8"?>
<!DOCTYPE svg PUBLIC "-//W3C//DTD SVG 1.1//EN" "http://www.w3.org/Graphics/SVG/1.1/DTD/svg11.dtd">
<!-- Creator: CorelDRAW Standard 2021 (64-Bit) -->
<svg xmlns="http://www.w3.org/2000/svg" xml:space="preserve" width="18.7925mm" height="38.7065mm" version="1.1" style="shape-rendering:geometricPrecision; text-rendering:geometricPrecision; image-rendering:optimizeQuality; fill-rule:evenodd; clip-rule:evenodd"
viewBox="0 0 276.25 568.99"
 xmlns:xlink="http://www.w3.org/1999/xlink"
 xmlns:xodm="http://www.corel.com/coreldraw/odm/2003">
 <defs>
  <style type="text/css">
   <![CDATA[
    .str0 {stroke:#1D1D1B;stroke-width:6.92;stroke-linecap:round;stroke-linejoin:round;stroke-miterlimit:10}
    .fil0 {fill:none;fill-rule:nonzero}
   ]]>
  </style>
 </defs>
 <g id="Layer_x0020_1">
  <metadata id="CorelCorpID_0Corel-Layer"/>
  <path class="fil0 str0" d="M208.37 70.4c10.89,15.86 16.35,36.01 14.71,56.77 -3.96,50.39 -35.96,90.47 -92.05,87.15 -57.96,-3.44 -75.31,-54.96 -75.13,-87.64 0.11,-18.95 7.33,-43.23 25.25,-61.6m31.38 -33.1c-26.14,6.77 -64.08,11.02 -77.95,58.68 33.71,-24.9 60.05,-29.78 63.85,-30.2 -17.91,11.61 -21.47,31.22 -20.63,38.81 10.11,-12.66 36.23,-36.71 49.3,-40.1 -9.89,14.55 -16.63,22.99 -18.51,40.49 15.16,-18.99 42.34,-33.56 57.51,-35.26 15.19,-1.7 50.61,5.86 65.17,15.76 -13.11,-31.19 -37.37,-41.92 -51.27,-46.12 11.37,-9.92 27.8,-17.52 36.23,-19.43 -16.02,-5.89 -44.26,-0.81 -55.01,6.16 2.95,-8.01 11.79,-14.77 15.38,-17.09 -15.6,-2.09 -48.69,11.22 -64.07,28.3zm-56.36 88.85c-8.92,-2.78 -23.46,4.61 -21.97,17.9 1.49,13.28 13.51,17.7 24.47,12.63m164.6 -35.53c6.14,-0.87 18.36,5.44 17.74,17.03 -0.52,9.72 -11.68,16.11 -20.71,12.6m-103.36 -17.43c3.16,-0.35 6.61,3.41 5.02,7.74 -1.59,4.33 -7.6,5.69 -10.25,1.15 -2.38,-4.06 1.13,-8.43 5.23,-8.88zm37.28 4.07c-0.85,-3.06 2.31,-7.06 6.84,-6.18 4.52,0.89 6.83,6.6 2.76,9.93 -3.63,2.98 -8.49,0.22 -9.6,-3.76zm-52.94 19.29c2.54,8.05 15.19,27.5 38.37,25.78 26.1,-1.94 33.89,-23.43 35.75,-31.14m-78.2 59.11c-17.94,28.13 -39.24,181.59 -36.8,232.23 0.28,5.68 63.83,7.5 73.3,5.93 5.78,-16.17 5.36,-34.08 9.68,-33.95 3.98,0.12 7.33,27.56 12.11,33.24 3.93,4.69 64.4,3.96 64.42,-0.03 0.77,-87.04 -21.41,-217.07 -31.75,-244.17m-109.79 94c28.35,5.53 95.16,7.68 128.73,-1.85m-92.73 -78.73c-3.4,18.53 -5.36,63.22 -7.04,83.74m65.26 -87.99c0.33,9.62 5.5,62.18 6.31,87.99m-3.15 150.08c2.18,51.2 1.76,85.02 3.07,111.35m43.45 0c0,5.48 -6.8,8.78 -21.93,8.56 -13.2,-0.18 -21.52,-0.87 -21.52,-8.56 0,-6.8 12.62,-11.52 24.13,-10.07 12.28,1.54 19.32,7 19.32,10.07zm-112.91 -113.28c-2.19,51.2 -2.88,86.95 -4.21,113.28m-43.44 0c0,5.48 6.8,8.78 21.95,8.56 13.19,-0.18 21.5,-0.87 21.5,-8.56 0,-6.8 -12.6,-11.52 -24.13,-10.07 -12.27,1.54 -19.32,7 -19.32,10.07zm-49.54 -217.36c-8.28,5.24 -12.69,31.08 -3.92,33.8 8.68,2.68 23.52,-18.15 21.69,-27.15 -1.48,-7.27 -9.83,-11.67 -17.77,-6.65zm76.18 -111.96c-11.58,20.25 -52.47,82.61 -64.99,110.63m242.24 -2.42c7.91,5.81 10.5,31.89 1.56,34 -8.82,2.07 -22.2,-19.74 -19.73,-28.59 1.97,-7.16 10.6,-10.96 18.18,-5.4zm-69.84 -111.84c10.15,21 46.29,80.62 58.78,109.74m-46.17 -263.35c10.89,15.86 16.35,36.01 14.71,56.77 -3.96,50.39 -35.96,90.47 -92.05,87.15 -57.96,-3.44 -75.31,-54.96 -75.13,-87.64 0.11,-18.95 7.33,-43.23 25.25,-61.6m31.38 -33.1c-26.14,6.77 -64.08,11.02 -77.95,58.68 33.71,-24.9 60.05,-29.78 63.85,-30.2 -17.91,11.61 -21.47,31.22 -20.63,38.81 10.11,-12.66 36.23,-36.71 49.3,-40.1 -9.89,14.55 -16.63,22.99 -18.51,40.49 15.16,-18.99 42.34,-33.56 57.51,-35.26 15.19,-1.7 50.61,5.86 65.17,15.76 -13.11,-31.19 -37.37,-41.92 -51.27,-46.12 11.37,-9.92 27.8,-17.52 36.23,-19.43 -16.02,-5.89 -44.26,-0.81 -55.01,6.16 2.95,-8.01 11.79,-14.77 15.38,-17.09 -15.6,-2.09 -48.69,11.22 -64.07,28.3zm-56.36 88.85c-8.92,-2.78 -23.46,4.61 -21.97,17.9 1.49,13.28 13.51,17.7 24.47,12.63m164.6 -35.53c6.14,-0.87 18.36,5.44 17.74,17.03 -0.52,9.72 -11.68,16.11 -20.71,12.6m-103.36 -17.43c3.16,-0.35 6.61,3.41 5.02,7.74 -1.59,4.33 -7.6,5.69 -10.25,1.15 -2.38,-4.06 1.13,-8.43 5.23,-8.88zm37.28 4.07c-0.85,-3.06 2.31,-7.06 6.84,-6.18 4.52,0.89 6.83,6.6 2.76,9.93 -3.63,2.98 -8.49,0.22 -9.6,-3.76zm-52.94 19.29c2.54,8.05 15.19,27.5 38.37,25.78 26.1,-1.94 33.89,-23.43 35.75,-31.14m-78.2 59.11c-17.94,28.13 -39.24,181.59 -36.8,232.23 0.28,5.68 63.83,7.5 73.3,5.93 5.78,-16.17 5.36,-34.08 9.68,-33.95 3.98,0.12 7.33,27.56 12.11,33.24 3.93,4.69 64.4,3.96 64.42,-0.03 0.77,-87.04 -21.41,-217.07 -31.75,-244.17m-109.79 94c28.35,5.53 95.16,7.68 128.73,-1.85m-92.73 -78.73c-3.4,18.53 -5.36,63.22 -7.04,83.74m65.26 -87.99c0.33,9.62 5.5,62.18 6.31,87.99m-3.15 150.08c2.18,51.2 1.76,85.02 3.07,111.35m43.45 0c0,5.48 -6.8,8.78 -21.93,8.56 -13.2,-0.18 -21.52,-0.87 -21.52,-8.56 0,-6.8 12.62,-11.52 24.13,-10.07 12.28,1.54 19.32,7 19.32,10.07zm-112.91 -113.28c-2.19,51.2 -2.88,86.95 -4.21,113.28m-43.44 0c0,5.48 6.8,8.78 21.95,8.56 13.19,-0.18 21.5,-0.87 21.5,-8.56 0,-6.8 -12.6,-11.52 -24.13,-10.07 -12.27,1.54 -19.32,7 -19.32,10.07zm-49.54 -217.36c-8.28,5.24 -12.69,31.08 -3.92,33.8 8.68,2.68 23.52,-18.15 21.69,-27.15 -1.48,-7.27 -9.83,-11.67 -17.77,-6.65zm76.18 -111.96c-11.58,20.25 -52.47,82.61 -64.99,110.63m242.24 -2.42c7.91,5.81 10.5,31.89 1.56,34 -8.82,2.07 -22.2,-19.74 -19.73,-28.59 1.97,-7.16 10.6,-10.96 18.18,-5.4zm-69.84 -111.84c10.15,21 46.29,80.62 58.78,109.74"/>
 </g>
</svg>
