<?xml version="1.0" encoding="UTF-8"?>
<!DOCTYPE svg PUBLIC "-//W3C//DTD SVG 1.1//EN" "http://www.w3.org/Graphics/SVG/1.1/DTD/svg11.dtd">
<!-- Creator: CorelDRAW Standard 2021 (64-Bit) -->
<svg xmlns="http://www.w3.org/2000/svg" xml:space="preserve" width="33.064mm" height="39.7694mm" version="1.1" style="shape-rendering:geometricPrecision; text-rendering:geometricPrecision; image-rendering:optimizeQuality; fill-rule:evenodd; clip-rule:evenodd"
viewBox="0 0 247.12 297.24"
 xmlns:xlink="http://www.w3.org/1999/xlink"
 xmlns:xodm="http://www.corel.com/coreldraw/odm/2003">
 <defs>
  <style type="text/css">
   <![CDATA[
    .fil0 {fill:#1A1A1A;fill-rule:nonzero}
   ]]>
  </style>
 </defs>
 <g id="Layer_x0020_1">
  <metadata id="CorelCorpID_0Corel-Layer"/>
  <g id="adolexant_x0020_2">
   <g>
    <path class="fil0" d="M58.13 92.77l-3.17 0.37c-0.09,-0.84 0.55,-1.61 1.43,-1.72 0.87,-0.1 1.65,0.5 1.74,1.34zm1.58 16.83l0 0 -0.24 -0.5 -0.24 -0.5 -0.23 -0.5 -0.22 -0.5 -0.22 -0.5 -0.21 -0.51 -0.2 -0.51 -0.2 -0.51 -0.19 -0.51 -0.19 -0.51 -0.18 -0.51 -0.17 -0.51 -0.17 -0.51 -0.16 -0.52 -0.16 -0.51 -0.15 -0.52 -0.14 -0.52 -0.14 -0.52 -0.13 -0.52 -0.13 -0.52 -0.12 -0.52 -0.12 -0.52 -0.11 -0.52 -0.1 -0.52 -0.1 -0.52 -0.09 -0.52 -0.09 -0.52 -0.08 -0.52 -0.07 -0.52 -0.07 -0.52 -0.06 -0.52 -0.06 -0.52 3.17 -0.37 0.05 0.49 0.06 0.49 0.06 0.49 0.07 0.49 0.07 0.49 0.08 0.49 0.09 0.49 0.09 0.49 0.1 0.49 0.1 0.49 0.11 0.49 0.11 0.49 0.12 0.49 0.12 0.49 0.13 0.49 0.14 0.49 0.14 0.48 0.15 0.49 0.15 0.48 0.16 0.48 0.16 0.48 0.17 0.48 0.18 0.48 0.18 0.48 0.19 0.48 0.19 0.48 0.2 0.47 0.2 0.47 0.21 0.47 0.21 0.47 0.22 0.47 0.23 0.47 0 0 -2.88 1.38zm0 0l2.88 -1.38c0.37,0.76 0.03,1.69 -0.76,2.07 -0.79,0.38 -1.74,0.07 -2.12,-0.69zm67.12 26.59l0 0 -2.73 1.11 -2.71 0.96 -2.69 0.81 -2.66 0.66 -2.64 0.51 -2.61 0.37 -2.58 0.23 -2.54 0.09 -2.51 -0.04 -2.47 -0.18 -2.43 -0.31 -2.39 -0.43 -2.34 -0.56 -2.3 -0.68 -2.25 -0.79 -2.2 -0.91 -2.15 -1.02 -2.09 -1.13 -2.04 -1.23 -1.98 -1.33 -1.92 -1.43 -1.86 -1.52 -1.8 -1.62 -1.74 -1.7 -1.67 -1.79 -1.61 -1.87 -1.54 -1.95 -1.47 -2.03 -1.4 -2.1 -1.33 -2.17 -1.26 -2.24 -1.19 -2.3 2.88 -1.38 1.13 2.21 1.2 2.14 1.27 2.07 1.34 2.01 1.4 1.93 1.47 1.86 1.53 1.78 1.59 1.7 1.64 1.61 1.7 1.53 1.75 1.44 1.81 1.34 1.86 1.25 1.91 1.15 1.96 1.05 2 0.95 2.05 0.85 2.09 0.74 2.13 0.63 2.18 0.52 2.22 0.4 2.26 0.28 2.29 0.16 2.33 0.04 2.37 -0.09 2.4 -0.21 2.44 -0.35 2.47 -0.48 2.5 -0.62 2.53 -0.76 2.56 -0.91 2.59 -1.06 0 0 1.25 2.81zm0 0l-1.25 -2.81c0.81,-0.35 1.74,-0.01 2.09,0.77 0.34,0.77 -0.03,1.69 -0.84,2.04zm22.7 -60.09l0 -0 0.61 1.61 0.58 1.68 0.53 1.74 0.49 1.8 0.43 1.86 0.38 1.91 0.32 1.95 0.25 1.99 0.18 2.02 0.11 2.05 0.03 2.08 -0.06 2.1 -0.15 2.11 -0.24 2.12 -0.34 2.12 -0.45 2.12 -0.56 2.11 -0.67 2.1 -0.8 2.08 -0.92 2.05 -1.05 2.02 -1.18 1.99 -1.32 1.94 -1.47 1.89 -1.61 1.84 -1.77 1.78 -1.92 1.71 -2.08 1.64 -2.24 1.56 -2.41 1.47 -2.58 1.38 -2.75 1.28 -1.25 -2.81 2.59 -1.21 2.42 -1.29 2.25 -1.37 2.08 -1.44 1.93 -1.51 1.77 -1.58 1.63 -1.64 1.48 -1.69 1.35 -1.74 1.22 -1.78 1.09 -1.82 0.96 -1.86 0.85 -1.89 0.73 -1.92 0.62 -1.94 0.52 -1.96 0.42 -1.97 0.32 -1.98 0.23 -1.98 0.14 -1.98 0.06 -1.97 -0.02 -1.96 -0.1 -1.94 -0.17 -1.91 -0.24 -1.88 -0.3 -1.85 -0.36 -1.81 -0.41 -1.76 -0.46 -1.71 -0.5 -1.65 -0.54 -1.58 -0.58 -1.51 0 -0 2.97 -1.17zm0 -0l-2.97 1.17c-0.32,-0.79 0.09,-1.69 0.91,-2.01 0.82,-0.32 1.74,0.05 2.06,0.84zm-7.61 -12.63l0.32 0.39 0.31 0.39 0.3 0.39 0.3 0.39 0.3 0.39 0.29 0.39 0.29 0.39 0.28 0.39 0.28 0.4 0.27 0.4 0.27 0.4 0.26 0.4 0.26 0.4 0.25 0.4 0.25 0.4 0.24 0.4 0.24 0.4 0.23 0.4 0.22 0.4 0.22 0.4 0.22 0.4 0.21 0.4 0.21 0.4 0.2 0.4 0.19 0.39 0.19 0.4 0.18 0.4 0.18 0.39 0.17 0.39 0.17 0.39 0.16 0.39 0.16 0.39 -2.97 1.17 -0.15 -0.36 -0.15 -0.36 -0.16 -0.37 -0.16 -0.37 -0.17 -0.37 -0.17 -0.37 -0.18 -0.37 -0.18 -0.37 -0.19 -0.37 -0.19 -0.37 -0.2 -0.37 -0.2 -0.37 -0.21 -0.37 -0.21 -0.37 -0.22 -0.37 -0.22 -0.37 -0.23 -0.37 -0.23 -0.37 -0.24 -0.37 -0.24 -0.37 -0.25 -0.37 -0.25 -0.37 -0.25 -0.37 -0.26 -0.37 -0.26 -0.37 -0.27 -0.37 -0.27 -0.37 -0.28 -0.37 -0.28 -0.37 -0.29 -0.37 -0.29 -0.36 -0.3 -0.36 2.5 -1.96zm0 0l-2.5 1.96c-0.54,-0.66 -0.42,-1.63 0.27,-2.17 0.69,-0.54 1.69,-0.45 2.23,0.21z"/>
   </g>
   <g>
    <path class="fil0" d="M145.32 71.6l1.85 2.46c-0.71,0.51 -1.71,0.37 -2.22,-0.31 -0.51,-0.68 -0.35,-1.65 0.37,-2.16zm17.36 7.89l0 -0 -0.12 -0.52 -0.17 -0.5 -0.21 -0.49 -0.25 -0.47 -0.29 -0.46 -0.33 -0.44 -0.37 -0.42 -0.4 -0.41 -0.44 -0.39 -0.47 -0.37 -0.5 -0.34 -0.52 -0.32 -0.55 -0.3 -0.57 -0.27 -0.59 -0.24 -0.6 -0.22 -0.61 -0.19 -0.62 -0.16 -0.63 -0.13 -0.63 -0.1 -0.63 -0.07 -0.63 -0.04 -0.62 -0 -0.61 0.03 -0.59 0.06 -0.58 0.09 -0.56 0.13 -0.54 0.16 -0.51 0.19 -0.49 0.22 -0.46 0.25 -0.43 0.28 -1.85 -2.46 0.65 -0.43 0.68 -0.37 0.71 -0.32 0.73 -0.27 0.75 -0.22 0.76 -0.17 0.77 -0.13 0.78 -0.08 0.79 -0.04 0.79 0 0.79 0.04 0.79 0.08 0.79 0.12 0.78 0.16 0.77 0.2 0.76 0.23 0.75 0.27 0.73 0.3 0.71 0.34 0.69 0.37 0.67 0.41 0.64 0.44 0.61 0.48 0.58 0.51 0.54 0.55 0.5 0.58 0.46 0.62 0.41 0.65 0.36 0.69 0.31 0.72 0.24 0.75 0.18 0.78 0 -0 -3.13 0.61zm0 -0l3.13 -0.61c0.15,0.83 -0.42,1.65 -1.29,1.82 -0.86,0.17 -1.69,-0.37 -1.85,-1.2zm-10.83 10.46l0.52 0.05 0.52 0.02 0.53 -0.01 0.53 -0.04 0.53 -0.08 0.53 -0.11 0.52 -0.14 0.52 -0.17 0.51 -0.2 0.51 -0.22 0.5 -0.25 0.48 -0.27 0.47 -0.3 0.45 -0.32 0.44 -0.35 0.42 -0.37 0.4 -0.38 0.37 -0.4 0.35 -0.42 0.32 -0.44 0.3 -0.45 0.27 -0.46 0.24 -0.47 0.21 -0.49 0.18 -0.5 0.14 -0.51 0.11 -0.51 0.07 -0.52 0.04 -0.53 -0 -0.54 -0.04 -0.54 -0.08 -0.55 3.13 -0.61 0.11 0.76 0.06 0.76 0 0.75 -0.05 0.74 -0.1 0.73 -0.15 0.72 -0.2 0.7 -0.24 0.68 -0.28 0.66 -0.32 0.65 -0.36 0.62 -0.4 0.6 -0.43 0.58 -0.46 0.55 -0.49 0.53 -0.52 0.5 -0.54 0.47 -0.57 0.45 -0.59 0.42 -0.61 0.39 -0.63 0.36 -0.65 0.33 -0.66 0.29 -0.68 0.26 -0.69 0.22 -0.7 0.18 -0.71 0.14 -0.72 0.1 -0.73 0.06 -0.73 0.02 -0.73 -0.03 -0.73 -0.08 0.52 -3.05zm0 0l-0.52 3.05c-0.87,-0.12 -1.45,-0.9 -1.31,-1.74 0.14,-0.84 0.96,-1.43 1.83,-1.31z"/>
   </g>
   <g>
    <path class="fil0" d="M58.08 101.73l-0.41 -3.05c0.87,-0.13 1.67,0.45 1.78,1.29 0.11,0.84 -0.5,1.63 -1.38,1.75zm-9.65 12.32l0 0 -0.23 -0.7 -0.17 -0.7 -0.11 -0.7 -0.06 -0.7 -0.01 -0.69 0.04 -0.68 0.09 -0.67 0.13 -0.66 0.17 -0.65 0.21 -0.63 0.24 -0.62 0.27 -0.6 0.3 -0.58 0.33 -0.57 0.35 -0.55 0.37 -0.53 0.39 -0.51 0.41 -0.49 0.42 -0.46 0.43 -0.44 0.44 -0.42 0.45 -0.39 0.46 -0.37 0.47 -0.34 0.47 -0.32 0.48 -0.29 0.48 -0.26 0.48 -0.23 0.48 -0.2 0.48 -0.17 0.49 -0.13 0.49 -0.09 0.41 3.05 -0.22 0.04 -0.25 0.07 -0.28 0.1 -0.3 0.13 -0.32 0.16 -0.34 0.19 -0.35 0.21 -0.36 0.24 -0.36 0.26 -0.36 0.29 -0.36 0.31 -0.35 0.33 -0.35 0.35 -0.33 0.37 -0.32 0.39 -0.31 0.4 -0.29 0.41 -0.27 0.43 -0.25 0.44 -0.23 0.45 -0.21 0.45 -0.18 0.46 -0.15 0.46 -0.12 0.47 -0.09 0.47 -0.06 0.47 -0.03 0.48 0 0.48 0.04 0.48 0.08 0.48 0.12 0.48 0.16 0.49 0 0 -3 1.1zm0 0l3 -1.1c0.29,0.79 -0.14,1.69 -0.96,1.99 -0.83,0.3 -1.74,-0.09 -2.03,-0.89zm17.83 3.56l-0.53 0.37 -0.55 0.34 -0.57 0.3 -0.59 0.27 -0.6 0.24 -0.62 0.21 -0.63 0.17 -0.64 0.14 -0.64 0.11 -0.65 0.09 -0.65 0.06 -0.65 0.03 -0.65 -0 -0.65 -0.03 -0.65 -0.06 -0.64 -0.09 -0.64 -0.12 -0.63 -0.15 -0.62 -0.18 -0.6 -0.21 -0.59 -0.24 -0.57 -0.27 -0.56 -0.3 -0.53 -0.34 -0.51 -0.37 -0.48 -0.4 -0.45 -0.44 -0.42 -0.47 -0.38 -0.51 -0.35 -0.54 -0.3 -0.57 -0.25 -0.6 3 -1.1 0.16 0.37 0.18 0.35 0.21 0.33 0.24 0.31 0.27 0.3 0.29 0.28 0.32 0.27 0.35 0.25 0.37 0.23 0.39 0.21 0.41 0.2 0.43 0.17 0.45 0.15 0.46 0.13 0.48 0.11 0.49 0.09 0.5 0.07 0.5 0.05 0.51 0.03 0.51 0 0.51 -0.02 0.5 -0.04 0.5 -0.07 0.49 -0.09 0.48 -0.11 0.47 -0.13 0.46 -0.15 0.44 -0.17 0.42 -0.19 0.4 -0.21 0.38 -0.23 0.36 -0.25 1.91 2.42zm0 0l-1.91 -2.42c0.7,-0.53 1.7,-0.41 2.23,0.26 0.53,0.67 0.38,1.64 -0.32,2.16z"/>
   </g>
   <g>
    <path class="fil0" d="M116.45 82.47c-2.09,0.37 -3.59,3.32 -1.75,5.7 1.84,2.37 5.96,2.09 6.8,-1.2 0.74,-2.94 -2.33,-4.98 -5.05,-4.5z"/>
    <path id="_1" class="fil0" d="M113.44 89.14l0 -0 -0.22 -0.3 -0.2 -0.31 -0.17 -0.32 -0.15 -0.33 -0.13 -0.33 -0.1 -0.33 -0.08 -0.33 -0.06 -0.33 -0.04 -0.33 -0.01 -0.33 0.01 -0.33 0.03 -0.32 0.05 -0.32 0.07 -0.31 0.08 -0.3 0.1 -0.3 0.12 -0.29 0.13 -0.28 0.15 -0.27 0.16 -0.26 0.18 -0.25 0.19 -0.23 0.2 -0.22 0.22 -0.21 0.23 -0.2 0.25 -0.18 0.26 -0.17 0.27 -0.15 0.28 -0.13 0.29 -0.11 0.31 -0.09 0.31 -0.07 0.55 3.14 -0.08 0.02 -0.07 0.02 -0.08 0.03 -0.08 0.04 -0.08 0.04 -0.08 0.05 -0.08 0.06 -0.08 0.07 -0.08 0.07 -0.07 0.08 -0.07 0.09 -0.07 0.09 -0.06 0.1 -0.06 0.11 -0.05 0.11 -0.05 0.11 -0.04 0.11 -0.03 0.12 -0.03 0.12 -0.02 0.12 -0.01 0.12 -0 0.13 0.01 0.13 0.01 0.13 0.02 0.13 0.03 0.13 0.04 0.13 0.05 0.13 0.06 0.14 0.08 0.14 0.09 0.14 0.1 0.14 0 -0 -2.52 1.96zm0 -0l2.52 -1.96c0.54,0.7 0.41,1.7 -0.28,2.24 -0.7,0.54 -1.7,0.41 -2.24,-0.28zm9.6 -1.78l-0 0 -0.12 0.41 -0.15 0.4 -0.17 0.38 -0.2 0.36 -0.23 0.33 -0.25 0.31 -0.27 0.29 -0.29 0.26 -0.3 0.24 -0.32 0.21 -0.33 0.18 -0.33 0.16 -0.35 0.13 -0.35 0.11 -0.35 0.08 -0.36 0.06 -0.36 0.04 -0.36 0.01 -0.36 -0.01 -0.36 -0.03 -0.36 -0.05 -0.35 -0.08 -0.35 -0.1 -0.35 -0.12 -0.34 -0.14 -0.33 -0.17 -0.32 -0.19 -0.31 -0.21 -0.3 -0.24 -0.28 -0.26 -0.27 -0.28 -0.25 -0.3 2.52 -1.96 0.11 0.13 0.12 0.12 0.12 0.11 0.13 0.1 0.14 0.09 0.14 0.08 0.15 0.07 0.15 0.06 0.15 0.05 0.16 0.04 0.16 0.04 0.16 0.02 0.16 0.01 0.16 0 0.16 -0.01 0.16 -0.02 0.15 -0.02 0.15 -0.04 0.14 -0.04 0.13 -0.05 0.13 -0.06 0.12 -0.07 0.11 -0.08 0.11 -0.09 0.1 -0.09 0.1 -0.1 0.09 -0.11 0.08 -0.12 0.08 -0.14 0.07 -0.15 0.06 -0.17 0.06 -0.19 -0 0 3.09 0.78zm-0 0l-3.09 -0.78c0.22,-0.85 1.08,-1.37 1.94,-1.15 0.85,0.22 1.37,1.08 1.15,1.94zm-6.87 -6.46l-0 0 0.35 -0.05 0.35 -0.03 0.34 -0.01 0.34 0.01 0.34 0.02 0.34 0.04 0.33 0.06 0.33 0.08 0.32 0.09 0.32 0.11 0.31 0.13 0.3 0.14 0.29 0.15 0.29 0.17 0.28 0.19 0.27 0.2 0.26 0.22 0.24 0.23 0.23 0.25 0.22 0.27 0.2 0.28 0.18 0.3 0.16 0.32 0.14 0.33 0.12 0.34 0.09 0.35 0.06 0.36 0.03 0.37 0.01 0.38 -0.02 0.39 -0.05 0.38 -0.08 0.39 -3.09 -0.78 0.03 -0.16 0.02 -0.15 0.01 -0.14 -0 -0.13 -0.01 -0.13 -0.02 -0.12 -0.03 -0.12 -0.04 -0.11 -0.05 -0.11 -0.06 -0.11 -0.07 -0.11 -0.08 -0.11 -0.08 -0.1 -0.09 -0.1 -0.11 -0.1 -0.11 -0.1 -0.12 -0.09 -0.13 -0.09 -0.14 -0.08 -0.15 -0.08 -0.15 -0.07 -0.16 -0.06 -0.16 -0.06 -0.17 -0.05 -0.17 -0.04 -0.17 -0.03 -0.17 -0.02 -0.17 -0.01 -0.17 -0 -0.17 0.01 -0.17 0.01 -0.17 0.02 -0 0 -0.55 -3.14zm-0 0l0.56 3.14c-0.87,0.15 -1.69,-0.42 -1.85,-1.29 -0.15,-0.87 0.42,-1.7 1.29,-1.85z"/>
   </g>
   <g>
    <path class="fil0" d="M95.47 91.25c-0.04,-2.04 -2.83,-3.92 -5.57,-2.54 -2.73,1.38 -3.12,5.33 0.12,6.63 2.9,1.16 5.5,-1.44 5.45,-4.1z"/>
    <path id="_1_0" class="fil0" d="M89.18 87.29l0 -0 0.34 -0.16 0.35 -0.14 0.35 -0.11 0.35 -0.09 0.35 -0.07 0.35 -0.05 0.34 -0.02 0.34 -0 0.34 0.02 0.33 0.04 0.33 0.06 0.31 0.07 0.31 0.09 0.3 0.11 0.29 0.12 0.28 0.14 0.27 0.15 0.26 0.17 0.25 0.18 0.24 0.2 0.22 0.21 0.21 0.22 0.2 0.23 0.18 0.25 0.17 0.25 0.15 0.27 0.13 0.28 0.11 0.29 0.09 0.3 0.07 0.31 0.05 0.32 0.02 0.32 -3.19 0.06 -0 -0.06 -0.01 -0.06 -0.01 -0.06 -0.02 -0.07 -0.03 -0.07 -0.04 -0.08 -0.04 -0.08 -0.05 -0.08 -0.06 -0.08 -0.07 -0.08 -0.08 -0.08 -0.09 -0.08 -0.09 -0.08 -0.1 -0.07 -0.11 -0.07 -0.11 -0.06 -0.12 -0.06 -0.12 -0.05 -0.13 -0.05 -0.13 -0.04 -0.14 -0.03 -0.14 -0.02 -0.14 -0.02 -0.14 -0.01 -0.15 0 -0.15 0.01 -0.15 0.02 -0.16 0.03 -0.16 0.04 -0.16 0.05 -0.17 0.07 -0.17 0.08 0 -0 -1.44 -2.84zm0 -0l1.44 2.85c-0.79,0.4 -1.75,0.08 -2.14,-0.71 -0.4,-0.79 -0.08,-1.75 0.7,-2.14zm0.24 9.53l-0 -0 -0.39 -0.17 -0.37 -0.2 -0.35 -0.22 -0.33 -0.24 -0.3 -0.26 -0.28 -0.28 -0.25 -0.3 -0.22 -0.31 -0.2 -0.33 -0.17 -0.34 -0.14 -0.35 -0.11 -0.35 -0.08 -0.36 -0.06 -0.36 -0.03 -0.36 -0 -0.36 0.02 -0.36 0.05 -0.36 0.07 -0.35 0.09 -0.35 0.12 -0.34 0.14 -0.33 0.16 -0.32 0.18 -0.31 0.21 -0.3 0.23 -0.29 0.25 -0.28 0.27 -0.26 0.29 -0.25 0.31 -0.23 0.33 -0.21 0.34 -0.19 1.44 2.84 -0.15 0.09 -0.14 0.09 -0.13 0.1 -0.12 0.11 -0.12 0.11 -0.11 0.12 -0.09 0.12 -0.09 0.13 -0.08 0.13 -0.07 0.13 -0.06 0.14 -0.05 0.14 -0.04 0.14 -0.03 0.14 -0.02 0.14 -0.01 0.14 0 0.13 0.01 0.13 0.02 0.13 0.03 0.12 0.04 0.12 0.05 0.12 0.06 0.11 0.07 0.11 0.08 0.11 0.09 0.1 0.1 0.1 0.12 0.1 0.13 0.1 0.15 0.09 0.17 0.09 0.19 0.09 -0 -0 -1.19 2.96zm-0 -0l1.19 -2.96c0.82,0.33 1.21,1.26 0.88,2.07 -0.33,0.82 -1.26,1.21 -2.07,0.88zm7.64 -5.6l0 0 -0 0.35 -0.02 0.34 -0.05 0.34 -0.06 0.33 -0.08 0.33 -0.1 0.32 -0.12 0.32 -0.13 0.31 -0.15 0.3 -0.17 0.29 -0.18 0.28 -0.2 0.27 -0.21 0.26 -0.22 0.25 -0.24 0.24 -0.25 0.22 -0.27 0.21 -0.28 0.19 -0.29 0.18 -0.3 0.16 -0.32 0.14 -0.33 0.12 -0.34 0.1 -0.35 0.08 -0.36 0.05 -0.37 0.03 -0.37 0 -0.37 -0.02 -0.38 -0.05 -0.38 -0.08 -0.38 -0.11 -0.37 -0.13 1.19 -2.96 0.17 0.06 0.16 0.05 0.15 0.03 0.15 0.02 0.15 0.01 0.14 -0 0.14 -0.01 0.14 -0.02 0.13 -0.03 0.13 -0.04 0.13 -0.05 0.13 -0.06 0.13 -0.07 0.13 -0.08 0.12 -0.09 0.12 -0.09 0.12 -0.1 0.11 -0.11 0.11 -0.12 0.1 -0.12 0.09 -0.13 0.09 -0.14 0.08 -0.14 0.07 -0.15 0.07 -0.15 0.06 -0.15 0.05 -0.16 0.04 -0.15 0.03 -0.15 0.02 -0.15 0.01 -0.15 0 -0.15 0 0 3.19 -0.06zm0 0l-3.19 0.06c-0.02,-0.88 0.68,-1.61 1.56,-1.62 0.88,-0.02 1.61,0.68 1.62,1.56z"/>
   </g>
   <g>
    <path class="fil0" d="M130.28 99.15l-3.18 0.02c0.01,-0.85 0.74,-1.54 1.62,-1.55 0.88,-0 1.58,0.68 1.56,1.53zm-18.29 17.61l-0 0 1.07 -0.26 1.02 -0.3 0.97 -0.35 0.92 -0.39 0.88 -0.43 0.83 -0.46 0.79 -0.49 0.75 -0.52 0.71 -0.55 0.67 -0.58 0.63 -0.6 0.59 -0.62 0.56 -0.64 0.52 -0.65 0.49 -0.66 0.45 -0.67 0.42 -0.68 0.39 -0.68 0.36 -0.68 0.32 -0.68 0.3 -0.67 0.26 -0.66 0.24 -0.65 0.21 -0.64 0.18 -0.62 0.15 -0.59 0.13 -0.57 0.1 -0.54 0.08 -0.51 0.06 -0.47 0.04 -0.43 0.02 -0.38 3.18 -0.02 -0.02 0.51 -0.04 0.54 -0.07 0.58 -0.1 0.61 -0.12 0.63 -0.15 0.66 -0.18 0.69 -0.21 0.71 -0.24 0.73 -0.27 0.74 -0.3 0.76 -0.34 0.77 -0.37 0.78 -0.41 0.78 -0.44 0.78 -0.48 0.78 -0.52 0.78 -0.57 0.77 -0.61 0.76 -0.65 0.74 -0.7 0.72 -0.74 0.7 -0.79 0.68 -0.84 0.65 -0.89 0.62 -0.94 0.59 -0.99 0.54 -1.04 0.5 -1.09 0.46 -1.14 0.41 -1.19 0.36 -1.24 0.3 -0 0 -0.61 -3.01zm-0 0l0.62 3.01c-0.86,0.18 -1.7,-0.34 -1.87,-1.17 -0.17,-0.83 0.39,-1.65 1.25,-1.84zm-22.31 -9.73l0.21 0.33 0.24 0.37 0.27 0.4 0.3 0.42 0.33 0.44 0.36 0.46 0.39 0.47 0.42 0.48 0.45 0.49 0.48 0.5 0.51 0.5 0.55 0.49 0.58 0.49 0.61 0.48 0.64 0.47 0.67 0.45 0.7 0.43 0.73 0.41 0.77 0.38 0.8 0.36 0.83 0.32 0.86 0.29 0.9 0.25 0.93 0.21 0.97 0.17 1 0.12 1.04 0.07 1.08 0.02 1.12 -0.04 1.15 -0.1 1.19 -0.16 1.24 -0.23 0.61 3.01 -1.39 0.26 -1.36 0.19 -1.32 0.11 -1.28 0.04 -1.25 -0.02 -1.21 -0.08 -1.17 -0.14 -1.13 -0.2 -1.09 -0.25 -1.05 -0.3 -1.01 -0.34 -0.97 -0.38 -0.93 -0.41 -0.89 -0.45 -0.85 -0.47 -0.81 -0.5 -0.77 -0.52 -0.73 -0.53 -0.7 -0.55 -0.66 -0.56 -0.62 -0.56 -0.58 -0.56 -0.55 -0.56 -0.51 -0.55 -0.48 -0.55 -0.44 -0.53 -0.41 -0.52 -0.37 -0.5 -0.34 -0.47 -0.3 -0.45 -0.27 -0.42 -0.24 -0.39 2.75 -1.6zm0 0l-2.75 1.6c-0.44,-0.73 -0.18,-1.67 0.58,-2.12 0.76,-0.44 1.73,-0.21 2.17,0.51z"/>
   </g>
   <g>
    <path class="fil0" d="M70.23 94.99l0 -0 -0.46 0.19 -0.39 0.09 -0.38 0.06 -0.39 0.04 -0.41 0.02 -0.44 0.01 -0.47 0 -0.49 -0.01 -0.51 -0.01 -0.53 -0.02 -0.55 -0.03 -0.56 -0.03 -0.58 -0.04 -0.58 -0.04 -0.58 -0.05 -0.58 -0.05 -0.58 -0.05 -0.57 -0.05 -0.56 -0.05 -0.54 -0.05 -0.52 -0.05 -0.5 -0.05 -0.47 -0.05 -0.44 -0.05 -0.4 -0.04 -0.36 -0.04 -0.32 -0.04 -0.27 -0.03 -0.22 -0.03 -0.16 -0.02 -0.1 -0.01 -0.04 -0 0.47 -3.06 0.03 0 0.1 0.01 0.15 0.02 0.21 0.03 0.26 0.03 0.31 0.04 0.36 0.04 0.39 0.04 0.43 0.05 0.46 0.05 0.49 0.05 0.51 0.05 0.53 0.05 0.55 0.05 0.56 0.05 0.56 0.05 0.57 0.05 0.57 0.04 0.56 0.04 0.55 0.04 0.54 0.03 0.52 0.03 0.5 0.02 0.47 0.01 0.44 0.01 0.4 -0 0.36 -0.01 0.3 -0.01 0.24 -0.02 0.15 -0.02 0.03 -0.01 -0.15 0.06 0 -0 1.49 2.69zm0 -0l-1.5 -2.68c0.78,-0.42 1.74,-0.15 2.15,0.59 0.41,0.74 0.12,1.68 -0.65,2.1zm0.09 -16.7l0.01 -0 0.41 -0.24 0.15 -0.18 0 0 -0.04 0.16 -0.05 0.28 -0.04 0.37 -0.03 0.45 -0.01 0.51 0 0.57 0.01 0.61 0.03 0.65 0.04 0.68 0.04 0.71 0.05 0.73 0.06 0.74 0.06 0.75 0.06 0.75 0.06 0.75 0.06 0.74 0.06 0.73 0.05 0.71 0.05 0.69 0.04 0.66 0.03 0.63 0.02 0.59 0 0.55 -0.01 0.52 -0.04 0.49 -0.07 0.46 -0.12 0.48 -0.28 0.56 -0.69 0.63 -1.49 -2.69 -0.46 0.41 -0.09 0.18 0.01 -0.05 0.03 -0.21 0.02 -0.31 0.01 -0.4 -0 -0.47 -0.02 -0.53 -0.03 -0.58 -0.04 -0.62 -0.05 -0.66 -0.05 -0.69 -0.06 -0.72 -0.06 -0.74 -0.06 -0.75 -0.06 -0.76 -0.06 -0.76 -0.06 -0.76 -0.05 -0.75 -0.05 -0.74 -0.04 -0.72 -0.03 -0.7 -0.01 -0.67 0 -0.64 0.02 -0.61 0.04 -0.57 0.06 -0.54 0.09 -0.52 0.15 -0.51 0.24 -0.52 0.44 -0.55 0.75 -0.46 0.01 -0 1 2.9zm0.01 -0l-1.01 -2.9c0.83,-0.29 1.74,0.13 2.02,0.93 0.28,0.8 -0.17,1.68 -1,1.97zm13.81 5.83l0 0 -0.7 0.18 -0.53 -0.01 -0.44 -0.08 -0.41 -0.12 -0.41 -0.14 -0.42 -0.17 -0.44 -0.2 -0.46 -0.22 -0.48 -0.24 -0.5 -0.26 -0.52 -0.27 -0.53 -0.28 -0.54 -0.29 -0.55 -0.3 -0.56 -0.3 -0.56 -0.31 -0.56 -0.3 -0.56 -0.3 -0.55 -0.29 -0.54 -0.28 -0.52 -0.27 -0.51 -0.25 -0.49 -0.23 -0.46 -0.21 -0.43 -0.19 -0.39 -0.16 -0.34 -0.12 -0.29 -0.09 -0.22 -0.05 -0.12 -0.02 0.01 -0 0.19 -0.04 -1 -2.9 0.61 -0.12 0.53 0 0.48 0.07 0.46 0.11 0.46 0.14 0.47 0.17 0.48 0.19 0.5 0.22 0.51 0.24 0.53 0.26 0.54 0.27 0.55 0.28 0.56 0.29 0.56 0.3 0.57 0.31 0.57 0.31 0.56 0.31 0.55 0.3 0.54 0.3 0.53 0.29 0.51 0.27 0.49 0.26 0.47 0.24 0.44 0.22 0.4 0.19 0.36 0.16 0.31 0.13 0.25 0.09 0.17 0.05 0.06 0.01 -0.12 0 -0.4 0.11 0 0 1.3 2.78zm0 0l-1.3 -2.78c0.8,-0.36 1.74,-0.04 2.1,0.73 0.36,0.77 0,1.69 -0.8,2.05zm4.69 -12.69l-0 0 0.75 0.26 0.65 -0.13 0.23 -0.15 0.01 -0.01 -0.08 0.11 -0.13 0.2 -0.16 0.28 -0.18 0.34 -0.19 0.39 -0.2 0.44 -0.21 0.48 -0.22 0.51 -0.22 0.54 -0.23 0.56 -0.23 0.58 -0.23 0.59 -0.23 0.59 -0.24 0.6 -0.24 0.59 -0.23 0.58 -0.23 0.57 -0.23 0.56 -0.23 0.53 -0.22 0.51 -0.22 0.48 -0.22 0.45 -0.21 0.42 -0.21 0.39 -0.22 0.36 -0.25 0.34 -0.33 0.35 -0.55 0.36 -1.3 -2.78 -0.28 0.17 -0.03 0.03 0.07 -0.1 0.12 -0.2 0.15 -0.27 0.17 -0.34 0.19 -0.39 0.2 -0.44 0.21 -0.48 0.21 -0.51 0.22 -0.54 0.23 -0.56 0.23 -0.58 0.23 -0.59 0.23 -0.59 0.24 -0.6 0.24 -0.59 0.24 -0.59 0.24 -0.58 0.23 -0.56 0.23 -0.54 0.23 -0.52 0.22 -0.49 0.22 -0.46 0.22 -0.43 0.22 -0.4 0.23 -0.37 0.26 -0.35 0.33 -0.35 0.52 -0.36 0.92 -0.2 0.99 0.34 -0 0 -1.95 2.48zm-0 0l1.95 -2.48c0.7,0.5 0.82,1.47 0.28,2.15 -0.54,0.68 -1.54,0.83 -2.23,0.33zm6.67 11.71l0 -0 -0.8 0.06 -0.67 -0.2 -0.47 -0.3 -0.34 -0.33 -0.28 -0.34 -0.24 -0.36 -0.22 -0.38 -0.21 -0.41 -0.2 -0.43 -0.2 -0.45 -0.19 -0.47 -0.19 -0.49 -0.19 -0.51 -0.19 -0.52 -0.19 -0.53 -0.18 -0.53 -0.18 -0.54 -0.18 -0.53 -0.17 -0.53 -0.17 -0.52 -0.17 -0.5 -0.16 -0.48 -0.16 -0.46 -0.15 -0.43 -0.15 -0.4 -0.14 -0.36 -0.13 -0.32 -0.12 -0.26 -0.1 -0.2 -0.07 -0.12 -0 -0.01 0.14 0.13 1.95 -2.48 0.38 0.35 0.24 0.33 0.19 0.32 0.17 0.34 0.16 0.36 0.16 0.39 0.16 0.41 0.16 0.44 0.16 0.46 0.17 0.48 0.17 0.5 0.17 0.51 0.17 0.52 0.17 0.53 0.18 0.53 0.18 0.52 0.18 0.52 0.18 0.51 0.18 0.49 0.18 0.47 0.17 0.45 0.17 0.42 0.17 0.39 0.16 0.34 0.15 0.3 0.14 0.24 0.12 0.17 0.07 0.1 0 0.01 -0.13 -0.08 -0.34 -0.09 -0.47 0.04 0 -0 0.81 2.96zm0 -0l-0.81 -2.96c0.85,-0.24 1.72,0.24 1.94,1.05 0.22,0.82 -0.28,1.67 -1.13,1.91zm7.26 -15.11l0 -0 0.16 -0.12 -0.02 0.03 -0.1 0.14 -0.14 0.24 -0.16 0.32 -0.18 0.38 -0.2 0.44 -0.2 0.49 -0.21 0.53 -0.22 0.56 -0.23 0.59 -0.23 0.62 -0.24 0.64 -0.24 0.65 -0.24 0.66 -0.24 0.67 -0.24 0.67 -0.24 0.66 -0.24 0.66 -0.24 0.64 -0.24 0.62 -0.24 0.6 -0.24 0.58 -0.24 0.55 -0.24 0.52 -0.24 0.48 -0.24 0.45 -0.25 0.42 -0.27 0.39 -0.31 0.37 -0.43 0.36 -0.66 0.31 -0.81 -2.96 -0.33 0.15 -0.07 0.06 0.06 -0.07 0.12 -0.18 0.16 -0.27 0.18 -0.34 0.2 -0.4 0.21 -0.45 0.22 -0.5 0.22 -0.54 0.23 -0.57 0.23 -0.6 0.24 -0.62 0.24 -0.64 0.24 -0.65 0.24 -0.66 0.24 -0.67 0.24 -0.66 0.24 -0.66 0.24 -0.65 0.24 -0.63 0.24 -0.61 0.23 -0.59 0.23 -0.56 0.23 -0.53 0.22 -0.5 0.22 -0.46 0.22 -0.43 0.23 -0.4 0.26 -0.37 0.31 -0.36 0.47 -0.37 0 -0 1.63 2.61zm0 -0l-1.63 -2.61c0.75,-0.45 1.73,-0.24 2.18,0.48 0.45,0.72 0.2,1.67 -0.55,2.12zm16.07 8.71l-0 0 -0.76 0.48 -0.76 0.15 -0.64 -0.04 -0.57 -0.13 -0.54 -0.19 -0.54 -0.24 -0.55 -0.28 -0.57 -0.32 -0.59 -0.35 -0.61 -0.38 -0.62 -0.41 -0.64 -0.43 -0.65 -0.45 -0.66 -0.47 -0.66 -0.48 -0.67 -0.48 -0.66 -0.48 -0.66 -0.48 -0.65 -0.47 -0.63 -0.46 -0.61 -0.44 -0.59 -0.41 -0.56 -0.38 -0.53 -0.35 -0.48 -0.31 -0.44 -0.26 -0.38 -0.21 -0.31 -0.15 -0.21 -0.08 -0.06 -0.02 0.19 0 0.52 -0.17 -1.63 -2.61 0.88 -0.28 0.67 0.03 0.53 0.14 0.49 0.19 0.48 0.23 0.5 0.28 0.52 0.31 0.54 0.35 0.57 0.38 0.59 0.41 0.61 0.43 0.63 0.45 0.64 0.46 0.65 0.47 0.66 0.48 0.66 0.48 0.66 0.48 0.65 0.47 0.64 0.45 0.62 0.43 0.61 0.41 0.58 0.38 0.55 0.35 0.52 0.31 0.47 0.27 0.42 0.21 0.36 0.16 0.27 0.1 0.15 0.04 -0.02 0 -0.25 0.06 -0.37 0.24 -0 0 2.22 2.15zm-0 0l-2.22 -2.16c0.63,-0.61 1.64,-0.62 2.25,-0.02 0.61,0.6 0.6,1.57 -0.03,2.18zm1.87 -12.89l0 -0 -0.01 0.02 -0.04 0.1 -0.05 0.17 -0.05 0.23 -0.05 0.28 -0.04 0.32 -0.04 0.35 -0.03 0.38 -0.02 0.41 -0.02 0.44 -0.01 0.45 -0.01 0.47 -0.01 0.48 -0.01 0.5 -0.01 0.5 -0 0.51 -0.01 0.51 -0.01 0.51 -0.01 0.51 -0.02 0.5 -0.02 0.5 -0.03 0.49 -0.04 0.48 -0.05 0.46 -0.06 0.45 -0.08 0.44 -0.1 0.43 -0.12 0.42 -0.15 0.41 -0.19 0.4 -0.25 0.4 -0.33 0.38 -2.22 -2.15 -0.02 0.03 0.02 -0.04 0.05 -0.11 0.06 -0.17 0.06 -0.23 0.06 -0.28 0.06 -0.32 0.05 -0.35 0.04 -0.38 0.03 -0.41 0.03 -0.43 0.02 -0.45 0.02 -0.47 0.01 -0.48 0.01 -0.49 0.01 -0.5 0 -0.5 0.01 -0.5 0.01 -0.5 0.01 -0.5 0.01 -0.49 0.02 -0.49 0.02 -0.47 0.03 -0.46 0.04 -0.45 0.05 -0.44 0.06 -0.42 0.07 -0.41 0.09 -0.4 0.12 -0.39 0.16 -0.39 0.22 -0.39 0 -0 2.69 1.59zm0 -0l-2.69 -1.59c0.47,-0.73 1.45,-0.96 2.2,-0.53 0.74,0.44 0.96,1.39 0.49,2.11zm16.8 9.58l-0 0 -0.86 0.4 -0.75 0.05 -0.61 -0.1 -0.56 -0.17 -0.55 -0.23 -0.56 -0.27 -0.59 -0.32 -0.61 -0.36 -0.64 -0.39 -0.67 -0.42 -0.69 -0.45 -0.7 -0.47 -0.72 -0.49 -0.73 -0.5 -0.73 -0.51 -0.73 -0.51 -0.73 -0.51 -0.72 -0.5 -0.71 -0.48 -0.69 -0.46 -0.67 -0.44 -0.64 -0.41 -0.6 -0.37 -0.56 -0.33 -0.51 -0.28 -0.45 -0.22 -0.37 -0.16 -0.27 -0.1 -0.12 -0.03 0.1 -0 0.39 -0.13 0.43 -0.4 -2.69 -1.59 0.75 -0.69 0.85 -0.26 0.69 0.02 0.59 0.13 0.55 0.19 0.56 0.24 0.57 0.29 0.6 0.33 0.63 0.37 0.65 0.4 0.67 0.43 0.69 0.46 0.71 0.48 0.72 0.49 0.73 0.5 0.73 0.51 0.73 0.51 0.73 0.5 0.72 0.49 0.7 0.48 0.68 0.46 0.65 0.43 0.62 0.4 0.59 0.36 0.54 0.31 0.49 0.26 0.42 0.21 0.34 0.14 0.23 0.07 0.05 0.01 -0.21 0.02 -0.46 0.22 -0 0 1.97 2.38zm-0 0l-1.97 -2.38c0.69,-0.54 1.69,-0.45 2.23,0.21 0.54,0.66 0.42,1.63 -0.27,2.17zm4.48 -9.87l0.17 1.37 -0.01 0.02 -0.02 0.06 -0.03 0.09 -0.05 0.12 -0.06 0.15 -0.07 0.18 -0.08 0.21 -0.09 0.23 -0.1 0.25 -0.11 0.27 -0.12 0.29 -0.13 0.3 -0.13 0.31 -0.14 0.32 -0.15 0.33 -0.15 0.34 -0.16 0.35 -0.17 0.35 -0.17 0.35 -0.18 0.35 -0.18 0.35 -0.18 0.35 -0.19 0.34 -0.19 0.33 -0.2 0.32 -0.2 0.31 -0.2 0.3 -0.21 0.29 -0.22 0.28 -0.23 0.26 -0.25 0.25 -0.28 0.24 -1.97 -2.38 0.06 -0.05 0.09 -0.09 0.12 -0.13 0.13 -0.16 0.14 -0.19 0.15 -0.22 0.16 -0.24 0.16 -0.26 0.16 -0.28 0.16 -0.29 0.16 -0.3 0.16 -0.31 0.16 -0.32 0.16 -0.32 0.15 -0.32 0.15 -0.32 0.14 -0.32 0.14 -0.31 0.13 -0.31 0.13 -0.3 0.12 -0.28 0.11 -0.27 0.1 -0.26 0.1 -0.24 0.09 -0.21 0.07 -0.19 0.07 -0.17 0.06 -0.14 0.04 -0.11 0.03 -0.08 0.02 -0.05 0.01 -0.01 0.17 1.37 2.65 -1.77zm0.17 1.37l-3 -0.97c0.3,-0.81 1.21,-1.24 2.04,-0.97 0.83,0.27 1.26,1.14 0.96,1.95zm-24.52 -28.38l0 -0 1.08 -0.05 0.84 0.26 0.73 0.4 0.72 0.51 0.75 0.61 0.78 0.71 0.82 0.81 0.86 0.9 0.9 0.97 0.93 1.04 0.95 1.11 0.97 1.16 0.98 1.2 0.99 1.23 0.99 1.25 0.99 1.27 0.98 1.27 0.96 1.26 0.94 1.24 0.91 1.21 0.87 1.17 0.83 1.13 0.78 1.07 0.73 1 0.66 0.92 0.6 0.83 0.52 0.73 0.44 0.62 0.36 0.5 0.26 0.37 0.16 0.23 0.06 0.08 -2.65 1.77 -0.05 -0.08 -0.16 -0.23 -0.26 -0.37 -0.35 -0.5 -0.44 -0.61 -0.52 -0.72 -0.59 -0.82 -0.66 -0.91 -0.72 -0.99 -0.78 -1.06 -0.82 -1.12 -0.86 -1.17 -0.9 -1.2 -0.93 -1.23 -0.95 -1.25 -0.97 -1.25 -0.98 -1.25 -0.98 -1.24 -0.98 -1.21 -0.97 -1.18 -0.95 -1.13 -0.92 -1.07 -0.89 -1.01 -0.86 -0.93 -0.81 -0.84 -0.75 -0.74 -0.68 -0.62 -0.6 -0.49 -0.49 -0.35 -0.33 -0.19 -0.07 -0.03 0.34 -0.03 0 -0 -0.82 -2.96zm0 -0l0.81 2.96c-0.85,0.24 -1.72,-0.24 -1.94,-1.05 -0.22,-0.82 0.28,-1.67 1.13,-1.91zm-14.05 10.97l0.01 -0 -0.26 0.05 0 -0.01 0.14 -0.08 0.22 -0.15 0.28 -0.2 0.33 -0.25 0.37 -0.3 0.41 -0.33 0.44 -0.37 0.46 -0.4 0.49 -0.42 0.51 -0.44 0.52 -0.46 0.54 -0.47 0.55 -0.49 0.56 -0.49 0.57 -0.5 0.57 -0.5 0.57 -0.49 0.57 -0.49 0.57 -0.48 0.56 -0.46 0.55 -0.45 0.54 -0.43 0.53 -0.4 0.52 -0.38 0.51 -0.35 0.49 -0.32 0.48 -0.29 0.47 -0.25 0.48 -0.21 0.49 -0.17 0.82 2.96 -0.15 0.05 -0.24 0.11 -0.31 0.16 -0.36 0.21 -0.4 0.26 -0.43 0.3 -0.46 0.34 -0.49 0.37 -0.51 0.4 -0.52 0.42 -0.54 0.44 -0.55 0.46 -0.55 0.47 -0.56 0.48 -0.56 0.49 -0.56 0.49 -0.56 0.49 -0.55 0.49 -0.54 0.48 -0.53 0.47 -0.51 0.45 -0.5 0.43 -0.48 0.41 -0.46 0.39 -0.44 0.36 -0.42 0.33 -0.39 0.3 -0.37 0.27 -0.36 0.24 -0.36 0.21 -0.42 0.18 -0.59 0.13 0.01 -0 -0.2 -3.07zm0.01 -0l0.19 3.07c-0.88,0.07 -1.63,-0.56 -1.68,-1.41 -0.05,-0.85 0.62,-1.59 1.5,-1.66zm-15.04 -11.09l0.01 -0 1.15 0.08 0.37 0.19 0.3 0.19 0.32 0.23 0.35 0.27 0.39 0.31 0.43 0.35 0.47 0.38 0.51 0.41 0.54 0.44 0.56 0.47 0.59 0.49 0.6 0.5 0.62 0.51 0.63 0.52 0.64 0.53 0.64 0.53 0.64 0.52 0.63 0.51 0.62 0.5 0.6 0.48 0.58 0.46 0.56 0.43 0.53 0.4 0.49 0.36 0.45 0.32 0.4 0.27 0.35 0.22 0.27 0.16 0.17 0.09 -0 0 -0.37 -0.02 0.2 3.07 -0.72 -0.07 -0.47 -0.17 -0.41 -0.2 -0.42 -0.24 -0.44 -0.28 -0.47 -0.32 -0.5 -0.36 -0.53 -0.39 -0.56 -0.42 -0.58 -0.45 -0.6 -0.47 -0.62 -0.49 -0.63 -0.51 -0.64 -0.52 -0.64 -0.53 -0.64 -0.53 -0.64 -0.53 -0.63 -0.53 -0.62 -0.52 -0.6 -0.5 -0.58 -0.49 -0.56 -0.46 -0.53 -0.44 -0.49 -0.41 -0.46 -0.37 -0.41 -0.33 -0.36 -0.28 -0.3 -0.23 -0.23 -0.17 -0.14 -0.09 0.06 0.02 0.97 0.04 0.01 -0 -0.84 -2.95zm0.01 -0l0.82 2.96c-0.85,0.24 -1.72,-0.23 -1.95,-1.05 -0.23,-0.82 0.28,-1.67 1.13,-1.91zm-4.49 15.57l-2.26 0.93 0.02 -0.05 0.04 -0.13 0.07 -0.21 0.09 -0.28 0.12 -0.35 0.14 -0.41 0.16 -0.47 0.17 -0.52 0.19 -0.56 0.2 -0.6 0.22 -0.64 0.23 -0.66 0.24 -0.69 0.24 -0.7 0.25 -0.72 0.25 -0.72 0.25 -0.72 0.25 -0.72 0.25 -0.71 0.25 -0.69 0.24 -0.67 0.24 -0.65 0.23 -0.61 0.22 -0.58 0.21 -0.54 0.2 -0.49 0.18 -0.44 0.17 -0.39 0.16 -0.34 0.16 -0.31 0.22 -0.34 0.91 -0.62 0.84 2.95 0.77 -0.5 0.04 -0.05 -0.07 0.13 -0.11 0.24 -0.14 0.33 -0.16 0.4 -0.18 0.46 -0.2 0.51 -0.21 0.56 -0.22 0.6 -0.23 0.63 -0.24 0.66 -0.25 0.68 -0.25 0.7 -0.25 0.71 -0.25 0.72 -0.25 0.72 -0.25 0.71 -0.24 0.7 -0.23 0.68 -0.23 0.66 -0.22 0.63 -0.2 0.6 -0.19 0.56 -0.17 0.51 -0.16 0.46 -0.14 0.41 -0.12 0.35 -0.09 0.28 -0.07 0.21 -0.04 0.13 -0.01 0.04 -2.26 0.93 1.5 -2.75zm-2.26 0.93l3.03 0.88c-0.27,0.81 -1.17,1.28 -2,1.04 -0.84,-0.24 -1.29,-1.1 -1.02,-1.92zm-19.19 -7l-0 0.01 0.67 -0.64 0.72 -0.31 0.67 -0.11 0.64 -0.01 0.65 0.06 0.67 0.11 0.7 0.15 0.74 0.19 0.77 0.22 0.8 0.25 0.83 0.28 0.85 0.3 0.87 0.32 0.88 0.34 0.89 0.35 0.89 0.36 0.88 0.37 0.87 0.37 0.85 0.37 0.83 0.37 0.8 0.36 0.76 0.35 0.72 0.33 0.67 0.31 0.61 0.29 0.55 0.26 0.49 0.23 0.41 0.2 0.33 0.16 0.24 0.12 0.15 0.07 0.06 0.03 -1.5 2.75 -0.05 -0.02 -0.15 -0.07 -0.24 -0.12 -0.32 -0.16 -0.4 -0.19 -0.48 -0.23 -0.54 -0.26 -0.6 -0.28 -0.66 -0.31 -0.71 -0.32 -0.75 -0.34 -0.78 -0.35 -0.81 -0.36 -0.83 -0.36 -0.85 -0.36 -0.86 -0.36 -0.86 -0.35 -0.86 -0.34 -0.85 -0.33 -0.83 -0.31 -0.81 -0.29 -0.77 -0.26 -0.74 -0.23 -0.69 -0.2 -0.63 -0.16 -0.56 -0.12 -0.48 -0.08 -0.37 -0.03 -0.24 0 -0.06 0.01 0.16 -0.08 0.29 -0.28 -0 0.01 -2.64 -1.67zm-0 0.01l2.64 1.65c-0.49,0.72 -1.48,0.93 -2.21,0.47 -0.73,-0.46 -0.93,-1.41 -0.44,-2.13zm3.75 14.98l0 -0 -0.37 0.43 -0.09 0.24 -0 0.02 -0.01 -0.14 -0.03 -0.24 -0.07 -0.32 -0.09 -0.38 -0.12 -0.44 -0.14 -0.48 -0.16 -0.52 -0.18 -0.55 -0.2 -0.58 -0.21 -0.6 -0.22 -0.62 -0.22 -0.63 -0.23 -0.65 -0.22 -0.65 -0.22 -0.65 -0.22 -0.65 -0.21 -0.65 -0.2 -0.64 -0.19 -0.63 -0.17 -0.62 -0.15 -0.6 -0.13 -0.58 -0.1 -0.57 -0.07 -0.55 -0.04 -0.53 0 -0.53 0.06 -0.53 0.15 -0.55 0.3 -0.57 2.64 1.67 0.05 -0.09 -0.01 0.03 -0.02 0.15 -0 0.25 0.02 0.33 0.05 0.39 0.08 0.45 0.11 0.49 0.13 0.53 0.15 0.56 0.17 0.58 0.19 0.6 0.2 0.62 0.21 0.63 0.22 0.64 0.22 0.64 0.22 0.64 0.22 0.64 0.22 0.63 0.21 0.61 0.2 0.6 0.19 0.58 0.18 0.56 0.16 0.54 0.14 0.51 0.12 0.49 0.09 0.46 0.06 0.45 0.02 0.46 -0.04 0.5 -0.2 0.61 -0.57 0.67 0 -0 -1.91 -2.42zm0 -0l1.9 2.43c-0.7,0.52 -1.7,0.41 -2.23,-0.26 -0.53,-0.67 -0.38,-1.64 0.32,-2.16zm-17.88 1.42l-0 0 0.52 -0.35 0.47 -0.2 0.46 -0.13 0.48 -0.1 0.51 -0.08 0.55 -0.07 0.59 -0.06 0.62 -0.05 0.66 -0.04 0.68 -0.03 0.71 -0.03 0.73 -0.02 0.75 -0.02 0.76 -0.01 0.77 -0.01 0.77 -0.01 0.77 -0.01 0.76 -0.01 0.75 -0.01 0.73 -0.01 0.71 -0.01 0.68 -0.01 0.65 -0.02 0.61 -0.02 0.56 -0.03 0.51 -0.03 0.45 -0.04 0.38 -0.04 0.29 -0.04 0.18 -0.04 0.03 -0.01 -0.22 0.13 1.91 2.42 -0.53 0.3 -0.44 0.14 -0.43 0.09 -0.45 0.07 -0.49 0.05 -0.52 0.04 -0.57 0.04 -0.6 0.03 -0.64 0.02 -0.67 0.02 -0.7 0.01 -0.72 0.01 -0.74 0.01 -0.75 0.01 -0.76 0.01 -0.77 0.01 -0.77 0.01 -0.76 0.01 -0.75 0.01 -0.73 0.02 -0.71 0.02 -0.68 0.03 -0.65 0.03 -0.61 0.04 -0.56 0.04 -0.51 0.05 -0.45 0.06 -0.38 0.06 -0.29 0.06 -0.18 0.05 -0.03 0.01 0.16 -0.11 -0 0 -2.12 -2.25zm-0 0l2.12 2.25c-0.65,0.58 -1.66,0.55 -2.25,-0.07 -0.59,-0.62 -0.53,-1.6 0.12,-2.18zm7.81 32.14l-1.05 -0.6 -0.3 -0.47 -0.26 -0.52 -0.26 -0.6 -0.28 -0.7 -0.29 -0.79 -0.3 -0.87 -0.31 -0.95 -0.32 -1.02 -0.33 -1.09 -0.34 -1.14 -0.34 -1.19 -0.34 -1.23 -0.34 -1.26 -0.34 -1.28 -0.33 -1.3 -0.33 -1.3 -0.32 -1.3 -0.3 -1.29 -0.29 -1.27 -0.27 -1.24 -0.25 -1.2 -0.23 -1.16 -0.21 -1.11 -0.18 -1.04 -0.15 -0.98 -0.12 -0.9 -0.09 -0.82 -0.05 -0.74 -0.01 -0.67 0.04 -0.62 0.15 -0.65 0.56 -0.84 2.12 2.25 0.33 -0.46 0.01 0.01 -0.02 0.29 0.01 0.47 0.04 0.61 0.08 0.73 0.11 0.83 0.14 0.92 0.17 1 0.2 1.07 0.23 1.13 0.25 1.18 0.27 1.22 0.28 1.25 0.3 1.27 0.31 1.28 0.32 1.28 0.33 1.28 0.33 1.27 0.34 1.24 0.34 1.21 0.33 1.17 0.33 1.12 0.32 1.06 0.31 0.99 0.3 0.91 0.28 0.82 0.27 0.73 0.24 0.61 0.21 0.48 0.17 0.33 0.07 0.12 -1.05 -0.6 -0.47 3.06zm-1.05 -0.6l2.58 -1.86c0.51,0.68 0.36,1.64 -0.36,2.16 -0.71,0.51 -1.71,0.38 -2.22,-0.29z"/>
   </g>
   <g>
    <path class="fil0" d="M94.45 138.01l-3.07 -0.75c0.23,-0.83 1.11,-1.33 1.96,-1.12 0.85,0.21 1.35,1.04 1.11,1.87zm-0.63 78.67l-0 -0 -0.83 -0.8 -0.56 -0.95 -0.47 -1.12 -0.42 -1.33 -0.39 -1.54 -0.37 -1.74 -0.35 -1.94 -0.33 -2.12 -0.31 -2.3 -0.29 -2.45 -0.26 -2.59 -0.24 -2.72 -0.21 -2.83 -0.19 -2.93 -0.16 -3.01 -0.13 -3.08 -0.1 -3.13 -0.07 -3.17 -0.03 -3.19 0 -3.19 0.04 -3.19 0.08 -3.16 0.12 -3.12 0.15 -3.06 0.2 -2.99 0.24 -2.91 0.28 -2.81 0.33 -2.69 0.38 -2.56 0.43 -2.42 0.48 -2.26 0.54 -2.09 3.07 0.75 -0.5 1.96 -0.46 2.15 -0.41 2.33 -0.37 2.48 -0.32 2.62 -0.28 2.75 -0.23 2.86 -0.19 2.95 -0.15 3.02 -0.11 3.08 -0.07 3.12 -0.04 3.15 -0 3.16 0.03 3.16 0.07 3.14 0.1 3.1 0.13 3.05 0.16 2.98 0.18 2.9 0.21 2.8 0.23 2.68 0.26 2.55 0.28 2.4 0.3 2.24 0.32 2.06 0.33 1.86 0.35 1.64 0.36 1.4 0.36 1.13 0.34 0.83 0.27 0.47 0.03 0.05 -0 -0 -1.78 2.59zm-0 -0l1.79 -2.59c0.73,0.46 0.91,1.42 0.42,2.13 -0.49,0.71 -1.48,0.92 -2.21,0.46zm93.88 -24.53l0 -0 -0.78 1.3 -1.14 0.98 -1.46 0.91 -1.8 0.92 -2.14 0.95 -2.45 0.98 -2.75 1.01 -3.02 1.03 -3.26 1.06 -3.47 1.07 -3.65 1.08 -3.81 1.08 -3.94 1.08 -4.03 1.07 -4.1 1.05 -4.13 1.03 -4.14 1 -4.12 0.97 -4.07 0.93 -3.99 0.88 -3.87 0.82 -3.73 0.76 -3.56 0.69 -3.37 0.62 -3.14 0.54 -2.88 0.45 -2.6 0.36 -2.29 0.26 -1.96 0.15 -1.63 0.04 -1.34 -0.1 -1.25 -0.43 1.78 -2.59 0.07 -0.01 0.87 0.06 1.4 -0.03 1.82 -0.14 2.2 -0.25 2.53 -0.35 2.83 -0.44 3.1 -0.53 3.33 -0.61 3.53 -0.69 3.71 -0.76 3.85 -0.82 3.96 -0.87 4.04 -0.92 4.1 -0.96 4.12 -1 4.11 -1.03 4.07 -1.05 4 -1.06 3.91 -1.07 3.78 -1.07 3.62 -1.07 3.43 -1.06 3.21 -1.04 2.96 -1.01 2.67 -0.98 2.36 -0.94 2 -0.89 1.61 -0.82 1.15 -0.72 0.63 -0.52 0.08 -0.07 0 -0 3.06 0.78zm0 -0l-3.06 -0.78c0.24,-0.82 1.12,-1.31 1.97,-1.1 0.84,0.22 1.33,1.06 1.09,1.88zm-44.99 -69.26l0.61 0.57 0.73 0.8 0.9 1.06 1.08 1.31 1.24 1.55 1.39 1.77 1.52 1.97 1.64 2.15 1.75 2.32 1.84 2.46 1.91 2.59 1.97 2.7 2.01 2.79 2.04 2.85 2.06 2.91 2.06 2.94 2.04 2.95 2.01 2.94 1.96 2.91 1.9 2.87 1.82 2.8 1.73 2.72 1.62 2.62 1.5 2.5 1.36 2.36 1.21 2.2 1.04 2.03 0.86 1.85 0.67 1.66 0.46 1.47 0.23 1.33 -0.12 1.32 -3.06 -0.78 0 -0.27 -0.14 -0.81 -0.37 -1.18 -0.6 -1.48 -0.81 -1.73 -1 -1.95 -1.17 -2.14 -1.33 -2.31 -1.47 -2.46 -1.6 -2.58 -1.71 -2.69 -1.8 -2.78 -1.88 -2.85 -1.95 -2.89 -1.99 -2.92 -2.03 -2.93 -2.04 -2.92 -2.05 -2.89 -2.03 -2.84 -2.01 -2.78 -1.96 -2.69 -1.9 -2.58 -1.83 -2.45 -1.74 -2.31 -1.63 -2.14 -1.51 -1.95 -1.37 -1.75 -1.22 -1.52 -1.05 -1.28 -0.86 -1 -0.64 -0.7 -0.34 -0.33 2.09 -2.37zm0 0l-2.09 2.37c-0.66,-0.54 -0.73,-1.51 -0.16,-2.17 0.58,-0.65 1.58,-0.75 2.24,-0.2z"/>
   </g>
   <g>
    <path class="fil0" d="M98.08 215.64l-3.18 0.09c-0,-0.85 0.71,-1.56 1.58,-1.58 0.88,-0.02 1.59,0.65 1.6,1.5zm-1.45 40.2l0 0 -0.62 -0.63 -0.37 -0.67 -0.26 -0.71 -0.2 -0.79 -0.17 -0.88 -0.14 -0.98 -0.12 -1.07 -0.1 -1.16 -0.08 -1.24 -0.06 -1.31 -0.05 -1.38 -0.03 -1.44 -0.02 -1.49 -0.01 -1.53 0 -1.57 0.01 -1.59 0.02 -1.61 0.03 -1.61 0.03 -1.61 0.04 -1.6 0.04 -1.58 0.04 -1.56 0.04 -1.52 0.04 -1.48 0.04 -1.42 0.04 -1.36 0.04 -1.29 0.03 -1.21 0.03 -1.12 0.02 -1.02 0.01 -0.91 0 -0.79 3.18 -0.09 -0 0.82 -0.01 0.93 -0.02 1.03 -0.03 1.13 -0.03 1.21 -0.04 1.29 -0.04 1.36 -0.04 1.42 -0.04 1.47 -0.04 1.52 -0.04 1.55 -0.04 1.58 -0.04 1.59 -0.03 1.6 -0.03 1.6 -0.02 1.59 -0.01 1.57 -0 1.55 0.01 1.51 0.02 1.46 0.03 1.41 0.05 1.34 0.06 1.27 0.08 1.19 0.09 1.09 0.11 0.98 0.12 0.86 0.14 0.73 0.15 0.57 0.14 0.39 0.08 0.15 -0.12 -0.11 0 0 -1.91 2.51zm0 0l1.9 -2.51c0.7,0.49 0.85,1.46 0.32,2.15 -0.53,0.69 -1.52,0.86 -2.23,0.36zm40.66 -3.28l-0 0 -0.7 0.66 -0.67 0.35 -0.72 0.26 -0.83 0.24 -0.94 0.22 -1.06 0.22 -1.17 0.21 -1.27 0.2 -1.36 0.2 -1.45 0.19 -1.52 0.18 -1.58 0.17 -1.63 0.17 -1.67 0.16 -1.69 0.15 -1.71 0.13 -1.71 0.12 -1.7 0.11 -1.68 0.09 -1.65 0.08 -1.61 0.06 -1.56 0.05 -1.49 0.03 -1.42 0.01 -1.33 -0.01 -1.24 -0.03 -1.13 -0.05 -1.02 -0.08 -0.91 -0.1 -0.8 -0.14 -0.72 -0.2 -0.72 -0.36 1.91 -2.51 -0.02 -0.02 0.32 0.09 0.56 0.1 0.75 0.09 0.91 0.07 1.05 0.05 1.17 0.03 1.28 0.01 1.37 -0.01 1.46 -0.03 1.53 -0.05 1.58 -0.06 1.63 -0.08 1.66 -0.09 1.68 -0.11 1.69 -0.12 1.68 -0.13 1.67 -0.14 1.64 -0.15 1.6 -0.16 1.55 -0.17 1.48 -0.18 1.41 -0.18 1.32 -0.19 1.22 -0.19 1.1 -0.2 0.97 -0.2 0.82 -0.19 0.65 -0.19 0.44 -0.16 0.16 -0.08 -0.22 0.24 -0 0 2.65 1.65zm-0 0l-2.65 -1.65c0.49,-0.72 1.48,-0.93 2.21,-0.47 0.73,0.46 0.93,1.41 0.44,2.13zm5.05 -22.29l0 -0 0.01 -0 -0.09 0.17 -0.13 0.3 -0.15 0.41 -0.16 0.5 -0.16 0.58 -0.17 0.65 -0.17 0.71 -0.17 0.76 -0.17 0.81 -0.17 0.85 -0.17 0.88 -0.17 0.91 -0.17 0.93 -0.17 0.94 -0.16 0.95 -0.16 0.95 -0.16 0.95 -0.16 0.94 -0.16 0.92 -0.16 0.9 -0.16 0.88 -0.16 0.84 -0.16 0.8 -0.16 0.76 -0.16 0.72 -0.16 0.66 -0.16 0.61 -0.16 0.55 -0.17 0.5 -0.2 0.46 -0.26 0.46 -2.65 -1.65 0.03 -0.05 0.09 -0.22 0.12 -0.34 0.13 -0.45 0.14 -0.53 0.14 -0.6 0.15 -0.67 0.15 -0.73 0.15 -0.78 0.15 -0.82 0.16 -0.86 0.16 -0.89 0.16 -0.92 0.16 -0.93 0.16 -0.95 0.16 -0.95 0.17 -0.96 0.17 -0.95 0.17 -0.94 0.17 -0.92 0.17 -0.9 0.17 -0.87 0.17 -0.84 0.18 -0.8 0.18 -0.76 0.18 -0.71 0.19 -0.66 0.19 -0.61 0.2 -0.56 0.22 -0.51 0.26 -0.48 0.36 -0.48 0 -0 2.33 2.04zm0 -0l-2.34 -2.04c0.6,-0.64 1.6,-0.7 2.25,-0.14 0.65,0.56 0.69,1.54 0.09,2.17zm12.96 -3.53l-0.01 -0 -0.04 -0.02 -0.12 -0.04 -0.2 -0.04 -0.26 -0.03 -0.32 -0.02 -0.37 0 -0.41 0.02 -0.45 0.04 -0.48 0.05 -0.5 0.07 -0.52 0.09 -0.54 0.1 -0.55 0.12 -0.56 0.13 -0.57 0.14 -0.57 0.15 -0.57 0.16 -0.57 0.17 -0.56 0.18 -0.55 0.19 -0.53 0.19 -0.51 0.2 -0.49 0.2 -0.46 0.2 -0.44 0.2 -0.4 0.19 -0.36 0.19 -0.32 0.18 -0.27 0.17 -0.22 0.15 -0.15 0.12 -0.08 0.08 -2.33 -2.04 0.33 -0.31 0.35 -0.28 0.37 -0.26 0.4 -0.25 0.43 -0.24 0.46 -0.24 0.48 -0.23 0.51 -0.23 0.53 -0.22 0.55 -0.22 0.57 -0.22 0.59 -0.21 0.6 -0.2 0.61 -0.2 0.62 -0.19 0.62 -0.18 0.62 -0.17 0.62 -0.16 0.62 -0.14 0.62 -0.13 0.61 -0.12 0.6 -0.1 0.59 -0.08 0.57 -0.07 0.56 -0.05 0.54 -0.02 0.53 -0 0.51 0.03 0.5 0.06 0.49 0.1 0.48 0.15 0.47 0.22 -0.01 -0 -1.63 2.68zm-0.01 -0l1.64 -2.68c0.75,0.42 1,1.36 0.54,2.1 -0.45,0.74 -1.43,1 -2.18,0.57zm15.1 16.82l-0 -0 -0.45 -0.29 -0.44 -0.33 -0.44 -0.38 -0.45 -0.42 -0.47 -0.47 -0.49 -0.51 -0.5 -0.55 -0.52 -0.58 -0.53 -0.61 -0.55 -0.64 -0.56 -0.66 -0.56 -0.68 -0.57 -0.7 -0.57 -0.71 -0.58 -0.71 -0.58 -0.71 -0.57 -0.71 -0.57 -0.71 -0.56 -0.69 -0.55 -0.68 -0.54 -0.66 -0.52 -0.63 -0.5 -0.6 -0.48 -0.57 -0.46 -0.53 -0.43 -0.49 -0.4 -0.44 -0.36 -0.38 -0.32 -0.32 -0.27 -0.25 -0.2 -0.16 -0.1 -0.06 1.63 -2.68 0.42 0.27 0.39 0.31 0.39 0.35 0.4 0.39 0.42 0.44 0.44 0.48 0.46 0.52 0.48 0.56 0.5 0.59 0.52 0.62 0.53 0.65 0.54 0.67 0.55 0.68 0.56 0.7 0.57 0.71 0.57 0.71 0.57 0.71 0.57 0.71 0.57 0.7 0.56 0.68 0.55 0.67 0.54 0.65 0.53 0.62 0.51 0.59 0.49 0.55 0.47 0.51 0.44 0.46 0.41 0.41 0.37 0.35 0.33 0.28 0.27 0.21 0.19 0.12 -0 -0 -1.65 2.67zm-0 -0l1.65 -2.67c0.75,0.42 0.99,1.37 0.54,2.1 -0.46,0.74 -1.43,0.99 -2.19,0.57zm38.79 -12.8l-0 0.01 -0.46 0.79 -0.57 0.58 -0.66 0.51 -0.77 0.5 -0.88 0.5 -0.99 0.51 -1.1 0.53 -1.19 0.54 -1.28 0.55 -1.36 0.56 -1.43 0.56 -1.49 0.56 -1.53 0.56 -1.57 0.56 -1.6 0.55 -1.62 0.54 -1.62 0.52 -1.62 0.5 -1.6 0.48 -1.57 0.45 -1.54 0.43 -1.49 0.39 -1.44 0.36 -1.37 0.32 -1.29 0.27 -1.21 0.23 -1.12 0.18 -1.02 0.12 -0.93 0.07 -0.84 -0 -0.8 -0.1 -0.83 -0.3 1.65 -2.67 -0.06 -0.03 0.29 0.03 0.54 0 0.72 -0.05 0.88 -0.11 1.01 -0.16 1.13 -0.21 1.23 -0.26 1.31 -0.31 1.39 -0.34 1.45 -0.38 1.5 -0.42 1.54 -0.44 1.57 -0.47 1.59 -0.49 1.59 -0.51 1.59 -0.53 1.57 -0.54 1.54 -0.54 1.5 -0.55 1.45 -0.55 1.39 -0.55 1.31 -0.54 1.23 -0.53 1.13 -0.51 1.02 -0.49 0.89 -0.46 0.75 -0.43 0.59 -0.38 0.4 -0.3 0.17 -0.17 -0.06 0.12 -0 0.01 3 0.95zm-0 0.01l-3 -0.96c0.29,-0.81 1.2,-1.25 2.03,-0.99 0.83,0.26 1.26,1.14 0.97,1.94zm-23.9 -38.37l0.51 0.46 0.55 0.57 0.61 0.69 0.68 0.8 0.75 0.92 0.81 1.03 0.86 1.12 0.91 1.21 0.95 1.29 0.99 1.36 1.01 1.42 1.04 1.47 1.05 1.51 1.06 1.55 1.06 1.57 1.05 1.58 1.04 1.58 1.01 1.57 0.99 1.55 0.95 1.52 0.91 1.49 0.86 1.44 0.8 1.38 0.74 1.32 0.67 1.25 0.59 1.16 0.51 1.08 0.42 0.99 0.33 0.9 0.23 0.83 0.11 0.81 -0.14 0.94 -3 -0.95 -0.04 0.16 -0.04 -0.27 -0.15 -0.53 -0.26 -0.72 -0.37 -0.86 -0.47 -0.99 -0.56 -1.1 -0.64 -1.19 -0.72 -1.28 -0.78 -1.35 -0.84 -1.41 -0.89 -1.46 -0.94 -1.5 -0.97 -1.53 -1 -1.55 -1.02 -1.56 -1.04 -1.56 -1.05 -1.55 -1.05 -1.53 -1.04 -1.5 -1.02 -1.46 -1 -1.41 -0.97 -1.34 -0.94 -1.27 -0.89 -1.19 -0.84 -1.1 -0.78 -1 -0.71 -0.88 -0.64 -0.75 -0.55 -0.61 -0.44 -0.45 -0.29 -0.26 2.06 -2.4zm0 0l-2.06 2.4c-0.67,-0.53 -0.75,-1.5 -0.19,-2.17 0.57,-0.66 1.57,-0.76 2.24,-0.23z"/>
   </g>
   <g>
    <path class="fil0" d="M117.07 254.92l-1.82 -0.25c0.08,-0.49 0.56,-0.83 1.06,-0.76 0.5,0.07 0.84,0.52 0.76,1.01zm-7.32 34.96l0 0 0.02 -0.35 0.05 -0.47 0.07 -0.61 0.1 -0.75 0.12 -0.89 0.15 -1.01 0.17 -1.12 0.18 -1.22 0.2 -1.31 0.22 -1.39 0.23 -1.45 0.24 -1.5 0.25 -1.55 0.25 -1.57 0.25 -1.59 0.26 -1.6 0.26 -1.59 0.26 -1.58 0.25 -1.55 0.25 -1.51 0.24 -1.45 0.23 -1.39 0.22 -1.31 0.2 -1.22 0.19 -1.12 0.17 -1.01 0.15 -0.89 0.12 -0.75 0.1 -0.61 0.07 -0.45 0.05 -0.28 0.01 -0.09 1.82 0.25 -0.02 0.09 -0.05 0.28 -0.07 0.45 -0.1 0.61 -0.12 0.75 -0.15 0.89 -0.17 1.01 -0.19 1.12 -0.2 1.22 -0.22 1.31 -0.23 1.39 -0.24 1.45 -0.25 1.51 -0.25 1.55 -0.26 1.58 -0.26 1.59 -0.26 1.6 -0.25 1.59 -0.25 1.57 -0.25 1.54 -0.24 1.5 -0.23 1.45 -0.21 1.38 -0.2 1.31 -0.18 1.22 -0.17 1.12 -0.14 1 -0.12 0.88 -0.1 0.74 -0.07 0.59 -0.04 0.41 -0.01 0.19 0 0 -1.84 0.06zm0 0l1.84 -0.06c0.01,0.49 -0.4,0.91 -0.91,0.92 -0.51,0.02 -0.93,-0.37 -0.93,-0.86zm-1.68 5.6l0 0 0.12 -0.08 0.11 -0.09 0.11 -0.1 0.11 -0.11 0.1 -0.12 0.1 -0.13 0.09 -0.14 0.09 -0.15 0.09 -0.16 0.08 -0.17 0.08 -0.17 0.07 -0.18 0.07 -0.19 0.06 -0.19 0.06 -0.2 0.05 -0.2 0.05 -0.21 0.04 -0.21 0.04 -0.21 0.03 -0.21 0.03 -0.21 0.03 -0.21 0.02 -0.21 0.02 -0.21 0.01 -0.21 0.01 -0.21 0.01 -0.2 0.01 -0.2 0 -0.19 0 -0.19 0 -0.18 -0 -0.18 1.84 -0.06 0 0.19 0 0.2 -0 0.21 -0 0.21 -0.01 0.22 -0.01 0.22 -0.01 0.23 -0.02 0.23 -0.02 0.24 -0.02 0.24 -0.03 0.24 -0.03 0.24 -0.04 0.25 -0.04 0.25 -0.05 0.25 -0.06 0.25 -0.06 0.25 -0.07 0.25 -0.08 0.24 -0.09 0.24 -0.1 0.24 -0.1 0.24 -0.11 0.23 -0.12 0.23 -0.13 0.22 -0.15 0.22 -0.16 0.21 -0.17 0.2 -0.19 0.19 -0.2 0.18 -0.22 0.17 -0.23 0.16 0 0 -0.99 -1.49zm0 0l0.99 1.49c-0.43,0.27 -1,0.16 -1.27,-0.25 -0.27,-0.41 -0.14,-0.96 0.29,-1.24zm-14.58 -8.42l0 -0 -0.01 0.2 0.04 0.23 0.1 0.28 0.17 0.32 0.24 0.35 0.31 0.37 0.38 0.39 0.44 0.4 0.49 0.41 0.54 0.41 0.58 0.41 0.62 0.4 0.65 0.4 0.67 0.39 0.69 0.38 0.7 0.36 0.71 0.35 0.71 0.33 0.71 0.31 0.7 0.29 0.69 0.27 0.67 0.25 0.64 0.22 0.61 0.19 0.57 0.16 0.52 0.13 0.47 0.1 0.4 0.06 0.33 0.03 0.23 -0 0.1 -0.01 -0.07 0.03 0.99 1.49 -0.47 0.2 -0.45 0.07 -0.45 0.01 -0.48 -0.04 -0.51 -0.08 -0.55 -0.12 -0.59 -0.15 -0.62 -0.18 -0.65 -0.21 -0.68 -0.24 -0.7 -0.26 -0.72 -0.29 -0.73 -0.31 -0.74 -0.33 -0.75 -0.35 -0.74 -0.37 -0.74 -0.38 -0.72 -0.4 -0.71 -0.41 -0.69 -0.42 -0.66 -0.43 -0.63 -0.44 -0.59 -0.45 -0.55 -0.46 -0.51 -0.46 -0.46 -0.47 -0.4 -0.49 -0.34 -0.5 -0.27 -0.52 -0.19 -0.54 -0.09 -0.57 0.03 -0.59 0 -0 1.82 0.25zm0 -0l-1.82 -0.25c0.08,-0.49 0.56,-0.83 1.06,-0.76 0.5,0.07 0.84,0.52 0.76,1.01zm8.73 -0.22l0 0 -0.38 -0.09 -0.38 -0.09 -0.39 -0.08 -0.39 -0.08 -0.39 -0.07 -0.4 -0.07 -0.4 -0.06 -0.4 -0.05 -0.39 -0.04 -0.39 -0.04 -0.38 -0.03 -0.38 -0.02 -0.37 -0.01 -0.36 -0 -0.35 0 -0.34 0.01 -0.32 0.02 -0.31 0.03 -0.29 0.04 -0.27 0.05 -0.25 0.06 -0.23 0.06 -0.21 0.07 -0.18 0.07 -0.15 0.08 -0.13 0.08 -0.1 0.07 -0.07 0.07 -0.05 0.07 -0.04 0.06 -0.03 0.06 -0.02 0.08 -1.82 -0.25 0.08 -0.33 0.13 -0.31 0.17 -0.29 0.21 -0.26 0.24 -0.23 0.26 -0.2 0.28 -0.17 0.29 -0.14 0.31 -0.12 0.32 -0.11 0.33 -0.09 0.34 -0.07 0.35 -0.06 0.36 -0.05 0.37 -0.04 0.38 -0.02 0.39 -0.01 0.4 -0 0.4 0.01 0.41 0.01 0.41 0.02 0.42 0.03 0.42 0.04 0.43 0.05 0.43 0.06 0.43 0.06 0.43 0.07 0.43 0.08 0.42 0.08 0.42 0.09 0.41 0.1 0.41 0.1 0 0 -0.52 1.73zm0 0l0.52 -1.73c0.49,0.13 0.77,0.62 0.63,1.09 -0.14,0.48 -0.65,0.76 -1.14,0.63zm7.72 3.57l-0.14 -0.16 -0.15 -0.16 -0.16 -0.16 -0.17 -0.15 -0.19 -0.15 -0.2 -0.15 -0.21 -0.15 -0.22 -0.14 -0.23 -0.14 -0.23 -0.14 -0.24 -0.13 -0.25 -0.13 -0.26 -0.12 -0.26 -0.12 -0.27 -0.12 -0.27 -0.11 -0.27 -0.11 -0.28 -0.11 -0.28 -0.1 -0.28 -0.1 -0.28 -0.09 -0.28 -0.09 -0.28 -0.09 -0.27 -0.08 -0.27 -0.08 -0.27 -0.08 -0.26 -0.07 -0.26 -0.07 -0.26 -0.07 -0.25 -0.07 -0.24 -0.06 -0.24 -0.06 0.52 -1.73 0.24 0.06 0.25 0.07 0.26 0.07 0.26 0.07 0.27 0.07 0.28 0.08 0.28 0.08 0.29 0.08 0.29 0.09 0.29 0.09 0.3 0.1 0.3 0.1 0.3 0.11 0.3 0.11 0.3 0.11 0.3 0.12 0.3 0.12 0.3 0.13 0.29 0.14 0.29 0.14 0.29 0.15 0.28 0.15 0.28 0.16 0.27 0.17 0.26 0.17 0.26 0.18 0.25 0.19 0.24 0.2 0.23 0.2 0.22 0.21 0.21 0.22 0.2 0.23 -1.46 1.12zm0 0l1.46 -1.12c0.31,0.38 0.23,0.95 -0.17,1.26 -0.4,0.31 -0.98,0.25 -1.29,-0.14z"/>
   </g>
   <g>
    <path class="fil0" d="M193.89 236.53l-1.67 1.41c-0.39,-0.44 -0.33,-1.11 0.13,-1.49 0.46,-0.39 1.15,-0.35 1.54,0.09zm29.34 35.77l0 0 -0.34 -0.27 -0.38 -0.36 -0.48 -0.49 -0.59 -0.62 -0.69 -0.74 -0.79 -0.85 -0.88 -0.95 -0.96 -1.05 -1.03 -1.14 -1.1 -1.21 -1.15 -1.28 -1.2 -1.34 -1.24 -1.38 -1.27 -1.42 -1.3 -1.45 -1.31 -1.47 -1.32 -1.48 -1.32 -1.48 -1.31 -1.47 -1.29 -1.45 -1.26 -1.42 -1.23 -1.39 -1.19 -1.34 -1.13 -1.28 -1.07 -1.21 -1.01 -1.14 -0.93 -1.05 -0.85 -0.96 -0.75 -0.85 -0.65 -0.73 -0.54 -0.61 -0.42 -0.48 1.67 -1.41 0.43 0.48 0.54 0.61 0.65 0.74 0.75 0.85 0.85 0.96 0.93 1.05 1.01 1.14 1.07 1.21 1.13 1.28 1.19 1.34 1.23 1.39 1.26 1.42 1.29 1.45 1.31 1.47 1.32 1.48 1.32 1.48 1.31 1.47 1.3 1.45 1.27 1.42 1.24 1.38 1.2 1.33 1.15 1.28 1.1 1.21 1.03 1.13 0.96 1.04 0.87 0.95 0.78 0.84 0.68 0.73 0.57 0.6 0.45 0.46 0.31 0.3 0.08 0.07 0 0 -1.25 1.77zm0 0l1.25 -1.77c0.5,0.32 0.62,0.98 0.27,1.47 -0.34,0.49 -1.03,0.62 -1.52,0.3zm16.81 -1.76l-0 0 -0.97 0.63 -0.92 0.57 -0.88 0.52 -0.84 0.47 -0.79 0.42 -0.76 0.38 -0.72 0.33 -0.69 0.29 -0.66 0.24 -0.62 0.2 -0.6 0.17 -0.58 0.13 -0.55 0.09 -0.53 0.05 -0.51 0.02 -0.49 -0.01 -0.47 -0.05 -0.45 -0.08 -0.43 -0.11 -0.41 -0.13 -0.39 -0.15 -0.37 -0.17 -0.36 -0.18 -0.34 -0.19 -0.33 -0.2 -0.32 -0.21 -0.31 -0.21 -0.3 -0.21 -0.3 -0.21 -0.3 -0.21 -0.3 -0.21 -0.31 -0.2 1.25 -1.77 0.34 0.22 0.33 0.22 0.31 0.22 0.3 0.21 0.29 0.2 0.28 0.19 0.28 0.18 0.27 0.17 0.27 0.15 0.27 0.14 0.27 0.12 0.27 0.11 0.28 0.09 0.29 0.07 0.3 0.05 0.32 0.03 0.34 0.01 0.36 -0.01 0.39 -0.04 0.42 -0.07 0.46 -0.1 0.49 -0.14 0.53 -0.17 0.57 -0.21 0.61 -0.25 0.65 -0.3 0.7 -0.35 0.74 -0.39 0.79 -0.44 0.84 -0.5 0.89 -0.55 0.94 -0.61 -0 0 1.21 1.74zm-0 0l-1.2 -1.74c0.5,-0.33 1.18,-0.21 1.52,0.27 0.33,0.48 0.19,1.14 -0.31,1.47zm6.24 -10.5l0 0 0.21 0.21 0.18 0.24 0.15 0.26 0.12 0.27 0.09 0.28 0.05 0.29 0.02 0.3 -0 0.3 -0.03 0.3 -0.05 0.31 -0.08 0.31 -0.1 0.31 -0.12 0.32 -0.15 0.32 -0.17 0.32 -0.19 0.33 -0.21 0.33 -0.23 0.34 -0.26 0.34 -0.28 0.35 -0.3 0.35 -0.32 0.36 -0.35 0.36 -0.37 0.36 -0.39 0.37 -0.42 0.37 -0.44 0.38 -0.47 0.38 -0.49 0.38 -0.52 0.38 -0.55 0.39 -0.57 0.39 -1.21 -1.74 0.54 -0.36 0.51 -0.36 0.48 -0.36 0.46 -0.35 0.43 -0.35 0.41 -0.34 0.38 -0.34 0.35 -0.33 0.33 -0.32 0.3 -0.31 0.28 -0.31 0.25 -0.3 0.23 -0.29 0.21 -0.28 0.19 -0.27 0.16 -0.26 0.14 -0.25 0.12 -0.23 0.1 -0.22 0.08 -0.2 0.06 -0.19 0.04 -0.17 0.03 -0.15 0.01 -0.13 0 -0.12 -0.01 -0.1 -0.01 -0.08 -0.02 -0.06 -0.02 -0.05 -0.02 -0.04 -0.02 -0.03 -0.03 -0.03 0 0 1.49 -1.59zm0 0l-1.49 1.58c-0.44,-0.39 -0.47,-1.06 -0.06,-1.49 0.41,-0.44 1.1,-0.48 1.55,-0.09zm-13.24 1.74l0 -0 0.22 -0.12 0.24 -0.12 0.26 -0.12 0.29 -0.12 0.32 -0.12 0.35 -0.12 0.37 -0.13 0.4 -0.13 0.42 -0.13 0.43 -0.13 0.45 -0.13 0.47 -0.13 0.48 -0.12 0.49 -0.12 0.5 -0.12 0.5 -0.11 0.5 -0.1 0.5 -0.09 0.5 -0.09 0.49 -0.07 0.49 -0.06 0.48 -0.05 0.47 -0.04 0.46 -0.02 0.45 -0.01 0.43 0.01 0.41 0.03 0.4 0.06 0.39 0.09 0.38 0.13 0.36 0.18 0.34 0.25 -1.49 1.59 -0.03 -0.02 -0.08 -0.04 -0.14 -0.05 -0.2 -0.04 -0.24 -0.04 -0.29 -0.02 -0.32 -0.01 -0.35 0 -0.38 0.02 -0.41 0.03 -0.42 0.04 -0.44 0.06 -0.45 0.07 -0.46 0.08 -0.47 0.09 -0.47 0.09 -0.47 0.1 -0.47 0.11 -0.46 0.11 -0.45 0.12 -0.44 0.12 -0.43 0.12 -0.41 0.12 -0.39 0.12 -0.37 0.12 -0.34 0.12 -0.31 0.11 -0.28 0.1 -0.24 0.1 -0.2 0.09 -0.14 0.07 -0.08 0.04 0 -0 -1.15 -1.78zm0 -0l1.14 1.78c-0.51,0.32 -1.19,0.17 -1.5,-0.32 -0.32,-0.49 -0.15,-1.15 0.36,-1.46zm-10.28 9.79l-0.04 -0.57 0.03 -0.56 0.09 -0.54 0.15 -0.52 0.2 -0.5 0.25 -0.48 0.29 -0.46 0.32 -0.43 0.35 -0.41 0.38 -0.39 0.4 -0.38 0.42 -0.36 0.43 -0.34 0.45 -0.33 0.45 -0.31 0.46 -0.3 0.47 -0.29 0.47 -0.27 0.46 -0.26 0.46 -0.25 0.45 -0.23 0.44 -0.22 0.42 -0.21 0.4 -0.19 0.38 -0.18 0.36 -0.16 0.33 -0.15 0.29 -0.14 0.25 -0.12 0.21 -0.1 0.16 -0.08 0.09 -0.05 1.15 1.78 -0.21 0.12 -0.22 0.12 -0.25 0.12 -0.28 0.13 -0.3 0.14 -0.33 0.15 -0.35 0.16 -0.37 0.17 -0.39 0.18 -0.4 0.2 -0.41 0.21 -0.42 0.22 -0.43 0.23 -0.43 0.24 -0.43 0.25 -0.42 0.26 -0.41 0.27 -0.4 0.28 -0.39 0.28 -0.37 0.29 -0.35 0.3 -0.32 0.3 -0.29 0.31 -0.26 0.31 -0.23 0.31 -0.2 0.31 -0.16 0.31 -0.13 0.31 -0.09 0.31 -0.05 0.31 -0.02 0.31 0.02 0.32 -2.17 0.31zm0 0l2.17 -0.31c0.07,0.58 -0.35,1.12 -0.95,1.2 -0.6,0.08 -1.15,-0.32 -1.22,-0.89z"/>
   </g>
   <g>
    <path class="fil0" d="M137.43 62.57l2.96 -1.19c0.32,0.78 -0.08,1.69 -0.9,2.02 -0.82,0.33 -1.74,-0.04 -2.06,-0.82zm-4.41 -44.93l-0 0 0.16 0.56 0.16 0.67 0.16 0.8 0.17 0.93 0.18 1.05 0.19 1.17 0.19 1.28 0.2 1.38 0.21 1.47 0.22 1.54 0.22 1.61 0.23 1.67 0.24 1.72 0.24 1.76 0.25 1.79 0.25 1.8 0.25 1.81 0.26 1.81 0.26 1.79 0.26 1.77 0.27 1.73 0.27 1.69 0.27 1.63 0.27 1.57 0.27 1.49 0.26 1.4 0.26 1.3 0.26 1.19 0.25 1.07 0.25 0.93 0.24 0.77 0.22 0.59 -2.96 1.19 -0.29 -0.78 -0.27 -0.9 -0.27 -1.02 -0.27 -1.13 -0.27 -1.24 -0.27 -1.34 -0.27 -1.43 -0.27 -1.52 -0.27 -1.59 -0.27 -1.65 -0.27 -1.7 -0.27 -1.75 -0.26 -1.78 -0.26 -1.8 -0.26 -1.81 -0.25 -1.82 -0.25 -1.81 -0.25 -1.79 -0.24 -1.76 -0.24 -1.72 -0.23 -1.67 -0.22 -1.61 -0.22 -1.54 -0.21 -1.46 -0.2 -1.36 -0.19 -1.26 -0.18 -1.15 -0.17 -1.02 -0.16 -0.88 -0.15 -0.73 -0.13 -0.55 -0.1 -0.33 -0 0 3.02 -1.03zm-0 0l-3.02 1.03c-0.28,-0.8 0.18,-1.68 1.01,-1.97 0.83,-0.29 1.73,0.13 2.01,0.93zm15.82 -14.3l0 0 -1.08 0.32 -1.04 0.35 -1.01 0.38 -0.97 0.4 -0.93 0.43 -0.89 0.45 -0.86 0.46 -0.82 0.48 -0.78 0.5 -0.75 0.51 -0.71 0.52 -0.67 0.53 -0.63 0.54 -0.59 0.54 -0.55 0.55 -0.51 0.55 -0.48 0.55 -0.44 0.54 -0.4 0.54 -0.36 0.53 -0.32 0.52 -0.28 0.51 -0.24 0.49 -0.2 0.47 -0.16 0.45 -0.12 0.42 -0.08 0.39 -0.05 0.36 -0.02 0.32 0.01 0.28 0.04 0.24 0.05 0.2 -3.02 1.03 -0.15 -0.55 -0.09 -0.57 -0.02 -0.58 0.03 -0.59 0.08 -0.59 0.13 -0.61 0.18 -0.61 0.22 -0.62 0.26 -0.63 0.31 -0.63 0.35 -0.64 0.39 -0.64 0.43 -0.64 0.47 -0.64 0.52 -0.64 0.56 -0.64 0.6 -0.64 0.64 -0.63 0.68 -0.62 0.72 -0.62 0.76 -0.6 0.8 -0.59 0.84 -0.58 0.88 -0.56 0.92 -0.54 0.96 -0.52 1 -0.5 1.04 -0.47 1.08 -0.45 1.11 -0.42 1.15 -0.39 1.19 -0.35 0 0 0.81 2.96zm0 0l-0.81 -2.96c0.85,-0.24 1.72,0.23 1.95,1.05 0.22,0.82 -0.28,1.67 -1.13,1.91zm2.91 11.3l0 -0 0.59 -0.42 0.53 -0.44 0.47 -0.46 0.42 -0.48 0.37 -0.5 0.32 -0.51 0.27 -0.52 0.22 -0.53 0.17 -0.54 0.13 -0.54 0.08 -0.54 0.04 -0.54 -0 -0.53 -0.04 -0.52 -0.08 -0.51 -0.12 -0.49 -0.16 -0.47 -0.2 -0.44 -0.23 -0.41 -0.26 -0.38 -0.29 -0.35 -0.32 -0.32 -0.34 -0.28 -0.37 -0.24 -0.4 -0.2 -0.42 -0.16 -0.46 -0.12 -0.49 -0.08 -0.52 -0.03 -0.56 0.03 -0.6 0.08 -0.65 0.15 -0.81 -2.96 0.92 -0.22 0.91 -0.13 0.88 -0.04 0.85 0.05 0.82 0.13 0.78 0.21 0.74 0.28 0.69 0.35 0.64 0.42 0.59 0.48 0.53 0.53 0.47 0.57 0.42 0.61 0.36 0.65 0.3 0.68 0.24 0.7 0.18 0.72 0.12 0.74 0.06 0.76 0 0.77 -0.06 0.78 -0.12 0.78 -0.18 0.78 -0.25 0.77 -0.32 0.76 -0.38 0.75 -0.45 0.73 -0.52 0.71 -0.59 0.68 -0.66 0.64 -0.73 0.61 -0.8 0.56 0 -0 -1.73 -2.55zm0 -0l1.73 2.55c-0.74,0.48 -1.72,0.3 -2.2,-0.41 -0.48,-0.7 -0.27,-1.66 0.47,-2.14zm-19.52 2.13l0.5 0.22 0.51 0.21 0.53 0.19 0.54 0.18 0.55 0.16 0.56 0.14 0.57 0.12 0.58 0.11 0.59 0.09 0.59 0.07 0.6 0.05 0.61 0.03 0.62 0.01 0.62 -0.01 0.63 -0.03 0.63 -0.05 0.64 -0.07 0.64 -0.09 0.64 -0.11 0.64 -0.13 0.65 -0.15 0.65 -0.17 0.65 -0.19 0.65 -0.21 0.65 -0.24 0.65 -0.26 0.65 -0.28 0.65 -0.3 0.64 -0.33 0.64 -0.35 0.64 -0.37 0.63 -0.4 1.73 2.55 -0.72 0.45 -0.72 0.42 -0.73 0.4 -0.73 0.37 -0.74 0.35 -0.74 0.32 -0.74 0.3 -0.74 0.27 -0.75 0.25 -0.75 0.22 -0.75 0.2 -0.75 0.17 -0.75 0.15 -0.74 0.12 -0.74 0.1 -0.74 0.08 -0.73 0.05 -0.73 0.03 -0.72 0.01 -0.72 -0.01 -0.71 -0.04 -0.71 -0.06 -0.7 -0.08 -0.69 -0.1 -0.68 -0.12 -0.67 -0.15 -0.66 -0.17 -0.65 -0.19 -0.64 -0.21 -0.63 -0.23 -0.62 -0.25 -0.61 -0.27 1.44 -2.78zm0 0l-1.44 2.78c-0.78,-0.37 -1.09,-1.29 -0.7,-2.06 0.4,-0.77 1.36,-1.09 2.14,-0.72z"/>
   </g>
   <g>
    <path class="fil0" d="M55.78 98.7l2.8 -1.53c0.42,0.74 0.13,1.68 -0.64,2.1 -0.77,0.42 -1.74,0.17 -2.16,-0.57zm-25 -48.44l-0 -0 0.27 0.42 0.38 0.61 0.49 0.8 0.59 0.98 0.69 1.14 0.77 1.29 0.85 1.43 0.93 1.55 0.99 1.66 1.05 1.76 1.09 1.84 1.13 1.91 1.17 1.97 1.19 2.01 1.2 2.03 1.21 2.05 1.21 2.05 1.2 2.04 1.19 2.01 1.16 1.97 1.13 1.91 1.09 1.84 1.04 1.76 0.98 1.67 0.91 1.55 0.84 1.43 0.76 1.29 0.67 1.14 0.57 0.98 0.47 0.8 0.35 0.61 0.24 0.41 -2.8 1.53 -0.22 -0.39 -0.35 -0.6 -0.46 -0.8 -0.57 -0.98 -0.67 -1.14 -0.76 -1.29 -0.84 -1.43 -0.91 -1.55 -0.98 -1.66 -1.04 -1.76 -1.09 -1.84 -1.13 -1.91 -1.16 -1.97 -1.19 -2.01 -1.2 -2.03 -1.21 -2.05 -1.21 -2.05 -1.2 -2.03 -1.19 -2.01 -1.17 -1.96 -1.13 -1.91 -1.09 -1.84 -1.04 -1.76 -0.99 -1.66 -0.92 -1.55 -0.85 -1.43 -0.77 -1.29 -0.68 -1.14 -0.59 -0.97 -0.48 -0.79 -0.36 -0.59 -0.23 -0.37 -0 -0 2.7 -1.69zm-0 -0l-2.69 1.7c-0.47,-0.71 -0.24,-1.67 0.5,-2.13 0.74,-0.47 1.73,-0.27 2.19,0.43zm-25.59 -9.05l0 0 1.17 -0.29 1.16 -0.22 1.15 -0.15 1.14 -0.09 1.12 -0.03 1.11 0.03 1.09 0.09 1.07 0.14 1.05 0.18 1.02 0.23 1 0.27 0.97 0.3 0.95 0.33 0.92 0.36 0.89 0.39 0.86 0.41 0.83 0.43 0.8 0.45 0.76 0.46 0.73 0.47 0.7 0.47 0.66 0.48 0.62 0.48 0.58 0.47 0.55 0.47 0.51 0.46 0.47 0.45 0.43 0.43 0.38 0.42 0.34 0.4 0.3 0.39 0.26 0.37 -2.7 1.69 -0.16 -0.23 -0.22 -0.28 -0.27 -0.31 -0.31 -0.34 -0.36 -0.37 -0.4 -0.38 -0.44 -0.4 -0.48 -0.41 -0.52 -0.42 -0.56 -0.43 -0.59 -0.43 -0.62 -0.43 -0.65 -0.42 -0.68 -0.41 -0.71 -0.4 -0.74 -0.38 -0.77 -0.37 -0.79 -0.35 -0.81 -0.32 -0.83 -0.29 -0.85 -0.26 -0.87 -0.23 -0.89 -0.2 -0.9 -0.16 -0.91 -0.12 -0.93 -0.07 -0.94 -0.03 -0.95 0.02 -0.96 0.07 -0.97 0.13 -0.98 0.19 -0.99 0.25 0 0 -0.81 -2.96zm0 0l0.81 2.96c-0.85,0.24 -1.72,-0.23 -1.95,-1.05 -0.22,-0.82 0.28,-1.67 1.13,-1.91zm7.08 16.51l0 0 -1.11 -0.01 -1.07 -0.09 -1.02 -0.16 -0.97 -0.22 -0.93 -0.29 -0.88 -0.35 -0.82 -0.4 -0.77 -0.45 -0.72 -0.5 -0.66 -0.54 -0.6 -0.57 -0.55 -0.61 -0.49 -0.63 -0.43 -0.66 -0.37 -0.68 -0.31 -0.7 -0.24 -0.71 -0.18 -0.72 -0.12 -0.72 -0.05 -0.73 0.02 -0.72 0.09 -0.72 0.17 -0.71 0.24 -0.69 0.32 -0.66 0.4 -0.63 0.48 -0.59 0.56 -0.54 0.63 -0.48 0.7 -0.42 0.76 -0.35 0.82 -0.27 0.81 2.96 -0.5 0.17 -0.44 0.2 -0.38 0.23 -0.33 0.25 -0.28 0.27 -0.24 0.29 -0.2 0.32 -0.17 0.34 -0.13 0.37 -0.09 0.39 -0.05 0.41 -0.01 0.43 0.03 0.45 0.07 0.46 0.12 0.47 0.17 0.48 0.21 0.48 0.25 0.47 0.3 0.46 0.34 0.45 0.39 0.43 0.43 0.41 0.48 0.39 0.52 0.36 0.56 0.33 0.61 0.3 0.65 0.26 0.7 0.22 0.74 0.17 0.79 0.12 0.84 0.07 0.89 0.01 0 0 -0 3.08zm0 0l0 -3.08c0.88,-0.02 1.59,0.66 1.59,1.51 -0,0.85 -0.71,1.56 -1.59,1.57zm18.02 -4.71l-0.3 0.2 -0.32 0.2 -0.33 0.2 -0.35 0.2 -0.37 0.2 -0.39 0.2 -0.41 0.2 -0.43 0.19 -0.45 0.19 -0.47 0.19 -0.48 0.19 -0.5 0.19 -0.52 0.18 -0.53 0.18 -0.55 0.18 -0.57 0.17 -0.59 0.17 -0.6 0.16 -0.62 0.15 -0.63 0.15 -0.65 0.14 -0.66 0.13 -0.67 0.12 -0.69 0.12 -0.7 0.11 -0.71 0.1 -0.72 0.08 -0.74 0.07 -0.75 0.06 -0.76 0.05 -0.77 0.04 -0.78 0.02 0 -3.08 0.72 -0.02 0.71 -0.03 0.7 -0.05 0.69 -0.06 0.68 -0.07 0.67 -0.08 0.66 -0.09 0.65 -0.1 0.63 -0.11 0.62 -0.11 0.61 -0.12 0.59 -0.13 0.58 -0.14 0.57 -0.14 0.55 -0.15 0.53 -0.15 0.52 -0.16 0.5 -0.16 0.49 -0.16 0.47 -0.17 0.45 -0.17 0.43 -0.17 0.41 -0.17 0.39 -0.17 0.37 -0.17 0.35 -0.17 0.33 -0.17 0.31 -0.16 0.29 -0.16 0.26 -0.15 0.24 -0.15 0.22 -0.14 1.79 2.51zm0 0l-1.79 -2.51c0.73,-0.49 1.72,-0.34 2.21,0.36 0.49,0.69 0.31,1.65 -0.42,2.15z"/>
   </g>
   <g>
    <path class="fil0" d="M91.72 204.9l0.38 3.05c-0.87,0.12 -1.66,-0.47 -1.77,-1.31 -0.1,-0.84 0.52,-1.62 1.39,-1.74zm92.27 -20.21l-1.25 0.64 -1.47 0.66 -1.69 0.69 -1.91 0.72 -2.11 0.75 -2.3 0.77 -2.48 0.8 -2.65 0.82 -2.8 0.83 -2.93 0.85 -3.06 0.86 -3.16 0.87 -3.26 0.87 -3.34 0.87 -3.4 0.87 -3.46 0.87 -3.49 0.86 -3.52 0.85 -3.52 0.83 -3.52 0.82 -3.5 0.79 -3.46 0.77 -3.41 0.74 -3.35 0.71 -3.27 0.68 -3.18 0.64 -3.08 0.6 -2.96 0.55 -2.82 0.5 -2.67 0.45 -2.51 0.4 -2.34 0.34 -0.38 -3.05 2.29 -0.33 2.47 -0.39 2.64 -0.45 2.79 -0.5 2.93 -0.55 3.06 -0.59 3.16 -0.63 3.25 -0.67 3.34 -0.71 3.4 -0.74 3.45 -0.77 3.48 -0.79 3.51 -0.81 3.51 -0.83 3.5 -0.85 3.48 -0.86 3.44 -0.87 3.39 -0.87 3.32 -0.87 3.24 -0.87 3.15 -0.86 3.03 -0.86 2.91 -0.84 2.77 -0.83 2.61 -0.81 2.44 -0.78 2.26 -0.76 2.06 -0.73 1.84 -0.69 1.6 -0.65 1.35 -0.6 1.06 -0.54 1.53 2.67zm0 0l-1.53 -2.67c0.77,-0.43 1.74,-0.18 2.16,0.56 0.42,0.74 0.14,1.68 -0.63,2.11z"/>
   </g>
  </g>
 </g>
</svg>
