<?xml version="1.0" encoding="UTF-8"?>
<!DOCTYPE svg PUBLIC "-//W3C//DTD SVG 1.1//EN" "http://www.w3.org/Graphics/SVG/1.1/DTD/svg11.dtd">
<!-- Creator: CorelDRAW Standard 2021 (64-Bit) -->
<svg xmlns="http://www.w3.org/2000/svg" xml:space="preserve" width="24.4084mm" height="48.0758mm" version="1.1" style="shape-rendering:geometricPrecision; text-rendering:geometricPrecision; image-rendering:optimizeQuality; fill-rule:evenodd; clip-rule:evenodd"
viewBox="0 0 154.57 304.46"
 xmlns:xlink="http://www.w3.org/1999/xlink"
 xmlns:xodm="http://www.corel.com/coreldraw/odm/2003">
 <defs>
  <style type="text/css">
   <![CDATA[
    .fil1 {fill:#2B2A29;fill-rule:nonzero}
    .fil0 {fill:#1D1D1B;fill-rule:nonzero}
   ]]>
  </style>
 </defs>
 <g id="Layer_x0020_1">
  <metadata id="CorelCorpID_0Corel-Layer"/>
  <g id="adolescant_x0020_">
   <g>
    <path class="fil0" d="M114.25 52.95c-0.16,-0.81 0.36,-1.61 1.17,-1.77 0.81,-0.16 1.61,0.36 1.77,1.17l-2.95 0.6zm3.74 18.6l-2.96 -0.52 0 0 0.08 -0.5 0.07 -0.51 0.06 -0.52 0.06 -0.54 0.05 -0.55 0.04 -0.56 0.03 -0.57 0.02 -0.57 0.02 -0.58 0.01 -0.59 0 -0.59 -0.01 -0.6 -0.01 -0.6 -0.02 -0.6 -0.03 -0.6 -0.03 -0.61 -0.04 -0.6 -0.04 -0.6 -0.05 -0.6 -0.05 -0.6 -0.06 -0.59 -0.06 -0.59 -0.07 -0.58 -0.07 -0.58 -0.08 -0.57 -0.08 -0.56 -0.08 -0.55 -0.09 -0.54 -0.09 -0.53 -0.09 -0.51 -0.09 -0.5 -0.1 -0.49 2.95 -0.6 0.1 0.52 0.1 0.53 0.1 0.54 0.09 0.55 0.09 0.56 0.09 0.58 0.08 0.59 0.08 0.59 0.07 0.6 0.07 0.61 0.07 0.61 0.06 0.62 0.06 0.62 0.05 0.63 0.04 0.63 0.04 0.63 0.03 0.63 0.03 0.64 0.02 0.64 0.01 0.63 0.01 0.63 -0 0.63 -0.01 0.63 -0.02 0.62 -0.03 0.62 -0.03 0.61 -0.04 0.6 -0.05 0.6 -0.06 0.59 -0.07 0.58 -0.08 0.57 -0.09 0.56 0 0zm0 -0c-0.14,0.82 -0.92,1.36 -1.74,1.22 -0.82,-0.14 -1.36,-0.92 -1.22,-1.74l2.96 0.52zm-50.24 38.99l0.47 -2.97 0 0 2.42 0.32 2.37 0.2 2.31 0.08 2.25 -0.04 2.19 -0.15 2.12 -0.26 2.06 -0.37 2 -0.47 1.94 -0.57 1.88 -0.67 1.82 -0.77 1.76 -0.86 1.7 -0.95 1.64 -1.04 1.58 -1.13 1.51 -1.21 1.45 -1.29 1.39 -1.37 1.33 -1.45 1.26 -1.52 1.2 -1.59 1.13 -1.66 1.06 -1.73 1 -1.79 0.93 -1.85 0.86 -1.91 0.79 -1.96 0.72 -2.01 0.65 -2.06 0.58 -2.11 0.5 -2.15 0.43 -2.19 2.96 0.52 -0.45 2.3 -0.53 2.26 -0.61 2.22 -0.68 2.17 -0.76 2.12 -0.83 2.07 -0.91 2.02 -0.99 1.96 -1.06 1.9 -1.13 1.84 -1.21 1.77 -1.28 1.7 -1.35 1.63 -1.43 1.56 -1.5 1.48 -1.57 1.4 -1.64 1.31 -1.71 1.22 -1.78 1.13 -1.84 1.03 -1.91 0.94 -1.98 0.84 -2.04 0.73 -2.1 0.62 -2.17 0.51 -2.23 0.4 -2.28 0.28 -2.34 0.16 -2.4 0.04 -2.46 -0.09 -2.51 -0.21 -2.57 -0.34 0 0zm0 0c-0.82,-0.13 -1.38,-0.9 -1.25,-1.72 0.13,-0.82 0.9,-1.38 1.72,-1.25l-0.47 2.97zm-33.43 -47.47l2.99 0.31 0 0 -0.12 1.46 -0.08 1.51 -0.03 1.56 0.02 1.6 0.07 1.63 0.13 1.66 0.19 1.69 0.25 1.7 0.31 1.71 0.38 1.72 0.44 1.72 0.51 1.71 0.59 1.7 0.66 1.68 0.74 1.66 0.82 1.63 0.9 1.59 0.98 1.55 1.07 1.51 1.16 1.46 1.25 1.4 1.35 1.34 1.44 1.28 1.54 1.21 1.64 1.13 1.75 1.05 1.86 0.97 1.97 0.88 2.09 0.78 2.21 0.68 2.34 0.57 2.46 0.46 -0.47 2.97 -2.63 -0.49 -2.5 -0.61 -2.38 -0.73 -2.26 -0.84 -2.14 -0.95 -2.03 -1.05 -1.91 -1.15 -1.8 -1.24 -1.69 -1.32 -1.58 -1.4 -1.47 -1.47 -1.37 -1.53 -1.26 -1.59 -1.16 -1.64 -1.07 -1.69 -0.97 -1.72 -0.88 -1.76 -0.79 -1.78 -0.71 -1.8 -0.63 -1.82 -0.55 -1.83 -0.47 -1.83 -0.4 -1.83 -0.33 -1.82 -0.26 -1.8 -0.2 -1.79 -0.14 -1.76 -0.08 -1.73 -0.02 -1.69 0.03 -1.65 0.08 -1.61 0.13 -1.56 0 0zm0 0c0.08,-0.83 0.82,-1.43 1.65,-1.34 0.83,0.08 1.43,0.82 1.34,1.65l-2.99 -0.31zm3.01 -11.94l2.79 1.12 -0.14 0.36 -0.14 0.36 -0.14 0.36 -0.13 0.36 -0.13 0.36 -0.12 0.36 -0.12 0.36 -0.12 0.36 -0.11 0.36 -0.11 0.36 -0.11 0.36 -0.1 0.36 -0.1 0.35 -0.1 0.35 -0.09 0.35 -0.09 0.35 -0.09 0.35 -0.08 0.35 -0.08 0.35 -0.08 0.35 -0.07 0.35 -0.07 0.34 -0.06 0.34 -0.06 0.34 -0.06 0.34 -0.06 0.34 -0.05 0.34 -0.05 0.33 -0.04 0.33 -0.04 0.33 -0.04 0.33 -0.04 0.33 -2.99 -0.31 0.04 -0.35 0.04 -0.36 0.05 -0.36 0.05 -0.36 0.05 -0.36 0.06 -0.36 0.06 -0.36 0.06 -0.37 0.07 -0.37 0.07 -0.37 0.07 -0.37 0.08 -0.37 0.08 -0.37 0.08 -0.37 0.09 -0.37 0.09 -0.38 0.1 -0.38 0.1 -0.38 0.1 -0.38 0.11 -0.38 0.11 -0.38 0.11 -0.38 0.12 -0.38 0.12 -0.38 0.13 -0.38 0.13 -0.38 0.13 -0.38 0.14 -0.38 0.14 -0.38 0.14 -0.38 0.15 -0.38 0.15 -0.38zm0 0c0.31,-0.77 1.19,-1.14 1.96,-0.83 0.77,0.31 1.14,1.19 0.83,1.96l-2.79 -1.12z"/>
   </g>
   <g>
    <path class="fil0" d="M36.95 58.02c0.77,0.3 1.16,1.17 0.85,1.95 -0.3,0.77 -1.17,1.16 -1.95,0.85l1.09 -2.8zm-12.67 11.01l-3 0.26 0 0 -0.03 -0.73 0.03 -0.72 0.09 -0.71 0.14 -0.69 0.2 -0.68 0.24 -0.66 0.29 -0.64 0.33 -0.62 0.37 -0.59 0.41 -0.57 0.44 -0.55 0.47 -0.52 0.5 -0.5 0.52 -0.47 0.55 -0.44 0.57 -0.41 0.59 -0.39 0.61 -0.36 0.62 -0.32 0.64 -0.29 0.65 -0.26 0.66 -0.22 0.67 -0.19 0.68 -0.15 0.68 -0.11 0.68 -0.07 0.69 -0.03 0.69 0.02 0.68 0.07 0.68 0.12 0.67 0.17 0.66 0.22 -1.09 2.8 -0.42 -0.14 -0.44 -0.11 -0.45 -0.08 -0.47 -0.05 -0.48 -0.01 -0.49 0.02 -0.5 0.05 -0.51 0.08 -0.51 0.11 -0.51 0.14 -0.51 0.17 -0.51 0.2 -0.5 0.23 -0.49 0.26 -0.48 0.28 -0.47 0.3 -0.45 0.32 -0.43 0.35 -0.41 0.36 -0.38 0.38 -0.36 0.4 -0.33 0.41 -0.3 0.42 -0.27 0.43 -0.24 0.44 -0.2 0.45 -0.17 0.45 -0.13 0.46 -0.1 0.46 -0.06 0.47 -0.02 0.47 0.02 0.47 0 0zm0 0c0.07,0.83 -0.54,1.56 -1.37,1.63 -0.83,0.07 -1.56,-0.54 -1.63,-1.37l3 -0.26zm11.47 6.59l1.2 2.76 -0.6 0.24 -0.62 0.2 -0.63 0.16 -0.63 0.11 -0.64 0.08 -0.64 0.04 -0.64 0 -0.64 -0.03 -0.64 -0.07 -0.63 -0.1 -0.62 -0.14 -0.62 -0.17 -0.61 -0.2 -0.6 -0.23 -0.59 -0.26 -0.57 -0.29 -0.56 -0.32 -0.54 -0.35 -0.52 -0.38 -0.5 -0.41 -0.48 -0.44 -0.45 -0.47 -0.43 -0.49 -0.4 -0.52 -0.37 -0.55 -0.34 -0.57 -0.3 -0.6 -0.26 -0.62 -0.22 -0.64 -0.18 -0.66 -0.13 -0.68 -0.09 -0.7 3 -0.26 0.06 0.49 0.09 0.48 0.12 0.46 0.15 0.45 0.18 0.44 0.21 0.42 0.24 0.4 0.26 0.39 0.29 0.37 0.31 0.36 0.33 0.34 0.35 0.32 0.37 0.31 0.39 0.28 0.41 0.26 0.42 0.24 0.43 0.22 0.44 0.2 0.45 0.18 0.46 0.15 0.47 0.13 0.47 0.1 0.47 0.08 0.47 0.05 0.47 0.03 0.47 -0 0.46 -0.03 0.46 -0.06 0.45 -0.08 0.44 -0.11 0.43 -0.14 0.42 -0.16zm0 0c0.76,-0.33 1.65,0.02 1.98,0.78 0.33,0.76 -0.02,1.65 -0.78,1.98l-1.2 -2.76z"/>
   </g>
   <g>
    <path class="fil0" d="M117.37 62.85c-0.82,0.1 -1.57,-0.49 -1.67,-1.31 -0.1,-0.82 0.49,-1.57 1.31,-1.67l0.36 2.99zm11.17 8.42l-3 -0.23 0 -0 0.02 -0.45 -0.02 -0.44 -0.05 -0.43 -0.08 -0.42 -0.11 -0.41 -0.14 -0.4 -0.16 -0.39 -0.19 -0.39 -0.21 -0.38 -0.24 -0.37 -0.26 -0.36 -0.28 -0.35 -0.3 -0.34 -0.31 -0.32 -0.33 -0.31 -0.34 -0.29 -0.35 -0.28 -0.36 -0.26 -0.37 -0.24 -0.37 -0.23 -0.37 -0.21 -0.37 -0.19 -0.37 -0.17 -0.36 -0.15 -0.35 -0.13 -0.34 -0.1 -0.32 -0.08 -0.31 -0.06 -0.28 -0.04 -0.25 -0.02 -0.22 -0 -0.18 0.01 -0.36 -2.99 0.45 -0.03 0.45 0 0.45 0.04 0.46 0.07 0.46 0.09 0.47 0.12 0.47 0.15 0.47 0.17 0.48 0.19 0.48 0.22 0.48 0.24 0.48 0.26 0.47 0.29 0.47 0.31 0.46 0.33 0.45 0.35 0.44 0.38 0.43 0.4 0.41 0.42 0.39 0.44 0.37 0.47 0.35 0.49 0.33 0.51 0.3 0.53 0.27 0.55 0.24 0.58 0.2 0.59 0.16 0.62 0.12 0.63 0.07 0.65 0.02 0.66 -0.03 0.68 0 -0zm0 0c-0.06,0.83 -0.79,1.45 -1.61,1.38 -0.83,-0.06 -1.45,-0.79 -1.38,-1.61l3 0.23zm-14.16 8.23l1.16 -2.78 0.34 0.13 0.36 0.1 0.37 0.08 0.38 0.06 0.39 0.03 0.4 0.01 0.41 -0.02 0.41 -0.04 0.42 -0.06 0.42 -0.09 0.42 -0.11 0.42 -0.13 0.41 -0.15 0.41 -0.17 0.4 -0.19 0.39 -0.21 0.38 -0.23 0.37 -0.24 0.35 -0.26 0.33 -0.27 0.32 -0.29 0.3 -0.3 0.27 -0.31 0.25 -0.32 0.23 -0.32 0.2 -0.33 0.18 -0.34 0.15 -0.34 0.12 -0.34 0.1 -0.35 0.07 -0.35 0.04 -0.36 3 0.23 -0.07 0.59 -0.12 0.58 -0.16 0.57 -0.2 0.55 -0.24 0.53 -0.27 0.51 -0.3 0.49 -0.33 0.47 -0.36 0.45 -0.39 0.43 -0.41 0.41 -0.43 0.39 -0.45 0.37 -0.47 0.35 -0.49 0.32 -0.5 0.3 -0.52 0.28 -0.53 0.25 -0.54 0.22 -0.55 0.2 -0.56 0.17 -0.56 0.14 -0.57 0.12 -0.58 0.09 -0.58 0.05 -0.58 0.02 -0.58 -0.01 -0.58 -0.05 -0.58 -0.08 -0.57 -0.12 -0.56 -0.16 -0.55 -0.21zm0 0c-0.77,-0.32 -1.13,-1.2 -0.81,-1.97 0.32,-0.77 1.2,-1.13 1.97,-0.81l-1.16 2.78z"/>
   </g>
   <path class="fil0" d="M63.54 65.67c1.42,-0.13 2.93,1.6 2.17,3.53 -0.76,1.93 -3.47,2.47 -4.61,0.41 -1.02,-1.85 0.6,-3.77 2.44,-3.93z"/>
   <path class="fil0" d="M85.03 68.61c-0.35,-1.39 1.12,-3.15 3.14,-2.7 2.02,0.44 2.99,3.03 1.14,4.49 -1.66,1.3 -3.82,0.01 -4.27,-1.78z"/>
   <g>
    <path class="fil0" d="M56.95 81.44c-0.23,-0.8 0.23,-1.63 1.03,-1.86 0.8,-0.23 1.63,0.23 1.86,1.03l-2.89 0.84zm19.68 11.01l0.15 3 0 0 -1.12 0.03 -1.09 -0.03 -1.06 -0.09 -1.03 -0.15 -1 -0.2 -0.96 -0.25 -0.93 -0.3 -0.9 -0.34 -0.86 -0.38 -0.83 -0.41 -0.8 -0.45 -0.76 -0.48 -0.73 -0.5 -0.69 -0.52 -0.66 -0.54 -0.63 -0.56 -0.59 -0.57 -0.56 -0.58 -0.53 -0.59 -0.5 -0.59 -0.47 -0.6 -0.44 -0.6 -0.4 -0.59 -0.37 -0.58 -0.34 -0.57 -0.31 -0.56 -0.28 -0.55 -0.25 -0.53 -0.23 -0.51 -0.2 -0.49 -0.17 -0.47 -0.14 -0.45 2.89 -0.84 0.1 0.32 0.13 0.36 0.16 0.39 0.18 0.42 0.21 0.45 0.24 0.47 0.27 0.48 0.3 0.5 0.32 0.51 0.35 0.51 0.38 0.52 0.41 0.52 0.43 0.52 0.46 0.51 0.49 0.5 0.51 0.49 0.54 0.48 0.56 0.47 0.59 0.45 0.62 0.43 0.64 0.4 0.67 0.38 0.7 0.35 0.72 0.32 0.75 0.28 0.78 0.25 0.81 0.21 0.83 0.17 0.86 0.13 0.89 0.08 0.93 0.03 0.96 -0.02 0 0zm0 0c0.83,-0.04 1.54,0.6 1.58,1.42 0.04,0.83 -0.6,1.54 -1.42,1.58l-0.15 -3zm16.31 -13.58l2.91 0.77 -0.11 0.4 -0.13 0.43 -0.15 0.47 -0.17 0.5 -0.2 0.52 -0.22 0.55 -0.25 0.57 -0.27 0.59 -0.3 0.61 -0.33 0.62 -0.36 0.63 -0.39 0.64 -0.42 0.64 -0.46 0.64 -0.49 0.64 -0.53 0.64 -0.57 0.63 -0.61 0.62 -0.65 0.6 -0.69 0.58 -0.73 0.56 -0.77 0.53 -0.82 0.51 -0.86 0.47 -0.91 0.44 -0.95 0.4 -1 0.35 -1.05 0.31 -1.09 0.26 -1.14 0.21 -1.19 0.15 -1.24 0.09 -0.15 -3 1.09 -0.08 1.04 -0.13 0.99 -0.18 0.94 -0.22 0.89 -0.26 0.85 -0.3 0.81 -0.34 0.77 -0.37 0.73 -0.4 0.69 -0.42 0.65 -0.45 0.61 -0.47 0.58 -0.49 0.55 -0.51 0.51 -0.52 0.48 -0.53 0.45 -0.55 0.42 -0.55 0.39 -0.55 0.37 -0.56 0.34 -0.55 0.31 -0.55 0.29 -0.54 0.26 -0.53 0.24 -0.52 0.21 -0.5 0.19 -0.48 0.17 -0.46 0.15 -0.43 0.13 -0.41 0.11 -0.37 0.09 -0.34zm0 0c0.21,-0.8 1.04,-1.28 1.84,-1.07 0.8,0.21 1.28,1.04 1.07,1.84l-2.91 -0.77z"/>
   </g>
   <g>
    <path class="fil1" d="M52.92 17.06c-0.01,-11.22 14.95,-14.98 20.54,-6.79 6.47,-14.56 26.06,-9.32 27.47,3.51 12.48,-8.98 23.82,4.55 17.14,13.23 9.23,-0.6 10.7,7.45 5.37,10.21 13.12,3.86 6.34,24.01 -7.72,15.43 -7.38,6.23 -16.82,3.05 -19.81,-4.69 -6.29,8.21 -19.38,7.1 -23.1,-2.71 -0.56,10.33 -11.74,10.89 -16.13,4.43 -0.94,15.17 -20.45,12.51 -17.95,2.01 -10.54,6.25 -18.51,-13.59 -3.45,-18.9 -6.41,-12.11 4.9,-22.28 17.64,-15.72z"/>
    <path id="_1" class="fil0" d="M72.09 9.66l2.75 1.22 -2.62 0.24 -0.47 -0.62 -0.51 -0.56 -0.55 -0.5 -0.58 -0.45 -0.62 -0.39 -0.65 -0.34 -0.67 -0.28 -0.7 -0.23 -0.72 -0.18 -0.73 -0.12 -0.75 -0.07 -0.75 -0.02 -0.76 0.04 -0.76 0.09 -0.75 0.14 -0.74 0.19 -0.73 0.24 -0.71 0.29 -0.68 0.34 -0.65 0.39 -0.62 0.43 -0.58 0.47 -0.55 0.52 -0.5 0.56 -0.46 0.6 -0.41 0.64 -0.35 0.68 -0.3 0.72 -0.24 0.77 -0.18 0.81 -0.11 0.86 -0.04 0.9 -3.01 0 0.05 -1.16 0.14 -1.11 0.23 -1.07 0.32 -1.02 0.4 -0.97 0.47 -0.92 0.54 -0.86 0.61 -0.8 0.66 -0.74 0.72 -0.68 0.76 -0.62 0.8 -0.56 0.84 -0.5 0.87 -0.43 0.9 -0.37 0.92 -0.31 0.94 -0.24 0.95 -0.18 0.96 -0.12 0.97 -0.05 0.97 0.02 0.96 0.09 0.95 0.16 0.94 0.23 0.92 0.3 0.9 0.38 0.87 0.45 0.84 0.53 0.8 0.61 0.75 0.69 0.69 0.77 0.63 0.84 -2.62 0.24zm2.62 -0.24c0.47,0.69 0.29,1.62 -0.39,2.09 -0.69,0.47 -1.62,0.29 -2.09,-0.39l2.48 -1.7zm25.35 3.14l1.76 2.44 -2.37 -1.06 -0.16 -1.05 -0.25 -1 -0.34 -0.96 -0.41 -0.91 -0.49 -0.87 -0.56 -0.82 -0.63 -0.77 -0.69 -0.72 -0.74 -0.67 -0.8 -0.61 -0.84 -0.55 -0.88 -0.49 -0.92 -0.43 -0.95 -0.36 -0.97 -0.29 -0.99 -0.22 -1 -0.15 -1.01 -0.07 -1.01 0 -1 0.08 -0.99 0.16 -0.98 0.24 -0.96 0.32 -0.93 0.41 -0.9 0.49 -0.87 0.58 -0.84 0.68 -0.8 0.77 -0.75 0.87 -0.7 0.98 -0.65 1.09 -0.59 1.2 -2.75 -1.22 0.7 -1.42 0.78 -1.3 0.86 -1.19 0.93 -1.07 0.99 -0.96 1.05 -0.85 1.1 -0.73 1.14 -0.62 1.17 -0.51 1.2 -0.41 1.22 -0.3 1.23 -0.2 1.24 -0.1 1.24 -0 1.23 0.09 1.22 0.18 1.2 0.27 1.18 0.35 1.15 0.44 1.11 0.52 1.07 0.6 1.03 0.67 0.97 0.75 0.92 0.82 0.85 0.89 0.78 0.96 0.7 1.03 0.62 1.09 0.52 1.16 0.42 1.21 0.32 1.27 0.21 1.32 -2.37 -1.06zm2.37 1.06c0.09,0.83 -0.51,1.57 -1.33,1.66 -0.83,0.09 -1.57,-0.51 -1.66,-1.33l2.99 -0.33zm15.55 11.89l0.2 3 -1.29 -2.42 0.49 -0.71 0.4 -0.72 0.31 -0.73 0.23 -0.74 0.15 -0.74 0.08 -0.75 0 -0.75 -0.07 -0.75 -0.13 -0.74 -0.2 -0.73 -0.27 -0.71 -0.33 -0.69 -0.39 -0.67 -0.45 -0.64 -0.5 -0.6 -0.55 -0.56 -0.6 -0.52 -0.65 -0.47 -0.69 -0.41 -0.73 -0.36 -0.77 -0.3 -0.8 -0.23 -0.83 -0.16 -0.86 -0.08 -0.9 -0.01 -0.92 0.08 -0.95 0.17 -0.98 0.26 -1.01 0.37 -1.03 0.48 -1.06 0.59 -1.07 0.72 -1.76 -2.44 1.26 -0.84 1.26 -0.71 1.25 -0.58 1.25 -0.45 1.23 -0.33 1.22 -0.22 1.2 -0.1 1.17 0.01 1.14 0.11 1.1 0.21 1.06 0.3 1.01 0.39 0.96 0.47 0.91 0.55 0.85 0.62 0.79 0.68 0.73 0.74 0.66 0.79 0.59 0.84 0.52 0.89 0.44 0.92 0.36 0.96 0.27 0.99 0.18 1.01 0.09 1.02 -0.01 1.04 -0.11 1.04 -0.21 1.04 -0.32 1.03 -0.43 1.01 -0.54 0.98 -0.66 0.95 -1.29 -2.42zm1.29 2.42c-0.51,0.66 -1.45,0.78 -2.11,0.27 -0.66,-0.51 -0.78,-1.45 -0.27,-2.11l2.38 1.83zm4.6 7.85l-0.85 2.89 -0.27 -2.78 0.37 -0.21 0.33 -0.23 0.3 -0.25 0.27 -0.26 0.23 -0.27 0.2 -0.28 0.17 -0.29 0.14 -0.29 0.11 -0.3 0.08 -0.3 0.05 -0.3 0.02 -0.31 -0.01 -0.31 -0.04 -0.3 -0.07 -0.3 -0.1 -0.3 -0.12 -0.29 -0.16 -0.28 -0.19 -0.28 -0.22 -0.27 -0.26 -0.26 -0.3 -0.25 -0.34 -0.24 -0.38 -0.22 -0.42 -0.2 -0.46 -0.18 -0.51 -0.15 -0.56 -0.12 -0.61 -0.09 -0.66 -0.06 -0.71 -0.01 -0.76 0.03 -0.2 -3 0.93 -0.03 0.89 0.02 0.85 0.07 0.81 0.12 0.77 0.17 0.72 0.22 0.68 0.26 0.64 0.3 0.59 0.35 0.55 0.39 0.5 0.42 0.45 0.45 0.4 0.49 0.35 0.51 0.29 0.54 0.24 0.55 0.18 0.57 0.13 0.58 0.07 0.59 0.02 0.59 -0.04 0.59 -0.09 0.58 -0.15 0.57 -0.2 0.56 -0.25 0.54 -0.31 0.52 -0.36 0.5 -0.41 0.47 -0.45 0.44 -0.5 0.41 -0.54 0.37 -0.59 0.33 -0.27 -2.78zm0.27 2.78c-0.74,0.38 -1.64,0.09 -2.03,-0.64 -0.38,-0.74 -0.09,-1.64 0.64,-2.03l1.38 2.67zm-7.44 15.25l-1.94 -2.3 1.75 -0.13 1.19 0.66 1.13 0.51 1.07 0.36 1 0.23 0.94 0.11 0.87 0 0.81 -0.09 0.75 -0.18 0.7 -0.26 0.65 -0.34 0.6 -0.41 0.55 -0.47 0.49 -0.54 0.44 -0.59 0.38 -0.64 0.32 -0.68 0.25 -0.71 0.18 -0.74 0.11 -0.76 0.04 -0.77 -0.04 -0.77 -0.11 -0.76 -0.19 -0.74 -0.27 -0.72 -0.35 -0.7 -0.43 -0.67 -0.52 -0.63 -0.61 -0.59 -0.7 -0.54 -0.8 -0.49 -0.91 -0.43 -1.03 -0.36 0.85 -2.89 1.31 0.46 1.2 0.56 1.09 0.66 0.97 0.75 0.85 0.83 0.73 0.89 0.61 0.95 0.49 0.99 0.38 1.03 0.27 1.05 0.16 1.06 0.05 1.06 -0.05 1.06 -0.15 1.04 -0.25 1.02 -0.35 0.99 -0.44 0.95 -0.53 0.9 -0.63 0.84 -0.71 0.78 -0.8 0.7 -0.89 0.61 -0.97 0.51 -1.04 0.39 -1.11 0.27 -1.17 0.14 -1.22 -0 -1.27 -0.15 -1.31 -0.3 -1.34 -0.46 -1.37 -0.62 -1.4 -0.78 1.75 -0.13zm-1.75 0.13c-0.71,-0.43 -0.93,-1.36 -0.5,-2.07 0.43,-0.71 1.36,-0.93 2.07,-0.5l-1.57 2.57zm-17.84 -5.06l-2.39 -1.83 2.6 0.37 0.27 0.63 0.3 0.61 0.33 0.58 0.36 0.55 0.38 0.53 0.41 0.5 0.43 0.47 0.46 0.44 0.48 0.41 0.5 0.38 0.52 0.35 0.54 0.32 0.55 0.28 0.57 0.25 0.58 0.21 0.59 0.18 0.6 0.14 0.61 0.11 0.62 0.07 0.63 0.03 0.63 -0.01 0.64 -0.05 0.64 -0.09 0.65 -0.13 0.65 -0.17 0.65 -0.22 0.65 -0.26 0.65 -0.31 0.65 -0.35 0.64 -0.4 0.64 -0.45 0.63 -0.5 1.94 2.3 -0.76 0.61 -0.78 0.55 -0.79 0.5 -0.8 0.44 -0.81 0.38 -0.82 0.33 -0.82 0.27 -0.83 0.22 -0.83 0.17 -0.83 0.11 -0.82 0.06 -0.82 0.01 -0.81 -0.04 -0.8 -0.09 -0.79 -0.14 -0.78 -0.18 -0.77 -0.23 -0.75 -0.28 -0.73 -0.32 -0.71 -0.36 -0.69 -0.4 -0.66 -0.45 -0.64 -0.49 -0.61 -0.52 -0.58 -0.56 -0.55 -0.6 -0.52 -0.63 -0.49 -0.67 -0.45 -0.7 -0.41 -0.73 -0.37 -0.76 -0.33 -0.79 2.6 0.37zm-2.6 -0.37c-0.3,-0.77 0.09,-1.65 0.86,-1.94 0.77,-0.3 1.65,0.09 1.94,0.86l-2.8 1.09zm-20.2 -3.17l-3 -0.16 2.91 -0.45 0.34 0.8 0.38 0.75 0.42 0.7 0.46 0.65 0.5 0.61 0.53 0.56 0.56 0.51 0.59 0.47 0.62 0.42 0.65 0.38 0.67 0.33 0.69 0.29 0.71 0.24 0.73 0.2 0.74 0.15 0.75 0.1 0.76 0.06 0.76 0.01 0.76 -0.04 0.77 -0.09 0.76 -0.13 0.75 -0.18 0.74 -0.23 0.73 -0.28 0.72 -0.32 0.7 -0.37 0.68 -0.42 0.66 -0.47 0.63 -0.52 0.61 -0.57 0.58 -0.61 0.55 -0.67 2.39 1.83 -0.67 0.82 -0.71 0.76 -0.75 0.7 -0.79 0.64 -0.82 0.58 -0.85 0.52 -0.87 0.46 -0.89 0.4 -0.91 0.34 -0.93 0.28 -0.94 0.22 -0.94 0.16 -0.95 0.11 -0.95 0.05 -0.95 -0.01 -0.94 -0.07 -0.94 -0.13 -0.93 -0.19 -0.91 -0.25 -0.9 -0.31 -0.88 -0.36 -0.85 -0.42 -0.83 -0.48 -0.79 -0.54 -0.76 -0.6 -0.72 -0.66 -0.68 -0.72 -0.63 -0.77 -0.59 -0.83 -0.53 -0.89 -0.48 -0.94 -0.42 -0.99 2.91 -0.45zm-2.91 0.45c-0.29,-0.78 0.1,-1.64 0.87,-1.94 0.78,-0.29 1.64,0.1 1.94,0.87l-2.81 1.07zm-13.22 3.99l-3 -0.19 2.74 -0.75 0.36 0.49 0.39 0.46 0.42 0.42 0.45 0.39 0.47 0.35 0.49 0.31 0.51 0.28 0.52 0.24 0.54 0.2 0.55 0.16 0.55 0.12 0.55 0.08 0.55 0.04 0.55 0 0.54 -0.04 0.53 -0.08 0.52 -0.12 0.5 -0.16 0.49 -0.19 0.47 -0.23 0.45 -0.27 0.42 -0.31 0.4 -0.36 0.37 -0.4 0.35 -0.45 0.32 -0.5 0.29 -0.55 0.25 -0.6 0.21 -0.66 0.17 -0.71 0.12 -0.77 0.07 -0.84 3 0.16 -0.09 1.04 -0.16 0.99 -0.22 0.94 -0.29 0.89 -0.35 0.83 -0.41 0.78 -0.46 0.72 -0.51 0.66 -0.56 0.6 -0.6 0.54 -0.64 0.48 -0.67 0.41 -0.7 0.35 -0.72 0.29 -0.74 0.23 -0.75 0.17 -0.76 0.11 -0.77 0.05 -0.77 -0.01 -0.77 -0.06 -0.76 -0.12 -0.76 -0.17 -0.75 -0.22 -0.73 -0.27 -0.71 -0.33 -0.7 -0.38 -0.67 -0.43 -0.64 -0.48 -0.61 -0.53 -0.58 -0.58 -0.54 -0.63 -0.5 -0.68 2.74 -0.75zm-2.74 0.75c-0.47,-0.69 -0.29,-1.62 0.4,-2.09 0.69,-0.47 1.62,-0.29 2.09,0.4l-2.49 1.69zm-15.95 2.45l-1.53 -2.59 2.23 1.64 -0.14 0.79 -0.04 0.73 0.05 0.67 0.13 0.62 0.2 0.57 0.27 0.53 0.34 0.49 0.4 0.45 0.47 0.42 0.52 0.37 0.58 0.33 0.63 0.28 0.67 0.22 0.7 0.17 0.72 0.11 0.74 0.04 0.75 -0.02 0.75 -0.08 0.75 -0.15 0.74 -0.22 0.72 -0.29 0.69 -0.36 0.66 -0.43 0.62 -0.5 0.58 -0.58 0.54 -0.66 0.49 -0.75 0.43 -0.84 0.37 -0.93 0.3 -1.03 0.22 -1.14 0.13 -1.25 3 0.19 -0.16 1.49 -0.27 1.4 -0.38 1.3 -0.48 1.21 -0.57 1.11 -0.66 1.01 -0.74 0.9 -0.81 0.8 -0.86 0.7 -0.91 0.59 -0.95 0.49 -0.98 0.4 -1 0.3 -1.01 0.21 -1.02 0.11 -1.01 0.03 -1 -0.06 -0.98 -0.15 -0.96 -0.23 -0.93 -0.31 -0.89 -0.39 -0.84 -0.48 -0.79 -0.56 -0.72 -0.64 -0.64 -0.72 -0.55 -0.8 -0.45 -0.88 -0.34 -0.95 -0.21 -1.01 -0.08 -1.06 0.06 -1.1 0.2 -1.13 2.23 1.64zm-2.23 -1.64c0.19,-0.81 1,-1.31 1.81,-1.12 0.81,0.19 1.31,1 1.12,1.81l-2.93 -0.69zm-3.32 -17.85l2.66 -1.41 -0.83 2.12 -1.23 0.49 -1.09 0.56 -0.97 0.61 -0.84 0.66 -0.73 0.7 -0.63 0.74 -0.53 0.77 -0.43 0.79 -0.34 0.81 -0.26 0.83 -0.17 0.84 -0.09 0.85 -0.02 0.85 0.06 0.84 0.13 0.82 0.2 0.8 0.26 0.77 0.32 0.73 0.38 0.68 0.43 0.63 0.47 0.57 0.51 0.5 0.54 0.43 0.57 0.35 0.6 0.27 0.62 0.19 0.65 0.11 0.68 0.02 0.71 -0.08 0.75 -0.18 0.79 -0.3 0.83 -0.43 1.53 2.59 -1.13 0.59 -1.13 0.43 -1.13 0.27 -1.11 0.12 -1.09 -0.03 -1.05 -0.18 -1 -0.31 -0.94 -0.43 -0.88 -0.54 -0.81 -0.63 -0.74 -0.72 -0.66 -0.79 -0.59 -0.86 -0.51 -0.92 -0.43 -0.97 -0.35 -1.01 -0.26 -1.05 -0.17 -1.08 -0.08 -1.1 0.02 -1.12 0.12 -1.12 0.23 -1.12 0.34 -1.11 0.46 -1.09 0.58 -1.06 0.7 -1.02 0.83 -0.97 0.95 -0.91 1.08 -0.84 1.21 -0.76 1.34 -0.68 1.46 -0.59 -0.83 2.12zm0.83 -2.12c0.78,-0.28 1.64,0.13 1.92,0.92 0.28,0.78 -0.13,1.64 -0.92,1.92l-1 -2.84zm16.64 -14.3l3.01 -0 -2.19 1.34 -1.11 -0.53 -1.09 -0.44 -1.07 -0.35 -1.05 -0.26 -1.02 -0.18 -1 -0.11 -0.97 -0.03 -0.93 0.04 -0.9 0.11 -0.87 0.17 -0.83 0.23 -0.79 0.29 -0.74 0.35 -0.7 0.4 -0.65 0.45 -0.61 0.5 -0.56 0.54 -0.5 0.59 -0.45 0.63 -0.4 0.67 -0.34 0.71 -0.28 0.74 -0.21 0.78 -0.15 0.81 -0.08 0.85 -0.01 0.88 0.07 0.91 0.15 0.94 0.23 0.97 0.32 0.99 0.41 1.02 0.5 1.04 -2.66 1.41 -0.59 -1.22 -0.49 -1.22 -0.39 -1.21 -0.28 -1.19 -0.18 -1.18 -0.08 -1.16 0.01 -1.13 0.11 -1.1 0.2 -1.07 0.29 -1.03 0.37 -0.99 0.45 -0.95 0.53 -0.9 0.6 -0.84 0.68 -0.79 0.74 -0.72 0.81 -0.66 0.86 -0.59 0.92 -0.52 0.97 -0.45 1.01 -0.37 1.06 -0.3 1.1 -0.22 1.13 -0.13 1.16 -0.05 1.19 0.04 1.21 0.13 1.23 0.22 1.25 0.31 1.26 0.41 1.27 0.51 1.27 0.61 -2.19 1.34zm2.19 -1.34c0.74,0.38 1.03,1.29 0.65,2.02 -0.38,0.74 -1.29,1.03 -2.02,0.65l1.38 -2.67z"/>
   </g>
   <g>
    <path class="fil0" d="M41.38 186.57c0.2,-0.81 1.02,-1.3 1.82,-1.1 0.81,0.2 1.3,1.02 1.1,1.82l-2.92 -0.72zm-2.09 52.8l-3.01 0 0 0 0.01 -0.42 0.03 -0.61 0.04 -0.8 0.06 -0.98 0.07 -1.15 0.09 -1.31 0.1 -1.46 0.11 -1.6 0.12 -1.72 0.14 -1.83 0.15 -1.92 0.16 -2 0.17 -2.07 0.17 -2.13 0.18 -2.17 0.19 -2.2 0.19 -2.21 0.2 -2.22 0.2 -2.21 0.21 -2.18 0.21 -2.14 0.21 -2.09 0.21 -2.03 0.21 -1.95 0.21 -1.87 0.21 -1.76 0.21 -1.65 0.21 -1.52 0.21 -1.38 0.2 -1.23 0.2 -1.07 0.2 -0.91 2.92 0.72 -0.18 0.79 -0.19 0.99 -0.2 1.18 -0.2 1.34 -0.21 1.49 -0.21 1.62 -0.21 1.74 -0.21 1.85 -0.21 1.94 -0.21 2.02 -0.21 2.08 -0.21 2.14 -0.21 2.17 -0.2 2.2 -0.2 2.21 -0.19 2.21 -0.19 2.19 -0.18 2.16 -0.17 2.12 -0.16 2.07 -0.16 2 -0.15 1.92 -0.14 1.82 -0.12 1.71 -0.11 1.59 -0.1 1.45 -0.09 1.31 -0.07 1.14 -0.06 0.97 -0.04 0.77 -0.02 0.56 -0.01 0.32 0 0zm0 0c0,0.83 -0.67,1.5 -1.5,1.5 -0.83,0 -1.5,-0.67 -1.5,-1.5l3.01 0zm29.01 2.37l2.83 1.01 -1.17 0.98 -0.58 0.08 -0.67 0.06 -0.77 0.05 -0.87 0.04 -0.96 0.03 -1.04 0.02 -1.12 0.01 -1.18 -0 -1.24 -0.01 -1.29 -0.02 -1.33 -0.03 -1.37 -0.04 -1.39 -0.05 -1.4 -0.06 -1.41 -0.07 -1.41 -0.08 -1.39 -0.09 -1.37 -0.1 -1.34 -0.12 -1.3 -0.13 -1.26 -0.14 -1.2 -0.15 -1.14 -0.16 -1.06 -0.17 -0.98 -0.19 -0.9 -0.2 -0.82 -0.22 -0.73 -0.24 -0.66 -0.29 -0.61 -0.39 -0.58 -0.63 -0.31 -1.05 3.01 0 -0.15 -0.54 -0.12 -0.15 0.13 0.08 0.35 0.15 0.52 0.17 0.67 0.18 0.79 0.18 0.9 0.17 1 0.16 1.08 0.15 1.15 0.14 1.22 0.13 1.27 0.12 1.31 0.11 1.34 0.1 1.37 0.09 1.38 0.08 1.39 0.07 1.38 0.06 1.37 0.05 1.35 0.04 1.31 0.03 1.27 0.02 1.22 0.01 1.16 0 1.09 -0.01 1.01 -0.02 0.92 -0.03 0.81 -0.04 0.7 -0.04 0.57 -0.05 0.41 -0.06 -1.17 0.98zm1.17 -0.98c0.82,-0.14 1.59,0.42 1.73,1.24 0.14,0.82 -0.42,1.59 -1.24,1.73l-0.49 -2.97zm4.99 -28.19l-0.09 3.01 0 0 0.63 -0.16 0.24 -0.2 -0.01 0.02 -0.09 0.21 -0.11 0.37 -0.12 0.49 -0.12 0.59 -0.12 0.69 -0.11 0.77 -0.11 0.84 -0.11 0.9 -0.11 0.96 -0.1 1.01 -0.1 1.06 -0.1 1.09 -0.1 1.12 -0.11 1.15 -0.11 1.17 -0.11 1.18 -0.12 1.19 -0.13 1.19 -0.13 1.18 -0.14 1.17 -0.15 1.16 -0.16 1.14 -0.17 1.11 -0.18 1.07 -0.2 1.04 -0.22 0.99 -0.23 0.95 -0.25 0.89 -0.28 0.84 -2.83 -1.01 0.23 -0.7 0.22 -0.78 0.21 -0.85 0.2 -0.92 0.19 -0.97 0.18 -1.02 0.17 -1.06 0.15 -1.1 0.15 -1.13 0.14 -1.15 0.13 -1.16 0.12 -1.17 0.12 -1.18 0.11 -1.17 0.11 -1.16 0.11 -1.15 0.1 -1.13 0.1 -1.1 0.1 -1.07 0.1 -1.03 0.11 -0.98 0.11 -0.93 0.11 -0.88 0.12 -0.82 0.13 -0.76 0.14 -0.7 0.16 -0.63 0.18 -0.58 0.22 -0.54 0.33 -0.53 0.59 -0.54 1.01 -0.27 0 0zm-0 0c0.83,0.02 1.48,0.72 1.46,1.55 -0.02,0.83 -0.72,1.48 -1.55,1.46l0.09 -3.01zm6.98 28.36l-2.3 1.93 0 0 -0.38 -0.56 -0.28 -0.6 -0.24 -0.65 -0.23 -0.73 -0.21 -0.81 -0.21 -0.88 -0.2 -0.95 -0.2 -1.02 -0.19 -1.07 -0.19 -1.12 -0.19 -1.16 -0.18 -1.19 -0.18 -1.22 -0.18 -1.23 -0.18 -1.24 -0.18 -1.24 -0.17 -1.23 -0.17 -1.21 -0.17 -1.19 -0.17 -1.15 -0.17 -1.11 -0.17 -1.05 -0.17 -0.99 -0.17 -0.91 -0.17 -0.83 -0.16 -0.73 -0.16 -0.63 -0.15 -0.5 -0.13 -0.34 -0.07 -0.14 0.14 0.14 0.72 0.26 0.09 -3.01 1.08 0.41 0.5 0.57 0.29 0.55 0.22 0.59 0.2 0.65 0.19 0.73 0.18 0.81 0.18 0.89 0.18 0.96 0.18 1.02 0.17 1.08 0.17 1.12 0.17 1.16 0.17 1.2 0.17 1.22 0.18 1.23 0.18 1.24 0.18 1.24 0.18 1.23 0.18 1.21 0.18 1.18 0.18 1.14 0.18 1.09 0.19 1.04 0.19 0.97 0.19 0.89 0.19 0.81 0.19 0.71 0.18 0.59 0.17 0.46 0.14 0.29 0.05 0.09 0 0zm0 -0c0.53,0.64 0.45,1.59 -0.19,2.12 -0.64,0.53 -1.59,0.45 -2.12,-0.19l2.3 -1.93zm27.99 -0.11l2.14 2.11 0 -0 -0.64 0.43 -0.54 0.2 -0.58 0.15 -0.66 0.13 -0.75 0.12 -0.84 0.11 -0.93 0.1 -1.01 0.1 -1.08 0.09 -1.15 0.08 -1.2 0.07 -1.25 0.07 -1.29 0.06 -1.32 0.05 -1.34 0.04 -1.35 0.03 -1.35 0.02 -1.34 0.01 -1.33 -0.01 -1.3 -0.02 -1.27 -0.03 -1.23 -0.05 -1.18 -0.06 -1.12 -0.07 -1.05 -0.09 -0.98 -0.11 -0.9 -0.13 -0.81 -0.15 -0.73 -0.17 -0.66 -0.22 -0.62 -0.3 -0.62 -0.52 2.3 -1.93 -0.12 -0.11 0.15 0.07 0.37 0.12 0.54 0.13 0.68 0.12 0.79 0.11 0.9 0.1 0.99 0.08 1.06 0.07 1.13 0.06 1.19 0.04 1.24 0.03 1.27 0.02 1.3 0.01 1.32 -0.01 1.33 -0.02 1.33 -0.03 1.31 -0.04 1.29 -0.05 1.27 -0.06 1.22 -0.06 1.18 -0.07 1.12 -0.08 1.05 -0.09 0.97 -0.09 0.88 -0.1 0.78 -0.1 0.66 -0.1 0.53 -0.1 0.37 -0.09 0.14 -0.05 -0.23 0.18 0 -0zm-0 0c0.58,-0.59 1.54,-0.6 2.13,-0.01 0.59,0.58 0.6,1.54 0.01,2.13l-2.14 -2.11zm-3.48 -52.51l2.95 -0.59 0.24 1.28 0.23 1.42 0.23 1.55 0.22 1.68 0.21 1.79 0.21 1.88 0.2 1.97 0.2 2.05 0.19 2.11 0.18 2.16 0.17 2.2 0.16 2.23 0.15 2.25 0.15 2.25 0.13 2.24 0.12 2.22 0.11 2.19 0.1 2.15 0.09 2.09 0.08 2.02 0.06 1.94 0.05 1.85 0.03 1.74 0.02 1.63 0 1.5 -0.01 1.36 -0.03 1.22 -0.05 1.06 -0.07 0.9 -0.09 0.75 -0.15 0.66 -0.48 0.85 -2.14 -2.11 -0.25 0.37 0.05 -0.25 0.07 -0.56 0.06 -0.79 0.04 -0.99 0.03 -1.17 0.01 -1.32 -0 -1.47 -0.02 -1.6 -0.03 -1.72 -0.05 -1.83 -0.06 -1.92 -0.07 -2 -0.09 -2.07 -0.1 -2.13 -0.11 -2.18 -0.12 -2.21 -0.13 -2.23 -0.14 -2.24 -0.15 -2.23 -0.16 -2.22 -0.17 -2.19 -0.18 -2.15 -0.19 -2.09 -0.19 -2.03 -0.2 -1.95 -0.21 -1.86 -0.21 -1.76 -0.22 -1.64 -0.22 -1.51 -0.22 -1.37 -0.22 -1.21zm0 0c-0.16,-0.81 0.37,-1.61 1.18,-1.77 0.81,-0.16 1.61,0.37 1.77,1.18l-2.95 0.59z"/>
   </g>
   <g>
    <path class="fil0" d="M4.34 197.8l-0.69 2.93 0 0 -0.61 -0.2 -0.55 -0.3 -0.49 -0.38 -0.41 -0.43 -0.35 -0.48 -0.29 -0.51 -0.24 -0.54 -0.2 -0.56 -0.16 -0.58 -0.13 -0.6 -0.1 -0.62 -0.07 -0.63 -0.04 -0.65 -0.01 -0.66 0.01 -0.67 0.04 -0.67 0.06 -0.68 0.08 -0.68 0.1 -0.67 0.13 -0.67 0.15 -0.66 0.17 -0.65 0.19 -0.63 0.21 -0.62 0.23 -0.6 0.26 -0.57 0.28 -0.55 0.31 -0.52 0.34 -0.49 0.37 -0.46 0.41 -0.42 0.45 -0.38 1.78 2.42 -0.19 0.16 -0.2 0.21 -0.21 0.26 -0.21 0.31 -0.21 0.36 -0.21 0.4 -0.2 0.44 -0.19 0.47 -0.17 0.5 -0.16 0.52 -0.14 0.54 -0.12 0.56 -0.11 0.57 -0.09 0.57 -0.07 0.58 -0.05 0.57 -0.03 0.57 -0.01 0.56 0.01 0.54 0.03 0.52 0.05 0.5 0.07 0.47 0.09 0.43 0.11 0.39 0.12 0.35 0.13 0.29 0.14 0.24 0.13 0.18 0.12 0.13 0.11 0.09 0.1 0.05 0.11 0.04 0 0zm-0 0c0.81,0.19 1.31,1 1.12,1.81 -0.19,0.81 -1,1.31 -1.81,1.12l0.69 -2.93zm6.94 -10.77l2.9 -0.81 0 0 0.12 0.55 0.06 0.56 0.01 0.57 -0.04 0.57 -0.08 0.58 -0.11 0.59 -0.15 0.59 -0.18 0.6 -0.21 0.6 -0.23 0.6 -0.26 0.6 -0.28 0.6 -0.3 0.6 -0.32 0.59 -0.34 0.58 -0.36 0.57 -0.38 0.56 -0.39 0.54 -0.41 0.52 -0.42 0.5 -0.44 0.47 -0.45 0.45 -0.46 0.42 -0.47 0.39 -0.49 0.35 -0.5 0.31 -0.52 0.27 -0.54 0.22 -0.57 0.16 -0.59 0.09 -0.61 0 -0.61 -0.09 0.69 -2.93 0.13 0.02 0.16 -0 0.19 -0.03 0.23 -0.07 0.26 -0.11 0.29 -0.15 0.31 -0.19 0.33 -0.24 0.34 -0.28 0.35 -0.32 0.35 -0.35 0.35 -0.38 0.35 -0.41 0.34 -0.44 0.33 -0.46 0.32 -0.47 0.31 -0.49 0.3 -0.5 0.28 -0.51 0.26 -0.51 0.24 -0.51 0.22 -0.51 0.19 -0.5 0.17 -0.49 0.14 -0.47 0.11 -0.45 0.08 -0.43 0.05 -0.4 0.02 -0.36 -0 -0.32 -0.03 -0.27 -0.04 -0.21 0 0zm-0 -0c-0.22,-0.8 0.25,-1.63 1.05,-1.85 0.8,-0.22 1.63,0.25 1.85,1.05l-2.9 0.8zm-5.7 -1.58l-1.78 -2.42 0 0 0.38 -0.27 0.39 -0.24 0.4 -0.21 0.4 -0.19 0.4 -0.16 0.41 -0.13 0.41 -0.11 0.41 -0.08 0.41 -0.05 0.4 -0.03 0.4 -0 0.4 0.02 0.39 0.05 0.38 0.07 0.38 0.09 0.37 0.12 0.36 0.14 0.35 0.16 0.34 0.18 0.33 0.2 0.31 0.22 0.3 0.23 0.28 0.25 0.27 0.27 0.25 0.29 0.24 0.3 0.22 0.32 0.2 0.33 0.18 0.34 0.16 0.36 0.14 0.37 0.12 0.38 -2.9 0.81 -0.06 -0.2 -0.07 -0.2 -0.09 -0.19 -0.1 -0.18 -0.11 -0.17 -0.12 -0.17 -0.12 -0.16 -0.13 -0.15 -0.14 -0.14 -0.15 -0.13 -0.16 -0.12 -0.16 -0.11 -0.17 -0.1 -0.18 -0.09 -0.18 -0.08 -0.19 -0.07 -0.19 -0.06 -0.2 -0.05 -0.2 -0.04 -0.21 -0.02 -0.21 -0.01 -0.21 0 -0.22 0.02 -0.22 0.03 -0.23 0.04 -0.23 0.06 -0.23 0.08 -0.24 0.09 -0.24 0.11 -0.24 0.13 -0.24 0.15 -0.25 0.17 0 0zm-0 0c-0.67,0.49 -1.61,0.35 -2.1,-0.32 -0.49,-0.67 -0.35,-1.61 0.32,-2.1l1.78 2.42z"/>
   </g>
   <g>
    <path class="fil0" d="M61.85 107.89c0.1,-0.82 0.84,-1.41 1.67,-1.32 0.82,0.1 1.41,0.84 1.32,1.67l-2.99 -0.35zm14.42 18.19l0 3.01 0 0 -0.94 -0.03 -0.92 -0.1 -0.89 -0.16 -0.87 -0.22 -0.84 -0.27 -0.81 -0.33 -0.78 -0.38 -0.75 -0.43 -0.72 -0.48 -0.68 -0.52 -0.65 -0.56 -0.61 -0.6 -0.58 -0.64 -0.55 -0.68 -0.51 -0.71 -0.48 -0.74 -0.44 -0.77 -0.41 -0.79 -0.37 -0.82 -0.34 -0.84 -0.3 -0.86 -0.27 -0.88 -0.23 -0.89 -0.2 -0.91 -0.16 -0.92 -0.13 -0.93 -0.09 -0.94 -0.06 -0.95 -0.02 -0.96 0.02 -0.96 0.06 -0.96 0.09 -0.97 2.99 0.35 -0.08 0.85 -0.05 0.85 -0.02 0.85 0.02 0.84 0.05 0.84 0.08 0.83 0.11 0.82 0.14 0.8 0.17 0.79 0.2 0.77 0.23 0.75 0.26 0.74 0.29 0.71 0.32 0.69 0.34 0.66 0.37 0.64 0.39 0.61 0.42 0.58 0.44 0.55 0.46 0.51 0.49 0.48 0.51 0.44 0.53 0.41 0.55 0.37 0.57 0.33 0.59 0.29 0.61 0.25 0.64 0.21 0.66 0.17 0.68 0.12 0.71 0.07 0.74 0.03 0 0zm0 0c0.83,0 1.5,0.67 1.5,1.5 0,0.83 -0.67,1.5 -1.5,1.5l0 -3.01zm11.59 -18.62l3 -0.16 0.04 1.1 0.01 1.08 -0.02 1.07 -0.05 1.05 -0.08 1.03 -0.12 1.01 -0.15 0.99 -0.18 0.97 -0.21 0.95 -0.24 0.93 -0.28 0.9 -0.31 0.88 -0.34 0.85 -0.37 0.83 -0.41 0.8 -0.44 0.76 -0.47 0.73 -0.51 0.7 -0.54 0.66 -0.58 0.63 -0.61 0.59 -0.64 0.54 -0.68 0.5 -0.71 0.45 -0.74 0.41 -0.77 0.36 -0.8 0.31 -0.83 0.25 -0.86 0.2 -0.88 0.14 -0.91 0.09 -0.93 0.03 0 -3.01 0.74 -0.02 0.71 -0.07 0.69 -0.11 0.66 -0.15 0.63 -0.19 0.61 -0.23 0.58 -0.27 0.56 -0.31 0.54 -0.34 0.52 -0.38 0.5 -0.42 0.47 -0.46 0.45 -0.49 0.43 -0.53 0.41 -0.56 0.39 -0.6 0.36 -0.63 0.34 -0.66 0.32 -0.7 0.29 -0.73 0.27 -0.76 0.24 -0.79 0.21 -0.82 0.19 -0.84 0.16 -0.87 0.13 -0.89 0.1 -0.92 0.08 -0.94 0.05 -0.96 0.02 -0.98 -0.01 -0.99 -0.04 -1.01zm0 0c-0.04,-0.83 0.59,-1.54 1.42,-1.58 0.83,-0.04 1.54,0.59 1.58,1.42l-3 0.16z"/>
   </g>
   <g>
    <path class="fil0" d="M40.2 208.21c-0.83,-0.05 -1.46,-0.77 -1.4,-1.6 0.05,-0.83 0.77,-1.46 1.6,-1.4l-0.19 3zm19.87 -19.03l2.99 0.27 -0.13 1.09 -0.19 1.07 -0.25 1.04 -0.31 1.02 -0.37 0.99 -0.42 0.96 -0.47 0.93 -0.51 0.9 -0.56 0.87 -0.6 0.84 -0.64 0.8 -0.68 0.77 -0.71 0.74 -0.74 0.7 -0.77 0.67 -0.8 0.63 -0.82 0.6 -0.84 0.56 -0.87 0.52 -0.88 0.49 -0.9 0.45 -0.92 0.41 -0.93 0.37 -0.94 0.33 -0.94 0.28 -0.95 0.24 -0.96 0.2 -0.96 0.15 -0.96 0.11 -0.96 0.06 -0.95 0.01 -0.94 -0.04 0.19 -3 0.79 0.03 0.8 -0.01 0.81 -0.05 0.82 -0.09 0.82 -0.13 0.82 -0.17 0.82 -0.21 0.82 -0.25 0.82 -0.28 0.81 -0.32 0.8 -0.36 0.79 -0.39 0.77 -0.42 0.76 -0.46 0.74 -0.49 0.72 -0.52 0.69 -0.55 0.67 -0.58 0.64 -0.61 0.61 -0.64 0.58 -0.66 0.55 -0.69 0.51 -0.72 0.47 -0.74 0.44 -0.76 0.39 -0.78 0.35 -0.81 0.31 -0.83 0.26 -0.85 0.21 -0.87 0.16 -0.89 0.11 -0.91zm0 0c0.07,-0.83 0.81,-1.44 1.63,-1.36 0.83,0.07 1.44,0.81 1.36,1.63l-2.99 -0.27z"/>
   </g>
   <g>
    <path class="fil0" d="M87.9 189.97c0,-0.83 0.67,-1.5 1.5,-1.5 0.83,0 1.5,0.67 1.5,1.5l-3.01 0zm21.63 14.87l0.03 3.01 -1.18 -0.01 -1.15 -0.06 -1.13 -0.11 -1.11 -0.15 -1.08 -0.2 -1.05 -0.24 -1.02 -0.28 -1 -0.32 -0.97 -0.36 -0.94 -0.4 -0.91 -0.44 -0.87 -0.47 -0.84 -0.51 -0.81 -0.54 -0.77 -0.57 -0.74 -0.6 -0.7 -0.63 -0.66 -0.66 -0.62 -0.68 -0.58 -0.71 -0.54 -0.73 -0.5 -0.75 -0.46 -0.78 -0.41 -0.8 -0.37 -0.81 -0.32 -0.83 -0.28 -0.85 -0.23 -0.86 -0.18 -0.87 -0.13 -0.88 -0.08 -0.89 -0.03 -0.9 3.01 0 0.02 0.72 0.06 0.72 0.1 0.71 0.15 0.7 0.18 0.7 0.22 0.69 0.26 0.68 0.3 0.67 0.34 0.65 0.38 0.64 0.41 0.62 0.45 0.61 0.49 0.59 0.52 0.57 0.56 0.55 0.59 0.53 0.62 0.51 0.66 0.48 0.69 0.46 0.72 0.43 0.75 0.4 0.78 0.38 0.81 0.35 0.84 0.31 0.87 0.28 0.9 0.25 0.92 0.21 0.95 0.17 0.98 0.13 1 0.09 1.03 0.05 1.05 0.01zm0 0c0.83,-0.01 1.51,0.66 1.52,1.49 0.01,0.83 -0.66,1.51 -1.49,1.52l-0.03 -3.01z"/>
   </g>
   <g>
    <path class="fil0" d="M96.54 104.87c-0.76,-0.33 -1.11,-1.22 -0.78,-1.98 0.33,-0.76 1.22,-1.11 1.98,-0.78l-1.2 2.76zm37.4 26.25l-2.2 2.05 -0.08 -0.09 -0.57 -0.7 -0.63 -0.75 -0.69 -0.79 -0.75 -0.83 -0.8 -0.87 -0.85 -0.9 -0.9 -0.93 -0.95 -0.95 -0.99 -0.97 -1.03 -0.99 -1.06 -1 -1.1 -1.02 -1.13 -1.02 -1.16 -1.03 -1.18 -1.03 -1.2 -1.03 -1.23 -1.02 -1.24 -1.01 -1.26 -1 -1.27 -0.98 -1.28 -0.96 -1.29 -0.94 -1.29 -0.92 -1.29 -0.89 -1.29 -0.86 -1.28 -0.82 -1.27 -0.78 -1.26 -0.74 -1.25 -0.7 -1.23 -0.65 -1.21 -0.6 -1.19 -0.54 1.2 -2.76 1.27 0.58 1.29 0.63 1.3 0.68 1.31 0.73 1.32 0.77 1.32 0.81 1.33 0.85 1.33 0.89 1.33 0.92 1.32 0.94 1.32 0.97 1.31 0.99 1.3 1.01 1.29 1.02 1.27 1.03 1.25 1.04 1.23 1.05 1.21 1.05 1.18 1.05 1.15 1.04 1.12 1.04 1.09 1.03 1.05 1.01 1.01 0.99 0.97 0.97 0.92 0.95 0.88 0.92 0.83 0.89 0.78 0.86 0.72 0.83 0.67 0.79 0.61 0.75 -0.08 -0.09zm0.08 0.09c0.52,0.65 0.41,1.6 -0.24,2.11 -0.65,0.52 -1.6,0.41 -2.11,-0.24l2.35 -1.87zm-13.19 20.78l0.75 -2.91 -0 -0 -0.5 -0.01 -0.1 0.03 0.12 -0.08 0.25 -0.2 0.32 -0.3 0.38 -0.38 0.42 -0.46 0.45 -0.53 0.48 -0.59 0.5 -0.64 0.52 -0.68 0.53 -0.72 0.54 -0.75 0.54 -0.78 0.54 -0.8 0.54 -0.81 0.52 -0.82 0.51 -0.82 0.49 -0.81 0.47 -0.8 0.44 -0.78 0.41 -0.75 0.37 -0.72 0.33 -0.68 0.28 -0.63 0.23 -0.57 0.18 -0.49 0.12 -0.4 0.06 -0.29 0.01 -0.12 0.03 0.11 0.21 0.34 2.2 -2.05 0.45 0.77 0.12 0.71 -0.03 0.63 -0.11 0.6 -0.18 0.62 -0.23 0.65 -0.28 0.68 -0.32 0.71 -0.36 0.75 -0.4 0.78 -0.43 0.8 -0.46 0.82 -0.49 0.84 -0.51 0.85 -0.53 0.85 -0.54 0.85 -0.56 0.84 -0.56 0.83 -0.57 0.81 -0.56 0.79 -0.56 0.76 -0.55 0.72 -0.54 0.68 -0.52 0.64 -0.51 0.59 -0.49 0.53 -0.47 0.47 -0.45 0.42 -0.45 0.36 -0.49 0.3 -0.62 0.23 -0.92 -0 -0 -0zm0 0c-0.8,-0.21 -1.29,-1.03 -1.08,-1.83 0.21,-0.8 1.03,-1.29 1.83,-1.08l-0.75 2.91zm-7.01 -5.47l-3 0.14 2.18 -1.41 0.01 0.01 0.06 0.03 0.09 0.04 0.12 0.06 0.15 0.08 0.18 0.09 0.21 0.11 0.23 0.12 0.26 0.13 0.28 0.14 0.3 0.14 0.31 0.15 0.33 0.16 0.34 0.16 0.35 0.17 0.36 0.17 0.36 0.17 0.37 0.17 0.37 0.17 0.37 0.17 0.37 0.16 0.36 0.16 0.36 0.16 0.34 0.15 0.33 0.14 0.32 0.13 0.3 0.12 0.28 0.11 0.26 0.09 0.23 0.08 0.2 0.06 0.16 0.04 -0.75 2.91 -0.27 -0.08 -0.28 -0.09 -0.29 -0.1 -0.31 -0.11 -0.32 -0.12 -0.34 -0.13 -0.34 -0.14 -0.36 -0.15 -0.37 -0.16 -0.37 -0.16 -0.38 -0.17 -0.38 -0.17 -0.38 -0.17 -0.38 -0.17 -0.38 -0.18 -0.37 -0.17 -0.37 -0.17 -0.36 -0.17 -0.35 -0.17 -0.34 -0.16 -0.32 -0.15 -0.3 -0.15 -0.28 -0.14 -0.26 -0.13 -0.24 -0.12 -0.21 -0.11 -0.19 -0.09 -0.16 -0.08 -0.13 -0.06 -0.09 -0.05 -0.05 -0.03 -0.02 -0.01 2.18 -1.41zm-2.18 1.41c-0.74,-0.37 -1.04,-1.28 -0.66,-2.02 0.37,-0.74 1.28,-1.04 2.02,-0.66l-1.36 2.68zm2.16 38.56l-2.77 -1.18 0 0 0.17 -0.45 0.16 -0.53 0.15 -0.61 0.13 -0.68 0.12 -0.75 0.1 -0.81 0.08 -0.87 0.07 -0.92 0.05 -0.98 0.04 -1.03 0.02 -1.08 0.01 -1.12 -0 -1.17 -0.02 -1.21 -0.03 -1.25 -0.04 -1.28 -0.05 -1.32 -0.06 -1.35 -0.06 -1.38 -0.07 -1.41 -0.07 -1.44 -0.08 -1.46 -0.08 -1.49 -0.09 -1.51 -0.09 -1.52 -0.09 -1.54 -0.09 -1.55 -0.09 -1.57 -0.09 -1.58 -0.08 -1.59 -0.08 -1.59 -0.08 -1.6 3 -0.14 0.07 1.59 0.08 1.59 0.08 1.58 0.09 1.57 0.09 1.56 0.09 1.55 0.09 1.54 0.09 1.52 0.09 1.51 0.08 1.49 0.08 1.47 0.07 1.45 0.07 1.42 0.06 1.4 0.06 1.37 0.05 1.34 0.04 1.31 0.03 1.27 0.02 1.24 0 1.2 -0.01 1.16 -0.02 1.12 -0.04 1.08 -0.05 1.03 -0.07 0.99 -0.09 0.95 -0.11 0.9 -0.13 0.85 -0.16 0.8 -0.19 0.76 -0.22 0.71 -0.25 0.66 0 0zm-0 0c-0.33,0.76 -1.21,1.12 -1.97,0.79 -0.76,-0.33 -1.12,-1.21 -0.79,-1.97l2.76 1.18zm-76.82 -0.63l2.5 -1.67 -0 -0 0.12 0.08 0.62 0.33 1.06 0.38 1.41 0.39 1.73 0.37 2 0.35 2.25 0.33 2.47 0.31 2.66 0.28 2.83 0.25 2.97 0.22 3.09 0.19 3.18 0.16 3.25 0.13 3.3 0.1 3.32 0.07 3.32 0.04 3.29 0 3.24 -0.03 3.16 -0.06 3.06 -0.1 2.94 -0.13 2.79 -0.17 2.61 -0.21 2.41 -0.24 2.18 -0.28 1.93 -0.31 1.64 -0.34 1.31 -0.37 0.93 -0.37 0.47 -0.28 0.01 0.03 2.77 1.18 -0.84 1.09 -1.09 0.69 -1.31 0.52 -1.55 0.44 -1.8 0.38 -2.05 0.33 -2.27 0.29 -2.48 0.25 -2.67 0.21 -2.84 0.17 -2.98 0.14 -3.1 0.1 -3.2 0.07 -3.27 0.03 -3.32 -0 -3.35 -0.04 -3.35 -0.07 -3.33 -0.1 -3.28 -0.13 -3.22 -0.17 -3.13 -0.2 -3.01 -0.23 -2.87 -0.26 -2.71 -0.28 -2.53 -0.31 -2.33 -0.34 -2.1 -0.37 -1.86 -0.4 -1.61 -0.44 -1.35 -0.49 -1.12 -0.6 -0.92 -0.89 -0 -0zm0 0c-0.46,-0.69 -0.28,-1.62 0.41,-2.09 0.69,-0.46 1.62,-0.28 2.09,0.41l-2.5 1.67zm7.31 -38.87l-1.49 -2.61 2.19 1.73 -0.36 1.26 -0.36 1.32 -0.35 1.37 -0.34 1.41 -0.34 1.45 -0.33 1.48 -0.32 1.5 -0.31 1.52 -0.3 1.54 -0.29 1.54 -0.28 1.55 -0.26 1.54 -0.25 1.53 -0.23 1.52 -0.22 1.5 -0.2 1.47 -0.19 1.44 -0.17 1.4 -0.15 1.36 -0.13 1.31 -0.11 1.25 -0.09 1.19 -0.07 1.12 -0.05 1.05 -0.03 0.97 -0.01 0.88 0.02 0.78 0.04 0.67 0.06 0.55 0.07 0.4 0.06 0.23 -0.01 -0.01 -2.5 1.67 -0.31 -0.61 -0.18 -0.61 -0.12 -0.65 -0.08 -0.72 -0.05 -0.79 -0.02 -0.88 0.01 -0.95 0.03 -1.03 0.05 -1.1 0.07 -1.17 0.1 -1.23 0.12 -1.29 0.14 -1.34 0.16 -1.39 0.17 -1.43 0.19 -1.46 0.21 -1.5 0.22 -1.52 0.24 -1.54 0.25 -1.56 0.27 -1.57 0.28 -1.57 0.29 -1.57 0.3 -1.56 0.32 -1.55 0.32 -1.53 0.33 -1.51 0.34 -1.48 0.35 -1.44 0.36 -1.4 0.37 -1.36 0.37 -1.31 2.19 1.73zm-2.19 -1.73c0.23,-0.8 1.07,-1.25 1.87,-1.02 0.8,0.23 1.25,1.07 1.02,1.87l-2.88 -0.85zm-8.35 8.38l-1.4 -2.66 -0 0 0.43 -0.23 0.42 -0.23 0.41 -0.23 0.4 -0.23 0.39 -0.23 0.38 -0.23 0.37 -0.23 0.37 -0.23 0.36 -0.22 0.35 -0.22 0.35 -0.22 0.34 -0.22 0.33 -0.22 0.33 -0.22 0.32 -0.22 0.32 -0.22 0.31 -0.21 0.31 -0.21 0.3 -0.21 0.3 -0.21 0.29 -0.2 0.29 -0.2 0.29 -0.2 0.28 -0.19 0.28 -0.19 0.28 -0.19 0.28 -0.18 0.28 -0.18 0.27 -0.17 0.27 -0.17 0.27 -0.16 0.27 -0.16 1.49 2.61 -0.24 0.14 -0.24 0.14 -0.24 0.15 -0.25 0.16 -0.25 0.16 -0.26 0.17 -0.26 0.17 -0.27 0.18 -0.27 0.18 -0.28 0.19 -0.29 0.2 -0.29 0.2 -0.3 0.21 -0.3 0.21 -0.31 0.21 -0.32 0.22 -0.32 0.22 -0.33 0.22 -0.34 0.23 -0.35 0.23 -0.35 0.23 -0.36 0.23 -0.37 0.23 -0.38 0.24 -0.39 0.24 -0.4 0.24 -0.4 0.24 -0.41 0.24 -0.42 0.24 -0.43 0.24 -0.44 0.24 -0.45 0.24 -0 0zm0 -0c-0.73,0.39 -1.64,0.11 -2.03,-0.63 -0.39,-0.73 -0.11,-1.64 0.63,-2.03l1.4 2.66zm-15.46 -22.08l2.41 1.8 0 0 0.19 -0.43 0.01 -0.07 0.03 0.19 0.1 0.35 0.17 0.47 0.24 0.56 0.3 0.64 0.35 0.7 0.4 0.75 0.45 0.8 0.48 0.83 0.52 0.86 0.55 0.88 0.57 0.9 0.59 0.9 0.6 0.9 0.61 0.89 0.62 0.88 0.62 0.86 0.61 0.83 0.6 0.79 0.59 0.74 0.57 0.69 0.54 0.63 0.51 0.56 0.47 0.48 0.42 0.4 0.35 0.3 0.25 0.18 0.09 0.05 -0.19 -0.03 -0.56 0.13 1.4 2.66 -1.01 0.21 -0.75 -0.17 -0.57 -0.3 -0.51 -0.36 -0.51 -0.43 -0.52 -0.5 -0.54 -0.56 -0.57 -0.63 -0.59 -0.68 -0.61 -0.74 -0.62 -0.78 -0.63 -0.82 -0.64 -0.86 -0.64 -0.89 -0.64 -0.91 -0.63 -0.92 -0.62 -0.93 -0.61 -0.93 -0.59 -0.93 -0.57 -0.92 -0.54 -0.9 -0.51 -0.88 -0.47 -0.85 -0.43 -0.81 -0.39 -0.77 -0.34 -0.73 -0.29 -0.68 -0.23 -0.64 -0.17 -0.61 -0.1 -0.61 0.02 -0.7 0.36 -0.87 0 0zm0 0c0.5,-0.66 1.44,-0.8 2.1,-0.3 0.66,0.5 0.8,1.44 0.3,2.1l-2.41 -1.8zm35.71 -28.35l1.22 2.75 -1.23 0.57 -1.26 0.63 -1.29 0.69 -1.31 0.74 -1.32 0.79 -1.33 0.84 -1.34 0.88 -1.35 0.92 -1.35 0.95 -1.34 0.97 -1.34 1 -1.33 1.02 -1.31 1.03 -1.29 1.04 -1.27 1.04 -1.25 1.05 -1.22 1.04 -1.19 1.04 -1.15 1.02 -1.11 1.01 -1.07 0.99 -1.02 0.96 -0.97 0.93 -0.92 0.9 -0.86 0.86 -0.8 0.81 -0.73 0.77 -0.67 0.71 -0.59 0.66 -0.51 0.59 -0.43 0.52 -0.34 0.44 -2.41 -1.8 0.41 -0.53 0.48 -0.58 0.56 -0.64 0.63 -0.69 0.69 -0.75 0.76 -0.79 0.82 -0.84 0.88 -0.88 0.94 -0.92 0.99 -0.95 1.04 -0.98 1.09 -1.01 1.13 -1.02 1.17 -1.04 1.21 -1.05 1.24 -1.06 1.27 -1.07 1.3 -1.07 1.32 -1.06 1.34 -1.05 1.36 -1.04 1.37 -1.02 1.38 -1 1.38 -0.97 1.39 -0.94 1.39 -0.91 1.39 -0.87 1.38 -0.83 1.37 -0.78 1.36 -0.73 1.34 -0.67 1.32 -0.61zm0 0c0.76,-0.34 1.65,0.01 1.98,0.77 0.34,0.76 -0.01,1.65 -0.77,1.98l-1.22 -2.75z"/>
   </g>
   <g>
    <path class="fil0" d="M92.89 243.35c-0.04,-0.83 0.61,-1.53 1.44,-1.57 0.83,-0.04 1.53,0.61 1.57,1.44l-3 0.13zm5.76 55.05l-3 0.15 -0.07 -1.29 -0.07 -1.3 -0.07 -1.31 -0.07 -1.32 -0.07 -1.33 -0.07 -1.35 -0.07 -1.37 -0.07 -1.39 -0.08 -1.41 -0.08 -1.43 -0.08 -1.46 -0.08 -1.49 -0.08 -1.52 -0.08 -1.55 -0.08 -1.58 -0.09 -1.62 -0.09 -1.66 -0.09 -1.7 -0.09 -1.74 -0.09 -1.78 -0.09 -1.83 -0.09 -1.88 -0.09 -1.93 -0.1 -1.98 -0.1 -2.04 -0.1 -2.09 -0.1 -2.15 -0.1 -2.21 -0.1 -2.28 -0.1 -2.34 -0.11 -2.41 -0.11 -2.48 3 -0.13 0.11 2.48 0.11 2.41 0.1 2.34 0.1 2.27 0.1 2.21 0.1 2.15 0.1 2.09 0.1 2.03 0.1 1.98 0.09 1.93 0.09 1.88 0.09 1.83 0.09 1.78 0.09 1.74 0.09 1.69 0.09 1.65 0.09 1.62 0.08 1.58 0.08 1.55 0.08 1.51 0.08 1.49 0.08 1.46 0.08 1.43 0.08 1.41 0.07 1.39 0.07 1.37 0.07 1.35 0.07 1.34 0.07 1.32 0.07 1.31 0.07 1.3 0.07 1.3zm0 0c0.04,0.83 -0.6,1.54 -1.43,1.58 -0.83,0.04 -1.54,-0.6 -1.58,-1.43l3 -0.15z"/>
   </g>
   <g>
    <path class="fil0" d="M108.39 304.45l0.04 -3.01 0 0 0.71 0.01 0.68 -0.01 0.66 -0.02 0.63 -0.02 0.6 -0.04 0.58 -0.04 0.55 -0.05 0.52 -0.06 0.5 -0.07 0.47 -0.08 0.44 -0.09 0.41 -0.09 0.39 -0.1 0.36 -0.11 0.33 -0.11 0.3 -0.12 0.28 -0.12 0.25 -0.12 0.22 -0.13 0.2 -0.13 0.17 -0.12 0.15 -0.12 0.13 -0.12 0.1 -0.12 0.09 -0.12 0.07 -0.11 0.06 -0.11 0.05 -0.11 0.04 -0.12 0.03 -0.12 0.02 -0.13 0.01 -0.15 3.01 0 -0.02 0.39 -0.05 0.38 -0.08 0.38 -0.11 0.37 -0.15 0.36 -0.18 0.35 -0.21 0.33 -0.23 0.31 -0.26 0.3 -0.28 0.28 -0.31 0.26 -0.33 0.24 -0.35 0.22 -0.37 0.21 -0.39 0.19 -0.4 0.18 -0.42 0.16 -0.44 0.15 -0.46 0.14 -0.48 0.13 -0.5 0.11 -0.53 0.1 -0.55 0.09 -0.57 0.08 -0.59 0.07 -0.61 0.06 -0.63 0.05 -0.66 0.04 -0.68 0.03 -0.7 0.02 -0.73 0.01 -0.75 -0.01 0 0zm0 0c-0.83,-0.01 -1.49,-0.69 -1.48,-1.52 0.01,-0.83 0.69,-1.49 1.52,-1.48l-0.04 3.01zm-12.74 -5.98l3.01 0 0 0 0.01 0.26 0.03 0.23 0.04 0.2 0.05 0.18 0.06 0.15 0.07 0.14 0.08 0.13 0.09 0.12 0.11 0.12 0.13 0.11 0.15 0.11 0.18 0.11 0.2 0.11 0.23 0.11 0.26 0.1 0.29 0.1 0.32 0.09 0.34 0.08 0.37 0.08 0.39 0.07 0.42 0.06 0.44 0.06 0.46 0.05 0.48 0.04 0.5 0.04 0.52 0.03 0.54 0.03 0.56 0.02 0.58 0.02 0.6 0.01 0.62 0.01 0.63 0.01 -0.04 3.01 -0.65 -0.01 -0.63 -0.01 -0.62 -0.02 -0.6 -0.02 -0.59 -0.02 -0.58 -0.03 -0.56 -0.03 -0.55 -0.04 -0.53 -0.05 -0.52 -0.06 -0.51 -0.06 -0.49 -0.07 -0.48 -0.08 -0.46 -0.1 -0.45 -0.11 -0.44 -0.13 -0.42 -0.14 -0.41 -0.16 -0.4 -0.18 -0.38 -0.21 -0.36 -0.23 -0.35 -0.26 -0.33 -0.29 -0.3 -0.32 -0.27 -0.35 -0.24 -0.37 -0.2 -0.4 -0.16 -0.42 -0.12 -0.44 -0.09 -0.45 -0.05 -0.46 -0.02 -0.47 0 0zm0 0c0,-0.83 0.67,-1.5 1.5,-1.5 0.83,0 1.5,0.67 1.5,1.5l-3.01 0zm14.33 -6.77l-0.37 2.98 -0 0 -0.52 -0.06 -0.52 -0.04 -0.52 -0.02 -0.52 -0.01 -0.52 0.01 -0.52 0.02 -0.52 0.04 -0.51 0.06 -0.5 0.07 -0.49 0.08 -0.48 0.1 -0.47 0.11 -0.46 0.12 -0.44 0.13 -0.43 0.15 -0.41 0.16 -0.39 0.16 -0.37 0.17 -0.34 0.18 -0.32 0.19 -0.29 0.19 -0.27 0.2 -0.24 0.2 -0.21 0.2 -0.18 0.19 -0.15 0.19 -0.12 0.18 -0.09 0.17 -0.07 0.17 -0.05 0.16 -0.03 0.15 -0.01 0.16 -3.01 0 0.03 -0.5 0.09 -0.49 0.14 -0.47 0.19 -0.45 0.23 -0.43 0.26 -0.4 0.3 -0.38 0.33 -0.36 0.36 -0.33 0.38 -0.31 0.4 -0.3 0.42 -0.28 0.44 -0.26 0.46 -0.24 0.48 -0.23 0.5 -0.21 0.51 -0.19 0.52 -0.18 0.54 -0.16 0.55 -0.15 0.56 -0.13 0.57 -0.12 0.58 -0.1 0.59 -0.08 0.6 -0.06 0.6 -0.05 0.61 -0.03 0.61 -0.01 0.61 0.01 0.62 0.03 0.62 0.05 0.62 0.07 -0 0zm0 0c0.82,0.1 1.41,0.86 1.3,1.68 -0.1,0.82 -0.86,1.41 -1.68,1.3l0.37 -2.98zm11.43 6.77l-3.01 0 0 0 0 0.05 0 0.01 -0.01 -0.02 -0.02 -0.04 -0.04 -0.07 -0.06 -0.09 -0.08 -0.11 -0.1 -0.12 -0.13 -0.14 -0.15 -0.14 -0.17 -0.15 -0.19 -0.16 -0.21 -0.16 -0.23 -0.16 -0.25 -0.17 -0.27 -0.17 -0.29 -0.17 -0.31 -0.17 -0.33 -0.16 -0.35 -0.16 -0.37 -0.16 -0.39 -0.15 -0.41 -0.15 -0.42 -0.14 -0.44 -0.14 -0.46 -0.13 -0.48 -0.12 -0.49 -0.12 -0.51 -0.11 -0.53 -0.1 -0.54 -0.09 -0.56 -0.08 0.37 -2.98 0.63 0.09 0.61 0.1 0.6 0.11 0.58 0.12 0.56 0.13 0.55 0.14 0.53 0.15 0.51 0.16 0.5 0.17 0.48 0.18 0.46 0.18 0.44 0.19 0.42 0.2 0.41 0.2 0.39 0.21 0.37 0.21 0.36 0.22 0.34 0.22 0.32 0.22 0.3 0.23 0.28 0.23 0.26 0.24 0.25 0.24 0.23 0.25 0.21 0.25 0.19 0.26 0.17 0.27 0.15 0.28 0.13 0.3 0.1 0.32 0.07 0.34 0.02 0.36 0 0zm0 0c0,0.83 -0.67,1.5 -1.5,1.5 -0.83,0 -1.5,-0.67 -1.5,-1.5l3.01 0z"/>
   </g>
   <g>
    <path class="fil0" d="M54.18 242.26c0.04,-0.83 0.74,-1.47 1.57,-1.44 0.83,0.04 1.47,0.74 1.44,1.57l-3 -0.13zm0.25 56.29l-3 -0.15 0.07 -1.3 0.07 -1.31 0.07 -1.32 0.07 -1.34 0.07 -1.36 0.07 -1.38 0.07 -1.4 0.07 -1.42 0.08 -1.44 0.08 -1.47 0.08 -1.5 0.08 -1.53 0.08 -1.56 0.08 -1.59 0.08 -1.62 0.09 -1.66 0.09 -1.7 0.09 -1.74 0.09 -1.78 0.09 -1.82 0.09 -1.87 0.09 -1.92 0.09 -1.96 0.1 -2.01 0.1 -2.07 0.1 -2.12 0.1 -2.18 0.1 -2.23 0.1 -2.29 0.1 -2.35 0.11 -2.42 0.11 -2.48 3 0.13 -0.11 2.48 -0.11 2.42 -0.1 2.35 -0.1 2.29 -0.1 2.23 -0.1 2.18 -0.1 2.12 -0.1 2.07 -0.1 2.02 -0.09 1.97 -0.09 1.92 -0.09 1.87 -0.09 1.83 -0.09 1.78 -0.09 1.74 -0.09 1.7 -0.09 1.66 -0.08 1.63 -0.08 1.59 -0.08 1.56 -0.08 1.53 -0.08 1.5 -0.08 1.47 -0.08 1.44 -0.07 1.42 -0.07 1.4 -0.07 1.38 -0.07 1.36 -0.07 1.34 -0.07 1.32 -0.07 1.31 -0.07 1.3zm0 0c-0.04,0.83 -0.75,1.47 -1.58,1.43 -0.83,-0.04 -1.47,-0.75 -1.43,-1.58l3 0.15z"/>
   </g>
   <g>
    <path class="fil0" d="M41.64 301.44l0.04 3.01 0 0 -0.75 0.01 -0.73 -0.01 -0.7 -0.02 -0.68 -0.03 -0.66 -0.04 -0.63 -0.05 -0.61 -0.06 -0.59 -0.07 -0.57 -0.08 -0.55 -0.09 -0.53 -0.1 -0.5 -0.11 -0.48 -0.13 -0.46 -0.14 -0.44 -0.15 -0.42 -0.16 -0.4 -0.18 -0.39 -0.19 -0.37 -0.21 -0.35 -0.22 -0.33 -0.24 -0.31 -0.26 -0.28 -0.28 -0.26 -0.3 -0.23 -0.31 -0.21 -0.33 -0.18 -0.35 -0.15 -0.36 -0.11 -0.37 -0.08 -0.38 -0.05 -0.38 -0.02 -0.39 3.01 0 0.01 0.15 0.02 0.13 0.03 0.12 0.04 0.12 0.05 0.12 0.06 0.11 0.07 0.11 0.09 0.12 0.1 0.12 0.13 0.12 0.15 0.12 0.17 0.12 0.2 0.13 0.22 0.13 0.25 0.12 0.28 0.12 0.3 0.12 0.33 0.11 0.36 0.11 0.39 0.1 0.41 0.09 0.44 0.09 0.47 0.08 0.5 0.07 0.52 0.06 0.55 0.05 0.58 0.04 0.6 0.04 0.63 0.02 0.66 0.02 0.68 0.01 0.71 -0.01 0 0zm0 0c0.83,-0.01 1.51,0.65 1.52,1.48 0.01,0.83 -0.65,1.51 -1.48,1.52l-0.04 -3.01zm9.78 -2.98l3.01 0 0 0 -0.02 0.47 -0.05 0.46 -0.09 0.45 -0.12 0.44 -0.16 0.42 -0.2 0.4 -0.24 0.37 -0.27 0.35 -0.3 0.32 -0.33 0.29 -0.35 0.26 -0.36 0.23 -0.38 0.21 -0.4 0.18 -0.41 0.16 -0.42 0.14 -0.44 0.13 -0.45 0.11 -0.46 0.1 -0.48 0.08 -0.49 0.07 -0.51 0.06 -0.52 0.06 -0.53 0.05 -0.55 0.04 -0.56 0.03 -0.58 0.03 -0.59 0.02 -0.6 0.02 -0.62 0.02 -0.63 0.01 -0.65 0.01 -0.04 -3.01 0.63 -0.01 0.62 -0.01 0.6 -0.01 0.58 -0.02 0.56 -0.02 0.54 -0.03 0.52 -0.03 0.5 -0.04 0.48 -0.04 0.46 -0.05 0.44 -0.06 0.42 -0.06 0.39 -0.07 0.37 -0.08 0.34 -0.08 0.32 -0.09 0.29 -0.1 0.26 -0.1 0.23 -0.11 0.2 -0.11 0.18 -0.11 0.15 -0.11 0.13 -0.11 0.11 -0.12 0.09 -0.12 0.08 -0.13 0.07 -0.14 0.06 -0.15 0.05 -0.18 0.04 -0.2 0.03 -0.23 0.01 -0.26 0 0zm0 0c0,-0.83 0.67,-1.5 1.5,-1.5 0.83,0 1.5,0.67 1.5,1.5l-3.01 0zm-10.95 -3.78l-0.37 -2.98 -0 0 0.62 -0.07 0.62 -0.05 0.62 -0.03 0.61 -0.01 0.61 0.01 0.61 0.03 0.6 0.05 0.6 0.06 0.59 0.08 0.58 0.1 0.57 0.12 0.56 0.13 0.55 0.15 0.54 0.16 0.52 0.18 0.51 0.19 0.5 0.21 0.48 0.23 0.46 0.24 0.44 0.26 0.42 0.28 0.4 0.3 0.38 0.31 0.36 0.33 0.33 0.36 0.3 0.38 0.26 0.4 0.23 0.43 0.19 0.45 0.14 0.47 0.09 0.49 0.03 0.5 -3.01 0 -0.01 -0.16 -0.03 -0.15 -0.05 -0.16 -0.07 -0.17 -0.09 -0.17 -0.12 -0.18 -0.15 -0.19 -0.18 -0.19 -0.21 -0.2 -0.24 -0.2 -0.27 -0.2 -0.29 -0.19 -0.32 -0.19 -0.34 -0.18 -0.37 -0.17 -0.39 -0.16 -0.41 -0.16 -0.43 -0.15 -0.44 -0.13 -0.46 -0.12 -0.47 -0.11 -0.48 -0.1 -0.49 -0.08 -0.5 -0.07 -0.51 -0.05 -0.52 -0.04 -0.52 -0.02 -0.52 -0.01 -0.52 0.01 -0.52 0.02 -0.52 0.04 -0.52 0.06 -0 0zm0 0c-0.82,0.1 -1.58,-0.48 -1.68,-1.3 -0.1,-0.82 0.48,-1.58 1.3,-1.68l0.37 2.98zm-8.79 3.78l-3.01 0 0 0 0.02 -0.36 0.07 -0.34 0.1 -0.32 0.13 -0.3 0.15 -0.28 0.17 -0.27 0.19 -0.26 0.21 -0.25 0.23 -0.25 0.25 -0.24 0.26 -0.24 0.28 -0.23 0.3 -0.23 0.32 -0.22 0.34 -0.22 0.35 -0.22 0.37 -0.21 0.39 -0.21 0.41 -0.2 0.43 -0.2 0.44 -0.19 0.46 -0.18 0.48 -0.17 0.5 -0.17 0.51 -0.16 0.53 -0.15 0.55 -0.14 0.56 -0.13 0.58 -0.12 0.6 -0.11 0.61 -0.1 0.63 -0.09 0.37 2.98 -0.56 0.08 -0.54 0.09 -0.53 0.1 -0.51 0.11 -0.49 0.12 -0.48 0.12 -0.46 0.13 -0.44 0.14 -0.42 0.14 -0.41 0.15 -0.39 0.15 -0.37 0.16 -0.35 0.16 -0.33 0.16 -0.31 0.17 -0.29 0.17 -0.27 0.17 -0.25 0.17 -0.23 0.16 -0.21 0.16 -0.19 0.16 -0.17 0.15 -0.15 0.14 -0.13 0.13 -0.1 0.12 -0.08 0.11 -0.06 0.09 -0.04 0.07 -0.02 0.04 -0.01 0.02 0 -0.01 0 -0.05 0 0zm0 0c0,0.83 -0.67,1.5 -1.5,1.5 -0.83,0 -1.5,-0.67 -1.5,-1.5l3.01 0z"/>
   </g>
   <g>
    <path class="fil0" d="M25.72 145.72c0.36,-0.75 1.26,-1.06 2.01,-0.7 0.75,0.36 1.06,1.26 0.7,2.01l-2.71 -1.31zm-14.73 38.1l-2.82 -1.03 0.45 -1.22 0.47 -1.23 0.49 -1.24 0.51 -1.24 0.53 -1.25 0.54 -1.25 0.55 -1.26 0.56 -1.26 0.57 -1.26 0.58 -1.26 0.59 -1.26 0.6 -1.25 0.6 -1.25 0.61 -1.24 0.61 -1.23 0.61 -1.22 0.61 -1.21 0.61 -1.2 0.6 -1.19 0.6 -1.17 0.59 -1.16 0.58 -1.14 0.57 -1.12 0.56 -1.1 0.55 -1.08 0.54 -1.05 0.52 -1.03 0.51 -1 0.49 -0.97 0.47 -0.94 0.45 -0.91 0.43 -0.88 2.71 1.31 -0.44 0.89 -0.46 0.92 -0.47 0.95 -0.49 0.98 -0.51 1.01 -0.53 1.03 -0.54 1.06 -0.55 1.08 -0.56 1.1 -0.57 1.12 -0.58 1.14 -0.59 1.15 -0.59 1.17 -0.6 1.18 -0.6 1.19 -0.6 1.21 -0.6 1.22 -0.6 1.22 -0.6 1.23 -0.6 1.23 -0.59 1.24 -0.58 1.24 -0.58 1.24 -0.57 1.24 -0.56 1.24 -0.54 1.24 -0.53 1.23 -0.52 1.22 -0.5 1.22 -0.48 1.21 -0.46 1.2 -0.44 1.18zm0 0c-0.28,0.78 -1.15,1.18 -1.93,0.9 -0.78,-0.28 -1.18,-1.15 -0.9,-1.93l2.82 1.03z"/>
   </g>
   <g>
    <path class="fil0" d="M150.93 201.18l-0.69 -2.93 -0 0 0.11 -0.03 0.1 -0.05 0.11 -0.09 0.12 -0.13 0.13 -0.18 0.14 -0.24 0.13 -0.29 0.12 -0.34 0.11 -0.39 0.09 -0.43 0.07 -0.47 0.05 -0.49 0.03 -0.52 0.01 -0.54 -0.01 -0.56 -0.03 -0.57 -0.05 -0.57 -0.07 -0.58 -0.09 -0.57 -0.11 -0.57 -0.13 -0.56 -0.14 -0.54 -0.16 -0.52 -0.17 -0.5 -0.19 -0.47 -0.2 -0.44 -0.21 -0.4 -0.21 -0.36 -0.21 -0.31 -0.21 -0.26 -0.2 -0.21 -0.19 -0.16 1.78 -2.42 0.45 0.38 0.41 0.42 0.37 0.46 0.34 0.49 0.31 0.52 0.28 0.55 0.26 0.57 0.23 0.6 0.21 0.62 0.19 0.63 0.17 0.65 0.15 0.66 0.13 0.67 0.1 0.67 0.08 0.68 0.06 0.68 0.04 0.67 0.01 0.67 -0.01 0.66 -0.04 0.65 -0.07 0.63 -0.1 0.62 -0.13 0.6 -0.16 0.58 -0.2 0.56 -0.24 0.54 -0.29 0.51 -0.35 0.48 -0.41 0.43 -0.49 0.38 -0.55 0.3 -0.61 0.2 -0 0zm0 0c-0.81,0.19 -1.62,-0.31 -1.81,-1.12 -0.19,-0.81 0.31,-1.62 1.12,-1.81l0.69 2.93zm-10.53 -14.51l2.9 0.8 0 0 -0.04 0.21 -0.03 0.27 -0 0.31 0.02 0.36 0.05 0.4 0.08 0.43 0.11 0.45 0.14 0.47 0.17 0.49 0.19 0.5 0.22 0.51 0.24 0.51 0.26 0.51 0.28 0.51 0.3 0.5 0.31 0.49 0.32 0.47 0.33 0.46 0.34 0.44 0.35 0.41 0.35 0.38 0.35 0.35 0.35 0.32 0.34 0.28 0.33 0.24 0.31 0.19 0.29 0.15 0.26 0.11 0.23 0.07 0.19 0.03 0.16 0 0.13 -0.02 0.69 2.93 -0.61 0.09 -0.61 -0.01 -0.59 -0.09 -0.57 -0.16 -0.54 -0.22 -0.52 -0.27 -0.5 -0.31 -0.49 -0.35 -0.47 -0.39 -0.46 -0.42 -0.45 -0.45 -0.44 -0.47 -0.42 -0.5 -0.41 -0.52 -0.39 -0.54 -0.38 -0.56 -0.36 -0.57 -0.34 -0.58 -0.32 -0.59 -0.3 -0.6 -0.28 -0.6 -0.26 -0.6 -0.23 -0.6 -0.21 -0.6 -0.18 -0.6 -0.15 -0.59 -0.11 -0.59 -0.08 -0.58 -0.04 -0.57 0.01 -0.57 0.06 -0.56 0.12 -0.55 0 0zm0 -0c0.22,-0.8 1.05,-1.27 1.85,-1.05 0.8,0.22 1.27,1.05 1.05,1.85l-2.9 -0.8zm10.38 -3.19l-1.78 2.42 -0 -0 -0.25 -0.17 -0.25 -0.15 -0.24 -0.13 -0.24 -0.11 -0.24 -0.09 -0.23 -0.08 -0.23 -0.06 -0.23 -0.04 -0.22 -0.03 -0.22 -0.02 -0.22 -0 -0.21 0.01 -0.21 0.02 -0.2 0.04 -0.2 0.05 -0.19 0.06 -0.19 0.07 -0.18 0.08 -0.18 0.09 -0.17 0.1 -0.16 0.11 -0.16 0.12 -0.15 0.13 -0.14 0.14 -0.13 0.15 -0.12 0.16 -0.12 0.17 -0.11 0.17 -0.1 0.18 -0.09 0.19 -0.07 0.2 -0.06 0.2 -2.9 -0.8 0.12 -0.38 0.14 -0.37 0.16 -0.36 0.18 -0.34 0.2 -0.33 0.22 -0.32 0.24 -0.3 0.25 -0.29 0.27 -0.27 0.28 -0.25 0.3 -0.23 0.31 -0.22 0.33 -0.2 0.34 -0.18 0.35 -0.16 0.36 -0.14 0.37 -0.11 0.38 -0.09 0.39 -0.07 0.39 -0.05 0.4 -0.02 0.4 0 0.4 0.03 0.41 0.06 0.41 0.08 0.41 0.11 0.4 0.13 0.4 0.16 0.4 0.19 0.39 0.21 0.39 0.24 0.38 0.27 -0 -0zm0 0c0.67,0.49 0.81,1.43 0.32,2.1 -0.49,0.67 -1.43,0.81 -2.1,0.32l1.78 -2.42z"/>
   </g>
   <g>
    <path class="fil0" d="M126.43 143.74c-0.36,-0.75 -0.05,-1.65 0.7,-2.01 0.75,-0.36 1.65,-0.05 2.01,0.7l-2.71 1.31zm19.98 39.49l-2.82 1.03 -0.44 -1.2 -0.46 -1.24 -0.48 -1.27 -0.5 -1.29 -0.51 -1.32 -0.53 -1.34 -0.54 -1.35 -0.55 -1.37 -0.56 -1.38 -0.57 -1.39 -0.58 -1.4 -0.58 -1.4 -0.58 -1.4 -0.59 -1.4 -0.59 -1.4 -0.59 -1.39 -0.59 -1.38 -0.59 -1.37 -0.59 -1.35 -0.58 -1.33 -0.58 -1.31 -0.57 -1.29 -0.56 -1.26 -0.55 -1.23 -0.54 -1.2 -0.53 -1.16 -0.51 -1.12 -0.5 -1.08 -0.48 -1.04 -0.47 -0.99 -0.45 -0.94 -0.43 -0.89 2.71 -1.31 0.43 0.9 0.45 0.96 0.47 1 0.49 1.05 0.5 1.09 0.52 1.13 0.53 1.17 0.54 1.21 0.55 1.24 0.56 1.27 0.57 1.29 0.58 1.32 0.58 1.34 0.59 1.36 0.59 1.37 0.59 1.39 0.59 1.4 0.59 1.41 0.59 1.41 0.59 1.41 0.58 1.41 0.58 1.41 0.57 1.4 0.56 1.39 0.55 1.38 0.54 1.36 0.53 1.35 0.52 1.33 0.5 1.3 0.49 1.28 0.47 1.25 0.45 1.22zm0 0c0.28,0.78 -0.12,1.64 -0.89,1.93 -0.78,0.28 -1.64,-0.12 -1.93,-0.89l2.82 -1.03z"/>
   </g>
  </g>
 </g>
</svg>
