<?xml version="1.0" encoding="UTF-8"?>
<!DOCTYPE svg PUBLIC "-//W3C//DTD SVG 1.1//EN" "http://www.w3.org/Graphics/SVG/1.1/DTD/svg11.dtd">
<!-- Creator: CorelDRAW Standard 2021 (64-Bit) -->
<svg xmlns="http://www.w3.org/2000/svg" xml:space="preserve" width="26.7798mm" height="50.1571mm" version="1.1" style="shape-rendering:geometricPrecision; text-rendering:geometricPrecision; image-rendering:optimizeQuality; fill-rule:evenodd; clip-rule:evenodd"
viewBox="0 0 326.27 611.08"
 xmlns:xlink="http://www.w3.org/1999/xlink"
 xmlns:xodm="http://www.corel.com/coreldraw/odm/2003">
 <defs>
  <style type="text/css">
   <![CDATA[
    .fil0 {fill:#1D1D1B;fill-rule:nonzero}
   ]]>
  </style>
 </defs>
 <g id="Layer_x0020_1">
  <metadata id="CorelCorpID_0Corel-Layer"/>
  <g id="papa">
   <g>
    <path class="fil0" d="M233.56 75.81c-0.15,-1.31 0.79,-2.5 2.1,-2.65 1.31,-0.15 2.5,0.79 2.65,2.1l-4.75 0.55zm4.67 24.15l-4.71 -0.83 0 0 0.11 -0.63 0.1 -0.64 0.09 -0.65 0.08 -0.66 0.08 -0.67 0.07 -0.68 0.06 -0.69 0.05 -0.7 0.05 -0.71 0.04 -0.72 0.03 -0.73 0.03 -0.73 0.02 -0.74 0.01 -0.74 0 -0.75 -0 -0.75 -0.01 -0.75 -0.01 -0.76 -0.02 -0.76 -0.03 -0.76 -0.03 -0.77 -0.04 -0.76 -0.04 -0.76 -0.05 -0.77 -0.05 -0.76 -0.06 -0.76 -0.06 -0.76 -0.07 -0.76 -0.07 -0.75 -0.08 -0.75 -0.08 -0.74 -0.08 -0.74 4.75 -0.55 0.09 0.77 0.08 0.77 0.08 0.78 0.07 0.78 0.07 0.78 0.06 0.79 0.06 0.79 0.05 0.79 0.05 0.79 0.05 0.8 0.04 0.8 0.03 0.8 0.03 0.8 0.02 0.8 0.01 0.8 0.01 0.8 0 0.79 -0 0.79 -0.01 0.79 -0.02 0.78 -0.03 0.78 -0.03 0.77 -0.04 0.77 -0.05 0.76 -0.06 0.75 -0.06 0.75 -0.07 0.74 -0.08 0.73 -0.09 0.73 -0.1 0.72 -0.11 0.71 -0.12 0.7 0 0zm0 0c-0.23,1.3 -1.47,2.17 -2.77,1.94 -1.3,-0.23 -2.17,-1.47 -1.94,-2.77l4.71 0.83zm-89.47 69.45l0.74 -4.72 0 0 4.35 0.58 4.24 0.36 4.14 0.14 4.03 -0.07 3.92 -0.27 3.81 -0.47 3.71 -0.66 3.6 -0.85 3.49 -1.03 3.38 -1.21 3.27 -1.38 3.16 -1.55 3.05 -1.71 2.94 -1.87 2.83 -2.03 2.72 -2.18 2.61 -2.32 2.49 -2.46 2.38 -2.6 2.26 -2.73 2.15 -2.86 2.03 -2.98 1.91 -3.1 1.79 -3.21 1.66 -3.32 1.54 -3.42 1.42 -3.52 1.29 -3.61 1.16 -3.7 1.03 -3.78 0.9 -3.85 0.77 -3.93 4.71 0.83 -0.8 4.1 -0.94 4.03 -1.08 3.95 -1.22 3.87 -1.35 3.79 -1.49 3.69 -1.62 3.6 -1.76 3.5 -1.89 3.39 -2.02 3.28 -2.15 3.16 -2.28 3.04 -2.41 2.91 -2.54 2.77 -2.67 2.63 -2.79 2.49 -2.92 2.33 -3.04 2.18 -3.16 2.01 -3.28 1.84 -3.4 1.67 -3.52 1.49 -3.63 1.3 -3.75 1.11 -3.85 0.91 -3.96 0.71 -4.07 0.5 -4.18 0.29 -4.28 0.07 -4.38 -0.15 -4.48 -0.38 -4.57 -0.61 0 0zm0 0c-1.3,-0.2 -2.2,-1.43 -1.99,-2.73 0.2,-1.3 1.43,-2.2 2.73,-1.99l-0.74 4.72zm-59.51 -84.53l4.76 0.49 0 0 -0.22 2.61 -0.14 2.71 -0.06 2.79 0.03 2.87 0.13 2.93 0.23 2.98 0.33 3.02 0.44 3.05 0.56 3.07 0.67 3.08 0.8 3.08 0.92 3.07 1.05 3.05 1.19 3.02 1.33 2.98 1.47 2.92 1.62 2.86 1.77 2.79 1.92 2.71 2.08 2.62 2.25 2.52 2.42 2.41 2.59 2.3 2.77 2.17 2.96 2.04 3.14 1.89 3.34 1.74 3.55 1.57 3.75 1.4 3.97 1.22 4.19 1.02 4.42 0.82 -0.74 4.72 -4.68 -0.87 -4.46 -1.09 -4.24 -1.3 -4.03 -1.5 -3.81 -1.69 -3.61 -1.87 -3.4 -2.04 -3.2 -2.2 -3 -2.35 -2.81 -2.49 -2.62 -2.61 -2.43 -2.73 -2.25 -2.83 -2.07 -2.92 -1.9 -3 -1.73 -3.07 -1.57 -3.13 -1.42 -3.17 -1.26 -3.21 -1.12 -3.24 -0.98 -3.25 -0.84 -3.26 -0.71 -3.25 -0.59 -3.24 -0.47 -3.22 -0.35 -3.18 -0.24 -3.14 -0.14 -3.08 -0.04 -3.02 0.06 -2.95 0.15 -2.86 0.24 -2.77 0 0zm0 0c0.13,-1.31 1.31,-2.27 2.62,-2.14 1.31,0.13 2.27,1.31 2.14,2.62l-4.76 -0.49zm2.71 -13.63l4.59 1.35 -0.12 0.42 -0.12 0.41 -0.11 0.41 -0.11 0.41 -0.11 0.41 -0.1 0.41 -0.1 0.41 -0.1 0.41 -0.1 0.41 -0.1 0.4 -0.09 0.41 -0.09 0.41 -0.09 0.41 -0.09 0.4 -0.08 0.4 -0.08 0.4 -0.08 0.4 -0.08 0.4 -0.07 0.4 -0.07 0.39 -0.07 0.39 -0.07 0.4 -0.06 0.39 -0.06 0.39 -0.06 0.39 -0.05 0.38 -0.05 0.39 -0.05 0.39 -0.05 0.38 -0.05 0.38 -0.04 0.38 -0.04 0.38 -4.76 -0.49 0.04 -0.41 0.05 -0.41 0.05 -0.41 0.05 -0.41 0.05 -0.41 0.05 -0.42 0.06 -0.42 0.06 -0.42 0.06 -0.42 0.07 -0.42 0.07 -0.42 0.07 -0.42 0.08 -0.43 0.08 -0.42 0.08 -0.43 0.08 -0.43 0.09 -0.43 0.09 -0.43 0.09 -0.43 0.09 -0.43 0.1 -0.43 0.1 -0.43 0.1 -0.44 0.11 -0.43 0.11 -0.43 0.11 -0.43 0.11 -0.44 0.12 -0.43 0.12 -0.44 0.12 -0.44 0.12 -0.44 0.13 -0.44zm0 0c0.37,-1.27 1.7,-1.99 2.97,-1.62 1.27,0.37 1.99,1.7 1.62,2.97l-4.59 -1.35z"/>
   </g>
   <g>
    <path class="fil0" d="M93.55 76.1c1.23,0.48 1.84,1.87 1.36,3.1 -0.48,1.23 -1.87,1.84 -3.1,1.36l1.74 -4.46zm-22.83 19.43l-4.77 0.42 0 0 -0.06 -1.28 0.05 -1.26 0.15 -1.25 0.25 -1.22 0.34 -1.19 0.43 -1.16 0.51 -1.12 0.58 -1.08 0.65 -1.04 0.72 -1 0.78 -0.96 0.83 -0.92 0.88 -0.87 0.93 -0.83 0.97 -0.78 1.01 -0.73 1.04 -0.68 1.08 -0.63 1.1 -0.57 1.13 -0.51 1.15 -0.46 1.17 -0.39 1.18 -0.33 1.19 -0.26 1.2 -0.19 1.21 -0.12 1.21 -0.05 1.21 0.04 1.2 0.12 1.19 0.21 1.17 0.3 1.15 0.39 -1.74 4.46 -0.78 -0.27 -0.81 -0.2 -0.83 -0.14 -0.86 -0.08 -0.88 -0.03 -0.9 0.03 -0.91 0.09 -0.93 0.15 -0.93 0.21 -0.93 0.26 -0.93 0.31 -0.92 0.37 -0.91 0.42 -0.89 0.46 -0.87 0.51 -0.84 0.55 -0.82 0.59 -0.78 0.63 -0.74 0.66 -0.7 0.69 -0.65 0.72 -0.6 0.75 -0.55 0.77 -0.49 0.79 -0.43 0.81 -0.37 0.82 -0.31 0.83 -0.24 0.84 -0.18 0.85 -0.1 0.86 -0.04 0.86 0.04 0.87 0 0zm0 0c0.12,1.32 -0.86,2.48 -2.17,2.59 -1.32,0.12 -2.48,-0.86 -2.59,-2.17l4.77 -0.42zm20.91 12.02l1.91 4.39 -1.06 0.42 -1.08 0.35 -1.1 0.27 -1.11 0.2 -1.12 0.13 -1.12 0.07 -1.12 0 -1.13 -0.06 -1.12 -0.12 -1.11 -0.18 -1.1 -0.24 -1.09 -0.3 -1.07 -0.36 -1.05 -0.41 -1.04 -0.46 -1.01 -0.52 -0.98 -0.57 -0.95 -0.62 -0.92 -0.67 -0.88 -0.72 -0.84 -0.77 -0.8 -0.82 -0.75 -0.87 -0.7 -0.91 -0.65 -0.96 -0.59 -1.01 -0.53 -1.05 -0.46 -1.09 -0.39 -1.13 -0.31 -1.17 -0.24 -1.2 -0.15 -1.23 4.77 -0.42 0.11 0.9 0.17 0.87 0.23 0.85 0.28 0.82 0.33 0.8 0.38 0.77 0.43 0.74 0.48 0.71 0.52 0.68 0.57 0.65 0.61 0.62 0.64 0.59 0.68 0.56 0.71 0.52 0.74 0.48 0.77 0.44 0.79 0.4 0.81 0.36 0.83 0.32 0.84 0.28 0.85 0.23 0.86 0.19 0.86 0.14 0.86 0.09 0.86 0.05 0.85 -0 0.84 -0.05 0.83 -0.1 0.82 -0.15 0.8 -0.2 0.78 -0.25 0.76 -0.3zm0 0c1.21,-0.53 2.62,0.03 3.15,1.24 0.53,1.21 -0.03,2.62 -1.24,3.15l-1.91 -4.39z"/>
   </g>
   <g>
    <path class="fil0" d="M237.38 84.16c-1.31,0.16 -2.5,-0.78 -2.66,-2.09 -0.16,-1.31 0.78,-2.5 2.09,-2.66l0.57 4.75zm19.7 15.32l-4.77 -0.37 0 0 0.03 -0.83 -0.03 -0.81 -0.09 -0.79 -0.14 -0.77 -0.2 -0.76 -0.25 -0.74 -0.3 -0.72 -0.34 -0.71 -0.39 -0.69 -0.43 -0.67 -0.47 -0.65 -0.51 -0.63 -0.54 -0.61 -0.57 -0.58 -0.6 -0.56 -0.62 -0.53 -0.64 -0.5 -0.66 -0.47 -0.67 -0.44 -0.67 -0.41 -0.68 -0.38 -0.67 -0.34 -0.67 -0.3 -0.66 -0.27 -0.64 -0.23 -0.62 -0.19 -0.59 -0.15 -0.56 -0.11 -0.52 -0.07 -0.47 -0.04 -0.41 -0 -0.35 0.03 -0.57 -4.75 0.77 -0.06 0.78 0.01 0.79 0.06 0.8 0.12 0.81 0.16 0.82 0.21 0.83 0.25 0.84 0.3 0.84 0.34 0.85 0.38 0.85 0.43 0.84 0.47 0.83 0.51 0.83 0.55 0.81 0.59 0.8 0.63 0.78 0.67 0.75 0.7 0.73 0.74 0.7 0.78 0.66 0.82 0.62 0.86 0.58 0.9 0.53 0.94 0.47 0.98 0.42 1.01 0.35 1.05 0.28 1.08 0.21 1.11 0.13 1.14 0.04 1.17 -0.05 1.19 0 0zm0 0c-0.1,1.32 -1.25,2.3 -2.57,2.2 -1.32,-0.1 -2.3,-1.25 -2.2,-2.57l4.77 0.37zm-24.9 14.47l1.84 -4.42 0.63 0.24 0.65 0.19 0.68 0.15 0.7 0.1 0.72 0.06 0.73 0.02 0.74 -0.03 0.76 -0.07 0.76 -0.11 0.76 -0.16 0.76 -0.2 0.76 -0.24 0.75 -0.27 0.74 -0.31 0.73 -0.34 0.71 -0.38 0.69 -0.41 0.67 -0.44 0.64 -0.47 0.61 -0.5 0.58 -0.52 0.54 -0.54 0.5 -0.56 0.46 -0.58 0.42 -0.59 0.37 -0.61 0.33 -0.62 0.28 -0.63 0.23 -0.64 0.18 -0.64 0.13 -0.65 0.08 -0.66 4.77 0.37 -0.12 1.04 -0.2 1.02 -0.28 0.99 -0.35 0.96 -0.42 0.93 -0.48 0.9 -0.53 0.87 -0.59 0.83 -0.63 0.8 -0.68 0.76 -0.72 0.72 -0.76 0.69 -0.79 0.65 -0.83 0.61 -0.86 0.57 -0.88 0.53 -0.91 0.49 -0.93 0.44 -0.95 0.4 -0.97 0.35 -0.98 0.3 -0.99 0.25 -1.01 0.2 -1.01 0.15 -1.01 0.1 -1.02 0.04 -1.02 -0.02 -1.01 -0.08 -1.01 -0.15 -1 -0.22 -0.99 -0.29 -0.96 -0.36zm0 0c-1.22,-0.51 -1.8,-1.91 -1.29,-3.13 0.51,-1.22 1.91,-1.8 3.13,-1.29l-1.84 4.42z"/>
   </g>
   <path class="fil0" d="M141.18 89.5c2.54,-0.22 5.24,2.86 3.88,6.3 -1.36,3.44 -6.2,4.42 -8.24,0.73 -1.83,-3.3 1.06,-6.74 4.36,-7.03z"/>
   <path class="fil0" d="M179.61 94.75c-0.63,-2.47 1.99,-5.63 5.61,-4.83 3.61,0.79 5.35,5.42 2.03,8.03 -2.97,2.33 -6.83,0.02 -7.64,-3.19z"/>
   <g>
    <path class="fil0" d="M129.69 117.6c-0.37,-1.27 0.36,-2.6 1.63,-2.96 1.27,-0.37 2.6,0.36 2.96,1.63l-4.6 1.33zm34.91 20.07l0.24 4.78 0 0 -1.99 0.05 -1.93 -0.06 -1.88 -0.17 -1.82 -0.26 -1.77 -0.36 -1.71 -0.44 -1.65 -0.52 -1.59 -0.6 -1.53 -0.67 -1.47 -0.73 -1.41 -0.79 -1.35 -0.84 -1.29 -0.89 -1.23 -0.93 -1.17 -0.96 -1.11 -0.99 -1.06 -1.02 -1 -1.04 -0.94 -1.05 -0.88 -1.06 -0.83 -1.06 -0.77 -1.06 -0.72 -1.05 -0.66 -1.04 -0.61 -1.02 -0.56 -1 -0.5 -0.97 -0.45 -0.94 -0.4 -0.91 -0.35 -0.87 -0.3 -0.83 -0.25 -0.79 4.6 -1.33 0.18 0.59 0.24 0.65 0.29 0.72 0.34 0.76 0.38 0.8 0.43 0.84 0.48 0.87 0.53 0.9 0.58 0.91 0.63 0.93 0.68 0.93 0.73 0.94 0.78 0.93 0.83 0.92 0.87 0.91 0.92 0.89 0.97 0.87 1.02 0.84 1.07 0.81 1.11 0.77 1.16 0.73 1.21 0.68 1.26 0.63 1.3 0.57 1.35 0.51 1.4 0.45 1.46 0.38 1.51 0.3 1.56 0.23 1.61 0.14 1.67 0.05 1.73 -0.04 0 0zm0 0c1.32,-0.07 2.44,0.95 2.51,2.27 0.07,1.32 -0.95,2.44 -2.27,2.51l-0.24 -4.78zm29.43 -24.51l4.62 1.23 -0.2 0.7 -0.23 0.77 -0.27 0.83 -0.3 0.88 -0.35 0.93 -0.39 0.98 -0.44 1.02 -0.48 1.05 -0.53 1.08 -0.58 1.1 -0.64 1.12 -0.69 1.13 -0.75 1.14 -0.81 1.14 -0.88 1.14 -0.94 1.13 -1.01 1.11 -1.08 1.09 -1.15 1.06 -1.22 1.03 -1.3 0.99 -1.37 0.95 -1.45 0.9 -1.53 0.84 -1.61 0.77 -1.69 0.71 -1.78 0.63 -1.86 0.55 -1.94 0.46 -2.03 0.37 -2.12 0.27 -2.2 0.17 -0.24 -4.78 1.96 -0.15 1.87 -0.24 1.78 -0.32 1.69 -0.4 1.61 -0.48 1.53 -0.54 1.46 -0.61 1.38 -0.67 1.31 -0.72 1.24 -0.77 1.17 -0.81 1.11 -0.85 1.05 -0.89 0.99 -0.92 0.93 -0.94 0.87 -0.97 0.82 -0.98 0.76 -0.99 0.71 -1 0.66 -1 0.61 -1 0.56 -0.99 0.52 -0.98 0.47 -0.96 0.43 -0.94 0.39 -0.9 0.35 -0.87 0.31 -0.83 0.27 -0.78 0.24 -0.73 0.2 -0.67 0.17 -0.61zm0 0c0.34,-1.28 1.65,-2.03 2.93,-1.69 1.28,0.34 2.03,1.65 1.69,2.93l-4.62 -1.23z"/>
   </g>
   <g>
    <path class="fil0" d="M92.83 347.75c0.32,-1.28 1.62,-2.06 2.9,-1.75 1.28,0.32 2.06,1.62 1.75,2.9l-4.64 -1.15zm-2.83 222.7l-4.78 0 0 0 0.01 -1.06 0.03 -2.13 0.06 -3.14 0.08 -4.09 0.1 -4.96 0.12 -5.77 0.13 -6.5 0.15 -7.17 0.17 -7.76 0.19 -8.28 0.2 -8.74 0.21 -9.12 0.23 -9.43 0.24 -9.67 0.25 -9.84 0.27 -9.94 0.28 -9.96 0.29 -9.92 0.29 -9.81 0.3 -9.62 0.31 -9.37 0.32 -9.04 0.32 -8.65 0.33 -8.18 0.33 -7.65 0.33 -7.04 0.34 -6.36 0.34 -5.62 0.34 -4.81 0.34 -3.93 0.35 -3.02 0.38 -2.13 4.64 1.15 -0.29 1.64 -0.33 2.83 -0.33 3.83 -0.34 4.75 -0.34 5.58 -0.33 6.33 -0.33 7.02 -0.33 7.63 -0.33 8.17 -0.32 8.64 -0.32 9.03 -0.31 9.36 -0.3 9.62 -0.29 9.8 -0.29 9.91 -0.28 9.96 -0.26 9.93 -0.25 9.83 -0.24 9.66 -0.23 9.43 -0.21 9.11 -0.2 8.73 -0.19 8.28 -0.17 7.76 -0.15 7.17 -0.13 6.5 -0.12 5.77 -0.1 4.96 -0.08 4.08 -0.06 3.13 -0.03 2.11 -0.01 1 0 0zm0 0c0,1.32 -1.07,2.39 -2.39,2.39 -1.32,0 -2.39,-1.07 -2.39,-2.39l4.78 0zm56.95 4.33l4.51 1.61 -1.86 1.55 -1.03 0.14 -1.23 0.11 -1.43 0.09 -1.62 0.07 -1.81 0.05 -1.98 0.03 -2.13 0.01 -2.26 -0 -2.39 -0.02 -2.48 -0.04 -2.57 -0.06 -2.64 -0.08 -2.68 -0.09 -2.71 -0.11 -2.73 -0.13 -2.72 -0.15 -2.7 -0.17 -2.66 -0.19 -2.6 -0.21 -2.53 -0.22 -2.43 -0.24 -2.32 -0.26 -2.2 -0.28 -2.06 -0.31 -1.9 -0.33 -1.73 -0.35 -1.56 -0.38 -1.38 -0.42 -1.22 -0.49 -1.1 -0.63 -1.03 -1.03 -0.57 -1.8 4.78 0 -0.26 -0.89 -0.13 -0.16 0.35 0.19 0.75 0.3 1.07 0.33 1.34 0.33 1.57 0.32 1.78 0.31 1.96 0.29 2.12 0.27 2.26 0.26 2.38 0.24 2.47 0.22 2.56 0.2 2.62 0.18 2.66 0.16 2.69 0.15 2.69 0.13 2.68 0.11 2.65 0.09 2.61 0.07 2.54 0.06 2.45 0.04 2.35 0.02 2.23 0 2.09 -0.01 1.93 -0.03 1.75 -0.05 1.55 -0.07 1.32 -0.08 1.06 -0.1 0.77 -0.1 -1.86 1.55zm1.86 -1.55c1.3,-0.22 2.54,0.67 2.75,1.97 0.22,1.3 -0.67,2.54 -1.97,2.75l-0.78 -4.72zm12.63 -163.5l-0.15 4.78 0 0 1.92 -1.05 -0.21 0.82 -0.32 1.86 -0.34 2.66 -0.34 3.36 -0.34 3.99 -0.34 4.56 -0.34 5.08 -0.35 5.54 -0.35 5.95 -0.35 6.31 -0.35 6.62 -0.35 6.87 -0.36 7.07 -0.36 7.21 -0.36 7.31 -0.37 7.35 -0.37 7.34 -0.38 7.28 -0.38 7.16 -0.38 7 -0.39 6.78 -0.4 6.51 -0.4 6.19 -0.41 5.82 -0.42 5.39 -0.43 4.92 -0.43 4.39 -0.45 3.82 -0.46 3.21 -0.48 2.58 -0.55 1.99 -4.51 -1.61 0.38 -1.42 0.43 -2.31 0.44 -3.06 0.43 -3.72 0.43 -4.32 0.42 -4.86 0.41 -5.35 0.41 -5.79 0.4 -6.16 0.39 -6.49 0.39 -6.77 0.38 -6.99 0.38 -7.16 0.38 -7.27 0.37 -7.34 0.37 -7.35 0.36 -7.31 0.36 -7.21 0.36 -7.07 0.35 -6.87 0.35 -6.62 0.35 -6.32 0.35 -5.97 0.35 -5.57 0.35 -5.11 0.35 -4.61 0.35 -4.05 0.35 -3.45 0.36 -2.81 0.38 -2.17 0.48 -1.67 2.62 -1.88 0 0zm-0 0c1.32,0.04 2.36,1.14 2.32,2.46 -0.04,1.32 -1.14,2.36 -2.46,2.32l0.14 -4.78zm14.53 163.71l-3.66 3.08 0 0 -0.85 -1.75 -0.46 -1.98 -0.42 -2.63 -0.42 -3.31 -0.41 -3.95 -0.42 -4.55 -0.42 -5.1 -0.42 -5.59 -0.42 -6.03 -0.42 -6.41 -0.42 -6.74 -0.43 -7.01 -0.42 -7.22 -0.42 -7.37 -0.42 -7.47 -0.42 -7.51 -0.42 -7.5 -0.42 -7.43 -0.41 -7.3 -0.41 -7.11 -0.41 -6.87 -0.4 -6.57 -0.4 -6.21 -0.39 -5.8 -0.38 -5.33 -0.38 -4.79 -0.37 -4.2 -0.36 -3.55 -0.35 -2.83 -0.33 -2.01 -0.23 -0.96 1.84 1.09 0.15 -4.78 2.5 2.02 0.44 1.7 0.37 2.27 0.37 2.96 0.37 3.63 0.37 4.26 0.38 4.83 0.38 5.35 0.39 5.82 0.4 6.23 0.4 6.58 0.41 6.88 0.41 7.12 0.41 7.3 0.42 7.43 0.42 7.5 0.42 7.51 0.42 7.47 0.42 7.37 0.42 7.21 0.42 7 0.42 6.73 0.42 6.4 0.42 6.01 0.42 5.57 0.41 5.06 0.41 4.5 0.41 3.88 0.4 3.19 0.38 2.41 0.34 1.5 -0.07 0.05 0 0zm0 0c0.85,1.01 0.72,2.52 -0.29,3.37 -1.01,0.85 -2.52,0.72 -3.37,-0.29l3.66 -3.08zm55 -0.17l3.4 3.36 0 -0 -1.11 0.74 -0.97 0.34 -1.07 0.25 -1.25 0.23 -1.44 0.21 -1.62 0.2 -1.8 0.18 -1.96 0.17 -2.1 0.16 -2.23 0.15 -2.33 0.13 -2.43 0.12 -2.5 0.1 -2.56 0.08 -2.6 0.07 -2.62 0.05 -2.62 0.03 -2.61 0.01 -2.58 -0.01 -2.53 -0.03 -2.46 -0.06 -2.37 -0.08 -2.27 -0.11 -2.15 -0.13 -2.02 -0.16 -1.87 -0.19 -1.71 -0.22 -1.54 -0.26 -1.37 -0.3 -1.21 -0.37 -1.11 -0.51 -1.09 -0.89 3.66 -3.08 -0.17 -0.16 0.35 0.15 0.75 0.23 1.07 0.24 1.33 0.22 1.56 0.2 1.75 0.18 1.93 0.15 2.08 0.13 2.21 0.1 2.32 0.08 2.41 0.05 2.48 0.03 2.54 0.01 2.57 -0.01 2.59 -0.03 2.59 -0.05 2.56 -0.07 2.53 -0.08 2.47 -0.1 2.39 -0.12 2.3 -0.13 2.18 -0.14 2.05 -0.16 1.89 -0.17 1.72 -0.18 1.52 -0.19 1.3 -0.19 1.05 -0.19 0.74 -0.18 0.33 -0.11 -0.36 0.28 0 -0zm-0 0c0.93,-0.94 2.44,-0.95 3.38,-0.02 0.94,0.93 0.95,2.44 0.02,3.38l-3.4 -3.36zm-1.1 -223.33l4.69 -0.93 0.43 2.77 0.37 3.66 0.34 4.53 0.3 5.36 0.27 6.12 0.24 6.81 0.21 7.44 0.18 8 0.15 8.49 0.13 8.91 0.1 9.27 0.07 9.56 0.05 9.77 0.03 9.92 0.01 10 -0.01 10.01 -0.04 9.95 -0.05 9.83 -0.07 9.63 -0.09 9.37 -0.11 9.03 -0.12 8.63 -0.14 8.16 -0.15 7.62 -0.16 7.01 -0.18 6.33 -0.19 5.59 -0.2 4.78 -0.21 3.91 -0.22 2.98 -0.24 2.07 -0.88 2.09 -3.4 -3.36 -0.43 0.49 0.2 -1.72 0.21 -2.85 0.2 -3.84 0.19 -4.73 0.19 -5.56 0.17 -6.31 0.16 -6.99 0.15 -7.6 0.14 -8.15 0.12 -8.62 0.11 -9.02 0.09 -9.36 0.07 -9.62 0.05 -9.82 0.04 -9.94 0.01 -10 -0.01 -9.99 -0.03 -9.91 -0.05 -9.76 -0.07 -9.54 -0.1 -9.25 -0.13 -8.9 -0.15 -8.47 -0.18 -7.98 -0.21 -7.41 -0.24 -6.77 -0.27 -6.07 -0.3 -5.29 -0.33 -4.43 -0.35 -3.49 -0.37 -2.42zm0 0c-0.26,-1.3 0.58,-2.55 1.88,-2.81 1.3,-0.26 2.55,0.58 2.81,1.88l-4.69 0.93z"/>
   </g>
   <g>
    <path class="fil0" d="M6.53 374.57l-1.7 4.47 -0 0 -0.98 -0.48 -0.87 -0.63 -0.74 -0.75 -0.61 -0.83 -0.49 -0.9 -0.38 -0.94 -0.29 -0.98 -0.22 -1.02 -0.15 -1.05 -0.08 -1.08 -0.02 -1.1 0.03 -1.12 0.08 -1.14 0.13 -1.16 0.18 -1.17 0.22 -1.17 0.26 -1.17 0.3 -1.17 0.34 -1.16 0.38 -1.14 0.41 -1.12 0.45 -1.1 0.48 -1.07 0.52 -1.03 0.55 -0.99 0.58 -0.94 0.62 -0.9 0.66 -0.84 0.7 -0.78 0.75 -0.71 0.8 -0.63 0.86 -0.54 2.3 4.2 -0.4 0.25 -0.43 0.34 -0.46 0.43 -0.47 0.52 -0.47 0.6 -0.47 0.67 -0.46 0.74 -0.45 0.8 -0.43 0.85 -0.41 0.9 -0.38 0.94 -0.36 0.97 -0.33 0.99 -0.29 1 -0.26 1.01 -0.23 1.02 -0.19 1.01 -0.15 0.99 -0.11 0.97 -0.07 0.94 -0.02 0.9 0.02 0.86 0.06 0.8 0.1 0.73 0.14 0.66 0.17 0.58 0.2 0.49 0.21 0.39 0.21 0.29 0.21 0.21 0.2 0.15 0.23 0.11 -0 0zm0 0c1.23,0.47 1.85,1.85 1.38,3.09 -0.47,1.23 -1.85,1.85 -3.09,1.38l1.7 -4.47zm15.24 -17.78l4.74 -0.66 0 0 0.08 0.98 -0.03 0.98 -0.12 0.98 -0.2 0.99 -0.27 0.99 -0.34 1 -0.4 1 -0.45 1.01 -0.5 1 -0.55 1.01 -0.6 1 -0.63 0.99 -0.67 0.98 -0.71 0.96 -0.74 0.94 -0.77 0.91 -0.79 0.89 -0.82 0.86 -0.84 0.82 -0.86 0.77 -0.87 0.73 -0.89 0.68 -0.9 0.62 -0.91 0.57 -0.93 0.5 -0.94 0.42 -0.96 0.34 -0.99 0.25 -1.01 0.14 -1.02 0.02 -1.03 -0.13 -1.02 -0.29 1.7 -4.47 0.27 0.08 0.32 0.04 0.39 -0.01 0.45 -0.07 0.52 -0.13 0.57 -0.21 0.62 -0.28 0.66 -0.35 0.68 -0.42 0.7 -0.49 0.72 -0.55 0.72 -0.6 0.72 -0.65 0.71 -0.7 0.71 -0.74 0.69 -0.77 0.67 -0.8 0.65 -0.82 0.62 -0.84 0.59 -0.85 0.55 -0.86 0.51 -0.86 0.47 -0.85 0.42 -0.84 0.37 -0.82 0.31 -0.79 0.25 -0.75 0.19 -0.7 0.13 -0.65 0.07 -0.58 0.02 -0.51 -0.03 -0.42 0 0zm0 0c-0.18,-1.31 0.73,-2.52 2.04,-2.7 1.31,-0.18 2.52,0.73 2.7,2.04l-4.74 0.66zm-10.17 -4.36l-2.3 -4.2 0 0 0.73 -0.37 0.73 -0.33 0.74 -0.28 0.73 -0.23 0.73 -0.18 0.73 -0.14 0.73 -0.09 0.72 -0.04 0.72 0 0.7 0.04 0.7 0.09 0.68 0.13 0.66 0.17 0.65 0.21 0.63 0.25 0.61 0.28 0.59 0.32 0.57 0.35 0.54 0.38 0.52 0.42 0.49 0.44 0.46 0.47 0.44 0.5 0.4 0.53 0.37 0.55 0.34 0.58 0.3 0.6 0.27 0.62 0.23 0.64 0.19 0.65 0.16 0.67 0.12 0.68 -4.74 0.66 -0.07 -0.39 -0.09 -0.38 -0.11 -0.38 -0.13 -0.36 -0.15 -0.35 -0.17 -0.34 -0.19 -0.32 -0.21 -0.32 -0.23 -0.3 -0.24 -0.28 -0.27 -0.27 -0.28 -0.25 -0.29 -0.23 -0.31 -0.22 -0.32 -0.2 -0.33 -0.18 -0.35 -0.16 -0.35 -0.14 -0.37 -0.12 -0.38 -0.1 -0.39 -0.07 -0.4 -0.05 -0.41 -0.03 -0.42 0 -0.43 0.03 -0.44 0.05 -0.45 0.08 -0.46 0.11 -0.47 0.15 -0.48 0.18 -0.48 0.22 -0.49 0.25 0 0zm0 0c-1.16,0.63 -2.61,0.21 -3.25,-0.95 -0.63,-1.16 -0.21,-2.61 0.95,-3.25l2.3 4.2z"/>
   </g>
   <g>
    <path class="fil0" d="M200.42 159.35c-1.24,-0.46 -1.87,-1.84 -1.4,-3.08 0.46,-1.24 1.84,-1.87 3.08,-1.4l-1.67 4.48zm87.87 50.62l-3.5 3.26 -0.12 -0.14 -1.02 -1.21 -1.24 -1.33 -1.44 -1.43 -1.63 -1.52 -1.81 -1.6 -1.97 -1.68 -2.13 -1.74 -2.27 -1.8 -2.41 -1.85 -2.53 -1.89 -2.64 -1.92 -2.74 -1.95 -2.83 -1.97 -2.92 -1.98 -2.99 -1.99 -3.05 -1.99 -3.1 -1.98 -3.14 -1.96 -3.17 -1.94 -3.19 -1.91 -3.2 -1.87 -3.2 -1.83 -3.19 -1.78 -3.17 -1.73 -3.13 -1.66 -3.09 -1.59 -3.04 -1.51 -2.98 -1.43 -2.9 -1.33 -2.82 -1.23 -2.72 -1.13 -2.62 -1.01 1.67 -4.48 2.72 1.06 2.82 1.17 2.9 1.27 2.98 1.37 3.04 1.46 3.1 1.54 3.15 1.62 3.19 1.69 3.21 1.75 3.23 1.81 3.24 1.86 3.24 1.9 3.23 1.94 3.21 1.96 3.18 1.99 3.13 2 3.09 2.01 3.03 2.01 2.96 2.01 2.88 2 2.79 1.98 2.69 1.96 2.58 1.93 2.46 1.89 2.33 1.85 2.19 1.79 2.05 1.74 1.89 1.68 1.73 1.61 1.55 1.55 1.38 1.48 1.19 1.41 -0.12 -0.14zm0.12 0.14c0.82,1.03 0.65,2.54 -0.38,3.36 -1.03,0.82 -2.54,0.65 -3.36,-0.38l3.74 -2.98zm-34.95 41.69l1.19 -4.63 0 0 -0.79 -0.02 0.08 -0.04 0.48 -0.28 0.71 -0.5 0.88 -0.69 1.01 -0.85 1.12 -1 1.22 -1.13 1.3 -1.25 1.36 -1.35 1.42 -1.44 1.46 -1.52 1.49 -1.58 1.51 -1.63 1.51 -1.67 1.51 -1.7 1.49 -1.71 1.46 -1.71 1.41 -1.69 1.36 -1.66 1.29 -1.62 1.21 -1.57 1.12 -1.5 1.01 -1.41 0.9 -1.31 0.76 -1.2 0.62 -1.06 0.45 -0.88 0.27 -0.66 0.09 -0.33 0.02 0.22 0.43 0.82 3.5 -3.26 0.79 1.61 -0.01 1.36 -0.3 1.14 -0.46 1.11 -0.6 1.17 -0.73 1.25 -0.85 1.34 -0.97 1.42 -1.07 1.5 -1.17 1.57 -1.25 1.62 -1.33 1.67 -1.39 1.71 -1.45 1.73 -1.49 1.74 -1.52 1.74 -1.54 1.73 -1.54 1.71 -1.54 1.67 -1.52 1.62 -1.5 1.56 -1.46 1.48 -1.41 1.4 -1.35 1.3 -1.28 1.19 -1.2 1.08 -1.13 0.95 -1.04 0.81 -0.96 0.67 -0.93 0.54 -1.04 0.4 -1.59 0.02 0 0zm0 -0c-1.28,-0.33 -2.05,-1.63 -1.72,-2.91 0.33,-1.28 1.63,-2.05 2.91,-1.72l-1.19 4.63zm-13.65 -10.23l-4.78 0.21 3.51 -2.22 0.04 0.02 0.1 0.05 0.17 0.09 0.24 0.13 0.3 0.15 0.35 0.18 0.4 0.21 0.45 0.23 0.48 0.25 0.53 0.27 0.56 0.29 0.59 0.3 0.62 0.32 0.64 0.33 0.66 0.33 0.68 0.34 0.69 0.34 0.69 0.34 0.7 0.34 0.69 0.34 0.69 0.33 0.68 0.32 0.67 0.31 0.65 0.29 0.62 0.28 0.59 0.25 0.56 0.24 0.52 0.21 0.48 0.18 0.43 0.15 0.36 0.12 0.29 0.08 -1.19 4.63 -0.49 -0.14 -0.51 -0.17 -0.53 -0.19 -0.56 -0.21 -0.59 -0.24 -0.62 -0.26 -0.64 -0.28 -0.66 -0.29 -0.68 -0.31 -0.69 -0.32 -0.7 -0.33 -0.71 -0.34 -0.71 -0.34 -0.72 -0.35 -0.71 -0.35 -0.7 -0.35 -0.69 -0.34 -0.67 -0.34 -0.65 -0.33 -0.63 -0.32 -0.6 -0.31 -0.57 -0.29 -0.53 -0.28 -0.5 -0.26 -0.45 -0.24 -0.41 -0.21 -0.36 -0.19 -0.3 -0.16 -0.24 -0.13 -0.18 -0.09 -0.11 -0.06 -0.04 -0.02 3.51 -2.22zm-3.51 2.22c-1.16,-0.62 -1.61,-2.07 -0.98,-3.24 0.62,-1.16 2.07,-1.61 3.24,-0.98l-2.25 4.22zm3.5 103.78l-4.4 -1.88 -0 0 0.28 -0.82 0.3 -1.22 0.28 -1.57 0.25 -1.87 0.22 -2.15 0.19 -2.4 0.15 -2.63 0.12 -2.84 0.09 -3.04 0.07 -3.22 0.04 -3.38 0.01 -3.52 -0.01 -3.65 -0.03 -3.76 -0.05 -3.85 -0.07 -3.93 -0.09 -3.99 -0.1 -4.04 -0.11 -4.06 -0.12 -4.08 -0.14 -4.07 -0.14 -4.05 -0.15 -4.01 -0.15 -3.96 -0.16 -3.89 -0.16 -3.8 -0.16 -3.7 -0.16 -3.58 -0.15 -3.45 -0.15 -3.3 -0.14 -3.13 -0.13 -2.95 4.78 -0.21 0.13 2.95 0.14 3.13 0.15 3.3 0.15 3.45 0.16 3.59 0.16 3.71 0.16 3.81 0.16 3.9 0.15 3.97 0.15 4.02 0.14 4.06 0.14 4.08 0.12 4.09 0.11 4.08 0.1 4.05 0.09 4.01 0.07 3.95 0.05 3.88 0.03 3.78 0.01 3.68 -0.01 3.56 -0.04 3.42 -0.07 3.26 -0.1 3.1 -0.13 2.91 -0.16 2.71 -0.19 2.5 -0.23 2.28 -0.27 2.04 -0.32 1.81 -0.38 1.58 -0.48 1.38 -0 0zm0 0c-0.52,1.21 -1.92,1.78 -3.14,1.26 -1.21,-0.52 -1.78,-1.92 -1.26,-3.14l4.4 1.88zm-154.91 -1.18l3.98 -2.66 0 0 0.26 0.17 1.31 0.62 2.17 0.71 2.89 0.71 3.52 0.67 4.08 0.64 4.58 0.59 5.03 0.55 5.43 0.5 5.77 0.45 6.07 0.4 6.31 0.35 6.5 0.29 6.65 0.24 6.74 0.18 6.79 0.13 6.78 0.07 6.72 0.01 6.62 -0.05 6.46 -0.12 6.26 -0.18 6.01 -0.24 5.7 -0.31 5.34 -0.37 4.93 -0.44 4.47 -0.5 3.95 -0.57 3.37 -0.63 2.72 -0.68 1.97 -0.69 1.06 -0.57 0.06 0.02 4.4 1.88 -1.55 1.9 -2.05 1.16 -2.53 0.9 -3.07 0.76 -3.61 0.67 -4.12 0.59 -4.6 0.52 -5.03 0.44 -5.42 0.38 -5.77 0.31 -6.06 0.24 -6.31 0.18 -6.51 0.12 -6.66 0.05 -6.77 -0.01 -6.82 -0.07 -6.83 -0.13 -6.78 -0.18 -6.69 -0.24 -6.55 -0.29 -6.36 -0.35 -6.12 -0.4 -5.84 -0.45 -5.5 -0.51 -5.12 -0.56 -4.69 -0.61 -4.22 -0.66 -3.71 -0.71 -3.17 -0.78 -2.62 -0.86 -2.12 -1.03 -1.69 -1.56 0 0zm0 0c-0.73,-1.1 -0.44,-2.58 0.66,-3.32 1.1,-0.73 2.58,-0.44 3.32,0.66l-3.98 2.66zm8.89 -104.26l-2.37 -4.15 3.53 2.55 -0.47 2.46 -0.46 2.74 -0.45 3 -0.44 3.23 -0.43 3.44 -0.42 3.62 -0.4 3.78 -0.39 3.92 -0.37 4.04 -0.36 4.13 -0.34 4.21 -0.32 4.26 -0.3 4.28 -0.28 4.29 -0.25 4.27 -0.23 4.23 -0.21 4.17 -0.18 4.09 -0.15 3.98 -0.13 3.86 -0.1 3.71 -0.07 3.53 -0.04 3.34 -0.01 3.12 0.02 2.88 0.05 2.61 0.09 2.32 0.12 2 0.15 1.65 0.17 1.25 0.17 0.75 -0.03 0 -3.98 2.66 -0.57 -1.27 -0.3 -1.31 -0.22 -1.54 -0.17 -1.83 -0.13 -2.13 -0.09 -2.41 -0.05 -2.68 -0.02 -2.94 0.01 -3.17 0.04 -3.38 0.07 -3.57 0.1 -3.74 0.13 -3.89 0.16 -4.01 0.18 -4.11 0.21 -4.2 0.23 -4.26 0.25 -4.3 0.28 -4.31 0.3 -4.31 0.32 -4.28 0.34 -4.23 0.36 -4.16 0.38 -4.07 0.39 -3.96 0.41 -3.82 0.42 -3.67 0.44 -3.49 0.45 -3.29 0.46 -3.07 0.48 -2.84 0.49 -2.58 3.53 2.55zm-3.53 -2.55c0.26,-1.29 1.53,-2.13 2.82,-1.87 1.29,0.26 2.13,1.53 1.87,2.82l-4.69 -0.96zm-15.3 14.44l-2.23 -4.23 -0 0 0.77 -0.41 0.75 -0.41 0.73 -0.41 0.72 -0.41 0.7 -0.41 0.69 -0.41 0.67 -0.41 0.66 -0.41 0.64 -0.4 0.63 -0.4 0.62 -0.4 0.61 -0.4 0.6 -0.39 0.59 -0.39 0.58 -0.39 0.57 -0.38 0.56 -0.38 0.55 -0.38 0.54 -0.37 0.53 -0.37 0.53 -0.36 0.52 -0.35 0.51 -0.35 0.51 -0.34 0.5 -0.34 0.5 -0.33 0.49 -0.32 0.49 -0.31 0.49 -0.31 0.49 -0.3 0.49 -0.29 0.48 -0.28 2.37 4.15 -0.43 0.25 -0.43 0.26 -0.44 0.27 -0.45 0.28 -0.46 0.29 -0.47 0.3 -0.47 0.31 -0.48 0.32 -0.49 0.33 -0.5 0.34 -0.51 0.35 -0.52 0.36 -0.53 0.36 -0.54 0.37 -0.56 0.38 -0.56 0.38 -0.58 0.39 -0.59 0.4 -0.6 0.4 -0.62 0.41 -0.63 0.41 -0.64 0.41 -0.66 0.42 -0.67 0.42 -0.69 0.43 -0.71 0.43 -0.72 0.43 -0.74 0.43 -0.76 0.43 -0.77 0.43 -0.79 0.43 -0.81 0.43 -0 0zm0 0c-1.17,0.62 -2.62,0.17 -3.23,-1 -0.62,-1.17 -0.17,-2.62 1,-3.23l2.23 4.23zm-31.04 -46.58l3.83 2.86 0 0 0.32 -0.75 0.02 0.02 0.11 0.52 0.26 0.82 0.41 1.05 0.53 1.23 0.66 1.39 0.77 1.52 0.86 1.64 0.95 1.73 1.03 1.81 1.09 1.88 1.15 1.92 1.2 1.96 1.23 1.97 1.26 1.97 1.28 1.96 1.29 1.93 1.28 1.88 1.27 1.82 1.25 1.74 1.21 1.65 1.17 1.54 1.12 1.41 1.05 1.27 0.97 1.11 0.87 0.93 0.75 0.72 0.58 0.48 0.31 0.21 -0.22 -0.05 -1.05 0.2 2.23 4.23 -1.86 0.31 -1.28 -0.43 -0.98 -0.62 -0.93 -0.77 -0.96 -0.92 -1.01 -1.07 -1.07 -1.22 -1.12 -1.36 -1.17 -1.49 -1.22 -1.6 -1.26 -1.7 -1.28 -1.79 -1.3 -1.86 -1.31 -1.92 -1.31 -1.97 -1.3 -2 -1.29 -2.01 -1.26 -2.01 -1.22 -2 -1.18 -1.97 -1.12 -1.92 -1.06 -1.87 -0.98 -1.8 -0.9 -1.71 -0.81 -1.62 -0.71 -1.51 -0.61 -1.39 -0.49 -1.27 -0.37 -1.17 -0.24 -1.12 -0.03 -1.22 0.6 -1.57 0 0zm0 -0c0.79,-1.06 2.29,-1.27 3.35,-0.48 1.06,0.79 1.27,2.29 0.48,3.35l-3.83 -2.87zm80.31 -50.59l1.93 4.38 -2.3 1.04 -2.44 1.15 -2.56 1.25 -2.67 1.35 -2.77 1.44 -2.85 1.52 -2.93 1.59 -2.99 1.65 -3.03 1.71 -3.07 1.76 -3.09 1.8 -3.1 1.83 -3.1 1.85 -3.08 1.87 -3.06 1.88 -3.02 1.88 -2.96 1.87 -2.9 1.86 -2.82 1.84 -2.73 1.81 -2.63 1.77 -2.51 1.72 -2.38 1.67 -2.25 1.61 -2.09 1.54 -1.92 1.45 -1.74 1.37 -1.55 1.27 -1.34 1.15 -1.11 1.03 -0.86 0.88 -0.58 0.69 -3.83 -2.86 0.86 -1.04 1.06 -1.09 1.25 -1.17 1.45 -1.25 1.64 -1.34 1.82 -1.42 1.98 -1.5 2.14 -1.57 2.29 -1.64 2.43 -1.69 2.55 -1.75 2.66 -1.79 2.76 -1.83 2.85 -1.86 2.92 -1.88 2.99 -1.89 3.04 -1.89 3.08 -1.89 3.11 -1.89 3.12 -1.87 3.13 -1.84 3.12 -1.81 3.1 -1.77 3.06 -1.73 3.02 -1.67 2.96 -1.61 2.89 -1.54 2.81 -1.46 2.72 -1.37 2.62 -1.28 2.5 -1.18 2.37 -1.08zm0 0c1.21,-0.53 2.62,0.01 3.16,1.22 0.53,1.21 -0.01,2.62 -1.22,3.16l-1.93 -4.38z"/>
   </g>
   <g>
    <path class="fil0" d="M193.95 577.55c-0.07,-1.32 0.95,-2.44 2.27,-2.51 1.32,-0.07 2.44,0.95 2.51,2.27l-4.78 0.24zm1.16 23.24l-1.16 -23.24 4.78 -0.24 1.16 23.24 -4.78 0.24zm4.78 -0.24c0.07,1.32 -0.95,2.44 -2.27,2.51 -1.32,0.07 -2.44,-0.95 -2.51,-2.27l4.78 -0.24z"/>
   </g>
   <g>
    <path class="fil0" d="M217.59 611.07l0.07 -4.78 0 0 1.27 0.01 1.22 -0.01 1.18 -0.03 1.13 -0.05 1.08 -0.06 1.03 -0.08 0.99 -0.1 0.94 -0.11 0.89 -0.13 0.85 -0.14 0.79 -0.16 0.75 -0.17 0.7 -0.18 0.65 -0.2 0.61 -0.21 0.56 -0.22 0.51 -0.22 0.46 -0.23 0.41 -0.23 0.37 -0.24 0.33 -0.24 0.28 -0.23 0.24 -0.23 0.2 -0.23 0.17 -0.23 0.14 -0.23 0.11 -0.23 0.09 -0.23 0.07 -0.24 0.05 -0.25 0.03 -0.27 0.01 -0.28 4.78 0 -0.03 0.67 -0.08 0.66 -0.14 0.65 -0.19 0.64 -0.25 0.63 -0.3 0.6 -0.35 0.57 -0.41 0.54 -0.45 0.51 -0.49 0.48 -0.53 0.45 -0.57 0.42 -0.61 0.39 -0.64 0.36 -0.68 0.34 -0.71 0.31 -0.75 0.29 -0.78 0.27 -0.82 0.24 -0.86 0.22 -0.89 0.2 -0.93 0.18 -0.97 0.16 -1.01 0.14 -1.05 0.13 -1.09 0.11 -1.13 0.09 -1.17 0.07 -1.21 0.05 -1.25 0.03 -1.3 0.01 -1.34 -0.01 0 0zm0 0c-1.32,-0.02 -2.38,-1.11 -2.36,-2.43 0.02,-1.32 1.11,-2.38 2.43,-2.36l-0.07 4.78zm-22.48 -10.4l4.78 0 0 0 0.02 0.49 0.05 0.43 0.07 0.38 0.1 0.34 0.12 0.3 0.14 0.27 0.16 0.25 0.19 0.24 0.21 0.23 0.25 0.22 0.29 0.22 0.34 0.21 0.38 0.21 0.43 0.2 0.48 0.19 0.53 0.18 0.58 0.16 0.62 0.15 0.67 0.14 0.71 0.13 0.75 0.11 0.79 0.1 0.83 0.09 0.87 0.08 0.91 0.07 0.94 0.06 0.98 0.05 1.01 0.04 1.04 0.03 1.07 0.03 1.11 0.02 1.14 0.02 -0.07 4.78 -1.15 -0.02 -1.13 -0.02 -1.1 -0.03 -1.08 -0.03 -1.05 -0.04 -1.03 -0.05 -1 -0.06 -0.97 -0.07 -0.95 -0.08 -0.92 -0.1 -0.9 -0.11 -0.87 -0.13 -0.84 -0.15 -0.82 -0.17 -0.79 -0.19 -0.77 -0.22 -0.74 -0.25 -0.72 -0.28 -0.69 -0.32 -0.66 -0.36 -0.63 -0.4 -0.6 -0.45 -0.56 -0.5 -0.52 -0.55 -0.47 -0.6 -0.41 -0.65 -0.34 -0.69 -0.28 -0.72 -0.22 -0.76 -0.15 -0.78 -0.09 -0.8 -0.03 -0.82 0 0zm0 0c0,-1.32 1.07,-2.39 2.39,-2.39 1.32,0 2.39,1.07 2.39,2.39l-4.78 0zm25.28 -11.81l-0.59 4.75 0 0 -0.93 -0.1 -0.94 -0.07 -0.94 -0.04 -0.94 -0.01 -0.94 0.02 -0.94 0.05 -0.93 0.07 -0.92 0.1 -0.91 0.13 -0.89 0.15 -0.87 0.17 -0.85 0.2 -0.83 0.22 -0.8 0.24 -0.77 0.26 -0.74 0.28 -0.7 0.3 -0.67 0.32 -0.63 0.33 -0.58 0.34 -0.54 0.35 -0.49 0.36 -0.44 0.36 -0.39 0.36 -0.33 0.36 -0.28 0.36 -0.23 0.34 -0.18 0.34 -0.14 0.33 -0.09 0.32 -0.05 0.31 -0.02 0.32 -4.78 0 0.05 -0.87 0.15 -0.85 0.24 -0.82 0.32 -0.78 0.39 -0.74 0.46 -0.7 0.52 -0.66 0.57 -0.62 0.62 -0.59 0.67 -0.55 0.71 -0.52 0.74 -0.49 0.78 -0.46 0.81 -0.43 0.84 -0.4 0.88 -0.37 0.9 -0.34 0.93 -0.32 0.96 -0.29 0.98 -0.26 1 -0.23 1.02 -0.2 1.03 -0.17 1.05 -0.14 1.06 -0.12 1.07 -0.08 1.08 -0.05 1.09 -0.02 1.09 0.01 1.1 0.05 1.09 0.08 1.09 0.12 0 0zm0 0c1.31,0.16 2.24,1.36 2.08,2.67 -0.16,1.31 -1.36,2.24 -2.67,2.08l0.59 -4.75zm20.17 11.81l-4.78 0 0 0 0 0.05 -0 -0.01 -0.02 -0.06 -0.05 -0.11 -0.08 -0.15 -0.12 -0.18 -0.15 -0.21 -0.2 -0.24 -0.23 -0.25 -0.27 -0.27 -0.31 -0.28 -0.35 -0.29 -0.39 -0.29 -0.43 -0.3 -0.46 -0.3 -0.5 -0.3 -0.53 -0.3 -0.57 -0.3 -0.6 -0.3 -0.64 -0.29 -0.67 -0.29 -0.7 -0.28 -0.73 -0.27 -0.76 -0.26 -0.8 -0.25 -0.83 -0.24 -0.86 -0.22 -0.89 -0.21 -0.92 -0.19 -0.95 -0.17 -0.98 -0.16 -1.01 -0.14 0.59 -4.75 1.12 0.15 1.09 0.17 1.06 0.2 1.03 0.22 1 0.23 0.97 0.25 0.94 0.27 0.91 0.28 0.88 0.3 0.85 0.31 0.82 0.32 0.78 0.34 0.75 0.35 0.72 0.36 0.69 0.37 0.66 0.37 0.63 0.38 0.59 0.39 0.56 0.4 0.53 0.4 0.5 0.41 0.46 0.42 0.43 0.42 0.4 0.43 0.36 0.44 0.34 0.45 0.3 0.47 0.26 0.48 0.22 0.51 0.17 0.54 0.11 0.57 0.04 0.6 0 0zm0 0c0,1.32 -1.07,2.39 -2.39,2.39 -1.32,0 -2.39,-1.07 -2.39,-2.39l4.78 0z"/>
   </g>
   <g>
    <path class="fil0" d="M124.75 575.61c0.06,-1.32 1.18,-2.34 2.5,-2.28 1.32,0.06 2.34,1.18 2.28,2.5l-4.78 -0.22zm-1.16 24.96l1.16 -24.96 4.78 0.22 -1.16 24.96 -4.78 -0.22zm4.78 0.22c-0.06,1.32 -1.18,2.34 -2.5,2.28 -1.32,-0.06 -2.34,-1.18 -2.28,-2.5l4.78 0.22z"/>
   </g>
   <g>
    <path class="fil0" d="M105.82 606.29l0.07 4.78 0 0 -1.34 0.01 -1.3 -0.01 -1.25 -0.03 -1.21 -0.05 -1.17 -0.07 -1.13 -0.09 -1.09 -0.11 -1.05 -0.13 -1.01 -0.14 -0.97 -0.16 -0.93 -0.18 -0.89 -0.2 -0.85 -0.22 -0.82 -0.24 -0.78 -0.27 -0.75 -0.29 -0.71 -0.31 -0.68 -0.34 -0.64 -0.36 -0.61 -0.39 -0.57 -0.42 -0.53 -0.45 -0.49 -0.48 -0.45 -0.51 -0.41 -0.54 -0.35 -0.57 -0.31 -0.6 -0.25 -0.63 -0.19 -0.64 -0.14 -0.65 -0.08 -0.66 -0.03 -0.67 4.78 0 0.01 0.28 0.03 0.27 0.05 0.25 0.07 0.24 0.09 0.23 0.11 0.22 0.14 0.23 0.17 0.23 0.2 0.23 0.24 0.23 0.28 0.23 0.32 0.24 0.37 0.24 0.41 0.23 0.46 0.23 0.51 0.22 0.56 0.22 0.61 0.21 0.65 0.2 0.7 0.18 0.75 0.17 0.79 0.16 0.85 0.14 0.89 0.13 0.94 0.11 0.99 0.1 1.04 0.08 1.08 0.06 1.13 0.05 1.18 0.03 1.22 0.01 1.27 -0.01 0 0zm0 0c1.32,-0.02 2.41,1.04 2.43,2.36 0.02,1.32 -1.04,2.41 -2.36,2.43l-0.07 -4.78zm17.77 -5.62l4.78 0 0 0 -0.03 0.82 -0.09 0.8 -0.15 0.78 -0.22 0.76 -0.28 0.72 -0.34 0.69 -0.41 0.65 -0.47 0.6 -0.52 0.55 -0.56 0.5 -0.6 0.45 -0.63 0.4 -0.66 0.36 -0.69 0.32 -0.72 0.28 -0.74 0.25 -0.77 0.22 -0.79 0.19 -0.82 0.17 -0.84 0.15 -0.87 0.13 -0.89 0.11 -0.92 0.1 -0.95 0.08 -0.97 0.07 -1 0.06 -1.03 0.05 -1.05 0.04 -1.08 0.03 -1.1 0.03 -1.13 0.02 -1.15 0.02 -0.07 -4.78 1.14 -0.02 1.11 -0.02 1.07 -0.03 1.04 -0.03 1.01 -0.04 0.98 -0.05 0.94 -0.06 0.91 -0.07 0.87 -0.08 0.83 -0.09 0.79 -0.1 0.75 -0.11 0.71 -0.13 0.67 -0.14 0.62 -0.15 0.58 -0.16 0.53 -0.18 0.48 -0.19 0.43 -0.2 0.39 -0.21 0.34 -0.21 0.29 -0.22 0.25 -0.22 0.22 -0.23 0.18 -0.24 0.16 -0.25 0.14 -0.27 0.12 -0.3 0.1 -0.34 0.07 -0.38 0.05 -0.43 0.02 -0.49 0 0zm0 0c0,-1.32 1.07,-2.39 2.39,-2.39 1.32,0 2.39,1.07 2.39,2.39l-4.78 0zm-19.9 -7.06l-0.59 -4.75 0 0 1.09 -0.12 1.09 -0.08 1.1 -0.05 1.09 -0.01 1.09 0.02 1.08 0.05 1.07 0.08 1.06 0.12 1.05 0.14 1.03 0.17 1.02 0.2 1 0.23 0.98 0.26 0.96 0.29 0.93 0.32 0.9 0.34 0.88 0.37 0.84 0.4 0.81 0.43 0.78 0.46 0.74 0.49 0.71 0.52 0.67 0.55 0.62 0.59 0.57 0.62 0.52 0.66 0.46 0.7 0.39 0.74 0.32 0.78 0.24 0.82 0.15 0.85 0.05 0.87 -4.78 0 -0.02 -0.32 -0.05 -0.31 -0.09 -0.32 -0.14 -0.33 -0.18 -0.34 -0.23 -0.34 -0.28 -0.36 -0.33 -0.36 -0.39 -0.36 -0.44 -0.36 -0.49 -0.36 -0.54 -0.35 -0.58 -0.34 -0.63 -0.33 -0.67 -0.32 -0.7 -0.3 -0.74 -0.28 -0.77 -0.26 -0.8 -0.24 -0.83 -0.22 -0.85 -0.2 -0.87 -0.17 -0.89 -0.15 -0.91 -0.13 -0.92 -0.1 -0.93 -0.07 -0.94 -0.05 -0.94 -0.02 -0.94 0.01 -0.94 0.04 -0.94 0.07 -0.93 0.1 0 0zm0 0c-1.31,0.16 -2.51,-0.77 -2.67,-2.08 -0.16,-1.31 0.77,-2.51 2.08,-2.67l0.59 4.75zm-15.98 7.06l-4.78 0 0 0 0.04 -0.6 0.11 -0.57 0.17 -0.54 0.22 -0.51 0.26 -0.48 0.3 -0.47 0.34 -0.45 0.36 -0.44 0.4 -0.43 0.43 -0.42 0.46 -0.41 0.5 -0.41 0.53 -0.4 0.56 -0.4 0.59 -0.39 0.63 -0.38 0.66 -0.37 0.69 -0.37 0.72 -0.36 0.75 -0.35 0.78 -0.34 0.82 -0.32 0.85 -0.31 0.88 -0.3 0.91 -0.28 0.94 -0.27 0.97 -0.25 1 -0.23 1.03 -0.22 1.06 -0.2 1.09 -0.17 1.12 -0.15 0.59 4.75 -1.01 0.14 -0.98 0.16 -0.95 0.17 -0.92 0.19 -0.89 0.21 -0.86 0.22 -0.83 0.24 -0.8 0.25 -0.76 0.26 -0.73 0.27 -0.7 0.28 -0.67 0.29 -0.64 0.29 -0.6 0.3 -0.56 0.3 -0.53 0.3 -0.5 0.3 -0.46 0.3 -0.42 0.3 -0.39 0.29 -0.35 0.29 -0.31 0.28 -0.27 0.27 -0.23 0.25 -0.2 0.24 -0.15 0.21 -0.12 0.18 -0.08 0.15 -0.05 0.11 -0.02 0.06 -0 0.01 0 -0.05 0 0zm0 0c0,1.32 -1.07,2.39 -2.39,2.39 -1.32,0 -2.39,-1.07 -2.39,-2.39l4.78 0z"/>
   </g>
   <g>
    <path class="fil0" d="M60.12 240.55c0.47,-1.23 1.85,-1.85 3.09,-1.39 1.23,0.47 1.85,1.85 1.39,3.09l-4.47 -1.7zm-38.6 110.28l-4.36 -1.97 1.48 -3.29 1.48 -3.34 1.48 -3.38 1.47 -3.42 1.47 -3.46 1.47 -3.5 1.47 -3.52 1.46 -3.55 1.46 -3.57 1.45 -3.58 1.44 -3.59 1.43 -3.6 1.43 -3.6 1.41 -3.6 1.4 -3.59 1.39 -3.58 1.38 -3.57 1.36 -3.54 1.35 -3.52 1.33 -3.49 1.31 -3.46 1.3 -3.42 1.28 -3.38 1.26 -3.33 1.24 -3.28 1.21 -3.22 1.19 -3.16 1.17 -3.1 1.14 -3.03 1.12 -2.95 1.09 -2.88 1.06 -2.79 4.47 1.7 -1.06 2.79 -1.09 2.87 -1.11 2.95 -1.14 3.03 -1.17 3.1 -1.19 3.16 -1.21 3.22 -1.24 3.28 -1.26 3.33 -1.28 3.38 -1.3 3.42 -1.31 3.46 -1.33 3.5 -1.35 3.53 -1.36 3.55 -1.38 3.57 -1.39 3.59 -1.41 3.6 -1.42 3.61 -1.43 3.61 -1.44 3.61 -1.45 3.61 -1.46 3.6 -1.46 3.58 -1.47 3.56 -1.47 3.54 -1.48 3.51 -1.48 3.48 -1.48 3.45 -1.49 3.4 -1.49 3.36 -1.49 3.31zm0 0c-0.54,1.2 -1.96,1.74 -3.17,1.19 -1.2,-0.54 -1.74,-1.96 -1.19,-3.17l4.36 1.97z"/>
   </g>
   <g>
    <path class="fil0" d="M319.69 379.63l-0.99 -4.68 0 0 0.24 -0.07 0.22 -0.11 0.24 -0.18 0.26 -0.26 0.27 -0.35 0.27 -0.45 0.26 -0.54 0.24 -0.63 0.21 -0.71 0.19 -0.78 0.15 -0.84 0.12 -0.9 0.08 -0.94 0.04 -0.98 0.01 -1 -0.03 -1.03 -0.07 -1.04 -0.1 -1.04 -0.14 -1.04 -0.17 -1.03 -0.2 -1.01 -0.23 -0.99 -0.26 -0.95 -0.29 -0.91 -0.32 -0.86 -0.34 -0.81 -0.36 -0.74 -0.37 -0.67 -0.38 -0.58 -0.38 -0.5 -0.38 -0.41 -0.35 -0.31 2.92 -3.79 0.77 0.67 0.69 0.75 0.63 0.82 0.57 0.87 0.52 0.93 0.48 0.98 0.43 1.02 0.39 1.06 0.35 1.1 0.31 1.13 0.27 1.15 0.24 1.17 0.2 1.19 0.16 1.2 0.12 1.2 0.08 1.2 0.04 1.19 -0.01 1.18 -0.05 1.16 -0.1 1.14 -0.14 1.12 -0.19 1.09 -0.25 1.05 -0.3 1.01 -0.37 0.97 -0.44 0.92 -0.53 0.87 -0.62 0.81 -0.73 0.73 -0.84 0.63 -0.96 0.49 -1.04 0.32 0 0zm-0 0c-1.29,0.27 -2.56,-0.55 -2.84,-1.85 -0.27,-1.29 0.55,-2.56 1.85,-2.84l0.99 4.68zm-17.88 -25.97l4.58 1.38 -0 0 -0.1 0.41 -0.06 0.5 -0.02 0.59 0.03 0.66 0.08 0.73 0.13 0.78 0.19 0.83 0.24 0.86 0.28 0.89 0.33 0.91 0.37 0.92 0.41 0.93 0.45 0.93 0.48 0.93 0.51 0.91 0.54 0.89 0.56 0.87 0.58 0.84 0.6 0.8 0.61 0.76 0.62 0.71 0.62 0.65 0.62 0.59 0.61 0.52 0.59 0.45 0.57 0.37 0.53 0.29 0.49 0.21 0.44 0.14 0.38 0.07 0.32 0.01 0.28 -0.04 0.99 4.68 -1.05 0.13 -1.04 -0.03 -1.01 -0.17 -0.97 -0.3 -0.93 -0.4 -0.9 -0.49 -0.87 -0.57 -0.84 -0.63 -0.82 -0.7 -0.79 -0.76 -0.77 -0.81 -0.75 -0.85 -0.72 -0.9 -0.7 -0.94 -0.67 -0.97 -0.65 -1 -0.62 -1.02 -0.58 -1.04 -0.55 -1.06 -0.52 -1.07 -0.48 -1.07 -0.43 -1.08 -0.39 -1.08 -0.34 -1.07 -0.29 -1.06 -0.24 -1.05 -0.18 -1.04 -0.11 -1.02 -0.05 -1 0.03 -0.99 0.12 -0.97 0.23 -0.95 -0 0zm0 -0c0.38,-1.26 1.72,-1.98 2.98,-1.6 1.26,0.38 1.98,1.72 1.6,2.98l-4.58 -1.38zm18.22 -5.15l-2.92 3.79 0 -0 -0.45 -0.33 -0.45 -0.29 -0.44 -0.25 -0.44 -0.22 -0.43 -0.18 -0.43 -0.15 -0.43 -0.12 -0.42 -0.09 -0.41 -0.06 -0.41 -0.04 -0.4 -0.01 -0.4 0.01 -0.39 0.04 -0.38 0.06 -0.37 0.08 -0.37 0.1 -0.35 0.13 -0.34 0.15 -0.34 0.17 -0.33 0.19 -0.31 0.2 -0.3 0.23 -0.29 0.24 -0.27 0.26 -0.26 0.28 -0.24 0.29 -0.22 0.31 -0.21 0.32 -0.19 0.34 -0.17 0.35 -0.15 0.37 -0.13 0.38 -4.58 -1.38 0.22 -0.66 0.26 -0.64 0.3 -0.62 0.33 -0.59 0.36 -0.57 0.39 -0.54 0.42 -0.51 0.45 -0.49 0.48 -0.46 0.51 -0.43 0.53 -0.4 0.56 -0.36 0.57 -0.33 0.59 -0.29 0.62 -0.26 0.63 -0.22 0.65 -0.18 0.66 -0.15 0.67 -0.1 0.68 -0.06 0.69 -0.02 0.7 0.02 0.7 0.06 0.71 0.11 0.71 0.15 0.71 0.2 0.71 0.25 0.7 0.29 0.69 0.34 0.68 0.39 0.67 0.43 0.66 0.48 0 -0zm0 0c1.05,0.81 1.24,2.31 0.43,3.35 -0.81,1.05 -2.31,1.24 -3.35,0.43l2.92 -3.79z"/>
   </g>
   <g>
    <path class="fil0" d="M266.4 240.4c-0.57,-1.19 -0.06,-2.62 1.13,-3.19 1.19,-0.57 2.62,-0.06 3.19,1.13l-4.32 2.05zm45.72 107.36l-4.53 1.54 -0.75 -2.22 -0.79 -2.34 -0.82 -2.46 -0.86 -2.57 -0.89 -2.68 -0.93 -2.79 -0.96 -2.89 -1 -2.98 -1.03 -3.07 -1.06 -3.16 -1.1 -3.24 -1.13 -3.31 -1.17 -3.38 -1.2 -3.45 -1.24 -3.51 -1.27 -3.57 -1.31 -3.63 -1.34 -3.67 -1.37 -3.72 -1.41 -3.76 -1.44 -3.79 -1.48 -3.82 -1.51 -3.85 -1.55 -3.87 -1.58 -3.89 -1.61 -3.9 -1.65 -3.91 -1.68 -3.91 -1.72 -3.91 -1.75 -3.9 -1.78 -3.89 -1.82 -3.87 4.32 -2.05 1.84 3.91 1.8 3.93 1.77 3.94 1.73 3.94 1.7 3.94 1.66 3.94 1.63 3.93 1.59 3.91 1.56 3.9 1.52 3.87 1.49 3.85 1.45 3.81 1.42 3.78 1.38 3.74 1.35 3.69 1.31 3.64 1.28 3.59 1.24 3.53 1.21 3.47 1.17 3.4 1.14 3.32 1.1 3.25 1.07 3.16 1.03 3.08 1 2.98 0.96 2.89 0.93 2.79 0.89 2.68 0.85 2.57 0.82 2.45 0.78 2.33 0.75 2.21zm0 0c0.43,1.25 -0.24,2.61 -1.49,3.03 -1.25,0.43 -2.61,-0.24 -3.03,-1.49l4.53 -1.54z"/>
   </g>
   <g>
    <path class="fil0" d="M118.32 162.24c-0.56,-1.2 -0.04,-2.62 1.16,-3.18 1.2,-0.56 2.62,-0.04 3.18,1.16l-4.34 2.02zm25.33 30.99l3.56 3.19 -3.48 0.09 -0.72 -0.73 -0.75 -0.77 -0.77 -0.81 -0.79 -0.85 -0.81 -0.88 -0.83 -0.91 -0.84 -0.95 -0.85 -0.97 -0.87 -1 -0.88 -1.03 -0.88 -1.05 -0.89 -1.07 -0.89 -1.09 -0.89 -1.11 -0.89 -1.13 -0.89 -1.14 -0.88 -1.15 -0.87 -1.16 -0.86 -1.17 -0.85 -1.18 -0.84 -1.19 -0.82 -1.19 -0.8 -1.19 -0.78 -1.19 -0.76 -1.19 -0.74 -1.19 -0.71 -1.18 -0.68 -1.18 -0.65 -1.17 -0.62 -1.16 -0.58 -1.15 -0.55 -1.13 4.34 -2.02 0.5 1.04 0.54 1.06 0.57 1.08 0.61 1.09 0.64 1.11 0.67 1.12 0.7 1.13 0.73 1.14 0.75 1.14 0.77 1.15 0.79 1.15 0.81 1.15 0.82 1.14 0.84 1.14 0.85 1.13 0.86 1.12 0.86 1.11 0.87 1.1 0.87 1.08 0.87 1.06 0.87 1.05 0.86 1.02 0.85 1 0.84 0.97 0.83 0.95 0.82 0.92 0.8 0.89 0.78 0.86 0.76 0.82 0.74 0.78 0.72 0.74 0.69 0.7 -3.48 0.09zm3.48 -0.09c0.93,0.94 0.93,2.45 -0.01,3.38 -0.94,0.93 -2.45,0.93 -3.38,-0.01l3.39 -3.37zm19.24 -25.89l-4.42 1.83 4.3 0.25 -0.49 0.87 -0.51 0.89 -0.53 0.9 -0.55 0.91 -0.56 0.91 -0.57 0.92 -0.58 0.93 -0.6 0.93 -0.6 0.93 -0.61 0.94 -0.62 0.94 -0.63 0.93 -0.63 0.93 -0.64 0.93 -0.64 0.92 -0.64 0.91 -0.64 0.91 -0.64 0.89 -0.64 0.88 -0.64 0.87 -0.63 0.85 -0.63 0.84 -0.62 0.82 -0.62 0.8 -0.61 0.78 -0.6 0.76 -0.59 0.73 -0.58 0.71 -0.57 0.68 -0.55 0.65 -0.54 0.63 -0.53 0.59 -3.56 -3.19 0.49 -0.55 0.51 -0.59 0.52 -0.62 0.54 -0.65 0.55 -0.68 0.57 -0.7 0.58 -0.73 0.59 -0.75 0.6 -0.77 0.61 -0.8 0.61 -0.81 0.62 -0.83 0.62 -0.85 0.63 -0.86 0.63 -0.87 0.63 -0.88 0.63 -0.89 0.63 -0.9 0.62 -0.91 0.62 -0.91 0.61 -0.91 0.6 -0.91 0.6 -0.91 0.59 -0.91 0.58 -0.91 0.57 -0.9 0.55 -0.9 0.54 -0.89 0.53 -0.88 0.51 -0.86 0.49 -0.85 0.47 -0.84 4.3 0.25zm-4.3 -0.25c0.64,-1.15 2.1,-1.56 3.25,-0.92 1.15,0.64 1.56,2.1 0.92,3.25l-4.17 -2.33zm15.77 26.88l3.34 3.42 -3.62 -0.33 -0.54 -0.77 -0.55 -0.79 -0.55 -0.81 -0.55 -0.82 -0.55 -0.84 -0.55 -0.86 -0.55 -0.87 -0.55 -0.88 -0.55 -0.89 -0.55 -0.9 -0.55 -0.91 -0.54 -0.91 -0.54 -0.92 -0.53 -0.92 -0.53 -0.92 -0.52 -0.92 -0.52 -0.93 -0.51 -0.92 -0.5 -0.92 -0.49 -0.92 -0.48 -0.91 -0.47 -0.91 -0.46 -0.9 -0.45 -0.89 -0.43 -0.88 -0.42 -0.87 -0.4 -0.86 -0.39 -0.84 -0.38 -0.83 -0.36 -0.81 -0.34 -0.79 -0.33 -0.77 4.42 -1.83 0.31 0.73 0.32 0.75 0.34 0.77 0.36 0.79 0.38 0.81 0.39 0.82 0.4 0.84 0.42 0.85 0.43 0.86 0.44 0.87 0.45 0.88 0.47 0.89 0.48 0.89 0.48 0.9 0.49 0.9 0.5 0.9 0.51 0.9 0.51 0.9 0.52 0.9 0.52 0.9 0.53 0.89 0.53 0.88 0.53 0.87 0.53 0.86 0.53 0.85 0.53 0.84 0.53 0.83 0.53 0.81 0.53 0.8 0.53 0.78 0.52 0.76 0.52 0.74 -3.62 -0.33zm3.62 0.33c0.76,1.08 0.51,2.57 -0.57,3.33 -1.08,0.76 -2.57,0.51 -3.33,-0.57l3.9 -2.77zm22.41 -36.08l4.2 2.29 -0.57 1.04 -0.6 1.07 -0.63 1.1 -0.66 1.12 -0.68 1.14 -0.71 1.17 -0.73 1.18 -0.75 1.2 -0.77 1.22 -0.79 1.23 -0.81 1.24 -0.83 1.24 -0.84 1.25 -0.86 1.25 -0.87 1.25 -0.88 1.25 -0.9 1.25 -0.91 1.24 -0.91 1.23 -0.92 1.22 -0.93 1.21 -0.93 1.19 -0.94 1.18 -0.94 1.16 -0.94 1.13 -0.94 1.11 -0.94 1.08 -0.94 1.06 -0.94 1.02 -0.93 0.99 -0.93 0.96 -0.93 0.92 -3.34 -3.42 0.87 -0.86 0.88 -0.9 0.89 -0.94 0.89 -0.98 0.9 -1.01 0.91 -1.04 0.91 -1.07 0.91 -1.1 0.91 -1.12 0.91 -1.14 0.91 -1.16 0.9 -1.17 0.9 -1.19 0.89 -1.2 0.89 -1.21 0.87 -1.22 0.87 -1.22 0.85 -1.22 0.84 -1.22 0.82 -1.22 0.81 -1.22 0.79 -1.21 0.77 -1.2 0.75 -1.18 0.73 -1.17 0.71 -1.15 0.69 -1.14 0.66 -1.11 0.64 -1.09 0.61 -1.06 0.58 -1.03 0.55 -1zm0 0c0.63,-1.16 2.08,-1.59 3.24,-0.96 1.16,0.63 1.59,2.08 0.96,3.24l-4.2 -2.29z"/>
   </g>
   <g>
    <path class="fil0" d="M186.27 42.6l-4.01 2.61 4.26 -0.51 -0.66 1.75 -0.73 1.68 -0.79 1.61 -0.85 1.54 -0.9 1.47 -0.96 1.4 -1.01 1.34 -1.05 1.27 -1.1 1.21 -1.14 1.14 -1.18 1.09 -1.21 1.02 -1.24 0.97 -1.27 0.91 -1.3 0.85 -1.32 0.8 -1.34 0.75 -1.36 0.7 -1.37 0.65 -1.39 0.6 -1.4 0.56 -1.4 0.52 -1.41 0.48 -1.41 0.43 -1.41 0.4 -1.41 0.36 -1.41 0.33 -1.4 0.29 -1.39 0.26 -1.38 0.23 -1.36 0.21 -1.35 0.18 -0.59 -4.75 1.27 -0.17 1.28 -0.19 1.29 -0.22 1.3 -0.25 1.3 -0.27 1.31 -0.3 1.31 -0.33 1.3 -0.37 1.3 -0.4 1.29 -0.43 1.28 -0.47 1.27 -0.51 1.25 -0.54 1.24 -0.58 1.22 -0.63 1.2 -0.67 1.17 -0.71 1.15 -0.75 1.12 -0.8 1.09 -0.85 1.06 -0.89 1.02 -0.94 0.99 -1 0.95 -1.05 0.91 -1.1 0.87 -1.16 0.83 -1.22 0.78 -1.28 0.74 -1.34 0.69 -1.4 0.64 -1.47 0.58 -1.54 4.26 -0.51zm-4.26 0.51c0.44,-1.25 1.81,-1.9 3.05,-1.46 1.25,0.44 1.9,1.81 1.46,3.05l-4.51 -1.59zm55.54 33.13l4.78 0.02 -2.76 2.35 -1.9 -0.32 -1.92 -0.36 -1.94 -0.4 -1.95 -0.44 -1.96 -0.49 -1.97 -0.53 -1.98 -0.58 -1.98 -0.62 -1.98 -0.66 -1.98 -0.71 -1.98 -0.76 -1.97 -0.8 -1.96 -0.85 -1.95 -0.9 -1.93 -0.95 -1.92 -1 -1.9 -1.05 -1.88 -1.1 -1.85 -1.15 -1.82 -1.2 -1.79 -1.25 -1.76 -1.3 -1.72 -1.35 -1.68 -1.41 -1.64 -1.46 -1.59 -1.52 -1.54 -1.57 -1.49 -1.63 -1.44 -1.68 -1.38 -1.74 -1.32 -1.8 -1.26 -1.85 4.01 -2.61 1.16 1.7 1.22 1.65 1.27 1.6 1.33 1.55 1.38 1.5 1.43 1.46 1.48 1.41 1.53 1.36 1.57 1.31 1.61 1.26 1.65 1.22 1.68 1.17 1.71 1.12 1.74 1.08 1.77 1.03 1.79 0.99 1.81 0.94 1.83 0.9 1.85 0.85 1.86 0.81 1.87 0.77 1.88 0.72 1.89 0.68 1.89 0.63 1.89 0.59 1.88 0.55 1.88 0.5 1.87 0.47 1.86 0.42 1.84 0.38 1.83 0.34 1.81 0.3 -2.76 2.35zm2.76 -2.35c1.3,0.2 2.2,1.43 1.99,2.73 -0.2,1.3 -1.43,2.2 -2.73,1.99l0.74 -4.72zm-70.67 -68.8l0.45 -4.76 0 0 4.47 0.54 4.33 0.77 4.18 0.99 4.04 1.2 3.9 1.39 3.76 1.57 3.61 1.75 3.47 1.91 3.33 2.06 3.18 2.2 3.04 2.33 2.89 2.44 2.75 2.55 2.61 2.64 2.46 2.72 2.32 2.8 2.18 2.86 2.03 2.91 1.89 2.95 1.75 2.98 1.61 3 1.47 3.01 1.33 3.01 1.19 3 1.05 2.97 0.91 2.94 0.77 2.9 0.63 2.85 0.49 2.79 0.35 2.72 0.2 2.64 0.06 2.55 -4.78 -0.02 -0.06 -2.29 -0.19 -2.4 -0.32 -2.49 -0.45 -2.58 -0.58 -2.65 -0.72 -2.71 -0.85 -2.76 -0.99 -2.8 -1.12 -2.82 -1.25 -2.84 -1.39 -2.84 -1.52 -2.84 -1.66 -2.82 -1.79 -2.79 -1.92 -2.75 -2.06 -2.7 -2.19 -2.64 -2.32 -2.57 -2.46 -2.49 -2.59 -2.4 -2.72 -2.3 -2.85 -2.18 -2.99 -2.06 -3.12 -1.93 -3.25 -1.79 -3.39 -1.64 -3.52 -1.47 -3.66 -1.3 -3.79 -1.12 -3.93 -0.93 -4.07 -0.72 -4.2 -0.51 0 0zm0 0c-1.31,-0.12 -2.28,-1.29 -2.16,-2.61 0.12,-1.31 1.29,-2.28 2.61,-2.16l-0.45 4.76zm-81.73 64.35l-0.14 4.78 -2.28 -2.85 0.68 -3.15 0.81 -3.18 0.95 -3.21 1.07 -3.23 1.21 -3.24 1.34 -3.24 1.47 -3.23 1.59 -3.22 1.72 -3.19 1.85 -3.15 1.97 -3.1 2.1 -3.04 2.23 -2.98 2.36 -2.9 2.48 -2.81 2.61 -2.71 2.73 -2.6 2.85 -2.48 2.98 -2.36 3.1 -2.22 3.23 -2.07 3.35 -1.9 3.47 -1.73 3.59 -1.55 3.71 -1.36 3.83 -1.15 3.94 -0.94 4.06 -0.71 4.17 -0.48 4.28 -0.23 4.38 0.03 4.49 0.29 -0.45 4.76 -4.21 -0.27 -4.1 -0.02 -3.99 0.21 -3.88 0.44 -3.77 0.66 -3.67 0.87 -3.56 1.07 -3.45 1.26 -3.34 1.44 -3.24 1.62 -3.13 1.78 -3.02 1.93 -2.91 2.08 -2.8 2.21 -2.69 2.34 -2.58 2.45 -2.46 2.56 -2.35 2.66 -2.23 2.75 -2.12 2.83 -2 2.89 -1.88 2.95 -1.76 3 -1.64 3.04 -1.52 3.07 -1.4 3.08 -1.27 3.09 -1.15 3.09 -1.02 3.07 -0.9 3.05 -0.77 3.01 -0.64 2.97 -2.28 -2.85zm2.28 2.85c-0.25,1.3 -1.51,2.14 -2.81,1.89 -1.3,-0.25 -2.14,-1.51 -1.89,-2.81l4.69 0.92zm65.44 -19.33l-4.64 -1.16 3.92 2.36 -1.79 1.56 -1.8 1.48 -1.81 1.41 -1.83 1.34 -1.84 1.27 -1.86 1.2 -1.87 1.13 -1.89 1.06 -1.91 1 -1.93 0.94 -1.95 0.87 -1.97 0.81 -1.99 0.76 -2.01 0.69 -2.03 0.64 -2.06 0.58 -2.08 0.53 -2.1 0.48 -2.13 0.43 -2.15 0.38 -2.18 0.34 -2.21 0.29 -2.23 0.25 -2.26 0.21 -2.29 0.17 -2.32 0.13 -2.36 0.1 -2.39 0.06 -2.42 0.03 -2.46 -0 -2.49 -0.03 -2.53 -0.06 0.14 -4.78 2.48 0.06 2.44 0.03 2.4 0 2.36 -0.03 2.32 -0.06 2.28 -0.09 2.24 -0.13 2.21 -0.16 2.17 -0.2 2.14 -0.24 2.11 -0.28 2.07 -0.32 2.04 -0.36 2.01 -0.41 1.98 -0.45 1.96 -0.5 1.93 -0.55 1.9 -0.6 1.88 -0.65 1.86 -0.7 1.84 -0.76 1.82 -0.82 1.8 -0.87 1.78 -0.93 1.77 -0.99 1.75 -1.06 1.74 -1.12 1.73 -1.19 1.71 -1.26 1.7 -1.33 1.7 -1.4 1.69 -1.47 3.92 2.36zm-3.92 -2.36c0.98,-0.88 2.5,-0.8 3.38,0.19 0.88,0.98 0.8,2.5 -0.19,3.38l-3.19 -3.56zm-4.67 16.35l0.59 4.75 -2.28 -3.72 0.27 -0.41 0.26 -0.41 0.25 -0.42 0.24 -0.43 0.23 -0.43 0.22 -0.44 0.21 -0.45 0.21 -0.46 0.2 -0.46 0.19 -0.47 0.19 -0.48 0.18 -0.48 0.18 -0.49 0.17 -0.5 0.17 -0.5 0.16 -0.51 0.16 -0.51 0.15 -0.52 0.15 -0.53 0.15 -0.53 0.14 -0.54 0.14 -0.54 0.14 -0.55 0.14 -0.55 0.14 -0.56 0.14 -0.56 0.14 -0.57 0.14 -0.57 0.14 -0.57 0.14 -0.58 0.14 -0.58 0.14 -0.58 4.64 1.16 -0.14 0.57 -0.14 0.57 -0.14 0.57 -0.14 0.57 -0.14 0.57 -0.14 0.57 -0.14 0.57 -0.14 0.57 -0.14 0.57 -0.15 0.57 -0.15 0.57 -0.15 0.57 -0.16 0.57 -0.16 0.57 -0.17 0.56 -0.17 0.56 -0.18 0.56 -0.18 0.56 -0.19 0.56 -0.2 0.55 -0.21 0.55 -0.21 0.55 -0.23 0.55 -0.24 0.54 -0.24 0.53 -0.26 0.54 -0.27 0.53 -0.28 0.53 -0.29 0.52 -0.31 0.52 -0.32 0.51 -0.33 0.5 -2.28 -3.72zm2.28 3.72c-0.74,1.09 -2.23,1.38 -3.32,0.64 -1.09,-0.74 -1.38,-2.23 -0.64,-3.32l3.96 2.69z"/>
   </g>
   <g>
    <path class="fil0" d="M247.5 247.64c-0.93,0.94 -2.44,0.95 -3.38,0.02 -0.94,-0.93 -0.95,-2.44 -0.02,-3.38l3.4 3.37zm30.24 -44.18l4.02 2.6 -1.25 1.9 -1.29 1.9 -1.33 1.9 -1.36 1.89 -1.38 1.88 -1.4 1.87 -1.42 1.85 -1.43 1.83 -1.43 1.8 -1.43 1.77 -1.43 1.74 -1.41 1.7 -1.4 1.66 -1.38 1.61 -1.35 1.56 -1.32 1.5 -1.28 1.45 -1.24 1.38 -1.19 1.31 -1.13 1.24 -1.07 1.17 -1.01 1.09 -0.94 1.01 -0.87 0.92 -0.78 0.82 -0.7 0.73 -0.6 0.63 -0.51 0.52 -0.4 0.42 -0.3 0.31 -0.18 0.19 -0.07 0.07 -3.4 -3.37 0.06 -0.06 0.18 -0.18 0.29 -0.29 0.4 -0.41 0.5 -0.51 0.59 -0.62 0.68 -0.72 0.77 -0.82 0.85 -0.9 0.92 -0.99 1 -1.07 1.06 -1.15 1.12 -1.23 1.17 -1.3 1.22 -1.36 1.26 -1.43 1.3 -1.48 1.33 -1.54 1.36 -1.59 1.38 -1.63 1.39 -1.67 1.4 -1.71 1.41 -1.74 1.41 -1.77 1.4 -1.79 1.39 -1.81 1.37 -1.83 1.35 -1.84 1.32 -1.84 1.29 -1.85 1.25 -1.84 1.21 -1.84zm0 0c0.72,-1.11 2.2,-1.43 3.31,-0.71 1.11,0.72 1.43,2.2 0.71,3.31l-4.02 -2.6z"/>
   </g>
   <g>
    <path class="fil0" d="M51.05 203.11c-0.51,-1.22 0.07,-2.62 1.29,-3.13 1.22,-0.51 2.62,0.07 3.13,1.29l-4.42 1.84zm31.19 42.37l-3.53 3.23 -0.75 -0.84 -0.78 -0.92 -0.81 -1 -0.84 -1.07 -0.86 -1.13 -0.89 -1.2 -0.91 -1.26 -0.92 -1.31 -0.94 -1.36 -0.95 -1.41 -0.97 -1.45 -0.97 -1.49 -0.98 -1.53 -0.98 -1.56 -0.98 -1.58 -0.98 -1.6 -0.97 -1.62 -0.97 -1.63 -0.96 -1.64 -0.94 -1.64 -0.93 -1.64 -0.91 -1.64 -0.89 -1.62 -0.86 -1.61 -0.84 -1.59 -0.81 -1.57 -0.78 -1.54 -0.74 -1.51 -0.7 -1.47 -0.66 -1.44 -0.62 -1.39 -0.57 -1.34 4.42 -1.84 0.54 1.27 0.59 1.33 0.64 1.38 0.68 1.42 0.72 1.47 0.75 1.5 0.79 1.53 0.82 1.55 0.84 1.58 0.87 1.59 0.89 1.6 0.91 1.61 0.93 1.61 0.94 1.61 0.95 1.6 0.96 1.59 0.96 1.57 0.96 1.55 0.96 1.53 0.96 1.5 0.95 1.46 0.94 1.42 0.93 1.38 0.91 1.33 0.9 1.27 0.87 1.21 0.85 1.15 0.82 1.08 0.79 1 0.75 0.93 0.71 0.84 0.67 0.75zm0 0c0.89,0.97 0.83,2.49 -0.15,3.38 -0.97,0.89 -2.49,0.83 -3.38,-0.15l3.53 -3.23z"/>
   </g>
   <g>
    <path class="fil0" d="M174.82 188.85c-1.18,0.58 -2.62,0.1 -3.2,-1.09 -0.58,-1.18 -0.1,-2.62 1.09,-3.2l2.12 4.29zm18.65 -29.17l4.23 2.24 -0.48 0.89 -0.52 0.91 -0.55 0.93 -0.58 0.96 -0.61 0.97 -0.64 0.98 -0.67 1 -0.69 1 -0.71 1.01 -0.73 1.01 -0.74 1.01 -0.76 1.01 -0.77 1 -0.78 0.99 -0.79 0.98 -0.79 0.97 -0.8 0.95 -0.8 0.93 -0.8 0.91 -0.8 0.88 -0.79 0.85 -0.79 0.82 -0.78 0.79 -0.77 0.75 -0.76 0.71 -0.75 0.67 -0.74 0.63 -0.72 0.58 -0.71 0.53 -0.7 0.48 -0.69 0.43 -0.69 0.37 -2.12 -4.29 0.41 -0.22 0.47 -0.29 0.52 -0.36 0.57 -0.43 0.61 -0.48 0.63 -0.54 0.66 -0.59 0.68 -0.64 0.71 -0.69 0.72 -0.73 0.73 -0.77 0.75 -0.8 0.75 -0.83 0.76 -0.86 0.76 -0.89 0.76 -0.91 0.76 -0.93 0.76 -0.94 0.75 -0.96 0.74 -0.96 0.73 -0.97 0.71 -0.97 0.69 -0.97 0.68 -0.97 0.66 -0.96 0.63 -0.95 0.61 -0.93 0.58 -0.91 0.55 -0.89 0.51 -0.87 0.48 -0.84 0.44 -0.81zm0 0c0.62,-1.17 2.07,-1.61 3.23,-0.99 1.17,0.62 1.61,2.07 0.99,3.23l-4.23 -2.24z"/>
   </g>
   <g>
    <path class="fil0" d="M153.19 184.65c1.13,0.68 1.5,2.15 0.82,3.28 -0.68,1.13 -2.15,1.5 -3.28,0.82l2.47 -4.1zm-23.49 -21.65l4.58 -1.38 0.23 0.69 0.28 0.73 0.32 0.76 0.37 0.78 0.41 0.81 0.45 0.82 0.49 0.84 0.53 0.85 0.56 0.86 0.59 0.87 0.61 0.87 0.64 0.87 0.66 0.87 0.68 0.86 0.7 0.85 0.71 0.84 0.72 0.83 0.72 0.81 0.73 0.79 0.73 0.77 0.73 0.75 0.73 0.72 0.72 0.69 0.71 0.66 0.69 0.63 0.68 0.59 0.66 0.55 0.64 0.51 0.61 0.47 0.58 0.42 0.54 0.37 0.5 0.31 -2.47 4.1 -0.65 -0.41 -0.67 -0.46 -0.68 -0.5 -0.7 -0.54 -0.72 -0.58 -0.73 -0.61 -0.74 -0.65 -0.76 -0.68 -0.76 -0.72 -0.77 -0.74 -0.78 -0.77 -0.78 -0.8 -0.78 -0.82 -0.78 -0.84 -0.77 -0.86 -0.76 -0.88 -0.75 -0.89 -0.74 -0.91 -0.73 -0.92 -0.71 -0.93 -0.69 -0.93 -0.67 -0.94 -0.64 -0.94 -0.62 -0.95 -0.59 -0.95 -0.55 -0.94 -0.52 -0.94 -0.48 -0.94 -0.44 -0.93 -0.4 -0.93 -0.35 -0.92 -0.3 -0.92zm0 0c-0.38,-1.26 0.34,-2.6 1.6,-2.98 1.26,-0.38 2.6,0.34 2.98,1.6l-4.58 1.38z"/>
   </g>
  </g>
 </g>
</svg>
